<svg fill="none" height="21" viewBox="0 0 144 21" width="144" xmlns="http://www.w3.org/2000/svg" xmlns:xlink="http://www.w3.org/1999/xlink"><clipPath id="a"><path d="m0 0h143.868v21h-143.868z"/></clipPath><g clip-path="url(#a)" fill="#131313"><path d="m88.6063 7.36938h-3.1952v7.65162h1.2474 1.9478z"/><path d="m95.8853 3.54696c-1.2265-1.22997-2.9687-1.77352-4.899-1.77352h-3.0244v3.23345h2.5227c1.3066 0 2.1707.39024 2.8153 1.14634.6969.83623.8223 2.00697.8223 4.81877 0 2.8119-.1115 4.1394-.8223 4.9722-.6516.7561-1.5157 1.1463-2.8153 1.1463h-2.5227v3.223h3.014c1.9268 0 3.6724-.547 4.8989-1.77 2.0906-2.0906 1.878-4.7945 1.878-7.5784 0-2.784.2091-5.338-1.878-7.42163"/><path d="m63.1709 20.3135h1.4076v-18.54006h-1.4076z"/><path d="m37.1289 2.86762c2.5017 0 4.3205 1.61324 4.878 4.18119h1.4321c-.5958-3.39025-3.007-5.43206-6.3136-5.43206-.8601-.00344-1.7125.16282-2.5083.48927s-1.5194.80667-2.1293 1.41317c-1.6934 1.69338-1.7178 3.33101-1.7178 7.51221s.0244 5.8293 1.7178 7.5122c.6088.6107 1.3321 1.0952 2.1285 1.4259.7964.3306 1.6503.5008 2.5126.5009 3.2543 0 5.7038-2.0557 6.3031-5.4181h-1.3937c-.547 2.5505-2.439 4.1812-4.9233 4.1812-.6519.0054-1.2983-.1188-1.9019-.3652-.6035-.2464-1.152-.6103-1.6138-1.0704-1.3275-1.3275-1.4356-2.7595-1.4356-6.7421s.1046-5.41814 1.4356-6.74567c.4621-.45917 1.0109-.82192 1.6144-1.06716.6036-.24525 1.2498-.3681 1.9013-.36141"/><path d="m49.6831 1.77344h-1.4077v18.54006h11.2474v-1.2509h-9.8397z"/><path d="m75.9441 2.86763c2.5018 0 4.3241 1.61324 4.8781 4.18118h1.4355c-.6271-3.39024-3.0209-5.43205-6.3136-5.43205-.8591-.00367-1.7105.16251-2.5052.489s-1.517.80684-2.1254 1.41344c-1.6934 1.69338-1.7178 3.33101-1.7178 7.5122 0 4.1812.0244 5.8293 1.7178 7.5122.609.6055 1.3315 1.0849 2.1261 1.4107.7946.3259 1.6457.4918 2.5045.4882 3.2579 0 5.7039-2.0557 6.3067-5.4181h-1.3938c-.5435 2.5505-2.439 4.1812-4.9233 4.1812-.6514.0057-1.2974-.1183-1.9004-.3648-.603-.2464-1.1509-.6104-1.6118-1.0707-1.3275-1.3276-1.4321-2.7596-1.4321-6.7422 0-3.98257.1046-5.41811 1.4321-6.74564.4613-.46316 1.0106-.82938 1.6156-1.07711s1.2534-.37196 1.907-.3654"/><path d="m134.265 1.77344-6.753 18.54006h3.777l1.108-3.2787h6.613l1.095 3.2787h3.773l-6.773-18.54006h-2.844zm-.833 12.19516 2.345-6.7422 2.265 6.7456"/><path d="m128.178 1.77344h-13.307v3.22996h4.84v15.3101h3.624v-15.3101h4.843z"/><path d="m108.749 1.77344h-2.84l-6.742 18.54006h3.774l1.118-3.2787h6.592l1.098 3.2787h3.756l-.916-2.5052-5.854-16.02789zm-3.687 12.20206 2.342-6.74213 2.268 6.74213"/><path d="m2.12822 2.1324c1.39373-1.292679 3.36585-1.818811 5.55052-1.912888 1.12195-.030197 2.24042-.103368 3.35536-.219512v3.65854c-.9895.05807-1.98021.10336-2.97208.13589-1.41812.03832-2.36586.46689-3.07317 1.29616-.76655.91986-.88154 2.21255-.88154 5.32401 0 3.1115.11499 4.5784.88154 5.4948.69686.8328 1.65853 1.2509 3.07317 1.2997.99187.0278 1.98258.0731 2.97208.1358v3.6551c-1.11494-.108-2.23689-.1812-3.35884-.2195-2.19164-.0836-4.16377-.6272-5.55052-1.9164-2.355404-2.1986-2.12543848-5.2996-2.12543848-8.453 0-3.15326-.22996552-6.0557 2.12891848-8.2787z"/><path d="m14.8713 5.94775c-1.1326-.27181-2.3134-.27181-3.446 0v9.57845c1.1326.2718 2.3134.2718 3.446 0z"/><path d="m23.8642 2.13589c-1.3937-1.296169-3.3623-1.822301-5.547-1.912894-1.122-.04878-2.2404-.118466-3.3484-.222996v3.65854c.9895.05807 1.9814.10336 2.9756.13589 1.4181.03832 2.3588.46689 3.0696 1.29616.7666.91986.8885 2.21255.8885 5.32401 0 3.1115-.1219 4.5784-.8885 5.4948-.6968.8328-1.655 1.2509-3.0696 1.2997-.9919.0278-1.9838.0731-2.9756.1358v3.6551c1.1173-.1092 2.2369-.1823 3.3588-.2195 2.1917-.0836 4.1812-.6272 5.5471-1.9199 2.3589-2.1916 2.1254-5.2996 2.1254-8.4495 0-3.14978.2335-6.0766-2.1254-8.2787"/></g></svg>