<svg width="143" height="26" viewBox="0 0 143 26" fill="none" xmlns="http://www.w3.org/2000/svg">
<g clip-path="url(#clip0_144:2473)">
<path d="M30.5598 13.4081C30.6978 12.9913 30.7668 12.505 30.7668 12.0187C30.7668 8.82301 28.2144 6.25258 25.0412 6.25258C24.3514 6.25258 23.6616 6.39152 23.0408 6.59994C21.6611 4.0295 18.9708 2.29272 15.8666 2.29272C11.4518 2.29272 7.86468 5.90523 7.86468 10.3514C7.86468 10.8377 7.93367 11.3934 8.00265 11.8797C5.79522 12.2271 4.13965 14.1028 4.13965 16.3954C4.13965 18.0627 4.96743 19.4521 6.2781 20.2858C7.38181 19.6605 8.69247 19.1742 10.1411 18.7574C10.1411 18.7574 8.48552 13.0608 10.417 12.6439C12.7624 12.2271 12.9004 12.8523 17.6601 12.366C22.7648 11.8103 27.1797 12.6439 27.1797 12.6439C28.0765 12.6439 28.0075 14.5197 27.8695 15.9091C27.7315 17.2985 27.2487 18.549 27.2487 18.549C29.0422 19.0353 30.6288 19.6605 31.9395 20.4247C33.0432 19.73 33.733 18.549 33.733 17.229C33.871 15.2144 32.4223 13.6165 30.5598 13.4081Z" fill="#333333"/>
<path d="M19.0398 21.8142C25.6621 21.8142 31.5946 22.7173 35.4576 25.1488C32.9742 21.8142 26.5589 19.4521 19.0398 19.4521C11.5208 19.4521 5.10543 21.7447 2.62207 25.0793C6.48507 22.7173 12.4175 21.8142 19.0398 21.8142Z" fill="#333333"/>
<path d="M112.235 17.854C111.821 18.4793 111.269 18.8961 110.579 19.2435C109.199 19.7992 107.958 19.5213 107.061 18.2014L114.58 15.0752C114.511 14.7973 114.373 14.5194 114.304 14.2415C112.993 11.1848 110.234 9.03119 106.647 10.5596C103.543 11.8795 102.37 15.3531 103.681 18.4793V18.5487C105.06 21.8834 108.372 23.1338 111.614 21.8139C112.717 21.3276 113.545 20.7023 114.166 19.9382L112.235 17.854ZM107.613 12.991C108.923 12.4353 110.096 13.0605 110.855 14.3805L106.233 16.3257C105.888 14.7973 106.302 13.5468 107.613 12.991Z" fill="#333333"/>
<path d="M35.7334 14.4501C35.7334 10.1429 38.9066 6.59985 43.3214 6.59985C46.0807 6.59985 47.6673 7.57245 49.1849 9.03135L48.0122 10.2818C46.7705 9.10082 45.3219 8.19769 43.2525 8.19769C39.9413 8.19769 37.458 10.9071 37.458 14.3806V14.4501C37.458 17.9931 40.0103 20.7025 43.2525 20.7025C45.3219 20.7025 46.6326 19.9383 48.0812 18.5489L49.1849 19.6604C47.5983 21.2583 45.8738 22.3003 43.1835 22.3003C38.9066 22.2309 35.7334 18.7573 35.7334 14.4501Z" fill="#333333"/>
<path d="M50.6328 6.18286H52.2884V22.0223H50.6328V6.18286Z" fill="#333333"/>
<path d="M53.5303 16.3953C53.5303 13.1996 56.0136 10.4902 59.3248 10.4902C62.6359 10.4902 65.1193 13.1301 65.1193 16.3258V16.3953C65.1193 19.591 62.6359 22.2309 59.3248 22.2309C55.9446 22.2309 53.5303 19.591 53.5303 16.3953ZM63.3947 16.3953C63.3947 13.9638 61.6012 12.0186 59.2558 12.0186C56.8414 12.0186 55.1858 13.9638 55.1858 16.3258V16.3953C55.1858 18.8268 56.9794 20.772 59.2558 20.772C61.7391 20.7025 63.3947 18.7573 63.3947 16.3953Z" fill="#333333"/>
<path d="M66.4297 17.7152V10.7681H68.0853V17.2984C68.0853 19.3825 69.189 20.7024 71.1894 20.7024C73.052 20.7024 74.5006 19.313 74.5006 17.1594V10.7681H76.1562V21.9529H74.5006V20.0077C73.7418 21.1887 72.6381 22.1613 70.7066 22.1613C67.9473 22.2308 66.4297 20.3551 66.4297 17.7152Z" fill="#333333"/>
<path d="M77.2598 16.3951C77.2598 12.7132 79.8811 10.5595 82.5714 10.5595C84.6409 10.5595 85.9515 11.6711 86.8483 12.9216V6.18286H88.5039V22.0223H86.8483V19.7992C85.9515 21.1192 84.6409 22.3002 82.5714 22.3002C79.8811 22.2307 77.2598 20.0771 77.2598 16.3951ZM86.8483 16.3951C86.8483 13.7552 84.9168 12.0184 82.8473 12.0184C80.7089 12.0184 78.9153 13.6163 78.9153 16.3257V16.3951C78.9153 19.035 80.7089 20.7023 82.8473 20.7023C84.9168 20.7023 86.8483 18.9656 86.8483 16.3951Z" fill="#333333"/>
<path d="M93.5391 20.4245V21.9528H90.2969V6.18286H93.5391V12.0184C94.2979 10.9069 95.4016 10.1427 97.1261 10.1427C99.8165 10.1427 102.369 12.2963 102.369 16.1172V16.1867C102.369 20.0771 99.8854 22.1612 97.1261 22.1612C95.4016 22.1612 94.2979 21.3971 93.5391 20.4245ZM99.1266 16.1867C99.1266 14.2415 97.816 12.9216 96.2984 12.9216C94.7807 12.9216 93.4701 14.1721 93.4701 16.1172V16.1867C93.4701 18.1319 94.7118 19.3824 96.2984 19.3824C97.816 19.3824 99.1266 18.1319 99.1266 16.1867Z" fill="#333333"/>
<path d="M115.131 16.1867C115.131 12.2963 117.614 10.1427 120.374 10.1427C122.098 10.1427 123.202 10.9069 123.961 11.8795V6.18286H127.203V22.0223H123.961V20.355C123.202 21.4665 122.098 22.2307 120.374 22.2307C117.683 22.1612 115.131 20.0771 115.131 16.1867ZM124.03 16.1867C124.03 14.2415 122.788 12.9216 121.201 12.9216C119.615 12.9216 118.373 14.172 118.373 16.1172V16.1867C118.373 18.1319 119.684 19.3824 121.201 19.3824C122.719 19.3824 124.03 18.1319 124.03 16.1867Z" fill="#333333"/>
<path d="M128.307 20.4247L129.686 18.2711C130.928 19.1742 132.239 19.6605 133.342 19.6605C134.308 19.6605 134.722 19.3131 134.722 18.8268V18.7574C134.722 18.0626 133.618 17.7848 132.308 17.4374C130.721 16.9511 128.859 16.1869 128.859 13.9638V13.8944C128.859 11.5324 130.721 10.2124 133.066 10.2124C134.515 10.2124 136.102 10.6987 137.343 11.5324L136.102 13.8249C134.998 13.1302 133.825 12.7134 132.997 12.7134C132.239 12.7134 131.825 13.0607 131.825 13.4775V13.547C131.825 14.1723 132.928 14.5196 134.17 14.9364C135.757 15.4922 137.688 16.2564 137.688 18.41V18.4795C137.688 21.0499 135.757 22.2309 133.273 22.2309C131.687 22.1614 129.824 21.6057 128.307 20.4247Z" fill="#333333"/>
<path d="M138.792 21.1192C138.792 20.494 139.275 19.9382 139.965 19.9382C140.586 19.9382 141.137 20.494 141.137 21.1192C141.137 21.7445 140.655 22.3003 139.965 22.3003C139.275 22.3003 138.792 21.814 138.792 21.1192ZM140.93 21.1192C140.93 20.5635 140.517 20.0772 139.896 20.0772C139.344 20.0772 138.861 20.5635 138.861 21.1192C138.861 21.675 139.275 22.1613 139.896 22.1613C140.517 22.1613 140.93 21.7445 140.93 21.1192ZM139.413 20.494H139.965C140.103 20.494 140.241 20.5635 140.31 20.6329C140.379 20.7024 140.448 20.7719 140.448 20.9108C140.448 21.1192 140.31 21.2582 140.172 21.2582L140.448 21.675H140.103L139.827 21.2582H139.62V21.675H139.344L139.413 20.494ZM139.965 21.1192C140.103 21.1192 140.172 21.0498 140.172 20.9108C140.172 20.7719 140.103 20.7024 139.965 20.7024H139.689V21.0498C139.689 21.1192 139.965 21.1192 139.965 21.1192Z" fill="#333333"/>
</g>
<defs>
<clipPath id="clip0_144:2473">
<rect width="143" height="25.9128" fill="white"/>
</clipPath>
</defs>
</svg>
