<svg fill="none" height="16" viewBox="0 0 16 16" width="16" xmlns="http://www.w3.org/2000/svg"><path d="m10.4719 7.5214c.0938.09368.1466.22077.1467.35333v.25334c-.0015.13227-.0541.25885-.1467.35333l-3.42663 3.42c-.06259.0631-.14779.0986-.23667.0986s-.17408-.0355-.23667-.0986l-.47333-.4733c-.06271-.0615-.09805-.1456-.09805-.2334s.03534-.1719.09805-.2333l2.96667-2.96-2.96667-2.96c-.0631-.06259-.0986-.14779-.0986-.23667 0-.08887.0355-.17407.0986-.23666l.47333-.46667c.06259-.0631.14779-.0986.23667-.0986s.17408.0355.23667.0986z" fill="#8393ac"/></svg>