<svg fill="none" height="24" viewBox="0 0 24 24" width="24" xmlns="http://www.w3.org/2000/svg" xmlns:xlink="http://www.w3.org/1999/xlink"><clipPath id="a"><path d="m0 0h24v24h-24z"/></clipPath><g clip-path="url(#a)"><path d="m24 12.0719c-.0003-2.29324-.6576-4.53835-1.8942-6.46957s-3.0007-3.46768-5.0833-4.42747c-2.0827-.959793-4.3968-1.302729-6.6683-.988208-2.27157.31452-4.40542 1.273328-6.14896 2.762908s-3.02375 3.44755-3.689082 5.64211c-.66533 2.19453-.687911 4.53383-.06507 6.74083.622842 2.207 1.865022 4.1893 3.579482 5.7123 1.71446 1.5229 3.82939 2.5227 6.09443 2.8811v-8.385h-3.047v-3.469h3.047v-2.64404c0-3.007 1.792-4.669 4.532-4.669.9001.01291 1.7982.09112 2.687.234v2.954h-1.514c-.4558-.0605-.9169.06248-1.282.34189s-.6043.69238-.665 1.14811c-.0172.12762-.0198.25677-.008.385v2.25004h3.325l-.532 3.469h-2.8v8.385c2.824-.4451 5.3964-1.8837 7.2539-4.0569 1.8576-2.1733 2.8782-4.9383 2.8781-7.7971z" fill="#fff"/></g></svg>