<svg fill="none" height="27" viewBox="0 0 84 27" width="84" xmlns="http://www.w3.org/2000/svg"><g fill="#333"><path d="m7.41699 7.30542v11.72698h2.46873v-11.72698z"/><path d="m20.7647 19.0228h2.4784l-.0097-11.7164h-2.4687v7.4168l-4.2857-7.4168h-2.4687v11.7156h2.4687v-7.448z"/><path d="m31.0402 10.1889 2.0076-1.14138c-.8132-1.34508-1.927-1.89493-3.3422-1.89493-2.0369 0-3.3919 1.27312-3.3919 3.19911 0 2.0135 1.6446 2.9642 2.9876 3.7405.9265.5357 1.7096.9883 1.7096 1.6497 0 .6005-.4319 1.273-1.074 1.273-.853 0-1.6759-.8247-2.0572-1.6404l-2.0076 1.1004c.6127 1.5791 2.4288 2.6804 4.1252 2.6804 2.0866 0 3.492-1.3352 3.492-3.3627 0-2.1928-1.6418-3.0962-2.9841-3.8349-.9281-.5107-1.713-.9426-1.713-1.6674 0-.67255.4522-.98831.9443-.98831.541 0 1.1537.36733 1.3037.88691z"/><path d="m38.9292 12.1042v-2.66981h4.8968v-2.13874h-7.3656v11.71635h7.5464v-2.1395h-5.0776v-2.6288h3.6624v-2.1395z"/><path d="m53.5605 19.0228h2.459v-11.7164h-2.4687v7.4168l-4.2857-7.4168h-2.4687v11.7156h2.4687v-7.448z"/><path d="m63.8268 10.1889 2.0076-1.14138c-.8131-1.34508-1.9269-1.89493-3.3422-1.89493-2.0369 0-3.3919 1.27312-3.3919 3.19911 0 2.0135 1.6443 2.9642 2.9871 3.7405.9264.5357 1.7093.9883 1.7093 1.6497 0 .6005-.4311 1.273-1.0739 1.273-.8523 0-1.6752-.8247-2.0573-1.6404l-2.0068 1.1004c.6127 1.5791 2.4289 2.6804 4.1244 2.6804 2.0874 0 3.4929-1.3352 3.4929-3.3627 0-2.1928-1.6419-3.0962-2.9842-3.8349-.928-.5107-1.7129-.9426-1.7129-1.6674 0-.67255.4522-.98831.9443-.98831.541 0 1.1536.36733 1.3036.88691z"/><path d="m71.715 12.1042v-2.66981h4.8969v-2.13874h-7.3658v11.71635h7.5466v-2.1395h-5.0777v-2.6288h3.6624v-2.1395z"/><path clip-rule="evenodd" d="m84 27h-84v-27h84zm-80.6733-23.72728v20.45458h77.3469v-20.45458z" fill-rule="evenodd"/></g></svg>