<svg fill="none" height="25" viewBox="0 0 231 25" width="231" xmlns="http://www.w3.org/2000/svg"><path d="m1 20.8778c19.5586-5.6098 40.1624-10.5805 61.3057-15.26036 6.1541-1.36215 12.3766-2.70567 18.7323-3.92704 1.3224-.25414 4.9961-1.015833 4.2125-.53394-2.8937 1.77947-9.2685 3.33876-13.3546 4.59877-12.4697 3.84525-25.289 7.48877-38.3609 11.02327-.9733.2632-4.2816 1.147-5.5569 1.5502-1.1472.3626-1.0492.5226.5378.2411 15.4626-2.7429 29.8056-6.6333 44.9037-9.67982 5.4975-1.10928 8.6018-1.71186 14.1164-2.58358 1.584-.25039 7.8107-1.4585 10.0832-1.20567 2.3299.25921-2.9784 1.48193-4.7503 2.11853-6.2854 2.25819-12.786 4.42394-19.2701 6.59674-8.8441 2.9636-18.3381 5.8446-25.9473 9.3009-.8348.3792-2.525 1.0876.0448.8267 5.8991-.5989 11.8199-1.6056 17.343-2.5491 25.0234-4.2744 48.8267-9.5027 73.6297-13.95133 11.121-1.99471 22.42-3.87986 33.835-5.61498 1.609-.24463 6.04-.81217 5.153-.24113-5.474 3.52292-16.023 6.52198-23.393 9.38704-6.425 2.4979-12.826 5.0055-19.001 7.5957-2.108.8842-5.633 2.0542-7.036 3.1864-.006.005 8.375-1.2762 9.097-1.3951 22.39-3.688 44.855-7.6071 67.939-10.60993.736-.09576 12.488-1.2171 12.055-1.05065-7.864 3.02238-18.236 5.39698-27.203 7.88858-4.692 1.3037-6.902 1.8993-11.382 3.1864-1.795.5156-7.138 1.9044-4.93 1.7568 4.759-.3181 10.188-1.2639 14.565-1.8946 14.012-2.0196 27.777-4.2716 41.632-6.4418" stroke="#8e95aa" stroke-linecap="round" stroke-width="2"/></svg>