<?xml version="1.0" encoding="utf-8"?>
<!-- Generator: Adobe Illustrator 26.0.3, SVG Export Plug-In . SVG Version: 6.00 Build 0)  -->
<svg version="1.1" id="Layer_1" xmlns="http://www.w3.org/2000/svg" xmlns:xlink="http://www.w3.org/1999/xlink" x="0px" y="0px"
	 viewBox="0 0 1237 297" height="70" width="160" style="enable-background:new 0 0 1237 297;" xml:space="preserve">
<style type="text/css">
	.st0{fill:#424242;}
	.st1{fill:#3C3CCE;}
	.st2{opacity:0.8;fill:#00AFFF;enable-background:new    ;}
</style>
<g>
	<g>
		<path class="st0" d="M490,136.4c0,36.9-24.1,60.7-55.5,60.7c-12.3,0-23.9-4.3-32.3-11.2v52.8h-41.9V78.4h42.1v8.2
			c8.4-6.6,20-10.9,32-10.9C465.9,75.6,490,99.5,490,136.4z M449.9,136.4c0-17-11.8-27.5-26.9-27.5c-7,0-14.6,2.7-20.7,6.8v41.4
			c6.1,4.1,13.6,6.8,20.7,6.8C438.1,163.9,449.9,153.4,449.9,136.4z"/>
		<path class="st0" d="M503.4,136.4c0-36.2,28.9-60.7,64.6-60.7c36.2,0,65.1,24.6,65.1,60.7s-28.9,60.7-64.8,60.7
			C532.3,197.1,503.4,172.5,503.4,136.4z M593,136.4c0-15-10.9-25.3-24.8-25.3s-24.8,10.2-24.8,25.3s10.9,25.3,24.8,25.3
			S593,151.4,593,136.4z"/>
		<path class="st0" d="M650.3,187.8v-30.7c11.6,7.3,27,10.9,40.9,10.9c7.3,0,13.4-2.7,13.4-7.5c0-4.1-3.4-6.4-8.2-7.5l-21.4-5.7
			c-21.9-5.9-27.7-22.7-27.7-35.3c0-23,21.6-36.4,51.4-36.4c14.6,0,29.3,3.2,38,7.3v30c-9.8-5-24.8-7.7-36.6-7.7
			c-7.5,0-13,2.3-13,7.5c0,3.9,3,5.9,7.7,7.3l21.2,6.6c23.2,7.3,28.6,21.6,28.6,34.8c0,24.1-20.9,35.7-50.3,35.7
			C677.9,197.1,659,192.8,650.3,187.8z"/>
		<path class="st0" d="M843,160.5v33.5c-7.7,1.8-19.3,3.2-28,3.2c-44.8,0-53.2-33.9-53.2-58.7V63.6l38.5-19.8h3.4v34.8l35.7-0.2
			v31.9h-35.7v28.9c0,15.7,8.4,23.4,21.9,23.4C830.7,162.5,837.3,161.8,843,160.5z"/>
		<path class="st0" d="M857.3,41.7c0-13.4,10.9-22.3,24.3-22.3c13.4,0,24.1,8.9,24.1,22.3c0,13.4-10.9,22.5-24.1,22.5
			C868.2,64.3,857.3,55.1,857.3,41.7z M860.7,194.4v-116h41.9v116H860.7z"/>
		<path class="st0" d="M970.6,77.9v0.4h45.7v31.9h-45.7v84.2h-41.9V81.1c0-31.4,14.8-60.1,59.6-60.1c11.6,0,28.2,2.3,34.8,5.7v32.5
			c-6.1-2.5-17-4.1-24.3-4.1C985.4,55.1,970.6,60.4,970.6,77.9z"/>
		<path class="st0" d="M1119.8,78.4h41.4v2.5l-45.3,114.6c-8.9,22.7-28.5,45.9-63.5,45.9c-6.6,0-18-0.9-25-2.3v-31.6
			c7.5,1.6,14.3,2.3,18.6,2.3c11.8,0,20.7-6.4,26.2-13.6l-51.4-115.6v-2.3h41.9l30.7,74.1L1119.8,78.4z"/>
	</g>
	<g>
		<path class="st0" d="M1197.2,48.4v3.8h-8.9v28.7h-4.1V52.2h-9v-3.8H1197.2z"/>
		<path class="st0" d="M1237,80.9h-4.1l-4-21.9l-10.3,20.4h-1l-10.3-20.5l-3.9,21.9h-4.1l5.7-32.5h1.1l12.1,23.3l12-23.3h1.1
			L1237,80.9z"/>
	</g>
</g>
<path class="st1" d="M222.4,0.5H73.7c-5.6,0-9.2,6-6.6,10.9l38.5,71.7l6.7,12.7c1.2,2.2,1.2,4.8,0,6.9l-6.7,12.7l-38.5,71.7
	c-2.7,5,0.9,10.9,6.6,10.9h148.6c2.6,0,5-1.4,6.3-3.5l56-91.4c1.5-2.4,1.5-5.4,0-7.8L228.7,4C227.4,1.8,225,0.5,222.4,0.5z"/>
<path class="st2" d="M57,296.9h94.5c5.1,0,8.7-5.1,7-9.9l-38-72.7l-4.9-13.7c-0.6-1.6-0.6-3.4,0-5l4.9-13.7l38-72.7
	c1.7-4.9-1.8-9.9-7-9.9H57c-3,0-5.7,1.8-6.9,4.6L0.7,195.2c-0.7,1.8-0.7,3.8,0,5.6l49.3,91.4C51.2,295,54,296.9,57,296.9z"/>
</svg>
