<?xml version="1.0" standalone="no"?>
<!DOCTYPE svg PUBLIC "-//W3C//DTD SVG 1.1//EN" "http://www.w3.org/Graphics/SVG/1.1/DTD/svg11.dtd">
<svg xmlns="http://www.w3.org/2000/svg"><metadata>This SVG WebFont was generated by YouWorkForThem.
\(c\)2017 Oakes is a trademark of Samuel Oakes. All rights reserved.</metadata><defs><font horiz-adv-x="0" id="ywftsvg"><font-face ascent="1536" bbox="-1534 -696 2423 2089" cap-height="1536" descent="-512" font-family="" font-stretch="normal" font-weight="500" panose-1="0 0 4 0 0 0 0 0 0 0" underline-position="0" underline-thickness="0" unicode-range="U+000D-FB02" units-per-em="2048" x-height="1122"/><missing-glyph d="M172 1536h875v-1536h-875v1536zM881 168v1204h-543v-1204h543z" horiz-adv-x="1218"/><glyph d="M260 0v940h-158v170h158v88q0 139 76 235.5t209 110.5q68 6 136.5 -7t102.5 -38l-2 -172q-27 14 -63.5 25.5t-84.5 12.5t-81 -22q-72 -49 -72 -165v-68h244v-170h-244v-940h-221zM1075 1274q-53 0 -92 38t-39 93t39 94t92 39t92 -39t39 -94t-39 -93t-92 -38zM961 1126 h231v-1126h-231v1126z" glyph-name="uniFB01" horiz-adv-x="1329" unicode="fi"/><glyph d="M260 0v940h-158v170h158v88q0 139 76 235.5t209 110.5q68 6 136.5 -7t102.5 -38l-2 -172q-27 14 -63.5 25.5t-84.5 12.5t-81 -22q-72 -49 -72 -165v-68h244v-170h-244v-940h-221zM1022 0l2 1536h217v-1536h-219z" glyph-name="uniFB02" horiz-adv-x="1421" unicode="fl"/><glyph d="M172 1536h875v-1536h-875v1536zM881 168v1204h-543v-1204h543z" glyph-name=".notdef" horiz-adv-x="1218"/><glyph glyph-name="glyph1"/><glyph glyph-name="glyph2" horiz-adv-x="681"/><glyph glyph-name="space" horiz-adv-x="518" unicode=" "/><glyph d="M201 1536h202l-12 -1083h-178zM303 -10q-53 0 -93 40t-40 93q0 57 39 95t94 38t94 -39t39 -94q0 -53 -40 -93t-93 -40z" glyph-name="exclam" horiz-adv-x="608" unicode="!"/><glyph d="M299 1538q45 0 77 -30.5t32 -84.5q0 -45 -19.5 -98t-40.5 -84l-18 -31h-99q-72 113 -71 213q0 53 31.5 84t76.5 31h15h16z" glyph-name="quotedbl" horiz-adv-x="565" unicode="&quot;"/><glyph d="M410 352h-289l22 158h289l66 446h-291l24 156h285l51 354h156l-49 -354h373l49 354h155l-49 -354h291l-27 -156h-286l-62 -446h287l-23 -158h-286l-54 -352h-153l49 352h-375l-47 -352h-156zM961 510l63 446h-373l-63 -446h373z" glyph-name="numbersign" horiz-adv-x="1611" unicode="#"/><glyph d="M784 877q82 -31 130.5 -52.5t117 -62.5t105.5 -82t64.5 -106.5t27.5 -143.5q0 -190 -123 -304t-322 -140v-162h-157v158q-215 14 -348.5 146t-149.5 329l207 -2q45 -233 291 -260v532q0 2 -4.5 2t-4.5 2q-70 27 -106.5 42t-98 45t-95 58.5t-70.5 68.5t-53.5 91t-16.5 111 q0 176 129 283.5t320 123.5v138h157v-140q381 -45 455 -452h-207q-12 92 -72.5 164.5t-175.5 95.5v-483zM408 1159q0 -76 56 -125t163 -96v426q-96 -14 -157.5 -67.5t-61.5 -137.5zM1001 424q2 86 -55 142.5t-162 101.5v-469q215 37 217 225z" glyph-name="dollar" horiz-adv-x="1333" unicode="$"/><glyph d="M395 881q-123 0 -209 99t-86 238.5t86 238.5t209 99t209 -99t86 -238.5t-86 -238.5t-209 -99zM1194 1536h223l-1044 -1536h-226zM395.5 1044q53.5 0 92 51.5t38.5 123t-38.5 123t-92 51.5t-91.5 -51.5t-38 -123t38 -123t91.5 -51.5zM1173.5 -20q-122.5 0 -209.5 99 t-87 240.5t87 240.5t209.5 99t208.5 -100t86 -239.5t-86 -239.5t-208.5 -100zM1171.5 147q53.5 0 91 49.5t37.5 123t-37.5 123t-91 49.5t-91.5 -49.5t-38 -123t38 -123t91.5 -49.5z" glyph-name="percent" horiz-adv-x="1566" unicode="%"/><glyph d="M623 -31q-195 0 -334 129t-139 308q0 262 237 413q-139 156 -139 303q0 174 98 278.5t275 102.5q145 -2 245.5 -105.5t100.5 -250.5q0 -229 -254 -367l303 -301l174 328h229l-254 -471l324 -352h-285l-170 180q-171 -195 -411 -195zM582 920q190 88 190 229q0 76 -44 126 t-112 50q-174 0 -174 -203q1 -87 140 -202zM627 172q154 0 272 139l-381 373q-174 -100 -174 -268q0 -111 77 -177.5t206 -66.5z" glyph-name="ampersand" horiz-adv-x="1478" unicode="&amp;"/><glyph d="M221 1538q45 0 77 -30.5t32 -84.5q0 -45 -19.5 -98t-40.5 -84l-18 -31h-66q-72 113 -71 213q0 55 30.5 85t75.5 30z" glyph-name="quotesingle" horiz-adv-x="360" unicode="'"/><glyph d="M543 -444q-152 133 -261.5 409.5t-109.5 593.5q0 348 117 626.5t299 432.5h143q-176 -172 -276.5 -468t-100.5 -591q0 -272 94.5 -548.5t245.5 -454.5h-151z" glyph-name="parenleft" horiz-adv-x="825" unicode="("/><glyph d="M348 1618q150 -133 259.5 -409.5t109.5 -594.5q0 -346 -117 -625.5t-297 -432.5h-145q176 172 277.5 467.5t101.5 590.5q0 274 -95.5 550t-246.5 454h153z" glyph-name="parenright" horiz-adv-x="825" unicode=")"/><glyph d="M170 1085l113 156l-193 -18v114l193 -18l-113 154l98 59l80 -174l80 174l100 -59l-112 -154l192 18v-114l-192 18l112 -156l-100 -59l-80 176l-80 -176z" glyph-name="asterisk" horiz-adv-x="696" unicode="*"/><glyph d="M729 532h-481v158h481v500h156v-500h481v-158h-481v-501h-156v501z" glyph-name="plus" horiz-adv-x="1611" unicode="+"/><glyph d="M166 0q-88 35 -88 127q0 55 38 94t95 39q53 0 91 -39t38 -94t-46 -138t-89 -139h-107z" glyph-name="comma" horiz-adv-x="444" unicode=","/><glyph d="M172 608h717v-149h-717v149z" glyph-name="hyphen" horiz-adv-x="1058" unicode="-"/><glyph d="M201 -20q-53 0 -93 39.5t-40 95t39.5 95.5t93.5 40q55 0 95 -40t40 -95.5t-40 -95t-95 -39.5z" glyph-name="period" horiz-adv-x="403" unicode="."/><glyph d="M819 1536h205l-868 -2048h-207z" glyph-name="slash" horiz-adv-x="1075" unicode="/"/><glyph d="M690 -20q-289 0 -434 215t-145 573q0 354 150.5 571t428.5 217q158 0 273.5 -58t183 -165.5t100.5 -248t33 -316.5t-33 -316.5t-100.5 -248t-183 -165.5t-273.5 -58zM692 172q197 -2 284 157.5t87 438.5q0 598 -371 598q-186 0 -275 -162t-89 -436q0 -272 89 -434 t275 -162z" glyph-name="zero" horiz-adv-x="1380" unicode="0"/><glyph d="M379 1284l-318 -246v248l330 250h203v-1536h-215v1284z" glyph-name="one" horiz-adv-x="827" unicode="1"/><glyph d="M88 154q543 563 655.5 700t112.5 252q0 125 -74.5 191.5t-185.5 68.5q-115 2 -190.5 -71.5t-73.5 -196.5l-207 2q-8 203 133 332t348 127q193 -2 323 -119t134 -307q4 -168 -101.5 -311.5t-525.5 -571.5q-37 -39 -55 -57h727v-193h-1020v154z" glyph-name="two" horiz-adv-x="1196" unicode="2"/><glyph d="M578 -20q-209 0 -358.5 131t-149.5 315l213 4q6 -106 93 -178t202 -72q123 0 208.5 77t85.5 208q0 119 -78.5 199.5t-195.5 80.5h-123v175h111q94 0 157.5 64.5t63.5 160.5q0 90 -71.5 151.5t-180.5 61.5q-98 0 -167 -54.5t-75 -140.5l-207 4q4 176 140.5 282.5 t308.5 106.5q193 0 319.5 -112.5t126.5 -276.5q0 -197 -180 -301q121 -57 192.5 -163.5t71.5 -237.5q0 -213 -145 -349t-362 -136z" glyph-name="three" horiz-adv-x="1216" unicode="3"/><glyph d="M1137 324h-154v-324h-215v324h-737v139l684 1073h268v-1020h154v-192zM768 516v799l-487 -799h487z" glyph-name="four" horiz-adv-x="1245" unicode="4"/><glyph d="M625 -20q-209 0 -349.5 115.5t-152.5 281.5h192q25 -90 107 -145.5t188 -53.5q139 4 231.5 96.5t92.5 229.5q0 139 -93 235.5t-231 96.5q-162 0 -274 -119l-180 82l84 733h817v-191h-649l-54 -419q121 104 312 104q209 0 347 -147.5t138 -366.5q0 -229 -149.5 -380.5 t-376.5 -151.5z" glyph-name="five" horiz-adv-x="1261" unicode="5"/><glyph d="M662 -16q-203 0 -361 142t-182 355q-14 154 -15 252q0 356 131.5 570.5t395.5 240.5q45 4 63 4q203 0 344.5 -120.5t155.5 -280.5h-211q-6 80 -81 144.5t-197 64.5q-199 0 -299.5 -138.5t-112.5 -375.5q29 63 85 107t117.5 62.5t101.5 24.5t69 6q238 0 382 -139t156 -362 q10 -227 -149.5 -392t-392.5 -165zM662 166q145 0 243.5 100.5t98.5 243.5q0 147 -102.5 246.5t-250.5 99.5q-139 0 -235.5 -100.5t-96.5 -241.5q0 -147 100 -247.5t243 -100.5z" glyph-name="six" horiz-adv-x="1318" unicode="6"/><glyph d="M864 1346h-792v190h1034v-150l-766 -1386h-240z" glyph-name="seven" horiz-adv-x="1136" unicode="7"/><glyph d="M840 856q117 -59 186.5 -165.5t69.5 -237.5q0 -201 -145.5 -337t-362.5 -136q-215 0 -360.5 136t-145.5 337q0 131 68.5 238.5t185.5 162.5q-80 53 -128 135t-48 176q0 166 125 278.5t303 112.5t303 -112.5t125 -278.5q0 -94 -49 -176t-127 -133zM590 1384 q-100 0 -173 -67.5t-73 -165.5t72.5 -167t173.5 -69q98 0 171 69t73 167q0 96 -73 164.5t-171 68.5zM588 172q123 0 206 86t83 209t-83 206t-206 83q-121 0 -205 -83t-84 -206t84 -209t205 -86z" glyph-name="eight" horiz-adv-x="1175" unicode="8"/><glyph d="M655 -10q-209 0 -348 112.5t-155 282.5l215 -4q4 -74 80.5 -135.5t207.5 -61.5q33 0 47 2q154 16 238 149.5t98 344.5q-47 -76 -129 -122t-134 -55t-91 -9q-236 0 -386.5 145t-154.5 369q-4 225 156 388t387 163q211 0 364.5 -144.5t178.5 -361.5q14 -121 14 -252 q0 -373 -144.5 -592t-443.5 -219zM690.5 674q145.5 0 241.5 100t96 246q0 143 -99.5 242.5t-240.5 99.5q-145 0 -244.5 -100.5t-99.5 -243.5q0 -147 100.5 -245.5t246 -98.5z" glyph-name="nine" horiz-adv-x="1318" unicode="9"/><glyph d="M307 776q-55 0 -95 40t-40 95.5t40 94t95 38.5q53 0 93 -38.5t40 -94t-40 -95.5t-93 -40zM307 -20q-55 0 -95 39.5t-40 95t40 95.5t95 40q53 0 93 -40t40 -95.5t-40 -95t-93 -39.5z" glyph-name="colon" horiz-adv-x="612" unicode=":"/><glyph d="M295 768q-53 0 -93 40t-40 93q0 55 40 94t93 39q55 0 94 -39t39 -94q0 -53 -39 -93t-94 -40zM252 -2q-39 16 -63.5 51t-24.5 78q0 53 39 93t94 40q53 0 91 -39t38 -94t-46 -140t-89 -137h-105z" glyph-name="semicolon" horiz-adv-x="624" unicode=";"/><glyph d="M1303 1206l-961 -483l961 -485v-185l-1131 572v196l1131 568v-183z" glyph-name="less" horiz-adv-x="1472" unicode="&lt;"/><glyph d="M111 811h1228v-139h-1228v139zM111 418h1228v-142h-1228v142z" glyph-name="equal" horiz-adv-x="1447" unicode="="/><glyph d="M1303 821v-196l-1131 -572v185l961 485l-961 483v183z" glyph-name="greater" horiz-adv-x="1472" unicode=">"/><glyph d="M477 506q0 88 38 161.5t93.5 125t109.5 97.5t92 102.5t38 117.5q0 109 -78 179.5t-195 70.5q-121 0 -198.5 -78t-73.5 -192h-192q-6 197 127 327.5t337 130.5q199 0 331 -125t132 -313q0 -92 -57 -181t-125 -146.5t-125 -127t-57 -131.5v-133h-197v115zM584 -20 q-55 0 -95 39.5t-40 95t39.5 95.5t95.5 40q53 0 93 -40t40 -95.5t-40 -95t-93 -39.5z" glyph-name="question" horiz-adv-x="1148" unicode="?"/><glyph d="M688 -31q-270 0 -444 172t-174 439q0 262 186 448t449 186q258 0 422.5 -154.5t164.5 -395.5q0 -172 -79.5 -282t-204.5 -110q-127 0 -172 93q-84 -100 -203 -100.5t-190.5 77.5t-71.5 205q0 150 91 256t220 106q94 0 156 -57l4 45h153l-43 -379q-14 -111 56 -110 q66 0 103.5 68.5t37.5 185.5q0 190 -120 302.5t-324 112.5q-209 0 -347.5 -141t-138.5 -354t129 -344.5t340 -131.5v-137zM647 399q66 0 116 65.5t50 153.5q0 74 -32.5 114t-92.5 40q-68 0 -115 -65.5t-47 -159.5q0 -70 32 -109t89 -39z" glyph-name="at" horiz-adv-x="1226" unicode="@"/><glyph d="M1128 356h-714l-138 -356h-241l616 1536h250l617 -1536h-244zM1065 553l-289 754l-293 -754h582z" glyph-name="A" horiz-adv-x="1552" unicode="A"/><glyph d="M932 801q137 -33 220 -136.5t83 -252.5q0 -184 -124 -298t-308 -114h-705v1536h615q186 0 311 -113.5t125 -298.5q0 -121 -59.5 -205.5t-157.5 -117.5zM926 1102q0 98 -70 168.5t-168 70.5h-369v-460h369q100 0 169 62.5t69 158.5zM772 199q100 0 170 70.5t70 168.5 q0 100 -71 180t-169 80h-453v-499h453z" glyph-name="B" horiz-adv-x="1286" unicode="B"/><glyph d="M813 -20q-324 -2 -531.5 226t-207.5 562t206.5 561t532.5 227q293 0 476.5 -164.5t201.5 -383.5h-221q-23 127 -137.5 231t-319.5 104q-240 0 -384 -163.5t-144 -411.5q0 -246 144 -410.5t384 -164.5q190 0 313 101t144 218h221q-20 -197 -212 -363.5t-466 -168.5z" glyph-name="C" horiz-adv-x="1615" unicode="C"/><glyph d="M133 1536h492q162 0 299 -47t243.5 -140.5t166 -245t59.5 -343.5q0 -354 -219.5 -557t-548.5 -203h-492v1536zM623 199q242 0 394 142t152 419q0 301 -149.5 441t-396.5 140h-267v-1142h267z" glyph-name="D" horiz-adv-x="1484" unicode="D"/><glyph d="M336 1341v-473h659v-198h-659v-471h745v-199h-970v1536h970v-195h-745z" glyph-name="E" horiz-adv-x="1198" unicode="E"/><glyph d="M338 1341v-473h651v-198h-651v-670h-225v1536h962v-195h-737z" glyph-name="F" horiz-adv-x="1148" unicode="F"/><glyph d="M1458 797v-215v-582h-151l-35 225q-84 -123 -202 -179t-298 -56q-328 0 -523.5 220t-195.5 552q0 350 196.5 568t512.5 218q266 0 447.5 -132t213.5 -376h-213q-35 143 -154.5 223t-275.5 80q-242 0 -380 -157.5t-138 -423.5q0 -254 146.5 -410.5t359.5 -156.5 q219 0 343 111.5t124 299.5h-404v191h627z" glyph-name="G" horiz-adv-x="1564" unicode="G"/><glyph d="M1360 1536v-1536h-223v670h-768v-670h-226v1536h226v-668h768v668h223z" glyph-name="H" horiz-adv-x="1503" unicode="H"/><glyph d="M143 1536h226v-1536h-226v1536z" glyph-name="I" horiz-adv-x="522" unicode="I"/><glyph d="M240 -20q-94 0 -158 18v229q63 -23 147 -22q63 0 108.5 45t45.5 108v1178h223v-1194q0 -156 -104 -259t-262 -103z" glyph-name="J" horiz-adv-x="755" unicode="J"/><glyph d="M1032 0l-684 702v-702h-225v1536h225v-713l604 713h269l-643 -764l743 -772h-289z" glyph-name="K" horiz-adv-x="1347" unicode="K"/><glyph d="M113 1536h225v-1337h549v-199h-774v1536z" glyph-name="L" horiz-adv-x="968" unicode="L"/><glyph d="M1710 1536v-1536h-223v1217l-467 -1217h-205l-467 1217v-1217h-225v1536h311l481 -1251l488 1251h307z" glyph-name="M" horiz-adv-x="1853" unicode="M"/><glyph d="M1427 1536v-1536h-221l-878 1186v-1186h-226v1536h222l880 -1184v1184h223z" glyph-name="N" horiz-adv-x="1560" unicode="N"/><glyph d="M813 -20q-328 0 -539 228t-211 560t211 560t539 228q326 0 538 -228t212 -560t-212 -560t-538 -228zM813 197q240 0 386.5 162.5t146.5 408.5q0 248 -146.5 411.5t-386.5 163.5t-388.5 -163.5t-148.5 -411.5q0 -244 148.5 -407.5t388.5 -163.5z" glyph-name="O" horiz-adv-x="1642" unicode="O"/><glyph d="M770 1536q180 0 309 -142.5t129 -326.5q0 -186 -129 -325.5t-309 -139.5h-432v-602h-225v1536h657zM752 786q104 0 178 83t74 196q0 109 -75 192.5t-177 83.5h-414v-555h414z" glyph-name="P" horiz-adv-x="1275" unicode="P"/><glyph d="M1614 176v-176h-49q-143 0 -252 111l-33 32q-201 -164 -467 -163q-328 0 -539 228t-211 560t211 560t539 228q326 0 538 -228t212 -560q0 -274 -154 -487l45 -48q55 -57 135 -57h25zM813 197q184 0 320 102l-242 254l129 131l235 -246q90 143 91 330q0 248 -146.5 411.5 t-386.5 163.5t-388.5 -163.5t-148.5 -411.5q0 -244 148.5 -407.5t388.5 -163.5z" glyph-name="Q" horiz-adv-x="1652" unicode="Q"/><glyph d="M1262 0h-250l-379 614h-305v-614h-226v1536h658q180 0 309 -142.5t129 -328.5q0 -156 -97 -283t-243 -153zM752 793q100 0 170.5 79.5t70.5 194.5q0 113 -70.5 193.5t-170.5 80.5h-424v-548h424z" glyph-name="R" horiz-adv-x="1331" unicode="R"/><glyph d="M634.5 -20q-237.5 0 -390 135t-170.5 342l207 -2q20 -111 109 -188t251 -77q145 0 234.5 59.5t91.5 174.5q0 49 -22.5 91t-49.5 67.5t-88.5 56.5t-93 43t-111.5 39q-18 6 -29 10q-106 39 -166.5 65.5t-136 77t-111.5 118t-36 155.5q0 188 153.5 298.5t366.5 110.5 q473 0 551 -446h-207q-14 106 -101 182t-239 76q-119 0 -207 -55.5t-88 -153.5q0 -61 53.5 -113.5t99.5 -74t161 -66.5q18 -8 28 -12q227 -88 305 -135q195 -123 195 -328q0 -215 -161 -332.5t-398.5 -117.5z" glyph-name="S" horiz-adv-x="1255" unicode="S"/><glyph d="M1155 1341h-453v-1339h-221v1339h-452v197h1126v-197z" glyph-name="T" horiz-adv-x="1212" unicode="T"/><glyph d="M707 -20q-250 0 -425.5 152.5t-175.5 369.5v1034h224v-997q0 -150 109.5 -255.5t267 -105.5t271.5 105.5t114 255.5v997h223v-1034q0 -217 -178 -369.5t-430 -152.5z" glyph-name="U" horiz-adv-x="1452" unicode="U"/><glyph d="M1483 1536l-617 -1536h-250l-618 1536h252l491 -1276l490 1276h252z" glyph-name="V" horiz-adv-x="1513" unicode="V"/><glyph d="M2169 1536l-455 -1536h-254l-354 1145l-336 -1145h-252l-477 1536h242l362 -1284l352 1284h226l362 -1286l342 1286h242z" glyph-name="W" horiz-adv-x="2217" unicode="W"/><glyph d="M1063 0l-391 600l-391 -600h-256l526 782l-506 754h254l373 -569l375 569h253l-507 -752l526 -784h-256z" glyph-name="X" horiz-adv-x="1345" unicode="X"/><glyph d="M786 729v-729h-223v723l-538 813h249l400 -618l401 618h246z" glyph-name="Y" horiz-adv-x="1345" unicode="Y"/><glyph d="M1247 199v-199h-1165v119l844 1222h-824v195h1127v-117l-846 -1220h864z" glyph-name="Z" horiz-adv-x="1331" unicode="Z"/><glyph d="M152 1720h454v-143h-264v-2130h264v-143h-454v2416z" glyph-name="bracketleft" horiz-adv-x="589" unicode="["/><glyph d="M14 1536l482 -1024l462 -1024l-479 1024z" glyph-name="backslash" horiz-adv-x="1218" unicode="\"/><glyph d="M152 -553h264v2130h-264v143h454v-2416h-454v143z" glyph-name="bracketright" horiz-adv-x="589" unicode="]"/><glyph d="M1200 406l-485 960l-482 -960h-184l569 1130h195l569 -1130h-182z" glyph-name="asciicircum" horiz-adv-x="1431" unicode="^"/><glyph d="M172 0h1024v-147h-1024v147z" glyph-name="underscore" horiz-adv-x="1366" unicode="_"/><glyph d="M49 1536h221l179 -324h-168z" glyph-name="grave" horiz-adv-x="77" unicode="`"/><glyph d="M434 -12q-164 0 -268.5 90t-104.5 241.5t121 247t342 111.5l258 20v31q0 225 -237 225q-106 0 -175 -54t-79 -155h-201q14 168 129 281t332 113q209 0 326.5 -106.5t117.5 -307.5q0 -94 1 -239.5t1 -159.5q0 -152 86 -148v-178q-45 0 -69 2q-174 18 -211 141 q-47 -68 -149.5 -111.5t-219.5 -43.5zM479 168q106 0 193.5 57.5t109.5 136.5v173l-223 -21q-272 -23 -272 -186q0 -74 57 -117t135 -43z" glyph-name="a" horiz-adv-x="1136" unicode="a"/><glyph d="M694 1137q227 0 372.5 -164t145.5 -412q0 -246 -144 -409.5t-372 -163.5q-233 0 -368 176l-19 -164l-200 2v1536h233v-563q129 162 352 162zM653 190q145 0 236.5 106.5t91.5 264.5q0 160 -91 266.5t-237 106.5q-115 0 -198.5 -73t-112.5 -189v-219q29 -117 112.5 -190 t198.5 -73z" glyph-name="b" horiz-adv-x="1251" unicode="b"/><glyph d="M584 -12q-238 0 -385.5 162.5t-147.5 416.5q0 252 146.5 411t386.5 159q238 0 369.5 -123t150.5 -289h-209q-14 92 -97 155.5t-196 63.5q-150 0 -235.5 -102.5t-85.5 -274.5t87 -276.5t236 -104.5q109 0 188.5 65.5t102.5 158.5h207q-12 -78 -46 -149t-93.5 -134.5 t-157.5 -101t-221 -37.5z" glyph-name="c" horiz-adv-x="1165" unicode="c"/><glyph d="M1159 1536v-1534l-203 -2l-20 156q-129 -166 -363 -166q-229 0 -372.5 160.5t-143.5 406.5t144.5 413t373.5 167q217 0 353 -168v567h231zM614 184q113 0 198 72t116 188v224q-31 117 -116 189.5t-198 72.5q-145 0 -235 -107.5t-90 -265.5t90 -265.5t235 -107.5z" glyph-name="d" horiz-adv-x="1257" unicode="d"/><glyph d="M1098 567q0 -49 -4 -75h-815q8 -147 98 -232.5t209 -87.5q104 0 181 46t110 128h192q-23 -141 -144.5 -249.5t-336.5 -106.5q-240 0 -386.5 162.5t-146.5 410.5q0 252 142.5 412t390.5 160q236 0 373 -155t137 -413zM586 950q-129 0 -206 -77.5t-97 -213.5h596 q-16 135 -91 213t-202 78z" glyph-name="e" horiz-adv-x="1155" unicode="e"/><glyph d="M260 0v940h-158v170h158v88q0 139 76 235.5t209 110.5q68 6 136.5 -7t102.5 -38l-2 -172q-27 14 -63.5 25.5t-84.5 12.5t-81 -22q-72 -49 -72 -165v-68h244v-170h-244v-940h-221z" glyph-name="f" horiz-adv-x="831" unicode="f"/><glyph d="M563 -502q-219 -4 -357 82t-151 225q-8 80 28 160t114 121q-47 23 -84 70t-37 104q0 117 145 199q-53 49 -86 128t-33 163q0 162 126 275.5t321 113.5q162 0 272 -74q23 70 101.5 109.5t148.5 27.5v-158q-47 8 -89 -10t-58 -61q88 -117 88 -234q0 -180 -129 -292.5 t-328 -116.5q-147 -2 -221 45q-35 -14 -51.5 -41t-8.5 -53q25 -78 170 -78l224 -4q174 -2 282.5 -70t124.5 -203q23 -190 -116.5 -308t-395.5 -120zM793 741q0 92 -70 150.5t-174.5 58.5t-171 -59.5t-66.5 -151.5q0 -94 67.5 -153.5t170.5 -59.5q106 0 175 60.5t69 154.5z M864 -104q-14 127 -286 127h-201q-55 -14 -86 -60.5t-31 -101.5q0 -84 82 -131t205 -47q158 0 243.5 59.5t73.5 153.5z" glyph-name="g" horiz-adv-x="1138" unicode="g"/><glyph d="M729 1137q190 0 302 -109.5t112 -300.5v-727h-238v700q0 109 -63.5 169.5t-177.5 60.5q-121 0 -211.5 -67.5t-90.5 -174.5v-688h-237v1536h237v-559q61 74 161 117t206 43z" glyph-name="h" horiz-adv-x="1220" unicode="h"/><glyph d="M243.5 1274q-53.5 0 -92 38t-38.5 93t38.5 94t92 39t92.5 -39t39 -94t-39 -93t-92.5 -38zM129 1126h231v-1126h-231v1126z" glyph-name="i" horiz-adv-x="499" unicode="i"/><glyph d="M307 1270q-53 0 -93 40t-40 95q0 53 40 93t93 40t93 -40t40 -93q0 -55 -40 -95t-93 -40zM-12 -510v195h47q90 0 126 38.5t36 122.5v1280h217l2 -1300q0 -336 -381 -336h-47z" glyph-name="j" horiz-adv-x="550" unicode="j"/><glyph d="M115 0v1536h237v-864l377 454h256l-453 -524l512 -602h-260l-432 510v-510h-237z" glyph-name="k" horiz-adv-x="1044" unicode="k"/><glyph d="M164 0l2 1536h217v-1536h-219z" glyph-name="l" horiz-adv-x="565" unicode="l"/><glyph d="M1430 1137q180 0 283.5 -105.5t103.5 -292.5v-739h-236v713q0 104 -56.5 161.5t-160.5 57.5q-111 0 -192.5 -65.5t-81.5 -170.5v-696h-236v713q0 104 -56.5 161.5t-160.5 57.5q-111 0 -193 -65.5t-82 -170.5v-696h-235v1126h211l10 -149q57 74 152.5 117t199.5 43 q217 0 332 -203q59 90 169 146.5t229 56.5z" glyph-name="m" horiz-adv-x="1918" unicode="m"/><glyph d="M713 1141q188 0 298.5 -109.5t110.5 -302.5v-729h-235v702q0 109 -63.5 170.5t-176.5 61.5q-121 0 -209 -68.5t-88 -175.5v-690h-235v1126h207l18 -157q61 80 162.5 126t210.5 46z" glyph-name="n" horiz-adv-x="1224" unicode="n"/><glyph d="M610.5 -14q-243.5 0 -401.5 166.5t-158 412.5t158 413t401.5 167t401 -167t157.5 -413t-157.5 -412.5t-401 -166.5zM610.5 195q145.5 0 236.5 106.5t91 263.5q0 160 -91 266.5t-236.5 106.5t-236.5 -106.5t-91 -266.5q0 -158 91 -264t236.5 -106z" glyph-name="o" horiz-adv-x="1216" unicode="o"/><glyph d="M690.5 1137q227.5 0 371.5 -161t144 -406.5t-145.5 -411.5t-372.5 -166q-217 0 -352 164v-688l-232 2v1656h213l19 -147q127 158 354.5 158zM649 197q145 0 235.5 106.5t90.5 266t-90 266t-236 106.5q-113 0 -197.5 -72.5t-115.5 -189.5v-221q29 -117 114.5 -189.5 t198.5 -72.5z" glyph-name="p" horiz-adv-x="1241" unicode="p"/><glyph d="M1143 1128v-1656h-232v688q-135 -168 -354 -168q-227 0 -371.5 166t-144.5 413q0 246 143.5 406t372.5 160q231 0 354 -154l15 145h217zM598 201q113 0 198 71.5t115 188.5v223q-31 117 -115.5 188.5t-197.5 71.5q-145 0 -235.5 -106.5t-90.5 -266.5q0 -158 90.5 -264 t235.5 -106z" glyph-name="q" horiz-adv-x="1222" unicode="q"/><glyph d="M764 1139l-2 -205q-193 8 -302.5 -81t-109.5 -284v-569h-235v1126h215l20 -188q37 88 136.5 146.5t277.5 54.5z" glyph-name="r" horiz-adv-x="802" unicode="r"/><glyph d="M528 -16q-213 0 -333.5 110.5t-133.5 249.5h201q16 -78 92 -133t170 -53t148.5 47t54.5 117q0 74 -67.5 112.5t-200.5 67.5q-76 16 -132.5 35.5t-113.5 53.5t-88 89t-31 129q0 152 121 243t303 91q172 0 290 -86t134 -246h-199q-14 76 -76.5 113t-131.5 41 q-86 4 -143.5 -30t-57.5 -99q0 -31 16.5 -55.5t33.5 -39t61 -30t68 -21.5t83 -20q74 -16 129 -38t113.5 -58.5t90.5 -97t32 -140.5q0 -156 -120 -254t-313 -98z" glyph-name="s" horiz-adv-x="1026" unicode="s"/><glyph d="M608 -2q-184 0 -282.5 67.5t-98.5 266.5l2 614h-182v184h182v406h222v-406h278v-186l-283 2v-594q0 -84 36 -123t126 -39h131v-192h-131z" glyph-name="t" horiz-adv-x="808" unicode="t"/><glyph d="M1133 1126v-1126h-209l-17 162q-61 -80 -163.5 -127t-208.5 -47q-184 0 -301 119.5t-117 308.5v710h235v-684q0 -111 66.5 -178t179.5 -67q119 0 210 69.5t91 175.5v684h234z" glyph-name="u" horiz-adv-x="1234" unicode="u"/><glyph d="M1178 1122l-449 -1122h-225l-447 1122h254l307 -852l308 852h252z" glyph-name="v" horiz-adv-x="1204" unicode="v"/><glyph d="M1669 1122l-348 -1122h-264l-195 713l-192 -713h-264l-351 1122h264l228 -846l217 846h213l215 -848l215 848h262z" glyph-name="w" horiz-adv-x="1703" unicode="w"/><glyph d="M743 559l396 -559h-275l-262 391l-262 -391h-274l393 561l-393 565h272l264 -397l264 397h273z" glyph-name="x" horiz-adv-x="1202" unicode="x"/><glyph d="M1174 1126l-670 -1667h-215l248 615h-56l-436 1052h234l346 -825l321 825h228z" glyph-name="y" horiz-adv-x="1224" unicode="y"/><glyph d="M96 168l617 764h-607v194h912v-161l-617 -770h631v-195h-936v168z" glyph-name="z" horiz-adv-x="1093" unicode="z"/><glyph d="M471 -670q-98 0 -162.5 84t-64.5 207v492q0 156 -29 219t-125 110v138q98 47 126 111.5t28 215.5v486q0 123 64.5 206.5t162.5 83.5h109v-139q-100 0 -134 -28.5t-34 -124.5v-514q0 -129 -28 -216.5t-103 -150.5q76 -61 103.5 -148.5t27.5 -218.5v-524q0 -80 34.5 -110.5 t133.5 -30.5v-148h-109z" glyph-name="braceleft" horiz-adv-x="671" unicode="{"/><glyph d="M223 1536h137v-1843h-137v1843z" glyph-name="bar" horiz-adv-x="583" unicode="|"/><glyph d="M92 -522q100 0 134 30.5t34 110.5v524q0 131 27.5 218.5t105.5 148.5q-78 63 -105.5 150.5t-27.5 216.5v514q0 96 -32.5 124.5t-135.5 28.5v146h111q96 0 161.5 -84t65.5 -207v-492q0 -152 27.5 -216t126.5 -111v-138q-98 -47 -126 -109.5t-28 -219.5v-492 q0 -123 -65.5 -207t-161.5 -84h-111v148z" glyph-name="braceright" horiz-adv-x="671" unicode="}"/><glyph d="M786 360q-63 0 -120.5 30t-82 52.5t-67.5 71.5q-82 96 -158 96q-80 0 -128 -66.5t-40 -160.5h-116q-12 150 69.5 246t214.5 96q139 0 256 -150q41 -49 76 -74.5t86 -25.5q78 0 126 62.5t40 160.5h115q14 -143 -65 -240.5t-206 -97.5z" glyph-name="asciitilde" horiz-adv-x="1132" unicode="~"/><glyph d="M307 756q-55 0 -95 39t-40 96q0 55 40 94t95 39q53 0 93 -39t40 -94t-40 -95t-93 -40zM223 557h166l25 -1069h-215z" glyph-name="exclamdown" horiz-adv-x="612" unicode="¡"/><glyph d="M651 1059q-143 0 -242.5 -99.5t-99.5 -242.5q0 -141 99.5 -240.5t242.5 -99.5q164 0 260 88v-213q-113 -61 -237 -68v-186h-131v199q-195 35 -322 180t-127 339.5t127 341t322 181.5v199h131v-189q129 -6 237 -65v-213q-100 88 -260 88z" glyph-name="cent" horiz-adv-x="1040" unicode="¢"/><glyph d="M68 809h122q-31 123 -30 238q0 199 135 326.5t344 127.5q219 0 346 -127t125 -344h-215q-14 145 -72.5 205.5t-183.5 60.5q-115 0 -184.5 -68.5t-69.5 -180.5q0 -111 33 -238h461v-195h-414q25 -127 24 -211q0 -59 -18 -118q49 -14 169 -66.5t173 -52.5q80 0 114 48 t29 157h209q8 -184 -87 -298t-255 -114q-86 0 -178 36t-168 71.5t-119 35.5q-109 0 -92 -129h-211q-8 111 47.5 199t151.5 117q25 55 25 117q0 84 -35 208h-176v195z" glyph-name="sterling" horiz-adv-x="1247" unicode="£"/><glyph d="M137 377l105 104q-84 117 -83 263.5t85 263.5l-105 102l117 123l106 -109q117 84 262.5 85t262.5 -85l106 107l117 -119l-104 -102q84 -119 84 -265.5t-84 -263.5l104 -104l-115 -121l-108 106q-117 -84 -263.5 -83.5t-263.5 83.5l-106 -106zM410 532q90 -90 215 -90 t213 90q86 88 86 212t-86 212q-88 88 -213 87t-213 -89q-86 -88 -87 -212t85 -210z" glyph-name="currency" horiz-adv-x="1247" unicode="¤"/><glyph d="M793 741h391v-141h-400v-182h400v-133h-400v-285h-190v285h-393v133h393v182h-393v141h385l-8 27l-508 768h204l414 -643l418 643h203l-506 -764z" glyph-name="yen" horiz-adv-x="1378" unicode="¥"/><glyph d="M223 1536h137v-737h-137v737zM223 430h137v-737h-137v737z" glyph-name="brokenbar" horiz-adv-x="583" unicode="¦"/><glyph d="M1069 518q82 -78 82 -184q0 -143 -150.5 -236.5t-357.5 -93.5q-176 0 -318.5 67.5t-201.5 172.5l135 82q43 -74 146.5 -122t246.5 -48q141 0 238.5 47t97.5 133q0 70 -82 116t-198.5 73.5t-234.5 62.5t-200 107.5t-82 183.5q0 109 82 184q-80 74 -79 180q0 147 132 230 t312 83q125 0 238.5 -40.5t183.5 -108.5l-111 -90q-106 100 -301 100q-121 0 -207 -45t-86 -121q0 -59 59.5 -102t147.5 -64.5t191.5 -52.5t191.5 -64.5t147.5 -102t59.5 -163.5q0 -106 -82 -184zM354 885q0 -78 86 -124t252 -88t242 -75q53 43 53 107q0 59 -61.5 102 t-139 63.5t-194.5 52t-184 62.5q-54 -41 -54 -100z" glyph-name="section" horiz-adv-x="1263" unicode="§"/><glyph d="M250 1200q-55 0 -95 39t-40 94.5t40 95t95 39.5q53 0 93 -39.5t40 -95t-40 -94.5t-93 -39zM651 1200q-53 0 -93 39t-40 94.5t40 95t93 39.5q55 0 94 -39.5t39 -95t-39 -94.5t-94 -39z" glyph-name="dieresis" horiz-adv-x="77" unicode="¨"/><glyph d="M882.5 -20q-325.5 0 -557 231t-231.5 557t231.5 557t557 231t557 -231t231.5 -557t-231.5 -557t-557 -231zM882.5 102q278.5 0 473 193.5t194.5 472.5q0 281 -193.5 474.5t-474 193.5t-474 -193.5t-193.5 -474.5q0 -279 194.5 -472.5t473 -193.5zM872 354 q-168 -2 -278.5 119t-110.5 297t109.5 295t279.5 119q160 0 258.5 -94.5t102.5 -206.5h-133q-12 74 -71.5 124t-156.5 50q-117 0 -187.5 -81t-70.5 -206t71 -205t187 -80q92 0 158 51.5t70 112.5h133q-2 -100 -105.5 -196.5t-255.5 -98.5z" glyph-name="copyright" horiz-adv-x="1763" unicode="©"/><glyph d="M721 1536v-614h-111v122q-84 -135 -243 -135q-127 0 -218.5 93.5t-91.5 226.5t91.5 226t218.5 93q160 0 243 -135v123h111zM389 1008q92 0 156.5 64.5t64.5 156.5t-64.5 156.5t-156.5 64.5t-156.5 -64.5t-64.5 -156.5t64.5 -156.5t156.5 -64.5z" glyph-name="ordfeminine" horiz-adv-x="825" unicode="ª"/><glyph d="M215 571l311 377h179l-312 -377l312 -376h-179zM627 571l311 377h178l-311 -377l311 -376h-178z" glyph-name="guillemotleft" horiz-adv-x="1329" unicode="«"/><glyph d="M1284 754h-1112v141h1253v-666h-141v525z" glyph-name="logicalnot" horiz-adv-x="1595" unicode="¬"/><glyph d="M172 608h717v-149h-717v149z" glyph-name="uni00AD" horiz-adv-x="1208" unicode="­"/><glyph d="M882.5 1556q325.5 0 557 -231t231.5 -557t-231.5 -557t-557 -231t-557 231t-231.5 557t231.5 557t557 231zM882.5 102q278.5 0 473 193.5t194.5 472.5q0 281 -193.5 474.5t-474 193.5t-474 -193.5t-193.5 -474.5q0 -279 194.5 -472.5t473 -193.5zM1192 385h-143l-187 303 h-98v-303h-129v772h297q90 0 156.5 -71.5t66.5 -167.5q0 -78 -46 -140.5t-116 -81.5zM926 795q45 0 77.5 35.5t32.5 87t-32.5 89t-77.5 37.5h-162v-249h162z" glyph-name="registered" horiz-adv-x="1763" unicode="®"/><glyph d="M49 1362h635v-141h-635v141z" glyph-name="macron" horiz-adv-x="96" unicode="¯"/><glyph d="M487.5 1008q-112.5 0 -193.5 80.5t-81 193.5q0 115 80 194.5t194.5 79.5t194.5 -79.5t80 -194.5q0 -113 -81 -193.5t-193.5 -80.5zM487.5 1118q69.5 0 116.5 48t47 116q0 70 -47 118t-116.5 48t-116.5 -48t-47 -118q0 -68 47 -116t116.5 -48z" glyph-name="degree" horiz-adv-x="972" unicode="°"/><glyph d="M1507 895v-141h-637v-369h-141v369h-639v141h639v369h141v-369h637zM90 129h1417v-129h-1417v129z" glyph-name="plusminus" horiz-adv-x="1597" unicode="±"/><glyph d="M84 856q268 281 325.5 350.5t57.5 124.5q0 63 -37 96t-92 33q-59 0 -96 -35.5t-35 -97.5h-107q-2 102 69 167t173 62q96 0 161.5 -57t67.5 -151q2 -88 -54 -163t-286 -308h363v-99h-510v78z" glyph-name="uni00B2" horiz-adv-x="681" unicode="²"/><glyph d="M444 809q-96 0 -162.5 60.5t-66.5 144.5l96 2q0 -49 39 -83t94 -34q57 -2 97.5 35t40.5 98q2 55 -36 94t-91 39h-58v76h49q45 0 75 31t30 76q0 43 -31 70.5t-82 27.5q-45 0 -75.5 -25.5t-32.5 -64.5h-92q2 82 62 131t138 49q88 -2 142.5 -53t56.5 -127q4 -92 -84 -139 q55 -25 89 -74t34 -111q2 -98 -65 -159.5t-167 -63.5z" glyph-name="uni00B3" horiz-adv-x="729" unicode="³"/><glyph d="M229 1536h220l-230 -324h-170z" glyph-name="acute" horiz-adv-x="77" unicode="´"/><glyph d="M1085 1024v-1024h-217v139q-123 -160 -315 -159q-139 0 -240 88v-580h-161v1536h215v-608q0 -100 71.5 -172t173.5 -72q106 0 181 71.5t75 172.5v608h217z" glyph-name="uni00B5" horiz-adv-x="1208" unicode="µ"/><glyph d="M612 727h-55q-170 0 -298 120t-128 285.5t128 284.5t298 119h170v-1843h-115v1034zM920 1536h114v-1843h-114v1843z" glyph-name="paragraph" horiz-adv-x="1267" unicode="¶"/><glyph d="M276 635q-43 0 -73.5 29.5t-30.5 72.5t32 74t72.5 31t72.5 -31t32 -74t-31 -72.5t-74 -29.5z" glyph-name="periodcentered" horiz-adv-x="552" unicode="·"/><glyph d="M287 -532q-72 0 -141.5 38.5t-96.5 96.5l98 39q20 -29 60.5 -50.5t79.5 -21.5q45 0 75.5 31.5t30.5 79.5q0 68 -55 92t-137 -9l-86 54l94 182h106l-67 -133q106 20 179 -35t73 -151q0 -90 -61.5 -151.5t-151.5 -61.5z" glyph-name="cedilla" horiz-adv-x="77" unicode="¸"/><glyph d="M176 1440h-115v96h226v-768h-111v672z" glyph-name="uni00B9" horiz-adv-x="520" unicode="¹"/><glyph d="M389 909q-139 0 -235.5 93.5t-96.5 226.5t96.5 226t235.5 93t235.5 -93t96.5 -226t-96.5 -226.5t-235.5 -93.5zM389 1008q92 0 156.5 64.5t64.5 156.5t-64.5 156.5t-156.5 64.5t-156.5 -64.5t-64.5 -156.5t64.5 -156.5t156.5 -64.5z" glyph-name="ordmasculine" horiz-adv-x="778" unicode="º"/><glyph d="M524 571l-311 377h178l311 -377l-311 -376h-178zM936 571l-311 377h180l311 -377l-311 -376h-180z" glyph-name="guillemotright" horiz-adv-x="1329" unicode="»"/><glyph d="M588 1053q55 0 95 -39t40 -94q0 -57 -40 -96.5t-95.5 -39.5t-94 40t-38.5 95.5t40 94.5t93 39zM694 528q0 -88 -38 -161.5t-93 -125t-109.5 -97.5t-92 -102t-37.5 -120q0 -109 77.5 -179.5t194.5 -70.5q121 0 198.5 78t73.5 193h193q6 -197 -127 -328t-338 -131 q-199 0 -331 125t-132 313q0 94 57.5 183.5t125 146.5t125 127t57.5 131v133h196v-115z" glyph-name="questiondown" horiz-adv-x="1144" unicode="¿"/><glyph d="M674 1724l-230 324h220l180 -324h-170zM1128 356h-714l-138 -356h-241l616 1536h250l617 -1536h-244zM1065 553l-289 754l-293 -754h582z" glyph-name="Agrave" horiz-adv-x="1552" unicode="À"/><glyph d="M856 1724h-170l180 324h219zM1128 356h-714l-138 -356h-241l616 1536h250l617 -1536h-244zM1065 553l-289 754l-293 -754h582z" glyph-name="Aacute" horiz-adv-x="1552" unicode="Á"/><glyph d="M612 1698h-170l211 350h228l211 -350h-170l-154 252zM1128 356h-714l-138 -356h-241l616 1536h250l617 -1536h-244zM1065 553l-289 754l-293 -754h582z" glyph-name="Acircumflex" horiz-adv-x="1552" unicode="Â"/><glyph d="M432 1718q-20 121 36 200t159 79q121 0 196 -113q29 -53 82 -53q43 0 62.5 41t5.5 106h131q20 -119 -35 -197.5t-160 -78.5q-121 0 -196 113q-33 53 -80 53q-45 0 -64.5 -42t-5.5 -108h-131zM1128 356h-714l-138 -356h-241l616 1536h250l617 -1536h-244zM1065 553 l-289 754l-293 -754h582z" glyph-name="Atilde" horiz-adv-x="1552" unicode="Ã"/><glyph d="M567 1712q-55 0 -95 39t-40 94.5t40 95t95 39.5q53 0 93 -39.5t40 -95t-40 -94.5t-93 -39zM969 1712q-53 0 -93 39t-40 94.5t39.5 95t93.5 39.5q55 0 94 -39.5t39 -95t-39 -94.5t-94 -39zM1128 356h-714l-138 -356h-241l616 1536h250l617 -1536h-244zM1065 553l-289 754 l-293 -754h582z" glyph-name="Adieresis" horiz-adv-x="1552" unicode="Ä"/><glyph d="M913 1507l605 -1507h-244l-146 356h-714l-138 -356h-241l604 1503h-12q-78 61 -78 162q0 90 64.5 153.5t156.5 63.5q88 0 151.5 -63.5t63.5 -153.5q0 -99 -72 -158zM770 1788q-51 0 -87 -36t-36 -87q0 -55 35 -90t88 -35q51 0 86 35t35 90q0 51 -35 87t-86 36zM483 553 h582l-289 754z" glyph-name="Aring" horiz-adv-x="1552" unicode="Å"/><glyph d="M651 1536h1118v-190h-649v-492h563v-170h-563v-491h649v-193h-866v332h-497l-121 -332h-250zM905 504v842h-98l-328 -842h426z" glyph-name="AE" horiz-adv-x="1822" unicode="Æ"/><glyph d="M813 193q190 0 313 101t144 218h221q-18 -182 -186 -342t-416 -186v-4l-60 -113q106 20 179 -35t73 -151q0 -90 -61.5 -151.5t-151.5 -61.5q-72 0 -141.5 38.5t-95.5 96.5l98 39q20 -29 60 -50.5t79 -21.5q45 0 76 31.5t31 79.5q0 68 -55.5 92t-137.5 -9l-86 54l84 162 q-311 10 -508.5 236t-197.5 552q0 334 206.5 561t532.5 227q293 0 476.5 -164.5t201.5 -383.5h-221q-23 127 -137.5 231t-319.5 104q-240 0 -384 -163.5t-144 -411.5q0 -246 144 -410.5t384 -164.5z" glyph-name="Ccedilla" horiz-adv-x="1615" unicode="Ç"/><glyph d="M485 1724l-231 324h221l178 -324h-168zM336 1341v-473h659v-198h-659v-471h745v-199h-970v1536h970v-195h-745z" glyph-name="Egrave" horiz-adv-x="1198" unicode="È"/><glyph d="M668 1724h-170l178 324h221zM336 1341v-473h659v-198h-659v-471h745v-199h-970v1536h970v-195h-745z" glyph-name="Eacute" horiz-adv-x="1198" unicode="É"/><glyph d="M424 1698h-170l209 350h227l213 -350h-172l-153 252zM336 1341v-473h659v-198h-659v-471h745v-199h-970v1536h970v-195h-745z" glyph-name="Ecircumflex" horiz-adv-x="1198" unicode="Ê"/><glyph d="M377 1712q-55 0 -94 39t-39 94.5t39 95t94 39.5t95 -39.5t40 -95t-40 -94.5t-95 -39zM780 1712q-55 0 -95 39t-40 94.5t40 95t95 39.5q53 0 93 -39.5t40 -95t-40 -94.5t-93 -39zM336 1341v-473h659v-198h-659v-471h745v-199h-970v1536h970v-195h-745z" glyph-name="Edieresis" horiz-adv-x="1198" unicode="Ë"/><glyph d="M143 2048h224l178 -324h-168zM360 1536h224v-1536h-224v1536z" glyph-name="Igrave" horiz-adv-x="737" unicode="Ì"/><glyph d="M352 2048h221l-229 -324h-170zM143 1536h226v-1536h-226v1536z" glyph-name="Iacute" horiz-adv-x="727" unicode="Í"/><glyph d="M356 2048h228l211 -350h-170l-154 252l-156 -252h-172zM360 1536h224v-1536h-224v1536z" glyph-name="Icircumflex" horiz-adv-x="948" unicode="Î"/><glyph d="M281 1712q-55 0 -96.5 39t-41.5 94.5t41 95t97 39.5q53 0 93 -39.5t40 -95t-40 -94.5t-93 -39zM682 1712q-53 0 -93 39t-40 94.5t40 95t93 39.5q55 0 94 -39.5t39 -95t-39 -94.5t-94 -39zM371 1536h225v-1536h-225v1536z" glyph-name="Idieresis" horiz-adv-x="968" unicode="Ï"/><glyph d="M737 1536q328 0 548 -210t220 -558t-220 -558t-548 -210h-448v702h-156v134h156v700h448zM735 199q238 0 392.5 152.5t154.5 416.5t-154.5 418.5t-392.5 154.5h-225v-505h260v-134h-260v-503h225z" glyph-name="Eth" horiz-adv-x="1597" unicode="Ð"/><glyph d="M469 1718q-20 121 36 200t159 79q121 0 196 -113q29 -53 82 -53q43 0 62.5 41t5.5 106h131q20 -119 -35 -197.5t-160 -78.5q-121 0 -196 113q-33 53 -80 53q-45 0 -64.5 -42t-5.5 -108h-131zM1427 1536v-1536h-221l-878 1186v-1186h-226v1536h222l880 -1184v1184h223z " glyph-name="Ntilde" horiz-adv-x="1560" unicode="Ñ"/><glyph d="M487 2048h222l178 -324h-168zM813 -20q-328 0 -539 228t-211 560t211 560t539 228q326 0 538 -228t212 -560t-212 -560t-538 -228zM813 197q240 0 386.5 162.5t146.5 408.5q0 248 -146.5 411.5t-386.5 163.5t-388.5 -163.5t-148.5 -411.5q0 -244 148.5 -407.5 t388.5 -163.5z" glyph-name="Ograve" horiz-adv-x="1642" unicode="Ò"/><glyph d="M911 2048h219l-229 -324h-170zM813 -20q-328 0 -539 228t-211 560t211 560t539 228q326 0 538 -228t212 -560t-212 -560t-538 -228zM813 197q240 0 386.5 162.5t146.5 408.5q0 248 -146.5 411.5t-386.5 163.5t-388.5 -163.5t-148.5 -411.5q0 -244 148.5 -407.5 t388.5 -163.5z" glyph-name="Oacute" horiz-adv-x="1642" unicode="Ó"/><glyph d="M698 2048h228l213 -350h-172l-154 252l-154 -252h-170zM813 -20q-328 0 -539 228t-211 560t211 560t539 228q326 0 538 -228t212 -560t-212 -560t-538 -228zM813 197q240 0 386.5 162.5t146.5 408.5q0 248 -146.5 411.5t-386.5 163.5t-388.5 -163.5t-148.5 -411.5 q0 -244 148.5 -407.5t388.5 -163.5z" glyph-name="Ocircumflex" horiz-adv-x="1642" unicode="Ô"/><glyph d="M952 1702q-119 0 -194 113q-33 53 -82 53q-43 0 -62.5 -42t-5.5 -108h-133q-20 121 37 200t158 79q125 0 196 -113q33 -53 82 -53q45 0 64.5 41t5.5 106h131q20 -119 -36.5 -197.5t-160.5 -78.5zM813 -20q-328 0 -539 228t-211 560t211 560t539 228q326 0 538 -228 t212 -560t-212 -560t-538 -228zM813 197q240 0 386.5 162.5t146.5 408.5q0 248 -146.5 411.5t-386.5 163.5t-388.5 -163.5t-148.5 -411.5q0 -244 148.5 -407.5t388.5 -163.5z" glyph-name="Otilde" horiz-adv-x="1642" unicode="Õ"/><glyph d="M612 1712q-55 0 -95 39t-40 94.5t40 95t95 39.5q53 0 93 -39.5t40 -95t-40 -94.5t-93 -39zM1014 1712q-53 0 -93 39t-40 94.5t40 95t93 39.5q55 0 94 -39.5t39 -95t-39 -94.5t-94 -39zM813 -20q-328 0 -539 228t-211 560t211 560t539 228q326 0 538 -228t212 -560 t-212 -560t-538 -228zM813 197q240 0 386.5 162.5t146.5 408.5q0 248 -146.5 411.5t-386.5 163.5t-388.5 -163.5t-148.5 -411.5q0 -244 148.5 -407.5t388.5 -163.5z" glyph-name="Odieresis" horiz-adv-x="1642" unicode="Ö"/><glyph d="M895 635l391 -389l-117 -117l-391 389l-391 -389l-117 117l389 389l-389 391l117 117l391 -391l391 391l117 -117z" glyph-name="multiply" horiz-adv-x="1499" unicode="×"/><glyph d="M1296 1380q125 -111 196 -269.5t71 -342.5q0 -332 -212 -560t-538 -228q-213 0 -385 104l-84 -127h-145l131 199q-127 109 -197 268.5t-70 343.5q0 332 211 560t539 228q213 0 387 -106l84 127h143zM276 768q0 -270 175 -434l630 938q-123 72 -268 71 q-240 0 -388.5 -163.5t-148.5 -411.5zM813 197q240 0 386.5 162.5t146.5 408.5q0 270 -168 432l-631 -938q114 -65 266 -65z" glyph-name="Oslash" horiz-adv-x="1642" unicode="Ø"/><glyph d="M422 2048h221l178 -324h-168zM707 -20q-250 0 -425.5 152.5t-175.5 369.5v1034h224v-997q0 -150 109.5 -255.5t267 -105.5t271.5 105.5t114 255.5v997h223v-1034q0 -217 -178 -369.5t-430 -152.5z" glyph-name="Ugrave" horiz-adv-x="1452" unicode="Ù"/><glyph d="M846 2048h219l-229 -324h-170zM707 -20q-250 0 -425.5 152.5t-175.5 369.5v1034h224v-997q0 -150 109.5 -255.5t267 -105.5t271.5 105.5t114 255.5v997h223v-1034q0 -217 -178 -369.5t-430 -152.5z" glyph-name="Uacute" horiz-adv-x="1452" unicode="Ú"/><glyph d="M633 2048h227l213 -350h-172l-153 252l-154 -252h-170zM707 -20q-250 0 -425.5 152.5t-175.5 369.5v1034h224v-997q0 -150 109.5 -255.5t267 -105.5t271.5 105.5t114 255.5v997h223v-1034q0 -217 -178 -369.5t-430 -152.5z" glyph-name="Ucircumflex" horiz-adv-x="1452" unicode="Û"/><glyph d="M547 1712q-55 0 -95 39t-40 94.5t40 95t95 39.5q53 0 93 -39.5t40 -95t-40 -94.5t-93 -39zM948 1712q-53 0 -93 39t-40 94.5t40 95t93 39.5q55 0 94 -39.5t39 -95t-39 -94.5t-94 -39zM707 -20q-250 0 -425.5 152.5t-175.5 369.5v1034h224v-997q0 -150 109.5 -255.5 t267 -105.5t271.5 105.5t114 255.5v997h223v-1034q0 -217 -178 -369.5t-430 -152.5z" glyph-name="Udieresis" horiz-adv-x="1452" unicode="Ü"/><glyph d="M764 1724h-170l180 324h219zM786 729v-729h-223v723l-538 813h249l400 -618l401 618h246z" glyph-name="Yacute" horiz-adv-x="1345" unicode="Ý"/><glyph d="M725 1321q182 0 309 -129t127 -313q0 -180 -127 -305t-309 -125h-365v-449h-217v1532h217v-211h365zM719 639q102 0 174 71.5t72 174.5q0 100 -72 171.5t-174 71.5h-359v-489h359z" glyph-name="Thorn" horiz-adv-x="1212" unicode="Þ"/><glyph d="M1010 793q109 -57 173 -160t64 -225q0 -178 -119.5 -303t-289.5 -125q-86 0 -184.5 32.5t-155.5 85.5l88 164q39 -35 98 -58.5t115 -21.5q92 2 161.5 71t69.5 167q0 106 -79 182t-189 76h-105v178h43q104 0 179 74t75 178q0 102 -76.5 170t-195.5 68q-127 0 -211 -75 t-84 -188v-1083h-215v1083q0 197 144.5 325t361.5 128q209 0 345 -121t136 -303q1 -196 -149 -319z" glyph-name="germandbls" horiz-adv-x="1376" unicode="ß"/><glyph d="M690 1212h-168l-231 324h221zM997 326q0 -152 86 -148v-178q-45 0 -69 2q-174 18 -211 141q-47 -68 -149.5 -111.5t-219.5 -43.5q-164 0 -268.5 90t-104.5 241.5t121 247t342 111.5l258 20v31q0 225 -237 225q-106 0 -175 -54t-79 -155h-201q14 168 129 281t332 113 q209 0 326.5 -106.5t117.5 -307.5q0 -94 1 -239.5t1 -159.5zM782 362v173l-223 -21q-272 -23 -272 -186q0 -74 57 -117t135 -43q106 0 193 57t110 137z" glyph-name="agrave" horiz-adv-x="1136" unicode="à"/><glyph d="M913 1536l-229 -324h-170l178 324h221zM997 326q0 -152 86 -148v-178q-45 0 -69 2q-174 18 -211 141q-47 -68 -149.5 -111.5t-219.5 -43.5q-164 0 -268.5 90t-104.5 241.5t121 247t342 111.5l258 20v31q0 225 -237 225q-106 0 -175 -54t-79 -155h-201q14 168 129 281 t332 113q209 0 326.5 -106.5t117.5 -307.5q0 -94 1 -239.5t1 -159.5zM782 362v173l-223 -21q-272 -23 -272 -186q0 -74 57 -117t135 -43q106 0 193 57t110 137z" glyph-name="aacute" horiz-adv-x="1136" unicode="á"/><glyph d="M520 1438l-153 -252h-170l209 350h227l213 -350h-172zM997 326q0 -152 86 -148v-178q-45 0 -69 2q-174 18 -211 141q-47 -68 -149.5 -111.5t-219.5 -43.5q-164 0 -268.5 90t-104.5 241.5t121 247t342 111.5l258 20v31q0 225 -237 225q-106 0 -175 -54t-79 -155h-201 q14 168 129 281t332 113q209 0 326.5 -106.5t117.5 -307.5q0 -94 1 -239.5t1 -159.5zM782 362v173l-223 -21q-272 -23 -272 -186q0 -74 57 -117t135 -43q106 0 193 57t110 137z" glyph-name="acircumflex" horiz-adv-x="1136" unicode="â"/><glyph d="M193 1206q-20 121 36 200t158 79q125 0 197 -113q29 -53 82 -53q43 0 62.5 41t4.5 106h131q20 -119 -35 -197.5t-159 -78.5q-121 0 -197 113q-33 53 -80 53q-45 0 -64.5 -42t-4.5 -108h-131zM434 -12q-164 0 -268.5 90t-104.5 241.5t121 247t342 111.5l258 20v31 q0 225 -237 225q-106 0 -175 -54t-79 -155h-201q14 168 129 281t332 113q209 0 326.5 -106.5t117.5 -307.5q0 -94 1 -239.5t1 -159.5q0 -152 86 -148v-178q-45 0 -69 2q-174 18 -211 141q-47 -68 -149.5 -111.5t-219.5 -43.5zM479 168q106 0 193.5 57.5t109.5 136.5v173 l-223 -21q-272 -23 -272 -186q0 -74 57 -117t135 -43z" glyph-name="atilde" horiz-adv-x="1136" unicode="ã"/><glyph d="M322 1200q-55 0 -95.5 39t-40.5 94.5t40 95t96 39.5q53 0 93 -39.5t40 -95t-40 -94.5t-93 -39zM723 1200q-53 0 -93 39t-40 94.5t40 95t93 39.5q55 0 94 -39.5t39 -95t-39 -94.5t-94 -39zM434 -12q-164 0 -268.5 90t-104.5 241.5t121 247t342 111.5l258 20v31 q0 225 -237 225q-106 0 -175 -54t-79 -155h-201q14 168 129 281t332 113q209 0 326.5 -106.5t117.5 -307.5q0 -94 1 -239.5t1 -159.5q0 -152 86 -148v-178q-45 0 -69 2q-174 18 -211 141q-47 -68 -149.5 -111.5t-219.5 -43.5zM479 168q106 0 193.5 57.5t109.5 136.5v173 l-223 -21q-272 -23 -272 -186q0 -74 57 -117t135 -43z" glyph-name="adieresis" horiz-adv-x="1136" unicode="ä"/><glyph d="M524 1161q-92 0 -156.5 64.5t-64.5 154.5t64.5 153.5t156.5 63.5q88 0 151.5 -63.5t63.5 -153.5t-63.5 -154.5t-151.5 -64.5zM524 1505q-51 0 -87 -36.5t-36 -88.5q0 -53 35 -88t88 -35q51 0 86 35t35 88q0 51 -35 88t-86 37zM434 -12q-164 0 -268.5 90t-104.5 241.5 t121 247t342 111.5l258 20v31q0 225 -237 225q-106 0 -175 -54t-79 -155h-201q14 168 129 281t332 113q209 0 326.5 -106.5t117.5 -307.5q0 -94 1 -239.5t1 -159.5q0 -152 86 -148v-178q-45 0 -69 2q-174 18 -211 141q-47 -68 -149.5 -111.5t-219.5 -43.5zM479 168 q106 0 193.5 57.5t109.5 136.5v173l-223 -21q-272 -23 -272 -186q0 -74 57 -117t135 -43z" glyph-name="aring" horiz-adv-x="1136" unicode="å"/><glyph d="M1935 571q0 -49 -4 -75h-825q12 -156 102 -241t228 -85q94 0 180 46t117 132h190q-29 -160 -164 -262t-340 -100q-281 0 -436 215v-199h-188l-15 145q-51 -82 -158.5 -124.5t-234.5 -32.5q-154 10 -248 98t-94 231q0 145 120 239.5t343 111.5l256 18v41q0 231 -238 232 q-106 0 -173.5 -55.5t-80.5 -157.5h-196q14 168 126.5 280.5t332.5 112.5q160 0 268 -62.5t151 -183.5q152 252 465 252q236 0 376 -158t140 -418zM1110 664h604q-16 137 -92 214.5t-205 77.5q-131 0 -210 -78.5t-97 -213.5zM764 365v170l-221 -21q-274 -25 -275 -190 q0 -72 52.5 -113t128.5 -45q109 -6 199.5 53.5t115.5 145.5z" glyph-name="ae" horiz-adv-x="1957" unicode="æ"/><glyph d="M604 186q109 0 188.5 65.5t102.5 158.5h207q-12 -78 -46 -149t-93.5 -134.5t-157.5 -101t-221 -37.5h-6l-52 -101q106 20 179 -35t73 -151q0 -90 -61.5 -151.5t-151.5 -61.5q-72 0 -141.5 39t-95.5 96l98 39q20 -29 60 -50.5t79 -21.5q45 0 76 32t31 79q0 68 -55.5 92.5 t-137.5 -8.5l-86 53l82 160q-195 37 -309.5 192.5t-114.5 376.5q0 252 146.5 411t386.5 159q238 0 369.5 -123t150.5 -289h-209q-14 92 -97 155.5t-196 63.5q-150 0 -235.5 -102.5t-85.5 -274.5t86.5 -276.5t236.5 -104.5z" glyph-name="ccedilla" horiz-adv-x="1165" unicode="ç"/><glyph d="M483 1219l-229 325h219l180 -325h-170zM1098 567q0 -49 -4 -75h-815q8 -147 98 -232.5t209 -87.5q104 0 181 46t110 128h192q-23 -141 -144.5 -249.5t-336.5 -106.5q-240 0 -386.5 162.5t-146.5 410.5q0 252 142.5 412t390.5 160q236 0 373 -155t137 -413zM586 950 q-129 0 -206 -77.5t-97 -213.5h596q-16 135 -91 213t-202 78z" glyph-name="egrave" horiz-adv-x="1165" unicode="è"/><glyph d="M897 1544l-229 -325h-170l178 325h221zM1098 567q0 -49 -4 -75h-815q8 -147 98 -232.5t209 -87.5q104 0 181 46t110 128h192q-23 -141 -144.5 -249.5t-336.5 -106.5q-240 0 -386.5 162.5t-146.5 410.5q0 252 142.5 412t390.5 160q236 0 373 -155t137 -413zM283 659h596 q-16 135 -91 213t-202 78q-129 0 -206 -78t-97 -213z" glyph-name="eacute" horiz-adv-x="1165" unicode="é"/><glyph d="M424 1194h-170l209 350h227l213 -350h-172l-153 250zM1098 567q0 -49 -4 -75h-815q8 -147 98 -232.5t209 -87.5q104 0 181 46t110 128h192q-23 -141 -144.5 -249.5t-336.5 -106.5q-240 0 -386.5 162.5t-146.5 410.5q0 252 142.5 412t390.5 160q236 0 373 -155t137 -413z M586 950q-129 0 -206 -77.5t-97 -213.5h596q-16 135 -91 213t-202 78z" glyph-name="ecircumflex" horiz-adv-x="1165" unicode="ê"/><glyph d="M377 1206q-55 0 -95 40t-40 95.5t40 94.5t95 39q53 0 93 -39t40 -94.5t-40 -95.5t-93 -40zM778 1206q-53 0 -93 40t-40 95.5t40 94.5t93 39q55 0 94 -39t39 -94.5t-39 -95.5t-94 -40zM1098 567q0 -49 -4 -75h-815q8 -147 98 -232.5t209 -87.5q104 0 181 46t110 128h192 q-23 -141 -144.5 -249.5t-336.5 -106.5q-240 0 -386.5 162.5t-146.5 410.5q0 252 142.5 412t390.5 160q236 0 373 -155t137 -413zM586 950q-129 0 -206 -77.5t-97 -213.5h596q-16 135 -91 213t-202 78z" glyph-name="edieresis" horiz-adv-x="1165" unicode="ë"/><glyph d="M47 1536h221l181 -324h-170zM264 1024h217v-1024h-217v1024z" glyph-name="igrave" horiz-adv-x="593" unicode="ì"/><glyph d="M311 1536h219l-229 -324h-170zM102 1024h217v-1024h-217v1024z" glyph-name="iacute" horiz-adv-x="587" unicode="í"/><glyph d="M315 1536h228l211 -350h-170l-154 252l-156 -252h-172zM322 1024h217v-1024h-217v1024z" glyph-name="icircumflex" horiz-adv-x="866" unicode="î"/><glyph d="M240 1200q-55 0 -96.5 39t-41.5 94.5t41 95t97 39.5q53 0 93 -39.5t40 -95t-40 -94.5t-93 -39zM641 1200q-53 0 -93 39t-40 94.5t40 95t93 39.5q55 0 94 -39.5t39 -95t-39 -94.5t-94 -39zM332 1024h217v-1024h-217v1024z" glyph-name="idieresis" horiz-adv-x="886" unicode="ï"/><glyph d="M805 1405q178 -141 281.5 -376.5t103.5 -516.5q0 -221 -163 -376.5t-394 -155.5q-233 0 -395 155.5t-162 376.5q0 223 161.5 377.5t395.5 154.5q145 0 264 -75q-70 188 -203 293l-104 -132l-70 58l96 121q-127 74 -292 80l43 172q197 0 364 -105l90 115l72 -55zM633 172 q141 0 240.5 99.5t99.5 240.5q0 143 -99.5 242.5t-240.5 99.5q-143 0 -242.5 -99.5t-99.5 -242.5q0 -141 99.5 -240.5t242.5 -99.5z" glyph-name="eth" horiz-adv-x="1257" unicode="ð"/><glyph d="M274 1206q-20 121 36.5 200t158.5 79q121 0 197 -113q29 -53 82 -53q43 0 62 41t5 106h131q20 -119 -35 -197.5t-159 -78.5q-121 0 -197 113q-33 53 -80 53q-45 0 -64.5 -42t-4.5 -108h-132zM713 1141q188 0 298.5 -109.5t110.5 -302.5v-729h-235v702q0 109 -63.5 170.5 t-176.5 61.5q-121 0 -209 -68.5t-88 -175.5v-690h-235v1126h207l18 -157q61 80 162.5 126t210.5 46z" glyph-name="ntilde" horiz-adv-x="1224" unicode="ñ"/><glyph d="M264 1536h219l181 -324h-170zM610.5 -14q-243.5 0 -401.5 166.5t-158 412.5t158 413t401.5 167t401 -167t157.5 -413t-157.5 -412.5t-401 -166.5zM610.5 195q145.5 0 236.5 106.5t91 263.5q0 160 -91 266.5t-236.5 106.5t-236.5 -106.5t-91 -266.5q0 -158 91 -264 t236.5 -106z" glyph-name="ograve" horiz-adv-x="1216" unicode="ò"/><glyph d="M686 1536h221l-229 -324h-170zM610.5 -14q-243.5 0 -401.5 166.5t-158 412.5t158 413t401.5 167t401 -167t157.5 -413t-157.5 -412.5t-401 -166.5zM610.5 195q145.5 0 236.5 106.5t91 263.5q0 160 -91 266.5t-236.5 106.5t-236.5 -106.5t-91 -266.5q0 -158 91 -264 t236.5 -106z" glyph-name="oacute" horiz-adv-x="1216" unicode="ó"/><glyph d="M475 1536h227l211 -350h-170l-153 252l-156 -252h-170zM610.5 -14q-243.5 0 -401.5 166.5t-158 412.5t158 413t401.5 167t401 -167t157.5 -413t-157.5 -412.5t-401 -166.5zM610.5 195q145.5 0 236.5 106.5t91 263.5q0 160 -91 266.5t-236.5 106.5t-236.5 -106.5 t-91 -266.5q0 -158 91 -264t236.5 -106z" glyph-name="ocircumflex" horiz-adv-x="1216" unicode="ô"/><glyph d="M729 1190q-121 0 -197 113q-33 53 -79 53q-45 0 -64.5 -42t-5.5 -108h-131q-20 121 36 200t158 79q121 0 197 -113q29 -53 82 -53q43 0 62.5 41t5.5 106h131q20 -119 -35.5 -197.5t-159.5 -78.5zM610.5 -14q-243.5 0 -401.5 166.5t-158 412.5t158 413t401.5 167t401 -167 t157.5 -413t-157.5 -412.5t-401 -166.5zM610.5 195q145.5 0 236.5 106.5t91 263.5q0 160 -91 266.5t-236.5 106.5t-236.5 -106.5t-91 -266.5q0 -158 91 -264t236.5 -106z" glyph-name="otilde" horiz-adv-x="1216" unicode="õ"/><glyph d="M407.5 1200q-55.5 0 -94.5 39t-39 94.5t39 95t94.5 39.5t95.5 -39.5t40 -95t-40 -94.5t-95.5 -39zM811 1200q-55 0 -95 39t-40 94.5t40 95t95 39.5q53 0 93 -39.5t40 -95t-40 -94.5t-93 -39zM610.5 -14q-243.5 0 -401.5 166.5t-158 412.5t158 413t401.5 167t401 -167 t157.5 -413t-157.5 -412.5t-401 -166.5zM610.5 195q145.5 0 236.5 106.5t91 263.5q0 160 -91 266.5t-236.5 106.5t-236.5 -106.5t-91 -266.5q0 -158 91 -264t236.5 -106z" glyph-name="odieresis" horiz-adv-x="1216" unicode="ö"/><glyph d="M725 791q-49 0 -85 35.5t-36 85t37 86t84 36.5q49 0 86 -36.5t37 -86t-37 -85t-86 -35.5zM170 645h1120v-176h-1120v176zM725 94q-49 0 -85 36t-36 85t37 86t84 37q49 0 86 -37t37 -86t-37 -85t-86 -36z" glyph-name="divide" horiz-adv-x="1447" unicode="÷"/><glyph d="M954 1028q195 -172 195 -459q0 -246 -154.5 -415.5t-394.5 -169.5q-156 0 -278 75l-82 -125h-109l115 179q-195 168 -195 456q0 250 154.5 418t394.5 168q154 0 279 -74l82 123h108zM279 569q0 -166 90 -268l391 596q-68 49 -160 49q-145 0 -233 -107.5t-88 -269.5z M600 195q143 0 231.5 107.5t88.5 266.5q0 162 -91 269l-391 -598q74 -45 162 -45z" glyph-name="oslash" horiz-adv-x="1196" unicode="ø"/><glyph d="M518 1212l-229 324h219l180 -324h-170zM1133 1126v-1126h-209l-17 162q-61 -80 -163.5 -127t-208.5 -47q-184 0 -301 119.5t-117 308.5v710h235v-684q0 -111 66.5 -178t179.5 -67q119 0 210 69.5t91 175.5v684h234z" glyph-name="ugrave" horiz-adv-x="1234" unicode="ù"/><glyph d="M702 1212h-170l179 324h221zM1133 1126v-1126h-209l-17 162q-61 -80 -163.5 -127t-208.5 -47q-184 0 -301 119.5t-117 308.5v710h235v-684q0 -111 66.5 -178t179.5 -67q119 0 210 69.5t91 175.5v684h234z" glyph-name="uacute" horiz-adv-x="1234" unicode="ú"/><glyph d="M459 1186h-170l211 350h227l211 -350h-170l-154 252zM1133 1126v-1126h-209l-17 162q-61 -80 -163.5 -127t-208.5 -47q-184 0 -301 119.5t-117 308.5v710h235v-684q0 -111 66.5 -178t179.5 -67q119 0 210 69.5t91 175.5v684h234z" glyph-name="ucircumflex" horiz-adv-x="1234" unicode="û"/><glyph d="M411.5 1200q-55.5 0 -94 39t-38.5 94.5t38.5 95t94 39.5t95.5 -39.5t40 -95t-40 -94.5t-95.5 -39zM815 1200q-55 0 -95 39t-40 94.5t40 95t95 39.5q53 0 93 -39.5t40 -95t-40 -94.5t-93 -39zM1133 1126v-1126h-209l-17 162q-61 -80 -163.5 -127t-208.5 -47 q-184 0 -301 119.5t-117 308.5v710h235v-684q0 -111 66.5 -178t179.5 -67q119 0 210 69.5t91 175.5v684h234z" glyph-name="udieresis" horiz-adv-x="1234" unicode="ü"/><glyph d="M682 1212h-170l178 324h221zM1174 1126l-670 -1667h-215l248 615h-56l-436 1052h234l346 -825l321 825h228z" glyph-name="yacute" horiz-adv-x="1234" unicode="ý"/><glyph d="M733 1044q215 0 364.5 -154.5t149.5 -377.5q0 -221 -149.5 -376.5t-364.5 -155.5q-236 0 -373 188v-680h-217v2048h217v-678q137 186 373 186zM702.5 172q141.5 0 240.5 99.5t99 240.5q0 143 -99 242.5t-240.5 99.5t-242 -99.5t-100.5 -242.5q0 -141 100.5 -240.5 t242 -99.5z" glyph-name="thorn" horiz-adv-x="1318" unicode="þ"/><glyph d="M399.5 1200q-55.5 0 -94.5 39t-39 94.5t39 95t94.5 39.5t95.5 -39.5t40 -95t-40 -94.5t-95.5 -39zM803 1200q-55 0 -95 39t-40 94.5t40 95t95 39.5q53 0 93 -39.5t40 -95t-40 -94.5t-93 -39zM1174 1126l-670 -1667h-215l248 615h-56l-436 1052h234l346 -825l321 825h228z " glyph-name="ydieresis" horiz-adv-x="1234" unicode="ÿ"/><glyph d="M1085 1733h-634v141h634v-141zM1128 356h-714l-138 -356h-241l616 1536h250l617 -1536h-244zM1065 553l-289 754l-293 -754h582z" glyph-name="Amacron" horiz-adv-x="1552" unicode="Ā"/><glyph d="M811 1221h-635v141h635v-141zM434 -12q-164 0 -268.5 90t-104.5 241.5t121 247t342 111.5l258 20v31q0 225 -237 225q-106 0 -175 -54t-79 -155h-201q14 168 129 281t332 113q209 0 326.5 -106.5t117.5 -307.5q0 -94 1 -239.5t1 -159.5q0 -152 86 -148v-178q-45 0 -69 2 q-174 18 -211 141q-47 -68 -149.5 -111.5t-219.5 -43.5zM479 168q106 0 193.5 57.5t109.5 136.5v173l-223 -21q-272 -23 -272 -186q0 -74 57 -117t135 -43z" glyph-name="amacron" horiz-adv-x="1136" unicode="ā"/><glyph d="M766 1665q-154 0 -250 88t-96 242h129q0 -82 61.5 -141.5t155.5 -59.5q98 0 160.5 59.5t62.5 141.5h127q0 -154 -96 -242t-254 -88zM1128 356h-714l-138 -356h-241l616 1536h250l617 -1536h-244zM1065 553l-289 754l-293 -754h582z" glyph-name="Abreve" horiz-adv-x="1552" unicode="Ă"/><glyph d="M502 1153q-156 0 -252 88t-96 242h129q0 -82 62.5 -141.5t156.5 -59.5q96 0 158.5 59.5t62.5 141.5h129q0 -154 -96 -242t-254 -88zM434 -12q-164 0 -268.5 90t-104.5 241.5t121 247t342 111.5l258 20v31q0 225 -237 225q-106 0 -175 -54t-79 -155h-201q14 168 129 281 t332 113q209 0 326.5 -106.5t117.5 -307.5q0 -94 1 -239.5t1 -159.5q0 -152 86 -148v-178q-45 0 -69 2q-174 18 -211 141q-47 -68 -149.5 -111.5t-219.5 -43.5zM479 168q106 0 193.5 57.5t109.5 136.5v173l-223 -21q-272 -23 -272 -186q0 -74 57 -117t135 -43z" glyph-name="abreve" horiz-adv-x="1136" unicode="ă"/><glyph d="M1550 -322l70 -98q-117 -119 -297 -112q-109 6 -175.5 63t-66.5 160q0 186 236 309h-43l-146 356h-714l-138 -356h-241l616 1536h250l617 -1536h-11q-125 -23 -201.5 -109t-76.5 -182q0 -57 34.5 -93t96.5 -36q116 0 190 98zM483 553h582l-289 754z" glyph-name="Aogonek" horiz-adv-x="1654" unicode="Ą"/><glyph d="M1163 -322l70 -100q-121 -121 -297 -110q-109 6 -175.5 63t-66.5 158q0 84 70 174t174 153q-106 29 -135 127q-47 -68 -149.5 -111.5t-219.5 -43.5q-164 0 -268.5 90t-104.5 241.5t121 247t342 111.5l258 20v31q0 225 -237 225q-106 0 -175 -54t-79 -155h-201 q14 168 129 281t332 113q209 0 326.5 -106.5t117.5 -307.5q0 -94 1 -239.5t1 -159.5q0 -152 86 -148v-170l33 -10q-117 -31 -195.5 -114t-78.5 -177q0 -57 34.5 -92t96.5 -35q118 0 190 98zM782 362v173l-223 -21q-272 -23 -272 -186q0 -74 57 -117t135 -43q106 0 193 57 t110 137z" glyph-name="aogonek" horiz-adv-x="1146" unicode="ą"/><glyph d="M942 2048h219l-229 -324h-170zM813 -20q-324 -2 -531.5 226t-207.5 562t206.5 561t532.5 227q293 0 476.5 -164.5t201.5 -383.5h-221q-23 127 -137.5 231t-319.5 104q-240 0 -384 -163.5t-144 -411.5q0 -246 144 -410.5t384 -164.5q190 0 313 101t144 218h221 q-20 -197 -212 -363.5t-466 -168.5z" glyph-name="Cacute" horiz-adv-x="1615" unicode="Ć"/><glyph d="M651 1536h219l-229 -324h-170zM584 -12q-238 0 -385.5 162.5t-147.5 416.5q0 252 146.5 411t386.5 159q238 0 369.5 -123t150.5 -289h-209q-14 92 -97 155.5t-196 63.5q-150 0 -235.5 -102.5t-85.5 -274.5t87 -276.5t236 -104.5q109 0 188.5 65.5t102.5 158.5h207 q-12 -78 -46 -149t-93.5 -134.5t-157.5 -101t-221 -37.5z" glyph-name="cacute" horiz-adv-x="1165" unicode="ć"/><glyph d="M813 1712q-55 0 -94 39t-39 94.5t39 95t94 39.5t95 -39.5t40 -95t-40 -94.5t-95 -39zM813 -20q-324 -2 -531.5 226t-207.5 562t206.5 561t532.5 227q293 0 476.5 -164.5t201.5 -383.5h-221q-23 127 -137.5 231t-319.5 104q-240 0 -384 -163.5t-144 -411.5 q0 -246 144 -410.5t384 -164.5q190 0 313 101t144 218h221q-20 -197 -212 -363.5t-466 -168.5z" glyph-name="Cdotaccent" horiz-adv-x="1615" unicode="Ċ"/><glyph d="M584 1200q-55 0 -95 39t-40 94.5t39.5 95t95.5 39.5q53 0 93 -39.5t40 -95t-40 -94.5t-93 -39zM584 -12q-238 0 -385.5 162.5t-147.5 416.5q0 252 146.5 411t386.5 159q238 0 369.5 -123t150.5 -289h-209q-14 92 -97 155.5t-196 63.5q-150 0 -235.5 -102.5t-85.5 -274.5 t87 -276.5t236 -104.5q109 0 188.5 65.5t102.5 158.5h207q-12 -78 -46 -149t-93.5 -134.5t-157.5 -101t-221 -37.5z" glyph-name="cdotaccent" horiz-adv-x="1165" unicode="ċ"/><glyph d="M489 2048h164l160 -246l162 246h164l-213 -350h-228zM813 -20q-324 -2 -531.5 226t-207.5 562t206.5 561t532.5 227q293 0 476.5 -164.5t201.5 -383.5h-221q-23 127 -137.5 231t-319.5 104q-240 0 -384 -163.5t-144 -411.5q0 -246 144 -410.5t384 -164.5q190 0 313 101 t144 218h221q-20 -197 -212 -363.5t-466 -168.5z" glyph-name="Ccaron" horiz-adv-x="1615" unicode="Č"/><glyph d="M248 1536h164l161 -246l160 246h164l-211 -350h-227zM584 -12q-238 0 -385.5 162.5t-147.5 416.5q0 252 146.5 411t386.5 159q238 0 369.5 -123t150.5 -289h-209q-14 92 -97 155.5t-196 63.5q-150 0 -235.5 -102.5t-85.5 -274.5t87 -276.5t236 -104.5q109 0 188.5 65.5 t102.5 158.5h207q-12 -78 -46 -149t-93.5 -134.5t-157.5 -101t-221 -37.5z" glyph-name="ccaron" horiz-adv-x="1165" unicode="č"/><glyph d="M268 2048h164l160 -246l162 246h164l-213 -350h-228zM133 1536h492q162 0 299 -47t243.5 -140.5t166 -245t59.5 -343.5q0 -354 -219.5 -557t-548.5 -203h-492v1536zM623 199q242 0 394 142t152 419q0 301 -149.5 441t-396.5 140h-267v-1142h267z" glyph-name="Dcaron" horiz-adv-x="1484" unicode="Ď"/><glyph d="M1384 1280q-39 14 -63.5 49t-24.5 78q0 55 39 94t95 39q53 0 91 -39t38 -94t-45.5 -138t-90.5 -139h-106zM1159 1536v-1534l-203 -2l-20 156q-129 -166 -363 -166q-229 0 -372.5 160.5t-143.5 406.5t144.5 413t373.5 167q217 0 353 -168v567h231zM614 184q113 0 198 72 t116 188v224q-31 117 -116 189.5t-198 72.5q-145 0 -235 -107.5t-90 -265.5t90 -265.5t235 -107.5z" glyph-name="dcaron" horiz-adv-x="1656" unicode="ď"/><glyph d="M768 1536q162 0 299 -47t243.5 -140.5t166 -245t59.5 -343.5q0 -354 -219 -557t-549 -203h-489v702h-146v134h146v700h489zM766 199q244 0 395.5 141t151.5 420q0 303 -149.5 442t-397.5 139h-266v-505h243v-134h-243v-503h266z" glyph-name="Dcroat" horiz-adv-x="1628" unicode="Đ"/><glyph d="M1210 1200h-141v-1200l-192 -2l-13 147q-127 -166 -334 -165q-209 0 -341 152.5t-132 379.5t132.5 379.5t340.5 152.5q199 0 326 -153v309h-281v133h281v203h213v-203h141v-133zM569 172q102 0 180 65.5t107 172.5v204q-29 106 -106.5 173t-180.5 67q-133 0 -216 -98.5 t-83 -243.5t83 -242.5t216 -97.5z" glyph-name="dcroat" horiz-adv-x="1308" unicode="đ"/><glyph d="M897 1733h-635v141h635v-141zM336 1341v-473h659v-198h-659v-471h745v-199h-970v1536h970v-195h-745z" glyph-name="Emacron" horiz-adv-x="1198" unicode="Ē"/><glyph d="M897 1227h-635v141h635v-141zM1098 567q0 -49 -4 -75h-815q8 -147 98 -232.5t209 -87.5q104 0 181 46t110 128h192q-23 -141 -144.5 -249.5t-336.5 -106.5q-240 0 -386.5 162.5t-146.5 410.5q0 252 142.5 412t390.5 160q236 0 373 -155t137 -413zM586 950 q-129 0 -206 -77.5t-97 -213.5h596q-16 135 -91 213t-202 78z" glyph-name="emacron" horiz-adv-x="1165" unicode="ē"/><glyph d="M580 1712q-55 0 -95.5 39t-40.5 94.5t40 95t96 39.5q53 0 93 -39.5t40 -95t-40 -94.5t-93 -39zM336 1341v-473h659v-198h-659v-471h745v-199h-970v1536h970v-195h-745z" glyph-name="Edotaccent" horiz-adv-x="1198" unicode="Ė"/><glyph d="M580 1206q-55 0 -95.5 40t-40.5 95.5t40 94.5t96 39q53 0 93 -39t40 -94.5t-40 -95.5t-93 -40zM1098 567q0 -49 -4 -75h-815q8 -147 98 -232.5t209 -87.5q104 0 181 46t110 128h192q-23 -141 -144.5 -249.5t-336.5 -106.5q-240 0 -386.5 162.5t-146.5 410.5 q0 252 142.5 412t390.5 160q236 0 373 -155t137 -413zM586 950q-129 0 -206 -77.5t-97 -213.5h596q-16 135 -91 213t-202 78z" glyph-name="edotaccent" horiz-adv-x="1165" unicode="ė"/><glyph d="M1055 -322l69 -98q-117 -119 -297 -112q-109 6 -175 63t-66 160q0 186 235 309h-710v1536h970v-195h-745v-473h659v-198h-659v-471h745v-199h-67q-115 -18 -198 -106.5t-83 -184.5q0 -57 35 -93t96 -36q117 0 191 98z" glyph-name="Eogonek" horiz-adv-x="1243" unicode="Ę"/><glyph d="M1098 567q0 -49 -4 -75h-815q8 -147 98 -232.5t209 -87.5q104 0 181 46t110 128h192q-18 -119 -111.5 -219t-252.5 -127l-7 -6q-57 -74 -57 -156q0 -57 34 -92t95 -35q119 0 191 99l71 -101q-123 -121 -297 -110q-109 4 -175 61t-66 160q0 90 55 164v8 q-223 14 -358.5 174t-135.5 397q0 252 142.5 412t390.5 160q236 0 373 -155t137 -413zM283 659h596q-16 135 -91 213t-202 78q-129 0 -206 -78t-97 -213z" glyph-name="eogonek" horiz-adv-x="1132" unicode="ę"/><glyph d="M463 1698l-209 350h164l160 -246l161 246h164l-213 -350h-227zM336 1341v-473h659v-198h-659v-471h745v-199h-970v1536h970v-195h-745z" glyph-name="Ecaron" horiz-adv-x="1198" unicode="Ě"/><glyph d="M463 1194l-209 350h164l160 -248l161 248h164l-213 -350h-227zM1098 567q0 -49 -4 -75h-815q8 -147 98 -232.5t209 -87.5q104 0 181 46t110 128h192q-23 -141 -144.5 -249.5t-336.5 -106.5q-240 0 -386.5 162.5t-146.5 410.5q0 252 142.5 412t390.5 160q236 0 373 -155 t137 -413zM586 950q-129 0 -206 -77.5t-97 -213.5h596q-16 135 -91 213t-202 78z" glyph-name="ecaron" horiz-adv-x="1165" unicode="ě"/><glyph d="M793 1665q-154 0 -250.5 88t-96.5 242h129q0 -82 61.5 -141.5t156.5 -59.5q98 0 160.5 59.5t62.5 141.5h127q0 -154 -96 -242t-254 -88zM1458 797v-215v-582h-151l-35 225q-84 -123 -202 -179t-298 -56q-328 0 -523.5 220t-195.5 552q0 350 196.5 568t512.5 218 q266 0 447.5 -132t213.5 -376h-213q-35 143 -154.5 223t-275.5 80q-242 0 -380 -157.5t-138 -423.5q0 -254 146.5 -410.5t359.5 -156.5q219 0 343 111.5t124 299.5h-404v191h627z" glyph-name="Gbreve" horiz-adv-x="1564" unicode="Ğ"/><glyph d="M610 1153q-156 0 -252 88t-96 242h129q0 -82 62.5 -141.5t156.5 -59.5q96 0 158.5 59.5t62.5 141.5h130q0 -154 -96.5 -242t-254.5 -88zM563 -502q-219 -4 -357 82t-151 225q-8 80 28 160t114 121q-47 23 -84 70t-37 104q0 117 145 199q-53 49 -86 128t-33 163 q0 162 126 275.5t321 113.5q162 0 272 -74q23 70 101.5 109.5t148.5 27.5v-158q-47 8 -89 -10t-58 -61q88 -117 88 -234q0 -180 -129 -292.5t-328 -116.5q-147 -2 -221 45q-35 -14 -51.5 -41t-8.5 -53q25 -78 170 -78l224 -4q174 -2 282.5 -70t124.5 -203 q23 -190 -116.5 -308t-395.5 -120zM793 741q0 92 -70 150.5t-174.5 58.5t-171 -59.5t-66.5 -151.5q0 -94 67.5 -153.5t170.5 -59.5q106 0 175 60.5t69 154.5zM864 -104q-14 127 -286 127h-201q-55 -14 -86 -60.5t-31 -101.5q0 -84 82 -131t205 -47q158 0 243.5 59.5 t73.5 153.5z" glyph-name="gbreve" horiz-adv-x="1138" unicode="ğ"/><glyph d="M876.5 1712q-55.5 0 -94.5 39t-39 94.5t39 95t94.5 39.5t95.5 -39.5t40 -95t-40 -94.5t-95.5 -39zM1458 797v-215v-582h-151l-35 225q-84 -123 -202 -179t-298 -56q-328 0 -523.5 220t-195.5 552q0 350 196.5 568t512.5 218q266 0 447.5 -132t213.5 -376h-213 q-35 143 -154.5 223t-275.5 80q-242 0 -380 -157.5t-138 -423.5q0 -254 146.5 -410.5t359.5 -156.5q219 0 343 111.5t124 299.5h-404v191h627z" glyph-name="Gdotaccent" horiz-adv-x="1564" unicode="Ġ"/><glyph d="M592 1200q-55 0 -95 39t-40 94.5t40 95t95 39.5q53 0 93 -39.5t40 -95t-40 -94.5t-93 -39zM563 -502q-219 -4 -357 82t-151 225q-8 80 28 160t114 121q-47 23 -84 70t-37 104q0 117 145 199q-53 49 -86 128t-33 163q0 162 126 275.5t321 113.5q162 0 272 -74 q23 70 101.5 109.5t148.5 27.5v-158q-47 8 -89 -10t-58 -61q88 -117 88 -234q0 -180 -129 -292.5t-328 -116.5q-147 -2 -221 45q-35 -14 -51.5 -41t-8.5 -53q25 -78 170 -78l224 -4q174 -2 282.5 -70t124.5 -203q23 -190 -116.5 -308t-395.5 -120zM793 741q0 92 -70 150.5 t-174.5 58.5t-171 -59.5t-66.5 -151.5q0 -94 67.5 -153.5t170.5 -59.5q106 0 175 60.5t69 154.5zM864 -104q-14 127 -286 127h-201q-55 -14 -86 -60.5t-31 -101.5q0 -84 82 -131t205 -47q158 0 243.5 59.5t73.5 153.5z" glyph-name="gdotaccent" horiz-adv-x="1138" unicode="ġ"/><glyph d="M1458 797v-215v-582h-151l-35 225q-84 -123 -202 -179t-298 -56q-328 0 -523.5 220t-195.5 552q0 350 196.5 568t512.5 218q266 0 447.5 -132t213.5 -376h-213q-35 143 -154.5 223t-275.5 80q-242 0 -380 -157.5t-138 -423.5q0 -254 146.5 -410.5t359.5 -156.5 q219 0 343 111.5t124 299.5h-404v191h627zM817 -350q-88 35 -88 127q0 55 38 94t95 39q53 0 91 -39t38 -94.5t-46 -139t-89 -135.5h-106z" glyph-name="Gcommaaccent" horiz-adv-x="1564" unicode="Ģ"/><glyph d="M643 1427q39 -14 63.5 -49t24.5 -78q0 -55 -39 -94t-94 -39q-53 0 -91 39t-38 94.5t45 138.5t90 138h107zM563 -502q-219 -4 -357 82t-151 225q-8 80 28 160t114 121q-47 23 -84 70t-37 104q0 117 145 199q-53 49 -86 128t-33 163q0 162 126 275.5t321 113.5 q162 0 272 -74q23 70 101.5 109.5t148.5 27.5v-158q-47 8 -89 -10t-58 -61q88 -117 88 -234q0 -180 -129 -292.5t-328 -116.5q-147 -2 -221 45q-35 -14 -51.5 -41t-8.5 -53q25 -78 170 -78l224 -4q174 -2 282.5 -70t124.5 -203q23 -190 -116.5 -308t-395.5 -120zM793 741 q0 92 -70 150.5t-174.5 58.5t-171 -59.5t-66.5 -151.5q0 -94 67.5 -153.5t170.5 -59.5q106 0 175 60.5t69 154.5zM864 -104q-14 127 -286 127h-201q-55 -14 -86 -60.5t-31 -101.5q0 -84 82 -131t205 -47q158 0 243.5 59.5t73.5 153.5z" glyph-name="gcommaaccent" horiz-adv-x="1138" unicode="ģ"/><glyph d="M1628 1157h-133v-1157h-223v670h-770v-670h-223v1157h-136v92h136v287h223v-287h770v287h223v-287h133v-92zM1272 1157h-770v-289h770v289z" glyph-name="Hbar" horiz-adv-x="1771" unicode="Ħ"/><glyph d="M825 1137q190 0 302 -109.5t112 -300.5v-727h-238v700q0 109 -63.5 169.5t-177.5 60.5q-121 0 -211 -67.5t-90 -174.5v-688h-238v1208h-96v135h96v193h238v-193h303v-135h-303v-231q61 74 160.5 117t205.5 43z" glyph-name="hbar" horiz-adv-x="1316" unicode="ħ"/><glyph d="M395 1702q-121 0 -196 113q-33 53 -80 53q-45 0 -64.5 -42t-5.5 -108h-135q-20 121 38 200t161 79q121 0 196 -113q29 -53 82 -53q43 0 62.5 41t5.5 106h131q20 -119 -35.5 -197.5t-159.5 -78.5zM143 1536h226v-1536h-226v1536z" glyph-name="Itilde" horiz-adv-x="512" unicode="Ĩ"/><glyph d="M393 1190q-121 0 -196 113q-33 53 -80 53q-45 0 -64.5 -42t-5.5 -108h-135q-20 121 38 200t161 79q121 0 196 -113q29 -53 82 -53q43 0 62.5 41t5.5 106h131q20 -119 -35.5 -197.5t-159.5 -78.5zM143 1024h217v-1024h-217v1024z" glyph-name="itilde" horiz-adv-x="503" unicode="ĩ"/><glyph d="M-66 1874h639v-141h-639v141zM143 1536h226v-1536h-226v1536z" glyph-name="Imacron" horiz-adv-x="512" unicode="Ī"/><glyph d="M-68 1362h637v-141h-637v141zM143 1024h217v-1024h-217v1024z" glyph-name="imacron" horiz-adv-x="503" unicode="ī"/><glyph d="M457 -420q-119 -119 -297 -112q-111 6 -178.5 63t-67.5 160q0 184 238 309h-9v1536h226v-1536h-25q-115 -18 -196.5 -106.5t-81.5 -184.5q0 -57 33.5 -93t95.5 -36q117 0 190 98z" glyph-name="Iogonek" horiz-adv-x="512" unicode="Į"/><glyph d="M252 1200q-55 0 -94 39t-39 94.5t39 95t94 39.5t95 -39.5t40 -95t-40 -94.5t-95 -39zM453 -420q-117 -119 -297 -112q-109 6 -176.5 63t-67.5 160q0 186 238 309h-7v1024h217v-1024h-18q-115 -18 -198 -106.5t-83 -184.5q0 -57 35 -93t97 -36q117 0 190 98z" glyph-name="iogonek" horiz-adv-x="503" unicode="į"/><glyph d="M256 1712q-55 0 -95 39t-40 94.5t40 95t95 39.5q53 0 93 -39.5t40 -95t-40 -94.5t-93 -39zM143 1536h226v-1536h-226v1536z" glyph-name="Idotaccent" horiz-adv-x="512" unicode="İ"/><glyph d="M143 1024h217v-1024h-217v1024z" glyph-name="dotlessi" horiz-adv-x="503" unicode="ı"/><glyph d="M223 1536h223v-1536h-223v1536zM946 -20q-94 0 -158 18v229q63 -23 148 -22q63 0 108.5 45t45.5 108v1178h223v-1194q0 -156 -104.5 -259t-262.5 -103z" glyph-name="IJ" horiz-adv-x="1523" unicode="Ĳ"/><glyph d="M1014 1270q-53 0 -93 40t-40 95q0 53 40 93t93 40t93 -40t40 -93q0 -55 -40 -95t-93 -40zM334 1210q-55 0 -95 39t-40 94.5t41 95.5t94 40q55 0 95 -40t40 -95.5t-40 -94.5t-95 -39zM694 -510v195h47q90 0 126 38.5t36 122.5v1280h217l2 -1300q0 -336 -381 -336h-47z M225 1024h217v-1024h-217v1024z" glyph-name="ij" horiz-adv-x="1327" unicode="ĳ"/><glyph d="M1032 0l-684 702v-702h-225v1536h225v-713l604 713h269l-643 -764l743 -772h-289zM612 -360q-88 35 -88 127q0 55 38 94t95 39q53 0 91 -39t38 -94.5t-46 -139.5t-89 -135h-106z" glyph-name="Kcommaaccent" horiz-adv-x="1323" unicode="Ķ"/><glyph d="M115 0v1536h237v-864l377 454h256l-453 -524l512 -602h-260l-432 510v-510h-237zM522 -358q-41 14 -65.5 49t-24.5 78q0 53 39 93t94.5 40t92 -39t36.5 -94.5t-44 -137.5t-89 -139h-106z" glyph-name="kcommaaccent" horiz-adv-x="1071" unicode="ķ"/><glyph d="M354 2048h219l-229 -324h-170zM143 1536h226v-1337h549v-199h-775v1536z" glyph-name="Lacute" horiz-adv-x="972" unicode="Ĺ"/><glyph d="M342 2048h219l-229 -324h-170zM164 0l2 1536h217v-1536h-219z" glyph-name="lacute" horiz-adv-x="686" unicode="ĺ"/><glyph d="M143 1536h226v-1337h549v-199h-775v1536zM485 -385q-41 14 -65.5 49t-24.5 78q0 53 39 93t94.5 40t92 -39t36.5 -94t-44 -137t-89 -140h-106z" glyph-name="Lcommaaccent" horiz-adv-x="972" unicode="Ļ"/><glyph d="M164 0l2 1536h217v-1536h-219zM238 -373q-41 14 -66 49t-25 78q0 53 39 93t94.5 40t92.5 -38.5t37 -94t-44 -137.5t-90 -139h-106z" glyph-name="lcommaaccent" horiz-adv-x="686" unicode="ļ"/><glyph d="M791 1278q-41 14 -66 49t-25 78q0 53 39 93t94.5 40t92.5 -39t37 -94q0 -102 -134 -277h-106zM143 1536h226v-1337h549v-199h-775v1536z" glyph-name="Lcaron" horiz-adv-x="999" unicode="Ľ"/><glyph d="M653 1288q-41 14 -65.5 49t-24.5 78q0 53 39 93t94.5 40t92 -39t36.5 -94t-44 -137t-89 -139h-106zM164 0l2 1536h217v-1536h-219z" glyph-name="lcaron" horiz-adv-x="888" unicode="ľ"/><glyph d="M164 0l2 1536h217v-1536h-219zM614 635q-43 0 -73.5 29.5t-30.5 72.5t31.5 74t72.5 31t73 -31t32 -74t-31 -72.5t-74 -29.5z" glyph-name="ldot" horiz-adv-x="778" unicode="ŀ"/><glyph d="M918 199v-199h-775v578l-96 -101h-143l239 254v805h226v-569l90 98h149l-239 -252v-614h549z" glyph-name="Lslash" horiz-adv-x="972" unicode="Ł"/><glyph d="M627 1055l-238 -250l-6 -6v-799h-219v569l-96 -102h-146l242 256l2 813h217v-584l6 6l88 97h150z" glyph-name="lslash" horiz-adv-x="686" unicode="ł"/><glyph d="M895 1724h-170l178 324h221zM1468 1536v-1536h-221l-878 1186v-1186h-226v1536h222l880 -1184v1184h223z" glyph-name="Nacute" horiz-adv-x="1611" unicode="Ń"/><glyph d="M700 1212h-170l179 324h221zM713 1141q188 0 298.5 -109.5t110.5 -302.5v-729h-235v702q0 109 -63.5 170.5t-176.5 61.5q-121 0 -209 -68.5t-88 -175.5v-690h-235v1126h207l18 -157q61 80 162.5 126t210.5 46z" glyph-name="nacute" horiz-adv-x="1216" unicode="ń"/><glyph d="M1468 1536v-1536h-221l-878 1186v-1186h-226v1536h222l880 -1184v1184h223zM784 -358q-90 35 -90 127q0 55 39 94t94.5 39t92 -39t36.5 -94q0 -53 -45 -137.5t-88 -137.5h-106z" glyph-name="Ncommaaccent" horiz-adv-x="1611" unicode="Ņ"/><glyph d="M713 1141q188 0 298.5 -109.5t110.5 -302.5v-729h-235v702q0 109 -63.5 170.5t-176.5 61.5q-121 0 -209 -68.5t-88 -175.5v-690h-235v1126h207l18 -157q61 80 162.5 126t210.5 46zM559 -381q-41 14 -65.5 49t-24.5 78q0 53 39 93t94 40t92 -39t37 -94q0 -102 -133 -276 h-106z" glyph-name="ncommaaccent" horiz-adv-x="1216" unicode="ņ"/><glyph d="M690 1698l-209 350h164l160 -246l162 246h163l-212 -350h-228zM1468 1536v-1536h-221l-878 1186v-1186h-226v1536h222l880 -1184v1184h223z" glyph-name="Ncaron" horiz-adv-x="1611" unicode="Ň"/><glyph d="M498 1186l-211 350h164l161 -246l160 246h164l-211 -350h-227zM713 1141q188 0 298.5 -109.5t110.5 -302.5v-729h-235v702q0 109 -63.5 170.5t-176.5 61.5q-121 0 -209 -68.5t-88 -175.5v-690h-235v1126h207l18 -157q61 80 162.5 126t210.5 46z" glyph-name="ncaron" horiz-adv-x="1216" unicode="ň"/><glyph d="M1487 1536v-1675q0 -152 -101.5 -224.5t-265.5 -70.5v147q70 -2 108 29t38 119v155l-879 1160v-1176h-215v1536h213l887 -1174v1174h215z" glyph-name="Eng" horiz-adv-x="1658" unicode="Ŋ"/><glyph d="M1122 729v-729h-45v-152q0 -152 -102.5 -224.5t-265.5 -69.5v145q70 -2 110.5 29.5t40.5 119.5v166l27 2v686q0 109 -63.5 170.5t-176.5 61.5q-121 0 -209 -68.5t-88 -175.5v-690h-235v1126h207l18 -157q61 80 162.5 126t210.5 46q188 0 298.5 -109.5t110.5 -302.5z" glyph-name="eng" horiz-adv-x="1255" unicode="ŋ"/><glyph d="M526 1874h635v-141h-635v141zM844 -20q-328 0 -539 228t-211 560t211 560t539 228q326 0 537.5 -228t211.5 -560t-211.5 -560t-537.5 -228zM843.5 197q239.5 0 386 162.5t146.5 408.5q0 248 -146.5 411.5t-386 163.5t-388 -163.5t-148.5 -411.5q0 -244 148.5 -407.5 t388 -163.5z" glyph-name="Omacron" horiz-adv-x="1685" unicode="Ō"/><glyph d="M272 1362h635v-141h-635v141zM588 -20q-223 0 -367.5 153.5t-144.5 378.5t144.5 378.5t367.5 153.5q225 0 369.5 -153.5t144.5 -378.5t-145.5 -378.5t-368.5 -153.5zM588 172q133 0 217 97.5t84 242.5t-83 243.5t-218 98.5q-133 0 -216 -98.5t-83 -243.5t83 -242.5 t216 -97.5z" glyph-name="omacron" horiz-adv-x="1175" unicode="ō"/><glyph d="M874 2048h207l-346 -358h-155zM1247 2048h207l-344 -358h-158zM844 -20q-328 0 -539 228t-211 560t211 560t539 228q326 0 537.5 -228t211.5 -560t-211.5 -560t-537.5 -228zM843.5 197q239.5 0 386 162.5t146.5 408.5q0 248 -146.5 411.5t-386 163.5t-388 -163.5 t-148.5 -411.5q0 -244 148.5 -407.5t388 -163.5z" glyph-name="Ohungarumlaut" horiz-adv-x="1685" unicode="Ő"/><glyph d="M621 1536h206l-346 -358h-157zM993 1536h207l-346 -358h-158zM588 -20q-223 0 -367.5 153.5t-144.5 378.5t144.5 378.5t367.5 153.5q225 0 369.5 -153.5t144.5 -378.5t-145.5 -378.5t-368.5 -153.5zM588 172q133 0 217 97.5t84 242.5t-83 243.5t-218 98.5 q-133 0 -216 -98.5t-83 -243.5t83 -242.5t216 -97.5z" glyph-name="ohungarumlaut" horiz-adv-x="1175" unicode="ő"/><glyph d="M2423 1341h-746v-473h660v-198h-660v-471h746v-199h-971v223q-225 -242 -559 -241q-328 0 -558.5 230t-230.5 558t230.5 558.5t558.5 230.5q334 0 559 -242v219h971v-195zM893 197q203 0 359.5 126t199.5 318v258q-43 193 -199.5 318.5t-359.5 125.5q-240 0 -407 -166.5 t-167 -406.5q0 -238 167 -405.5t407 -167.5z" glyph-name="OE" horiz-adv-x="2654" unicode="Œ"/><glyph d="M1946 567q0 -49 -4 -75h-816q8 -147 98.5 -232.5t209.5 -87.5q104 0 181 46t109 128h193q-23 -141 -144.5 -249.5t-336.5 -106.5q-270 0 -420 203q-156 -213 -424 -213q-240 0 -394.5 168.5t-154.5 416.5q0 250 154.5 418t394.5 168q131 0 240.5 -56.5t183.5 -154.5 q145 195 420 195q236 0 373 -155t137 -413zM1130 659h596q-16 135 -90.5 213t-201.5 78q-129 0 -206.5 -78t-97.5 -213zM592 190q125 0 209 83t106 214q-4 49 -4 76t4 80q-23 133 -106.5 216t-208.5 83q-143 0 -232.5 -108.5t-89.5 -268.5q0 -158 89.5 -266.5t232.5 -108.5z " glyph-name="oe" horiz-adv-x="1988" unicode="œ"/><glyph d="M719 1724h-170l178 324h221zM1262 0h-250l-379 614h-305v-614h-226v1536h658q180 0 309 -142.5t129 -328.5q0 -156 -97 -283t-243 -153zM752 793q100 0 170.5 79.5t70.5 194.5q0 113 -70.5 193.5t-170.5 80.5h-424v-548h424z" glyph-name="Racute" horiz-adv-x="1220" unicode="Ŕ"/><glyph d="M510 1212h-170l180 324h219zM764 1139l-2 -205q-193 8 -302.5 -81t-109.5 -284v-569h-235v1126h215l20 -188q37 88 136.5 146.5t277.5 54.5z" glyph-name="racute" horiz-adv-x="841" unicode="ŕ"/><glyph d="M1262 0h-250l-379 614h-305v-614h-226v1536h658q180 0 309 -142.5t129 -328.5q0 -156 -97 -283t-243 -153zM752 793q100 0 170.5 79.5t70.5 194.5q0 113 -70.5 193.5t-170.5 80.5h-424v-548h424zM598 -358q-90 35 -90 127q0 55 39 94t94 39t92 -39t37 -94 q0 -53 -45 -137.5t-88 -137.5h-107z" glyph-name="Rcommaaccent" horiz-adv-x="1220" unicode="Ŗ"/><glyph d="M764 1139l-2 -205q-193 8 -302.5 -81t-109.5 -284v-569h-235v1126h215l20 -188q37 88 136.5 146.5t277.5 54.5zM201 -373q-41 14 -65.5 49t-24.5 78q0 53 38.5 93t94 40t92.5 -38.5t37 -94t-44 -137.5t-89 -139h-107z" glyph-name="rcommaaccent" horiz-adv-x="841" unicode="ŗ"/><glyph d="M516 1698l-211 350h164l162 -246l160 246h163l-211 -350h-227zM1262 0h-250l-379 614h-305v-614h-226v1536h658q180 0 309 -142.5t129 -328.5q0 -156 -97 -283t-243 -153zM752 793q100 0 170.5 79.5t70.5 194.5q0 113 -70.5 193.5t-170.5 80.5h-424v-548h424z" glyph-name="Rcaron" horiz-adv-x="1220" unicode="Ř"/><glyph d="M317 1186l-208 350h163l160 -246l162 246h164l-213 -350h-228zM764 1139l-2 -205q-193 8 -302.5 -81t-109.5 -284v-569h-235v1126h215l20 -188q37 88 136.5 146.5t277.5 54.5z" glyph-name="rcaron" horiz-adv-x="841" unicode="ř"/><glyph d="M803 2048h221l-229 -326h-170zM634.5 -20q-237.5 0 -390 135t-170.5 342l207 -2q20 -111 109 -188t251 -77q145 0 234.5 59.5t91.5 174.5q0 49 -22.5 91t-49.5 67.5t-88.5 56.5t-93 43t-111.5 39q-18 6 -29 10q-106 39 -166.5 65.5t-136 77t-111.5 118t-36 155.5 q0 188 153.5 298.5t366.5 110.5q473 0 551 -446h-207q-14 106 -101 182t-239 76q-119 0 -207 -55.5t-88 -153.5q0 -61 53.5 -113.5t99.5 -74t161 -66.5q18 -8 28 -12q227 -88 305 -135q195 -123 195 -328q0 -215 -161 -332.5t-398.5 -117.5z" glyph-name="Sacute" horiz-adv-x="1300" unicode="Ś"/><glyph d="M598 1536h219l-229 -324h-170zM528 -16q-213 0 -333.5 110.5t-133.5 249.5h201q16 -78 92 -133t170 -53t148.5 47t54.5 117q0 74 -67.5 112.5t-200.5 67.5q-76 16 -132.5 35.5t-113.5 53.5t-88 89t-31 129q0 152 121 243t303 91q172 0 290 -86t134 -246h-199 q-14 76 -76.5 113t-131.5 41q-86 4 -143.5 -30t-57.5 -99q0 -31 16.5 -55.5t33.5 -39t61 -30t68 -21.5t83 -20q74 -16 129 -38t113.5 -58.5t90.5 -97t32 -140.5q0 -156 -120 -254t-313 -98z" glyph-name="sacute" horiz-adv-x="989" unicode="ś"/><glyph d="M694 893q227 -88 305 -135q195 -123 195 -328q0 -203 -144.5 -319.5t-363.5 -128.5l-57 -115q104 20 178 -34t74 -150q0 -90 -62.5 -152.5t-152.5 -62.5q-70 0 -138.5 39.5t-97.5 97.5l96 39q20 -31 61.5 -51.5t78.5 -20.5q45 0 76.5 31.5t31.5 79.5q0 66 -56 90t-138 -9 l-84 54l84 164q-215 16 -352.5 148t-153.5 327l207 -2q20 -111 109 -188t251 -77q145 0 234.5 59.5t91.5 174.5q0 49 -22.5 91t-49.5 67.5t-88.5 56.5t-93 43t-111.5 39q-18 6 -29 10q-106 39 -166.5 65.5t-136 77t-111.5 118t-36 155.5q0 188 153.5 298.5t366.5 110.5 q473 0 551 -446h-207q-14 106 -101 182t-239 76q-119 0 -207 -55.5t-88 -153.5q0 -61 53.5 -113.5t99.5 -74t161 -66.5q18 -8 28 -12z" glyph-name="Scedilla" horiz-adv-x="1300" unicode="Ş"/><glyph d="M528 -16q-213 0 -333.5 110.5t-133.5 249.5h201q16 -78 92 -133t170 -53t148.5 47t54.5 117q0 74 -67.5 112.5t-200.5 67.5q-76 16 -132.5 35.5t-113.5 53.5t-88 89t-31 129q0 152 121 243t303 91q172 0 290 -86t134 -246h-199q-14 76 -76.5 113t-131.5 41 q-86 4 -143.5 -30t-57.5 -99q0 -31 16.5 -55.5t33.5 -39t61 -30t68 -21.5t83 -20q74 -16 129 -38t113.5 -58.5t90.5 -97t32 -140.5q0 -156 -120 -254t-313 -98zM561 -18l-59 -115q106 20 179 -35t73 -151q0 -90 -61.5 -151.5t-151.5 -61.5q-72 0 -141.5 38.5t-96.5 96.5 l98 39q20 -29 60.5 -50.5t79.5 -21.5q45 0 75.5 31.5t30.5 79.5q0 68 -55 92t-137 -9l-86 54l84 164h108z" glyph-name="scedilla" horiz-adv-x="989" unicode="ş"/><glyph d="M381 2048h164l160 -248l161 248h164l-213 -350h-227zM634.5 -20q-237.5 0 -390 135t-170.5 342l207 -2q20 -111 109 -188t251 -77q145 0 234.5 59.5t91.5 174.5q0 49 -22.5 91t-49.5 67.5t-88.5 56.5t-93 43t-111.5 39q-18 6 -29 10q-106 39 -166.5 65.5t-136 77 t-111.5 118t-36 155.5q0 188 153.5 298.5t366.5 110.5q473 0 551 -446h-207q-14 106 -101 182t-239 76q-119 0 -207 -55.5t-88 -153.5q0 -61 53.5 -113.5t99.5 -74t161 -66.5q18 -8 28 -12q227 -88 305 -135q195 -123 195 -328q0 -215 -161 -332.5t-398.5 -117.5z" glyph-name="Scaron" horiz-adv-x="1300" unicode="Š"/><glyph d="M176 1536h164l160 -246l162 246h163l-213 -350h-227zM528 -16q-213 0 -333.5 110.5t-133.5 249.5h201q16 -78 92 -133t170 -53t148.5 47t54.5 117q0 74 -67.5 112.5t-200.5 67.5q-76 16 -132.5 35.5t-113.5 53.5t-88 89t-31 129q0 152 121 243t303 91q172 0 290 -86 t134 -246h-199q-14 76 -76.5 113t-131.5 41q-86 4 -143.5 -30t-57.5 -99q0 -31 16.5 -55.5t33.5 -39t61 -30t68 -21.5t83 -20q74 -16 129 -38t113.5 -58.5t90.5 -97t32 -140.5q0 -156 -120 -254t-313 -98z" glyph-name="scaron" horiz-adv-x="989" unicode="š"/><glyph d="M1155 1341h-453v-1339h-221v1339h-452v197h1126v-197zM655 -532q-72 0 -140.5 38.5t-94.5 96.5l96 39q23 -29 62.5 -50.5t76.5 -21.5q45 0 77 31.5t32 79.5q0 68 -56.5 92t-138.5 -9l-84 54l95 182h106l-68 -133q104 20 178 -35t74 -151q0 -90 -62.5 -151.5t-152.5 -61.5 z" glyph-name="Tcommaaccent" horiz-adv-x="1171" unicode="Ţ"/><glyph d="M608 -2q-184 0 -282.5 67.5t-98.5 266.5l2 614h-182v184h182v406h222v-406h278v-186l-283 2v-594q0 -84 36 -123t126 -39h131v-192h-131zM465 -133q104 20 178 -35t74 -151q0 -90 -62.5 -151.5t-152.5 -61.5q-72 0 -140.5 38.5t-95.5 96.5l96 39q23 -29 63 -50.5 t77 -21.5q45 0 76.5 31.5t31.5 79.5q0 68 -56 92t-138 -9l-84 54l90 176l100 -10z" glyph-name="tcommaaccent" horiz-adv-x="727" unicode="ţ"/><glyph d="M524 1698l-209 350h164l160 -246l162 246h164l-213 -350h-228zM1155 1341h-453v-1339h-221v1339h-452v197h1126v-197z" glyph-name="Tcaron" horiz-adv-x="1159" unicode="Ť"/><glyph d="M637 1327q-88 35 -88 127q0 55 38 94t95 39q53 0 91 -39t38 -94t-46 -139t-89 -135h-107zM608 -2q-184 0 -282.5 67.5t-98.5 266.5l2 614h-182v184h182v406h222v-406h278v-186l-283 2v-594q0 -84 36 -123t126 -39h131v-192h-131z" glyph-name="tcaron" horiz-adv-x="800" unicode="ť"/><glyph d="M1155 1341h-453v-505h152l96 -50l-178 -84h-70v-700h-221v717l-168 33l111 84h57v505h-452v197h1126v-197z" glyph-name="Tbar" horiz-adv-x="1120" unicode="Ŧ"/><glyph d="M608 190h131v-192h-131q-184 0 -282.5 67.5t-98.5 266.5v112h-176v136h176l2 366h-182v184h182v406h222v-406h278v-186l-283 2v-366h240v-136h-240v-92q0 -84 36 -123t126 -39z" glyph-name="tbar" horiz-adv-x="727" unicode="ŧ"/><glyph d="M887 1702q-119 0 -195 113q-33 53 -82 53q-43 0 -62.5 -42t-4.5 -108h-133q-20 121 37 200t157 79q125 0 197 -113q33 -53 82 -53q45 0 64.5 41t4.5 106h131q20 -119 -36 -197.5t-160 -78.5zM707 -20q-250 0 -425.5 152.5t-175.5 369.5v1034h224v-997 q0 -150 109.5 -255.5t267 -105.5t271.5 105.5t114 255.5v997h223v-1034q0 -217 -178 -369.5t-430 -152.5z" glyph-name="Utilde" horiz-adv-x="1492" unicode="Ũ"/><glyph d="M430 1874h635v-141h-635v141zM707 -20q-250 0 -425.5 152.5t-175.5 369.5v1034h224v-997q0 -150 109.5 -255.5t267 -105.5t271.5 105.5t114 255.5v997h223v-1034q0 -217 -178 -369.5t-430 -152.5z" glyph-name="Umacron" horiz-adv-x="1492" unicode="Ū"/><glyph d="M932 1221h-635v141h635v-141zM1133 1126v-1126h-209l-17 162q-61 -80 -163.5 -127t-208.5 -47q-184 0 -301 119.5t-117 308.5v710h235v-684q0 -111 66.5 -178t179.5 -67q119 0 210 69.5t91 175.5v684h234z" glyph-name="umacron" horiz-adv-x="1222" unicode="ū"/><glyph d="M747.5 1653q-90.5 0 -155 64.5t-64.5 154.5t64.5 153.5t155.5 63.5q88 0 152.5 -63.5t64.5 -153.5t-63.5 -154.5t-154 -64.5zM747.5 1749q51.5 0 87 35t35.5 88q0 51 -35.5 88t-87 37t-86 -37t-34.5 -88q0 -53 34.5 -88t86 -35zM707 -20q-250 0 -425.5 152.5 t-175.5 369.5v1034h224v-997q0 -150 109.5 -255.5t267 -105.5t271.5 105.5t114 255.5v997h223v-1034q0 -217 -178 -369.5t-430 -152.5z" glyph-name="Uring" horiz-adv-x="1492" unicode="Ů"/><glyph d="M614 1141q-92 0 -156.5 64.5t-64.5 154.5t64.5 153.5t156.5 63.5q88 0 151.5 -63.5t63.5 -153.5t-63.5 -154.5t-151.5 -64.5zM614.5 1485q-51.5 0 -87 -37t-35.5 -88q0 -53 34.5 -88t87.5 -35q51 0 86 35t35 88q0 51 -34.5 88t-86 37zM1133 1126v-1126h-209l-17 162 q-61 -80 -163.5 -127t-208.5 -47q-184 0 -301 119.5t-117 308.5v710h235v-684q0 -111 66.5 -178t179.5 -67q119 0 210 69.5t91 175.5v684h234z" glyph-name="uring" horiz-adv-x="1222" unicode="ů"/><glyph d="M778 2048h207l-346 -358h-156zM1151 2048h207l-344 -358h-158zM707 -20q-250 0 -425.5 152.5t-175.5 369.5v1034h224v-997q0 -150 109.5 -255.5t267 -105.5t271.5 105.5t114 255.5v997h223v-1034q0 -217 -178 -369.5t-430 -152.5z" glyph-name="Uhungarumlaut" horiz-adv-x="1492" unicode="Ű"/><glyph d="M506 1178h-158l297 358h207zM721 1178l297 358h207l-346 -358h-158zM1133 1126v-1126h-209l-17 162q-61 -80 -163.5 -127t-208.5 -47q-184 0 -301 119.5t-117 308.5v710h235v-684q0 -111 66.5 -178t179.5 -67q119 0 210 69.5t91 175.5v684h234z" glyph-name="uhungarumlaut" horiz-adv-x="1222" unicode="ű"/><glyph d="M1092 1536h223v-1034q0 -186 -136.5 -329.5t-342.5 -180.5h16q-86 -39 -144.5 -117t-58.5 -158q0 -57 35 -92t96 -35q119 0 191 99l69 -101q-121 -121 -297 -110q-109 4 -175 62.5t-66 158.5q0 164 184 281q-244 8 -412 158.5t-168 363.5v1034h224v-997 q0 -150 109.5 -255.5t267 -105.5t271.5 105.5t114 255.5v997z" glyph-name="Uogonek" horiz-adv-x="1492" unicode="Ų"/><glyph d="M1120 -322l72 -98q-119 -119 -297 -112q-111 6 -176.5 63t-65.5 160q0 188 230 309h41l-17 162q-61 -80 -163.5 -127t-208.5 -47q-184 0 -301 119.5t-117 308.5v710h235v-684q0 -111 66.5 -178t179.5 -67q119 0 210 69.5t91 175.5v684h234v-1126h-54 q-115 -18 -196.5 -106.5t-81.5 -184.5q0 -57 33.5 -93t95.5 -36q116 0 190 98z" glyph-name="uogonek" horiz-adv-x="1222" unicode="ų"/><glyph d="M981 1698h-170l211 350h227l211 -350h-170l-153 252zM2169 1536l-455 -1536h-254l-354 1145l-336 -1145h-252l-477 1536h242l362 -1284l352 1284h226l362 -1286l342 1286h242z" glyph-name="Wcircumflex" horiz-adv-x="2269" unicode="Ŵ"/><glyph d="M625 1186h-170l209 350h227l213 -350h-172l-154 252zM1669 1122l-348 -1122h-264l-195 713l-192 -713h-264l-351 1122h264l228 -846l217 846h213l215 -848l215 848h262z" glyph-name="wcircumflex" horiz-adv-x="1523" unicode="ŵ"/><glyph d="M520 1698h-170l211 350h227l211 -350h-170l-153 252zM786 729v-729h-223v723l-538 813h249l400 -618l401 618h246z" glyph-name="Ycircumflex" horiz-adv-x="1345" unicode="Ŷ"/><glyph d="M428 1186h-170l211 350h227l211 -350h-170l-153 252zM1174 1126l-670 -1667h-215l248 615h-56l-436 1052h234l346 -825l321 825h228z" glyph-name="ycircumflex" horiz-adv-x="1224" unicode="ŷ"/><glyph d="M475 1712q-55 0 -95 39t-40 94.5t40 95t95 39.5q53 0 93 -39.5t40 -95t-40 -94.5t-93 -39zM877 1712q-53 0 -93.5 39t-40.5 94.5t40 95t94 39.5q55 0 94 -39.5t39 -95t-39 -94.5t-94 -39zM786 729v-729h-223v723l-538 813h249l400 -618l401 618h246z" glyph-name="Ydieresis" horiz-adv-x="1345" unicode="Ÿ"/><glyph d="M770 1724h-170l178 324h221zM1247 199v-199h-1165v119l844 1222h-824v195h1127v-117l-846 -1220h864z" glyph-name="Zacute" horiz-adv-x="1331" unicode="Ź"/><glyph d="M647 1536h219l-229 -324h-170zM88 156l596 690h-588v178h869v-150l-598 -694h610v-180h-889v156z" glyph-name="zacute" horiz-adv-x="1062" unicode="ź"/><glyph d="M682 1712q-55 0 -95 39t-40 94.5t40 95t95 39.5q53 0 93 -39.5t40 -95t-40 -94.5t-93 -39zM1247 199v-199h-1165v119l844 1222h-824v195h1127v-117l-846 -1220h864z" glyph-name="Zdotaccent" horiz-adv-x="1331" unicode="Ż"/><glyph d="M549 1200q-55 0 -94 39t-39 94.5t39 95t94 39.5t95 -39.5t40 -95t-40 -94.5t-95 -39zM88 156l596 690h-588v178h869v-150l-598 -694h610v-180h-889v156z" glyph-name="zdotaccent" horiz-adv-x="1062" unicode="ż"/><glyph d="M565 1698l-209 350h164l160 -246l162 246h164l-213 -350h-228zM1247 199v-199h-1165v119l844 1222h-824v195h1127v-117l-846 -1220h864z" glyph-name="Zcaron" horiz-adv-x="1331" unicode="Ž"/><glyph d="M225 1536h164l160 -246l162 246h163l-212 -350h-228zM88 156l596 690h-588v178h869v-150l-598 -694h610v-180h-889v156z" glyph-name="zcaron" horiz-adv-x="1062" unicode="ž"/><glyph d="M756 1401q-76 0 -131.5 -52.5t-69.5 -136.5l-31 -188h285l-27 -164h-282l-219 -1372h-195l217 1372h-170l25 164h172l35 219q20 133 128.5 223t243.5 90q94 0 142 -34l-19 -156q-38 35 -104 35z" glyph-name="florin" horiz-adv-x="919" unicode="ƒ"/><glyph d="M653 1698l-211 350h164l162 -246l160 246h164l-211 -350h-228zM1128 356h-714l-138 -356h-241l616 1536h250l617 -1536h-244zM1065 553l-289 754l-293 -754h582z" glyph-name="uni01CD" horiz-adv-x="1533" unicode="Ǎ"/><glyph d="M410 1186l-211 350h163l162 -246l160 246h164l-211 -350h-227zM434 -12q-164 0 -268.5 90t-104.5 241.5t121 247t342 111.5l258 20v31q0 225 -237 225q-106 0 -175 -54t-79 -155h-201q14 168 129 281t332 113q209 0 326.5 -106.5t117.5 -307.5q0 -94 1 -239.5t1 -159.5 q0 -152 86 -148v-178q-45 0 -69 2q-174 18 -211 141q-47 -68 -149.5 -111.5t-219.5 -43.5zM479 168q106 0 193.5 57.5t109.5 136.5v173l-223 -21q-272 -23 -272 -186q0 -74 57 -117t135 -43z" glyph-name="uni01CE" horiz-adv-x="1122" unicode="ǎ"/><glyph d="M-74 2048h168l160 -246l162 246h164l-213 -350h-228zM143 1536h226v-1536h-226v1536z" glyph-name="uni01CF" horiz-adv-x="512" unicode="Ǐ"/><glyph d="M-76 1536h168l160 -246l162 246h164l-213 -350h-228zM143 1024h217v-1024h-217v1024z" glyph-name="uni01D0" horiz-adv-x="503" unicode="ǐ"/><glyph d="M520 2048h164l160 -246l162 246h163l-213 -350h-227zM844 -20q-328 0 -539 228t-211 560t211 560t539 228q326 0 537.5 -228t211.5 -560t-211.5 -560t-537.5 -228zM843.5 197q239.5 0 386 162.5t146.5 408.5q0 248 -146.5 411.5t-386 163.5t-388 -163.5t-148.5 -411.5 q0 -244 148.5 -407.5t388 -163.5z" glyph-name="uni01D1" horiz-adv-x="1685" unicode="Ǒ"/><glyph d="M264 1536h164l162 -246l160 246h163l-211 -350h-227zM588 -20q-223 0 -367.5 153.5t-144.5 378.5t144.5 378.5t367.5 153.5q225 0 369.5 -153.5t144.5 -378.5t-145.5 -378.5t-368.5 -153.5zM588 172q133 0 217 97.5t84 242.5t-83 243.5t-218 98.5q-133 0 -216 -98.5 t-83 -243.5t83 -242.5t216 -97.5z" glyph-name="uni01D2" horiz-adv-x="1175" unicode="ǒ"/><glyph d="M424 2048h164l160 -246l161 246h164l-213 -350h-227zM747.5 -20q-249.5 0 -423.5 151.5t-174 370.5v1034h223v-997q0 -152 109.5 -256.5t265 -104.5t265 104.5t109.5 256.5v997h224v-1034q0 -219 -174.5 -370.5t-424 -151.5z" glyph-name="uni01D3" horiz-adv-x="1492" unicode="Ǔ"/><glyph d="M500 1186l-211 350h164l161 -246l160 246h164l-211 -350h-227zM1133 1126v-1126h-209l-17 162q-61 -80 -163.5 -127t-208.5 -47q-184 0 -301 119.5t-117 308.5v710h235v-684q0 -111 66.5 -178t179.5 -67q119 0 210 69.5t91 175.5v684h234z" glyph-name="uni01D4" horiz-adv-x="1222" unicode="ǔ"/><glyph d="M741 1698l-209 350h164l160 -246l162 246h164l-213 -350h-228zM1458 797v-215v-582h-151l-35 225q-84 -123 -202 -179t-298 -56q-328 0 -523.5 220t-195.5 552q0 350 196.5 568t512.5 218q266 0 447.5 -132t213.5 -376h-213q-35 143 -154.5 223t-275.5 80 q-242 0 -380 -157.5t-138 -423.5q0 -254 146.5 -410.5t359.5 -156.5q219 0 343 111.5t124 299.5h-404v191h627z" glyph-name="Gcaron" horiz-adv-x="1509" unicode="Ǧ"/><glyph d="M477 1186l-211 350h164l162 -246l160 246h163l-210 -350h-228zM563 -502q-219 -4 -357 82t-151 225q-8 80 28 160t114 121q-47 23 -84 70t-37 104q0 117 145 199q-53 49 -86 128t-33 163q0 162 126 275.5t321 113.5q162 0 272 -74q23 70 101.5 109.5t148.5 27.5v-158 q-47 8 -89 -10t-58 -61q88 -117 88 -234q0 -180 -129 -292.5t-328 -116.5q-147 -2 -221 45q-35 -14 -51.5 -41t-8.5 -53q25 -78 170 -78l224 -4q174 -2 282.5 -70t124.5 -203q23 -190 -116.5 -308t-395.5 -120zM793 741q0 92 -70 150.5t-174.5 58.5t-171 -59.5t-66.5 -151.5 q0 -94 67.5 -153.5t170.5 -59.5q106 0 175 60.5t69 154.5zM864 -104q-14 127 -286 127h-201q-55 -14 -86 -60.5t-31 -101.5q0 -84 82 -131t205 -47q158 0 243.5 59.5t73.5 153.5z" glyph-name="gcaron" horiz-adv-x="1230" unicode="ǧ"/><glyph d="M932 1724h-170l180 324h219zM1327 1380q125 -111 195.5 -269.5t70.5 -342.5q0 -332 -212 -560t-537 -228q-213 0 -385 104l-84 -127h-146l131 199q-127 109 -196.5 268.5t-69.5 343.5q0 332 211 560t539 228q213 0 387 -106l84 127h143zM307 768q0 -270 174 -434l631 938 q-123 72 -268 71q-240 0 -388.5 -163.5t-148.5 -411.5zM844 197q240 0 386 162.5t146 408.5q0 270 -168 432l-630 -938q114 -65 266 -65z" glyph-name="Oslashacute" horiz-adv-x="1685" unicode="Ǿ"/><glyph d="M678 1212h-170l178 324h221zM920 928q182 -156 182 -416q0 -225 -145.5 -378.5t-368.5 -153.5q-141 0 -260 67l-76 -113h-102l108 162q-182 156 -182 416q0 225 144.5 378.5t367.5 153.5q143 0 260 -67l78 113h100zM289 512q0 -150 84 -244l366 543q-63 43 -151 43 q-133 0 -216 -98.5t-83 -243.5zM588 172q133 0 217 97.5t84 242.5t-86 244l-365 -543q66 -41 150 -41z" glyph-name="oslashacute" horiz-adv-x="1175" unicode="ǿ"/><glyph d="M634.5 -20q-237.5 0 -390 135t-170.5 342l207 -2q20 -111 109 -188t251 -77q145 0 234.5 59.5t91.5 174.5q0 49 -22.5 91t-49.5 67.5t-88.5 56.5t-93 43t-111.5 39q-18 6 -29 10q-106 39 -166.5 65.5t-136 77t-111.5 118t-36 155.5q0 188 153.5 298.5t366.5 110.5 q473 0 551 -446h-207q-14 106 -101 182t-239 76q-119 0 -207 -55.5t-88 -153.5q0 -61 53.5 -113.5t99.5 -74t161 -66.5q18 -8 28 -12q227 -88 305 -135q195 -123 195 -328q0 -215 -161 -332.5t-398.5 -117.5zM625 -412q-39 14 -63.5 49t-24.5 78q0 55 38.5 94t94.5 39 q53 0 91 -38.5t38 -94t-45 -138.5t-90 -138h-107z" glyph-name="Scommaaccent" horiz-adv-x="1300" unicode="Ș"/><glyph d="M528 -16q-213 0 -333.5 110.5t-133.5 249.5h201q16 -78 92 -133t170 -53t148.5 47t54.5 117q0 74 -67.5 112.5t-200.5 67.5q-76 16 -132.5 35.5t-113.5 53.5t-88 89t-31 129q0 152 121 243t303 91q172 0 290 -86t134 -246h-199q-14 76 -76.5 113t-131.5 41 q-86 4 -143.5 -30t-57.5 -99q0 -31 16.5 -55.5t33.5 -39t61 -30t68 -21.5t83 -20q74 -16 129 -38t113.5 -58.5t90.5 -97t32 -140.5q0 -156 -120 -254t-313 -98zM469 -408q-39 14 -63.5 49t-24.5 78q0 55 39 94.5t94 39.5q53 0 91 -39t38 -94.5t-45 -138.5t-90 -138h-107z " glyph-name="scommaaccent" horiz-adv-x="989" unicode="ș"/><glyph d="M1155 1341h-453v-1339h-221v1339h-452v197h1126v-197zM584 -399q-90 35 -90 127q0 55 38.5 94t94 39t92.5 -39t37 -94q0 -53 -45 -137.5t-88 -137.5h-107z" glyph-name="uni021A" horiz-adv-x="1120" unicode="Ț"/><glyph d="M608 -2q-184 0 -282.5 67.5t-98.5 266.5l2 614h-182v184h182v406h222v-406h278v-186l-283 2v-594q0 -84 36 -123t126 -39h131v-192h-131zM389 -399q-41 14 -65.5 49t-24.5 78q0 53 39 93t94 40t92 -39t37 -94.5t-44 -137.5t-89 -139h-106z" glyph-name="uni021B" horiz-adv-x="727" unicode="ț"/><glyph d="M1081 1341h-745v-473h659v-198h-659v-471h745v-199h-450l-68 -133q106 20 179 -35t73 -151q0 -90 -61.5 -151.5t-151.5 -61.5q-72 0 -141.5 38.5t-95.5 96.5l98 39q20 -29 60 -50.5t79 -21.5q45 0 76 31.5t31 79.5q0 68 -55.5 92t-137.5 -9l-86 54l94 182h-413v1536h970 v-195z" glyph-name="uni0228" horiz-adv-x="1107" unicode="Ȩ"/><glyph d="M1098 567q0 -49 -4 -75h-815q8 -147 98 -232.5t209 -87.5q104 0 181 46t110 128h192q-20 -133 -132 -238.5t-306 -115.5q0 -6 -2 -10l-60 -117q106 20 179 -34t73 -150q0 -90 -61.5 -153t-151.5 -63q-72 0 -140.5 40t-96.5 98l98 39q20 -31 60 -51.5t79 -20.5 q45 0 76 31.5t31 79.5q0 68 -55.5 91t-137.5 -10l-86 54l86 166l-6 12q-211 27 -336 184.5t-125 384.5q0 252 142.5 412t390.5 160q236 0 373 -155t137 -413zM283 659h596q-16 135 -91 213t-202 78q-129 0 -206 -78t-97 -213z" glyph-name="uni0229" horiz-adv-x="1124" unicode="ȩ"/><glyph d="M82 -532q-92 0 -139 32v185q49 -39 114 -39q61 0 103.5 45t42.5 112v1221h217v-1235q0 -135 -98.5 -228t-239.5 -93z" glyph-name="uni0237" horiz-adv-x="595" unicode="ȷ"/><glyph d="M260 1536h227l211 -350h-170l-153 252l-156 -252h-170z" glyph-name="circumflex" horiz-adv-x="77" unicode="ˆ"/><glyph d="M49 1536h164l162 -246l160 246h163l-211 -350h-227z" glyph-name="caron" horiz-adv-x="77" unicode="ˇ"/><glyph d="M590 1153q-156 0 -252 88t-96 242h129q0 -82 62.5 -141.5t156.5 -59.5q96 0 158.5 59.5t62.5 141.5h129q0 -154 -96 -242t-254 -88z" glyph-name="breve" horiz-adv-x="77" unicode="˘"/><glyph d="M307 1200q-55 0 -95 39t-40 94.5t40 95t95 39.5q53 0 93 -39.5t40 -95t-40 -94.5t-93 -39z" glyph-name="dotaccent" horiz-adv-x="77" unicode="˙"/><glyph d="M182 1141q-90 0 -155.5 64.5t-65.5 154.5q0 88 65.5 152.5t155.5 64.5q88 0 152.5 -63.5t64.5 -153.5t-63.5 -154.5t-153.5 -64.5zM182 1237q51 0 87 35t36 88q0 51 -36 88t-87 37t-86 -37t-35 -88q0 -53 35 -88t86 -35z" glyph-name="ring" horiz-adv-x="77" unicode="˚"/><glyph d="M260 -532q-109 6 -175.5 63t-66.5 160q0 109 85 199t237 145l106 -35q-115 -18 -197.5 -106.5t-82.5 -184.5q0 -57 35 -93t96 -36q117 0 190 98l70 -98q-117 -118 -297 -112z" glyph-name="ogonek" horiz-adv-x="77" unicode="˛"/><glyph d="M530 1251q-119 0 -194 113q-33 53 -82 53q-43 0 -62.5 -42t-5.5 -107h-133q-20 121 37 199.5t158 78.5q125 0 196 -112q33 -53 82 -54q45 0 64.5 41t5.5 107h131q20 -119 -36.5 -198t-160.5 -79z" glyph-name="tilde" horiz-adv-x="81" unicode="˜"/><glyph d="M346 1536h207l-346 -358h-158zM719 1536h207l-346 -358h-158z" glyph-name="hungarumlaut" horiz-adv-x="77" unicode="˝"/><glyph d="M-449 1536h220l180 -324h-170z" glyph-name="gravecomb" unicode="̀"/><glyph d="M-270 1536h221l-230 -324h-170z" glyph-name="acutecomb" unicode="́"/><glyph d="M-487 1536h227l211 -350h-170l-154 252l-155 -252h-170z" glyph-name="uni0302" unicode="̂"/><glyph d="M-252 1251q-119 0 -194 113q-33 53 -82 53q-43 0 -62.5 -42t-5.5 -107h-133q-20 121 37 199.5t157 78.5q125 0 197 -112q33 -53 82 -54q45 0 64.5 41t5.5 107h131q20 -119 -36.5 -198t-160.5 -79z" glyph-name="tildecomb" unicode="̃"/><glyph d="M-682 1362h635v-141h-635v141z" glyph-name="uni0304" unicode="̄"/><glyph d="M-690 1153q-156 0 -252 88t-96 242h129q0 -82 62.5 -141.5t156.5 -59.5q96 0 158.5 59.5t62.5 141.5h129q0 -154 -96 -242t-254 -88z" glyph-name="uni0306" unicode="̆"/><glyph d="M-305 1200q-55 0 -95 39t-40 94.5t40 95t95 39.5q53 0 93 -39.5t40 -95t-40 -94.5t-93 -39z" glyph-name="uni0307" unicode="̇"/><glyph d="M-649 1200q-55 0 -95 39t-40 94.5t39.5 95t95.5 39.5q53 0 93 -39.5t40 -95t-40 -94.5t-93 -39zM-248 1200q-53 0 -93 39t-40 94.5t40 95t93 39.5q55 0 94 -39.5t39 -95t-39 -94.5t-94 -39z" glyph-name="uni0308" unicode="̈"/><glyph d="M-178 1141q-92 0 -156.5 64.5t-64.5 154.5t64.5 153.5t156.5 63.5q88 0 152.5 -63.5t64.5 -153.5t-63.5 -154.5t-153.5 -64.5zM-178 1237q51 0 86 35t35 88q0 51 -35 88t-86 37t-87 -37t-36 -88q0 -53 35 -88t88 -35z" glyph-name="uni030A" unicode="̊"/><glyph d="M-629 1536h207l-346 -358h-158zM-256 1536h207l-346 -358h-158z" glyph-name="uni030B" unicode="̋"/><glyph d="M-698 1536h163l162 -246l160 246h164l-211 -350h-227z" glyph-name="uni030C" unicode="̌"/><glyph d="M-248 1364q90 -35 90 -127q0 -55 -39 -94t-94 -39t-92 39t-37 94q0 53 45 137t88 137h107z" glyph-name="uni0312" unicode="̒"/><glyph d="M-182 -512q-55 0 -95 39t-40 94t39.5 95t95.5 40q53 0 93 -40t40 -95t-40 -94t-93 -39z" glyph-name="dotbelowcomb" unicode="̣"/><glyph d="M-246 0q-90 35 -90 127q0 55 39 94t94.5 39t92 -39t36.5 -94q0 -53 -44 -136t-89 -141h-106z" glyph-name="uni0326" unicode="̦"/><glyph d="M-262 -532q-72 0 -140.5 38.5t-95.5 96.5l97 39q23 -29 62.5 -50.5t76.5 -21.5q45 0 76.5 31.5t31.5 79.5q0 68 -56 92t-138 -9l-84 54l94 182h107l-68 -133q104 20 178 -35t74 -151q0 -90 -62.5 -151.5t-152.5 -61.5z" glyph-name="uni0327" unicode="̧"/><glyph d="M-344 -532q-111 6 -177.5 63t-66.5 160q0 109 85 199t237 145l106 -35q-115 -18 -196.5 -106.5t-81.5 -184.5q0 -57 33.5 -93t95.5 -36q117 0 190 98l72 -98q-119 -118 -297 -112z" glyph-name="uni0328" unicode="̨"/><glyph d="M-973 596h637v-135h-637v135z" glyph-name="uni0335" unicode="̵"/><glyph d="M-1534 580h1485v-93h-1485v93z" glyph-name="uni0336" unicode="̶"/><glyph d="M-365 815h150l-559 -588h-141z" glyph-name="uni0337" unicode="̷"/><glyph d="M-172 1579h143l-1083 -1620h-145z" glyph-name="uni0338" unicode="̸"/><glyph d="M68 125l612 1429h248l604 -1427v-127h-1464v125zM1300 178l-335 778q-10 25 -77 190t-83 218h-21q-8 -29 -33.5 -94.5t-59.5 -149.5t-50 -125l-356 -817h1015z" glyph-name="Delta" horiz-adv-x="1597" unicode="Δ"/><glyph d="M1266 0l-500 1286l-498 -1286h-243l616 1536h250l616 -1536h-241z" glyph-name="Lambda" horiz-adv-x="1533" unicode="Λ"/><glyph d="M143 1536h891v-195h-891v195zM254 868h672v-198h-672v198zM143 199h891v-199h-891v199z" glyph-name="Xi" horiz-adv-x="1208" unicode="Ξ"/><glyph d="M111 160h323v12q-123 100 -206 269t-83 370q0 311 213 520t543 209q332 0 538 -215t206 -510q0 -199 -86 -374t-207 -269v-12h327v-160h-612v117q158 84 264.5 258t106.5 405q-2 242 -145.5 421t-389.5 179q-244 0 -396.5 -172t-152.5 -430q0 -227 108.5 -406t262.5 -255 v-117h-614v160z" glyph-name="Omega" horiz-adv-x="1789" unicode="Ω"/><glyph d="M899 1126h234v-1126h-209l-17 162q-61 -80 -163.5 -127t-208.5 -47q-123 0 -222 57v-557h-161v745q-35 82 -35 183v710h235v-684q0 -111 66.5 -178t179.5 -67q119 0 210 69.5t91 175.5v684z" glyph-name="mu" horiz-adv-x="1271" unicode="μ"/><glyph d="M145 0q63 172 113.5 454.5t58.5 506.5q-188 0 -278 -27q4 18 10 51q23 106 45 123q23 18 133 16h2h2l2 -2q84 -2 142 -2h1001l-16 -159h-199v-625q0 -225 35 -336h-201q-37 61 -37 315v646l-440 2q-10 -225 -60 -523.5t-114 -439.5h-199z" glyph-name="pi" horiz-adv-x="1415" unicode="π"/><glyph d="M932 801q137 -33 220 -136.5t83 -252.5q0 -184 -124 -298t-308 -114h-705v1536h615q186 0 311 -113.5t125 -298.5q0 -121 -59.5 -205.5t-157.5 -117.5zM926 1102q0 98 -70 168.5t-168 70.5h-369v-460h369q100 0 169 62.5t69 158.5zM772 199q100 0 170 70.5t70 168.5 q0 100 -71 180t-169 80h-453v-499h453zM645 -127q55 0 95 -40t40 -95t-40 -94t-95 -39t-94 39t-39 94t39 95t94 40z" glyph-name="uni1E04" horiz-adv-x="1329" unicode="Ḅ"/><glyph d="M694 1137q227 0 372.5 -164t145.5 -412q0 -246 -144 -409.5t-372 -163.5q-233 0 -368 176l-19 -164l-200 2v1536h233v-563q129 162 352 162zM653 190q145 0 236.5 106.5t91.5 264.5q0 160 -91 266.5t-237 106.5q-115 0 -198.5 -73t-112.5 -189v-219q29 -117 112.5 -190 t198.5 -73zM628.5 -127q55.5 0 95.5 -40t40 -95t-40 -94t-95.5 -39t-94 39t-38.5 94t38.5 95t94 40z" glyph-name="uni1E05" horiz-adv-x="1230" unicode="ḅ"/><glyph d="M1360 1536v-1536h-223v670h-768v-670h-226v1536h226v-668h768v668h223zM758 -127q53 0 93 -40t40 -95t-40 -94t-93 -39q-55 0 -95 39t-40 94t40 95t95 40z" glyph-name="uni1E24" horiz-adv-x="1503" unicode="Ḥ"/><glyph d="M729 1137q190 0 302 -109.5t112 -300.5v-727h-238v700q0 109 -63.5 169.5t-177.5 60.5q-121 0 -211.5 -67.5t-90.5 -174.5v-688h-237v1536h237v-559q61 74 161 117t206 43zM600 -127q53 0 93 -40t40 -95t-40 -94t-93 -39q-55 0 -95 39t-40 94t40 95t95 40z" glyph-name="uni1E25" horiz-adv-x="1216" unicode="ḥ"/><glyph d="M143 1536h226v-1337h549v-199h-775v1536zM532 -395q-55 0 -95 39t-40 94t40 95t95 40q53 0 93.5 -40t40.5 -95t-40.5 -94t-93.5 -39z" glyph-name="uni1E36" horiz-adv-x="972" unicode="Ḷ"/><glyph d="M164 0l2 1536h217v-1536h-219zM280.5 -395q-55.5 0 -94.5 39t-39 94t39 95t94.5 40t95.5 -40t40 -95t-40 -94t-95.5 -39z" glyph-name="uni1E37" horiz-adv-x="686" unicode="ḷ"/><glyph d="M807 1712q-55 0 -95 39t-40 94.5t40 95t95 39.5q53 0 93 -39.5t40 -95t-40 -94.5t-93 -39zM1468 1536v-1536h-221l-878 1186v-1186h-226v1536h222l880 -1184v1184h223z" glyph-name="uni1E44" horiz-adv-x="1611" unicode="Ṅ"/><glyph d="M612 1200q-55 0 -95 39t-40 94.5t40 95t95 39.5q53 0 93 -39.5t40 -95t-40 -94.5t-93 -39zM713 1141q188 0 298.5 -109.5t110.5 -302.5v-729h-235v702q0 109 -63.5 170.5t-176.5 61.5q-121 0 -209 -68.5t-88 -175.5v-690h-235v1126h207l18 -157q61 80 162.5 126t210.5 46 z" glyph-name="uni1E45" horiz-adv-x="1216" unicode="ṅ"/><glyph d="M1468 1536v-1536h-221l-878 1186v-1186h-226v1536h222l880 -1184v1184h223zM809 -127q55 0 95 -40t40 -95t-40 -94t-95 -39t-94 39t-39 94t39 95t94 40z" glyph-name="uni1E46" horiz-adv-x="1611" unicode="Ṇ"/><glyph d="M713 1141q188 0 298.5 -109.5t110.5 -302.5v-729h-235v702q0 109 -63.5 170.5t-176.5 61.5q-121 0 -209 -68.5t-88 -175.5v-690h-235v1126h207l18 -157q61 80 162.5 126t210.5 46zM612 -127q53 0 93 -40t40 -95t-39.5 -94t-93.5 -39q-55 0 -95 39t-40 94t40 95t95 40z " glyph-name="uni1E47" horiz-adv-x="1216" unicode="ṇ"/><glyph d="M634.5 -20q-237.5 0 -390 135t-170.5 342l207 -2q20 -111 109 -188t251 -77q145 0 234.5 59.5t91.5 174.5q0 49 -22.5 91t-49.5 67.5t-88.5 56.5t-93 43t-111.5 39q-18 6 -29 10q-106 39 -166.5 65.5t-136 77t-111.5 118t-36 155.5q0 188 153.5 298.5t366.5 110.5 q473 0 551 -446h-207q-14 106 -101 182t-239 76q-119 0 -207 -55.5t-88 -153.5q0 -61 53.5 -113.5t99.5 -74t161 -66.5q18 -8 28 -12q227 -88 305 -135q195 -123 195 -328q0 -215 -161 -332.5t-398.5 -117.5zM684 -395q-55 0 -95 40t-40 95q0 53 40 93t95 40q53 0 93 -40 t40 -93q0 -55 -40 -95t-93 -40z" glyph-name="uni1E62" horiz-adv-x="1300" unicode="Ṣ"/><glyph d="M528 -16q-213 0 -333.5 110.5t-133.5 249.5h201q16 -78 92 -133t170 -53t148.5 47t54.5 117q0 74 -67.5 112.5t-200.5 67.5q-76 16 -132.5 35.5t-113.5 53.5t-88 89t-31 129q0 152 121 243t303 91q172 0 290 -86t134 -246h-199q-14 76 -76.5 113t-131.5 41 q-86 4 -143.5 -30t-57.5 -99q0 -31 16.5 -55.5t33.5 -39t61 -30t68 -21.5t83 -20q74 -16 129 -38t113.5 -58.5t90.5 -97t32 -140.5q0 -156 -120 -254t-313 -98zM518 -395q-55 0 -95 39t-40 94t40 95t95 40q53 0 93 -40t40 -95t-40 -94t-93 -39z" glyph-name="uni1E63" horiz-adv-x="989" unicode="ṣ"/><glyph d="M1155 1341h-453v-1339h-221v1339h-452v197h1126v-197zM623 -127q53 0 93 -40t40 -95t-40 -94t-93 -39q-55 0 -95.5 39t-40.5 94t40.5 95t95.5 40z" glyph-name="uni1E6C" horiz-adv-x="1120" unicode="Ṭ"/><glyph d="M608 -2q-184 0 -282.5 67.5t-98.5 266.5l2 614h-182v184h182v406h222v-406h278v-186l-283 2v-594q0 -84 36 -123t126 -39h131v-192h-131zM428 -127q55 0 95 -40t40 -95t-40 -94t-95 -39t-94 39t-39 94t39 95t94 40z" glyph-name="uni1E6D" horiz-adv-x="727" unicode="ṭ"/><glyph d="M1042 1724l-231 324h221l178 -324h-168zM2169 1536l-455 -1536h-254l-354 1145l-336 -1145h-252l-477 1536h242l362 -1284l352 1284h226l362 -1286l342 1286h242z" glyph-name="Wgrave" horiz-adv-x="2269" unicode="Ẁ"/><glyph d="M676 1212l-232 324h222l178 -324h-168zM1669 1122l-348 -1122h-264l-195 713l-192 -713h-264l-351 1122h264l228 -846l217 846h213l215 -848l215 848h262z" glyph-name="wgrave" horiz-adv-x="1523" unicode="ẁ"/><glyph d="M1225 1724h-170l180 324h219zM2169 1536l-455 -1536h-254l-354 1145l-336 -1145h-252l-477 1536h242l362 -1284l352 1284h226l362 -1286l342 1286h242z" glyph-name="Wacute" horiz-adv-x="2269" unicode="Ẃ"/><glyph d="M879 1212h-170l178 324h221zM1669 1122l-348 -1122h-264l-195 713l-192 -713h-264l-351 1122h264l228 -846l217 846h213l215 -848l215 848h262z" glyph-name="wacute" horiz-adv-x="1523" unicode="ẃ"/><glyph d="M934 1712q-55 0 -94 39t-39 94.5t39 95t94 39.5t95 -39.5t40 -95t-40 -94.5t-95 -39zM1337 1712q-55 0 -95 39t-40 94.5t40 95t95 39.5q53 0 93 -39.5t40 -95t-40 -94.5t-93 -39zM2169 1536l-455 -1536h-254l-354 1145l-336 -1145h-252l-477 1536h242l362 -1284l352 1284 h226l362 -1286l342 1286h242z" glyph-name="Wdieresis" horiz-adv-x="2269" unicode="Ẅ"/><glyph d="M587.5 1200q-55.5 0 -94 39t-38.5 94.5t38.5 95t94 39.5t95.5 -39.5t40 -95t-40 -94.5t-95.5 -39zM991 1200q-55 0 -95 39t-40 94.5t40 95t95 39.5q53 0 93 -39.5t40 -95t-40 -94.5t-93 -39zM1669 1122l-348 -1122h-264l-195 713l-192 -713h-264l-351 1122h264l228 -846 l217 846h213l215 -848l215 848h262z" glyph-name="wdieresis" horiz-adv-x="1523" unicode="ẅ"/><glyph d="M1247 199v-199h-1165v119l844 1222h-824v195h1127v-117l-846 -1220h864zM662 -127q53 0 93 -40t40 -95t-40 -94t-93 -39q-55 0 -95.5 39t-40.5 94t40.5 95t95.5 40z" glyph-name="uni1E92" horiz-adv-x="1331" unicode="Ẓ"/><glyph d="M88 156l596 690h-588v178h869v-150l-598 -694h610v-180h-889v156zM532.5 -395q-55.5 0 -94.5 39t-39 94t39 95t94.5 40t95.5 -40t40 -95t-40 -94t-95.5 -39z" glyph-name="uni1E93" horiz-adv-x="1062" unicode="ẓ"/><glyph d="M1128 356h-714l-138 -356h-241l616 1536h250l617 -1536h-244zM1065 553l-289 754l-293 -754h582zM768 -127q55 0 95 -40t40 -95t-40 -94t-95 -39t-94 39t-39 94t39 95t94 40z" glyph-name="uni1EA0" horiz-adv-x="1533" unicode="Ạ"/><glyph d="M434 -12q-164 0 -268.5 90t-104.5 241.5t121 247t342 111.5l258 20v31q0 225 -237 225q-106 0 -175 -54t-79 -155h-201q14 168 129 281t332 113q209 0 326.5 -106.5t117.5 -307.5q0 -94 1 -239.5t1 -159.5q0 -152 86 -148v-178q-45 0 -69 2q-174 18 -211 141 q-47 -68 -149.5 -111.5t-219.5 -43.5zM479 168q106 0 193.5 57.5t109.5 136.5v173l-223 -21q-272 -23 -272 -186q0 -74 57 -117t135 -43zM538.5 -127q55.5 0 95.5 -40t40 -95t-40 -94t-95.5 -39t-94 39t-38.5 94t38.5 95t94 40z" glyph-name="uni1EA1" horiz-adv-x="1122" unicode="ạ"/><glyph d="M336 1341v-473h659v-198h-659v-471h745v-199h-970v1536h970v-195h-745zM580 -127q53 0 93 -40t40 -95t-40 -94t-93 -39q-55 0 -95.5 39t-40.5 94t40.5 95t95.5 40z" glyph-name="uni1EB8" horiz-adv-x="1107" unicode="Ẹ"/><glyph d="M1098 567q0 -49 -4 -75h-815q8 -147 98 -232.5t209 -87.5q104 0 181 46t110 128h192q-23 -141 -144.5 -249.5t-336.5 -106.5q-240 0 -386.5 162.5t-146.5 410.5q0 252 142.5 412t390.5 160q236 0 373 -155t137 -413zM586 950q-129 0 -206 -77.5t-97 -213.5h596 q-16 135 -91 213t-202 78zM586 -127q53 0 93 -40t40 -95t-40 -94t-93 -39q-55 0 -95 39t-40 94t40 95t95 40z" glyph-name="uni1EB9" horiz-adv-x="1124" unicode="ẹ"/><glyph d="M242 1718q-20 121 37 200t157 79q125 0 197 -113q33 -53 82 -53q45 0 64.5 41t4.5 106h131q20 -119 -36 -197.5t-160 -78.5q-119 0 -195 113q-33 53 -82 53q-43 0 -62.5 -42t-4.5 -108h-133zM336 1341v-473h659v-198h-659v-471h745v-199h-970v1536h970v-195h-745z" glyph-name="uni1EBC" horiz-adv-x="1107" unicode="Ẽ"/><glyph d="M242 1212q-20 119 37 199t157 80q121 0 197 -115q29 -53 82 -53q43 0 62.5 42t4.5 105h131q20 -119 -35 -197.5t-159 -78.5q-121 0 -197 115q-33 53 -80 53q-45 0 -64.5 -43t-4.5 -107h-131zM1098 567q0 -49 -4 -75h-815q8 -147 98 -232.5t209 -87.5q104 0 181 46 t110 128h192q-23 -141 -144.5 -249.5t-336.5 -106.5q-240 0 -386.5 162.5t-146.5 410.5q0 252 142.5 412t390.5 160q236 0 373 -155t137 -413zM586 950q-129 0 -206 -77.5t-97 -213.5h596q-16 135 -91 213t-202 78z" glyph-name="uni1EBD" horiz-adv-x="1124" unicode="ẽ"/><glyph d="M143 1536h226v-1536h-226v1536zM256 -395q-55 0 -95 39t-40 94t40 95t95 40q53 0 93 -40t40 -95t-40 -94t-93 -39z" glyph-name="uni1ECA" horiz-adv-x="512" unicode="Ị"/><glyph d="M282.5 1210q-55.5 0 -95.5 39t-40 94.5t41 95.5t95 40q55 0 95 -40t40 -95.5t-40 -94.5t-95.5 -39zM174 1024h217v-1024h-217v1024zM293 -426q-55 0 -94 40t-39 95q0 53 39 93t94 40t95 -40t40 -93q0 -55 -40 -95t-95 -40z" glyph-name="uni1ECB" horiz-adv-x="565" unicode="ị"/><glyph d="M844 -20q-328 0 -539 228t-211 560t211 560t539 228q326 0 537.5 -228t211.5 -560t-211.5 -560t-537.5 -228zM843.5 197q239.5 0 386 162.5t146.5 408.5q0 248 -146.5 411.5t-386 163.5t-388 -163.5t-148.5 -411.5q0 -244 148.5 -407.5t388 -163.5zM843.5 -395 q-55.5 0 -94 39t-38.5 94t38.5 95t94 40t95.5 -40t40 -95t-40 -94t-95.5 -39z" glyph-name="uni1ECC" horiz-adv-x="1685" unicode="Ọ"/><glyph d="M588 -20q-223 0 -367.5 153.5t-144.5 378.5t144.5 378.5t367.5 153.5q225 0 369.5 -153.5t144.5 -378.5t-145.5 -378.5t-368.5 -153.5zM588 172q133 0 217 97.5t84 242.5t-83 243.5t-218 98.5q-133 0 -216 -98.5t-83 -243.5t83 -242.5t216 -97.5zM590 -395q-55 0 -95 39 t-40 94t40 95t95 40q53 0 93 -40t40 -95t-40 -94t-93 -39z" glyph-name="uni1ECD" horiz-adv-x="1175" unicode="ọ"/><glyph d="M747.5 -20q-249.5 0 -423.5 151.5t-174 370.5v1034h223v-997q0 -152 109.5 -256.5t265 -104.5t265 104.5t109.5 256.5v997h224v-1034q0 -219 -174.5 -370.5t-424 -151.5zM747.5 -395q-55.5 0 -94.5 39t-39 94t39 95t94.5 40t95.5 -40t40 -95t-40 -94t-95.5 -39z" glyph-name="uni1EE4" horiz-adv-x="1492" unicode="Ụ"/><glyph d="M582 1724l-230 324h219l181 -324h-170zM786 729v-729h-223v723l-538 813h249l400 -618l401 618h246z" glyph-name="Ygrave" horiz-adv-x="1345" unicode="Ỳ"/><glyph d="M498 1212l-230 324h219l181 -324h-170zM1174 1126l-670 -1667h-215l248 615h-56l-436 1052h234l346 -825l321 825h228z" glyph-name="ygrave" horiz-adv-x="1224" unicode="ỳ"/><glyph d="M563 723l-538 813h249l400 -618l401 618h246l-535 -807v-729h-223v723zM676 -127q55 0 95 -40t40 -95t-40 -94t-95 -39t-94 39t-39 94t39 95t94 40z" glyph-name="uni1EF4" horiz-adv-x="1345" unicode="Ỵ"/><glyph d="M340 1718q-20 121 36 200t159 79q121 0 196 -113q29 -53 82 -53q43 0 62.5 41t5.5 106h131q20 -119 -35 -197.5t-160 -78.5q-121 0 -196 113q-33 53 -80 53q-45 0 -64.5 -42t-5.5 -108h-131zM786 729v-729h-223v723l-538 813h249l400 -618l401 618h246z" glyph-name="uni1EF8" horiz-adv-x="1345" unicode="Ỹ"/><glyph d="M172 608h1024v-149h-1024v149z" glyph-name="endash" horiz-adv-x="1366" unicode="–"/><glyph d="M10 608h2048v-149h-2048v149z" glyph-name="emdash" horiz-adv-x="2066" unicode="—"/><glyph d="M158 1128q-55 0 -92 39t-37 95q0 53 45 137t88 137h106l-39 -166q61 -37 62 -108q0 -57 -40 -95.5t-93 -38.5z" glyph-name="quoteleft" horiz-adv-x="317" unicode="‘"/><glyph d="M117 1276q-39 16 -63.5 50t-24.5 77q0 55 38.5 94t94.5 39q53 0 91 -39t38 -94t-46 -139t-89 -136h-105z" glyph-name="quoteright" horiz-adv-x="317" unicode="’"/><glyph d="M117 0q-88 35 -88 127q0 55 37.5 94t95.5 39q53 0 91 -39t38 -94t-46 -138t-89 -139h-107z" glyph-name="quotesinglbase" horiz-adv-x="317" unicode="‚"/><glyph d="M157.5 1128q-55.5 0 -92 39t-36.5 95q0 53 45 137t88 137h106l-39 -166q61 -37 62 -108q0 -55 -39 -94.5t-94.5 -39.5zM518 1128q-55 0 -92 39t-37 94.5t46 139.5t89 135h105l-37 -166q59 -39 59 -108q0 -55 -39 -94.5t-94 -39.5z" glyph-name="quotedblleft" horiz-adv-x="677" unicode="“"/><glyph d="M88 1294q-59 39 -59 109q0 55 38.5 94t94 39t92.5 -39t37 -94t-46 -139t-89 -136h-105zM451 1294q-61 37 -62 109q0 55 39 94t94.5 39t92 -39t36.5 -94q0 -53 -45 -137t-88 -138h-106z" glyph-name="quotedblright" horiz-adv-x="677" unicode="”"/><glyph d="M88 0q-59 39 -59 109q0 55 38.5 94t94 39t92.5 -39t37 -94.5t-46 -138.5t-89 -138h-105zM451 0q-61 37 -62 109q0 55 39 94t94.5 39t92 -39t36.5 -94q0 -53 -44 -136.5t-89 -140.5h-106z" glyph-name="quotedblbase" horiz-adv-x="677" unicode="„"/><glyph d="M1092 846h-353v-1194h-141v1194h-344v139h344v387h141v-387h353v-139z" glyph-name="dagger" horiz-adv-x="1345" unicode="†"/><glyph d="M739 846v-653h353v-142h-353v-399h-141v399h-344v142h344v653h-344v139h344v387h141v-387h353v-139h-353z" glyph-name="daggerdbl" horiz-adv-x="1345" unicode="‡"/><glyph d="M494 391q-115 0 -198 81t-83 195.5t84 197.5t197 83q111 0 193.5 -84t82.5 -196q0 -115 -81.5 -196t-194.5 -81z" glyph-name="bullet" horiz-adv-x="983" unicode="•"/><glyph d="M303 -16q-53 0 -93 39.5t-40 95t40 95.5t93 40q55 0 94 -40t39 -95.5t-39 -95t-94 -39.5zM846 -16q-53 0 -93 39.5t-40 95t40 95.5t93 40q57 0 96 -40t39 -95.5t-39 -95t-96 -39.5zM1389 -16q-53 0 -91 39.5t-38 95t37.5 95.5t91.5 40q57 0 97 -40t40 -95.5t-40 -95 t-97 -39.5z" glyph-name="ellipsis" horiz-adv-x="1679" unicode="…"/><glyph d="M395 881q-123 0 -209 99t-86 238.5t86 238.5t209 99t209 -99t86 -238.5t-86 -238.5t-209 -99zM1194 1536h223l-1044 -1536h-226zM395.5 1044q53.5 0 92 51.5t38.5 123t-38.5 123t-92 51.5t-91.5 -51.5t-38 -123t38 -123t91.5 -51.5zM1173.5 -20q-122.5 0 -209.5 99 t-87 240.5t87 240.5t209.5 99t208.5 -100t86 -239.5t-86 -239.5t-208.5 -100zM1866 -20q-123 0 -209 100t-86 239.5t86 239.5t209 100t210 -100t87 -239.5t-87 -239.5t-210 -100zM1171.5 147q53.5 0 91 49.5t37.5 123t-37.5 123t-91 49.5t-91.5 -49.5t-38 -123t38 -123 t91.5 -49.5zM1865.5 147q53.5 0 91.5 49.5t38 123t-38 123t-91.5 49.5t-91 -49.5t-37.5 -123t37.5 -123t91 -49.5z" glyph-name="perthousand" horiz-adv-x="2250" unicode="‰"/><glyph d="M92 571l311 377h179l-312 -377l312 -376h-179z" glyph-name="guilsinglleft" horiz-adv-x="710" unicode="‹"/><glyph d="M442 571l-311 377h178l312 -377l-312 -376h-178z" glyph-name="guilsinglright" horiz-adv-x="710" unicode="›"/><glyph d="M1022 1536h219l-1071 -1536h-221z" glyph-name="fraction" horiz-adv-x="1220" unicode="⁄"/><glyph d="M55 938h138q27 248 172 396.5t374 148.5q221 0 353.5 -128t148.5 -351h-178q-14 154 -96 235.5t-228 81.5q-156 0 -250 -101.5t-112 -281.5h495l-28 -139h-473v-127h450l-26 -150h-418q18 -182 111.5 -279.5t252.5 -97.5q307 0 342 344h174q-16 -238 -153 -375t-363 -137 q-231 0 -376.5 147.5t-171.5 397.5h-138v150h133v127h-133v139z" glyph-name="Euro" horiz-adv-x="1351" unicode="€"/><glyph d="M674 -12q-190 0 -294 108.5t-122 272.5l-2 22q-23 -14 -69 -49t-66 -49l-62 117q23 18 91.5 69t103.5 80v576q0 283 112.5 414.5t280.5 131.5q158 0 240 -106.5t82 -263.5q0 -197 -130 -390.5t-380 -408.5l2 -61q2 -141 76.5 -217t181.5 -76q104 0 193 66.5t147 160.5 l96 -92q-172 -305 -481 -305zM459 705q358 354 358 600q0 229 -166 229q-76 0 -134 -89t-58 -282v-458z" glyph-name="afii61289" horiz-adv-x="1230" unicode="ℓ"/><glyph d="M31 1536h495v-96h-192v-623h-111v623h-192v96zM1393 1534v-719h-103v569l-219 -569h-96l-217 569v-569h-105v719h144l225 -584l227 584h144z" glyph-name="trademark" horiz-adv-x="1497" unicode="™"/><glyph d="M938 -18q-362 0 -618.5 230t-256.5 554q0 328 256 559t619 231q365 0 621 -231t256 -559v-21h-1418q-12 0 -12 -8v-430q0 -23 18 -49q227 -233 537 -233q166 0 313.5 69.5t251.5 192.5h125q-119 -141 -301 -223t-391 -82zM1485 788q8 0 8 15v430q0 33 -20 51 q-229 225 -532.5 225t-534.5 -231q-20 -25 -21 -53v-422q0 -14 12 -15h1088z" glyph-name="estimated" horiz-adv-x="1880" unicode="℮"/><glyph d="M1546 598h-1100l62 -260l-498 385l498 385l-62 -262h1100v-248z" glyph-name="arrowleft" horiz-adv-x="1720" unicode="←"/><glyph d="M375 1100l-262 -62l385 498l385 -498l-260 62v-1100h-248v1100z" glyph-name="arrowup" horiz-adv-x="1034" unicode="↑"/><glyph d="M1274 846l-62 262l498 -385l-498 -385l62 260h-1100v248h1100z" glyph-name="arrowright" horiz-adv-x="1720" unicode="→"/><glyph d="M623 1536v-1100l260 62l-385 -498l-385 498l262 -62v1100h248z" glyph-name="arrowdown" horiz-adv-x="995" unicode="↓"/><glyph d="M-133 682l498 385l-64 -260l1149 -2l-61 260l497 -385l-495 -385l61 262l-1151 2l59 -264z" glyph-name="arrowboth" horiz-adv-x="1753" unicode="↔"/><glyph d="M113 350l262 -61v798l-262 -61l385 496l385 -498l-260 61v-794l260 61l-385 -497z" glyph-name="arrowupdn" horiz-adv-x="995" unicode="↕"/><glyph d="M1055 137l-779 776l-141 -227l-80 625l625 -80l-229 -141l778 -779z" glyph-name="uni2196" horiz-adv-x="1095" unicode="↖"/><glyph d="M645 1090l-229 141l624 80l-79 -625l-142 227l-778 -776l-174 174z" glyph-name="uni2197" horiz-adv-x="1095" unicode="↗"/><glyph d="M43 1399l778 -776l142 227l79 -625l-624 80l229 141l-778 779z" glyph-name="uni2198" horiz-adv-x="1097" unicode="↘"/><glyph d="M451 446l229 -141l-625 -80l80 625l141 -227l779 776l174 -174z" glyph-name="uni2199" horiz-adv-x="1097" unicode="↙"/><glyph d="M336 1450q285 49 482.5 -178.5t193.5 -599.5q-2 -281 -148.5 -471.5t-359.5 -190.5q-250 0 -354.5 176t-6.5 437q86 229 265.5 322t373.5 18q-55 195 -177 287.5t-269 45.5v154zM819 672q0 63 -6 125q-150 94 -284 33.5t-210 -257.5q-63 -170 -7.5 -294.5t192.5 -124.5 q127 0 220 152.5t95 365.5z" glyph-name="partialdiff" horiz-adv-x="1101" unicode="∂"/><glyph d="M1288 997q150 -172 150 -401q0 -254 -179.5 -433t-433.5 -179q-227 0 -399 149l-90 -88l-64 64l90 88q-150 170 -149 399q0 254 179 433t433 179q229 0 400 -147l88 88l63 -64zM387 596q0 -154 96 -277l619 617q-119 100 -277 100q-182 0 -310 -128t-128 -312zM825 158 q182 0 310.5 128t128.5 310q0 158 -99 276l-618 -616q120 -98 278 -98z" glyph-name="emptyset" horiz-adv-x="1648" unicode="∅"/><glyph glyph-name="product" horiz-adv-x="1515" unicode="∏"/><glyph d="M172 -119l735 717l-735 717v125h1182v-164h-908l682 -678l-682 -678h908v-164h-1182v125z" glyph-name="summation" horiz-adv-x="1525" unicode="∑"/><glyph d="M111 682h1228v-143h-1228v143z" glyph-name="minus" horiz-adv-x="1447" unicode="−"/><glyph d="M270 553h-139v141h240l204 -620l715 1493l129 -56l-801 -1671h-116z" glyph-name="radical" horiz-adv-x="1488" unicode="√"/><glyph d="M408 287q-125 0 -209 87t-88 222q4 135 88 223t209 88q180 0 374 -205q188 205 375 205q129 0 210 -85t85 -226q-4 -139 -85 -224t-210 -85q-182 0 -375 205q-194 -205 -374 -205zM408 428q127 0 278 168q-152 170 -278 170q-63 0 -108.5 -48t-47.5 -122q2 -70 47.5 -119 t108.5 -49zM1157 428q63 0 107.5 47t46.5 121q-2 74 -46 122t-108 48q-129 0 -283 -170q158 -168 283 -168z" glyph-name="infinity" horiz-adv-x="1560" unicode="∞"/><glyph d="M348 -387q-84 0 -135 60.5t-37 154.5h111q0 -100 61 -100q23 0 39 16t16 45v1552q0 78 50.5 127.5t126.5 49.5q82 0 132 -61.5t33 -153.5h-110q0 100 -57 100q-25 0 -42.5 -16.5t-17.5 -45.5v-1552q0 -78 -49 -127t-121 -49z" glyph-name="integral" horiz-adv-x="921" unicode="∫"/><glyph d="M809 653q-61 0 -119.5 29t-83 53.5t-67.5 71.5q-82 96 -158 96q-80 0 -128 -65.5t-40 -159.5h-117q-12 150 71 245t216 95q80 0 136 -37t118 -113q27 -33 45 -51t50 -33.5t67 -15.5q78 0 126 62.5t40 160.5h114q14 -143 -64.5 -240.5t-205.5 -97.5zM809 248 q-61 0 -119.5 28.5t-83 53t-67.5 71.5q-80 94 -158 95q-80 0 -128 -64.5t-40 -161.5h-117q-12 152 71 248t216 96q78 0 134 -37.5t120 -113.5q27 -33 45 -51.5t50 -34t67 -15.5q78 0 126 62.5t40 161.5h114q14 -143 -64.5 -240.5t-205.5 -97.5z" glyph-name="approxequal" horiz-adv-x="1177" unicode="≈"/><glyph d="M913 672l-217 -254h643v-142h-764l-223 -264h-131l225 264h-335v142h456l217 254h-673v139h794l193 225h131l-195 -225h305v-139h-426z" glyph-name="notequal" horiz-adv-x="1447" unicode="≠"/><glyph d="M1364 1264l-950 -435l950 -434v-184l-1131 522v195l1131 518v-182zM233 129h1131v-129h-1131v129z" glyph-name="lessequal" horiz-adv-x="1595" unicode="≤"/><glyph d="M1364 928v-195l-1131 -522v184l951 434l-951 435v182zM233 129h1131v-129h-1131v129z" glyph-name="greaterequal" horiz-adv-x="1595" unicode="≥"/><glyph d="M172 723l619 618l616 -616l-616 -619zM1167 725l-376 377l-377 -379l377 -375z" glyph-name="lozenge" horiz-adv-x="1579" unicode="◊"/><glyph glyph-name="glyph432"/><glyph d="M375 1100l-262 -62l385 498l385 -498l-260 62v-1100h-248v1100z" glyph-name="glyph433" horiz-adv-x="995"/><glyph d="M270.5 1210q-55.5 0 -95.5 39t-40 94.5t41 95.5t94 40q55 0 95.5 -40t40.5 -95.5t-40 -94.5t-95.5 -39zM162 1024h217v-1024h-217v1024z" glyph-name="i.locl" horiz-adv-x="624"/><glyph d="M1128 356h-714l-138 -356h-241l616 1536h250l617 -1536h-244zM1065 553l-289 754l-293 -754h582z" glyph-name="glyph435" horiz-adv-x="1552"/><glyph d="M856 1724h-170l180 324h219zM1128 356h-714l-138 -356h-241l616 1536h250l617 -1536h-244zM1065 553l-289 754l-293 -754h582z" glyph-name="glyph436" horiz-adv-x="1552"/><glyph d="M766 1665q-154 0 -250 88t-96 242h129q0 -82 61.5 -141.5t155.5 -59.5q98 0 160.5 59.5t62.5 141.5h127q0 -154 -96 -242t-254 -88zM1128 356h-714l-138 -356h-241l616 1536h250l617 -1536h-244zM1065 553l-289 754l-293 -754h582z" glyph-name="glyph437" horiz-adv-x="1552"/><glyph d="M653 1698l-211 350h164l162 -246l160 246h164l-211 -350h-228zM1128 356h-714l-138 -356h-241l616 1536h250l617 -1536h-244zM1065 553l-289 754l-293 -754h582z" glyph-name="glyph438" horiz-adv-x="1552"/><glyph d="M612 1698h-170l211 350h228l211 -350h-170l-154 252zM1128 356h-714l-138 -356h-241l616 1536h250l617 -1536h-244zM1065 553l-289 754l-293 -754h582z" glyph-name="glyph439" horiz-adv-x="1552"/><glyph d="M567 1712q-55 0 -95 39t-40 94.5t40 95t95 39.5q53 0 93 -39.5t40 -95t-40 -94.5t-93 -39zM969 1712q-53 0 -93 39t-40 94.5t39.5 95t93.5 39.5q55 0 94 -39.5t39 -95t-39 -94.5t-94 -39zM1128 356h-714l-138 -356h-241l616 1536h250l617 -1536h-244zM1065 553l-289 754 l-293 -754h582z" glyph-name="glyph440" horiz-adv-x="1552"/><glyph d="M1128 356h-714l-138 -356h-241l616 1536h250l617 -1536h-244zM1065 553l-289 754l-293 -754h582zM768 -127q55 0 95 -40t40 -95t-40 -94t-95 -39t-94 39t-39 94t39 95t94 40z" glyph-name="glyph441" horiz-adv-x="1552"/><glyph d="M674 1724l-230 324h220l180 -324h-170zM1128 356h-714l-138 -356h-241l616 1536h250l617 -1536h-244zM1065 553l-289 754l-293 -754h582z" glyph-name="glyph442" horiz-adv-x="1552"/><glyph d="M1085 1733h-634v141h634v-141zM1128 356h-714l-138 -356h-241l616 1536h250l617 -1536h-244zM1065 553l-289 754l-293 -754h582z" glyph-name="glyph443" horiz-adv-x="1552"/><glyph d="M1550 -322l70 -98q-117 -119 -297 -112q-109 6 -175.5 63t-66.5 160q0 186 236 309h-43l-146 356h-714l-138 -356h-241l616 1536h250l617 -1536h-11q-125 -23 -201.5 -109t-76.5 -182q0 -57 34.5 -93t96.5 -36q116 0 190 98zM483 553h582l-289 754z" glyph-name="glyph444" horiz-adv-x="1533"/><glyph d="M913 1507l605 -1507h-244l-146 356h-714l-138 -356h-241l604 1503h-12q-78 61 -78 162q0 90 64.5 153.5t156.5 63.5q88 0 151.5 -63.5t63.5 -153.5q0 -99 -72 -158zM770 1788q-51 0 -87 -36t-36 -87q0 -55 35 -90t88 -35q51 0 86 35t35 90q0 51 -35 87t-86 36zM483 553 h582l-289 754z" glyph-name="glyph445" horiz-adv-x="1552"/><glyph d="M432 1718q-20 121 36 200t159 79q121 0 196 -113q29 -53 82 -53q43 0 62.5 41t5.5 106h131q20 -119 -35 -197.5t-160 -78.5q-121 0 -196 113q-33 53 -80 53q-45 0 -64.5 -42t-5.5 -108h-131zM1128 356h-714l-138 -356h-241l616 1536h250l617 -1536h-244zM1065 553 l-289 754l-293 -754h582z" glyph-name="glyph446" horiz-adv-x="1552"/><glyph d="M651 1536h1118v-190h-649v-492h563v-170h-563v-491h649v-193h-866v332h-497l-121 -332h-250zM905 504v842h-98l-328 -842h426z" glyph-name="glyph447" horiz-adv-x="1863"/><glyph d="M860 801q137 -33 220 -136.5t83 -252.5q0 -184 -124 -298t-308 -114h-633v1536h543q186 0 311 -113.5t125 -298.5q0 -121 -59.5 -205.5t-157.5 -117.5zM854 1102q0 98 -69.5 168.5t-168.5 70.5h-297v-460h297q100 0 169 62.5t69 158.5zM700 199q100 0 170 70.5t70 168.5 q0 100 -70.5 180t-169.5 80h-381v-499h381z" glyph-name="glyph448" horiz-adv-x="1214"/><glyph d="M932 801q137 -33 220 -136.5t83 -252.5q0 -184 -124 -298t-308 -114h-705v1536h615q186 0 311 -113.5t125 -298.5q0 -121 -59.5 -205.5t-157.5 -117.5zM926 1102q0 98 -70 168.5t-168 70.5h-369v-460h369q100 0 169 62.5t69 158.5zM772 199q100 0 170 70.5t70 168.5 q0 100 -71 180t-169 80h-453v-499h453zM645 -127q55 0 95 -40t40 -95t-40 -94t-95 -39t-94 39t-39 94t39 95t94 40z" glyph-name="glyph449" horiz-adv-x="1286"/><glyph d="M813 -20q-324 -2 -531.5 226t-207.5 562t206.5 561t532.5 227q293 0 476.5 -164.5t201.5 -383.5h-221q-23 127 -137.5 231t-319.5 104q-240 0 -384 -163.5t-144 -411.5q0 -246 144 -410.5t384 -164.5q190 0 313 101t144 218h221q-20 -197 -212 -363.5t-466 -168.5z" glyph-name="glyph450" horiz-adv-x="1615"/><glyph d="M942 2048h219l-229 -324h-170zM813 -20q-324 -2 -531.5 226t-207.5 562t206.5 561t532.5 227q293 0 476.5 -164.5t201.5 -383.5h-221q-23 127 -137.5 231t-319.5 104q-240 0 -384 -163.5t-144 -411.5q0 -246 144 -410.5t384 -164.5q190 0 313 101t144 218h221 q-20 -197 -212 -363.5t-466 -168.5z" glyph-name="glyph451" horiz-adv-x="1615"/><glyph d="M489 2048h164l160 -246l162 246h164l-213 -350h-228zM813 -20q-324 -2 -531.5 226t-207.5 562t206.5 561t532.5 227q293 0 476.5 -164.5t201.5 -383.5h-221q-23 127 -137.5 231t-319.5 104q-240 0 -384 -163.5t-144 -411.5q0 -246 144 -410.5t384 -164.5q190 0 313 101 t144 218h221q-20 -197 -212 -363.5t-466 -168.5z" glyph-name="glyph452" horiz-adv-x="1615"/><glyph d="M813 193q190 0 313 101t144 218h221q-18 -182 -186 -342t-416 -186v-4l-60 -113q106 20 179 -35t73 -151q0 -90 -61.5 -151.5t-151.5 -61.5q-72 0 -141.5 38.5t-95.5 96.5l98 39q20 -29 60 -50.5t79 -21.5q45 0 76 31.5t31 79.5q0 68 -55.5 92t-137.5 -9l-86 54l84 162 q-311 10 -508.5 236t-197.5 552q0 334 206.5 561t532.5 227q293 0 476.5 -164.5t201.5 -383.5h-221q-23 127 -137.5 231t-319.5 104q-240 0 -384 -163.5t-144 -411.5q0 -246 144 -410.5t384 -164.5z" glyph-name="glyph453" horiz-adv-x="1615"/><glyph d="M813 1712q-55 0 -94 39t-39 94.5t39 95t94 39.5t95 -39.5t40 -95t-40 -94.5t-95 -39zM813 -20q-324 -2 -531.5 226t-207.5 562t206.5 561t532.5 227q293 0 476.5 -164.5t201.5 -383.5h-221q-23 127 -137.5 231t-319.5 104q-240 0 -384 -163.5t-144 -411.5 q0 -246 144 -410.5t384 -164.5q190 0 313 101t144 218h221q-20 -197 -212 -363.5t-466 -168.5z" glyph-name="glyph454" horiz-adv-x="1615"/><glyph d="M133 1536h451q162 0 299 -47t243.5 -140.5t166 -245t59.5 -343.5q0 -354 -219.5 -557t-548.5 -203h-451v1536zM582 199q242 0 394 142t152 419q0 301 -149.5 441t-396.5 140h-226v-1142h226z" glyph-name="glyph455" horiz-adv-x="1443"/><glyph d="M737 1536q328 0 548 -210t220 -558t-220 -558t-548 -210h-448v702h-156v134h156v700h448zM735 199q238 0 392.5 152.5t154.5 416.5t-154.5 418.5t-392.5 154.5h-225v-505h260v-134h-260v-503h225z" glyph-name="glyph456" horiz-adv-x="1597"/><glyph d="M268 2048h164l160 -246l162 246h164l-213 -350h-228zM133 1536h492q162 0 299 -47t243.5 -140.5t166 -245t59.5 -343.5q0 -354 -219.5 -557t-548.5 -203h-492v1536zM623 199q242 0 394 142t152 419q0 301 -149.5 441t-396.5 140h-267v-1142h267z" glyph-name="glyph457" horiz-adv-x="1484"/><glyph d="M768 1536q162 0 299 -47t243.5 -140.5t166 -245t59.5 -343.5q0 -354 -219 -557t-549 -203h-489v702h-146v134h146v700h489zM766 199q244 0 395.5 141t151.5 420q0 303 -149.5 442t-397.5 139h-266v-505h243v-134h-243v-503h266z" glyph-name="glyph458" horiz-adv-x="1628"/><glyph d="M336 1341v-473h600v-198h-600v-471h686v-199h-911v1536h911v-195h-686z" glyph-name="glyph459" horiz-adv-x="1136"/><glyph d="M668 1724h-170l178 324h221zM336 1341v-473h659v-198h-659v-471h745v-199h-970v1536h970v-195h-745z" glyph-name="glyph460" horiz-adv-x="1198"/><glyph d="M463 1698l-209 350h164l160 -246l161 246h164l-213 -350h-227zM336 1341v-473h659v-198h-659v-471h745v-199h-970v1536h970v-195h-745z" glyph-name="glyph461" horiz-adv-x="1198"/><glyph d="M1081 1341h-745v-473h659v-198h-659v-471h745v-199h-450l-68 -133q106 20 179 -35t73 -151q0 -90 -61.5 -151.5t-151.5 -61.5q-72 0 -141.5 38.5t-95.5 96.5l98 39q20 -29 60 -50.5t79 -21.5q45 0 76 31.5t31 79.5q0 68 -55.5 92t-137.5 -9l-86 54l94 182h-413v1536h970 v-195z" glyph-name="glyph462" horiz-adv-x="1198"/><glyph d="M424 1698h-170l209 350h227l213 -350h-172l-153 252zM336 1341v-473h659v-198h-659v-471h745v-199h-970v1536h970v-195h-745z" glyph-name="glyph463" horiz-adv-x="1198"/><glyph d="M377 1712q-55 0 -94 39t-39 94.5t39 95t94 39.5t95 -39.5t40 -95t-40 -94.5t-95 -39zM780 1712q-55 0 -95 39t-40 94.5t40 95t95 39.5q53 0 93 -39.5t40 -95t-40 -94.5t-93 -39zM336 1341v-473h659v-198h-659v-471h745v-199h-970v1536h970v-195h-745z" glyph-name="glyph464" horiz-adv-x="1198"/><glyph d="M580 1712q-55 0 -95.5 39t-40.5 94.5t40 95t96 39.5q53 0 93 -39.5t40 -95t-40 -94.5t-93 -39zM336 1341v-473h659v-198h-659v-471h745v-199h-970v1536h970v-195h-745z" glyph-name="glyph465" horiz-adv-x="1198"/><glyph d="M336 1341v-473h659v-198h-659v-471h745v-199h-970v1536h970v-195h-745zM580 -127q53 0 93 -40t40 -95t-40 -94t-93 -39q-55 0 -95.5 39t-40.5 94t40.5 95t95.5 40z" glyph-name="glyph466" horiz-adv-x="1198"/><glyph d="M485 1724l-231 324h221l178 -324h-168zM336 1341v-473h659v-198h-659v-471h745v-199h-970v1536h970v-195h-745z" glyph-name="glyph467" horiz-adv-x="1198"/><glyph d="M897 1733h-635v141h635v-141zM336 1341v-473h659v-198h-659v-471h745v-199h-970v1536h970v-195h-745z" glyph-name="glyph468" horiz-adv-x="1198"/><glyph d="M1055 -322l69 -98q-117 -119 -297 -112q-109 6 -175 63t-66 160q0 186 235 309h-710v1536h970v-195h-745v-473h659v-198h-659v-471h745v-199h-67q-115 -18 -198 -106.5t-83 -184.5q0 -57 35 -93t96 -36q117 0 191 98z" glyph-name="glyph469" horiz-adv-x="1243"/><glyph d="M242 1718q-20 121 37 200t157 79q125 0 197 -113q33 -53 82 -53q45 0 64.5 41t4.5 106h131q20 -119 -36 -197.5t-160 -78.5q-119 0 -195 113q-33 53 -82 53q-43 0 -62.5 -42t-4.5 -108h-133zM336 1341v-473h659v-198h-659v-471h745v-199h-970v1536h970v-195h-745z" glyph-name="glyph470" horiz-adv-x="1198"/><glyph d="M338 1341v-473h600v-198h-600v-670h-225v1536h911v-195h-686z" glyph-name="glyph471" horiz-adv-x="1097"/><glyph d="M780 1350q-246 0 -384 -159t-138 -429q0 -258 147.5 -418t362.5 -160q213 0 340 115t131 305h-408v195h633q18 -819 -692 -819q-332 0 -528.5 223t-196.5 559q0 354 197.5 574t517.5 220q268 0 451.5 -133t218.5 -381h-218q-35 145 -155.5 226.5t-278.5 81.5z" glyph-name="glyph472" horiz-adv-x="1564"/><glyph d="M844 1665q-154 0 -250 88t-96 242h129q0 -82 61.5 -141.5t155.5 -59.5q98 0 160.5 59.5t62.5 141.5h127q0 -154 -96 -242t-254 -88zM1458 797v-215v-582h-151l-35 225q-84 -123 -202 -179t-298 -56q-328 0 -523.5 220t-195.5 552q0 350 196.5 568t512.5 218 q266 0 447.5 -132t213.5 -376h-213q-35 143 -154.5 223t-275.5 80q-242 0 -380 -157.5t-138 -423.5q0 -254 146.5 -410.5t359.5 -156.5q219 0 343 111.5t124 299.5h-404v191h627z" glyph-name="glyph473" horiz-adv-x="1564"/><glyph d="M741 1698l-209 350h164l160 -246l162 246h164l-213 -350h-228zM1458 797v-215v-582h-151l-35 225q-84 -123 -202 -179t-298 -56q-328 0 -523.5 220t-195.5 552q0 350 196.5 568t512.5 218q266 0 447.5 -132t213.5 -376h-213q-35 143 -154.5 223t-275.5 80 q-242 0 -380 -157.5t-138 -423.5q0 -254 146.5 -410.5t359.5 -156.5q219 0 343 111.5t124 299.5h-404v191h627z" glyph-name="glyph474" horiz-adv-x="1564"/><glyph d="M1458 797v-215v-582h-151l-35 225q-84 -123 -202 -179t-298 -56q-328 0 -523.5 220t-195.5 552q0 350 196.5 568t512.5 218q266 0 447.5 -132t213.5 -376h-213q-35 143 -154.5 223t-275.5 80q-242 0 -380 -157.5t-138 -423.5q0 -254 146.5 -410.5t359.5 -156.5 q219 0 343 111.5t124 299.5h-404v191h627zM817 -350q-88 35 -88 127q0 55 38 94t95 39q53 0 91 -39t38 -94.5t-46 -139t-89 -135.5h-106z" glyph-name="glyph475" horiz-adv-x="1564"/><glyph d="M876.5 1712q-55.5 0 -94.5 39t-39 94.5t39 95t94.5 39.5t95.5 -39.5t40 -95t-40 -94.5t-95.5 -39zM1458 797v-215v-582h-151l-35 225q-84 -123 -202 -179t-298 -56q-328 0 -523.5 220t-195.5 552q0 350 196.5 568t512.5 218q266 0 447.5 -132t213.5 -376h-213 q-35 143 -154.5 223t-275.5 80q-242 0 -380 -157.5t-138 -423.5q0 -254 146.5 -410.5t359.5 -156.5q219 0 343 111.5t124 299.5h-404v191h627z" glyph-name="glyph476" horiz-adv-x="1564"/><glyph d="M1360 1536v-1536h-223v670h-768v-670h-226v1536h226v-668h768v668h223z" glyph-name="glyph477" horiz-adv-x="1503"/><glyph d="M1628 1157h-133v-1157h-223v670h-770v-670h-223v1157h-136v92h136v287h223v-287h770v287h223v-287h133v-92zM1272 1157h-770v-289h770v289z" glyph-name="glyph478" horiz-adv-x="1771"/><glyph d="M1360 1536v-1536h-223v670h-768v-670h-226v1536h226v-668h768v668h223zM758 -127q53 0 93 -40t40 -95t-40 -94t-93 -39q-55 0 -95 39t-40 94t40 95t95 40z" glyph-name="glyph479" horiz-adv-x="1503"/><glyph d="M143 1536h226v-1536h-226v1536z" glyph-name="glyph480" horiz-adv-x="512"/><glyph d="M223 1536h223v-1536h-223v1536zM946 -20q-94 0 -158 18v229q63 -23 148 -22q63 0 108.5 45t45.5 108v1178h223v-1194q0 -156 -104.5 -259t-262.5 -103z" glyph-name="glyph481" horiz-adv-x="1523"/><glyph d="M352 2048h221l-229 -324h-170zM143 1536h226v-1536h-226v1536z" glyph-name="glyph482" horiz-adv-x="512"/><glyph d="M-74 2048h168l160 -246l162 246h164l-213 -350h-228zM143 1536h226v-1536h-226v1536z" glyph-name="glyph483" horiz-adv-x="512"/><glyph d="M139 2048h228l213 -350h-172l-154 252l-154 -252h-174zM143 1536h226v-1536h-226v1536z" glyph-name="glyph484" horiz-adv-x="512"/><glyph d="M53 1712q-57 0 -97 39t-40 94.5t40 95t97 39.5q53 0 93 -39.5t40 -95t-40 -94.5t-93 -39zM455 1712q-53 0 -93 39t-40 94.5t39.5 95t93.5 39.5q55 0 94 -39.5t39 -95t-39 -94.5t-94 -39zM143 1536h226v-1536h-226v1536z" glyph-name="glyph485" horiz-adv-x="512"/><glyph d="M256 1712q-55 0 -95 39t-40 94.5t40 95t95 39.5q53 0 93 -39.5t40 -95t-40 -94.5t-93 -39zM143 1536h226v-1536h-226v1536z" glyph-name="glyph486" horiz-adv-x="512"/><glyph d="M143 1536h226v-1536h-226v1536zM256 -395q-55 0 -95 39t-40 94t40 95t95 40q53 0 93 -40t40 -95t-40 -94t-93 -39z" glyph-name="glyph487" horiz-adv-x="512"/><glyph d="M-74 2048h224l180 -324h-170zM143 1536h226v-1536h-226v1536z" glyph-name="glyph488" horiz-adv-x="512"/><glyph d="M-66 1874h639v-141h-639v141zM143 1536h226v-1536h-226v1536z" glyph-name="glyph489" horiz-adv-x="512"/><glyph d="M457 -420q-119 -119 -297 -112q-111 6 -178.5 63t-67.5 160q0 184 238 309h-9v1536h226v-1536h-25q-115 -18 -196.5 -106.5t-81.5 -184.5q0 -57 33.5 -93t95.5 -36q117 0 190 98z" glyph-name="glyph490" horiz-adv-x="512"/><glyph d="M395 1702q-121 0 -196 113q-33 53 -80 53q-45 0 -64.5 -42t-5.5 -108h-135q-20 121 38 200t161 79q121 0 196 -113q29 -53 82 -53q43 0 62.5 41t5.5 106h131q20 -119 -35.5 -197.5t-159.5 -78.5zM143 1536h226v-1536h-226v1536z" glyph-name="glyph491" horiz-adv-x="512"/><glyph d="M240 -20q-94 0 -158 18v229q63 -23 147 -22q63 0 108.5 45t45.5 108v1178h223v-1194q0 -156 -104 -259t-262 -103z" glyph-name="glyph492" horiz-adv-x="755"/><glyph d="M991 0l-643 702v-702h-225v1536h225v-713l563 713h269l-602 -764l702 -772h-289z" glyph-name="glyph493" horiz-adv-x="1306"/><glyph d="M1032 0l-684 702v-702h-225v1536h225v-713l604 713h269l-643 -764l743 -772h-289zM612 -360q-88 35 -88 127q0 55 38 94t95 39q53 0 91 -39t38 -94.5t-46 -139.5t-89 -135h-106z" glyph-name="glyph494" horiz-adv-x="1347"/><glyph d="M113 1536h225v-1337h549v-199h-774v1536z" glyph-name="glyph495" horiz-adv-x="968"/><glyph d="M324 2048h219l-230 -324h-170zM113 1536h225v-1337h549v-199h-774v1536z" glyph-name="glyph496" horiz-adv-x="968"/><glyph d="M760 1278q-41 14 -65.5 49t-24.5 78q0 53 39 93t94 40t92 -39t37 -94q0 -102 -133 -277h-107zM113 1536h225v-1337h549v-199h-774v1536z" glyph-name="glyph497" horiz-adv-x="1013"/><glyph d="M113 1536h225v-1337h549v-199h-774v1536zM455 -385q-41 14 -65.5 49t-24.5 78q0 53 38.5 93t94 40t92.5 -39t37 -94t-44 -137t-89 -140h-107z" glyph-name="glyph498" horiz-adv-x="968"/><glyph d="M113 1536h225v-1337h549v-199h-774v1536zM502 -395q-55 0 -95 39t-40 94t39.5 95t95.5 40q53 0 93 -40t40 -95t-40 -94t-93 -39z" glyph-name="glyph499" horiz-adv-x="968"/><glyph d="M1126 199v-199h-774v578l-96 -101h-143l239 254v805h226v-569l90 98h149l-239 -252v-614h548z" glyph-name="glyph500" horiz-adv-x="1208"/><glyph d="M1731 1536v-1536h-224v1217l-467 -1217h-204l-467 1217v-1217h-226v1536h312l481 -1251l487 1251h308z" glyph-name="glyph501" horiz-adv-x="1873"/><glyph d="M1427 1536v-1536h-221l-878 1186v-1186h-226v1536h222l880 -1184v1184h223z" glyph-name="glyph502" horiz-adv-x="1560"/><glyph d="M854 1724h-170l178 324h221zM1427 1536v-1536h-221l-878 1186v-1186h-226v1536h222l880 -1184v1184h223z" glyph-name="glyph503" horiz-adv-x="1560"/><glyph d="M649 1698l-209 350h164l160 -246l162 246h164l-213 -350h-228zM1427 1536v-1536h-221l-878 1186v-1186h-226v1536h222l880 -1184v1184h223z" glyph-name="glyph504" horiz-adv-x="1560"/><glyph d="M1427 1536v-1536h-221l-878 1186v-1186h-226v1536h222l880 -1184v1184h223zM743 -358q-90 35 -90 127q0 55 39 94t94.5 39t92 -39t36.5 -94q0 -53 -45 -137.5t-88 -137.5h-106z" glyph-name="glyph505" horiz-adv-x="1560"/><glyph d="M766 1712q-55 0 -95 39t-40 94.5t40 95t95 39.5q53 0 93 -39.5t40 -95t-40 -94.5t-93 -39zM1427 1536v-1536h-221l-878 1186v-1186h-226v1536h222l880 -1184v1184h223z" glyph-name="glyph506" horiz-adv-x="1560"/><glyph d="M1427 1536v-1536h-221l-878 1186v-1186h-226v1536h222l880 -1184v1184h223zM768 -127q55 0 95 -40t40 -95t-40 -94t-95 -39t-94 39t-39 94t39 95t94 40z" glyph-name="glyph507" horiz-adv-x="1560"/><glyph d="M1417 1536v-1675q0 -152 -101.5 -224.5t-264.5 -70.5v147q70 -2 107.5 29t37.5 119v155l-879 1160v-1176h-215v1536h213l887 -1174v1174h215z" glyph-name="glyph508" horiz-adv-x="1550"/><glyph d="M469 1718q-20 121 36 200t159 79q121 0 196 -113q29 -53 82 -53q43 0 62.5 41t5.5 106h131q20 -119 -35 -197.5t-160 -78.5q-121 0 -196 113q-33 53 -80 53q-45 0 -64.5 -42t-5.5 -108h-131zM1427 1536v-1536h-221l-878 1186v-1186h-226v1536h222l880 -1184v1184h223z " glyph-name="glyph509" horiz-adv-x="1560"/><glyph d="M813 -20q-328 0 -539 228t-211 560t211 560t539 228q326 0 538 -228t212 -560t-212 -560t-538 -228zM813 197q240 0 386.5 162.5t146.5 408.5q0 248 -146.5 411.5t-386.5 163.5t-388.5 -163.5t-148.5 -411.5q0 -244 148.5 -407.5t388.5 -163.5z" glyph-name="glyph510" horiz-adv-x="1642"/><glyph d="M911 2048h219l-229 -324h-170zM813 -20q-328 0 -539 228t-211 560t211 560t539 228q326 0 538 -228t212 -560t-212 -560t-538 -228zM813 197q240 0 386.5 162.5t146.5 408.5q0 248 -146.5 411.5t-386.5 163.5t-388.5 -163.5t-148.5 -411.5q0 -244 148.5 -407.5 t388.5 -163.5z" glyph-name="glyph511" horiz-adv-x="1642"/><glyph d="M489 2048h164l160 -246l162 246h164l-213 -350h-228zM813 -20q-328 0 -539 228t-211 560t211 560t539 228q326 0 538 -228t212 -560t-212 -560t-538 -228zM813 197q240 0 386.5 162.5t146.5 408.5q0 248 -146.5 411.5t-386.5 163.5t-388.5 -163.5t-148.5 -411.5 q0 -244 148.5 -407.5t388.5 -163.5z" glyph-name="glyph512" horiz-adv-x="1642"/><glyph d="M698 2048h228l213 -350h-172l-154 252l-154 -252h-170zM813 -20q-328 0 -539 228t-211 560t211 560t539 228q326 0 538 -228t212 -560t-212 -560t-538 -228zM813 197q240 0 386.5 162.5t146.5 408.5q0 248 -146.5 411.5t-386.5 163.5t-388.5 -163.5t-148.5 -411.5 q0 -244 148.5 -407.5t388.5 -163.5z" glyph-name="glyph513" horiz-adv-x="1642"/><glyph d="M612 1712q-55 0 -95 39t-40 94.5t40 95t95 39.5q53 0 93 -39.5t40 -95t-40 -94.5t-93 -39zM1014 1712q-53 0 -93 39t-40 94.5t40 95t93 39.5q55 0 94 -39.5t39 -95t-39 -94.5t-94 -39zM813 -20q-328 0 -539 228t-211 560t211 560t539 228q326 0 538 -228t212 -560 t-212 -560t-538 -228zM813 197q240 0 386.5 162.5t146.5 408.5q0 248 -146.5 411.5t-386.5 163.5t-388.5 -163.5t-148.5 -411.5q0 -244 148.5 -407.5t388.5 -163.5z" glyph-name="glyph514" horiz-adv-x="1642"/><glyph d="M813 -20q-328 0 -539 228t-211 560t211 560t539 228q326 0 538 -228t212 -560t-212 -560t-538 -228zM813 197q240 0 386.5 162.5t146.5 408.5q0 248 -146.5 411.5t-386.5 163.5t-388.5 -163.5t-148.5 -411.5q0 -244 148.5 -407.5t388.5 -163.5zM813 -395q-55 0 -94 39 t-39 94t39 95t94 40t95 -40t40 -95t-40 -94t-95 -39z" glyph-name="glyph515" horiz-adv-x="1642"/><glyph d="M487 2048h222l178 -324h-168zM813 -20q-328 0 -539 228t-211 560t211 560t539 228q326 0 538 -228t212 -560t-212 -560t-538 -228zM813 197q240 0 386.5 162.5t146.5 408.5q0 248 -146.5 411.5t-386.5 163.5t-388.5 -163.5t-148.5 -411.5q0 -244 148.5 -407.5 t388.5 -163.5z" glyph-name="glyph516" horiz-adv-x="1642"/><glyph d="M844 2048h207l-346 -358h-156zM1217 2048h206l-344 -358h-157zM813 -20q-328 0 -539 228t-211 560t211 560t539 228q326 0 538 -228t212 -560t-212 -560t-538 -228zM813 197q240 0 386.5 162.5t146.5 408.5q0 248 -146.5 411.5t-386.5 163.5t-388.5 -163.5t-148.5 -411.5 q0 -244 148.5 -407.5t388.5 -163.5z" glyph-name="glyph517" horiz-adv-x="1642"/><glyph d="M496 1874h634v-141h-634v141zM813 -20q-328 0 -539 228t-211 560t211 560t539 228q326 0 538 -228t212 -560t-212 -560t-538 -228zM813 197q240 0 386.5 162.5t146.5 408.5q0 248 -146.5 411.5t-386.5 163.5t-388.5 -163.5t-148.5 -411.5q0 -244 148.5 -407.5 t388.5 -163.5z" glyph-name="glyph518" horiz-adv-x="1642"/><glyph d="M1296 1380q125 -111 196 -269.5t71 -342.5q0 -332 -212 -560t-538 -228q-213 0 -385 104l-84 -127h-145l131 199q-127 109 -197 268.5t-70 343.5q0 332 211 560t539 228q213 0 387 -106l84 127h143zM276 768q0 -270 175 -434l630 938q-123 72 -268 71 q-240 0 -388.5 -163.5t-148.5 -411.5zM813 197q240 0 386.5 162.5t146.5 408.5q0 270 -168 432l-631 -938q114 -65 266 -65z" glyph-name="glyph519" horiz-adv-x="1642"/><glyph d="M901 1724h-170l180 324h219zM1296 1380q125 -111 196 -269.5t71 -342.5q0 -332 -212 -560t-538 -228q-213 0 -385 104l-84 -127h-145l131 199q-127 109 -197 268.5t-70 343.5q0 332 211 560t539 228q213 0 387 -106l84 127h143zM276 768q0 -270 175 -434l630 938 q-123 72 -268 71q-240 0 -388.5 -163.5t-148.5 -411.5zM813 197q240 0 386.5 162.5t146.5 408.5q0 270 -168 432l-631 -938q114 -65 266 -65z" glyph-name="glyph520" horiz-adv-x="1642"/><glyph d="M952 1702q-119 0 -194 113q-33 53 -82 53q-43 0 -62.5 -42t-5.5 -108h-133q-20 121 37 200t158 79q125 0 196 -113q33 -53 82 -53q45 0 64.5 41t5.5 106h131q20 -119 -36.5 -197.5t-160.5 -78.5zM813 -20q-328 0 -539 228t-211 560t211 560t539 228q326 0 538 -228 t212 -560t-212 -560t-538 -228zM813 197q240 0 386.5 162.5t146.5 408.5q0 248 -146.5 411.5t-386.5 163.5t-388.5 -163.5t-148.5 -411.5q0 -244 148.5 -407.5t388.5 -163.5z" glyph-name="glyph521" horiz-adv-x="1642"/><glyph d="M2382 1341h-746v-473h660v-198h-660v-471h746v-199h-971v223q-225 -242 -559 -241q-328 0 -558.5 230t-230.5 558t230.5 558.5t558.5 230.5q334 0 559 -242v219h971v-195zM852 197q203 0 359.5 126t199.5 318v258q-43 193 -199.5 318.5t-359.5 125.5 q-240 0 -406.5 -166.5t-166.5 -406.5q0 -238 166.5 -405.5t406.5 -167.5z" glyph-name="glyph522" horiz-adv-x="2498"/><glyph d="M698 1536q180 0 309.5 -142.5t129.5 -326.5q0 -186 -129 -325.5t-310 -139.5h-360v-602h-225v1536h585zM680 786q104 0 178 83t74 196q0 109 -75 192.5t-177 83.5h-342v-555h342z" glyph-name="glyph523" horiz-adv-x="1193"/><glyph d="M694 1321q182 0 309 -129t127 -313q0 -180 -126.5 -305t-309.5 -125h-364v-449h-217v1532h217v-211h364zM688 639q102 0 174 71.5t72 174.5q0 100 -71.5 171.5t-174.5 71.5h-358v-489h358z" glyph-name="glyph524" horiz-adv-x="1189"/><glyph d="M1614 176v-176h-49q-143 0 -252 111l-33 32q-201 -164 -467 -163q-328 0 -539 228t-211 560t211 560t539 228q326 0 538 -228t212 -560q0 -274 -154 -487l45 -48q55 -57 135 -57h25zM813 197q184 0 320 102l-242 254l129 131l235 -246q90 143 91 330q0 248 -146.5 411.5 t-386.5 163.5t-388.5 -163.5t-148.5 -411.5q0 -244 148.5 -407.5t388.5 -163.5z" glyph-name="glyph525" horiz-adv-x="1652"/><glyph d="M1190 0h-250l-379 614h-233v-614h-226v1536h586q180 0 309 -142.5t129 -328.5q0 -156 -97 -283t-243 -153zM680 793q100 0 171 79.5t71 194.5q0 113 -71 193.5t-171 80.5h-352v-548h352z" glyph-name="glyph526" horiz-adv-x="1259"/><glyph d="M719 1724h-170l178 324h221zM1262 0h-250l-379 614h-305v-614h-226v1536h658q180 0 309 -142.5t129 -328.5q0 -156 -97 -283t-243 -153zM752 793q100 0 170.5 79.5t70.5 194.5q0 113 -70.5 193.5t-170.5 80.5h-424v-548h424z" glyph-name="glyph527" horiz-adv-x="1331"/><glyph d="M516 1698l-211 350h164l162 -246l160 246h163l-211 -350h-227zM1262 0h-250l-379 614h-305v-614h-226v1536h658q180 0 309 -142.5t129 -328.5q0 -156 -97 -283t-243 -153zM752 793q100 0 170.5 79.5t70.5 194.5q0 113 -70.5 193.5t-170.5 80.5h-424v-548h424z" glyph-name="glyph528" horiz-adv-x="1331"/><glyph d="M1262 0h-250l-379 614h-305v-614h-226v1536h658q180 0 309 -142.5t129 -328.5q0 -156 -97 -283t-243 -153zM752 793q100 0 170.5 79.5t70.5 194.5q0 113 -70.5 193.5t-170.5 80.5h-424v-548h424zM598 -358q-90 35 -90 127q0 55 39 94t94 39t92 -39t37 -94 q0 -53 -45 -137.5t-88 -137.5h-107z" glyph-name="glyph529" horiz-adv-x="1331"/><glyph d="M625 -20q-238 0 -385.5 134t-165.5 343l207 -2q23 -113 105.5 -189t244.5 -76q143 0 228 58.5t87 175.5q0 78 -55 137.5t-110.5 84t-174.5 69.5q-29 10 -43 16q-70 27 -106.5 42t-98 45t-95.5 58.5t-70.5 68.5t-53 91t-16.5 111q0 190 148.5 299.5t361.5 109.5 q471 0 551 -456h-207q-14 111 -98 189.5t-242 78.5q-117 0 -201 -55.5t-84 -153.5q0 -33 10.5 -61.5t40 -55t49 -42t73 -40t73.5 -32.5t86 -35q225 -86 305 -139q184 -121 185 -324q0 -215 -156.5 -332.5t-392.5 -117.5z" glyph-name="glyph530" horiz-adv-x="1236"/><glyph d="M803 2048h221l-229 -326h-170zM634.5 -20q-237.5 0 -390 135t-170.5 342l207 -2q20 -111 109 -188t251 -77q145 0 234.5 59.5t91.5 174.5q0 49 -22.5 91t-49.5 67.5t-88.5 56.5t-93 43t-111.5 39q-18 6 -29 10q-106 39 -166.5 65.5t-136 77t-111.5 118t-36 155.5 q0 188 153.5 298.5t366.5 110.5q473 0 551 -446h-207q-14 106 -101 182t-239 76q-119 0 -207 -55.5t-88 -153.5q0 -61 53.5 -113.5t99.5 -74t161 -66.5q18 -8 28 -12q227 -88 305 -135q195 -123 195 -328q0 -215 -161 -332.5t-398.5 -117.5z" glyph-name="glyph531" horiz-adv-x="1255"/><glyph d="M381 2048h164l160 -248l161 248h164l-213 -350h-227zM634.5 -20q-237.5 0 -390 135t-170.5 342l207 -2q20 -111 109 -188t251 -77q145 0 234.5 59.5t91.5 174.5q0 49 -22.5 91t-49.5 67.5t-88.5 56.5t-93 43t-111.5 39q-18 6 -29 10q-106 39 -166.5 65.5t-136 77 t-111.5 118t-36 155.5q0 188 153.5 298.5t366.5 110.5q473 0 551 -446h-207q-14 106 -101 182t-239 76q-119 0 -207 -55.5t-88 -153.5q0 -61 53.5 -113.5t99.5 -74t161 -66.5q18 -8 28 -12q227 -88 305 -135q195 -123 195 -328q0 -215 -161 -332.5t-398.5 -117.5z" glyph-name="glyph532" horiz-adv-x="1255"/><glyph d="M694 893q227 -88 305 -135q195 -123 195 -328q0 -203 -144.5 -319.5t-363.5 -128.5l-57 -115q104 20 178 -34t74 -150q0 -90 -62.5 -152.5t-152.5 -62.5q-70 0 -138.5 39.5t-97.5 97.5l96 39q20 -31 61.5 -51.5t78.5 -20.5q45 0 76.5 31.5t31.5 79.5q0 66 -56 90t-138 -9 l-84 54l84 164q-215 16 -352.5 148t-153.5 327l207 -2q20 -111 109 -188t251 -77q145 0 234.5 59.5t91.5 174.5q0 49 -22.5 91t-49.5 67.5t-88.5 56.5t-93 43t-111.5 39q-18 6 -29 10q-106 39 -166.5 65.5t-136 77t-111.5 118t-36 155.5q0 188 153.5 298.5t366.5 110.5 q473 0 551 -446h-207q-14 106 -101 182t-239 76q-119 0 -207 -55.5t-88 -153.5q0 -61 53.5 -113.5t99.5 -74t161 -66.5q18 -8 28 -12z" glyph-name="glyph533" horiz-adv-x="1255"/><glyph d="M634.5 -20q-237.5 0 -390 135t-170.5 342l207 -2q20 -111 109 -188t251 -77q145 0 234.5 59.5t91.5 174.5q0 49 -22.5 91t-49.5 67.5t-88.5 56.5t-93 43t-111.5 39q-18 6 -29 10q-106 39 -166.5 65.5t-136 77t-111.5 118t-36 155.5q0 188 153.5 298.5t366.5 110.5 q473 0 551 -446h-207q-14 106 -101 182t-239 76q-119 0 -207 -55.5t-88 -153.5q0 -61 53.5 -113.5t99.5 -74t161 -66.5q18 -8 28 -12q227 -88 305 -135q195 -123 195 -328q0 -215 -161 -332.5t-398.5 -117.5zM625 -412q-39 14 -63.5 49t-24.5 78q0 55 38.5 94t94.5 39 q53 0 91 -38.5t38 -94t-45 -138.5t-90 -138h-107z" glyph-name="glyph534" horiz-adv-x="1255"/><glyph d="M634.5 -20q-237.5 0 -390 135t-170.5 342l207 -2q20 -111 109 -188t251 -77q145 0 234.5 59.5t91.5 174.5q0 49 -22.5 91t-49.5 67.5t-88.5 56.5t-93 43t-111.5 39q-18 6 -29 10q-106 39 -166.5 65.5t-136 77t-111.5 118t-36 155.5q0 188 153.5 298.5t366.5 110.5 q473 0 551 -446h-207q-14 106 -101 182t-239 76q-119 0 -207 -55.5t-88 -153.5q0 -61 53.5 -113.5t99.5 -74t161 -66.5q18 -8 28 -12q227 -88 305 -135q195 -123 195 -328q0 -215 -161 -332.5t-398.5 -117.5zM684 -395q-55 0 -95 40t-40 95q0 53 40 93t95 40q53 0 93 -40 t40 -93q0 -55 -40 -95t-93 -40z" glyph-name="glyph535" horiz-adv-x="1255"/><glyph d="M1155 1341h-453v-1339h-221v1339h-452v197h1126v-197z" glyph-name="glyph536" horiz-adv-x="1212"/><glyph d="M1155 1341h-453v-505h152l96 -50l-178 -84h-70v-700h-221v717l-168 33l111 84h57v505h-452v197h1126v-197z" glyph-name="glyph537" horiz-adv-x="1212"/><glyph d="M524 1698l-209 350h164l160 -246l162 246h164l-213 -350h-228zM1155 1341h-453v-1339h-221v1339h-452v197h1126v-197z" glyph-name="glyph538" horiz-adv-x="1212"/><glyph d="M702 2h-61l-63 -125q104 20 177.5 -35t73.5 -151q0 -90 -62 -151.5t-153 -61.5q-72 0 -140 39t-95 96l96 39q23 -29 63 -50.5t76 -21.5q45 0 77 32t32 79q0 68 -56.5 92t-138.5 -8l-84 53l91 174h-54v1339h-452v197h1126v-197h-453v-1339z" glyph-name="glyph539" horiz-adv-x="1212"/><glyph d="M1155 1341h-453v-1339h-221v1339h-452v197h1126v-197zM553 -399q-90 35 -90 127q0 55 39 94t94 39t92 -39t37 -94q0 -53 -45 -137.5t-88 -137.5h-107z" glyph-name="glyph540" horiz-adv-x="1212"/><glyph d="M1155 1341h-453v-1339h-221v1339h-452v197h1126v-197zM594 -127q53 0 93 -40t40 -95t-40 -94t-93 -39q-55 0 -95 39t-40 94t40 95t95 40z" glyph-name="glyph541" horiz-adv-x="1212"/><glyph d="M704.5 -20q-249.5 0 -424 151.5t-174.5 370.5v1034h224v-997q0 -152 109.5 -256.5t265 -104.5t265 104.5t109.5 256.5v997h224v-1034q0 -219 -174.5 -370.5t-424 -151.5z" glyph-name="glyph542" horiz-adv-x="1439"/><glyph d="M846 2048h219l-229 -324h-170zM707 -20q-250 0 -425.5 152.5t-175.5 369.5v1034h224v-997q0 -150 109.5 -255.5t267 -105.5t271.5 105.5t114 255.5v997h223v-1034q0 -217 -178 -369.5t-430 -152.5z" glyph-name="glyph543" horiz-adv-x="1452"/><glyph d="M381 2048h164l160 -246l161 246h164l-213 -350h-227zM704.5 -20q-249.5 0 -424 151.5t-174.5 370.5v1034h224v-997q0 -152 109.5 -256.5t265 -104.5t265 104.5t109.5 256.5v997h224v-1034q0 -219 -174.5 -370.5t-424 -151.5z" glyph-name="glyph544" horiz-adv-x="1439"/><glyph d="M633 2048h227l213 -350h-172l-153 252l-154 -252h-170zM707 -20q-250 0 -425.5 152.5t-175.5 369.5v1034h224v-997q0 -150 109.5 -255.5t267 -105.5t271.5 105.5t114 255.5v997h223v-1034q0 -217 -178 -369.5t-430 -152.5z" glyph-name="glyph545" horiz-adv-x="1452"/><glyph d="M547 1712q-55 0 -95 39t-40 94.5t40 95t95 39.5q53 0 93 -39.5t40 -95t-40 -94.5t-93 -39zM948 1712q-53 0 -93 39t-40 94.5t40 95t93 39.5q55 0 94 -39.5t39 -95t-39 -94.5t-94 -39zM707 -20q-250 0 -425.5 152.5t-175.5 369.5v1034h224v-997q0 -150 109.5 -255.5 t267 -105.5t271.5 105.5t114 255.5v997h223v-1034q0 -217 -178 -369.5t-430 -152.5z" glyph-name="glyph546" horiz-adv-x="1452"/><glyph d="M704.5 -20q-249.5 0 -424 151.5t-174.5 370.5v1034h224v-997q0 -152 109.5 -256.5t265 -104.5t265 104.5t109.5 256.5v997h224v-1034q0 -219 -174.5 -370.5t-424 -151.5zM704.5 -395q-55.5 0 -94.5 39t-39 94t39 95t94.5 40t95.5 -40t40 -95t-40 -94t-95.5 -39z" glyph-name="glyph547" horiz-adv-x="1439"/><glyph d="M422 2048h221l178 -324h-168zM707 -20q-250 0 -425.5 152.5t-175.5 369.5v1034h224v-997q0 -150 109.5 -255.5t267 -105.5t271.5 105.5t114 255.5v997h223v-1034q0 -217 -178 -369.5t-430 -152.5z" glyph-name="glyph548" horiz-adv-x="1452"/><glyph d="M778 2048h207l-346 -358h-156zM1151 2048h207l-344 -358h-158zM707 -20q-250 0 -425.5 152.5t-175.5 369.5v1034h224v-997q0 -150 109.5 -255.5t267 -105.5t271.5 105.5t114 255.5v997h223v-1034q0 -217 -178 -369.5t-430 -152.5z" glyph-name="glyph549" horiz-adv-x="1497"/><glyph d="M430 1874h635v-141h-635v141zM707 -20q-250 0 -425.5 152.5t-175.5 369.5v1034h224v-997q0 -150 109.5 -255.5t267 -105.5t271.5 105.5t114 255.5v997h223v-1034q0 -217 -178 -369.5t-430 -152.5z" glyph-name="glyph550" horiz-adv-x="1452"/><glyph d="M1092 1536h223v-1034q0 -186 -136.5 -329.5t-342.5 -180.5h16q-86 -39 -144.5 -117t-58.5 -158q0 -57 35 -92t96 -35q119 0 191 99l69 -101q-121 -121 -297 -110q-109 4 -175 62.5t-66 158.5q0 164 184 281q-244 8 -412 158.5t-168 363.5v1034h224v-997 q0 -150 109.5 -255.5t267 -105.5t271.5 105.5t114 255.5v997z" glyph-name="glyph551" horiz-adv-x="1452"/><glyph d="M747.5 1653q-90.5 0 -155 64.5t-64.5 154.5t64.5 153.5t155.5 63.5q88 0 152.5 -63.5t64.5 -153.5t-63.5 -154.5t-154 -64.5zM747.5 1749q51.5 0 87 35t35.5 88q0 51 -35.5 88t-87 37t-86 -37t-34.5 -88q0 -53 34.5 -88t86 -35zM707 -20q-250 0 -425.5 152.5 t-175.5 369.5v1034h224v-997q0 -150 109.5 -255.5t267 -105.5t271.5 105.5t114 255.5v997h223v-1034q0 -217 -178 -369.5t-430 -152.5z" glyph-name="glyph552" horiz-adv-x="1452"/><glyph d="M887 1702q-119 0 -195 113q-33 53 -82 53q-43 0 -62.5 -42t-4.5 -108h-133q-20 121 37 200t157 79q125 0 197 -113q33 -53 82 -53q45 0 64.5 41t4.5 106h131q20 -119 -36 -197.5t-160 -78.5zM707 -20q-250 0 -425.5 152.5t-175.5 369.5v1034h224v-997 q0 -150 109.5 -255.5t267 -105.5t271.5 105.5t114 255.5v997h223v-1034q0 -217 -178 -369.5t-430 -152.5z" glyph-name="glyph553" horiz-adv-x="1452"/><glyph d="M1483 1536l-617 -1536h-250l-618 1536h252l491 -1276l490 1276h252z" glyph-name="glyph554" horiz-adv-x="1482"/><glyph d="M2169 1536l-455 -1536h-254l-354 1145l-336 -1145h-252l-477 1536h242l362 -1284l352 1284h226l362 -1286l342 1286h242z" glyph-name="glyph555" horiz-adv-x="2217"/><glyph d="M1225 1724h-170l180 324h219zM2169 1536l-455 -1536h-254l-354 1145l-336 -1145h-252l-477 1536h242l362 -1284l352 1284h226l362 -1286l342 1286h242z" glyph-name="glyph556" horiz-adv-x="2217"/><glyph d="M981 1698h-170l211 350h227l211 -350h-170l-153 252zM2169 1536l-455 -1536h-254l-354 1145l-336 -1145h-252l-477 1536h242l362 -1284l352 1284h226l362 -1286l342 1286h242z" glyph-name="glyph557" horiz-adv-x="2217"/><glyph d="M934 1712q-55 0 -94 39t-39 94.5t39 95t94 39.5t95 -39.5t40 -95t-40 -94.5t-95 -39zM1337 1712q-55 0 -95 39t-40 94.5t40 95t95 39.5q53 0 93 -39.5t40 -95t-40 -94.5t-93 -39zM2169 1536l-455 -1536h-254l-354 1145l-336 -1145h-252l-477 1536h242l362 -1284l352 1284 h226l362 -1286l342 1286h242z" glyph-name="glyph558" horiz-adv-x="2217"/><glyph d="M1042 1724l-231 324h221l178 -324h-168zM2169 1536l-455 -1536h-254l-354 1145l-336 -1145h-252l-477 1536h242l362 -1284l352 1284h226l362 -1286l342 1286h242z" glyph-name="glyph559" horiz-adv-x="2217"/><glyph d="M1063 0l-391 600l-391 -600h-256l526 782l-506 754h254l373 -569l375 569h253l-507 -752l526 -784h-256z" glyph-name="glyph560" horiz-adv-x="1345"/><glyph d="M786 729v-729h-223v723l-538 813h249l400 -618l401 618h246z" glyph-name="glyph561" horiz-adv-x="1345"/><glyph d="M764 1724h-170l180 324h219zM786 729v-729h-223v723l-538 813h249l400 -618l401 618h246z" glyph-name="glyph562" horiz-adv-x="1345"/><glyph d="M520 1698h-170l211 350h227l211 -350h-170l-153 252zM786 729v-729h-223v723l-538 813h249l400 -618l401 618h246z" glyph-name="glyph563" horiz-adv-x="1345"/><glyph d="M475 1712q-55 0 -95 39t-40 94.5t40 95t95 39.5q53 0 93 -39.5t40 -95t-40 -94.5t-93 -39zM877 1712q-53 0 -93.5 39t-40.5 94.5t40 95t94 39.5q55 0 94 -39.5t39 -95t-39 -94.5t-94 -39zM786 729v-729h-223v723l-538 813h249l400 -618l401 618h246z" glyph-name="glyph564" horiz-adv-x="1345"/><glyph d="M563 723l-538 813h249l400 -618l401 618h246l-535 -807v-729h-223v723zM676 -127q55 0 95 -40t40 -95t-40 -94t-95 -39t-94 39t-39 94t39 95t94 40z" glyph-name="glyph565" horiz-adv-x="1345"/><glyph d="M582 1724l-230 324h219l181 -324h-170zM786 729v-729h-223v723l-538 813h249l400 -618l401 618h246z" glyph-name="glyph566" horiz-adv-x="1345"/><glyph d="M340 1718q-20 121 36 200t159 79q121 0 196 -113q29 -53 82 -53q43 0 62.5 41t5.5 106h131q20 -119 -35 -197.5t-160 -78.5q-121 0 -196 113q-33 53 -80 53q-45 0 -64.5 -42t-5.5 -108h-131zM786 729v-729h-223v723l-538 813h249l400 -618l401 618h246z" glyph-name="glyph567" horiz-adv-x="1345"/><glyph d="M1247 199v-199h-1165v119l844 1222h-824v195h1127v-117l-846 -1220h864z" glyph-name="glyph568" horiz-adv-x="1331"/><glyph d="M770 1724h-170l178 324h221zM1247 199v-199h-1165v119l844 1222h-824v195h1127v-117l-846 -1220h864z" glyph-name="glyph569" horiz-adv-x="1331"/><glyph d="M565 1698l-209 350h164l160 -246l162 246h164l-213 -350h-228zM1247 199v-199h-1165v119l844 1222h-824v195h1127v-117l-846 -1220h864z" glyph-name="glyph570" horiz-adv-x="1331"/><glyph d="M682 1712q-55 0 -95 39t-40 94.5t40 95t95 39.5q53 0 93 -39.5t40 -95t-40 -94.5t-93 -39zM1247 199v-199h-1165v119l844 1222h-824v195h1127v-117l-846 -1220h864z" glyph-name="glyph571" horiz-adv-x="1331"/><glyph d="M1247 199v-199h-1165v119l844 1222h-824v195h1127v-117l-846 -1220h864zM662 -127q53 0 93 -40t40 -95t-40 -94t-93 -39q-55 0 -95.5 39t-40.5 94t40.5 95t95.5 40z" glyph-name="glyph572" horiz-adv-x="1331"/><glyph d="M383 -18q-141 4 -231.5 86t-90.5 219q0 135 118 220t323 85h225v74q0 207 -209 206q-221 0 -242 -176h-180q14 152 118.5 248t311.5 96q188 0 297 -94t109 -284v-662h-180l-15 129q-53 -74 -145 -112.5t-209 -34.5zM434 143q88 0 172 43t121 115v152h-195 q-131 -2 -195.5 -45t-64.5 -113q0 -68 46 -110t116 -42z" glyph-name="glyph573" horiz-adv-x="987"/><glyph d="M893 1536l-229 -324h-170l178 324h221zM997 326q0 -152 86 -148v-178q-45 0 -69 2q-174 18 -211 141q-47 -68 -149.5 -111.5t-219.5 -43.5q-164 0 -268.5 90t-104.5 241.5t121 247t342 111.5l258 20v31q0 225 -237 225q-106 0 -175 -54t-79 -155h-201q14 168 129 281 t332 113q209 0 326.5 -106.5t117.5 -307.5q0 -94 1 -239.5t1 -159.5zM782 362v173l-223 -21q-272 -23 -272 -186q0 -74 57 -117t135 -43q106 0 193 57t110 137z" glyph-name="glyph574" horiz-adv-x="1136"/><glyph d="M502 1153q-156 0 -252 88t-96 242h129q0 -82 62.5 -141.5t156.5 -59.5q96 0 158.5 59.5t62.5 141.5h129q0 -154 -96 -242t-254 -88zM434 -12q-164 0 -268.5 90t-104.5 241.5t121 247t342 111.5l258 20v31q0 225 -237 225q-106 0 -175 -54t-79 -155h-201q14 168 129 281 t332 113q209 0 326.5 -106.5t117.5 -307.5q0 -94 1 -239.5t1 -159.5q0 -152 86 -148v-178q-45 0 -69 2q-174 18 -211 141q-47 -68 -149.5 -111.5t-219.5 -43.5zM479 168q106 0 193.5 57.5t109.5 136.5v173l-223 -21q-272 -23 -272 -186q0 -74 57 -117t135 -43z" glyph-name="glyph575" horiz-adv-x="1136"/><glyph d="M410 1186l-211 350h163l162 -246l160 246h164l-211 -350h-227zM434 -12q-164 0 -268.5 90t-104.5 241.5t121 247t342 111.5l258 20v31q0 225 -237 225q-106 0 -175 -54t-79 -155h-201q14 168 129 281t332 113q209 0 326.5 -106.5t117.5 -307.5q0 -94 1 -239.5t1 -159.5 q0 -152 86 -148v-178q-45 0 -69 2q-174 18 -211 141q-47 -68 -149.5 -111.5t-219.5 -43.5zM479 168q106 0 193.5 57.5t109.5 136.5v173l-223 -21q-272 -23 -272 -186q0 -74 57 -117t135 -43z" glyph-name="glyph576" horiz-adv-x="1136"/><glyph d="M512 1438l-156 -252h-170l211 350h228l211 -350h-170zM997 326q0 -152 86 -148v-178q-45 0 -69 2q-174 18 -211 141q-47 -68 -149.5 -111.5t-219.5 -43.5q-164 0 -268.5 90t-104.5 241.5t121 247t342 111.5l258 20v31q0 225 -237 225q-106 0 -175 -54t-79 -155h-201 q14 168 129 281t332 113q209 0 326.5 -106.5t117.5 -307.5q0 -94 1 -239.5t1 -159.5zM782 362v173l-223 -21q-272 -23 -272 -186q0 -74 57 -117t135 -43q106 0 193 57t110 137z" glyph-name="glyph577" horiz-adv-x="1136"/><glyph d="M303 1200q-55 0 -95 39t-40 94.5t40 95t95 39.5q53 0 93 -39.5t40 -95t-40 -94.5t-93 -39zM705 1200q-53 0 -93.5 39t-40.5 94.5t40 95t94 39.5q55 0 94 -39.5t39 -95t-39 -94.5t-94 -39zM434 -12q-164 0 -268.5 90t-104.5 241.5t121 247t342 111.5l258 20v31 q0 225 -237 225q-106 0 -175 -54t-79 -155h-201q14 168 129 281t332 113q209 0 326.5 -106.5t117.5 -307.5q0 -94 1 -239.5t1 -159.5q0 -152 86 -148v-178q-45 0 -69 2q-174 18 -211 141q-47 -68 -149.5 -111.5t-219.5 -43.5zM479 168q106 0 193.5 57.5t109.5 136.5v173 l-223 -21q-272 -23 -272 -186q0 -74 57 -117t135 -43z" glyph-name="glyph578" horiz-adv-x="1136"/><glyph d="M434 -12q-164 0 -268.5 90t-104.5 241.5t121 247t342 111.5l258 20v31q0 225 -237 225q-106 0 -175 -54t-79 -155h-201q14 168 129 281t332 113q209 0 326.5 -106.5t117.5 -307.5q0 -94 1 -239.5t1 -159.5q0 -152 86 -148v-178q-45 0 -69 2q-174 18 -211 141 q-47 -68 -149.5 -111.5t-219.5 -43.5zM479 168q106 0 193.5 57.5t109.5 136.5v173l-223 -21q-272 -23 -272 -186q0 -74 57 -117t135 -43zM538.5 -127q55.5 0 95.5 -40t40 -95t-40 -94t-95.5 -39t-94 39t-38.5 94t38.5 95t94 40z" glyph-name="glyph579" horiz-adv-x="1136"/><glyph d="M649 1212h-168l-231 324h221zM997 326q0 -152 86 -148v-178q-45 0 -69 2q-174 18 -211 141q-47 -68 -149.5 -111.5t-219.5 -43.5q-164 0 -268.5 90t-104.5 241.5t121 247t342 111.5l258 20v31q0 225 -237 225q-106 0 -175 -54t-79 -155h-201q14 168 129 281t332 113 q209 0 326.5 -106.5t117.5 -307.5q0 -94 1 -239.5t1 -159.5zM782 362v173l-223 -21q-272 -23 -272 -186q0 -74 57 -117t135 -43q106 0 193 57t110 137z" glyph-name="glyph580" horiz-adv-x="1136"/><glyph d="M811 1221h-635v141h635v-141zM434 -12q-164 0 -268.5 90t-104.5 241.5t121 247t342 111.5l258 20v31q0 225 -237 225q-106 0 -175 -54t-79 -155h-201q14 168 129 281t332 113q209 0 326.5 -106.5t117.5 -307.5q0 -94 1 -239.5t1 -159.5q0 -152 86 -148v-178q-45 0 -69 2 q-174 18 -211 141q-47 -68 -149.5 -111.5t-219.5 -43.5zM479 168q106 0 193.5 57.5t109.5 136.5v173l-223 -21q-272 -23 -272 -186q0 -74 57 -117t135 -43z" glyph-name="glyph581" horiz-adv-x="1136"/><glyph d="M434 -12q-164 0 -268.5 90t-104.5 241.5t121 247t342 111.5l258 20v31q0 225 -237 225q-106 0 -175 -54t-79 -155h-201q14 168 129 281t332 113q209 0 326.5 -106.5t117.5 -307.5q0 -94 1 -239.5t1 -159.5q0 -152 86 -148v-178q-45 0 -69 2q-174 18 -211 141 q-47 -68 -149.5 -111.5t-219.5 -43.5zM479 168q106 0 193.5 57.5t109.5 136.5v173l-223 -21q-272 -23 -272 -186q0 -74 57 -117t135 -43zM745 -532q-111 6 -176 63t-65 160q0 188 239 309h181q-117 -33 -195 -115t-78 -176q0 -57 34 -93t95 -36q117 0 191 98l71 -98 q-123 -122 -297 -112z" glyph-name="glyph582" horiz-adv-x="1136"/><glyph d="M514 1141q-92 0 -156.5 64.5t-64.5 154.5t64.5 153.5t156.5 63.5q88 0 151.5 -63.5t63.5 -153.5t-63.5 -154.5t-151.5 -64.5zM514 1485q-51 0 -87 -37t-36 -88q0 -53 35 -88t88 -35q51 0 86 35t35 88q0 51 -35 88t-86 37zM434 -12q-164 0 -268.5 90t-104.5 241.5t121 247 t342 111.5l258 20v31q0 225 -237 225q-106 0 -175 -54t-79 -155h-201q14 168 129 281t332 113q209 0 326.5 -106.5t117.5 -307.5q0 -94 1 -239.5t1 -159.5q0 -152 86 -148v-178q-45 0 -69 2q-174 18 -211 141q-47 -68 -149.5 -111.5t-219.5 -43.5zM479 168q106 0 193.5 57.5 t109.5 136.5v173l-223 -21q-272 -23 -272 -186q0 -74 57 -117t135 -43z" glyph-name="glyph583" horiz-adv-x="1136"/><glyph d="M176 1206q-20 121 36 200t159 79q125 0 196 -113q29 -53 82 -53q43 0 62.5 41t5.5 106h131q20 -119 -35 -197.5t-160 -78.5q-121 0 -196 113q-33 53 -80 53q-45 0 -64.5 -42t-5.5 -108h-131zM434 -12q-164 0 -268.5 90t-104.5 241.5t121 247t342 111.5l258 20v31 q0 225 -237 225q-106 0 -175 -54t-79 -155h-201q14 168 129 281t332 113q209 0 326.5 -106.5t117.5 -307.5q0 -94 1 -239.5t1 -159.5q0 -152 86 -148v-178q-45 0 -69 2q-174 18 -211 141q-47 -68 -149.5 -111.5t-219.5 -43.5zM479 168q106 0 193.5 57.5t109.5 136.5v173 l-223 -21q-272 -23 -272 -186q0 -74 57 -117t135 -43z" glyph-name="glyph584" horiz-adv-x="1136"/><glyph d="M1890 565q0 -49 -4 -76h-827q14 -156 104 -240.5t226 -84.5q94 0 181 46t118 132h188q-27 -160 -162 -261t-342 -101q-227 0 -375 157l-2 -137h-157l-35 147q-43 -68 -146.5 -113.5t-222.5 -45.5q-164 0 -268.5 90t-104.5 241q0 143 120 238.5t343 120.5l258 29v22 q0 229 -237 229q-106 0 -175 -55t-79 -155h-199q16 168 128 279.5t331 111.5q293 0 395 -203q150 207 428 207q238 -2 377 -160t139 -418zM1065 657h604q-16 137 -92 215t-205 78q-131 0 -210 -79t-97 -214zM782 362v189l-223 -31q-274 -37 -274 -196q0 -76 57 -118t137 -42 q106 0 193 58t110 140z" glyph-name="glyph585" horiz-adv-x="1955"/><glyph d="M682 1044q209 0 342 -152.5t133 -379.5q0 -225 -133 -378.5t-342 -153.5q-211 0 -336 167l-8 -149l-195 2v1536h215v-645q123 153 324 153zM643 172q133 0 217 97.5t84 242.5t-83 243.5t-218 98.5q-102 0 -180 -66.5t-105 -173.5v-202q27 -106 105 -173t180 -67z" glyph-name="glyph586" horiz-adv-x="1230"/><glyph d="M694 1137q227 0 372.5 -164t145.5 -412q0 -246 -144 -409.5t-372 -163.5q-233 0 -368 176l-19 -164l-200 2v1536h233v-563q129 162 352 162zM653 190q145 0 236.5 106.5t91.5 264.5q0 160 -91 266.5t-237 106.5q-115 0 -198.5 -73t-112.5 -189v-219q29 -117 112.5 -190 t198.5 -73zM628.5 -127q55.5 0 95.5 -40t40 -95t-40 -94t-95.5 -39t-94 39t-38.5 94t38.5 95t94 40z" glyph-name="glyph587" horiz-adv-x="1230"/><glyph d="M539 -20q-221 0 -354.5 149.5t-133.5 382.5t133 382.5t355 149.5q219 0 339.5 -115.5t139.5 -266.5h-193q-12 84 -86.5 142t-179.5 58q-139 0 -218 -95t-79 -255t79 -254t218 -94q102 0 175 59.5t91 145.5h191q-16 -98 -64.5 -181.5t-155.5 -145.5t-257 -62z" glyph-name="glyph588" horiz-adv-x="1079"/><glyph d="M651 1536h219l-229 -324h-170zM584 -12q-238 0 -385.5 162.5t-147.5 416.5q0 252 146.5 411t386.5 159q238 0 369.5 -123t150.5 -289h-209q-14 92 -97 155.5t-196 63.5q-150 0 -235.5 -102.5t-85.5 -274.5t87 -276.5t236 -104.5q109 0 188.5 65.5t102.5 158.5h207 q-12 -78 -46 -149t-93.5 -134.5t-157.5 -101t-221 -37.5z" glyph-name="glyph589" horiz-adv-x="1165"/><glyph d="M248 1536h164l161 -246l160 246h164l-211 -350h-227zM584 -12q-238 0 -385.5 162.5t-147.5 416.5q0 252 146.5 411t386.5 159q238 0 369.5 -123t150.5 -289h-209q-14 92 -97 155.5t-196 63.5q-150 0 -235.5 -102.5t-85.5 -274.5t87 -276.5t236 -104.5q109 0 188.5 65.5 t102.5 158.5h207q-12 -78 -46 -149t-93.5 -134.5t-157.5 -101t-221 -37.5z" glyph-name="glyph590" horiz-adv-x="1165"/><glyph d="M604 186q109 0 188.5 65.5t102.5 158.5h207q-12 -78 -46 -149t-93.5 -134.5t-157.5 -101t-221 -37.5h-6l-52 -101q106 20 179 -35t73 -151q0 -90 -61.5 -151.5t-151.5 -61.5q-72 0 -141.5 39t-95.5 96l98 39q20 -29 60 -50.5t79 -21.5q45 0 76 32t31 79q0 68 -55.5 92.5 t-137.5 -8.5l-86 53l82 160q-195 37 -309.5 192.5t-114.5 376.5q0 252 146.5 411t386.5 159q238 0 369.5 -123t150.5 -289h-209q-14 92 -97 155.5t-196 63.5q-150 0 -235.5 -102.5t-85.5 -274.5t86.5 -276.5t236.5 -104.5z" glyph-name="glyph591" horiz-adv-x="1165"/><glyph d="M584 1200q-55 0 -95 39t-40 94.5t39.5 95t95.5 39.5q53 0 93 -39.5t40 -95t-40 -94.5t-93 -39zM584 -12q-238 0 -385.5 162.5t-147.5 416.5q0 252 146.5 411t386.5 159q238 0 369.5 -123t150.5 -289h-209q-14 92 -97 155.5t-196 63.5q-150 0 -235.5 -102.5t-85.5 -274.5 t87 -276.5t236 -104.5q109 0 188.5 65.5t102.5 158.5h207q-12 -78 -46 -149t-93.5 -134.5t-157.5 -101t-221 -37.5z" glyph-name="glyph592" horiz-adv-x="1165"/><glyph d="M1087 1536v-1536l-192 -2l-12 147q-127 -166 -334 -165q-209 0 -341 152.5t-132 379.5t132 379.5t341 152.5q199 0 325 -153v645h213zM588 172q102 0 180 65.5t106 172.5v204q-29 106 -106.5 173t-179.5 67q-133 0 -216 -98.5t-83 -243.5t83 -242.5t216 -97.5z" glyph-name="glyph593" horiz-adv-x="1230"/><glyph d="M805 1405q178 -141 281.5 -376.5t103.5 -516.5q0 -221 -163 -376.5t-394 -155.5q-233 0 -395 155.5t-162 376.5q0 223 161.5 377.5t395.5 154.5q145 0 264 -75q-70 188 -203 293l-104 -132l-70 58l96 121q-127 74 -292 80l43 172q197 0 364 -105l90 115l72 -55zM633 172 q141 0 240.5 99.5t99.5 240.5q0 143 -99.5 242.5t-240.5 99.5q-143 0 -242.5 -99.5t-99.5 -242.5q0 -141 99.5 -240.5t242.5 -99.5z" glyph-name="glyph594" horiz-adv-x="1257"/><glyph d="M1384 1280q-39 14 -63.5 49t-24.5 78q0 55 39 94t95 39q53 0 91 -39t38 -94t-45.5 -138t-90.5 -139h-106zM1159 1536v-1534l-203 -2l-20 156q-129 -166 -363 -166q-229 0 -372.5 160.5t-143.5 406.5t144.5 413t373.5 167q217 0 353 -168v567h231zM614 184q113 0 198 72 t116 188v224q-31 117 -116 189.5t-198 72.5q-145 0 -235 -107.5t-90 -265.5t90 -265.5t235 -107.5z" glyph-name="glyph595" horiz-adv-x="1581"/><glyph d="M1229 1200h-142v-1200l-192 -2l-12 147q-127 -166 -334 -165q-209 0 -341 152.5t-132 379.5t132 379.5t341 152.5q199 0 325 -153v309h-280v133h280v203h213v-203h142v-133zM588 172q102 0 180 65.5t106 172.5v204q-29 106 -106.5 173t-179.5 67q-133 0 -216 -98.5 t-83 -243.5t83 -242.5t216 -97.5z" glyph-name="glyph596" horiz-adv-x="1230"/><glyph d="M1030 518q0 -23 -4 -72h-758q10 -141 93 -220t208 -79q86 0 166 42t109 122h174q-27 -145 -151 -238t-312 -93q-223 0 -362.5 151.5t-139.5 380.5q0 231 136.5 383t365.5 152q217 0 346 -145.5t129 -383.5zM555 870q-119 0 -191.5 -73.5t-91.5 -196.5h555 q-16 127 -85.5 198.5t-186.5 71.5z" glyph-name="glyph597" horiz-adv-x="1083"/><glyph d="M897 1544l-229 -325h-170l178 325h221zM1098 567q0 -49 -4 -75h-815q8 -147 98 -232.5t209 -87.5q104 0 181 46t110 128h192q-23 -141 -144.5 -249.5t-336.5 -106.5q-240 0 -386.5 162.5t-146.5 410.5q0 252 142.5 412t390.5 160q236 0 373 -155t137 -413zM283 659h596 q-16 135 -91 213t-202 78q-129 0 -206 -78t-97 -213z" glyph-name="glyph598" horiz-adv-x="1165"/><glyph d="M463 1194l-209 350h164l160 -248l161 248h164l-213 -350h-227zM1098 567q0 -49 -4 -75h-815q8 -147 98 -232.5t209 -87.5q104 0 181 46t110 128h192q-23 -141 -144.5 -249.5t-336.5 -106.5q-240 0 -386.5 162.5t-146.5 410.5q0 252 142.5 412t390.5 160q236 0 373 -155 t137 -413zM586 950q-129 0 -206 -77.5t-97 -213.5h596q-16 135 -91 213t-202 78z" glyph-name="glyph599" horiz-adv-x="1165"/><glyph d="M1098 567q0 -49 -4 -75h-815q8 -147 98 -232.5t209 -87.5q104 0 181 46t110 128h192q-20 -133 -132 -238.5t-306 -115.5q0 -6 -2 -10l-60 -117q106 20 179 -34t73 -150q0 -90 -61.5 -153t-151.5 -63q-72 0 -140.5 40t-96.5 98l98 39q20 -31 60 -51.5t79 -20.5 q45 0 76 31.5t31 79.5q0 68 -55.5 91t-137.5 -10l-86 54l86 166l-6 12q-211 27 -336 184.5t-125 384.5q0 252 142.5 412t390.5 160q236 0 373 -155t137 -413zM283 659h596q-16 135 -91 213t-202 78q-129 0 -206 -78t-97 -213z" glyph-name="glyph600" horiz-adv-x="1165"/><glyph d="M424 1194h-170l209 350h227l213 -350h-172l-153 250zM1098 567q0 -49 -4 -75h-815q8 -147 98 -232.5t209 -87.5q104 0 181 46t110 128h192q-23 -141 -144.5 -249.5t-336.5 -106.5q-240 0 -386.5 162.5t-146.5 410.5q0 252 142.5 412t390.5 160q236 0 373 -155t137 -413z M586 950q-129 0 -206 -77.5t-97 -213.5h596q-16 135 -91 213t-202 78z" glyph-name="glyph601" horiz-adv-x="1165"/><glyph d="M377 1206q-55 0 -95 40t-40 95.5t40 94.5t95 39q53 0 93 -39t40 -94.5t-40 -95.5t-93 -40zM778 1206q-53 0 -93 40t-40 95.5t40 94.5t93 39q55 0 94 -39t39 -94.5t-39 -95.5t-94 -40zM1098 567q0 -49 -4 -75h-815q8 -147 98 -232.5t209 -87.5q104 0 181 46t110 128h192 q-23 -141 -144.5 -249.5t-336.5 -106.5q-240 0 -386.5 162.5t-146.5 410.5q0 252 142.5 412t390.5 160q236 0 373 -155t137 -413zM586 950q-129 0 -206 -77.5t-97 -213.5h596q-16 135 -91 213t-202 78z" glyph-name="glyph602" horiz-adv-x="1165"/><glyph d="M580 1206q-55 0 -95.5 40t-40.5 95.5t40 94.5t96 39q53 0 93 -39t40 -94.5t-40 -95.5t-93 -40zM1098 567q0 -49 -4 -75h-815q8 -147 98 -232.5t209 -87.5q104 0 181 46t110 128h192q-23 -141 -144.5 -249.5t-336.5 -106.5q-240 0 -386.5 162.5t-146.5 410.5 q0 252 142.5 412t390.5 160q236 0 373 -155t137 -413zM586 950q-129 0 -206 -77.5t-97 -213.5h596q-16 135 -91 213t-202 78z" glyph-name="glyph603" horiz-adv-x="1165"/><glyph d="M1098 567q0 -49 -4 -75h-815q8 -147 98 -232.5t209 -87.5q104 0 181 46t110 128h192q-23 -141 -144.5 -249.5t-336.5 -106.5q-240 0 -386.5 162.5t-146.5 410.5q0 252 142.5 412t390.5 160q236 0 373 -155t137 -413zM586 950q-129 0 -206 -77.5t-97 -213.5h596 q-16 135 -91 213t-202 78zM586 -127q53 0 93 -40t40 -95t-40 -94t-93 -39q-55 0 -95 39t-40 94t40 95t95 40z" glyph-name="glyph604" horiz-adv-x="1165"/><glyph d="M483 1219l-229 325h219l180 -325h-170zM1098 567q0 -49 -4 -75h-815q8 -147 98 -232.5t209 -87.5q104 0 181 46t110 128h192q-23 -141 -144.5 -249.5t-336.5 -106.5q-240 0 -386.5 162.5t-146.5 410.5q0 252 142.5 412t390.5 160q236 0 373 -155t137 -413zM586 950 q-129 0 -206 -77.5t-97 -213.5h596q-16 135 -91 213t-202 78z" glyph-name="glyph605" horiz-adv-x="1165"/><glyph d="M897 1227h-635v141h635v-141zM1098 567q0 -49 -4 -75h-815q8 -147 98 -232.5t209 -87.5q104 0 181 46t110 128h192q-23 -141 -144.5 -249.5t-336.5 -106.5q-240 0 -386.5 162.5t-146.5 410.5q0 252 142.5 412t390.5 160q236 0 373 -155t137 -413zM586 950 q-129 0 -206 -77.5t-97 -213.5h596q-16 135 -91 213t-202 78z" glyph-name="glyph606" horiz-adv-x="1165"/><glyph d="M1098 567q0 -49 -4 -75h-815q8 -147 98 -232.5t209 -87.5q104 0 181 46t110 128h192q-18 -119 -111.5 -219t-252.5 -127l-7 -6q-57 -74 -57 -156q0 -57 34 -92t95 -35q119 0 191 99l71 -101q-123 -121 -297 -110q-109 4 -175 61t-66 160q0 90 55 164v8 q-223 14 -358.5 174t-135.5 397q0 252 142.5 412t390.5 160q236 0 373 -155t137 -413zM283 659h596q-16 135 -91 213t-202 78q-129 0 -206 -78t-97 -213z" glyph-name="glyph607" horiz-adv-x="1165"/><glyph d="M242 1212q-20 119 37 199t157 80q121 0 197 -115q29 -53 82 -53q43 0 62.5 42t4.5 105h131q20 -119 -35 -197.5t-159 -78.5q-121 0 -197 115q-33 53 -80 53q-45 0 -64.5 -43t-4.5 -107h-131zM1098 567q0 -49 -4 -75h-815q8 -147 98 -232.5t209 -87.5q104 0 181 46 t110 128h192q-23 -141 -144.5 -249.5t-336.5 -106.5q-240 0 -386.5 162.5t-146.5 410.5q0 252 142.5 412t390.5 160q236 0 373 -155t137 -413zM586 950q-129 0 -206 -77.5t-97 -213.5h596q-16 135 -91 213t-202 78z" glyph-name="glyph608" horiz-adv-x="1165"/><glyph d="M242 0v860h-172v164h172v188q0 145 98 244.5t238 99.5q119 0 194 -51v-145q-80 43 -176 24q-139 -27 -139 -184v-176h264v-164h-264v-860h-215z" glyph-name="glyph609" horiz-adv-x="768"/><glyph d="M1087 1024v-1004q0 -250 -135 -391t-374 -141q-125 0 -221.5 37t-149.5 93t-81 114.5t-32 113.5h176q12 -78 104.5 -139t215.5 -55q131 6 209 101t75 278v106q-127 -158 -325 -157q-209 0 -341 152.5t-132 379.5t132 379.5t341 152.5t334 -167l12 147h192zM588 172 q100 0 179 66.5t107 173.5v202q-29 106 -107.5 173t-178.5 67q-133 0 -216 -98.5t-83 -243.5t83 -242.5t216 -97.5z" glyph-name="glyph610" horiz-adv-x="1230"/><glyph d="M610 1153q-156 0 -252 88t-96 242h129q0 -82 62.5 -141.5t156.5 -59.5q96 0 158.5 59.5t62.5 141.5h130q0 -154 -96.5 -242t-254.5 -88zM563 -502q-219 -4 -357 82t-151 225q-8 80 28 160t114 121q-47 23 -84 70t-37 104q0 117 145 199q-53 49 -86 128t-33 163 q0 162 126 275.5t321 113.5q162 0 272 -74q23 70 101.5 109.5t148.5 27.5v-158q-47 8 -89 -10t-58 -61q88 -117 88 -234q0 -180 -129 -292.5t-328 -116.5q-147 -2 -221 45q-35 -14 -51.5 -41t-8.5 -53q25 -78 170 -78l224 -4q174 -2 282.5 -70t124.5 -203 q23 -190 -116.5 -308t-395.5 -120zM793 741q0 92 -70 150.5t-174.5 58.5t-171 -59.5t-66.5 -151.5q0 -94 67.5 -153.5t170.5 -59.5q106 0 175 60.5t69 154.5zM864 -104q-14 127 -286 127h-201q-55 -14 -86 -60.5t-31 -101.5q0 -84 82 -131t205 -47q158 0 243.5 59.5 t73.5 153.5z" glyph-name="glyph611" horiz-adv-x="1138"/><glyph d="M477 1186l-211 350h164l162 -246l160 246h163l-210 -350h-228zM563 -502q-219 -4 -357 82t-151 225q-8 80 28 160t114 121q-47 23 -84 70t-37 104q0 117 145 199q-53 49 -86 128t-33 163q0 162 126 275.5t321 113.5q162 0 272 -74q23 70 101.5 109.5t148.5 27.5v-158 q-47 8 -89 -10t-58 -61q88 -117 88 -234q0 -180 -129 -292.5t-328 -116.5q-147 -2 -221 45q-35 -14 -51.5 -41t-8.5 -53q25 -78 170 -78l224 -4q174 -2 282.5 -70t124.5 -203q23 -190 -116.5 -308t-395.5 -120zM793 741q0 92 -70 150.5t-174.5 58.5t-171 -59.5t-66.5 -151.5 q0 -94 67.5 -153.5t170.5 -59.5q106 0 175 60.5t69 154.5zM864 -104q-14 127 -286 127h-201q-55 -14 -86 -60.5t-31 -101.5q0 -84 82 -131t205 -47q158 0 243.5 59.5t73.5 153.5z" glyph-name="glyph612" horiz-adv-x="1138"/><glyph d="M643 1427q39 -14 63.5 -49t24.5 -78q0 -55 -39 -94t-94 -39q-53 0 -91 39t-38 94.5t45 138.5t90 138h107zM563 -502q-219 -4 -357 82t-151 225q-8 80 28 160t114 121q-47 23 -84 70t-37 104q0 117 145 199q-53 49 -86 128t-33 163q0 162 126 275.5t321 113.5 q162 0 272 -74q23 70 101.5 109.5t148.5 27.5v-158q-47 8 -89 -10t-58 -61q88 -117 88 -234q0 -180 -129 -292.5t-328 -116.5q-147 -2 -221 45q-35 -14 -51.5 -41t-8.5 -53q25 -78 170 -78l224 -4q174 -2 282.5 -70t124.5 -203q23 -190 -116.5 -308t-395.5 -120zM793 741 q0 92 -70 150.5t-174.5 58.5t-171 -59.5t-66.5 -151.5q0 -94 67.5 -153.5t170.5 -59.5q106 0 175 60.5t69 154.5zM864 -104q-14 127 -286 127h-201q-55 -14 -86 -60.5t-31 -101.5q0 -84 82 -131t205 -47q158 0 243.5 59.5t73.5 153.5z" glyph-name="glyph613" horiz-adv-x="1138"/><glyph d="M592 1200q-55 0 -95 39t-40 94.5t40 95t95 39.5q53 0 93 -39.5t40 -95t-40 -94.5t-93 -39zM563 -502q-219 -4 -357 82t-151 225q-8 80 28 160t114 121q-47 23 -84 70t-37 104q0 117 145 199q-53 49 -86 128t-33 163q0 162 126 275.5t321 113.5q162 0 272 -74 q23 70 101.5 109.5t148.5 27.5v-158q-47 8 -89 -10t-58 -61q88 -117 88 -234q0 -180 -129 -292.5t-328 -116.5q-147 -2 -221 45q-35 -14 -51.5 -41t-8.5 -53q25 -78 170 -78l224 -4q174 -2 282.5 -70t124.5 -203q23 -190 -116.5 -308t-395.5 -120zM793 741q0 92 -70 150.5 t-174.5 58.5t-171 -59.5t-66.5 -151.5q0 -94 67.5 -153.5t170.5 -59.5q106 0 175 60.5t69 154.5zM864 -104q-14 127 -286 127h-201q-55 -14 -86 -60.5t-31 -101.5q0 -84 82 -131t205 -47q158 0 243.5 59.5t73.5 153.5z" glyph-name="glyph614" horiz-adv-x="1138"/><glyph d="M698 1044q174 0 276.5 -100t102.5 -276v-668h-217v643q0 100 -59.5 155.5t-163.5 55.5q-111 0 -194 -61.5t-83 -159.5v-633h-217v1536h217v-639q57 68 148.5 107.5t189.5 39.5z" glyph-name="glyph615" horiz-adv-x="1216"/><glyph d="M729 1137q190 0 302 -109.5t112 -300.5v-727h-238v700q0 109 -63.5 169.5t-177.5 60.5q-121 0 -211.5 -67.5t-90.5 -174.5v-688h-237v1208h-96v135h96v193h237v-193h304v-135h-304v-231q61 74 161 117t206 43z" glyph-name="glyph616" horiz-adv-x="1216"/><glyph d="M729 1137q190 0 302 -109.5t112 -300.5v-727h-238v700q0 109 -63.5 169.5t-177.5 60.5q-121 0 -211.5 -67.5t-90.5 -174.5v-688h-237v1536h237v-559q61 74 161 117t206 43zM600 -127q53 0 93 -40t40 -95t-40 -94t-93 -39q-55 0 -95 39t-40 94t40 95t95 40z" glyph-name="glyph617" horiz-adv-x="1216"/><glyph d="M270.5 1210q-55.5 0 -95.5 39t-40 94.5t41 95.5t94 40q55 0 95.5 -40t40.5 -95.5t-40 -94.5t-95.5 -39zM162 1024h217v-1024h-217v1024z" glyph-name="glyph618" horiz-adv-x="532"/><glyph d="M143 1024h217v-1024h-217v1024z" glyph-name="glyph619" horiz-adv-x="503"/><glyph d="M352 1536h219l-229 -324h-170zM143 1024h217v-1024h-217v1024z" glyph-name="glyph620" horiz-adv-x="503"/><glyph d="M-76 1536h168l160 -246l162 246h164l-213 -350h-228zM143 1024h217v-1024h-217v1024z" glyph-name="glyph621" horiz-adv-x="503"/><glyph d="M137 1536h228l213 -350h-172l-154 252l-154 -252h-174zM143 1024h217v-1024h-217v1024z" glyph-name="glyph622" horiz-adv-x="503"/><glyph d="M51 1200q-55 0 -96 39t-41 94.5t41 95t96 39.5t95 -39.5t40 -95t-40 -94.5t-95 -39zM455 1200q-55 0 -95.5 39t-40.5 94.5t40 95t96 39.5q53 0 93 -39.5t40 -95t-40 -94.5t-93 -39zM143 1024h217v-1024h-217v1024z" glyph-name="glyph623" horiz-adv-x="503"/><glyph d="M270.5 1210q-55.5 0 -95.5 39t-40 94.5t41 95.5t94 40q55 0 95.5 -40t40.5 -95.5t-40 -94.5t-95.5 -39zM162 1024h217v-1024h-217v1024z" glyph-name="glyph624" horiz-adv-x="624"/><glyph d="M282.5 1210q-55.5 0 -95.5 39t-40 94.5t41 95.5t95 40q55 0 95 -40t40 -95.5t-40 -94.5t-95.5 -39zM174 1024h217v-1024h-217v1024zM293 -426q-55 0 -94 40t-39 95q0 53 39 93t94 40t95 -40t40 -93q0 -55 -40 -95t-95 -40z" glyph-name="glyph625" horiz-adv-x="565"/><glyph d="M-76 1536h223l181 -324h-170zM143 1024h217v-1024h-217v1024z" glyph-name="glyph626" horiz-adv-x="503"/><glyph d="M303 1270q-55 0 -96 41t-41 98t41 98t96 41q57 0 97 -41t40 -98t-40 -98t-97 -41zM921.5 1270q-53.5 0 -93.5 40t-40 95q0 53 40 93t93.5 40t93.5 -40t40 -93q0 -55 -40 -95t-93.5 -40zM602 -510v195h47q90 0 126 38.5t36 122.5v1280h217l2 -1300q0 -336 -381 -336h-47z M193 1075h221v-1075h-221v1075z" glyph-name="glyph627" horiz-adv-x="1234"/><glyph d="M-68 1362h637v-141h-637v141zM143 1024h217v-1024h-217v1024z" glyph-name="glyph628" horiz-adv-x="503"/><glyph d="M252 1200q-55 0 -94 39t-39 94.5t39 95t94 39.5t95 -39.5t40 -95t-40 -94.5t-95 -39zM453 -420q-117 -119 -297 -112q-109 6 -176.5 63t-67.5 160q0 186 238 309h-7v1024h217v-1024h-18q-115 -18 -198 -106.5t-83 -184.5q0 -57 35 -93t97 -36q117 0 190 98z" glyph-name="glyph629" horiz-adv-x="503"/><glyph d="M393 1190q-121 0 -196 113q-33 53 -80 53q-45 0 -64.5 -42t-5.5 -108h-135q-20 121 38 200t161 79q121 0 196 -113q29 -53 82 -53q43 0 62.5 41t5.5 106h131q20 -119 -35.5 -197.5t-159.5 -78.5zM143 1024h217v-1024h-217v1024z" glyph-name="glyph630" horiz-adv-x="503"/><glyph d="M272.5 1210q-55.5 0 -95.5 39t-40 94.5t40 95.5t95 40q53 0 94.5 -40t41.5 -95.5t-40 -94.5t-95.5 -39zM-8 -522v186q86 0 129 41t43 160v1159h217v-1169q0 -117 -34 -198t-93 -120t-123.5 -53t-138.5 -6z" glyph-name="glyph631" horiz-adv-x="520"/><glyph d="M82 -532q-92 0 -139 32v185q49 -39 114 -39q61 0 103.5 45t42.5 112v1221h217v-1235q0 -135 -98.5 -228t-239.5 -93z" glyph-name="glyph632" horiz-adv-x="595"/><glyph d="M143 2v1536h217v-924l338 410h240l-401 -471l485 -553h-240l-422 492v-490h-217z" glyph-name="glyph633" horiz-adv-x="1052"/><glyph d="M115 0v1536h237v-864l377 454h256l-453 -524l512 -602h-260l-432 510v-510h-237zM522 -358q-41 14 -65.5 49t-24.5 78q0 53 39 93t94.5 40t92 -39t36.5 -94.5t-44 -137.5t-89 -139h-106z" glyph-name="glyph634" horiz-adv-x="1071"/><glyph d="M170 0l2 1536h215v-1536h-217z" glyph-name="glyph635" horiz-adv-x="571"/><glyph d="M342 2048h219l-229 -324h-170zM164 0l2 1536h217v-1536h-219z" glyph-name="glyph636" horiz-adv-x="686"/><glyph d="M653 1288q-41 14 -65.5 49t-24.5 78q0 53 39 93t94.5 40t92 -39t36.5 -94t-44 -137t-89 -139h-106zM164 0l2 1536h217v-1536h-219z" glyph-name="glyph637" horiz-adv-x="888"/><glyph d="M164 0l2 1536h217v-1536h-219zM238 -373q-41 14 -66 49t-25 78q0 53 39 93t94.5 40t92.5 -38.5t37 -94t-44 -137.5t-90 -139h-106z" glyph-name="glyph638" horiz-adv-x="686"/><glyph d="M164 0l2 1536h217v-1536h-219zM614 635q-43 0 -73.5 29.5t-30.5 72.5t31.5 74t72.5 31t73 -31t32 -74t-31 -72.5t-74 -29.5z" glyph-name="glyph639" horiz-adv-x="778"/><glyph d="M164 0l2 1536h217v-1536h-219zM280.5 -395q-55.5 0 -94.5 39t-39 94t39 95t94.5 40t95.5 -40t40 -95t-40 -94t-95.5 -39z" glyph-name="glyph640" horiz-adv-x="686"/><glyph d="M627 1055l-238 -250l-6 -6v-799h-219v569l-96 -102h-146l242 256l2 813h217v-584l6 6l88 97h150z" glyph-name="glyph641" horiz-adv-x="686"/><glyph d="M1350 1042q168 0 264 -97t96 -267v-678h-217v653q0 96 -52 148.5t-149 52.5q-104 0 -180 -60.5t-76 -154.5v-639h-217v653q0 96 -53 148.5t-148 52.5q-104 0 -181 -60.5t-77 -154.5v-639h-217v1024h197l10 -129q53 68 142.5 107.5t183.5 39.5q203 0 307 -186 q57 84 157.5 135t209.5 51z" glyph-name="glyph642" horiz-adv-x="1849"/><glyph d="M664 1044q176 0 277 -100t101 -276v-668h-217v643q0 100 -58 155.5t-163 55.5q-113 0 -194.5 -61.5t-81.5 -159.5v-633h-217v1024h196l10 -135q57 72 152 113.5t195 41.5z" glyph-name="glyph643" horiz-adv-x="1140"/><glyph d="M700 1212h-170l179 324h221zM713 1141q188 0 298.5 -109.5t110.5 -302.5v-729h-235v702q0 109 -63.5 170.5t-176.5 61.5q-121 0 -209 -68.5t-88 -175.5v-690h-235v1126h207l18 -157q61 80 162.5 126t210.5 46z" glyph-name="glyph644" horiz-adv-x="1224"/><glyph d="M498 1186l-211 350h164l161 -246l160 246h164l-211 -350h-227zM713 1141q188 0 298.5 -109.5t110.5 -302.5v-729h-235v702q0 109 -63.5 170.5t-176.5 61.5q-121 0 -209 -68.5t-88 -175.5v-690h-235v1126h207l18 -157q61 80 162.5 126t210.5 46z" glyph-name="glyph645" horiz-adv-x="1224"/><glyph d="M713 1141q188 0 298.5 -109.5t110.5 -302.5v-729h-235v702q0 109 -63.5 170.5t-176.5 61.5q-121 0 -209 -68.5t-88 -175.5v-690h-235v1126h207l18 -157q61 80 162.5 126t210.5 46zM559 -381q-41 14 -65.5 49t-24.5 78q0 53 39 93t94 40t92 -39t37 -94q0 -102 -133 -276 h-106z" glyph-name="glyph646" horiz-adv-x="1224"/><glyph d="M612 1200q-55 0 -95 39t-40 94.5t40 95t95 39.5q53 0 93 -39.5t40 -95t-40 -94.5t-93 -39zM713 1141q188 0 298.5 -109.5t110.5 -302.5v-729h-235v702q0 109 -63.5 170.5t-176.5 61.5q-121 0 -209 -68.5t-88 -175.5v-690h-235v1126h207l18 -157q61 80 162.5 126t210.5 46 z" glyph-name="glyph647" horiz-adv-x="1224"/><glyph d="M713 1141q188 0 298.5 -109.5t110.5 -302.5v-729h-235v702q0 109 -63.5 170.5t-176.5 61.5q-121 0 -209 -68.5t-88 -175.5v-690h-235v1126h207l18 -157q61 80 162.5 126t210.5 46zM612 -127q53 0 93 -40t40 -95t-39.5 -94t-93.5 -39q-55 0 -95 39t-40 94t40 95t95 40z " glyph-name="glyph648" horiz-adv-x="1224"/><glyph d="M1122 729v-729h-12v-152q0 -152 -102.5 -224.5t-266.5 -69.5v145q70 -2 111 29.5t41 119.5v152h-6v702q0 109 -63.5 170.5t-176.5 61.5q-121 0 -209 -68.5t-88 -175.5v-690h-235v1126h207l18 -157q61 80 162.5 126t210.5 46q188 0 298.5 -109.5t110.5 -302.5z" glyph-name="glyph649" horiz-adv-x="1224"/><glyph d="M274 1206q-20 121 36.5 200t158.5 79q121 0 197 -113q29 -53 82 -53q43 0 62 41t5 106h131q20 -119 -35 -197.5t-159 -78.5q-121 0 -197 113q-33 53 -80 53q-45 0 -64.5 -42t-4.5 -108h-132zM713 1141q188 0 298.5 -109.5t110.5 -302.5v-729h-235v702q0 109 -63.5 170.5 t-176.5 61.5q-121 0 -209 -68.5t-88 -175.5v-690h-235v1126h207l18 -157q61 80 162.5 126t210.5 46z" glyph-name="glyph650" horiz-adv-x="1224"/><glyph d="M563 -20q-223 0 -367.5 153.5t-144.5 378.5t144.5 378.5t367.5 153.5q225 0 369.5 -153.5t144.5 -378.5t-145.5 -378.5t-368.5 -153.5zM563 172q133 0 217 97.5t84 242.5t-83 243.5t-218 98.5q-133 0 -216 -98.5t-83 -243.5t83 -242.5t216 -97.5z" glyph-name="glyph651" horiz-adv-x="1124"/><glyph d="M686 1536h221l-229 -324h-170zM610.5 -14q-243.5 0 -401.5 166.5t-158 412.5t158 413t401.5 167t401 -167t157.5 -413t-157.5 -412.5t-401 -166.5zM610.5 195q145.5 0 236.5 106.5t91 263.5q0 160 -91 266.5t-236.5 106.5t-236.5 -106.5t-91 -266.5q0 -158 91 -264 t236.5 -106z" glyph-name="glyph652" horiz-adv-x="1216"/><glyph d="M240 1536h163l162 -246l160 246h164l-211 -350h-227zM563 -20q-223 0 -367.5 153.5t-144.5 378.5t144.5 378.5t367.5 153.5q225 0 369.5 -153.5t144.5 -378.5t-145.5 -378.5t-368.5 -153.5zM563 172q133 0 217 97.5t84 242.5t-83 243.5t-218 98.5q-133 0 -216 -98.5 t-83 -243.5t83 -242.5t216 -97.5z" glyph-name="glyph653" horiz-adv-x="1124"/><glyph d="M502 1536h227l213 -350h-172l-154 252l-153 -252h-170zM610.5 -14q-243.5 0 -401.5 166.5t-158 412.5t158 413t401.5 167t401 -167t157.5 -413t-157.5 -412.5t-401 -166.5zM610.5 195q145.5 0 236.5 106.5t91 263.5q0 160 -91 266.5t-236.5 106.5t-236.5 -106.5 t-91 -266.5q0 -158 91 -264t236.5 -106z" glyph-name="glyph654" horiz-adv-x="1216"/><glyph d="M420 1200q-55 0 -95 39t-40 94.5t40 95t95 39.5q53 0 93 -39.5t40 -95t-40 -94.5t-93 -39zM821 1200q-53 0 -93 39t-40 94.5t40 95t93 39.5q55 0 94 -39.5t39 -95t-39 -94.5t-94 -39zM610.5 -14q-243.5 0 -401.5 166.5t-158 412.5t158 413t401.5 167t401 -167t157.5 -413 t-157.5 -412.5t-401 -166.5zM610.5 195q145.5 0 236.5 106.5t91 263.5q0 160 -91 266.5t-236.5 106.5t-236.5 -106.5t-91 -266.5q0 -158 91 -264t236.5 -106z" glyph-name="glyph655" horiz-adv-x="1216"/><glyph d="M563 -20q-223 0 -367.5 153.5t-144.5 378.5t144.5 378.5t367.5 153.5q225 0 369.5 -153.5t144.5 -378.5t-145.5 -378.5t-368.5 -153.5zM563 172q133 0 217 97.5t84 242.5t-83 243.5t-218 98.5q-133 0 -216 -98.5t-83 -243.5t83 -242.5t216 -97.5zM565 -395q-55 0 -95 39 t-40 94t40 95t95 40q53 0 93 -40t40 -95t-40 -94t-93 -39z" glyph-name="glyph656" horiz-adv-x="1124"/><glyph d="M264 1536h219l181 -324h-170zM610.5 -14q-243.5 0 -401.5 166.5t-158 412.5t158 413t401.5 167t401 -167t157.5 -413t-157.5 -412.5t-401 -166.5zM610.5 195q145.5 0 236.5 106.5t91 263.5q0 160 -91 266.5t-236.5 106.5t-236.5 -106.5t-91 -266.5q0 -158 91 -264 t236.5 -106z" glyph-name="glyph657" horiz-adv-x="1216"/><glyph d="M596 1536h207l-346 -358h-158zM969 1536h207l-347 -358h-157zM563 -20q-223 0 -367.5 153.5t-144.5 378.5t144.5 378.5t367.5 153.5q225 0 369.5 -153.5t144.5 -378.5t-145.5 -378.5t-368.5 -153.5zM563 172q133 0 217 97.5t84 242.5t-83 243.5t-218 98.5 q-133 0 -216 -98.5t-83 -243.5t83 -242.5t216 -97.5z" glyph-name="glyph658" horiz-adv-x="1222"/><glyph d="M248 1362h635v-141h-635v141zM563 -20q-223 0 -367.5 153.5t-144.5 378.5t144.5 378.5t367.5 153.5q225 0 369.5 -153.5t144.5 -378.5t-145.5 -378.5t-368.5 -153.5zM563 172q133 0 217 97.5t84 242.5t-83 243.5t-218 98.5q-133 0 -216 -98.5t-83 -243.5t83 -242.5 t216 -97.5z" glyph-name="glyph659" horiz-adv-x="1124"/><glyph d="M954 1028q197 -174 197 -459q0 -246 -155.5 -415.5t-395.5 -169.5q-156 0 -278 75l-80 -125h-111l117 179q-197 168 -197 456q0 250 154.5 418t394.5 168q154 0 279 -74l82 123h110zM279 569q0 -164 92 -268l391 596q-72 49 -162 49q-143 0 -232 -107.5t-89 -269.5z M600 195q143 0 232.5 108.5t89.5 265.5q0 162 -91 269l-391 -598q72 -45 160 -45z" glyph-name="glyph660" horiz-adv-x="1198"/><glyph d="M653 1212h-170l179 324h221zM895 928q182 -156 182 -416q0 -225 -145.5 -378.5t-368.5 -153.5q-141 0 -260 67l-76 -113h-102l108 162q-182 156 -182 416q0 225 144.5 378.5t367.5 153.5q143 0 260 -67l78 113h100zM264 512q0 -150 84 -244l367 543q-63 43 -152 43 q-133 0 -216 -98.5t-83 -243.5zM563 172q133 0 217 97.5t84 242.5t-86 244l-364 -543q65 -41 149 -41z" glyph-name="glyph661" horiz-adv-x="1124"/><glyph d="M729 1190q-121 0 -197 113q-33 53 -79 53q-45 0 -64.5 -42t-5.5 -108h-131q-20 121 36 200t158 79q121 0 197 -113q29 -53 82 -53q43 0 62.5 41t5.5 106h131q20 -119 -35.5 -197.5t-159.5 -78.5zM610.5 -14q-243.5 0 -401.5 166.5t-158 412.5t158 413t401.5 167t401 -167 t157.5 -413t-157.5 -412.5t-401 -166.5zM610.5 195q145.5 0 236.5 106.5t91 263.5q0 160 -91 266.5t-236.5 106.5t-236.5 -106.5t-91 -266.5q0 -158 91 -264t236.5 -106z" glyph-name="glyph662" horiz-adv-x="1216"/><glyph d="M1946 567q0 -49 -4 -75h-816q8 -147 98.5 -232.5t209.5 -87.5q104 0 181 46t109 128h193q-23 -141 -144.5 -249.5t-336.5 -106.5q-274 0 -424 209q-158 -219 -439 -219q-242 0 -399.5 167.5t-157.5 413.5t157 413t400 167q279 0 435 -213q147 207 428 207q236 0 373 -155 t137 -413zM1130 659h596q-16 135 -90.5 213t-201.5 78q-129 0 -206.5 -78t-97.5 -213zM573.5 188q145.5 0 236.5 107.5t91 265.5t-91 265.5t-236.5 107.5t-235.5 -107.5t-90 -265.5t90 -265.5t235.5 -107.5z" glyph-name="glyph663" horiz-adv-x="1988"/><glyph d="M682 1044q209 0 342 -152.5t133 -379.5q0 -225 -133 -378.5t-342 -153.5q-201 0 -324 155v-649l-215 2v1536h215v-133q123 153 324 153zM643 172q133 0 217 97.5t84 242.5t-83 243.5t-218 98.5q-102 0 -180 -66.5t-105 -173.5v-202q27 -106 105 -173t180 -67z" glyph-name="glyph664" horiz-adv-x="1230"/><glyph d="M733 1044q215 0 364.5 -154.5t149.5 -377.5q0 -221 -149.5 -376.5t-364.5 -155.5q-236 0 -373 188v-680h-217v2048h217v-678q137 186 373 186zM702.5 172q141.5 0 240.5 99.5t99 240.5q0 143 -99 242.5t-240.5 99.5t-242 -99.5t-100.5 -242.5q0 -141 100.5 -240.5 t242 -99.5z" glyph-name="glyph665" horiz-adv-x="1318"/><glyph d="M1087 1024v-1536l-213 -2v649q-125 -156 -325 -155q-209 0 -341 152.5t-132 379.5t132 379.5t341 152.5q199 0 325 -153v133h213zM588 172q102 0 180 65.5t106 172.5v204q-29 106 -106.5 173t-179.5 67q-133 0 -216 -98.5t-83 -243.5t83 -242.5t216 -97.5z" glyph-name="glyph666" horiz-adv-x="1230"/><glyph d="M711 1042l-2 -172q-174 8 -275.5 -74.5t-101.5 -250.5v-545h-217v1024h217v-176q33 86 124 143t255 51z" glyph-name="glyph667" horiz-adv-x="749"/><glyph d="M510 1212h-170l180 324h219zM764 1139l-2 -205q-193 8 -302.5 -81t-109.5 -284v-569h-235v1126h215l20 -188q37 88 136.5 146.5t277.5 54.5z" glyph-name="glyph668" horiz-adv-x="802"/><glyph d="M326 1186l-209 350h164l159 -246l162 246h164l-213 -350h-227zM772 1139l-2 -205q-193 8 -302.5 -81t-109.5 -284v-569h-235v1126h215l20 -188q37 88 136.5 146.5t277.5 54.5z" glyph-name="glyph669" horiz-adv-x="811"/><glyph d="M768 1139l-2 -205q-193 8 -302.5 -81t-109.5 -284v-569h-235v1126h215l20 -188q37 88 136.5 146.5t277.5 54.5zM205 -373q-41 14 -65.5 49t-24.5 78q0 53 39 93t94 40t92 -38.5t37 -94t-44 -137.5t-89 -139h-107z" glyph-name="glyph670" horiz-adv-x="806"/><glyph d="M492 -20q-197 0 -308.5 101t-122.5 230h185q14 -72 82.5 -123t156.5 -49t137.5 43t49.5 109q0 70 -62.5 104.5t-183.5 59.5q-72 16 -122 33.5t-104.5 49t-82 82t-27.5 117.5q0 139 110.5 223t278.5 84q158 0 267.5 -78.5t123.5 -226.5h-184q-14 68 -69.5 101.5 t-120.5 38.5q-78 4 -131.5 -27t-53.5 -90q0 -35 17.5 -59.5t57.5 -42t71.5 -26.5t93.5 -24q70 -16 120 -35.5t104 -53.5t83 -89t29 -129q0 -143 -110.5 -233t-284.5 -90z" glyph-name="glyph671" horiz-adv-x="952"/><glyph d="M598 1536h219l-229 -324h-170zM528 -16q-213 0 -333.5 110.5t-133.5 249.5h201q16 -78 92 -133t170 -53t148.5 47t54.5 117q0 74 -67.5 112.5t-200.5 67.5q-76 16 -132.5 35.5t-113.5 53.5t-88 89t-31 129q0 152 121 243t303 91q172 0 290 -86t134 -246h-199 q-14 76 -76.5 113t-131.5 41q-86 4 -143.5 -30t-57.5 -99q0 -31 16.5 -55.5t33.5 -39t61 -30t68 -21.5t83 -20q74 -16 129 -38t113.5 -58.5t90.5 -97t32 -140.5q0 -156 -120 -254t-313 -98z" glyph-name="glyph672" horiz-adv-x="1026"/><glyph d="M176 1536h164l160 -246l162 246h163l-213 -350h-227zM528 -16q-213 0 -333.5 110.5t-133.5 249.5h201q16 -78 92 -133t170 -53t148.5 47t54.5 117q0 74 -67.5 112.5t-200.5 67.5q-76 16 -132.5 35.5t-113.5 53.5t-88 89t-31 129q0 152 121 243t303 91q172 0 290 -86 t134 -246h-199q-14 76 -76.5 113t-131.5 41q-86 4 -143.5 -30t-57.5 -99q0 -31 16.5 -55.5t33.5 -39t61 -30t68 -21.5t83 -20q74 -16 129 -38t113.5 -58.5t90.5 -97t32 -140.5q0 -156 -120 -254t-313 -98z" glyph-name="glyph673" horiz-adv-x="1026"/><glyph d="M528 -16q-213 0 -333.5 110.5t-133.5 249.5h201q16 -78 92 -133t170 -53t148.5 47t54.5 117q0 74 -67.5 112.5t-200.5 67.5q-76 16 -132.5 35.5t-113.5 53.5t-88 89t-31 129q0 152 121 243t303 91q172 0 290 -86t134 -246h-199q-14 76 -76.5 113t-131.5 41 q-86 4 -143.5 -30t-57.5 -99q0 -31 16.5 -55.5t33.5 -39t61 -30t68 -21.5t83 -20q74 -16 129 -38t113.5 -58.5t90.5 -97t32 -140.5q0 -156 -120 -254t-313 -98zM561 -18l-59 -115q106 20 179 -35t73 -151q0 -90 -61.5 -151.5t-151.5 -61.5q-72 0 -141.5 38.5t-96.5 96.5 l98 39q20 -29 60.5 -50.5t79.5 -21.5q45 0 75.5 31.5t30.5 79.5q0 68 -55 92t-137 -9l-86 54l84 164h108z" glyph-name="glyph674" horiz-adv-x="1026"/><glyph d="M528 -16q-213 0 -333.5 110.5t-133.5 249.5h201q16 -78 92 -133t170 -53t148.5 47t54.5 117q0 74 -67.5 112.5t-200.5 67.5q-76 16 -132.5 35.5t-113.5 53.5t-88 89t-31 129q0 152 121 243t303 91q172 0 290 -86t134 -246h-199q-14 76 -76.5 113t-131.5 41 q-86 4 -143.5 -30t-57.5 -99q0 -31 16.5 -55.5t33.5 -39t61 -30t68 -21.5t83 -20q74 -16 129 -38t113.5 -58.5t90.5 -97t32 -140.5q0 -156 -120 -254t-313 -98zM469 -408q-39 14 -63.5 49t-24.5 78q0 55 39 94.5t94 39.5q53 0 91 -39t38 -94.5t-45 -138.5t-90 -138h-107z " glyph-name="glyph675" horiz-adv-x="1026"/><glyph d="M528 -16q-213 0 -333.5 110.5t-133.5 249.5h201q16 -78 92 -133t170 -53t148.5 47t54.5 117q0 74 -67.5 112.5t-200.5 67.5q-76 16 -132.5 35.5t-113.5 53.5t-88 89t-31 129q0 152 121 243t303 91q172 0 290 -86t134 -246h-199q-14 76 -76.5 113t-131.5 41 q-86 4 -143.5 -30t-57.5 -99q0 -31 16.5 -55.5t33.5 -39t61 -30t68 -21.5t83 -20q74 -16 129 -38t113.5 -58.5t90.5 -97t32 -140.5q0 -156 -120 -254t-313 -98zM518 -395q-55 0 -95 39t-40 94t40 95t95 40q53 0 93 -40t40 -95t-40 -94t-93 -39z" glyph-name="glyph676" horiz-adv-x="1026"/><glyph d="M1010 793q109 -57 173 -160t64 -225q0 -178 -119.5 -303t-289.5 -125q-86 0 -184.5 32.5t-155.5 85.5l88 164q39 -35 98 -58.5t115 -21.5q92 2 161.5 71t69.5 167q0 106 -79 182t-189 76h-105v178h43q104 0 179 74t75 178q0 102 -76.5 170t-195.5 68q-127 0 -211 -75 t-84 -188v-1083h-215v1083q0 197 144.5 325t361.5 128q209 0 345 -121t136 -303q1 -196 -149 -319z" glyph-name="glyph677" horiz-adv-x="1376"/><glyph d="M647 -2q-45 -18 -103.5 -21.5t-123 13t-117.5 51.5t-88 105.5t-35 166.5v547h-133v164h133v348h217v-348h260v-164h-260v-549q0 -78 40 -119.5t96.5 -41.5t115.5 14z" glyph-name="glyph678" horiz-adv-x="716"/><glyph d="M610 190h131v-192h-131q-184 0 -282.5 67.5t-98.5 266.5v112h-176v136h176l2 366h-182v184h182v406h222v-406h278v-186l-282 2v-366h239v-136h-239v-92q0 -84 35.5 -123t125.5 -39z" glyph-name="glyph679" horiz-adv-x="813"/><glyph d="M637 1327q-88 35 -88 127q0 55 38 94t95 39q53 0 91 -39t38 -94t-46 -139t-89 -135h-107zM608 -2q-184 0 -282.5 67.5t-98.5 266.5l2 614h-182v184h182v406h222v-406h278v-186l-283 2v-594q0 -84 36 -123t126 -39h131v-192h-131z" glyph-name="glyph680" horiz-adv-x="870"/><glyph d="M608 -2q-184 0 -282.5 67.5t-98.5 266.5l2 614h-182v184h182v406h222v-406h278v-186l-283 2v-594q0 -84 36 -123t126 -39h131v-192h-131zM465 -133q104 20 178 -35t74 -151q0 -90 -62.5 -151.5t-152.5 -61.5q-72 0 -140.5 38.5t-95.5 96.5l96 39q23 -29 63 -50.5 t77 -21.5q45 0 76.5 31.5t31.5 79.5q0 68 -56 92t-138 -9l-84 54l90 176l100 -10z" glyph-name="glyph681" horiz-adv-x="835"/><glyph d="M608 -2q-184 0 -282.5 67.5t-98.5 266.5l2 614h-182v184h182v406h222v-406h278v-186l-283 2v-594q0 -84 36 -123t126 -39h131v-192h-131zM389 -399q-41 14 -65.5 49t-24.5 78q0 53 39 93t94 40t92 -39t37 -94.5t-44 -137.5t-89 -139h-106z" glyph-name="glyph682" horiz-adv-x="808"/><glyph d="M608 -2q-184 0 -282.5 67.5t-98.5 266.5l2 614h-182v184h182v406h222v-406h278v-186l-283 2v-594q0 -84 36 -123t126 -39h131v-192h-131zM428 -127q55 0 95 -40t40 -95t-40 -94t-95 -39t-94 39t-39 94t39 95t94 40z" glyph-name="glyph683" horiz-adv-x="808"/><glyph d="M1049 1024v-1024h-195l-12 139q-55 -74 -149.5 -116.5t-192.5 -42.5q-170 0 -277.5 109.5t-107.5 281.5v653h217v-627q0 -102 61.5 -163.5t163.5 -61.5q109 0 193 63.5t84 161.5v627h215z" glyph-name="glyph684" horiz-adv-x="1150"/><glyph d="M702 1212h-170l179 324h221zM1133 1126v-1126h-209l-17 162q-61 -80 -163.5 -127t-208.5 -47q-184 0 -301 119.5t-117 308.5v710h235v-684q0 -111 66.5 -178t179.5 -67q119 0 210 69.5t91 175.5v684h234z" glyph-name="glyph685" horiz-adv-x="1234"/><glyph d="M500 1186l-211 350h164l161 -246l160 246h164l-211 -350h-227zM1133 1126v-1126h-209l-17 162q-61 -80 -163.5 -127t-208.5 -47q-184 0 -301 119.5t-117 308.5v710h235v-684q0 -111 66.5 -178t179.5 -67q119 0 210 69.5t91 175.5v684h234z" glyph-name="glyph686" horiz-adv-x="1234"/><glyph d="M459 1186h-170l211 350h227l211 -350h-170l-154 252zM1133 1126v-1126h-209l-17 162q-61 -80 -163.5 -127t-208.5 -47q-184 0 -301 119.5t-117 308.5v710h235v-684q0 -111 66.5 -178t179.5 -67q119 0 210 69.5t91 175.5v684h234z" glyph-name="glyph687" horiz-adv-x="1234"/><glyph d="M411.5 1200q-55.5 0 -94 39t-38.5 94.5t38.5 95t94 39.5t95.5 -39.5t40 -95t-40 -94.5t-95.5 -39zM815 1200q-55 0 -95 39t-40 94.5t40 95t95 39.5q53 0 93 -39.5t40 -95t-40 -94.5t-93 -39zM1133 1126v-1126h-209l-17 162q-61 -80 -163.5 -127t-208.5 -47 q-184 0 -301 119.5t-117 308.5v710h235v-684q0 -111 66.5 -178t179.5 -67q119 0 210 69.5t91 175.5v684h234z" glyph-name="glyph688" horiz-adv-x="1234"/><glyph d="M518 1212l-229 324h219l180 -324h-170zM1133 1126v-1126h-209l-17 162q-61 -80 -163.5 -127t-208.5 -47q-184 0 -301 119.5t-117 308.5v710h235v-684q0 -111 66.5 -178t179.5 -67q119 0 210 69.5t91 175.5v684h234z" glyph-name="glyph689" horiz-adv-x="1234"/><glyph d="M506 1178h-158l297 358h207zM721 1178l297 358h207l-346 -358h-158zM1133 1126v-1126h-209l-17 162q-61 -80 -163.5 -127t-208.5 -47q-184 0 -301 119.5t-117 308.5v710h235v-684q0 -111 66.5 -178t179.5 -67q119 0 210 69.5t91 175.5v684h234z" glyph-name="glyph690" horiz-adv-x="1327"/><glyph d="M932 1221h-635v141h635v-141zM1133 1126v-1126h-209l-17 162q-61 -80 -163.5 -127t-208.5 -47q-184 0 -301 119.5t-117 308.5v710h235v-684q0 -111 66.5 -178t179.5 -67q119 0 210 69.5t91 175.5v684h234z" glyph-name="glyph691" horiz-adv-x="1234"/><glyph d="M1120 -322l72 -98q-119 -119 -297 -112q-111 6 -176.5 63t-65.5 160q0 188 230 309h41l-17 162q-61 -80 -163.5 -127t-208.5 -47q-184 0 -301 119.5t-117 308.5v710h235v-684q0 -111 66.5 -178t179.5 -67q119 0 210 69.5t91 175.5v684h234v-1126h-54 q-115 -18 -196.5 -106.5t-81.5 -184.5q0 -57 33.5 -93t95.5 -36q116 0 190 98z" glyph-name="glyph692" horiz-adv-x="1294"/><glyph d="M614 1141q-92 0 -156.5 64.5t-64.5 154.5t64.5 153.5t156.5 63.5q88 0 151.5 -63.5t63.5 -153.5t-63.5 -154.5t-151.5 -64.5zM614.5 1485q-51.5 0 -87 -37t-35.5 -88q0 -53 34.5 -88t87.5 -35q51 0 86 35t35 88q0 51 -34.5 88t-86 37zM1133 1126v-1126h-209l-17 162 q-61 -80 -163.5 -127t-208.5 -47q-184 0 -301 119.5t-117 308.5v710h235v-684q0 -111 66.5 -178t179.5 -67q119 0 210 69.5t91 175.5v684h234z" glyph-name="glyph693" horiz-adv-x="1234"/><glyph d="M1038 1024l-411 -1024h-207l-410 1024h234l280 -780l283 780h231z" glyph-name="glyph694" horiz-adv-x="1048"/><glyph d="M1522 1024l-320 -1024h-244l-178 651l-178 -651h-242l-321 1024h244l206 -772l201 772h197l196 -774l197 774h242z" glyph-name="glyph695" horiz-adv-x="1558"/><glyph d="M879 1212h-170l178 324h221zM1669 1122l-348 -1122h-264l-195 713l-192 -713h-264l-351 1122h264l228 -846l217 846h213l215 -848l215 848h262z" glyph-name="glyph696" horiz-adv-x="1703"/><glyph d="M674 1186h-170l211 350h227l211 -350h-170l-154 252zM1669 1122l-348 -1122h-264l-195 713l-192 -713h-264l-351 1122h264l228 -846l217 846h213l215 -848l215 848h262z" glyph-name="glyph697" horiz-adv-x="1703"/><glyph d="M628.5 1200q-55.5 0 -94 39t-38.5 94.5t38.5 95t94 39.5t95.5 -39.5t40 -95t-40 -94.5t-95.5 -39zM1032 1200q-55 0 -95 39t-40 94.5t40 95t95 39.5q53 0 93 -39.5t40 -95t-40 -94.5t-93 -39zM1669 1122l-348 -1122h-264l-195 713l-192 -713h-264l-351 1122h264l228 -846 l217 846h213l215 -848l215 848h262z" glyph-name="glyph698" horiz-adv-x="1703"/><glyph d="M676 1212l-232 324h222l178 -324h-168zM1669 1122l-348 -1122h-264l-195 713l-192 -713h-264l-351 1122h264l228 -846l217 846h213l215 -848l215 848h262z" glyph-name="glyph699" horiz-adv-x="1703"/><glyph d="M662 512l362 -512h-252l-242 356l-239 -356h-252l360 512l-360 512h250l241 -356l244 356h250z" glyph-name="glyph700" horiz-adv-x="1142"/><glyph d="M1100 1026l-617 -1542h-194l207 516l-437 1026h220l317 -752l295 752h209z" glyph-name="glyph701" horiz-adv-x="1142"/><glyph d="M682 1212h-170l178 324h221zM1174 1126l-670 -1667h-215l248 615h-56l-436 1052h234l346 -825l321 825h228z" glyph-name="glyph702" horiz-adv-x="1234"/><glyph d="M428 1186h-170l211 350h227l211 -350h-170l-153 252zM1174 1126l-670 -1667h-215l248 615h-56l-436 1052h234l346 -825l321 825h228z" glyph-name="glyph703" horiz-adv-x="1234"/><glyph d="M391 1200q-55 0 -94 39t-39 94.5t39 95t94 39.5t95 -39.5t40 -95t-40 -94.5t-95 -39zM795 1200q-55 0 -95.5 39t-40.5 94.5t40 95t96 39.5q53 0 93 -39.5t40 -95t-40 -94.5t-93 -39zM1174 1126l-670 -1667h-215l248 615h-56l-436 1052h234l346 -825l321 825h228z" glyph-name="glyph704" horiz-adv-x="1234"/><glyph d="M498 1212l-230 324h219l181 -324h-170zM1174 1126l-670 -1667h-215l248 615h-56l-436 1052h234l346 -825l321 825h228z" glyph-name="glyph705" horiz-adv-x="1234"/><glyph d="M96 156l566 690h-558v178h838v-150l-567 -694h579v-180h-858v156z" glyph-name="glyph706" horiz-adv-x="1015"/><glyph d="M655 1536h219l-229 -324h-170zM96 156l596 690h-588v178h869v-150l-598 -694h610v-180h-889v156z" glyph-name="glyph707" horiz-adv-x="1046"/><glyph d="M233 1536h164l160 -246l162 246h164l-213 -350h-228zM96 156l596 690h-588v178h869v-150l-598 -694h610v-180h-889v156z" glyph-name="glyph708" horiz-adv-x="1046"/><glyph d="M557 1200q-55 0 -94 39t-39 94.5t39 95t94 39.5t95 -39.5t40 -95t-40 -94.5t-95 -39zM96 156l596 690h-588v178h869v-150l-598 -694h610v-180h-889v156z" glyph-name="glyph709" horiz-adv-x="1046"/><glyph d="M96 156l596 690h-588v178h869v-150l-598 -694h610v-180h-889v156zM540.5 -395q-55.5 0 -94 39t-38.5 94t38.5 95t94 40t95.5 -40t40 -95t-40 -94t-95.5 -39z" glyph-name="glyph710" horiz-adv-x="1046"/><glyph d="M1190 1139v-1094q0 -272 -147.5 -426t-407.5 -154q-135 0 -241.5 40t-165 102.5t-88 125t-34.5 122.5h193q12 -84 112.5 -149.5t235.5 -59.5q141 4 227.5 107.5t83.5 301.5l-2 117q-139 -172 -354 -172q-227 0 -371.5 167t-144.5 414.5t143.5 413.5t372.5 166t365 -182 l12 160h211zM645 211q109 0 195 72.5t116 189.5v219q-31 115 -116.5 188.5t-194.5 73.5q-145 0 -236.5 -107.5t-91.5 -265t91.5 -264t236.5 -106.5z" glyph-name="glyph711" horiz-adv-x="1318"/><glyph d="M260 0v940h-158v170h158v88q0 139 76 235.5t209 110.5q68 6 136.5 -7t102.5 -38l-2 -172q-27 14 -63.5 25.5t-84.5 12.5t-81 -22q-72 -49 -72 -165v-68h244v-170h-244v-940h-221zM1075 1274q-53 0 -92 38t-39 93t39 94t92 39t92 -39t39 -94t-39 -93t-92 -38zM961 1126 h231v-1126h-231v1126z" glyph-name="glyph712" horiz-adv-x="1329"/><glyph d="M260 0v940h-158v170h158v88q0 139 76 235.5t209 110.5q68 6 136.5 -7t102.5 -38l-2 -172q-27 14 -63.5 25.5t-84.5 12.5t-81 -22q-72 -49 -72 -165v-68h244v-170h-244v-940h-221zM1022 0l2 1536h217v-1536h-219z" glyph-name="glyph713" horiz-adv-x="1421"/><glyph d="M721 1536v-614h-111v122q-84 -135 -243 -135q-127 0 -218.5 93.5t-91.5 226.5t91.5 226t218.5 93q160 0 243 -135v123h111zM389 1008q92 0 156.5 64.5t64.5 156.5t-64.5 156.5t-156.5 64.5t-156.5 -64.5t-64.5 -156.5t64.5 -156.5t156.5 -64.5z" glyph-name="glyph714" horiz-adv-x="825"/><glyph d="M389 909q-139 0 -235.5 93.5t-96.5 226.5t96.5 226t235.5 93t235.5 -93t96.5 -226t-96.5 -226.5t-235.5 -93.5zM389 1008q92 0 156.5 64.5t64.5 156.5t-64.5 156.5t-156.5 64.5t-156.5 -64.5t-64.5 -156.5t64.5 -156.5t156.5 -64.5z" glyph-name="glyph715" horiz-adv-x="778"/><glyph d="M68 125l612 1429h248l604 -1427v-127h-1464v125zM1300 178l-335 778q-10 25 -77 190t-83 218h-21q-8 -29 -33.5 -94.5t-59.5 -149.5t-50 -125l-356 -817h1015z" glyph-name="glyph716" horiz-adv-x="1597"/><glyph d="M1266 0l-500 1286l-498 -1286h-243l616 1536h250l616 -1536h-241z" glyph-name="glyph717" horiz-adv-x="1533"/><glyph d="M143 1536h891v-195h-891v195zM254 868h672v-198h-672v198zM143 199h891v-199h-891v199z" glyph-name="glyph718" horiz-adv-x="1208"/><glyph d="M111 160h323v12q-123 100 -206 269t-83 370q0 311 213 520t543 209q332 0 538 -215t206 -510q0 -199 -86 -374t-207 -269v-12h327v-160h-612v117q158 84 264.5 258t106.5 405q-2 242 -145.5 421t-389.5 179q-244 0 -396.5 -172t-152.5 -430q0 -227 108.5 -406t262.5 -255 v-117h-614v160z" glyph-name="glyph719" horiz-adv-x="1789"/><glyph d="M899 1126h234v-1126h-209l-17 162q-61 -80 -163.5 -127t-208.5 -47q-123 0 -222 57v-557h-161v745q-35 82 -35 183v710h235v-684q0 -111 66.5 -178t179.5 -67q119 0 210 69.5t91 175.5v684z" glyph-name="glyph720" horiz-adv-x="1271"/><glyph d="M145 0q63 172 113.5 454.5t58.5 506.5q-188 0 -278 -27q4 18 10 51q23 106 45 123q23 18 133 16h2h2l2 -2q84 -2 142 -2h1001l-16 -159h-199v-625q0 -225 35 -336h-201q-37 61 -37 315v646l-440 2q-10 -225 -60 -523.5t-114 -439.5h-199z" glyph-name="glyph721" horiz-adv-x="1415"/><glyph d="M690 -20q-289 0 -434 215t-145 573q0 354 150.5 571t428.5 217q158 0 273.5 -58t183 -165.5t100.5 -248t33 -316.5t-33 -316.5t-100.5 -248t-183 -165.5t-273.5 -58zM692 172q197 -2 284 157.5t87 438.5q0 598 -371 598q-186 0 -275 -162t-89 -436q0 -272 89 -434 t275 -162z" glyph-name="glyph722" horiz-adv-x="1380"/><glyph d="M379 1284l-318 -246v248l330 250h203v-1536h-215v1284z" glyph-name="glyph723" horiz-adv-x="827"/><glyph d="M88 154q543 563 655.5 700t112.5 252q0 125 -74.5 191.5t-185.5 68.5q-115 2 -190.5 -71.5t-73.5 -196.5l-207 2q-8 203 133 332t348 127q193 -2 323 -119t134 -307q4 -168 -101.5 -311.5t-525.5 -571.5q-37 -39 -55 -57h727v-193h-1020v154z" glyph-name="glyph724" horiz-adv-x="1196"/></font>
</defs>
</svg>
