<?xml version="1.0" standalone="no"?>
<!DOCTYPE svg PUBLIC "-//W3C//DTD SVG 1.1//EN" "http://www.w3.org/Graphics/SVG/1.1/DTD/svg11.dtd">
<svg xmlns="http://www.w3.org/2000/svg"><metadata>This SVG WebFont was generated by YouWorkForThem.
\(c\)2017 Oakes is a trademark of Samuel Oakes. All rights reserved.</metadata><defs><font horiz-adv-x="0" id="ywftsvg"><font-face ascent="1536" bbox="-1559 -696 2546 2089" cap-height="1536" descent="-512" font-family="" font-stretch="normal" font-weight="500" panose-1="0 0 4 0 0 0 0 0 0 0" underline-position="0" underline-thickness="0" unicode-range="U+000D-FB02" units-per-em="2048" x-height="1122"/><missing-glyph d="M295 1536h874l-215 -1536h-874zM811 168l170 1204h-543l-170 -1204h543z" horiz-adv-x="1218"/><glyph d="M168 0l131 940h-158l25 170h158l12 88q18 139 107 235.5t225 110.5q70 6 136 -7t99 -38l-26 -172q-27 14 -62 25.5t-83 12.5t-83 -22q-78 -47 -94 -165l-10 -68h243l-24 -170h-244l-131 -940h-221zM1161 1274q-53 0 -87 38t-25.5 93t52.5 94t97 39t87 -39t26 -94 t-52.5 -93t-97.5 -38zM1026 1126h231l-157 -1126h-232z" glyph-name="uniFB01" horiz-adv-x="1329" unicode="fi"/><glyph d="M168 0l131 940h-158l25 170h158l12 88q18 139 107 235.5t225 110.5q70 6 136 -7t99 -38l-26 -172q-27 14 -62 25.5t-83 12.5t-83 -22q-78 -47 -94 -165l-10 -68h243l-24 -170h-244l-131 -940h-221zM930 0l217 1536h217l-215 -1536h-219z" glyph-name="uniFB02" horiz-adv-x="1421" unicode="fl"/><glyph d="M295 1536h874l-215 -1536h-874zM811 168l170 1204h-543l-170 -1204h543z" glyph-name=".notdef" horiz-adv-x="1218"/><glyph glyph-name="glyph1"/><glyph glyph-name="glyph2" horiz-adv-x="681"/><glyph glyph-name="space" horiz-adv-x="518" unicode=" "/><glyph d="M324 1536h202l-164 -1083h-178zM209 -10q-53 0 -88 40t-27 93q8 57 52 95t99.5 38t89.5 -39t25 -94q-8 -53 -53 -93t-98 -40z" glyph-name="exclam" horiz-adv-x="608" unicode="!"/><glyph d="M422 1538q45 0 72.5 -30.5t19.5 -84.5q-6 -45 -32.5 -98t-51.5 -84l-22 -31h-99q-6 12 -15 34t-21.5 78t-6.5 101q8 55 44 85t81 30h15h16z" glyph-name="quotedbl" horiz-adv-x="565" unicode="&quot;"/><glyph d="M367 352h-289l43 158h289l129 446h-291l47 156h285l100 354h156l-99 -354h373l98 354h156l-98 -354h290l-49 -156h-286l-125 -446h286l-43 -158h-286l-103 -352h-153l98 352h-375l-96 -352h-156zM938 510l127 446h-373l-125 -446h371z" glyph-name="numbersign" horiz-adv-x="1611" unicode="#"/><glyph d="M815 874q76 -31 122 -52t107.5 -61t94 -82t51 -106.5t8.5 -142.5q-27 -188 -167 -303t-341 -141l-22 -162h-158l22 158q-215 14 -328.5 146t-103.5 329l207 -2q6 -100 65.5 -173t188.5 -87l76 532q0 2 -4 2q-2 0 -4 2q-80 33 -122 51.5t-106.5 57.5t-94.5 76.5t-50 98 t-10 132.5q25 176 169 283.5t339 123.5l18 138h158l-21 -142q379 -43 391 -450h-206q2 92 -49.5 164.5t-161.5 95.5zM477 1159q-10 -74 39 -124t150 -97l61 426q-98 -14 -168 -67.5t-82 -137.5zM969 424q12 86 -36 142.5t-147 101.5l-65 -469q217 37 248 225z" glyph-name="dollar" horiz-adv-x="1333" unicode="$"/><glyph d="M426 881q-123 0 -195.5 99t-52 238.5t119.5 238.5t222 99t195.5 -99t52.5 -238q-18 -139 -118.5 -238.5t-223.5 -99.5zM1317 1536h223l-1259 -1536h-226zM448.5 1044q53.5 0 99.5 51.5t56 123t-21.5 123t-85 51.5t-98.5 -51.5t-55 -122.5q-8 -72 21.5 -123.5t83 -51.5z M1077 -20q-123 0 -195.5 99t-52.5 240q18 139 119 239.5t226 100.5q123 0 194.5 -100t50.5 -240q-18 -139 -118.5 -239t-223.5 -100zM1100 147q53 0 98 49.5t55 122.5q8 74 -22.5 123.5t-83.5 49.5t-98 -49.5t-56 -123.5q-8 -74 23 -123t84 -49z" glyph-name="percent" horiz-adv-x="1566" unicode="%"/><glyph d="M524 -31q-193 0 -314.5 129t-96.5 308q39 264 297 413q-119 160 -99 303q25 174 138.5 278.5t289.5 102.5q145 -2 230.5 -105.5t64.5 -250.5q-14 -111 -94 -206t-209 -161l260 -301l219 328h230l-320 -471l275 -352h-285l-145 180q-205 -195 -441 -195zM618 920 q203 88 222 229q12 76 -26 126t-105 50q-172 0 -201 -203q-13 -87 110 -202zM557 172q154 0 293 141l-330 371q-186 -98 -209 -268q-16 -109 51.5 -176.5t194.5 -67.5z" glyph-name="ampersand" horiz-adv-x="1478" unicode="&amp;"/><glyph d="M344 1538q45 0 72.5 -30.5t19.5 -84.5q-6 -45 -32.5 -98t-51.5 -84l-22 -31h-66q-6 12 -15 34t-21.5 78t-6.5 101q8 55 43 85t80 30z" glyph-name="quotesingle" horiz-adv-x="360" unicode="'"/><glyph d="M387 -444q-133 135 -203.5 410.5t-25.5 592.5q49 348 205.5 626.5t359.5 432.5h143q-201 -172 -343 -467t-183 -592q-39 -274 17.5 -549.5t181.5 -453.5h-152z" glyph-name="parenleft" horiz-adv-x="825" unicode="("/><glyph d="M481 1618q133 -135 204 -410.5t26 -593.5q-49 -346 -205 -625.5t-359 -432.5h-145q201 172 343 467.5t183 590.5q39 272 -16 549t-182 455h151z" glyph-name="parenright" horiz-adv-x="825" unicode=")"/><glyph d="M229 1085l133 156l-192 -18l16 114l189 -18l-90 154l106 59l55 -174l105 174l92 -59l-135 -154l194 18l-16 -114l-190 18l92 -156l-109 -59l-55 176l-105 -176z" glyph-name="asterisk" horiz-adv-x="696" unicode="*"/><glyph d="M711 532h-482l23 158h481l72 500h156l-72 -500h481l-22 -158h-482l-69 -501h-156z" glyph-name="plus" horiz-adv-x="1611" unicode="+"/><glyph d="M74 0q-84 35 -72 127q8 55 52 94t99.5 39t87 -39t23.5 -94t-64.5 -138t-107.5 -139h-108z" glyph-name="comma" horiz-adv-x="444" unicode=","/><glyph d="M166 608h717l-23 -149h-717z" glyph-name="hyphen" horiz-adv-x="1058" unicode="-"/><glyph d="M104 -20q-53 0 -87.5 39.5t-26.5 95t54 95.5t99 40q55 0 90 -40t27 -95.5t-54.5 -95t-101.5 -39.5z" glyph-name="period" horiz-adv-x="403" unicode="."/><glyph d="M942 1536h205l-1157 -2048h-207z" glyph-name="slash" horiz-adv-x="1075" unicode="/"/><glyph d="M594 -20q-195 0 -312.5 103t-153.5 277.5t-3 407.5q51 354 232.5 571t457.5 217q209 0 329 -104t151.5 -275t-1.5 -409q-51 -365 -222 -576.5t-478 -211.5zM623 172q197 -2 306 157.5t148 438.5q86 598 -286 598q-184 0 -297 -162t-152 -436q-37 -272 29 -434t252 -162z " glyph-name="zero" horiz-adv-x="1380" unicode="0"/><glyph d="M467 1284l-352 -246l35 248l364 250h203l-215 -1536h-215z" glyph-name="one" horiz-adv-x="827" unicode="1"/><glyph d="M16 154q621 561 753 699t149 253q18 125 -47.5 191.5t-174.5 68.5q-117 2 -202.5 -71.5t-100.5 -196.5l-207 2q20 201 180 331t367 128q193 -2 305.5 -119t91.5 -307q-20 -168 -147 -312.5t-604 -570.5q-41 -39 -64 -57h727l-26 -193h-1022z" glyph-name="two" horiz-adv-x="1196" unicode="2"/><glyph d="M481 -20q-209 0 -340 131t-104 315l213 4q-8 -106 68.5 -178t191.5 -72q123 0 219 77t115 208q16 119 -50.5 199.5t-183.5 80.5h-123l23 175h111q94 0 166.5 64.5t86.5 160.5q12 92 -50 152.5t-171 60.5q-98 0 -175 -54.5t-95 -140.5l-205 4q29 176 179.5 282.5 t322.5 106.5q193 0 304.5 -112.5t88.5 -276.5q-14 -96 -72.5 -174t-150.5 -127q111 -57 168 -162.5t39 -238.5q-31 -213 -195 -349t-381 -136z" glyph-name="three" horiz-adv-x="1216" unicode="3"/><glyph d="M1090 324h-154l-45 -324h-215l45 324h-737l20 139l834 1073h268l-143 -1020h153zM748 516l112 799l-600 -799h488z" glyph-name="four" horiz-adv-x="1245" unicode="4"/><glyph d="M528 -20q-209 0 -332.5 115.5t-113.5 281.5h192q12 -90 86 -145.5t183 -53.5q139 4 244.5 96.5t125.5 229.5q18 141 -61.5 236.5t-216.5 95.5q-162 0 -293 -119l-166 82l186 733h818l-27 -191h-649l-113 -419q133 104 326 104q209 0 326.5 -147.5t86.5 -366.5 q-33 -229 -204 -380.5t-398 -151.5z" glyph-name="five" horiz-adv-x="1261" unicode="5"/><glyph d="M565 -16q-203 0 -341 142t-130 355q4 139 21 252q51 356 210.5 570.5t430.5 240.5q45 4 63 4q203 0 328 -120.5t117 -280.5h-213q6 80 -59.5 144.5t-190.5 64.5q-197 0 -318 -139.5t-166 -374.5q49 84 145.5 133t155 58t103.5 9q236 0 359.5 -139t107.5 -362 q-23 -227 -206.5 -392t-416.5 -165zM592 166q145 0 257 100.5t132 243.5q20 147 -67 246.5t-234 99.5q-139 0 -250 -100.5t-131 -241.5q-20 -147 65 -247.5t228 -100.5z" glyph-name="six" horiz-adv-x="1318" unicode="6"/><glyph d="M961 1346h-793l27 190h1034l-21 -150l-960 -1386h-240z" glyph-name="seven" horiz-adv-x="1136" unicode="7"/><glyph d="M866 856q111 -59 165 -165.5t34 -237.5q-29 -201 -192.5 -337t-380.5 -136q-215 0 -342 136t-99 337q20 133 103.5 239.5t207.5 161.5q-158 117 -131 311q23 166 163.5 278.5t318.5 112.5t286.5 -112.5t87.5 -278.5q-14 -96 -74.5 -177t-146.5 -132zM690 1384 q-98 0 -181 -67.5t-97.5 -165.5t49 -167t164 -69t181.5 69t95 167q14 96 -48.5 164.5t-162.5 68.5zM518 172q123 0 219.5 86t112.5 209t-55.5 206t-194.5 83q-121 0 -217 -83t-112.5 -206t55 -209t192.5 -86z" glyph-name="eight" horiz-adv-x="1175" unicode="8"/><glyph d="M561 -10q-209 0 -333 112.5t-115 282.5l215 -4q-6 -74 61.5 -135.5t198.5 -61.5q33 0 47 2q158 16 260 149.5t145 344.5q-57 -76 -145 -122t-141.5 -55t-91.5 -9q-238 0 -368 145t-104 369q29 225 211.5 388t409.5 163q213 0 346 -144.5t127 -361.5q-2 -113 -20 -252 q-53 -375 -228.5 -593t-474.5 -218zM692.5 674q145.5 0 256 101.5t131 244.5t-65.5 242.5t-228 99.5q-145 0 -258.5 -100.5t-132.5 -243.5q-20 -147 66 -245.5t231.5 -98.5z" glyph-name="nine" horiz-adv-x="1318" unicode="9"/><glyph d="M321.5 776q-55.5 0 -89 40t-25.5 95.5t53 94t100 38.5q53 0 88 -38.5t27 -94t-53 -95.5t-100.5 -40zM211 -20q-55 0 -89 39.5t-26 95t52.5 95.5t99.5 40t90 -40t26.5 -95.5t-54.5 -95t-99 -39.5z" glyph-name="colon" horiz-adv-x="612" unicode=":"/><glyph d="M309 768q-53 0 -87 40t-27 93q8 55 54 94t99 39q55 0 88 -39t25 -94q-6 -53 -51.5 -93t-100.5 -40zM160 -2q-39 16 -58.5 51t-13.5 78q8 53 52 93t99.5 40t87 -39t23.5 -94t-65.5 -140t-106.5 -137h-106z" glyph-name="semicolon" horiz-adv-x="624" unicode=";"/><glyph d="M1380 1206l-1030 -483l893 -485l-26 -185l-1051 572l29 196l1210 568z" glyph-name="less" horiz-adv-x="1472" unicode="&lt;"/><glyph d="M131 811h1229l-19 -139h-1228zM76 418h1229l-19 -142h-1229z" glyph-name="equal" horiz-adv-x="1447" unicode="="/><glyph d="M1325 821l-29 -196l-1210 -572l27 185l1028 485l-891 483l24 183z" glyph-name="greater" horiz-adv-x="1472" unicode=">"/><glyph d="M455 506q12 88 61 161.5t110.5 125t122 97.5t106.5 102.5t54 117.5q14 109 -52 179.5t-185 70.5t-207 -78t-103 -192h-192q23 197 173.5 327.5t354.5 130.5q199 0 314.5 -125t89.5 -313q-10 -76 -58.5 -147.5t-110 -126t-121.5 -104.5t-105 -103.5t-54 -104.5l-18 -133 h-195zM487 -20q-55 0 -88.5 39.5t-25.5 95t52 95.5t99.5 40t90 -40t26.5 -95q-10 -55 -55.5 -95t-98.5 -40z" glyph-name="question" horiz-adv-x="1148" unicode="?"/><glyph d="M592 -31q-270 0 -421 172t-114 439q39 264 251 449t474 185q258 0 400.5 -154.5t109.5 -395.5q-23 -172 -118 -282t-220 -110q-127 0 -159 93q-100 -100 -217 -101q-119 0 -179.5 78t-44.5 205q23 150 128.5 256t234.5 106q96 0 147 -57l10 45h156l-98 -379 q-31 -111 41 -110q63 0 111.5 68.5t64.5 185.5q27 193 -76.5 304t-308.5 111q-209 0 -367.5 -141t-187.5 -354q-31 -213 79.5 -344.5t321.5 -131.5zM610 399q68 0 126.5 65.5t70.5 153.5q10 74 -16.5 114t-85.5 40q-68 0 -124.5 -64.5t-70.5 -160.5q-10 -70 16.5 -109 t83.5 -39z" glyph-name="at" horiz-adv-x="1226" unicode="@"/><glyph d="M1085 356h-714l-187 -356h-243l833 1536h250l401 -1536h-243zM1049 553l-183 754l-399 -754h582z" glyph-name="A" horiz-adv-x="1552" unicode="A"/><glyph d="M952 801q131 -33 200 -136.5t48 -252.5q-27 -184 -166 -298t-323 -114h-705l215 1536h615q186 0 294.5 -113.5t83.5 -298.5q-18 -121 -89 -205.5t-173 -117.5zM987 1102q14 98 -45 168.5t-158 70.5h-368l-66 -460h369q100 0 177 62.5t91 158.5zM707 199q100 0 179 70.5 t93 168.5q14 100 -44 180t-157 80h-452l-72 -499h453z" glyph-name="B" horiz-adv-x="1286" unicode="B"/><glyph d="M717 -20q-324 -2 -500 226t-129 562t285.5 561t564.5 227q197 0 340 -81.5t206.5 -203.5t55.5 -263h-221q-2 55 -24.5 110.5t-67.5 107.5t-128 84.5t-192 32.5q-240 0 -406.5 -163.5t-201.5 -411.5q-35 -246 87 -410.5t359 -164.5q193 0 331 101t173 218h221 q-49 -199 -263 -364.5t-490 -167.5z" glyph-name="C" horiz-adv-x="1615" unicode="C"/><glyph d="M256 1536h492q162 0 292.5 -47t223 -140.5t130.5 -245t11 -343.5q-49 -354 -296 -557t-577 -203h-491zM557 199q244 0 415 142t210 419q23 156 -3 270.5t-92.5 181t-157.5 98t-210 31.5h-266l-162 -1142h266z" glyph-name="D" horiz-adv-x="1484" unicode="D"/><glyph d="M432 1341l-67 -473h661l-29 -198h-661l-66 -471h746l-27 -199h-971l215 1536h971l-26 -195h-746z" glyph-name="E" horiz-adv-x="1198" unicode="E"/><glyph d="M434 1341l-67 -473h651l-29 -198h-651l-92 -670h-226l216 1536h962l-27 -195h-737z" glyph-name="F" horiz-adv-x="1148" unicode="F"/><glyph d="M1477 797l-31 -215l-80 -582h-152l-4 225q-102 -123 -227 -179t-305 -56q-328 0 -491.5 220t-118.5 552q49 350 276 568t543 218q264 0 428 -132t162 -376h-213q-14 143 -123 223t-264 80q-244 0 -404 -157.5t-197 -423.5q-37 -254 88 -410.5t338 -156.5 q219 0 358.5 111.5t166.5 299.5h-404l29 191h625z" glyph-name="G" horiz-adv-x="1564" unicode="G"/><glyph d="M1483 1536l-215 -1536h-224l95 670h-770l-93 -670h-225l215 1536h226l-95 -668h770l93 668h223z" glyph-name="H" horiz-adv-x="1503" unicode="H"/><glyph d="M266 1536h226l-216 -1536h-225z" glyph-name="I" horiz-adv-x="522" unicode="I"/><glyph d="M143 -20q-92 0 -155 18l32 229q61 -23 146 -22q61 0 113.5 45t60.5 108l166 1178h223l-168 -1194q-23 -156 -141.5 -259t-276.5 -103z" glyph-name="J" horiz-adv-x="755" unicode="J"/><glyph d="M940 0l-586 702l-98 -702h-225l215 1536h225l-100 -713l704 713h268l-751 -764l637 -772h-289z" glyph-name="K" horiz-adv-x="1347" unicode="K"/><glyph d="M236 1536h225l-189 -1337h549l-26 -199h-775z" glyph-name="L" horiz-adv-x="968" unicode="L"/><glyph d="M1833 1536l-215 -1536h-223l170 1217l-637 -1217h-205l-297 1217l-170 -1217h-225l215 1536h311l305 -1251l664 1251h307z" glyph-name="M" horiz-adv-x="1853" unicode="M"/><glyph d="M1550 1536l-215 -1536h-221l-713 1186l-165 -1186h-226l215 1536h221l715 -1184l166 1184h223z" glyph-name="N" horiz-adv-x="1560" unicode="N"/><glyph d="M717 -20q-328 0 -507 228t-132 560t289.5 560t570.5 228q326 0 506 -228t133 -560t-291.5 -560t-568.5 -228zM747.5 197q239.5 0 408.5 162.5t204 408.5q35 248 -89 411.5t-363.5 163.5t-410.5 -163.5t-206 -411.5q-35 -244 91 -407.5t365.5 -163.5z" glyph-name="O" horiz-adv-x="1642" unicode="O"/><glyph d="M893 1536q180 0 288.5 -142.5t84.5 -326.5q-29 -186 -176.5 -325.5t-329.5 -139.5h-432l-82 -602h-226l216 1536h657zM768 786q104 0 190 84t103 195q14 109 -48.5 192.5t-164.5 83.5h-414l-80 -555h414z" glyph-name="P" horiz-adv-x="1275" unicode="P"/><glyph d="M1546 176l-24 -176h-49q-147 0 -238 111l-29 32q-223 -164 -489 -163q-328 0 -507 228t-132 560t289.5 560t570.5 228q326 0 506 -228t133 -560q-41 -276 -221 -487l39 -48q45 -57 127 -57h24zM748 197q184 0 333 102l-204 254l147 131l201 -246q111 145 135 330 q35 248 -89 411.5t-363.5 163.5t-410.5 -163.5t-206 -411.5q-35 -244 91 -407.5t366 -163.5z" glyph-name="Q" horiz-adv-x="1652" unicode="Q"/><glyph d="M1169 0h-249l-293 614h-305l-86 -614h-226l215 1536h658q180 0 288.5 -141.5t83.5 -329.5q-23 -156 -138.5 -283t-262.5 -153zM770 793q100 0 182 79.5t99 194.5q16 113 -43.5 193.5t-159.5 80.5h-424l-78 -548h424z" glyph-name="R" horiz-adv-x="1331" unicode="R"/><glyph d="M538.5 -20q-237.5 0 -370.5 135t-123 342l207 -2q6 -111 84 -188t239 -77q145 0 242.5 59.5t116.5 174.5q8 59 -13.5 106.5t-77 83t-102.5 56t-129 51.5q-18 6 -28 10q-82 31 -127 50.5t-109.5 58.5t-96.5 77.5t-51.5 98t-9.5 131.5q27 188 196 298.5t382 110.5 q471 0 487 -446h-204q2 104 -76 181t-230 77q-117 0 -213 -55.5t-110 -153.5q-6 -47 13.5 -86t62.5 -67.5t91 -52t111 -50.5q18 -6 27 -10q209 -86 279 -131q186 -123 157 -332q-31 -215 -209 -332.5t-415.5 -117.5z" glyph-name="S" horiz-adv-x="1255" unicode="S"/><glyph d="M1251 1341h-452l-189 -1339h-221l189 1339h-453l27 197h1126z" glyph-name="T" horiz-adv-x="1212" unicode="T"/><glyph d="M610 -20q-250 0 -403.5 152.5t-122.5 369.5l145 1034h224l-140 -997q-20 -150 74 -255.5t252 -105.5t286 105.5t148 255.5l141 997h224l-146 -1034q-31 -217 -230.5 -369.5t-451.5 -152.5z" glyph-name="U" horiz-adv-x="1452" unicode="U"/><glyph d="M1606 1536l-832 -1536h-250l-403 1536h252l311 -1276l670 1276h252z" glyph-name="V" horiz-adv-x="1513" unicode="V"/><glyph d="M2292 1536l-670 -1536h-254l-194 1145l-496 -1145h-252l-262 1536h242l182 -1284l532 1284h226l182 -1286l522 1286h242z" glyph-name="W" horiz-adv-x="2217" unicode="W"/><glyph d="M971 0l-309 600l-474 -600h-256l635 782l-399 754h254l293 -569l454 569h254l-614 -752l418 -784h-256z" glyph-name="X" horiz-adv-x="1345" unicode="X"/><glyph d="M795 729l-101 -729h-223l100 723l-424 813h250l312 -618l489 618h246z" glyph-name="Y" horiz-adv-x="1345" unicode="Y"/><glyph d="M1182 199l-27 -199h-1167l16 119l1018 1222h-823l26 195h1127l-17 -117l-1018 -1220h865z" glyph-name="Z" horiz-adv-x="1331" unicode="Z"/><glyph d="M301 1720h453l-19 -143h-264l-301 -2130h264l-18 -143h-455z" glyph-name="bracketleft" horiz-adv-x="589" unicode="["/><glyph d="M137 1536l336 -1024l320 -1024l-334 1024z" glyph-name="backslash" horiz-adv-x="1218" unicode="\"/><glyph d="M-20 -553h266l299 2130h-264l20 143h453l-338 -2416h-455z" glyph-name="bracketright" horiz-adv-x="589" unicode="]"/><glyph d="M1163 406l-350 960l-616 -960h-185l729 1130h195l410 -1130h-183z" glyph-name="asciicircum" horiz-adv-x="1431" unicode="^"/><glyph d="M80 0h1024l-21 -147h-1024z" glyph-name="underscore" horiz-adv-x="1366" unicode="_"/><glyph d="M172 1536h221l133 -324h-168z" glyph-name="grave" horiz-adv-x="77" unicode="`"/><glyph d="M338 -12q-164 0 -255 90t-68.5 241.5t155.5 247t356 111.5l260 20l7 31q29 225 -207 225q-104 0 -181 -54t-102 -155h-201q37 168 168 281t348 113q207 0 310.5 -106.5t75.5 -307.5q-35 -274 -54 -399q-23 -152 66 -148l-25 -178q-47 0 -71 2q-170 18 -191 141 q-57 -68 -164.5 -111.5t-226.5 -43.5zM410 168q106 0 200.5 57.5t128.5 136.5l25 173l-225 -21q-279 -23 -299 -186q-10 -74 41 -117t129 -43z" glyph-name="a" horiz-adv-x="1136" unicode="a"/><glyph d="M762 1137q227 0 349 -164t87 -412q-35 -246 -203 -409.5t-395 -163.5q-233 0 -342 176l-41 -164l-201 2l215 1536h234l-80 -563q156 162 377 162zM588 190q145 0 250.5 106.5t128.5 264.5q23 160 -53 266.5t-222 106.5q-113 0 -208 -73t-142 -189l-29 -219 q10 -117 85 -190t190 -73z" glyph-name="b" horiz-adv-x="1251" unicode="b"/><glyph d="M489 -12q-240 0 -363.5 162.5t-88.5 416.5q35 250 205 410t409 160q238 0 352.5 -123t110.5 -289h-211q-2 92 -75.5 155.5t-186.5 63.5q-150 0 -250 -102.5t-124.5 -274.5t48 -276.5t222.5 -104.5q109 0 197.5 65.5t123.5 158.5h207q-51 -172 -194.5 -297t-381.5 -125z " glyph-name="c" horiz-adv-x="1165" unicode="c"/><glyph d="M1282 1536l-215 -1534l-203 -2v156q-152 -166 -385 -166q-229 0 -350 160.5t-86 406.5t203 413t397 167q215 0 328 -168l80 567h231zM547 184q113 0 207 72t143 188l31 224q-14 117 -88 189.5t-187 72.5q-145 0 -250.5 -107.5t-128 -265.5t52.5 -265.5t220 -107.5z" glyph-name="d" horiz-adv-x="1257" unicode="d"/><glyph d="M1085 567q-12 -63 -14 -75h-815q-12 -147 64.5 -232.5t195.5 -87.5q106 0 189 46t126 128h195q-43 -141 -180 -249.5t-352 -106.5q-240 0 -365 162.5t-88 410.5q35 252 200 412t412 160q236 0 351.5 -155t80.5 -413zM627 950q-129 0 -217 -78.5t-127 -212.5h596 q4 135 -60.5 213t-191.5 78z" glyph-name="e" horiz-adv-x="1155" unicode="e"/><glyph d="M168 0l131 940h-158l25 170h158l12 88q18 139 107 235.5t225 110.5q70 6 136 -7t99 -38l-26 -172q-27 14 -62 25.5t-83 12.5t-83 -22q-78 -47 -94 -165l-10 -68h243l-24 -170h-244l-131 -940h-221z" glyph-name="f" horiz-adv-x="831" unicode="f"/><glyph d="M399 -502q-219 -4 -345 82t-120 225q2 80 49.5 160t131.5 121q-43 25 -74 71t-23 103q16 117 175 199q-102 111 -78 291q23 162 165 275.5t334 113.5q70 0 145 -20.5t118 -53.5q35 70 118.5 109.5t151.5 27.5l-23 -158q-45 8 -90 -10t-67 -61q72 -117 55 -234 q-25 -180 -168 -292.5t-344 -116.5q-147 -2 -217 45q-37 -14 -57.5 -41t-14.5 -53q12 -78 160 -78l223 -4q174 -2 272.5 -70t96.5 -203q-4 -190 -161 -308t-413 -120zM803 741q12 92 -48.5 150.5t-166.5 58.5q-102 0 -177 -58t-89 -153q-14 -92 45 -152.5t161 -60.5 q109 0 185 60.5t90 154.5zM756 -104q6 127 -269 127h-200q-55 -14 -93 -60.5t-47 -101.5q-12 -84 63 -131t198 -47q158 0 253 59.5t95 153.5z" glyph-name="g" horiz-adv-x="1138" unicode="g"/><glyph d="M797 1137q190 0 285.5 -109.5t68.5 -300.5l-100 -727h-238l98 700q14 109 -41 169.5t-170 60.5q-121 0 -221 -67.5t-114 -174.5l-95 -688h-237l215 1536h237l-79 -559q72 74 177 117t214 43z" glyph-name="h" horiz-adv-x="1220" unicode="h"/><glyph d="M329.5 1274q-53.5 0 -87 38t-25.5 93t52 94t97.5 39t87 -39t25.5 -94t-52 -93t-97.5 -38zM195 1126h231l-158 -1126h-231z" glyph-name="i" horiz-adv-x="499" unicode="i"/><glyph d="M393 1270q-53 0 -88 40t-29 95q10 53 55.5 93t98.5 40t88 -40t27 -93q-8 -55 -53.5 -95t-98.5 -40zM-178 -510l28 195h48q88 0 130 38.5t54 122.5l180 1280h217l-182 -1300q-45 -336 -428 -336h-47z" glyph-name="j" horiz-adv-x="550" unicode="j"/><glyph d="M23 0l215 1536h237l-121 -864l441 454h256l-527 -524l428 -602h-260l-362 510l-70 -510h-237z" glyph-name="k" horiz-adv-x="1044" unicode="k"/><glyph d="M72 0l217 1536h217l-215 -1536h-219z" glyph-name="l" horiz-adv-x="565" unicode="l"/><glyph d="M1495 1137q182 0 270 -105.5t62 -292.5l-103 -739h-235l98 713q16 104 -32 161.5t-152 57.5q-113 0 -204 -65.5t-105 -170.5l-97 -696h-235l98 713q16 102 -33 160.5t-151 58.5q-113 0 -204 -65.5t-105 -170.5l-97 -696h-235l158 1126h210l-10 -149q68 74 169.5 117 t203.5 43q217 0 305 -203q72 90 188.5 146.5t235.5 56.5z" glyph-name="m" horiz-adv-x="1918" unicode="m"/><glyph d="M780 1141q188 0 282.5 -109.5t67.5 -302.5l-100 -729h-235l98 702q14 109 -40 170.5t-167 61.5q-121 0 -219 -68.5t-113 -175.5l-96 -690h-235l157 1126h207l-4 -157q72 80 180 126t217 46z" glyph-name="n" horiz-adv-x="1224" unicode="n"/><glyph d="M516 -14q-244 0 -379 168t-100 411q35 246 216 413t425 167t378 -167t99 -413t-215 -412.5t-424 -166.5zM544.5 195q145.5 0 251 106.5t128.5 263.5q23 160 -53 266.5t-221.5 106.5t-252 -106.5t-129.5 -266.5q-23 -158 54 -264t222.5 -106z" glyph-name="o" horiz-adv-x="1216" unicode="o"/><glyph d="M758 1137q227 0 349 -161t87 -406.5t-204 -411.5t-396 -166q-219 0 -328 164l-98 -688l-234 2l236 1656h213l-2 -147q148 158 377 158zM584 197q145 0 250.5 107.5t128.5 264.5q23 160 -53 266.5t-222 106.5q-113 0 -209 -73.5t-139 -188.5l-33 -221q12 -117 87 -189.5 t190 -72.5z" glyph-name="p" horiz-adv-x="1241" unicode="p"/><glyph d="M1208 1128l-233 -1656h-232l97 688q-158 -168 -377 -168q-229 0 -350 167t-84 412q35 246 200.5 406t395 160t331.5 -154l35 145h217zM535 201q113 0 207 72.5t141 187.5l30 223q-16 117 -89.5 188.5t-186.5 71.5q-145 0 -249.5 -106.5t-127.5 -266.5q-23 -158 53.5 -264 t221.5 -106z" glyph-name="q" horiz-adv-x="1222" unicode="q"/><glyph d="M831 1139l-30 -205q-193 8 -314.5 -81t-148.5 -284l-80 -569h-235l157 1126h215l-6 -188q49 88 157.5 146.5t284.5 54.5z" glyph-name="r" horiz-adv-x="802" unicode="r"/><glyph d="M434 -16q-215 0 -319.5 110.5t-98.5 249.5h203q4 -78 71.5 -133t162 -53t155 47t70.5 117q10 74 -52.5 112.5t-189.5 67.5q-74 16 -127 35.5t-106 53.5t-76 89t-12 129q20 152 154 243t317 91q172 0 278.5 -86t100.5 -246h-201q-6 76 -61.5 113t-124.5 41 q-86 4 -148.5 -30t-71.5 -99q-4 -27 1.5 -47.5t24.5 -37t34.5 -26.5t53.5 -21.5t57.5 -16.5t66.5 -17q72 -16 125 -38t106.5 -58.5t76 -97t11.5 -140.5q-23 -156 -157 -254t-324 -98z" glyph-name="s" horiz-adv-x="1026" unicode="s"/><glyph d="M514 -2q-88 0 -147.5 12.5t-110.5 45t-69.5 102t-4.5 174.5l86 614h-180l25 184h182l57 406h221l-57 -406h279l-27 -186l-281 2l-84 -594q-12 -84 19 -123t121 -39h129l-27 -192h-131z" glyph-name="t" horiz-adv-x="808" unicode="t"/><glyph d="M1198 1126l-158 -1126h-209l5 162q-72 -80 -180.5 -127t-215.5 -47q-184 0 -284.5 119.5t-73.5 308.5l100 710h236l-96 -684q-16 -111 41 -178t169 -67q119 0 219.5 69.5t116.5 175.5l97 684h233z" glyph-name="u" horiz-adv-x="1234" unicode="u"/><glyph d="M1243 1122l-606 -1122h-225l-289 1122h252l188 -852l428 852h252z" glyph-name="v" horiz-adv-x="1204" unicode="v"/><glyph d="M1735 1122l-506 -1122h-264l-97 713l-290 -713h-265l-194 1122h266l107 -846l335 846h215l95 -848l336 848h262z" glyph-name="w" horiz-adv-x="1703" unicode="w"/><glyph d="M729 559l318 -559h-275l-209 391l-315 -391h-277l473 561l-313 565h272l207 -397l322 397h272z" glyph-name="x" horiz-adv-x="1202" unicode="x"/><glyph d="M1239 1126l-905 -1667h-215l336 615h-56l-288 1052h233l229 -825l439 825h227z" glyph-name="y" horiz-adv-x="1224" unicode="y"/><glyph d="M27 168l723 764h-607l29 194h911l-22 -161l-725 -770h631l-27 -195h-936z" glyph-name="z" horiz-adv-x="1093" unicode="z"/><glyph d="M283 -670q-96 0 -148.5 84t-36.5 207l68 492q25 150 4.5 216t-111.5 113l21 138q104 47 141 111.5t58 215.5l69 486q16 123 93 206.5t173 83.5h109l-21 -139q-98 0 -136 -28.5t-52 -124.5l-72 -514q-18 -129 -58 -216.5t-124 -150.5q68 -61 84 -156.5t-6 -210.5l-74 -524 q-10 -80 19.5 -110.5t128.5 -30.5l-21 -148h-108z" glyph-name="braceleft" horiz-adv-x="671" unicode="{"/><glyph d="M346 1536h137l-258 -1843h-137z" glyph-name="bar" horiz-adv-x="583" unicode="|"/><glyph d="M-76 -522q100 0 140 30.5t51 110.5l71 524q20 131 60.5 218.5t126.5 148.5q-68 63 -85.5 158.5t3.5 208.5l71 514q14 96 -15.5 124.5t-129.5 28.5l21 146h110q96 0 148.5 -84t35.5 -207l-67 -492q-25 -145 -4.5 -212.5t110.5 -114.5l-18 -138q-104 -47 -141 -109.5 t-60 -219.5l-69 -492q-16 -123 -93 -207t-174 -84h-112z" glyph-name="braceright" horiz-adv-x="671" unicode="}"/><glyph d="M743 360q-63 0 -116.5 29t-75 53.5t-55.5 71.5q-70 96 -146 96q-80 0 -137 -66.5t-61 -160.5h-117q8 150 103 246t229 96q80 0 133 -37t102 -113q33 -49 64.5 -74.5t83.5 -25.5q80 0 137 62.5t59 160.5h117q-4 -143 -98.5 -240.5t-221.5 -97.5z" glyph-name="asciitilde" horiz-adv-x="1132" unicode="~"/><glyph d="M319.5 756q-55.5 0 -89 39t-25.5 96q8 55 53 94t100 39q53 0 88 -39t27 -94q-8 -57 -53 -96t-100.5 -39zM209 557h166l-127 -1069h-215z" glyph-name="exclamdown" horiz-adv-x="612" unicode="¡"/><glyph d="M707 1059q-143 0 -256 -99.5t-134 -242.5q-20 -141 66 -240.5t229 -99.5q162 0 271 88l-31 -213q-117 -61 -246 -68l-26 -186h-131l30 199q-190 35 -296.5 180t-80 339.5t174 341t348.5 181.5l26 199h131l-26 -189q127 -6 227 -65l-29 -213q-85 88 -247 88z" glyph-name="cent" horiz-adv-x="1040" unicode="¢"/><glyph d="M88 809h123q-10 131 4 238q29 199 181.5 326.5t361.5 127.5q219 0 327.5 -127t75.5 -344h-215q8 145 -42 205.5t-175 60.5q-115 0 -193.5 -68.5t-95.5 -180.5q-16 -109 -2 -238h461l-29 -195h-411q6 -109 -6 -211q-10 -66 -35 -118q51 -14 161.5 -66.5t163.5 -52.5 q80 0 121 48t54 157h206q-18 -184 -128.5 -298t-270.5 -114q-86 0 -173 36t-157.5 71.5t-115.5 35.5q-104 0 -111 -129h-211q8 111 76.5 199t169.5 119q29 49 39 115q12 88 -4 208h-177z" glyph-name="sterling" horiz-adv-x="1247" unicode="£"/><glyph d="M96 377l121 104q-68 117 -47.5 263.5t121.5 263.5l-88 102l133 123l90 -109q129 84 275.5 85t250.5 -85l121 107l101 -119l-119 -102q68 -119 47 -265.5t-121 -263.5l88 -104l-131 -121l-92 106q-129 -84 -275.5 -83.5t-253.5 83.5l-120 -106zM391 532q76 -90 201 -90 t227 90q98 88 116.5 212t-57 212t-200.5 87t-225 -89q-98 -88 -117 -212t55 -210z" glyph-name="currency" horiz-adv-x="1247" unicode="¤"/><glyph d="M805 741h389l-18 -141h-400l-26 -182h399l-19 -133h-399l-39 -285h-190l39 285h-394l19 133h393l27 182h-393l18 141h385l-4 27l-399 768h204l324 -643l508 643h203l-615 -764z" glyph-name="yen" horiz-adv-x="1378" unicode="¥"/><glyph d="M346 1536h137l-104 -737h-137zM190 430h138l-103 -737h-137z" glyph-name="brokenbar" horiz-adv-x="583" unicode="¦"/><glyph d="M1049 518q72 -78 55 -184q-18 -143 -182 -236.5t-371 -93.5q-176 0 -309 67.5t-179 172.5l148 82q31 -74 128 -122t241 -48q141 0 245.5 47t116.5 133q10 70 -65.5 116t-188.5 73.5t-225.5 62.5t-184 107.5t-57.5 183.5q16 109 107 184q-70 74 -54 180q20 147 164 230 t324 83q125 0 233.5 -40.5t169.5 -108.5l-125 -90q-94 100 -288 100q-121 0 -213.5 -45t-102.5 -121q-8 -59 45.5 -102t138.5 -64.5t184 -52.5t182 -64.5t133 -102t36 -163.5q-12 -102 -106 -184zM385 885q-10 -78 70 -124t239.5 -88t231.5 -75q59 45 67 107 q10 76 -69.5 120.5t-240.5 85.5t-230 74q-60 -43 -68 -100z" glyph-name="section" horiz-adv-x="1263" unicode="§"/><glyph d="M326 1200q-55 0 -90 39t-27 94.5t53 95t100.5 39.5t89 -39.5t25.5 -95t-53 -94.5t-98 -39zM727 1200q-53 0 -88 39t-26.5 94.5t53.5 95t100 39.5q53 0 87 -39.5t25.5 -95t-52.5 -94.5t-99 -39z" glyph-name="dieresis" horiz-adv-x="77" unicode="¨"/><glyph d="M786.5 -20q-325.5 0 -524.5 231t-153 557q47 326 310 557t588.5 231t524.5 -231t153.5 -557t-309.5 -557t-589.5 -231zM803 102q281 0 502 193.5t260 472.5t-127 473.5t-447 194.5q-279 0 -501 -194.5t-261 -473.5t128 -472.5t446 -193.5zM829 354q-168 0 -261 120 t-70 296q27 176 153.5 295t294.5 119q160 0 246 -94.5t72 -206.5h-134q-2 74 -54 124t-148 50q-115 0 -199 -81t-100 -206q-16 -123 44 -204t175 -81q92 0 164.5 51.5t85.5 112.5h133q-16 -100 -133 -196.5t-269 -98.5z" glyph-name="copyright" horiz-adv-x="1763" unicode="©"/><glyph d="M844 1536l-86 -614h-111l19 122q-104 -135 -265 -135q-127 0 -204.5 93.5t-59 226.5t121.5 226t233 93q158 0 225 -135l16 123h111zM438 1008q92 0 166 64.5t86 156.5t-43 156.5t-147 64.5t-166 -64.5t-86 -156.5q-14 -92 42 -156.5t148 -64.5z" glyph-name="ordfeminine" horiz-adv-x="825" unicode="ª"/><glyph d="M203 571l364 377h178l-364 -377l258 -376h-178zM614 571l365 377h178l-364 -377l258 -376h-179z" glyph-name="guillemotleft" horiz-adv-x="1329" unicode="«"/><glyph d="M1298 754h-1112l19 141h1253l-94 -666h-139z" glyph-name="logicalnot" horiz-adv-x="1595" unicode="¬"/><glyph d="M166 608h717l-23 -149h-717z" glyph-name="uni00AD" horiz-adv-x="1208" unicode="­"/><glyph d="M1007.5 1556q325.5 0 524.5 -231t153.5 -557t-309.5 -557t-589.5 -231t-524.5 231t-153 557q47 326 310 557t588.5 231zM803 102q281 0 502 193.5t260 472.5t-127 473.5t-447 194.5q-279 0 -501 -194.5t-261 -473.5t128 -472.5t446 -193.5zM1155 385h-145l-144 303h-100 l-41 -303h-129l109 772h296q90 0 146.5 -71.5t44.5 -167.5q-10 -78 -65.5 -140.5t-127.5 -81.5zM944 795q47 0 84 35.5t45 87t-19.5 89t-72.5 37.5h-164l-35 -249h162z" glyph-name="registered" horiz-adv-x="1763" unicode="®"/><glyph d="M147 1362h635l-18 -141h-635z" glyph-name="macron" horiz-adv-x="96" unicode="¯"/><glyph d="M536.5 1008q-112.5 0 -182 80.5t-53.5 193.5q14 115 105.5 194.5t206 79.5t183 -79.5t54.5 -194.5q-16 -113 -108.5 -193.5t-205 -80.5zM553 1118q68 0 123 48t63 116q8 70 -31.5 118t-109.5 48t-124 -48t-62 -118q-10 -68 30.5 -116t110.5 -48z" glyph-name="degree" horiz-adv-x="972" unicode="°"/><glyph d="M1540 895l-20 -141h-637l-52 -369h-141l51 369h-639l21 141h639l51 369h141l-51 -369h637zM16 129h1418l-19 -129h-1417z" glyph-name="plusminus" horiz-adv-x="1597" unicode="±"/><glyph d="M111 856q305 276 373.5 347t76.5 128q8 63 -23.5 96t-86.5 33q-59 0 -101.5 -35.5t-50.5 -97.5h-104q10 102 90 167t182 62q96 0 153.5 -57t47.5 -151q-12 -88 -79 -163t-327 -308h363l-15 -99h-510z" glyph-name="uni00B2" horiz-adv-x="681" unicode="²"/><glyph d="M465 809q-96 0 -153.5 59.5t-45.5 145.5l94 2q-6 -49 29 -83t88 -34q57 -2 102.5 34t53.5 99q10 55 -21.5 94t-87.5 39h-57l12 76h49q45 0 79 31t40 76q6 43 -20.5 70.5t-77.5 27.5q-45 0 -78 -24.5t-43 -65.5h-92q12 82 79.5 131t145.5 49q88 -2 135 -52t39 -128 q-10 -92 -104 -139q51 -25 77.5 -75t18.5 -110q-10 -98 -85 -159.5t-177 -63.5z" glyph-name="uni00B3" horiz-adv-x="729" unicode="³"/><glyph d="M352 1536h219l-274 -324h-170z" glyph-name="acute" horiz-adv-x="77" unicode="´"/><glyph d="M1137 1024l-144 -1024h-217l19 139q-143 -160 -338 -159q-135 0 -228 88l-82 -580h-161l217 1536h215l-86 -608q-14 -100 47 -172t164 -72q106 0 191 71.5t100 172.5l86 608h217z" glyph-name="uni00B5" horiz-adv-x="1208" unicode="µ"/><glyph d="M621 727h-56q-170 0 -280.5 120t-87.5 286q25 166 169 284.5t314 118.5h170l-258 -1843h-115zM1042 1536h115l-258 -1843h-115z" glyph-name="paragraph" horiz-adv-x="1267" unicode="¶"/><glyph d="M272 635q-43 0 -69.5 29.5t-20.5 72.5t42 74t77 31t68.5 -31t21.5 -74t-41 -72.5t-78 -29.5z" glyph-name="periodcentered" horiz-adv-x="552" unicode="·"/><glyph d="M119 -532q-72 0 -135.5 38.5t-83.5 96.5l104 39q16 -31 54 -51.5t75 -20.5q45 0 81 31.5t42 79.5q10 68 -43 92t-139 -9l-78 54l121 182h106l-86 -133q106 20 173 -35t52 -151q-12 -88 -82.5 -150.5t-160.5 -62.5z" glyph-name="cedilla" horiz-adv-x="77" unicode="¸"/><glyph d="M285 1440h-115l14 96h226l-109 -768h-111z" glyph-name="uni00B9" horiz-adv-x="520" unicode="¹"/><glyph d="M424 909q-139 0 -222 93.5t-64.5 226.5t128 226t248.5 93t222 -93t64.5 -226t-128 -226.5t-248.5 -93.5zM438 1008q92 0 166 64.5t86 156.5t-43 156.5t-147 64.5t-166 -64.5t-86 -156.5q-14 -92 42 -156.5t148 -64.5z" glyph-name="ordmasculine" horiz-adv-x="778" unicode="º"/><glyph d="M512 571l-258 377h178l258 -377l-364 -376h-179zM924 571l-258 377h180l258 -377l-365 -376h-180z" glyph-name="guillemotright" horiz-adv-x="1329" unicode="»"/><glyph d="M643 1053q55 0 89 -39t26 -94q-8 -57 -52 -96.5t-99.5 -39.5t-90.5 39t-27 97q8 55 54.5 94t99.5 39zM676 528q-12 -88 -61.5 -161.5t-111 -125t-121.5 -97.5t-106.5 -102t-54.5 -120q-14 -109 52.5 -179.5t185.5 -70.5t207 78t102 193h193q-20 -197 -173 -328t-358 -131 q-199 0 -314.5 125t-86.5 313q10 78 58 149.5t109.5 126t122 104.5t105.5 103.5t53 104.5l19 133h194z" glyph-name="questiondown" horiz-adv-x="1144" unicode="¿"/><glyph d="M823 1724l-184 324h219l135 -324h-170zM1085 356h-714l-187 -356h-243l833 1536h250l401 -1536h-243zM1049 553l-183 754l-399 -754h582z" glyph-name="Agrave" horiz-adv-x="1552" unicode="À"/><glyph d="M1006 1724h-170l225 324h219zM1085 356h-714l-187 -356h-243l833 1536h250l401 -1536h-243zM1049 553l-183 754l-399 -754h582z" glyph-name="Aacute" horiz-adv-x="1552" unicode="Á"/><glyph d="M758 1698h-170l260 350h227l162 -350h-170l-119 252zM1085 356h-714l-187 -356h-243l833 1536h250l401 -1536h-243zM1049 553l-183 754l-399 -754h582z" glyph-name="Acircumflex" horiz-adv-x="1552" unicode="Â"/><glyph d="M580 1718q-2 121 65.5 200t167.5 79q125 0 182 -113q25 -53 74 -53q43 0 68.5 41t21.5 106h131q4 -119 -63.5 -197.5t-171.5 -78.5q-121 0 -178 113q-27 53 -76 53q-43 0 -68.5 -42t-19.5 -108h-133zM1085 356h-714l-187 -356h-243l833 1536h250l401 -1536h-243z M1049 553l-183 754l-399 -754h582z" glyph-name="Atilde" horiz-adv-x="1552" unicode="Ã"/><glyph d="M715 1712q-55 0 -90 39t-27 94q10 55 54 95t99.5 40t89 -39.5t25.5 -95t-53 -94.5t-98 -39zM1116 1712q-53 0 -88 39t-26.5 94.5t53.5 95t100 39.5q53 0 87 -39.5t26 -95t-52.5 -94.5t-99.5 -39zM1085 356h-714l-187 -356h-243l833 1536h250l401 -1536h-243zM1049 553 l-183 754l-399 -754h582z" glyph-name="Adieresis" horiz-adv-x="1552" unicode="Ä"/><glyph d="M1032 1507l393 -1507h-243l-97 356h-714l-187 -356h-243l815 1503h-11q-70 63 -55 162q12 90 86 153.5t166 63.5q88 0 142.5 -63.5t41.5 -153.5q-16 -99 -94 -158zM786 1665q-6 -55 24 -90t83 -35q51 0 91 35t48 90q8 51 -22.5 87t-81.5 36t-92.5 -36t-49.5 -87zM467 553 h582l-183 754z" glyph-name="Aring" horiz-adv-x="1552" unicode="Å"/><glyph d="M774 1536h1118l-26 -190h-649l-70 -492h563l-22 -170h-564l-69 -491h649l-27 -193h-866l47 332h-498l-167 -332h-252zM883 504l118 842h-98l-446 -842h426z" glyph-name="AE" horiz-adv-x="1822" unicode="Æ"/><glyph d="M907 1343q-240 0 -406.5 -163.5t-201.5 -411.5q-35 -246 87 -410.5t359 -164.5q193 0 331 101t173 218h221q-45 -182 -235.5 -343t-441.5 -185v-4l-74 -113q106 20 172.5 -35t52.5 -151q-12 -88 -82.5 -150.5t-161.5 -62.5q-72 0 -134 38.5t-85 96.5l105 39 q16 -31 54 -51.5t75 -20.5q45 0 80.5 31.5t42.5 79.5q10 68 -43.5 92t-139.5 -9l-75 54l102 162q-205 6 -351.5 114.5t-209 285.5t-33.5 388q47 334 285.5 561t564.5 227q197 0 340 -81.5t206.5 -203.5t55.5 -263h-221q-2 55 -24.5 110.5t-67.5 107.5t-128 84.5t-192 32.5z " glyph-name="Ccedilla" horiz-adv-x="1615" unicode="Ç"/><glyph d="M635 1724l-186 324h221l133 -324h-168zM432 1341l-67 -473h661l-29 -198h-661l-66 -471h746l-27 -199h-971l215 1536h971l-26 -195h-746z" glyph-name="Egrave" horiz-adv-x="1198" unicode="È"/><glyph d="M817 1724h-170l223 324h222zM432 1341l-67 -473h661l-29 -198h-661l-66 -471h746l-27 -199h-971l215 1536h971l-26 -195h-746z" glyph-name="Eacute" horiz-adv-x="1198" unicode="É"/><glyph d="M569 1698h-170l258 350h228l164 -350h-172l-119 252zM432 1341l-67 -473h661l-29 -198h-661l-66 -471h746l-27 -199h-971l215 1536h971l-26 -195h-746z" glyph-name="Ecircumflex" horiz-adv-x="1198" unicode="Ê"/><glyph d="M524.5 1712q-55.5 0 -89.5 39t-25.5 94.5t53.5 95t100 39.5q53 0 88 -39.5t27 -95t-53 -94.5t-100.5 -39zM928 1712q-55 0 -90 39t-27 94q10 55 55 95t99 40q55 0 88.5 -39.5t25.5 -95t-53 -94.5t-98 -39zM432 1341l-67 -473h661l-29 -198h-661l-66 -471h746l-27 -199 h-971l215 1536h971l-26 -195h-746z" glyph-name="Edieresis" horiz-adv-x="1198" unicode="Ë"/><glyph d="M338 2048h223l133 -324h-168zM483 1536h224l-215 -1536h-224z" glyph-name="Igrave" horiz-adv-x="737" unicode="Ì"/><glyph d="M547 2048h221l-274 -324h-170zM266 1536h226l-216 -1536h-225z" glyph-name="Iacute" horiz-adv-x="727" unicode="Í"/><glyph d="M551 2048h227l162 -350h-170l-119 252l-190 -252h-172zM483 1536h224l-215 -1536h-224z" glyph-name="Icircumflex" horiz-adv-x="948" unicode="Î"/><glyph d="M428 1712q-55 0 -91 39t-28 94q10 55 55.5 95t100.5 40t89 -39.5t25.5 -95t-53.5 -94.5t-98 -39zM829 1712q-53 0 -87.5 39t-26.5 94.5t53 95t100 39.5q53 0 87 -39.5t26 -95t-52.5 -94.5t-99.5 -39zM494 1536h225l-215 -1536h-225z" glyph-name="Idieresis" horiz-adv-x="968" unicode="Ï"/><glyph d="M860 1536q328 0 518.5 -210t141.5 -558q-47 -348 -297 -558t-578 -210h-448l98 702h-156l19 134h155l99 700h448zM670 199q238 0 414 153.5t212 415.5q37 264 -95 418.5t-370 154.5h-225l-71 -505h260l-19 -134h-260l-72 -503h226z" glyph-name="Eth" horiz-adv-x="1597" unicode="Ð"/><glyph d="M616 1718q-2 121 66 200t168 79q125 0 182 -113q25 -53 74 -53q43 0 68.5 41t21.5 106h131q4 -119 -63.5 -197.5t-171.5 -78.5q-121 0 -179 113q-27 53 -75 53q-43 0 -69 -42t-19 -108h-134zM1550 1536l-215 -1536h-221l-713 1186l-165 -1186h-226l215 1536h221 l715 -1184l166 1184h223z" glyph-name="Ntilde" horiz-adv-x="1560" unicode="Ñ"/><glyph d="M682 2048h221l133 -324h-168zM717 -20q-328 0 -507 228t-132 560t289.5 560t570.5 228q326 0 506 -228t133 -560t-291.5 -560t-568.5 -228zM747.5 197q239.5 0 408.5 162.5t204 408.5q35 248 -89 411.5t-363.5 163.5t-410.5 -163.5t-206 -411.5q-35 -244 91 -407.5 t365.5 -163.5z" glyph-name="Ograve" horiz-adv-x="1642" unicode="Ò"/><glyph d="M1106 2048h219l-274 -324h-170zM717 -20q-328 0 -507 228t-132 560t289.5 560t570.5 228q326 0 506 -228t133 -560t-291.5 -560t-568.5 -228zM747.5 197q239.5 0 408.5 162.5t204 408.5q35 248 -89 411.5t-363.5 163.5t-410.5 -163.5t-206 -411.5q-35 -244 91 -407.5 t365.5 -163.5z" glyph-name="Oacute" horiz-adv-x="1642" unicode="Ó"/><glyph d="M893 2048h227l164 -350h-172l-119 252l-188 -252h-170zM717 -20q-328 0 -507 228t-132 560t289.5 560t570.5 228q326 0 506 -228t133 -560t-291.5 -560t-568.5 -228zM747.5 197q239.5 0 408.5 162.5t204 408.5q35 248 -89 411.5t-363.5 163.5t-410.5 -163.5t-206 -411.5 q-35 -244 91 -407.5t365.5 -163.5z" glyph-name="Ocircumflex" horiz-adv-x="1642" unicode="Ô"/><glyph d="M1098 1702q-121 0 -178 113q-27 53 -74 53q-45 0 -70.5 -42t-19.5 -108h-131q-4 121 63.5 200t169.5 79q123 0 180 -113q25 -53 74 -53q45 0 70.5 41t19.5 106h131q4 -119 -63.5 -197.5t-171.5 -78.5zM717 -20q-328 0 -507 228t-132 560t289.5 560t570.5 228 q326 0 506 -228t133 -560t-291.5 -560t-568.5 -228zM747.5 197q239.5 0 408.5 162.5t204 408.5q35 248 -89 411.5t-363.5 163.5t-410.5 -163.5t-206 -411.5q-35 -244 91 -407.5t365.5 -163.5z" glyph-name="Otilde" horiz-adv-x="1642" unicode="Õ"/><glyph d="M760 1712q-55 0 -90 39t-27 94q10 55 54 95t99.5 40t89.5 -39.5t25.5 -95t-53.5 -94.5t-98 -39zM1161 1712q-53 0 -88 39t-26.5 94.5t53.5 95t100 39.5q53 0 87 -39.5t26 -95t-52.5 -94.5t-99.5 -39zM717 -20q-328 0 -507 228t-132 560t289.5 560t570.5 228 q326 0 506 -228t133 -560t-291.5 -560t-568.5 -228zM747.5 197q239.5 0 408.5 162.5t204 408.5q35 248 -89 411.5t-363.5 163.5t-410.5 -163.5t-206 -411.5q-35 -244 91 -407.5t365.5 -163.5z" glyph-name="Odieresis" horiz-adv-x="1642" unicode="Ö"/><glyph d="M891 635l336 -389l-133 -117l-336 389l-445 -389l-100 117l442 389l-333 391l133 117l336 -391l446 391l100 -117z" glyph-name="multiply" horiz-adv-x="1499" unicode="×"/><glyph d="M1397 1380q111 -111 159 -269.5t21 -342.5q-47 -332 -292 -560t-568 -228q-211 0 -371 104l-102 -127h-144l160 199q-111 109 -160 268.5t-22 343.5q47 332 289.5 560t570.5 228q211 0 373 -106l100 127h143zM291 768q-37 -270 112 -434l764 938q-115 72 -260 71 q-240 0 -410.5 -163.5t-205.5 -411.5zM748 197q240 0 408.5 162.5t203.5 408.5q39 270 -107 432l-761 -938q106 -65 256 -65z" glyph-name="Oslash" horiz-adv-x="1642" unicode="Ø"/><glyph d="M616 2048h222l133 -324h-168zM610 -20q-250 0 -403.5 152.5t-122.5 369.5l145 1034h224l-140 -997q-20 -150 74 -255.5t252 -105.5t286 105.5t148 255.5l141 997h224l-146 -1034q-31 -217 -230.5 -369.5t-451.5 -152.5z" glyph-name="Ugrave" horiz-adv-x="1452" unicode="Ù"/><glyph d="M1040 2048h220l-275 -324h-170zM610 -20q-250 0 -403.5 152.5t-122.5 369.5l145 1034h224l-140 -997q-20 -150 74 -255.5t252 -105.5t286 105.5t148 255.5l141 997h224l-146 -1034q-31 -217 -230.5 -369.5t-451.5 -152.5z" glyph-name="Uacute" horiz-adv-x="1452" unicode="Ú"/><glyph d="M827 2048h228l164 -350h-172l-119 252l-189 -252h-170zM610 -20q-250 0 -403.5 152.5t-122.5 369.5l145 1034h224l-140 -997q-20 -150 74 -255.5t252 -105.5t286 105.5t148 255.5l141 997h224l-146 -1034q-31 -217 -230.5 -369.5t-451.5 -152.5z" glyph-name="Ucircumflex" horiz-adv-x="1452" unicode="Û"/><glyph d="M694 1712q-55 0 -90 39t-26 94q10 55 54 95t99 40t89 -39.5t26 -95t-53.5 -94.5t-98.5 -39zM1096 1712q-53 0 -88 39t-27 94.5t53 95t101 39.5q53 0 86.5 -39.5t25.5 -95t-52 -94.5t-99 -39zM610 -20q-250 0 -403.5 152.5t-122.5 369.5l145 1034h224l-140 -997 q-20 -150 74 -255.5t252 -105.5t286 105.5t148 255.5l141 997h224l-146 -1034q-31 -217 -230.5 -369.5t-451.5 -152.5z" glyph-name="Udieresis" horiz-adv-x="1452" unicode="Ü"/><glyph d="M913 1724h-170l226 324h219zM795 729l-101 -729h-223l100 723l-424 813h250l312 -618l489 618h246z" glyph-name="Yacute" horiz-adv-x="1345" unicode="Ý"/><glyph d="M819 1321q182 0 291 -129t82 -313q-25 -180 -169 -305t-327 -125h-364l-64 -449h-217l187 1321l28 211h217l-28 -211h364zM715 639q102 0 184 71.5t96 174.5q14 100 -47 171.5t-164 71.5h-358l-68 -489h357z" glyph-name="Thorn" horiz-adv-x="1212" unicode="Þ"/><glyph d="M1028 793q100 -57 150.5 -160t33.5 -225q-27 -178 -164 -303t-307 -125q-86 0 -179 32.5t-144 85.5l112 164q33 -35 89.5 -58.5t111.5 -21.5q92 2 171 71t93 167q14 106 -53.5 182t-177.5 76h-105l25 178h43q106 0 190 74t99 178q16 102 -51.5 170t-186.5 68 q-127 0 -221 -75t-111 -188l-151 -1083h-215l151 1083q27 197 190 325t380 128q209 0 327.5 -121t94.5 -303q-29 -196 -195 -319z" glyph-name="germandbls" horiz-adv-x="1376" unicode="ß"/><glyph d="M768 1212h-168l-186 324h221zM950 326q-23 -152 66 -148l-25 -178q-47 0 -71 2q-170 18 -191 141q-57 -68 -164.5 -111.5t-226.5 -43.5q-164 0 -255 90t-68.5 241.5t155.5 247t356 111.5l260 20l7 31q29 225 -207 225q-104 0 -181 -54t-102 -155h-201q37 168 168 281 t348 113q207 0 310.5 -106.5t75.5 -307.5q-36 -274 -54 -399zM739 362l25 173l-225 -21q-279 -23 -299 -186q-10 -74 41 -117t129 -43q106 0 200 57t129 137z" glyph-name="agrave" horiz-adv-x="1136" unicode="à"/><glyph d="M1036 1536l-274 -324h-170l223 324h221zM950 326q-23 -152 66 -148l-25 -178q-47 0 -71 2q-170 18 -191 141q-57 -68 -164.5 -111.5t-226.5 -43.5q-164 0 -255 90t-68.5 241.5t155.5 247t356 111.5l260 20l7 31q29 225 -207 225q-104 0 -181 -54t-102 -155h-201 q37 168 168 281t348 113q207 0 310.5 -106.5t75.5 -307.5q-36 -274 -54 -399zM739 362l25 173l-225 -21q-279 -23 -299 -186q-10 -74 41 -117t129 -43q106 0 200 57t129 137z" glyph-name="aacute" horiz-adv-x="1136" unicode="á"/><glyph d="M629 1438l-189 -252h-170l258 350h228l164 -350h-172zM950 326q-23 -152 66 -148l-25 -178q-47 0 -71 2q-170 18 -191 141q-57 -68 -164.5 -111.5t-226.5 -43.5q-164 0 -255 90t-68.5 241.5t155.5 247t356 111.5l260 20l7 31q29 225 -207 225q-104 0 -181 -54t-102 -155 h-201q37 168 168 281t348 113q207 0 310.5 -106.5t75.5 -307.5q-36 -274 -54 -399zM739 362l25 173l-225 -21q-279 -23 -299 -186q-10 -74 41 -117t129 -43q106 0 200 57t129 137z" glyph-name="acircumflex" horiz-adv-x="1136" unicode="â"/><glyph d="M268 1206q-2 121 65.5 200t168.5 79q125 0 182 -113q25 -53 74 -53q43 0 68.5 41t21.5 106h131q2 -119 -64.5 -197.5t-171.5 -78.5q-119 0 -180 113q-25 53 -74 53q-43 0 -68.5 -42t-21.5 -108h-131zM338 -12q-164 0 -255 90t-68.5 241.5t155.5 247t356 111.5l260 20 l7 31q29 225 -207 225q-104 0 -181 -54t-102 -155h-201q37 168 168 281t348 113q207 0 310.5 -106.5t75.5 -307.5q-35 -274 -54 -399q-23 -152 66 -148l-25 -178q-47 0 -71 2q-170 18 -191 141q-57 -68 -164.5 -111.5t-226.5 -43.5zM410 168q106 0 200.5 57.5t128.5 136.5 l25 173l-225 -21q-279 -23 -299 -186q-10 -74 41 -117t129 -43z" glyph-name="atilde" horiz-adv-x="1136" unicode="ã"/><glyph d="M397 1200q-55 0 -90 39t-26.5 94.5t53.5 95t100 39.5t89 -39.5t26 -95t-53.5 -94.5t-98.5 -39zM799 1200q-53 0 -88 39t-27 94.5t53 95t101 39.5q53 0 86.5 -39.5t25.5 -95t-52 -94.5t-99 -39zM338 -12q-164 0 -255 90t-68.5 241.5t155.5 247t356 111.5l260 20l7 31 q29 225 -207 225q-104 0 -181 -54t-102 -155h-201q37 168 168 281t348 113q207 0 310.5 -106.5t75.5 -307.5q-35 -274 -54 -399q-23 -152 66 -148l-25 -178q-47 0 -71 2q-170 18 -191 141q-57 -68 -164.5 -111.5t-226.5 -43.5zM410 168q106 0 200.5 57.5t128.5 136.5l25 173 l-225 -21q-279 -23 -299 -186q-10 -74 41 -117t129 -43z" glyph-name="adieresis" horiz-adv-x="1136" unicode="ä"/><glyph d="M594 1161q-92 0 -147.5 64.5t-40.5 154.5q12 90 84.5 153.5t164.5 63.5q88 0 143.5 -63.5t43.5 -153.5q-14 -90 -87 -154.5t-161 -64.5zM643 1505q-51 0 -92 -36.5t-47 -88.5q-8 -53 21.5 -88t82.5 -35q51 0 91 35t49 88q6 51 -24 88t-81 37zM338 -12q-164 0 -255 90 t-68.5 241.5t155.5 247t356 111.5l260 20l7 31q29 225 -207 225q-104 0 -181 -54t-102 -155h-201q37 168 168 281t348 113q207 0 310.5 -106.5t75.5 -307.5q-35 -274 -54 -399q-23 -152 66 -148l-25 -178q-47 0 -71 2q-170 18 -191 141q-57 -68 -164.5 -111.5t-226.5 -43.5z M410 168q106 0 200.5 57.5t128.5 136.5l25 173l-225 -21q-279 -23 -299 -186q-10 -74 41 -117t129 -43z" glyph-name="aring" horiz-adv-x="1136" unicode="å"/><glyph d="M1923 571q-10 -55 -16 -75h-826q-8 -156 70 -241t215 -85q94 0 186.5 46t135.5 132h190q-51 -160 -199.5 -262t-355.5 -100q-281 0 -405 215l-27 -199h-189l5 145q-61 -82 -174 -124.5t-240 -32.5q-152 10 -235 98t-62 231q20 145 153.5 239.5t358.5 111.5l260 18l6 41 q33 231 -205 232q-106 0 -182 -56.5t-102 -156.5h-197q37 168 166 280.5t348 112.5q332 0 385 -246q184 252 502 252q236 0 352.5 -158t81.5 -418zM1110 664h604q4 137 -61.5 214.5t-192.5 77.5q-131 0 -221 -78.5t-129 -213.5zM723 365l25 170l-226 -21q-281 -25 -301 -190 q-10 -72 36 -113t122 -45q106 -6 206.5 54.5t137.5 144.5z" glyph-name="ae" horiz-adv-x="1957" unicode="æ"/><glyph d="M641 944q-150 0 -250 -102.5t-124.5 -274.5t48 -276.5t222.5 -104.5q109 0 197.5 65.5t123.5 158.5h207q-51 -172 -194.5 -297t-381.5 -125h-6l-65 -101q109 20 174 -35t51 -151q-12 -90 -83 -151.5t-161 -61.5q-72 0 -134 39t-83 96l103 39q16 -29 54 -50.5t75 -21.5 q45 0 80.5 32t42.5 79q10 68 -42.5 92.5t-140.5 -8.5l-75 53l102 160q-188 37 -281.5 192.5t-62.5 376.5q35 250 205 410t409 160q238 0 352.5 -123t110.5 -289h-211q-2 92 -75.5 155.5t-186.5 63.5z" glyph-name="ccedilla" horiz-adv-x="1165" unicode="ç"/><glyph d="M563 1219l-186 325h221l133 -325h-168zM1085 567q-12 -63 -14 -75h-815q-12 -147 64.5 -232.5t195.5 -87.5q106 0 189 46t126 128h195q-43 -141 -180 -249.5t-352 -106.5q-240 0 -365 162.5t-88 410.5q35 252 200 412t412 160q236 0 351.5 -155t80.5 -413zM627 950 q-129 0 -217 -78.5t-127 -212.5h596q4 135 -60.5 213t-191.5 78z" glyph-name="egrave" horiz-adv-x="1165" unicode="è"/><glyph d="M1020 1544l-275 -325h-170l226 325h219zM653 1135q236 0 351.5 -155t80.5 -413q-12 -63 -14 -75h-815q-12 -147 64.5 -232.5t195.5 -87.5q106 0 189 46t126 128h195q-43 -141 -180 -249.5t-352 -106.5q-240 0 -365 162.5t-88 410.5q35 252 199.5 412t412.5 160zM879 659 q4 135 -60.5 213t-191.5 78q-129 0 -217 -78.5t-127 -212.5h596z" glyph-name="eacute" horiz-adv-x="1165" unicode="é"/><glyph d="M498 1194h-170l260 350h227l162 -350h-170l-119 250zM1085 567q-12 -63 -14 -75h-815q-12 -147 64.5 -232.5t195.5 -87.5q106 0 189 46t126 128h195q-43 -141 -180 -249.5t-352 -106.5q-240 0 -365 162.5t-88 410.5q35 252 200 412t412 160q236 0 351.5 -155t80.5 -413z M627 950q-129 0 -217 -78.5t-127 -212.5h596q4 135 -60.5 213t-191.5 78z" glyph-name="ecircumflex" horiz-adv-x="1165" unicode="ê"/><glyph d="M452.5 1206q-55.5 0 -89 40t-25.5 95.5t53 94.5t101 39q53 0 87.5 -39t26.5 -94.5t-53 -95.5t-100.5 -40zM856 1206q-55 0 -90 40t-26.5 95.5t54.5 94.5t99 39q55 0 89 -39t25.5 -94.5t-53.5 -95.5t-98 -40zM1085 567q-12 -63 -14 -75h-815q-12 -147 64.5 -232.5 t195.5 -87.5q106 0 189 46t126 128h195q-43 -141 -180 -249.5t-352 -106.5q-240 0 -365 162.5t-88 410.5q35 252 200 412t412 160q236 0 351.5 -155t80.5 -413zM627 950q-129 0 -217 -78.5t-127 -212.5h596q4 135 -60.5 213t-191.5 78z" glyph-name="edieresis" horiz-adv-x="1165" unicode="ë"/><glyph d="M170 1536h221l135 -324h-170zM315 1024h217l-143 -1024h-217z" glyph-name="igrave" horiz-adv-x="593" unicode="ì"/><glyph d="M434 1536h219l-274 -324h-170zM154 1024h217l-144 -1024h-217z" glyph-name="iacute" horiz-adv-x="587" unicode="í"/><glyph d="M438 1536h228l161 -350h-170l-118 252l-191 -252h-172zM373 1024h217l-144 -1024h-217z" glyph-name="icircumflex" horiz-adv-x="866" unicode="î"/><glyph d="M315 1200q-55 0 -91 39t-27.5 94.5t54.5 95t101.5 39.5t89 -39.5t25.5 -95t-53.5 -94.5t-98.5 -39zM717 1200q-53 0 -88 39t-27 94.5t53 95t101 39.5q53 0 87 -39.5t25.5 -95t-52.5 -94.5t-99 -39zM383 1024h217l-143 -1024h-217z" glyph-name="idieresis" horiz-adv-x="886" unicode="ï"/><glyph d="M909 1405q158 -141 228.5 -376.5t31.5 -516.5q-33 -221 -217 -376.5t-415 -155.5q-233 0 -373.5 155.5t-108.5 376.5q31 223 214.5 377.5t416.5 154.5q145 0 254 -75q-41 186 -162 293l-123 -132l-61 58l115 121q-119 74 -283 80l68 172q197 0 348 -105l106 115l66 -55z M563 172q141 0 255 99.5t134 240.5q20 143 -65.5 242.5t-227.5 99.5q-143 0 -256.5 -99.5t-132.5 -242.5q-20 -141 65 -240.5t228 -99.5z" glyph-name="eth" horiz-adv-x="1257" unicode="ð"/><glyph d="M350 1206q-2 121 65.5 200t168.5 79q121 0 182 -113q25 -53 74 -53q43 0 68.5 41t21.5 106h131q2 -119 -64.5 -197.5t-171.5 -78.5q-119 0 -180 113q-25 53 -74 53q-43 0 -68.5 -42t-21.5 -108h-131zM780 1141q188 0 282.5 -109.5t67.5 -302.5l-100 -729h-235l98 702 q14 109 -40 170.5t-167 61.5q-121 0 -219 -68.5t-113 -175.5l-96 -690h-235l157 1126h207l-4 -157q72 80 180 126t217 46z" glyph-name="ntilde" horiz-adv-x="1224" unicode="ñ"/><glyph d="M387 1536h219l135 -324h-170zM516 -14q-244 0 -379 168t-100 411q35 246 216 413t425 167t378 -167t99 -413t-215 -412.5t-424 -166.5zM544.5 195q145.5 0 251 106.5t128.5 263.5q23 160 -53 266.5t-221.5 106.5t-252 -106.5t-129.5 -266.5q-23 -158 54 -264t222.5 -106z " glyph-name="ograve" horiz-adv-x="1216" unicode="ò"/><glyph d="M809 1536h221l-274 -324h-170zM516 -14q-244 0 -379 168t-100 411q35 246 216 413t425 167t378 -167t99 -413t-215 -412.5t-424 -166.5zM544.5 195q145.5 0 251 106.5t128.5 263.5q23 160 -53 266.5t-221.5 106.5t-252 -106.5t-129.5 -266.5q-23 -158 54 -264t222.5 -106 z" glyph-name="oacute" horiz-adv-x="1216" unicode="ó"/><glyph d="M598 1536h227l162 -350h-170l-119 252l-190 -252h-170zM516 -14q-244 0 -379 168t-100 411q35 246 216 413t425 167t378 -167t99 -413t-215 -412.5t-424 -166.5zM544.5 195q145.5 0 251 106.5t128.5 263.5q23 160 -53 266.5t-221.5 106.5t-252 -106.5t-129.5 -266.5 q-23 -158 54 -264t222.5 -106z" glyph-name="ocircumflex" horiz-adv-x="1216" unicode="ô"/><glyph d="M803 1190q-119 0 -180 113q-25 53 -74 53q-43 0 -68.5 -42t-21.5 -108h-131q-2 121 65.5 200t167.5 79q121 0 182 -113q25 -53 74 -53q43 0 68.5 41t21.5 106h131q2 -119 -64.5 -197.5t-170.5 -78.5zM516 -14q-244 0 -379 168t-100 411q35 246 216 413t425 167t378 -167 t99 -413t-215 -412.5t-424 -166.5zM544.5 195q145.5 0 251 106.5t128.5 263.5q23 160 -53 266.5t-221.5 106.5t-252 -106.5t-129.5 -266.5q-23 -158 54 -264t222.5 -106z" glyph-name="otilde" horiz-adv-x="1216" unicode="õ"/><glyph d="M483.5 1200q-55.5 0 -89.5 39t-25.5 94.5t53.5 95t100 39.5q53 0 88 -39.5t27 -95t-53 -94.5t-100.5 -39zM887 1200q-55 0 -90 39t-27 94.5t54 95t100 39.5q55 0 89 -39.5t25.5 -95t-53.5 -94.5t-98 -39zM516 -14q-244 0 -379 168t-100 411q35 246 216 413t425 167 t378 -167t99 -413t-215 -412.5t-424 -166.5zM544.5 195q145.5 0 251 106.5t128.5 263.5q23 160 -53 266.5t-221.5 106.5t-252 -106.5t-129.5 -266.5q-23 -158 54 -264t222.5 -106z" glyph-name="odieresis" horiz-adv-x="1216" unicode="ö"/><glyph d="M743.5 791q-49.5 0 -81 35.5t-23.5 85t49 86t90 36.5q47 0 80 -36.5t25 -86.5q-8 -51 -49 -85.5t-90.5 -34.5zM168 645h1120l-24 -176h-1121zM645 94q-49 0 -79.5 36t-24.5 85q8 49 50 86t89 37q49 0 81 -37t23 -86q-6 -49 -48 -85t-91 -36z" glyph-name="divide" horiz-adv-x="1447" unicode="÷"/><glyph d="M1006 1028q172 -174 131 -459q-37 -246 -215.5 -415.5t-417.5 -169.5q-156 0 -268 75l-99 -125h-108l139 179q-170 170 -129 456q35 248 213 417t418 169q154 0 268 -74l98 123h109zM266 569q-25 -162 51 -268l476 596q-61 49 -154 49q-143 0 -246.5 -107.5 t-126.5 -269.5zM535 195q143 0 246.5 107.5t125.5 266.5q23 162 -53 269l-475 -598q68 -45 156 -45z" glyph-name="oslash" horiz-adv-x="1196" unicode="ø"/><glyph d="M596 1212l-184 324h219l135 -324h-170zM1198 1126l-158 -1126h-209l5 162q-72 -80 -180.5 -127t-215.5 -47q-184 0 -284.5 119.5t-73.5 308.5l100 710h236l-96 -684q-16 -111 41 -178t169 -67q119 0 219.5 69.5t116.5 175.5l97 684h233z" glyph-name="ugrave" horiz-adv-x="1234" unicode="ù"/><glyph d="M780 1212h-170l224 324h221zM1198 1126l-158 -1126h-209l5 162q-72 -80 -180.5 -127t-215.5 -47q-184 0 -284.5 119.5t-73.5 308.5l100 710h236l-96 -684q-16 -111 41 -178t169 -67q119 0 219.5 69.5t116.5 175.5l97 684h233z" glyph-name="uacute" horiz-adv-x="1234" unicode="ú"/><glyph d="M532 1186h-170l261 350h227l162 -350h-170l-119 252zM1198 1126l-158 -1126h-209l5 162q-72 -80 -180.5 -127t-215.5 -47q-184 0 -284.5 119.5t-73.5 308.5l100 710h236l-96 -684q-16 -111 41 -178t169 -67q119 0 219.5 69.5t116.5 175.5l97 684h233z" glyph-name="ucircumflex" horiz-adv-x="1234" unicode="û"/><glyph d="M487.5 1200q-55.5 0 -89 39t-25.5 94.5t53 95t100 39.5q53 0 88 -39.5t27 -95t-53 -94.5t-100.5 -39zM891 1200q-55 0 -90 39t-27 94.5t54 95t100 39.5q55 0 89 -39.5t25.5 -95t-53.5 -94.5t-98 -39zM1198 1126l-158 -1126h-209l5 162q-72 -80 -180.5 -127t-215.5 -47 q-184 0 -284.5 119.5t-73.5 308.5l100 710h236l-96 -684q-16 -111 41 -178t169 -67q119 0 219.5 69.5t116.5 175.5l97 684h233z" glyph-name="udieresis" horiz-adv-x="1234" unicode="ü"/><glyph d="M760 1212h-170l223 324h221zM1239 1126l-905 -1667h-215l336 615h-56l-288 1052h233l229 -825l439 825h227z" glyph-name="yacute" horiz-adv-x="1234" unicode="ý"/><glyph d="M786 1044q215 0 343 -154.5t98 -377.5q-33 -221 -204 -376.5t-386 -155.5q-236 0 -346 188l-94 -680h-220l289 2048h217l-94 -678q159 186 397 186zM633 172q141 0 254.5 99.5t134.5 240.5q20 143 -66 242.5t-227 99.5t-255 -99.5t-134 -242.5q-20 -141 66 -240.5 t227 -99.5z" glyph-name="thorn" horiz-adv-x="1318" unicode="þ"/><glyph d="M475 1200q-55 0 -89 39t-25.5 94.5t53.5 95t100 39.5q53 0 88 -39.5t27 -95t-53.5 -94.5t-100.5 -39zM879 1200q-55 0 -90 39t-27 94.5t54 95t99 39.5q55 0 89 -39.5t26 -95t-53 -94.5t-98 -39zM1239 1126l-905 -1667h-215l336 615h-56l-288 1052h233l229 -825l439 825 h227z" glyph-name="ydieresis" horiz-adv-x="1234" unicode="ÿ"/><glyph d="M1237 1733h-635l21 141h634zM1085 356h-714l-187 -356h-243l833 1536h250l401 -1536h-243zM1049 553l-183 754l-399 -754h582z" glyph-name="Amacron" horiz-adv-x="1552" unicode="Ā"/><glyph d="M891 1221h-635l18 141h635zM338 -12q-164 0 -255 90t-68.5 241.5t155.5 247t356 111.5l260 20l7 31q29 225 -207 225q-104 0 -181 -54t-102 -155h-201q37 168 168 281t348 113q207 0 310.5 -106.5t75.5 -307.5q-35 -274 -54 -399q-23 -152 66 -148l-25 -178q-47 0 -71 2 q-170 18 -191 141q-57 -68 -164.5 -111.5t-226.5 -43.5zM410 168q106 0 200.5 57.5t128.5 136.5l25 173l-225 -21q-279 -23 -299 -186q-10 -74 41 -117t129 -43z" glyph-name="amacron" horiz-adv-x="1136" unicode="ā"/><glyph d="M907 1665q-154 0 -237.5 88t-63.5 242h129q-10 -82 43 -141.5t148 -59.5q98 0 168.5 59.5t81.5 141.5h129q-23 -154 -132.5 -242t-265.5 -88zM1085 356h-714l-187 -356h-243l833 1536h250l401 -1536h-243zM1049 553l-183 754l-399 -754h582z" glyph-name="Abreve" horiz-adv-x="1552" unicode="Ă"/><glyph d="M571 1153q-156 0 -239.5 88t-61.5 242h129q-12 -82 42.5 -141.5t148.5 -59.5q96 0 166.5 59.5t83.5 141.5h127q-20 -154 -129 -242t-267 -88zM338 -12q-164 0 -255 90t-68.5 241.5t155.5 247t356 111.5l260 20l7 31q29 225 -207 225q-104 0 -181 -54t-102 -155h-201 q37 168 168 281t348 113q207 0 310.5 -106.5t75.5 -307.5q-35 -274 -54 -399q-23 -152 66 -148l-25 -178q-47 0 -71 2q-170 18 -191 141q-57 -68 -164.5 -111.5t-226.5 -43.5zM410 168q106 0 200.5 57.5t128.5 136.5l25 173l-225 -21q-279 -23 -299 -186q-10 -74 41 -117 t129 -43z" glyph-name="abreve" horiz-adv-x="1136" unicode="ă"/><glyph d="M1413 -322l55 -98q-135 -119 -313 -112q-109 6 -167 63t-44 160q31 186 281 309h-43l-97 356h-714l-187 -356h-243l833 1536h250l401 -1536h-10q-127 -23 -217 -109t-102 -182q-8 -57 21.5 -93t90.5 -36q113 0 205 98zM467 553h582l-183 754z" glyph-name="Aogonek" horiz-adv-x="1654" unicode="Ą"/><glyph d="M1024 -322l57 -100q-139 -121 -313 -110q-109 6 -167 63t-44 158q14 86 96 176t195 151q-102 29 -119 127q-57 -68 -164.5 -111.5t-226.5 -43.5q-164 0 -255 90t-68.5 241.5t155.5 247t356 111.5l260 20l7 31q29 225 -207 225q-104 0 -181 -54t-102 -155h-201 q37 168 168 281t348 113q207 0 310.5 -106.5t75.5 -307.5q-35 -274 -54 -399q-23 -152 66 -148l-25 -170l31 -10q-121 -31 -210 -114t-103 -177q-10 -57 19.5 -92t90.5 -35q121 0 205 98zM739 362l25 173l-225 -21q-279 -23 -299 -186q-10 -74 41 -117t129 -43q106 0 200 57 t129 137z" glyph-name="aogonek" horiz-adv-x="1146" unicode="ą"/><glyph d="M1137 2048h219l-275 -324h-170zM717 -20q-324 -2 -500 226t-129 562t285.5 561t564.5 227q197 0 340 -81.5t206.5 -203.5t55.5 -263h-221q-2 55 -24.5 110.5t-67.5 107.5t-128 84.5t-192 32.5q-240 0 -406.5 -163.5t-201.5 -411.5q-35 -246 87 -410.5t359 -164.5 q193 0 331 101t173 218h221q-49 -199 -263 -364.5t-490 -167.5z" glyph-name="Cacute" horiz-adv-x="1615" unicode="Ć"/><glyph d="M774 1536h219l-274 -324h-170zM489 -12q-240 0 -363.5 162.5t-88.5 416.5q35 250 205 410t409 160q238 0 352.5 -123t110.5 -289h-211q-2 92 -75.5 155.5t-186.5 63.5q-150 0 -250 -102.5t-124.5 -274.5t48 -276.5t222.5 -104.5q109 0 197.5 65.5t123.5 158.5h207 q-51 -172 -194.5 -297t-381.5 -125z" glyph-name="cacute" horiz-adv-x="1165" unicode="ć"/><glyph d="M960.5 1712q-55.5 0 -89 39t-25.5 94.5t53 95t100 39.5q53 0 88 -39.5t27 -95t-53 -94.5t-100.5 -39zM717 -20q-324 -2 -500 226t-129 562t285.5 561t564.5 227q197 0 340 -81.5t206.5 -203.5t55.5 -263h-221q-2 55 -24.5 110.5t-67.5 107.5t-128 84.5t-192 32.5 q-240 0 -406.5 -163.5t-201.5 -411.5q-35 -246 87 -410.5t359 -164.5q193 0 331 101t173 218h221q-49 -199 -263 -364.5t-490 -167.5z" glyph-name="Cdotaccent" horiz-adv-x="1615" unicode="Ċ"/><glyph d="M659 1200q-55 0 -89.5 39t-26.5 94.5t53 95t100.5 39.5t89 -39.5t25.5 -95t-53.5 -94.5t-98.5 -39zM489 -12q-240 0 -363.5 162.5t-88.5 416.5q35 250 205 410t409 160q238 0 352.5 -123t110.5 -289h-211q-2 92 -75.5 155.5t-186.5 63.5q-150 0 -250 -102.5 t-124.5 -274.5t48 -276.5t222.5 -104.5q109 0 197.5 65.5t123.5 158.5h207q-51 -172 -194.5 -297t-381.5 -125z" glyph-name="cdotaccent" horiz-adv-x="1165" unicode="ċ"/><glyph d="M684 2048h164l125 -246l196 246h164l-262 -350h-227zM717 -20q-324 -2 -500 226t-129 562t285.5 561t564.5 227q197 0 340 -81.5t206.5 -203.5t55.5 -263h-221q-2 55 -24.5 110.5t-67.5 107.5t-128 84.5t-192 32.5q-240 0 -406.5 -163.5t-201.5 -411.5 q-35 -246 87 -410.5t359 -164.5q193 0 331 101t173 218h221q-49 -199 -263 -364.5t-490 -167.5z" glyph-name="Ccaron" horiz-adv-x="1615" unicode="Č"/><glyph d="M371 1536h164l127 -246l194 246h164l-260 -350h-228zM489 -12q-240 0 -363.5 162.5t-88.5 416.5q35 250 205 410t409 160q238 0 352.5 -123t110.5 -289h-211q-2 92 -75.5 155.5t-186.5 63.5q-150 0 -250 -102.5t-124.5 -274.5t48 -276.5t222.5 -104.5q109 0 197.5 65.5 t123.5 158.5h207q-51 -172 -194.5 -297t-381.5 -125z" glyph-name="ccaron" horiz-adv-x="1165" unicode="č"/><glyph d="M463 2048h164l125 -246l196 246h164l-262 -350h-227zM256 1536h492q162 0 292.5 -47t223 -140.5t130.5 -245t11 -343.5q-49 -354 -296 -557t-577 -203h-491zM557 199q244 0 415 142t210 419q23 156 -3 270.5t-92.5 181t-157.5 98t-210 31.5h-266l-162 -1142h266z" glyph-name="Dcaron" horiz-adv-x="1484" unicode="Ď"/><glyph d="M1473 1280q-39 14 -58.5 49t-13.5 78q8 55 52 94t99 39q53 0 86 -39t25 -94t-65.5 -139t-108.5 -138h-107zM1282 1536l-215 -1534l-203 -2v156q-152 -166 -385 -166q-229 0 -350 160.5t-86 406.5t203 413t397 167q215 0 328 -168l80 567h231zM547 184q113 0 207 72 t143 188l31 224q-14 117 -88 189.5t-187 72.5q-145 0 -250.5 -107.5t-128 -265.5t52.5 -265.5t220 -107.5z" glyph-name="dcaron" horiz-adv-x="1656" unicode="ď"/><glyph d="M891 1536q162 0 293 -47t224 -140.5t131 -245t11 -343.5q-49 -354 -296.5 -557t-577.5 -203h-490l99 702h-146l19 134h145l98 700h490zM1327 760q43 303 -87 442t-378 139h-266l-72 -505h244l-18 -134h-244l-72 -503h266q244 0 416 141t211 420z" glyph-name="Dcroat" horiz-adv-x="1628" unicode="Đ"/><glyph d="M1286 1200h-143l-166 -1200l-195 -2l9 147q-150 -166 -357 -165q-209 0 -320.5 153.5t-76.5 378.5q31 227 184.5 379.5t362.5 152.5q199 0 305 -153l41 309h-281l21 133h280l29 203h213l-29 -203h142zM500 172q102 0 189 65.5t130 172.5l29 204q-12 106 -81 173t-171 67 q-135 0 -231.5 -98.5t-114.5 -243.5q-23 -143 47 -241.5t203 -98.5z" glyph-name="dcroat" horiz-adv-x="1308" unicode="đ"/><glyph d="M1047 1733h-635l20 141h635zM432 1341l-67 -473h661l-29 -198h-661l-66 -471h746l-27 -199h-971l215 1536h971l-26 -195h-746z" glyph-name="Emacron" horiz-adv-x="1198" unicode="Ē"/><glyph d="M977 1227h-635l18 141h635zM1085 567q-12 -63 -14 -75h-815q-12 -147 64.5 -232.5t195.5 -87.5q106 0 189 46t126 128h195q-43 -141 -180 -249.5t-352 -106.5q-240 0 -365 162.5t-88 410.5q35 252 200 412t412 160q236 0 351.5 -155t80.5 -413zM627 950 q-129 0 -217 -78.5t-127 -212.5h596q4 135 -60.5 213t-191.5 78z" glyph-name="emacron" horiz-adv-x="1165" unicode="ē"/><glyph d="M727 1712q-55 0 -90 39t-27 94q10 55 54.5 95t99.5 40t89 -39.5t25.5 -95t-53.5 -94.5t-98 -39zM432 1341l-67 -473h661l-29 -198h-661l-66 -471h746l-27 -199h-971l215 1536h971l-26 -195h-746z" glyph-name="Edotaccent" horiz-adv-x="1198" unicode="Ė"/><glyph d="M655.5 1206q-55.5 0 -89.5 40t-25.5 95.5t53.5 94.5t100 39q53 0 88 -39t27 -94.5t-53 -95.5t-100.5 -40zM1085 567q-12 -63 -14 -75h-815q-12 -147 64.5 -232.5t195.5 -87.5q106 0 189 46t126 128h195q-43 -141 -180 -249.5t-352 -106.5q-240 0 -365 162.5t-88 410.5 q35 252 200 412t412 160q236 0 351.5 -155t80.5 -413zM627 950q-129 0 -217 -78.5t-127 -212.5h596q4 135 -60.5 213t-191.5 78z" glyph-name="edotaccent" horiz-adv-x="1165" unicode="ė"/><glyph d="M1178 1341h-746l-67 -473h661l-29 -198h-661l-66 -471h746l-27 -199h-67q-117 -18 -212.5 -106.5t-109.5 -184.5q-8 -57 21.5 -93t91.5 -36q113 0 205 98l55 -98q-135 -119 -314 -112q-109 6 -167 63t-43 160q31 186 280 309h-711l215 1536h971z" glyph-name="Eogonek" horiz-adv-x="1243" unicode="Ę"/><glyph d="M653 1135q236 0 351.5 -155t80.5 -413q-12 -63 -14 -75h-815q-12 -147 64.5 -232.5t195.5 -87.5q106 0 189 46t126 128h195q-37 -121 -143.5 -220t-272.5 -128q-2 0 -6 -4q-68 -74 -80 -156q-8 -57 21.5 -92t91.5 -35q121 0 205 99l55 -101q-135 -121 -311 -110 q-109 4 -167.5 62t-43.5 159q12 88 78 164q0 4 2 8q-223 14 -336 175t-78 396q35 252 199.5 412t412.5 160zM879 659q4 135 -60.5 213t-191.5 78q-129 0 -217 -78.5t-127 -212.5h596z" glyph-name="eogonek" horiz-adv-x="1132" unicode="ę"/><glyph d="M608 1698l-159 350h163l125 -246l197 246h164l-262 -350h-228zM432 1341l-67 -473h661l-29 -198h-661l-66 -471h746l-27 -199h-971l215 1536h971l-26 -195h-746z" glyph-name="Ecaron" horiz-adv-x="1198" unicode="Ě"/><glyph d="M539 1194l-162 350h164l127 -248l194 248h164l-260 -350h-227zM1085 567q-12 -63 -14 -75h-815q-12 -147 64.5 -232.5t195.5 -87.5q106 0 189 46t126 128h195q-43 -141 -180 -249.5t-352 -106.5q-240 0 -365 162.5t-88 410.5q35 252 200 412t412 160q236 0 351.5 -155 t80.5 -413zM627 950q-129 0 -217 -78.5t-127 -212.5h596q4 135 -60.5 213t-191.5 78z" glyph-name="ecaron" horiz-adv-x="1165" unicode="ě"/><glyph d="M934 1665q-154 0 -238 88t-63 242h129q-10 -82 43 -141.5t147 -59.5q98 0 169 59.5t81 141.5h129q-23 -154 -132 -242t-265 -88zM1477 797l-31 -215l-80 -582h-152l-4 225q-102 -123 -227 -179t-305 -56q-328 0 -491.5 220t-118.5 552q49 350 276 568t543 218 q264 0 428 -132t162 -376h-213q-14 143 -123 223t-264 80q-244 0 -404 -157.5t-197 -423.5q-37 -254 88 -410.5t338 -156.5q219 0 358.5 111.5t166.5 299.5h-404l29 191h625z" glyph-name="Gbreve" horiz-adv-x="1564" unicode="Ğ"/><glyph d="M680 1153q-156 0 -240 88t-61 242h129q-12 -82 42 -141.5t148 -59.5q96 0 167 59.5t83 141.5h127q-20 -154 -128.5 -242t-266.5 -88zM399 -502q-219 -4 -345 82t-120 225q2 80 49.5 160t131.5 121q-43 25 -74 71t-23 103q16 117 175 199q-102 111 -78 291 q23 162 165 275.5t334 113.5q70 0 145 -20.5t118 -53.5q35 70 118.5 109.5t151.5 27.5l-23 -158q-45 8 -90 -10t-67 -61q72 -117 55 -234q-25 -180 -168 -292.5t-344 -116.5q-147 -2 -217 45q-37 -14 -57.5 -41t-14.5 -53q12 -78 160 -78l223 -4q174 -2 272.5 -70t96.5 -203 q-4 -190 -161 -308t-413 -120zM803 741q12 92 -48.5 150.5t-166.5 58.5q-102 0 -177 -58t-89 -153q-14 -92 45 -152.5t161 -60.5q109 0 185 60.5t90 154.5zM756 -104q6 127 -269 127h-200q-55 -14 -93 -60.5t-47 -101.5q-12 -84 63 -131t198 -47q158 0 253 59.5t95 153.5z " glyph-name="gbreve" horiz-adv-x="1138" unicode="ğ"/><glyph d="M1024 1712q-55 0 -89 39t-25.5 94.5t53.5 95t100 39.5q53 0 88 -39.5t26.5 -95t-53.5 -94.5t-100 -39zM1477 797l-31 -215l-80 -582h-152l-4 225q-102 -123 -227 -179t-305 -56q-328 0 -491.5 220t-118.5 552q49 350 276 568t543 218q264 0 428 -132t162 -376h-213 q-14 143 -123 223t-264 80q-244 0 -404 -157.5t-197 -423.5q-37 -254 88 -410.5t338 -156.5q219 0 358.5 111.5t166.5 299.5h-404l29 191h625z" glyph-name="Gdotaccent" horiz-adv-x="1564" unicode="Ġ"/><glyph d="M668 1200q-55 0 -90 39t-27 94.5t53 95t100.5 39.5t89 -39.5t25.5 -95t-53 -94.5t-98 -39zM399 -502q-219 -4 -345 82t-120 225q2 80 49.5 160t131.5 121q-43 25 -74 71t-23 103q16 117 175 199q-102 111 -78 291q23 162 165 275.5t334 113.5q70 0 145 -20.5t118 -53.5 q35 70 118.5 109.5t151.5 27.5l-23 -158q-45 8 -90 -10t-67 -61q72 -117 55 -234q-25 -180 -168 -292.5t-344 -116.5q-147 -2 -217 45q-37 -14 -57.5 -41t-14.5 -53q12 -78 160 -78l223 -4q174 -2 272.5 -70t96.5 -203q-4 -190 -161 -308t-413 -120zM803 741 q12 92 -48.5 150.5t-166.5 58.5q-102 0 -177 -58t-89 -153q-14 -92 45 -152.5t161 -60.5q109 0 185 60.5t90 154.5zM756 -104q6 127 -269 127h-200q-55 -14 -93 -60.5t-47 -101.5q-12 -84 63 -131t198 -47q158 0 253 59.5t95 153.5z" glyph-name="gdotaccent" horiz-adv-x="1138" unicode="ġ"/><glyph d="M1477 797l-31 -215l-80 -582h-152l-4 225q-102 -123 -227 -179t-305 -56q-328 0 -491.5 220t-118.5 552q49 350 276 568t543 218q264 0 428 -132t162 -376h-213q-14 143 -123 223t-264 80q-244 0 -404 -157.5t-197 -423.5q-37 -254 88 -410.5t338 -156.5 q219 0 358.5 111.5t166.5 299.5h-404l29 191h625zM676 -350q-84 35 -72 127q8 55 52 94t99.5 39t87 -39t23.5 -94.5t-65.5 -139t-106.5 -135.5h-106z" glyph-name="Gcommaaccent" horiz-adv-x="1564" unicode="Ģ"/><glyph d="M750 1427q39 -14 58 -49t13 -78q-8 -55 -52 -94t-99 -39q-53 0 -86 39t-25 94.5t64.5 137.5t109.5 139h107zM399 -502q-219 -4 -345 82t-120 225q2 80 49.5 160t131.5 121q-43 25 -74 71t-23 103q16 117 175 199q-102 111 -78 291q23 162 165 275.5t334 113.5 q70 0 145 -20.5t118 -53.5q35 70 118.5 109.5t151.5 27.5l-23 -158q-45 8 -90 -10t-67 -61q72 -117 55 -234q-25 -180 -168 -292.5t-344 -116.5q-147 -2 -217 45q-37 -14 -57.5 -41t-14.5 -53q12 -78 160 -78l223 -4q174 -2 272.5 -70t96.5 -203q-4 -190 -161 -308 t-413 -120zM803 741q12 92 -48.5 150.5t-166.5 58.5q-102 0 -177 -58t-89 -153q-14 -92 45 -152.5t161 -60.5q109 0 185 60.5t90 154.5zM756 -104q6 127 -269 127h-200q-55 -14 -93 -60.5t-47 -101.5q-12 -84 63 -131t198 -47q158 0 253 59.5t95 153.5z" glyph-name="gcommaaccent" horiz-adv-x="1138" unicode="ģ"/><glyph d="M1698 1157h-133l-162 -1157h-223l92 670h-768l-94 -670h-224l162 1157h-135l12 92h135l41 287h224l-41 -287h770l41 287h223l-41 -287h133zM1341 1157h-770l-39 -289h768z" glyph-name="Hbar" horiz-adv-x="1771" unicode="Ħ"/><glyph d="M893 1137q190 0 285.5 -109.5t68.5 -300.5l-100 -727h-238l99 700q14 109 -41.5 169.5t-169.5 60.5q-121 0 -221.5 -67.5t-114.5 -174.5l-94 -688h-238l170 1208h-96l18 135h96l27 193h238l-27 -193h303l-20 -135h-303l-33 -231q72 74 177 117t214 43z" glyph-name="hbar" horiz-adv-x="1316" unicode="ħ"/><glyph d="M541 1702q-121 0 -179 113q-27 53 -75 53q-43 0 -68.5 -42t-21.5 -108h-134q-2 121 67 200t169 79q125 0 182 -113q25 -53 74 -53q43 0 68.5 41t21.5 106h131q4 -119 -63.5 -197.5t-171.5 -78.5zM266 1536h226l-216 -1536h-225z" glyph-name="Itilde" horiz-adv-x="512" unicode="Ĩ"/><glyph d="M467 1190q-119 0 -180 113q-25 53 -74 53q-43 0 -68.5 -42t-21.5 -108h-135q-2 121 67.5 200t169.5 79q121 0 183 -113q25 -53 73 -53q43 0 68.5 41t21.5 106h131q2 -119 -64.5 -197.5t-170.5 -78.5zM195 1024h217l-144 -1024h-217z" glyph-name="itilde" horiz-adv-x="503" unicode="ĩ"/><glyph d="M106 1874h637l-20 -141h-637zM266 1536h226l-216 -1536h-225z" glyph-name="Imacron" horiz-adv-x="512" unicode="Ī"/><glyph d="M31 1362h637l-19 -141h-637zM195 1024h217l-144 -1024h-217z" glyph-name="imacron" horiz-adv-x="503" unicode="ī"/><glyph d="M305 -420q-137 -119 -315 -112q-109 6 -168.5 63t-44.5 160q31 186 282 309h-8l215 1536h226l-216 -1536h-24q-117 -18 -212 -106.5t-110 -184.5q-8 -57 22 -93t91 -36q117 0 205 98z" glyph-name="Iogonek" horiz-adv-x="512" unicode="Į"/><glyph d="M327.5 1200q-55.5 0 -89 39t-25.5 94.5t53 95t101 39.5q53 0 87.5 -39.5t26.5 -95t-53 -94.5t-100.5 -39zM301 -420q-135 -119 -313 -112q-109 6 -168.5 63t-44.5 160q27 186 282 309h-6l144 1024h217l-144 -1024h-18q-119 -18 -214 -106.5t-110 -184.5q-8 -57 21.5 -93 t93.5 -36q113 0 205 98z" glyph-name="iogonek" horiz-adv-x="503" unicode="į"/><glyph d="M403 1712q-55 0 -89.5 39t-26.5 94q10 55 54 95t99.5 40t89 -39.5t25.5 -95t-53.5 -94.5t-98.5 -39zM266 1536h226l-216 -1536h-225z" glyph-name="Idotaccent" horiz-adv-x="512" unicode="İ"/><glyph d="M195 1024h217l-144 -1024h-217z" glyph-name="dotlessi" horiz-adv-x="503" unicode="ı"/><glyph d="M346 1536h223l-215 -1536h-223zM850 -20q-92 0 -156 18l33 229q61 -23 145 -22q61 0 113.5 45t61.5 108l165 1178h224l-168 -1194q-23 -156 -141.5 -259t-276.5 -103z" glyph-name="IJ" horiz-adv-x="1523" unicode="Ĳ"/><glyph d="M1100 1270q-53 0 -88 40t-29 95q10 53 55 93t98.5 40t88.5 -40t26 -93q-8 -55 -53 -95t-98 -40zM410 1210q-53 0 -88 39t-27 94.5t54 95.5t100 40q55 0 88.5 -40t25.5 -95.5t-53 -94.5t-100 -39zM530 -510l27 195h47q88 0 130 38.5t54 122.5l181 1280h217l-182 -1300 q-45 -336 -426 -336h-48zM276 1024h218l-144 -1024h-217z" glyph-name="ij" horiz-adv-x="1327" unicode="ĳ"/><glyph d="M940 0l-586 702l-98 -702h-225l215 1536h225l-100 -713l704 713h268l-751 -764l637 -772h-289zM469 -360q-84 35 -72 127q8 55 52.5 94t99.5 39t87 -39t23 -94q-6 -55 -63 -138.5t-109 -136.5h-106z" glyph-name="Kcommaaccent" horiz-adv-x="1323" unicode="Ķ"/><glyph d="M23 0l215 1536h237l-121 -864l441 454h256l-527 -524l428 -602h-260l-362 510l-70 -510h-237zM379 -358q-39 14 -58.5 49t-13.5 78q8 53 52 93t99.5 40t87.5 -39t23.5 -94.5t-66 -139.5t-108.5 -137h-106z" glyph-name="kcommaaccent" horiz-adv-x="1071" unicode="ķ"/><glyph d="M549 2048h219l-274 -324h-170zM266 1536h226l-189 -1337h549l-27 -199h-774z" glyph-name="Lacute" horiz-adv-x="972" unicode="Ĺ"/><glyph d="M537 2048h219l-275 -324h-170zM72 0l217 1536h217l-215 -1536h-219z" glyph-name="lacute" horiz-adv-x="686" unicode="ĺ"/><glyph d="M266 1536h226l-189 -1337h549l-27 -199h-774zM338 -385q-39 14 -58.5 49t-13.5 78q8 53 52 93t99.5 40t87.5 -39t23.5 -94t-64.5 -138t-108 -139h-106z" glyph-name="Lcommaaccent" horiz-adv-x="972" unicode="Ļ"/><glyph d="M72 0l217 1536h217l-215 -1536h-219zM92 -373q-39 14 -58.5 49t-13.5 78q8 53 52.5 93t99.5 40t87 -38.5t23.5 -94t-64.5 -138.5t-107 -138h-107z" glyph-name="lcommaaccent" horiz-adv-x="686" unicode="ļ"/><glyph d="M877 1278q-39 14 -58.5 49t-13.5 78q8 53 52 93t99.5 40t87 -39t23.5 -94q-6 -55 -62.5 -137t-109.5 -140h-107zM266 1536h226l-189 -1337h549l-27 -199h-774z" glyph-name="Lcaron" horiz-adv-x="999" unicode="Ľ"/><glyph d="M741 1288q-39 14 -58 49t-13 78q8 55 52 94t99 39q53 0 86 -39t25 -94t-64.5 -137t-109.5 -139h-107zM72 0l217 1536h217l-215 -1536h-219z" glyph-name="lcaron" horiz-adv-x="888" unicode="ľ"/><glyph d="M72 0l217 1536h217l-215 -1536h-219zM610 635q-43 0 -69.5 29.5t-20.5 72.5t42 74t77 31t68.5 -31t21.5 -74t-41 -72.5t-78 -29.5z" glyph-name="ldot" horiz-adv-x="778" unicode="ŀ"/><glyph d="M852 199l-27 -199h-774l80 578l-108 -101h-146l277 254l112 805h226l-80 -569l102 98h150l-275 -252l-86 -614h549z" glyph-name="Lslash" horiz-adv-x="972" unicode="Ł"/><glyph d="M682 1055l-272 -250l-7 -6l-112 -799h-219l80 571l-113 -104h-143l278 256l115 813h217l-82 -584l6 6l102 97h150z" glyph-name="lslash" horiz-adv-x="686" unicode="ł"/><glyph d="M1044 1724h-170l224 324h221zM1591 1536l-215 -1536h-221l-713 1186l-166 -1186h-225l215 1536h221l715 -1184l166 1184h223z" glyph-name="Nacute" horiz-adv-x="1611" unicode="Ń"/><glyph d="M778 1212h-170l223 324h222zM780 1141q188 0 282.5 -109.5t67.5 -302.5l-100 -729h-235l98 702q14 109 -40 170.5t-167 61.5q-121 0 -219 -68.5t-113 -175.5l-96 -690h-235l157 1126h207l-4 -157q72 80 180 126t217 46z" glyph-name="nacute" horiz-adv-x="1216" unicode="ń"/><glyph d="M1591 1536l-215 -1536h-221l-713 1186l-166 -1186h-225l215 1536h221l715 -1184l166 1184h223zM641 -358q-84 35 -72 127q8 55 52.5 94t99.5 39t87 -39t23.5 -94.5t-65.5 -139.5t-107 -135h-106z" glyph-name="Ncommaaccent" horiz-adv-x="1611" unicode="Ņ"/><glyph d="M780 1141q188 0 282.5 -109.5t67.5 -302.5l-100 -729h-235l98 702q14 109 -40 170.5t-167 61.5q-121 0 -219 -68.5t-113 -175.5l-96 -690h-235l157 1126h207l-4 -157q72 80 180 126t217 46zM412 -381q-39 14 -57.5 49t-14.5 78q10 55 54 94t100 39q53 0 84.5 -39 t23.5 -94q-6 -55 -62.5 -137t-109.5 -139h-106z" glyph-name="ncommaaccent" horiz-adv-x="1216" unicode="ņ"/><glyph d="M836 1698l-160 350h164l125 -246l196 246h164l-262 -350h-227zM1591 1536l-215 -1536h-221l-713 1186l-166 -1186h-225l215 1536h221l715 -1184l166 1184h223z" glyph-name="Ncaron" horiz-adv-x="1611" unicode="Ň"/><glyph d="M571 1186l-161 350h163l127 -246l195 246h164l-260 -350h-228zM780 1141q188 0 282.5 -109.5t67.5 -302.5l-100 -729h-235l98 702q14 109 -40 170.5t-167 61.5q-121 0 -219 -68.5t-113 -175.5l-96 -690h-235l157 1126h207l-4 -157q72 80 180 126t217 46z" glyph-name="ncaron" horiz-adv-x="1216" unicode="ň"/><glyph d="M1610 1536l-236 -1675q-20 -152 -132 -224.5t-275 -70.5l20 147q68 -2 111 29t55 119l21 155l-713 1160l-166 -1176h-215l215 1536h213l723 -1174l164 1174h215z" glyph-name="Eng" horiz-adv-x="1658" unicode="Ŋ"/><glyph d="M780 1141q188 0 282.5 -109.5t67.5 -302.5l-100 -729h-45l-22 -152q-23 -152 -134.5 -224.5t-275.5 -69.5l20 145q70 -2 115 29.5t57 119.5l23 166l29 2l96 686q14 109 -40 170.5t-167 61.5q-121 0 -219 -68.5t-113 -175.5l-96 -690h-235l157 1126h207l-4 -157 q72 80 180 126t217 46z" glyph-name="eng" horiz-adv-x="1255" unicode="ŋ"/><glyph d="M698 1874h635l-20 -141h-635zM748 -20q-328 0 -507.5 228t-132 560t290 560t570.5 228q326 0 506 -228t133 -560t-291.5 -560t-568.5 -228zM778.5 197q239.5 0 408.5 162.5t204 408.5q35 248 -89 411.5t-364 163.5t-411 -163.5t-205 -411.5q-35 -244 91 -407.5 t365.5 -163.5z" glyph-name="Omacron" horiz-adv-x="1685" unicode="Ō"/><glyph d="M371 1362h635l-21 -141h-635zM491.5 -20q-223.5 0 -346 154.5t-90.5 377.5q31 225 197 378.5t389 153.5q225 0 348 -153.5t92 -378.5q-33 -225 -199.5 -378.5t-390 -153.5zM518 172q133 0 230.5 97.5t119.5 242.5q18 145 -51 243.5t-203 98.5q-135 0 -231 -98.5 t-115 -243.5q-23 -143 47 -241.5t203 -98.5z" glyph-name="omacron" horiz-adv-x="1175" unicode="ō"/><glyph d="M1069 2048h207l-395 -358h-158zM1442 2048h207l-396 -358h-157zM748 -20q-328 0 -507.5 228t-132 560t290 560t570.5 228q326 0 506 -228t133 -560t-291.5 -560t-568.5 -228zM778.5 197q239.5 0 408.5 162.5t204 408.5q35 248 -89 411.5t-364 163.5t-411 -163.5 t-205 -411.5q-35 -244 91 -407.5t365.5 -163.5z" glyph-name="Ohungarumlaut" horiz-adv-x="1685" unicode="Ő"/><glyph d="M743 1536h207l-397 -358h-156zM1116 1536h207l-395 -358h-158zM491.5 -20q-223.5 0 -346 154.5t-90.5 377.5q31 225 197 378.5t389 153.5q225 0 348 -153.5t92 -378.5q-33 -225 -199.5 -378.5t-390 -153.5zM518 172q133 0 230.5 97.5t119.5 242.5q18 145 -51 243.5 t-203 98.5q-135 0 -231 -98.5t-115 -243.5q-23 -143 47 -241.5t203 -98.5z" glyph-name="ohungarumlaut" horiz-adv-x="1175" unicode="ő"/><glyph d="M2519 1341h-745l-68 -473h661l-28 -198h-662l-65 -471h745l-26 -199h-971l31 223q-258 -242 -594 -241q-328 0 -525.5 230t-152.5 558q31 215 162 396.5t327.5 287t411.5 105.5q332 0 524 -242l31 219h971zM827 197q205 0 379 127t244 321l35 248q-14 197 -152.5 323.5 t-345.5 126.5q-240 0 -429 -166.5t-224 -406.5q-33 -240 110 -406.5t383 -166.5z" glyph-name="OE" horiz-adv-x="2654" unicode="Œ"/><glyph d="M1501 1135q236 0 351.5 -155t80.5 -413q-12 -63 -14 -75h-815q-12 -147 64.5 -232.5t195.5 -87.5q106 0 189 46t126 128h195q-43 -141 -180.5 -249.5t-352.5 -106.5q-268 0 -391 205q-188 -215 -454 -215q-240 0 -371 168.5t-96 416.5q35 250 214 418t419 168 q131 0 232 -56.5t161 -154.5q174 195 446 195zM1726 659q4 135 -60 213t-191 78q-129 0 -217.5 -78.5t-127.5 -212.5h596zM526 190q125 0 221.5 83t135.5 214q0 37 6 76q8 53 16 82q-4 131 -76.5 214t-197.5 83q-143 0 -246.5 -108.5t-128.5 -268.5q-23 -158 52 -266.5 t218 -108.5z" glyph-name="oe" horiz-adv-x="1988" unicode="œ"/><glyph d="M868 1724h-170l224 324h221zM1169 0h-249l-293 614h-305l-86 -614h-226l215 1536h658q180 0 288.5 -141.5t83.5 -329.5q-23 -156 -138.5 -283t-262.5 -153zM770 793q100 0 182 79.5t99 194.5q16 113 -43.5 193.5t-159.5 80.5h-424l-78 -548h424z" glyph-name="Racute" horiz-adv-x="1220" unicode="Ŕ"/><glyph d="M588 1212h-170l225 324h219zM831 1139l-30 -205q-193 8 -314.5 -81t-148.5 -284l-80 -569h-235l157 1126h215l-6 -188q49 88 157.5 146.5t284.5 54.5z" glyph-name="racute" horiz-adv-x="841" unicode="ŕ"/><glyph d="M1169 0h-249l-293 614h-305l-86 -614h-226l215 1536h658q180 0 288.5 -141.5t83.5 -329.5q-23 -156 -138.5 -283t-262.5 -153zM770 793q100 0 182 79.5t99 194.5q16 113 -43.5 193.5t-159.5 80.5h-424l-78 -548h424zM455 -358q-84 35 -72 127q8 55 51 94t101 39 q53 0 85.5 -39t24.5 -94.5t-65.5 -138.5t-108.5 -136h-106z" glyph-name="Rcommaaccent" horiz-adv-x="1220" unicode="Ŗ"/><glyph d="M831 1139l-30 -205q-193 8 -314.5 -81t-148.5 -284l-80 -569h-235l157 1126h215l-6 -188q49 88 157.5 146.5t284.5 54.5zM55 -373q-39 14 -59.5 49t-13.5 78q8 55 53 94t100 39q53 0 86 -38.5t25 -94t-65.5 -139.5t-108.5 -137h-107z" glyph-name="rcommaaccent" horiz-adv-x="841" unicode="ŗ"/><glyph d="M662 1698l-162 350h164l127 -246l194 246h164l-260 -350h-227zM1169 0h-249l-293 614h-305l-86 -614h-226l215 1536h658q180 0 288.5 -141.5t83.5 -329.5q-23 -156 -138.5 -283t-262.5 -153zM770 793q100 0 182 79.5t99 194.5q16 113 -43.5 193.5t-159.5 80.5h-424 l-78 -548h424z" glyph-name="Rcaron" horiz-adv-x="1220" unicode="Ř"/><glyph d="M391 1186l-160 350h164l125 -246l197 246h164l-263 -350h-227zM831 1139l-30 -205q-193 8 -314.5 -81t-148.5 -284l-80 -569h-235l157 1126h215l-6 -188q49 88 157.5 146.5t284.5 54.5z" glyph-name="rcaron" horiz-adv-x="841" unicode="ř"/><glyph d="M997 2048h222l-275 -326h-170zM538.5 -20q-237.5 0 -370.5 135t-123 342l207 -2q6 -111 84 -188t239 -77q145 0 242.5 59.5t116.5 174.5q8 59 -13.5 106.5t-77 83t-102.5 56t-129 51.5q-18 6 -28 10q-82 31 -127 50.5t-109.5 58.5t-96.5 77.5t-51.5 98t-9.5 131.5 q27 188 196 298.5t382 110.5q471 0 487 -446h-204q2 104 -76 181t-230 77q-117 0 -213 -55.5t-110 -153.5q-6 -47 13.5 -86t62.5 -67.5t91 -52t111 -50.5q18 -6 27 -10q209 -86 279 -131q186 -123 157 -332q-31 -215 -209 -332.5t-415.5 -117.5z" glyph-name="Sacute" horiz-adv-x="1300" unicode="Ś"/><glyph d="M721 1536h219l-274 -324h-170zM434 -16q-215 0 -319.5 110.5t-98.5 249.5h203q4 -78 71.5 -133t162 -53t155 47t70.5 117q10 74 -52.5 112.5t-189.5 67.5q-74 16 -127 35.5t-106 53.5t-76 89t-12 129q20 152 154 243t317 91q172 0 278.5 -86t100.5 -246h-201 q-6 76 -61.5 113t-124.5 41q-86 4 -148.5 -30t-71.5 -99q-4 -27 1.5 -47.5t24.5 -37t34.5 -26.5t53.5 -21.5t57.5 -16.5t66.5 -17q72 -16 125 -38t106.5 -58.5t76 -97t11.5 -140.5q-23 -156 -157 -254t-324 -98z" glyph-name="sacute" horiz-adv-x="989" unicode="ś"/><glyph d="M727 893q209 -86 279 -131q186 -123 157 -332q-29 -203 -190.5 -319.5t-382.5 -128.5l-74 -115q109 20 174.5 -34t50.5 -150q-12 -90 -82.5 -152.5t-160.5 -62.5q-70 0 -133.5 39.5t-83.5 97.5l104 39q14 -31 52 -51.5t75 -20.5q45 0 81 31.5t42 79.5q10 66 -42 90 t-138 -9l-78 54l106 164q-213 16 -330.5 149t-107.5 326l207 -2q6 -111 84 -188t239 -77q145 0 242.5 59.5t116.5 174.5q8 59 -13.5 106.5t-77 83t-102.5 56t-129 51.5q-18 6 -28 10q-82 31 -127 50.5t-109.5 58.5t-96.5 77.5t-51.5 98t-9.5 131.5q27 188 196 298.5 t382 110.5q471 0 487 -446h-204q2 104 -76 181t-230 77q-117 0 -213 -55.5t-110 -153.5q-6 -47 13.5 -86t62.5 -67.5t91 -52t111 -50.5q19 -6 27 -10z" glyph-name="Scedilla" horiz-adv-x="1300" unicode="Ş"/><glyph d="M434 -16q-215 0 -319.5 110.5t-98.5 249.5h203q4 -78 71.5 -133t162 -53t155 47t70.5 117q10 74 -52.5 112.5t-189.5 67.5q-74 16 -127 35.5t-106 53.5t-76 89t-12 129q20 152 154 243t317 91q172 0 278.5 -86t100.5 -246h-201q-6 76 -61.5 113t-124.5 41 q-86 4 -148.5 -30t-71.5 -99q-4 -27 1.5 -47.5t24.5 -37t34.5 -26.5t53.5 -21.5t57.5 -16.5t66.5 -17q72 -16 125 -38t106.5 -58.5t76 -97t11.5 -140.5q-23 -156 -157 -254t-324 -98zM465 -18l-74 -115q106 20 173 -35t52 -151q-12 -88 -82.5 -150.5t-160.5 -62.5 q-72 0 -134.5 38.5t-84.5 96.5l104 39q16 -31 54 -51.5t75 -20.5q45 0 81 31.5t42 79.5q10 68 -43 92t-139 -9l-76 54l104 164h109z" glyph-name="scedilla" horiz-adv-x="989" unicode="ş"/><glyph d="M575 2048h164l125 -248l197 248h164l-262 -350h-228zM538.5 -20q-237.5 0 -370.5 135t-123 342l207 -2q6 -111 84 -188t239 -77q145 0 242.5 59.5t116.5 174.5q8 59 -13.5 106.5t-77 83t-102.5 56t-129 51.5q-18 6 -28 10q-82 31 -127 50.5t-109.5 58.5t-96.5 77.5 t-51.5 98t-9.5 131.5q27 188 196 298.5t382 110.5q471 0 487 -446h-204q2 104 -76 181t-230 77q-117 0 -213 -55.5t-110 -153.5q-6 -47 13.5 -86t62.5 -67.5t91 -52t111 -50.5q18 -6 27 -10q209 -86 279 -131q186 -123 157 -332q-31 -215 -209 -332.5t-415.5 -117.5z" glyph-name="Scaron" horiz-adv-x="1300" unicode="Š"/><glyph d="M299 1536h164l125 -246l196 246h164l-262 -350h-227zM434 -16q-215 0 -319.5 110.5t-98.5 249.5h203q4 -78 71.5 -133t162 -53t155 47t70.5 117q10 74 -52.5 112.5t-189.5 67.5q-74 16 -127 35.5t-106 53.5t-76 89t-12 129q20 152 154 243t317 91q172 0 278.5 -86 t100.5 -246h-201q-6 76 -61.5 113t-124.5 41q-86 4 -148.5 -30t-71.5 -99q-4 -27 1.5 -47.5t24.5 -37t34.5 -26.5t53.5 -21.5t57.5 -16.5t66.5 -17q72 -16 125 -38t106.5 -58.5t76 -97t11.5 -140.5q-23 -156 -157 -254t-324 -98z" glyph-name="scaron" horiz-adv-x="989" unicode="š"/><glyph d="M1251 1341h-452l-189 -1339h-221l189 1339h-453l27 197h1126zM487 -532q-72 0 -134 38.5t-83 96.5l105 39q16 -29 53 -50.5t74 -21.5q45 0 80.5 31.5t42.5 79.5q10 68 -42.5 92t-140.5 -9l-75 54l120 182h107l-88 -133q109 20 174 -35t51 -151q-12 -90 -83 -151.5 t-161 -61.5z" glyph-name="Tcommaaccent" horiz-adv-x="1171" unicode="Ţ"/><glyph d="M514 -2q-88 0 -147.5 12.5t-110.5 45t-69.5 102t-4.5 174.5l86 614h-180l25 184h182l57 406h221l-57 -406h279l-27 -186l-281 2l-84 -594q-12 -84 19 -123t121 -39h129l-27 -192h-131zM352 -133q109 20 174.5 -35t51.5 -151q-12 -90 -83 -151.5t-161 -61.5 q-72 0 -134.5 38.5t-82.5 96.5l104 39q16 -29 53 -50.5t74 -21.5q45 0 81 31.5t42 79.5q10 68 -42 92t-140 -9l-76 54l115 176l98 -10z" glyph-name="tcommaaccent" horiz-adv-x="727" unicode="ţ"/><glyph d="M670 1698l-160 350h164l125 -246l196 246h164l-262 -350h-227zM1251 1341h-452l-189 -1339h-221l189 1339h-453l27 197h1126z" glyph-name="Tcaron" horiz-adv-x="1159" unicode="Ť"/><glyph d="M731 1327q-84 35 -72 127q8 55 52.5 94t99.5 39t87 -39t23.5 -94t-65.5 -139t-106 -135h-107zM514 -2q-88 0 -147.5 12.5t-110.5 45t-69.5 102t-4.5 174.5l86 614h-180l25 184h182l57 406h221l-57 -406h279l-27 -186l-281 2l-84 -594q-12 -84 19 -123t121 -39h129 l-27 -192h-131z" glyph-name="tcaron" horiz-adv-x="800" unicode="ť"/><glyph d="M1251 1341h-452l-72 -505h152l88 -50l-189 -84h-69l-99 -700h-221l100 717l-161 33l121 84h57l72 505h-453l27 197h1126z" glyph-name="Tbar" horiz-adv-x="1120" unicode="Ŧ"/><glyph d="M768 944l-281 2l-51 -366h238l-19 -136h-239l-13 -92q-12 -84 19 -123t121 -39h129l-27 -192h-131q-88 0 -147.5 12.5t-110.5 45t-69.5 102t-4.5 174.5l17 112h-179l19 136h178l51 366h-180l25 184h182l57 406h221l-57 -406h279z" glyph-name="tbar" horiz-adv-x="727" unicode="ŧ"/><glyph d="M1032 1702q-121 0 -178 113q-27 53 -74 53q-45 0 -70.5 -42t-19.5 -108h-131q-4 121 63.5 200t170.5 79q123 0 180 -113q25 -53 74 -53q45 0 70.5 41t19.5 106h131q4 -119 -64 -197.5t-172 -78.5zM610 -20q-250 0 -403.5 152.5t-122.5 369.5l145 1034h224l-140 -997 q-20 -150 74 -255.5t252 -105.5t286 105.5t148 255.5l141 997h224l-146 -1034q-31 -217 -230.5 -369.5t-451.5 -152.5z" glyph-name="Utilde" horiz-adv-x="1492" unicode="Ũ"/><glyph d="M602 1874h635l-20 -141h-635zM610 -20q-250 0 -403.5 152.5t-122.5 369.5l145 1034h224l-140 -997q-20 -150 74 -255.5t252 -105.5t286 105.5t148 255.5l141 997h224l-146 -1034q-31 -217 -230.5 -369.5t-451.5 -152.5z" glyph-name="Umacron" horiz-adv-x="1492" unicode="Ū"/><glyph d="M1010 1221h-635l20 141h635zM1198 1126l-158 -1126h-209l5 162q-72 -80 -180.5 -127t-215.5 -47q-184 0 -284.5 119.5t-73.5 308.5l100 710h236l-96 -684q-16 -111 41 -178t169 -67q119 0 219.5 69.5t116.5 175.5l97 684h233z" glyph-name="umacron" horiz-adv-x="1222" unicode="ū"/><glyph d="M887 1653q-90 0 -145.5 64.5t-43 154.5t86 153.5t163.5 63.5q88 0 143.5 -63.5t43 -153.5t-85 -154.5t-162.5 -64.5zM901 1749q51 0 91 35t48 88q6 51 -23.5 88t-80.5 37t-92 -37t-47 -88q-8 -53 21.5 -88t82.5 -35zM610 -20q-250 0 -403.5 152.5t-122.5 369.5l145 1034 h224l-140 -997q-20 -150 74 -255.5t252 -105.5t286 105.5t148 255.5l141 997h224l-146 -1034q-31 -217 -230.5 -369.5t-451.5 -152.5z" glyph-name="Uring" horiz-adv-x="1492" unicode="Ů"/><glyph d="M680 1141q-90 0 -145.5 64.5t-43 154.5t86 153.5t165.5 63.5q88 0 142.5 -63.5t42 -153.5t-85 -154.5t-162.5 -64.5zM729 1485q-51 0 -91 -37t-48 -88q-8 -53 22.5 -88t81.5 -35t91 35t49 88q8 51 -23 88t-82 37zM1198 1126l-158 -1126h-209l5 162q-72 -80 -180.5 -127 t-215.5 -47q-184 0 -284.5 119.5t-73.5 308.5l100 710h236l-96 -684q-16 -111 41 -178t169 -67q119 0 219.5 69.5t116.5 175.5l97 684h233z" glyph-name="uring" horiz-adv-x="1222" unicode="ů"/><glyph d="M973 2048h207l-396 -358h-157zM1346 2048h206l-395 -358h-158zM610 -20q-250 0 -403.5 152.5t-122.5 369.5l145 1034h224l-140 -997q-20 -150 74 -255.5t252 -105.5t286 105.5t148 255.5l141 997h224l-146 -1034q-31 -217 -230.5 -369.5t-451.5 -152.5z" glyph-name="Uhungarumlaut" horiz-adv-x="1492" unicode="Ű"/><glyph d="M578 1178h-156l346 358h207zM795 1178l346 358h207l-396 -358h-157zM1198 1126l-158 -1126h-209l5 162q-72 -80 -180.5 -127t-215.5 -47q-184 0 -284.5 119.5t-73.5 308.5l100 710h236l-96 -684q-16 -111 41 -178t169 -67q119 0 219.5 69.5t116.5 175.5l97 684h233z" glyph-name="uhungarumlaut" horiz-adv-x="1222" unicode="ű"/><glyph d="M1214 1536h224l-146 -1034q-27 -186 -183.5 -329.5t-369.5 -180.5h19q-90 -39 -160 -117t-82 -158q-6 -57 22.5 -92t90.5 -35q121 0 205 99l57 -101q-139 -121 -313 -110q-109 4 -167.5 61.5t-43.5 159.5q25 162 223 281q-244 8 -390.5 158.5t-115.5 363.5l145 1034h224 l-140 -997q-20 -150 74 -255.5t252 -105.5t286 105.5t148 255.5z" glyph-name="Uogonek" horiz-adv-x="1492" unicode="Ų"/><glyph d="M987 0q-117 -18 -212 -106.5t-109 -184.5q-8 -57 21.5 -93t90.5 -36q117 0 205 98l57 -98q-137 -119 -313 -112q-109 6 -167 63t-44 160q27 188 275 309h40l5 162q-72 -80 -180.5 -127t-215.5 -47q-184 0 -284.5 119.5t-73.5 308.5l100 710h236l-96 -684 q-16 -111 41 -178t169 -67q119 0 219.5 69.5t116.5 175.5l97 684h233l-158 -1126h-53z" glyph-name="uogonek" horiz-adv-x="1222" unicode="ų"/><glyph d="M1126 1698h-170l261 350h227l162 -350h-170l-119 252zM2292 1536l-670 -1536h-254l-194 1145l-496 -1145h-252l-262 1536h242l182 -1284l532 1284h226l182 -1286l522 1286h242z" glyph-name="Wcircumflex" horiz-adv-x="2269" unicode="Ŵ"/><glyph d="M698 1186h-170l258 350h228l164 -350h-172l-119 252zM1735 1122l-506 -1122h-264l-97 713l-290 -713h-265l-194 1122h266l107 -846l335 846h215l95 -848l336 848h262z" glyph-name="wcircumflex" horiz-adv-x="1523" unicode="ŵ"/><glyph d="M666 1698h-170l260 350h227l162 -350h-170l-119 252zM795 729l-101 -729h-223l100 723l-424 813h250l312 -618l489 618h246z" glyph-name="Ycircumflex" horiz-adv-x="1345" unicode="Ŷ"/><glyph d="M502 1186h-170l260 350h227l162 -350h-170l-119 252zM1239 1126l-905 -1667h-215l336 615h-56l-288 1052h233l229 -825l439 825h227z" glyph-name="ycircumflex" horiz-adv-x="1224" unicode="ŷ"/><glyph d="M623 1712q-55 0 -90 39t-27 94q10 55 54 95t99.5 40t89 -39.5t25.5 -95t-53 -94.5t-98 -39zM1024 1712q-53 0 -88 39t-26.5 94.5t53.5 95t100 39.5q53 0 87 -39.5t25.5 -95t-52.5 -94.5t-99 -39zM795 729l-101 -729h-223l100 723l-424 813h250l312 -618l489 618h246z" glyph-name="Ydieresis" horiz-adv-x="1345" unicode="Ÿ"/><glyph d="M920 1724h-170l223 324h221zM1182 199l-27 -199h-1167l16 119l1018 1222h-823l26 195h1127l-17 -117l-1018 -1220h865z" glyph-name="Zacute" horiz-adv-x="1331" unicode="Ź"/><glyph d="M770 1536h219l-274 -324h-170zM16 156l693 690h-586l24 178h869l-23 -150l-694 -694h608l-22 -180h-891z" glyph-name="zacute" horiz-adv-x="1062" unicode="ź"/><glyph d="M829 1712q-55 0 -89.5 39t-26.5 94q10 55 54 95t99.5 40t89 -39.5t25.5 -95t-53.5 -94.5t-98.5 -39zM1182 199l-27 -199h-1167l16 119l1018 1222h-823l26 195h1127l-17 -117l-1018 -1220h865z" glyph-name="Zdotaccent" horiz-adv-x="1331" unicode="Ż"/><glyph d="M624.5 1200q-55.5 0 -89 39t-25.5 94.5t53 95t101 39.5q53 0 87.5 -39.5t26.5 -95t-53 -94.5t-100.5 -39zM16 156l693 690h-586l24 178h869l-23 -150l-694 -694h608l-22 -180h-891z" glyph-name="zdotaccent" horiz-adv-x="1062" unicode="ż"/><glyph d="M711 1698l-160 350h164l125 -246l196 246h164l-262 -350h-227zM1182 199l-27 -199h-1167l16 119l1018 1222h-823l26 195h1127l-17 -117l-1018 -1220h865z" glyph-name="Zcaron" horiz-adv-x="1331" unicode="Ž"/><glyph d="M348 1536h164l125 -246l197 246h163l-262 -350h-227zM16 156l693 690h-586l24 178h869l-23 -150l-694 -694h608l-22 -180h-891z" glyph-name="zcaron" horiz-adv-x="1062" unicode="ž"/><glyph d="M860 1401q-78 0 -139.5 -51.5t-87.5 -137.5l-58 -188h285l-49 -164h-283l-413 -1372h-195l412 1372h-170l47 164h172l65 219q39 133 160 223t256 90q94 0 137 -34l-41 -156q-35 35 -98 35z" glyph-name="florin" horiz-adv-x="919" unicode="ƒ"/><glyph d="M799 1698l-162 350h164l127 -246l194 246h164l-260 -350h-227zM1085 356h-714l-187 -356h-243l833 1536h250l401 -1536h-243zM1049 553l-183 754l-399 -754h582z" glyph-name="uni01CD" horiz-adv-x="1533" unicode="Ǎ"/><glyph d="M483 1186l-161 350h163l127 -246l195 246h164l-260 -350h-228zM338 -12q-164 0 -255 90t-68.5 241.5t155.5 247t356 111.5l260 20l7 31q29 225 -207 225q-104 0 -181 -54t-102 -155h-201q37 168 168 281t348 113q207 0 310.5 -106.5t75.5 -307.5q-35 -274 -54 -399 q-23 -152 66 -148l-25 -178q-47 0 -71 2q-170 18 -191 141q-57 -68 -164.5 -111.5t-226.5 -43.5zM410 168q106 0 200.5 57.5t128.5 136.5l25 173l-225 -21q-279 -23 -299 -186q-10 -74 41 -117t129 -43z" glyph-name="uni01CE" horiz-adv-x="1122" unicode="ǎ"/><glyph d="M123 2048h166l125 -246l196 246h164l-262 -350h-227zM266 1536h226l-216 -1536h-225z" glyph-name="uni01CF" horiz-adv-x="512" unicode="Ǐ"/><glyph d="M49 1536h166l125 -246l197 246h163l-262 -350h-227zM195 1024h217l-144 -1024h-217z" glyph-name="uni01D0" horiz-adv-x="503" unicode="ǐ"/><glyph d="M715 2048h164l125 -246l196 246h164l-262 -350h-228zM748 -20q-328 0 -507.5 228t-132 560t290 560t570.5 228q326 0 506 -228t133 -560t-291.5 -560t-568.5 -228zM778.5 197q239.5 0 408.5 162.5t204 408.5q35 248 -89 411.5t-364 163.5t-411 -163.5t-205 -411.5 q-35 -244 91 -407.5t365.5 -163.5z" glyph-name="uni01D1" horiz-adv-x="1685" unicode="Ǒ"/><glyph d="M387 1536h164l127 -246l194 246h164l-260 -350h-227zM491.5 -20q-223.5 0 -346 154.5t-90.5 377.5q31 225 197 378.5t389 153.5q225 0 348 -153.5t92 -378.5q-33 -225 -199.5 -378.5t-390 -153.5zM518 172q133 0 230.5 97.5t119.5 242.5q18 145 -51 243.5t-203 98.5 q-135 0 -231 -98.5t-115 -243.5q-23 -143 47 -241.5t203 -98.5z" glyph-name="uni01D2" horiz-adv-x="1175" unicode="ǒ"/><glyph d="M618 2048h164l125 -246l197 246h164l-262 -350h-228zM651 -20q-250 0 -402.5 151.5t-121.5 370.5l145 1034h224l-140 -997q-23 -152 72.5 -256.5t251.5 -104.5q158 0 280.5 105.5t143.5 255.5l141 997h223l-145 -1034q-31 -219 -226.5 -370.5t-445.5 -151.5z" glyph-name="uni01D3" horiz-adv-x="1492" unicode="Ǔ"/><glyph d="M573 1186l-161 350h163l127 -246l195 246h164l-260 -350h-228zM1198 1126l-158 -1126h-209l5 162q-72 -80 -180.5 -127t-215.5 -47q-184 0 -284.5 119.5t-73.5 308.5l100 710h236l-96 -684q-16 -111 41 -178t169 -67q119 0 219.5 69.5t116.5 175.5l97 684h233z" glyph-name="uni01D4" horiz-adv-x="1222" unicode="ǔ"/><glyph d="M887 1698l-160 350h164l125 -246l196 246h164l-262 -350h-227zM1477 797l-31 -215l-80 -582h-152l-4 225q-102 -123 -227 -179t-305 -56q-328 0 -491.5 220t-118.5 552q49 350 276 568t543 218q264 0 428 -132t162 -376h-213q-14 143 -123 223t-264 80 q-244 0 -404 -157.5t-197 -423.5q-37 -254 88 -410.5t338 -156.5q219 0 358.5 111.5t166.5 299.5h-404l29 191h625z" glyph-name="Gcaron" horiz-adv-x="1509" unicode="Ǧ"/><glyph d="M551 1186l-162 350h164l127 -246l194 246h164l-260 -350h-227zM399 -502q-219 -4 -345 82t-120 225q2 80 49.5 160t131.5 121q-43 25 -74 71t-23 103q16 117 175 199q-102 111 -78 291q23 162 165 275.5t334 113.5q70 0 145 -20.5t118 -53.5q35 70 118.5 109.5 t151.5 27.5l-23 -158q-45 8 -90 -10t-67 -61q72 -117 55 -234q-25 -180 -168 -292.5t-344 -116.5q-147 -2 -217 45q-37 -14 -57.5 -41t-14.5 -53q12 -78 160 -78l223 -4q174 -2 272.5 -70t96.5 -203q-4 -190 -161 -308t-413 -120zM803 741q12 92 -48.5 150.5t-166.5 58.5 q-102 0 -177 -58t-89 -153q-14 -92 45 -152.5t161 -60.5q109 0 185 60.5t90 154.5zM756 -104q6 127 -269 127h-200q-55 -14 -93 -60.5t-47 -101.5q-12 -84 63 -131t198 -47q158 0 253 59.5t95 153.5z" glyph-name="gcaron" horiz-adv-x="1230" unicode="ǧ"/><glyph d="M1081 1724h-170l226 324h219zM1427 1380q111 -111 159 -269.5t22 -342.5q-47 -332 -292 -560t-568 -228q-211 0 -371 104l-103 -127h-143l160 199q-111 109 -160 268.5t-22 343.5q47 332 289.5 560t570.5 228q211 0 372 -106l101 127h143zM322 768q-37 -270 112 -434 l764 938q-115 72 -260 71q-240 0 -410.5 -163.5t-205.5 -411.5zM778 197q240 0 409 162.5t204 408.5q39 270 -107 432l-762 -938q106 -65 256 -65z" glyph-name="Oslashacute" horiz-adv-x="1685" unicode="Ǿ"/><glyph d="M756 1212h-170l223 324h221zM956 928q160 -156 125 -416q-33 -225 -199.5 -378.5t-389.5 -153.5q-141 0 -250 67l-92 -113h-103l131 162q-160 158 -123 416q31 225 197 378.5t389 153.5q143 0 252 -67l92 113h102zM268 512q-23 -147 49 -244l443 543q-59 43 -146 43 q-135 0 -231.5 -98.5t-114.5 -243.5zM518 172q133 0 230.5 97.5t119.5 242.5q18 147 -51 244l-440 -543q57 -41 141 -41z" glyph-name="oslashacute" horiz-adv-x="1175" unicode="ǿ"/><glyph d="M538.5 -20q-237.5 0 -370.5 135t-123 342l207 -2q6 -111 84 -188t239 -77q145 0 242.5 59.5t116.5 174.5q8 59 -13.5 106.5t-77 83t-102.5 56t-129 51.5q-18 6 -28 10q-82 31 -127 50.5t-109.5 58.5t-96.5 77.5t-51.5 98t-9.5 131.5q27 188 196 298.5t382 110.5 q471 0 487 -446h-204q2 104 -76 181t-230 77q-117 0 -213 -55.5t-110 -153.5q-6 -47 13.5 -86t62.5 -67.5t91 -52t111 -50.5q18 -6 27 -10q209 -86 279 -131q186 -123 157 -332q-31 -215 -209 -332.5t-415.5 -117.5zM475 -412q-39 14 -58.5 49t-13.5 78q8 55 52.5 94 t99.5 39q53 0 86 -38.5t24.5 -94t-64.5 -137.5t-109 -139h-107z" glyph-name="Scommaaccent" horiz-adv-x="1300" unicode="Ș"/><glyph d="M434 -16q-215 0 -319.5 110.5t-98.5 249.5h203q4 -78 71.5 -133t162 -53t155 47t70.5 117q10 74 -52.5 112.5t-189.5 67.5q-74 16 -127 35.5t-106 53.5t-76 89t-12 129q20 152 154 243t317 91q172 0 278.5 -86t100.5 -246h-201q-6 76 -61.5 113t-124.5 41 q-86 4 -148.5 -30t-71.5 -99q-4 -27 1.5 -47.5t24.5 -37t34.5 -26.5t53.5 -21.5t57.5 -16.5t66.5 -17q72 -16 125 -38t106.5 -58.5t76 -97t11.5 -140.5q-23 -156 -157 -254t-324 -98zM319 -408q-39 14 -58 49t-13 78q8 53 52 93.5t99.5 40.5t87 -39t23.5 -95 q-6 -55 -62.5 -137t-109.5 -139h-107z" glyph-name="scommaaccent" horiz-adv-x="989" unicode="ș"/><glyph d="M1251 1341h-452l-189 -1339h-221l189 1339h-453l27 197h1126zM434 -399q-84 35 -72 127q8 55 52.5 94t99.5 39t87 -39t24 -94q-6 -55 -63.5 -138.5t-108.5 -136.5h-107z" glyph-name="uni021A" horiz-adv-x="1120" unicode="Ț"/><glyph d="M514 -2q-88 0 -147.5 12.5t-110.5 45t-69.5 102t-4.5 174.5l86 614h-180l25 184h182l57 406h221l-57 -406h279l-27 -186l-281 2l-84 -594q-12 -84 19 -123t121 -39h129l-27 -192h-131zM240 -399q-39 14 -58.5 49t-13.5 78q8 53 52 93t99.5 40t87 -39t23.5 -94 q-6 -55 -62.5 -137.5t-109.5 -139.5h-106z" glyph-name="uni021B" horiz-adv-x="727" unicode="ț"/><glyph d="M1178 1341h-746l-67 -473h661l-29 -198h-661l-66 -471h746l-27 -199h-450l-86 -133q106 20 172.5 -35t52.5 -151q-12 -88 -83 -150.5t-161 -62.5q-72 0 -134 38.5t-85 96.5l104 39q16 -31 54.5 -51.5t75.5 -20.5q45 0 80.5 31.5t41.5 79.5q10 68 -43 92t-139 -9l-76 54 l119 182h-414l215 1536h971z" glyph-name="uni0228" horiz-adv-x="1107" unicode="Ȩ"/><glyph d="M653 1135q236 0 351.5 -155t80.5 -413q-12 -63 -14 -75h-815q-12 -147 64.5 -232.5t195.5 -87.5q106 0 189 46t126 128h195q-41 -133 -167 -238.5t-322 -117.5l-5 -8l-73 -117q109 20 174 -34t51 -150q-12 -90 -83 -153t-161 -63q-72 0 -134 40t-85 98l105 39 q16 -31 53 -51.5t76 -20.5q45 0 80.5 31.5t42.5 79.5q10 66 -43.5 90t-139.5 -9l-76 54l107 166l-6 12q-205 27 -308.5 184.5t-70.5 384.5q35 252 199.5 412t412.5 160zM879 659q4 135 -60.5 213t-191.5 78q-129 0 -217 -78.5t-127 -212.5h596z" glyph-name="uni0229" horiz-adv-x="1124" unicode="ȩ"/><glyph d="M-86 -532q-92 0 -135 32l26 185q43 -39 109 -39q61 0 110.5 45t57.5 112l172 1221h217l-174 -1235q-20 -135 -131 -228t-252 -93z" glyph-name="uni0237" horiz-adv-x="595" unicode="ȷ"/><glyph d="M383 1536h227l162 -350h-170l-119 252l-190 -252h-170z" glyph-name="circumflex" horiz-adv-x="77" unicode="ˆ"/><glyph d="M172 1536h164l127 -246l194 246h164l-260 -350h-227z" glyph-name="caron" horiz-adv-x="77" unicode="ˇ"/><glyph d="M659 1153q-156 0 -239.5 88t-61.5 242h129q-12 -82 42.5 -141.5t148.5 -59.5q96 0 166.5 59.5t83.5 141.5h127q-20 -154 -129 -242t-267 -88z" glyph-name="breve" horiz-adv-x="77" unicode="˘"/><glyph d="M383 1200q-55 0 -90 39t-27 94.5t53.5 95t100.5 39.5t89 -39.5t25.5 -95t-53.5 -94.5t-98 -39z" glyph-name="dotaccent" horiz-adv-x="77" unicode="˙"/><glyph d="M250 1141q-92 0 -147.5 64.5t-43.5 154.5q12 88 87 152.5t165 64.5q88 0 143.5 -63.5t43 -153.5t-85 -154.5t-162.5 -64.5zM264 1237q51 0 91 35t48 88q6 51 -23.5 88t-80.5 37t-92 -37t-47 -88q-8 -53 21.5 -88t82.5 -35z" glyph-name="ring" horiz-adv-x="77" unicode="˚"/><glyph d="M92 -532q-109 6 -168 63t-45 160q16 109 114.5 199t258.5 145l102 -35q-117 -18 -212 -106.5t-109 -184.5q-8 -57 21.5 -93t90.5 -36q113 0 205 98l56 -98q-136 -118 -314 -112z" glyph-name="ogonek" horiz-adv-x="77" unicode="˛"/><glyph d="M612 1251q-117 0 -178 113q-27 53 -74 53q-45 0 -70.5 -42t-17.5 -107h-133q-4 121 63.5 199.5t170.5 78.5q123 0 180 -112q25 -53 74 -54q45 0 70.5 41t19.5 107h131q4 -119 -64 -198t-172 -79z" glyph-name="tilde" horiz-adv-x="81" unicode="˜"/><glyph d="M469 1536h207l-397 -358h-156zM842 1536h207l-396 -358h-157z" glyph-name="hungarumlaut" horiz-adv-x="77" unicode="˝"/><glyph d="M-326 1536h220l135 -324h-170z" glyph-name="gravecomb" unicode="̀"/><glyph d="M-147 1536h221l-275 -324h-170z" glyph-name="acutecomb" unicode="́"/><glyph d="M-365 1536h228l164 -350h-172l-119 252l-191 -252h-170z" glyph-name="uni0302" unicode="̂"/><glyph d="M-170 1251q-117 0 -178 113q-27 53 -74 53q-45 0 -70.5 -42t-17.5 -107h-133q-4 121 63.5 199.5t169.5 78.5q123 0 181 -112q25 -53 73 -54q45 0 71 41t19 107h134q4 -119 -65 -198t-173 -79z" glyph-name="tildecomb" unicode="̃"/><glyph d="M-584 1362h635l-18 -141h-637z" glyph-name="uni0304" unicode="̄"/><glyph d="M-621 1153q-156 0 -239.5 88t-61.5 242h129q-12 -82 42.5 -141.5t148.5 -59.5q96 0 166.5 59.5t83.5 141.5h127q-20 -154 -129 -242t-267 -88z" glyph-name="uni0306" unicode="̆"/><glyph d="M-229 1200q-55 0 -90 39t-27 94.5t53 95t100.5 39.5t89 -39.5t25.5 -95t-53 -94.5t-98 -39z" glyph-name="uni0307" unicode="̇"/><glyph d="M-573 1200q-55 0 -90 39t-27 94.5t53 95t100.5 39.5t89 -39.5t25.5 -95t-53 -94.5t-98 -39zM-172 1200q-53 0 -88 39t-27 94.5t53.5 95t100.5 39.5q53 0 87 -39.5t25.5 -95t-52.5 -94.5t-99 -39z" glyph-name="uni0308" unicode="̈"/><glyph d="M-113 1141q-90 0 -145 64.5t-43 154.5t86 153.5t166 63.5q88 0 143.5 -63.5t43 -153.5t-86.5 -154.5t-164 -64.5zM-98.5 1237q51.5 0 92.5 35t49 88q6 51 -24.5 88t-82 37t-91.5 -37t-48 -88q-8 -53 22.5 -88t82 -35z" glyph-name="uni030A" unicode="̊"/><glyph d="M-506 1536h207l-397 -358h-156zM-133 1536h207l-396 -358h-157z" glyph-name="uni030B" unicode="̋"/><glyph d="M-575 1536h163l127 -246l195 246h166l-262 -350h-228z" glyph-name="uni030C" unicode="̌"/><glyph d="M-150 1364q84 -35 72 -127q-8 -55 -51 -94t-100 -39q-53 0 -86 39t-25 94t65.5 138t108.5 136h107z" glyph-name="uni0312" unicode="̒"/><glyph d="M-348 -512q-55 0 -89 39t-26 94t53 95t101 40q53 0 88 -40t26.5 -95t-53.5 -94t-100 -39z" glyph-name="dotbelowcomb" unicode="̣"/><glyph d="M-340 0q-39 14 -57.5 49t-12.5 78q8 55 51.5 94t100.5 39q53 0 86 -39t25 -94q-8 -53 -65.5 -136t-109.5 -141h-106z" glyph-name="uni0326" unicode="̦"/><glyph d="M-430 -532q-72 0 -134.5 38.5t-82.5 96.5l104 39q16 -29 53 -50.5t74 -21.5q45 0 81 31.5t42 79.5q10 68 -42 92t-140 -9l-76 54l121 182h106l-88 -133q109 20 174.5 -35t51.5 -151q-12 -90 -83 -151.5t-161 -61.5z" glyph-name="uni0327" unicode="̧"/><glyph d="M-512 -532q-109 6 -168 63t-45 160q16 109 113.5 199t257.5 145l102 -35q-117 -18 -212 -106.5t-109 -184.5q-8 -57 21.5 -93t90.5 -36q117 0 205 98l57 -98q-137 -118 -313 -112z" glyph-name="uni0328" unicode="̨"/><glyph d="M-981 596h635l-19 -135h-636z" glyph-name="uni0335" unicode="̵"/><glyph d="M-1544 580h1483l-13 -93h-1485z" glyph-name="uni0336" unicode="̶"/><glyph d="M-342 815h149l-643 -588h-141z" glyph-name="uni0337" unicode="̷"/><glyph d="M-43 1579h145l-1312 -1620h-146z" glyph-name="uni0338" unicode="̸"/><glyph d="M-10 125l815 1429h248l403 -1427l-16 -127h-1467zM1233 178l-227 778q-8 35 -50.5 195t-52.5 213h-18q-12 -29 -48 -94.5t-82 -148.5t-69 -126l-469 -817h1016z" glyph-name="Delta" horiz-adv-x="1597" unicode="Δ"/><glyph d="M1174 0l-320 1286l-678 -1286h-244l832 1536h250l401 -1536h-241z" glyph-name="Lambda" horiz-adv-x="1533" unicode="Λ"/><glyph d="M266 1536h891l-27 -195h-890zM283 868h671l-28 -198h-672zM78 199h891l-27 -199h-891z" glyph-name="Xi" horiz-adv-x="1208" unicode="Ξ"/><glyph d="M41 160h321l3 12q-106 100 -167 269t-32 370q43 311 285.5 520t572.5 209q332 0 508 -215t135 -510q-29 -199 -139.5 -374t-243.5 -269l-2 -12h328l-23 -160h-612l16 117q168 84 299 258t164 405q20 156 -20.5 290t-153.5 222t-276 88q-244 0 -420 -172t-213 -430 q-33 -227 51 -406t227 -255l-16 -117h-615z" glyph-name="Omega" horiz-adv-x="1789" unicode="Ω"/><glyph d="M965 1126h233l-158 -1126h-209l5 162q-72 -80 -180.5 -127t-215.5 -47q-123 0 -215 57l-78 -557h-161l104 745q-23 88 -8 183l100 710h236l-96 -684q-16 -111 41 -178t169 -67q119 0 219.5 69.5t116.5 175.5z" glyph-name="mu" horiz-adv-x="1271" unicode="μ"/><glyph d="M53 0q88 172 177 455.5t128 505.5q-186 0 -280 -27q6 18 18 51q37 109 62.5 125t140.5 12q82 -2 139 -2h1004l-41 -159h-197l-88 -625q-33 -219 -12 -336h-201q-29 63 8 315l90 646l-440 2q-43 -225 -135 -523.5t-174 -439.5h-199z" glyph-name="pi" horiz-adv-x="1415" unicode="π"/><glyph d="M952 801q131 -33 200 -136.5t48 -252.5q-27 -184 -166 -298t-323 -114h-705l215 1536h615q186 0 294.5 -113.5t83.5 -298.5q-18 -121 -89 -205.5t-173 -117.5zM987 1102q14 98 -45 168.5t-158 70.5h-368l-66 -460h369q100 0 177 62.5t91 158.5zM707 199q100 0 179 70.5 t93 168.5q14 100 -44 180t-157 80h-452l-72 -499h453zM534.5 -127q55.5 0 89 -40t25.5 -95t-53 -94t-98 -39q-55 0 -90 39t-27 94q10 55 54 95t99.5 40z" glyph-name="uni1E04" horiz-adv-x="1329" unicode="Ḅ"/><glyph d="M762 1137q227 0 349 -164t87 -412q-35 -246 -203 -409.5t-395 -163.5q-233 0 -342 176l-41 -164l-201 2l215 1536h234l-80 -563q156 162 377 162zM588 190q145 0 250.5 106.5t128.5 264.5q23 160 -53 266.5t-222 106.5q-113 0 -208 -73t-142 -189l-29 -219 q10 -117 85 -190t190 -73zM518 -127q55 0 89 -40t26 -95t-53 -94t-99 -39q-55 0 -90 39t-26 94q10 55 54 95t99 40z" glyph-name="uni1E05" horiz-adv-x="1230" unicode="ḅ"/><glyph d="M1483 1536l-215 -1536h-224l95 670h-770l-93 -670h-225l215 1536h226l-95 -668h770l93 668h223zM647 -127q53 0 88 -40t27 -95t-53 -94t-100.5 -39t-89.5 39t-25.5 94t53.5 95t100 40z" glyph-name="uni1E24" horiz-adv-x="1503" unicode="Ḥ"/><glyph d="M797 1137q190 0 285.5 -109.5t68.5 -300.5l-100 -727h-238l98 700q14 109 -41 169.5t-170 60.5q-121 0 -221 -67.5t-114 -174.5l-95 -688h-237l215 1536h237l-79 -559q72 74 177 117t214 43zM489 -127q53 0 88 -40t27 -95t-53 -94t-100.5 -39t-89 39t-25.5 94t53 95 t100 40z" glyph-name="uni1E25" horiz-adv-x="1216" unicode="ḥ"/><glyph d="M266 1536h226l-189 -1337h549l-27 -199h-774zM383 -395q-55 0 -89 39t-26 94t53.5 95t100.5 40q53 0 88 -40t26.5 -95t-53.5 -94t-100 -39z" glyph-name="uni1E36" horiz-adv-x="972" unicode="Ḷ"/><glyph d="M72 0l217 1536h217l-215 -1536h-219zM133 -395q-55 0 -90 39t-27 94q10 55 54.5 95t99.5 40t89 -40t25.5 -95t-53.5 -94t-98 -39z" glyph-name="uni1E37" horiz-adv-x="686" unicode="ḷ"/><glyph d="M954 1712q-55 0 -90 39t-26 94q10 55 54 95t99.5 40t89 -39.5t25.5 -95t-53.5 -94.5t-98.5 -39zM1591 1536l-215 -1536h-221l-713 1186l-166 -1186h-225l215 1536h221l715 -1184l166 1184h223z" glyph-name="uni1E44" horiz-adv-x="1611" unicode="Ṅ"/><glyph d="M688 1200q-55 0 -90 39t-26.5 94.5t53.5 95t100 39.5t89 -39.5t25.5 -95t-53.5 -94.5t-98 -39zM780 1141q188 0 282.5 -109.5t67.5 -302.5l-100 -729h-235l98 702q14 109 -40 170.5t-167 61.5q-121 0 -219 -68.5t-113 -175.5l-96 -690h-235l157 1126h207l-4 -157 q72 80 180 126t217 46z" glyph-name="uni1E45" horiz-adv-x="1216" unicode="ṅ"/><glyph d="M1591 1536l-215 -1536h-221l-713 1186l-166 -1186h-225l215 1536h221l715 -1184l166 1184h223zM698.5 -127q55.5 0 89 -40t25.5 -95t-53 -94t-98 -39q-55 0 -90 39t-27 94q10 55 54 95t99.5 40z" glyph-name="uni1E46" horiz-adv-x="1611" unicode="Ṇ"/><glyph d="M780 1141q188 0 282.5 -109.5t67.5 -302.5l-100 -729h-235l98 702q14 109 -40 170.5t-167 61.5q-121 0 -219 -68.5t-113 -175.5l-96 -690h-235l157 1126h207l-4 -157q72 80 180 126t217 46zM502 -127q53 0 88 -40t26.5 -95t-53.5 -94t-100 -39t-89 39t-26 94t53.5 95 t100.5 40z" glyph-name="uni1E47" horiz-adv-x="1216" unicode="ṇ"/><glyph d="M538.5 -20q-237.5 0 -370.5 135t-123 342l207 -2q6 -111 84 -188t239 -77q145 0 242.5 59.5t116.5 174.5q8 59 -13.5 106.5t-77 83t-102.5 56t-129 51.5q-18 6 -28 10q-82 31 -127 50.5t-109.5 58.5t-96.5 77.5t-51.5 98t-9.5 131.5q27 188 196 298.5t382 110.5 q471 0 487 -446h-204q2 104 -76 181t-230 77q-117 0 -213 -55.5t-110 -153.5q-6 -47 13.5 -86t62.5 -67.5t91 -52t111 -50.5q18 -6 27 -10q209 -86 279 -131q186 -123 157 -332q-31 -215 -209 -332.5t-415.5 -117.5zM534.5 -395q-55.5 0 -89 40t-25.5 95q8 53 53 93t100 40 q53 0 88 -40t27 -93q-8 -55 -53 -95t-100.5 -40z" glyph-name="uni1E62" horiz-adv-x="1300" unicode="Ṣ"/><glyph d="M434 -16q-215 0 -319.5 110.5t-98.5 249.5h203q4 -78 71.5 -133t162 -53t155 47t70.5 117q10 74 -52.5 112.5t-189.5 67.5q-74 16 -127 35.5t-106 53.5t-76 89t-12 129q20 152 154 243t317 91q172 0 278.5 -86t100.5 -246h-201q-6 76 -61.5 113t-124.5 41 q-86 4 -148.5 -30t-71.5 -99q-4 -27 1.5 -47.5t24.5 -37t34.5 -26.5t53.5 -21.5t57.5 -16.5t66.5 -17q72 -16 125 -38t106.5 -58.5t76 -97t11.5 -140.5q-23 -156 -157 -254t-324 -98zM368.5 -395q-55.5 0 -89 39t-25.5 94t53 95t101 40q53 0 87.5 -40t26.5 -95t-53 -94 t-100.5 -39z" glyph-name="uni1E63" horiz-adv-x="989" unicode="ṣ"/><glyph d="M1251 1341h-452l-189 -1339h-221l189 1339h-453l27 197h1126zM512 -127q53 0 88 -40t26.5 -95t-53.5 -94t-100 -39t-89 39t-25.5 94t53.5 95t100 40z" glyph-name="uni1E6C" horiz-adv-x="1120" unicode="Ṭ"/><glyph d="M514 -2q-88 0 -147.5 12.5t-110.5 45t-69.5 102t-4.5 174.5l86 614h-180l25 184h182l57 406h221l-57 -406h279l-27 -186l-281 2l-84 -594q-12 -84 19 -123t121 -39h129l-27 -192h-131zM317.5 -127q55.5 0 89 -40t25.5 -95t-53 -94t-98 -39q-55 0 -90 39t-27 94 q10 55 54 95t99.5 40z" glyph-name="uni1E6D" horiz-adv-x="727" unicode="ṭ"/><glyph d="M1192 1724l-186 324h221l133 -324h-168zM2292 1536l-670 -1536h-254l-194 1145l-496 -1145h-252l-262 1536h242l182 -1284l532 1284h226l182 -1286l522 1286h242z" glyph-name="Wgrave" horiz-adv-x="2269" unicode="Ẁ"/><glyph d="M754 1212l-187 324h221l134 -324h-168zM1735 1122l-506 -1122h-264l-97 713l-290 -713h-265l-194 1122h266l107 -846l335 846h215l95 -848l336 848h262z" glyph-name="wgrave" horiz-adv-x="1523" unicode="ẁ"/><glyph d="M1374 1724h-170l226 324h219zM2292 1536l-670 -1536h-254l-194 1145l-496 -1145h-252l-262 1536h242l182 -1284l532 1284h226l182 -1286l522 1286h242z" glyph-name="Wacute" horiz-adv-x="2269" unicode="Ẃ"/><glyph d="M956 1212h-170l224 324h221zM1735 1122l-506 -1122h-264l-97 713l-290 -713h-265l-194 1122h266l107 -846l335 846h215l95 -848l336 848h262z" glyph-name="wacute" horiz-adv-x="1523" unicode="ẃ"/><glyph d="M1081.5 1712q-55.5 0 -89.5 39t-25.5 94.5t53.5 95t100 39.5q53 0 88 -39.5t27 -95t-53 -94.5t-100.5 -39zM1485 1712q-55 0 -90 39t-27 94q10 55 55 95t99 40q55 0 89 -39.5t25.5 -95t-53.5 -94.5t-98 -39zM2292 1536l-670 -1536h-254l-194 1145l-496 -1145h-252 l-262 1536h242l182 -1284l532 1284h226l182 -1286l522 1286h242z" glyph-name="Wdieresis" horiz-adv-x="2269" unicode="Ẅ"/><glyph d="M663.5 1200q-55.5 0 -89 39t-25.5 94.5t53 95t100 39.5q53 0 88 -39.5t27 -95t-53 -94.5t-100.5 -39zM1067 1200q-55 0 -90 39t-27 94.5t54.5 95t99.5 39.5q55 0 89 -39.5t25.5 -95t-53.5 -94.5t-98 -39zM1735 1122l-506 -1122h-264l-97 713l-290 -713h-265l-194 1122 h266l107 -846l335 846h215l95 -848l336 848h262z" glyph-name="wdieresis" horiz-adv-x="1523" unicode="ẅ"/><glyph d="M1182 199l-27 -199h-1167l16 119l1018 1222h-823l26 195h1127l-17 -117l-1018 -1220h865zM551 -127q53 0 88 -40t26.5 -95t-53.5 -94t-100 -39t-89 39t-25.5 94t53.5 95t100 40z" glyph-name="uni1E92" horiz-adv-x="1331" unicode="Ẓ"/><glyph d="M16 156l693 690h-586l24 178h869l-23 -150l-694 -694h608l-22 -180h-891zM385 -395q-55 0 -90 39t-27 94q10 55 54.5 95t99.5 40t89 -40t25.5 -95t-53.5 -94t-98 -39z" glyph-name="uni1E93" horiz-adv-x="1062" unicode="ẓ"/><glyph d="M1085 356h-714l-187 -356h-243l833 1536h250l401 -1536h-243zM1049 553l-183 754l-399 -754h582zM657.5 -127q55.5 0 89 -40t25.5 -95t-53 -94t-98 -39q-55 0 -90 39t-27 94q10 55 54 95t99.5 40z" glyph-name="uni1EA0" horiz-adv-x="1533" unicode="Ạ"/><glyph d="M338 -12q-164 0 -255 90t-68.5 241.5t155.5 247t356 111.5l260 20l7 31q29 225 -207 225q-104 0 -181 -54t-102 -155h-201q37 168 168 281t348 113q207 0 310.5 -106.5t75.5 -307.5q-35 -274 -54 -399q-23 -152 66 -148l-25 -178q-47 0 -71 2q-170 18 -191 141 q-57 -68 -164.5 -111.5t-226.5 -43.5zM410 168q106 0 200.5 57.5t128.5 136.5l25 173l-225 -21q-279 -23 -299 -186q-10 -74 41 -117t129 -43zM428 -127q55 0 89 -40t26 -95t-53.5 -94t-98.5 -39q-55 0 -90 39t-27 94q10 55 54.5 95t99.5 40z" glyph-name="uni1EA1" horiz-adv-x="1122" unicode="ạ"/><glyph d="M432 1341l-67 -473h661l-29 -198h-661l-66 -471h746l-27 -199h-971l215 1536h971l-26 -195h-746zM469 -127q53 0 88 -40t26.5 -95t-53.5 -94t-100 -39t-89 39t-25.5 94t53.5 95t100 40z" glyph-name="uni1EB8" horiz-adv-x="1107" unicode="Ẹ"/><glyph d="M1085 567q-12 -63 -14 -75h-815q-12 -147 64.5 -232.5t195.5 -87.5q106 0 189 46t126 128h195q-43 -141 -180 -249.5t-352 -106.5q-240 0 -365 162.5t-88 410.5q35 252 200 412t412 160q236 0 351.5 -155t80.5 -413zM627 950q-129 0 -217 -78.5t-127 -212.5h596 q4 135 -60.5 213t-191.5 78zM475 -127q53 0 88 -40t27 -95t-53 -94t-100.5 -39t-89.5 39t-25.5 94t53.5 95t100 40z" glyph-name="uni1EB9" horiz-adv-x="1124" unicode="ẹ"/><glyph d="M391 1718q-4 121 63.5 200t170.5 79q123 0 180 -113q25 -53 74 -53q45 0 70.5 41t19.5 106h131q4 -119 -63.5 -197.5t-172.5 -78.5q-121 0 -178 113q-27 53 -74 53q-45 0 -70.5 -42t-19.5 -108h-131zM432 1341l-67 -473h661l-29 -198h-661l-66 -471h746l-27 -199h-971 l215 1536h971l-26 -195h-746z" glyph-name="uni1EBC" horiz-adv-x="1107" unicode="Ẽ"/><glyph d="M317 1212q-2 119 67 199t169 80q121 0 180 -115q25 -53 74 -53q45 0 69.5 41t20.5 106h131q4 -119 -63.5 -197.5t-171.5 -78.5q-119 0 -181 115q-25 53 -71 53q-45 0 -71 -43t-19 -107h-134zM1085 567q-12 -63 -14 -75h-815q-12 -147 64.5 -232.5t195.5 -87.5 q106 0 189 46t126 128h195q-43 -141 -180 -249.5t-352 -106.5q-240 0 -365 162.5t-88 410.5q35 252 200 412t412 160q236 0 351.5 -155t80.5 -413zM627 950q-129 0 -217 -78.5t-127 -212.5h596q4 135 -60.5 213t-191.5 78z" glyph-name="uni1EBD" horiz-adv-x="1124" unicode="ẽ"/><glyph d="M266 1536h226l-216 -1536h-225zM106.5 -395q-55.5 0 -90 39t-26.5 94q10 55 55 95t100 40q53 0 88 -40t27 -95t-53 -94t-100.5 -39z" glyph-name="uni1ECA" horiz-adv-x="512" unicode="Ị"/><glyph d="M358 1210q-53 0 -87.5 39t-26.5 94.5t54 95.5t99 40q55 0 89 -40t26 -95.5t-53.5 -94.5t-100.5 -39zM225 1024h217l-143 -1024h-217zM141 -426q-55 0 -90 40t-26 95q8 53 53 93t100 40q53 0 88 -40t27 -93q-8 -55 -53.5 -95t-98.5 -40z" glyph-name="uni1ECB" horiz-adv-x="565" unicode="ị"/><glyph d="M748 -20q-328 0 -507.5 228t-132 560t290 560t570.5 228q326 0 506 -228t133 -560t-291.5 -560t-568.5 -228zM778.5 197q239.5 0 408.5 162.5t204 408.5q35 248 -89 411.5t-364 163.5t-411 -163.5t-205 -411.5q-35 -244 91 -407.5t365.5 -163.5zM696 -395q-55 0 -90 39 t-26 94q10 55 54 95t99 40t89 -40t26 -95t-53.5 -94t-98.5 -39z" glyph-name="uni1ECC" horiz-adv-x="1685" unicode="Ọ"/><glyph d="M491.5 -20q-223.5 0 -346 154.5t-90.5 377.5q31 225 197 378.5t389 153.5q225 0 348 -153.5t92 -378.5q-33 -225 -199.5 -378.5t-390 -153.5zM518 172q133 0 230.5 97.5t119.5 242.5q18 145 -51 243.5t-203 98.5q-135 0 -231 -98.5t-115 -243.5q-23 -143 47 -241.5 t203 -98.5zM440.5 -395q-55.5 0 -89.5 39t-25.5 94t53.5 95t100 40q53 0 88 -40t27 -95t-53 -94t-100.5 -39z" glyph-name="uni1ECD" horiz-adv-x="1175" unicode="ọ"/><glyph d="M651 -20q-250 0 -402.5 151.5t-121.5 370.5l145 1034h224l-140 -997q-23 -152 72.5 -256.5t251.5 -104.5q158 0 280.5 105.5t143.5 255.5l141 997h223l-145 -1034q-31 -219 -226.5 -370.5t-445.5 -151.5zM600 -395q-55 0 -90 39t-27 94q10 55 54.5 95t99.5 40t89 -40 t25.5 -95t-53.5 -94t-98 -39z" glyph-name="uni1EE4" horiz-adv-x="1492" unicode="Ụ"/><glyph d="M731 1724l-184 324h219l135 -324h-170zM795 729l-101 -729h-223l100 723l-424 813h250l312 -618l489 618h246z" glyph-name="Ygrave" horiz-adv-x="1345" unicode="Ỳ"/><glyph d="M575 1212l-184 324h219l135 -324h-170zM1239 1126l-905 -1667h-215l336 615h-56l-288 1052h233l229 -825l439 825h227z" glyph-name="ygrave" horiz-adv-x="1224" unicode="ỳ"/><glyph d="M571 723l-424 813h250l312 -618l489 618h246l-649 -807l-101 -729h-223zM565.5 -127q55.5 0 89 -40t25.5 -95t-53 -94t-99 -39q-55 0 -90 39t-26 94q10 55 54 95t99.5 40z" glyph-name="uni1EF4" horiz-adv-x="1345" unicode="Ỵ"/><glyph d="M487 1718q-2 121 66 200t168 79q125 0 182 -113q25 -53 74 -53q43 0 68.5 41t21.5 106h131q4 -119 -63.5 -197.5t-171.5 -78.5q-121 0 -179 113q-27 53 -75 53q-43 0 -69 -42t-19 -108h-134zM795 729l-101 -729h-223l100 723l-424 813h250l312 -618l489 618h246z" glyph-name="uni1EF8" horiz-adv-x="1345" unicode="Ỹ"/><glyph d="M166 608h1024l-23 -149h-1024z" glyph-name="endash" horiz-adv-x="1366" unicode="–"/><glyph d="M2 608h2050l-22 -149h-2050z" glyph-name="emdash" horiz-adv-x="2066" unicode="—"/><glyph d="M223 1128q-55 0 -87 39t-23.5 94.5t66 139.5t106.5 135h106l-61 -166q55 -37 45 -108q-8 -57 -53.5 -95.5t-98.5 -38.5z" glyph-name="quoteleft" horiz-adv-x="317" unicode="‘"/><glyph d="M205 1276q-84 35 -72 127q8 55 52 94t100 39q53 0 85.5 -39t24.5 -94t-65.5 -138t-108.5 -137h-104z" glyph-name="quoteright" horiz-adv-x="317" unicode="’"/><glyph d="M25 0q-86 33 -72 127q8 55 52 94t99.5 39t87 -39t23.5 -94t-64.5 -138t-107.5 -139h-109z" glyph-name="quotesinglbase" horiz-adv-x="317" unicode="‚"/><glyph d="M223.5 1128q-55.5 0 -87.5 39t-23.5 94.5t66 139.5t106.5 135h106l-61 -166q55 -37 45 -108q-8 -55 -52 -94.5t-99.5 -39.5zM583.5 1128q-55.5 0 -87 39t-23.5 94.5t65.5 138.5t108.5 136h105l-62 -166q57 -39 45 -108q-8 -55 -52 -94.5t-99.5 -39.5z" glyph-name="quotedblleft" horiz-adv-x="677" unicode="“"/><glyph d="M178 1294q-57 37 -45 109q8 55 52 94t99.5 39t87 -39t23.5 -94t-65.5 -138t-108.5 -137h-104zM539 1294q-55 37 -45 109q8 55 52 94t99 39t87 -39t24 -94t-65.5 -139t-106.5 -136h-107z" glyph-name="quotedblright" horiz-adv-x="677" unicode="”"/><glyph d="M-4 0q-57 39 -47 109q8 55 53 94t100.5 39t87 -39t23.5 -94q-8 -53 -65.5 -136.5t-108.5 -140.5h-107zM358 0q-57 39 -47 109q8 55 52.5 94t99.5 39t87 -39t23 -94q-6 -53 -62 -136.5t-110 -140.5h-106z" glyph-name="quotedblbase" horiz-adv-x="677" unicode="„"/><glyph d="M1116 846h-352l-166 -1194h-141l166 1194h-342l18 139h344l55 387h142l-56 -387h353z" glyph-name="dagger" horiz-adv-x="1345" unicode="†"/><glyph d="M764 846l-92 -653h352l-18 -142h-353l-55 -399h-141l55 399h-344l20 142h342l93 653h-342l18 139h344l55 387h142l-56 -387h353l-21 -139h-352z" glyph-name="daggerdbl" horiz-adv-x="1345" unicode="‡"/><glyph d="M455 391q-115 0 -185.5 80t-54.5 197q14 113 109.5 196.5t208 83.5t183 -84t56.5 -196q-16 -115 -110 -196t-207 -81z" glyph-name="bullet" horiz-adv-x="983" unicode="•"/><glyph d="M207 -16q-53 0 -87 39.5t-28 95.5q8 55 54.5 95t99.5 40q55 0 88 -40t24 -95q-6 -55 -50 -95t-101 -40zM751.5 -16q-55.5 0 -89 39.5t-25.5 95t53 95.5t98 40q57 0 91 -40t26 -95.5t-53 -95t-100.5 -39.5zM1294 -16q-53 0 -85.5 39.5t-26.5 95.5q8 55 52 95t97 40 q57 0 91 -40t26 -95q-6 -55 -52.5 -95t-101.5 -40z" glyph-name="ellipsis" horiz-adv-x="1679" unicode="…"/><glyph d="M426 881q-123 0 -195.5 99t-52 238.5t119.5 238.5t222 99t195.5 -99t52.5 -238q-18 -139 -118.5 -238.5t-223.5 -99.5zM1317 1536h223l-1259 -1536h-226zM448.5 1044q53.5 0 99.5 51.5t56 123t-21.5 123t-85 51.5t-98.5 -51.5t-55 -122.5q-8 -72 21.5 -123.5t83 -51.5z M1077 -20q-123 0 -195.5 99t-52.5 240q18 139 119 239.5t226 100.5q123 0 194.5 -100t50.5 -240q-18 -139 -118.5 -239t-223.5 -100zM1769.5 -20q-122.5 0 -194.5 99t-53 240q20 139 120.5 239.5t223.5 100.5t195.5 -100t52.5 -240q-18 -139 -120 -239t-224.5 -100z M1100 147q53 0 98 49.5t55 122.5q8 74 -22.5 123.5t-83.5 49.5t-98 -49.5t-56 -123.5q-8 -74 23 -123t84 -49zM1794 147q53 0 98 49.5t56 122.5q8 74 -23 123.5t-84 49.5t-98 -49.5t-55 -123.5q-8 -74 22.5 -123t83.5 -49z" glyph-name="perthousand" horiz-adv-x="2250" unicode="‰"/><glyph d="M80 571l364 377h179l-365 -377l258 -376h-178z" glyph-name="guilsinglleft" horiz-adv-x="710" unicode="‹"/><glyph d="M430 571l-258 377h178l258 -377l-364 -376h-178z" glyph-name="guilsinglright" horiz-adv-x="710" unicode="›"/><glyph d="M1145 1536h219l-1286 -1536h-221z" glyph-name="fraction" horiz-adv-x="1220" unicode="⁄"/><glyph d="M94 938h137q63 248 228.5 396.5t394.5 148.5q221 0 336 -128t98 -351h-176q12 317 -281 317q-156 0 -264 -101.5t-151 -281.5h495l-47 -139h-475l-18 -127h450l-47 -150h-418q-6 -180 74 -278.5t238 -98.5q309 0 391 344h174q-49 -238 -206 -375t-382 -137 q-231 0 -356 147.5t-115 397.5h-139l20 150h133l19 127h-133z" glyph-name="Euro" horiz-adv-x="1351" unicode="€"/><glyph d="M580 -12q-190 0 -278.5 108.5t-84.5 272.5l2 22q-27 -16 -78 -51t-71 -47l-45 117q31 23 104.5 71.5t110.5 77.5l79 576q41 283 172.5 414.5t299.5 131.5q158 0 225 -106.5t45 -263.5q-29 -197 -185.5 -390.5t-437.5 -408.5l-6 -61q-18 -141 46.5 -217t170.5 -76 q104 0 202.5 66.5t168.5 160.5l82 -92q-213 -305 -522 -305zM465 705q410 354 442 600q33 229 -133 229q-78 0 -147.5 -89t-96.5 -282z" glyph-name="afii61289" horiz-adv-x="1230" unicode="ℓ"/><glyph d="M154 1536h495l-12 -96h-195l-86 -623h-110l88 623h-193zM1516 1534l-103 -719h-102l80 569l-299 -569h-97l-135 569l-80 -569h-106l102 719h144l143 -584l309 584h144z" glyph-name="trademark" horiz-adv-x="1497" unicode="™"/><glyph d="M842 -18q-362 0 -585.5 230t-178.5 554q45 328 333.5 559t651.5 231q365 0 588 -231t178 -559l-2 -21h-1417q-12 0 -15 -8l-59 -430q-4 -23 10 -49q197 -233 504 -233q340 0 602 262h125q-137 -141 -331.5 -223t-403.5 -82zM1503 788q6 0 10 15l60 430q4 35 -12 51 q-199 225 -502 225q-301 0 -567 -231q-25 -25 -27 -53l-59 -422q-4 -14 10 -15h1087z" glyph-name="estimated" horiz-adv-x="1880" unicode="℮"/><glyph d="M1538 598h-1100l25 -260l-445 385l553 385l-98 -262h1100z" glyph-name="arrowleft" horiz-adv-x="1720" unicode="←"/><glyph d="M436 1100l-270 -62l455 498l315 -498l-252 62l-154 -1100h-247z" glyph-name="arrowup" horiz-adv-x="1034" unicode="↑"/><glyph d="M1300 846l-24 262l442 -385l-551 -385l99 260h-1100l35 248h1099z" glyph-name="arrowright" horiz-adv-x="1720" unicode="→"/><glyph d="M745 1536l-153 -1100l268 62l-454 -498l-316 498l254 -62l154 1100h247z" glyph-name="arrowdown" horiz-adv-x="995" unicode="↓"/><glyph d="M-131 682l553 385l-100 -260l1148 -2l-24 260l442 -385l-549 -385l99 262l-1151 2l22 -264z" glyph-name="arrowboth" horiz-adv-x="1753" unicode="↔"/><glyph d="M70 350l252 -61l112 798l-270 -61l454 496l316 -498l-252 61l-111 -794l269 61l-455 -497z" glyph-name="arrowupdn" horiz-adv-x="995" unicode="↕"/><glyph d="M981 137l-670 776l-172 -227l8 625l613 -80l-250 -141l670 -779z" glyph-name="uni2196" horiz-adv-x="1095" unicode="↖"/><glyph d="M705 1090l-209 141l637 80l-168 -625l-111 227l-887 -776l-149 174z" glyph-name="uni2197" horiz-adv-x="1095" unicode="↗"/><glyph d="M147 1399l668 -776l174 227l-8 -625l-612 80l247 141l-667 779z" glyph-name="uni2198" horiz-adv-x="1097" unicode="↘"/><glyph d="M420 446l211 -141l-637 -80l168 625l108 -227l889 776l150 -174z" glyph-name="uni2199" horiz-adv-x="1097" unicode="↙"/><glyph d="M449 1450q190 33 333.5 -60.5t206 -284t25.5 -433.5q-41 -281 -214 -471.5t-388 -190.5q-250 0 -330 176t55 437q119 229 311.5 322t374.5 18q-29 195 -136 287.5t-261 45.5zM821 672q10 66 13 125q-137 94 -280.5 33.5t-246.5 -257.5q-88 -170 -51 -294.5t176 -124.5 q127 0 241.5 152.5t147.5 365.5z" glyph-name="partialdiff" horiz-adv-x="1101" unicode="∂"/><glyph d="M1335 997q125 -174 92 -401q-35 -254 -239.5 -433t-458.5 -179q-225 0 -379 149l-100 -88l-55 64l102 88q-125 168 -94 399q37 254 241.5 433t458.5 179q225 0 377 -147l102 88l56 -64zM377 596q-23 -158 59 -277l705 617q-104 100 -262 100q-184 0 -329.5 -128 t-172.5 -312zM756 158q182 0 327.5 128t169.5 310q25 156 -57 276l-704 -616q104 -98 264 -98z" glyph-name="emptyset" horiz-adv-x="1648" unicode="∅"/><glyph glyph-name="product" horiz-adv-x="1515" unicode="∏"/><glyph d="M63 -119l836 717l-635 717l17 125h1181l-22 -164h-908l588 -678l-778 -678h907l-22 -164h-1182z" glyph-name="summation" horiz-adv-x="1525" unicode="∑"/><glyph d="M113 682h1228l-18 -143h-1229z" glyph-name="minus" horiz-adv-x="1447" unicode="−"/><glyph d="M254 553h-137l20 141h240l115 -620l925 1493l123 -56l-1036 -1671h-117z" glyph-name="radical" horiz-adv-x="1488" unicode="√"/><glyph d="M354 287q-125 0 -196.5 87t-57.5 222q25 135 120 223t220 88q182 0 346 -205q221 205 404 205q129 0 197.5 -85t54.5 -226q-25 -139 -117 -224t-221 -85q-182 0 -346 205q-222 -205 -404 -205zM375 428q127 0 301 168q-125 170 -254 170q-63 0 -115.5 -48t-64.5 -122 q-8 -70 31 -119t102 -49zM1124 428q63 0 113.5 47t62.5 121q8 74 -28.5 122t-100.5 48q-127 0 -307 -170q135 -168 260 -168z" glyph-name="infinity" horiz-adv-x="1560" unicode="∞"/><glyph d="M201 -387q-86 0 -128 61.5t-14 153.5h111q-14 -100 47 -100q53 0 64 61l217 1552q12 78 69.5 127.5t132.5 49.5q80 0 122 -61.5t14 -153.5h-113q16 100 -43 100q-25 0 -44.5 -16.5t-21.5 -45.5l-219 -1552q-10 -78 -66 -127t-128 -49z" glyph-name="integral" horiz-adv-x="921" unicode="∫"/><glyph d="M807 653q-61 0 -115.5 30t-74 52.5t-58.5 71.5q-70 96 -145 96q-80 0 -136.5 -65.5t-60.5 -159.5h-117q8 150 103.5 245t228.5 95q80 0 131 -37t103 -113q33 -49 64.5 -74.5t82.5 -25.5q78 0 136.5 62.5t60.5 160.5h116q-4 -143 -97 -240.5t-222 -97.5zM750 248 q-61 0 -115.5 29.5t-74 52t-58.5 71.5q-68 94 -146 95q-80 0 -136 -64.5t-62 -161.5h-117q8 152 104.5 248t231.5 96q78 0 128 -36.5t103 -114.5q33 -49 65 -75t83 -26q80 0 137 62.5t61 161.5h115q-4 -143 -97 -240.5t-222 -97.5z" glyph-name="approxequal" horiz-adv-x="1177" unicode="≈"/><glyph d="M915 672l-253 -254h643l-19 -142h-764l-262 -264h-131l262 264h-334l19 142h456l252 254h-671l18 139h795l223 225h131l-225 -225h305l-19 -139h-426z" glyph-name="notequal" horiz-adv-x="1447" unicode="≠"/><glyph d="M1450 1264l-1014 -435l891 -434l-27 -184l-1056 522l28 195l1203 518zM160 129h1130l-18 -129h-1131z" glyph-name="lessequal" horiz-adv-x="1595" unicode="≤"/><glyph d="M1403 928l-29 -195l-1204 -522l27 184l1009 434l-887 435l25 182zM160 129h1130l-18 -129h-1131z" glyph-name="greaterequal" horiz-adv-x="1595" unicode="≥"/><glyph d="M180 723l707 618l528 -616l-702 -619zM1176 725l-324 377l-430 -379l326 -375z" glyph-name="lozenge" horiz-adv-x="1579" unicode="◊"/><glyph glyph-name="glyph432"/><glyph d="M436 1100l-270 -62l455 498l315 -498l-252 62l-154 -1100h-247z" glyph-name="glyph433" horiz-adv-x="995"/><glyph d="M346 1210q-53 0 -88 39t-26.5 94.5t54.5 95.5t99 40q55 0 89 -40t26 -95.5t-53.5 -94.5t-100.5 -39zM213 1024h217l-143 -1024h-217z" glyph-name="i.locl" horiz-adv-x="624"/><glyph d="M1085 356h-714l-187 -356h-243l833 1536h250l401 -1536h-243zM1049 553l-183 754l-399 -754h582z" glyph-name="glyph435" horiz-adv-x="1552"/><glyph d="M1006 1724h-170l225 324h219zM1085 356h-714l-187 -356h-243l833 1536h250l401 -1536h-243zM1049 553l-183 754l-399 -754h582z" glyph-name="glyph436" horiz-adv-x="1552"/><glyph d="M907 1665q-154 0 -237.5 88t-63.5 242h129q-10 -82 43 -141.5t148 -59.5q98 0 168.5 59.5t81.5 141.5h129q-23 -154 -132.5 -242t-265.5 -88zM1085 356h-714l-187 -356h-243l833 1536h250l401 -1536h-243zM1049 553l-183 754l-399 -754h582z" glyph-name="glyph437" horiz-adv-x="1552"/><glyph d="M799 1698l-162 350h164l127 -246l194 246h164l-260 -350h-227zM1085 356h-714l-187 -356h-243l833 1536h250l401 -1536h-243zM1049 553l-183 754l-399 -754h582z" glyph-name="glyph438" horiz-adv-x="1552"/><glyph d="M758 1698h-170l260 350h227l162 -350h-170l-119 252zM1085 356h-714l-187 -356h-243l833 1536h250l401 -1536h-243zM1049 553l-183 754l-399 -754h582z" glyph-name="glyph439" horiz-adv-x="1552"/><glyph d="M715 1712q-55 0 -90 39t-27 94q10 55 54 95t99.5 40t89 -39.5t25.5 -95t-53 -94.5t-98 -39zM1116 1712q-53 0 -88 39t-26.5 94.5t53.5 95t100 39.5q53 0 87 -39.5t26 -95t-52.5 -94.5t-99.5 -39zM1085 356h-714l-187 -356h-243l833 1536h250l401 -1536h-243zM1049 553 l-183 754l-399 -754h582z" glyph-name="glyph440" horiz-adv-x="1552"/><glyph d="M1085 356h-714l-187 -356h-243l833 1536h250l401 -1536h-243zM1049 553l-183 754l-399 -754h582zM657.5 -127q55.5 0 89 -40t25.5 -95t-53 -94t-98 -39q-55 0 -90 39t-27 94q10 55 54 95t99.5 40z" glyph-name="glyph441" horiz-adv-x="1552"/><glyph d="M823 1724l-184 324h219l135 -324h-170zM1085 356h-714l-187 -356h-243l833 1536h250l401 -1536h-243zM1049 553l-183 754l-399 -754h582z" glyph-name="glyph442" horiz-adv-x="1552"/><glyph d="M1237 1733h-635l21 141h634zM1085 356h-714l-187 -356h-243l833 1536h250l401 -1536h-243zM1049 553l-183 754l-399 -754h582z" glyph-name="glyph443" horiz-adv-x="1552"/><glyph d="M1413 -322l55 -98q-135 -119 -313 -112q-109 6 -167 63t-44 160q31 186 281 309h-43l-97 356h-714l-187 -356h-243l833 1536h250l401 -1536h-10q-127 -23 -217 -109t-102 -182q-8 -57 21.5 -93t90.5 -36q113 0 205 98zM467 553h582l-183 754z" glyph-name="glyph444" horiz-adv-x="1533"/><glyph d="M1032 1507l393 -1507h-243l-97 356h-714l-187 -356h-243l815 1503h-11q-70 63 -55 162q12 90 86 153.5t166 63.5q88 0 142.5 -63.5t41.5 -153.5q-16 -99 -94 -158zM786 1665q-6 -55 24 -90t83 -35q51 0 91 35t48 90q8 51 -22.5 87t-81.5 36t-92.5 -36t-49.5 -87zM467 553 h582l-183 754z" glyph-name="glyph445" horiz-adv-x="1552"/><glyph d="M580 1718q-2 121 65.5 200t167.5 79q125 0 182 -113q25 -53 74 -53q43 0 68.5 41t21.5 106h131q4 -119 -63.5 -197.5t-171.5 -78.5q-121 0 -178 113q-27 53 -76 53q-43 0 -68.5 -42t-19.5 -108h-133zM1085 356h-714l-187 -356h-243l833 1536h250l401 -1536h-243z M1049 553l-183 754l-399 -754h582z" glyph-name="glyph446" horiz-adv-x="1552"/><glyph d="M774 1536h1118l-26 -190h-649l-70 -492h563l-22 -170h-564l-69 -491h649l-27 -193h-866l47 332h-498l-167 -332h-252zM883 504l118 842h-98l-446 -842h426z" glyph-name="glyph447" horiz-adv-x="1863"/><glyph d="M881 801q131 -33 199.5 -136.5t47.5 -252.5q-27 -184 -166 -298t-323 -114h-633l215 1536h543q186 0 294.5 -113.5t84.5 -298.5q-18 -121 -89 -205.5t-173 -117.5zM915 1102q14 98 -45 168.5t-157 70.5h-297l-66 -460h297q100 0 177 62.5t91 158.5zM635 199 q100 0 179 70.5t93 168.5q14 100 -44 180t-156 80h-381l-72 -499h381z" glyph-name="glyph448" horiz-adv-x="1214"/><glyph d="M952 801q131 -33 200 -136.5t48 -252.5q-27 -184 -166 -298t-323 -114h-705l215 1536h615q186 0 294.5 -113.5t83.5 -298.5q-18 -121 -89 -205.5t-173 -117.5zM987 1102q14 98 -45 168.5t-158 70.5h-368l-66 -460h369q100 0 177 62.5t91 158.5zM707 199q100 0 179 70.5 t93 168.5q14 100 -44 180t-157 80h-452l-72 -499h453zM534.5 -127q55.5 0 89 -40t25.5 -95t-53 -94t-98 -39q-55 0 -90 39t-27 94q10 55 54 95t99.5 40z" glyph-name="glyph449" horiz-adv-x="1286"/><glyph d="M717 -20q-324 -2 -500 226t-129 562t285.5 561t564.5 227q197 0 340 -81.5t206.5 -203.5t55.5 -263h-221q-2 55 -24.5 110.5t-67.5 107.5t-128 84.5t-192 32.5q-240 0 -406.5 -163.5t-201.5 -411.5q-35 -246 87 -410.5t359 -164.5q193 0 331 101t173 218h221 q-49 -199 -263 -364.5t-490 -167.5z" glyph-name="glyph450" horiz-adv-x="1615"/><glyph d="M1137 2048h219l-275 -324h-170zM717 -20q-324 -2 -500 226t-129 562t285.5 561t564.5 227q197 0 340 -81.5t206.5 -203.5t55.5 -263h-221q-2 55 -24.5 110.5t-67.5 107.5t-128 84.5t-192 32.5q-240 0 -406.5 -163.5t-201.5 -411.5q-35 -246 87 -410.5t359 -164.5 q193 0 331 101t173 218h221q-49 -199 -263 -364.5t-490 -167.5z" glyph-name="glyph451" horiz-adv-x="1615"/><glyph d="M684 2048h164l125 -246l196 246h164l-262 -350h-227zM717 -20q-324 -2 -500 226t-129 562t285.5 561t564.5 227q197 0 340 -81.5t206.5 -203.5t55.5 -263h-221q-2 55 -24.5 110.5t-67.5 107.5t-128 84.5t-192 32.5q-240 0 -406.5 -163.5t-201.5 -411.5 q-35 -246 87 -410.5t359 -164.5q193 0 331 101t173 218h221q-49 -199 -263 -364.5t-490 -167.5z" glyph-name="glyph452" horiz-adv-x="1615"/><glyph d="M907 1343q-240 0 -406.5 -163.5t-201.5 -411.5q-35 -246 87 -410.5t359 -164.5q193 0 331 101t173 218h221q-45 -182 -235.5 -343t-441.5 -185v-4l-74 -113q106 20 172.5 -35t52.5 -151q-12 -88 -82.5 -150.5t-161.5 -62.5q-72 0 -134 38.5t-85 96.5l105 39 q16 -31 54 -51.5t75 -20.5q45 0 80.5 31.5t42.5 79.5q10 68 -43.5 92t-139.5 -9l-75 54l102 162q-205 6 -351.5 114.5t-209 285.5t-33.5 388q47 334 285.5 561t564.5 227q197 0 340 -81.5t206.5 -203.5t55.5 -263h-221q-2 55 -24.5 110.5t-67.5 107.5t-128 84.5t-192 32.5z " glyph-name="glyph453" horiz-adv-x="1615"/><glyph d="M960.5 1712q-55.5 0 -89 39t-25.5 94.5t53 95t100 39.5q53 0 88 -39.5t27 -95t-53 -94.5t-100.5 -39zM717 -20q-324 -2 -500 226t-129 562t285.5 561t564.5 227q197 0 340 -81.5t206.5 -203.5t55.5 -263h-221q-2 55 -24.5 110.5t-67.5 107.5t-128 84.5t-192 32.5 q-240 0 -406.5 -163.5t-201.5 -411.5q-35 -246 87 -410.5t359 -164.5q193 0 331 101t173 218h221q-49 -199 -263 -364.5t-490 -167.5z" glyph-name="glyph454" horiz-adv-x="1615"/><glyph d="M256 1536h451q162 0 292.5 -47t223 -140.5t130.5 -245t11 -343.5q-49 -354 -296 -557t-576 -203h-451zM516 199q244 0 415 142t210 419q23 156 -3 270.5t-92.5 181t-157.5 98t-210 31.5h-225l-162 -1142h225z" glyph-name="glyph455" horiz-adv-x="1443"/><glyph d="M860 1536q328 0 518.5 -210t141.5 -558q-47 -348 -297 -558t-578 -210h-448l98 702h-156l19 134h155l99 700h448zM670 199q238 0 414 153.5t212 415.5q37 264 -95 418.5t-370 154.5h-225l-71 -505h260l-19 -134h-260l-72 -503h226z" glyph-name="glyph456" horiz-adv-x="1597"/><glyph d="M463 2048h164l125 -246l196 246h164l-262 -350h-227zM256 1536h492q162 0 292.5 -47t223 -140.5t130.5 -245t11 -343.5q-49 -354 -296 -557t-577 -203h-491zM557 199q244 0 415 142t210 419q23 156 -3 270.5t-92.5 181t-157.5 98t-210 31.5h-266l-162 -1142h266z" glyph-name="glyph457" horiz-adv-x="1484"/><glyph d="M891 1536q162 0 293 -47t224 -140.5t131 -245t11 -343.5q-49 -354 -296.5 -557t-577.5 -203h-490l99 702h-146l19 134h145l98 700h490zM1327 760q43 303 -87 442t-378 139h-266l-72 -505h244l-18 -134h-244l-72 -503h266q244 0 416 141t211 420z" glyph-name="glyph458" horiz-adv-x="1628"/><glyph d="M432 1341l-67 -473h600l-29 -198h-600l-66 -471h686l-26 -199h-912l215 1536h912l-27 -195h-686z" glyph-name="glyph459" horiz-adv-x="1136"/><glyph d="M817 1724h-170l223 324h222zM432 1341l-67 -473h661l-29 -198h-661l-66 -471h746l-27 -199h-971l215 1536h971l-26 -195h-746z" glyph-name="glyph460" horiz-adv-x="1198"/><glyph d="M608 1698l-159 350h163l125 -246l197 246h164l-262 -350h-228zM432 1341l-67 -473h661l-29 -198h-661l-66 -471h746l-27 -199h-971l215 1536h971l-26 -195h-746z" glyph-name="glyph461" horiz-adv-x="1198"/><glyph d="M1178 1341h-746l-67 -473h661l-29 -198h-661l-66 -471h746l-27 -199h-450l-86 -133q106 20 172.5 -35t52.5 -151q-12 -88 -83 -150.5t-161 -62.5q-72 0 -134 38.5t-85 96.5l104 39q16 -31 54.5 -51.5t75.5 -20.5q45 0 80.5 31.5t41.5 79.5q10 68 -43 92t-139 -9l-76 54 l119 182h-414l215 1536h971z" glyph-name="glyph462" horiz-adv-x="1198"/><glyph d="M569 1698h-170l258 350h228l164 -350h-172l-119 252zM432 1341l-67 -473h661l-29 -198h-661l-66 -471h746l-27 -199h-971l215 1536h971l-26 -195h-746z" glyph-name="glyph463" horiz-adv-x="1198"/><glyph d="M524.5 1712q-55.5 0 -89.5 39t-25.5 94.5t53.5 95t100 39.5q53 0 88 -39.5t27 -95t-53 -94.5t-100.5 -39zM928 1712q-55 0 -90 39t-27 94q10 55 55 95t99 40q55 0 88.5 -39.5t25.5 -95t-53 -94.5t-98 -39zM432 1341l-67 -473h661l-29 -198h-661l-66 -471h746l-27 -199 h-971l215 1536h971l-26 -195h-746z" glyph-name="glyph464" horiz-adv-x="1198"/><glyph d="M727 1712q-55 0 -90 39t-27 94q10 55 54.5 95t99.5 40t89 -39.5t25.5 -95t-53.5 -94.5t-98 -39zM432 1341l-67 -473h661l-29 -198h-661l-66 -471h746l-27 -199h-971l215 1536h971l-26 -195h-746z" glyph-name="glyph465" horiz-adv-x="1198"/><glyph d="M432 1341l-67 -473h661l-29 -198h-661l-66 -471h746l-27 -199h-971l215 1536h971l-26 -195h-746zM469 -127q53 0 88 -40t26.5 -95t-53.5 -94t-100 -39t-89 39t-25.5 94t53.5 95t100 40z" glyph-name="glyph466" horiz-adv-x="1198"/><glyph d="M635 1724l-186 324h221l133 -324h-168zM432 1341l-67 -473h661l-29 -198h-661l-66 -471h746l-27 -199h-971l215 1536h971l-26 -195h-746z" glyph-name="glyph467" horiz-adv-x="1198"/><glyph d="M1047 1733h-635l20 141h635zM432 1341l-67 -473h661l-29 -198h-661l-66 -471h746l-27 -199h-971l215 1536h971l-26 -195h-746z" glyph-name="glyph468" horiz-adv-x="1198"/><glyph d="M1178 1341h-746l-67 -473h661l-29 -198h-661l-66 -471h746l-27 -199h-67q-117 -18 -212.5 -106.5t-109.5 -184.5q-8 -57 21.5 -93t91.5 -36q113 0 205 98l55 -98q-135 -119 -314 -112q-109 6 -167 63t-43 160q31 186 280 309h-711l215 1536h971z" glyph-name="glyph469" horiz-adv-x="1243"/><glyph d="M391 1718q-4 121 63.5 200t170.5 79q123 0 180 -113q25 -53 74 -53q45 0 70.5 41t19.5 106h131q4 -119 -63.5 -197.5t-172.5 -78.5q-121 0 -178 113q-27 53 -74 53q-45 0 -70.5 -42t-19.5 -108h-131zM432 1341l-67 -473h661l-29 -198h-661l-66 -471h746l-27 -199h-971 l215 1536h971l-26 -195h-746z" glyph-name="glyph470" horiz-adv-x="1198"/><glyph d="M434 1341l-67 -473h600l-29 -198h-600l-92 -670h-226l216 1536h911l-27 -195h-686z" glyph-name="glyph471" horiz-adv-x="1097"/><glyph d="M877 1350q-246 0 -407 -159t-198 -429q-37 -256 88 -417t340 -161t357.5 115t173.5 305h-408l29 195h633q-100 -819 -809 -819q-332 0 -498 223t-117 559q49 354 277.5 574t548.5 220q268 0 433 -133t165 -381h-217q-14 145 -123.5 226.5t-267.5 81.5z" glyph-name="glyph472" horiz-adv-x="1564"/><glyph d="M985 1665q-154 0 -237.5 88t-63.5 242h129q-10 -82 43 -141.5t148 -59.5q98 0 168.5 59.5t80.5 141.5h129q-23 -154 -132 -242t-265 -88zM1477 797l-31 -215l-80 -582h-152l-4 225q-102 -123 -227 -179t-305 -56q-328 0 -491.5 220t-118.5 552q49 350 276 568t543 218 q264 0 428 -132t162 -376h-213q-14 143 -123 223t-264 80q-244 0 -404 -157.5t-197 -423.5q-37 -254 88 -410.5t338 -156.5q219 0 358.5 111.5t166.5 299.5h-404l29 191h625z" glyph-name="glyph473" horiz-adv-x="1564"/><glyph d="M887 1698l-160 350h164l125 -246l196 246h164l-262 -350h-227zM1477 797l-31 -215l-80 -582h-152l-4 225q-102 -123 -227 -179t-305 -56q-328 0 -491.5 220t-118.5 552q49 350 276 568t543 218q264 0 428 -132t162 -376h-213q-14 143 -123 223t-264 80 q-244 0 -404 -157.5t-197 -423.5q-37 -254 88 -410.5t338 -156.5q219 0 358.5 111.5t166.5 299.5h-404l29 191h625z" glyph-name="glyph474" horiz-adv-x="1564"/><glyph d="M1477 797l-31 -215l-80 -582h-152l-4 225q-102 -123 -227 -179t-305 -56q-328 0 -491.5 220t-118.5 552q49 350 276 568t543 218q264 0 428 -132t162 -376h-213q-14 143 -123 223t-264 80q-244 0 -404 -157.5t-197 -423.5q-37 -254 88 -410.5t338 -156.5 q219 0 358.5 111.5t166.5 299.5h-404l29 191h625zM676 -350q-84 35 -72 127q8 55 52 94t99.5 39t87 -39t23.5 -94.5t-65.5 -139t-106.5 -135.5h-106z" glyph-name="glyph475" horiz-adv-x="1564"/><glyph d="M1024 1712q-55 0 -89 39t-25.5 94.5t53.5 95t100 39.5q53 0 88 -39.5t26.5 -95t-53.5 -94.5t-100 -39zM1477 797l-31 -215l-80 -582h-152l-4 225q-102 -123 -227 -179t-305 -56q-328 0 -491.5 220t-118.5 552q49 350 276 568t543 218q264 0 428 -132t162 -376h-213 q-14 143 -123 223t-264 80q-244 0 -404 -157.5t-197 -423.5q-37 -254 88 -410.5t338 -156.5q219 0 358.5 111.5t166.5 299.5h-404l29 191h625z" glyph-name="glyph476" horiz-adv-x="1564"/><glyph d="M1483 1536l-215 -1536h-224l95 670h-770l-93 -670h-225l215 1536h226l-95 -668h770l93 668h223z" glyph-name="glyph477" horiz-adv-x="1503"/><glyph d="M1698 1157h-133l-162 -1157h-223l92 670h-768l-94 -670h-224l162 1157h-135l12 92h135l41 287h224l-41 -287h770l41 287h223l-41 -287h133zM1341 1157h-770l-39 -289h768z" glyph-name="glyph478" horiz-adv-x="1771"/><glyph d="M1483 1536l-215 -1536h-224l95 670h-770l-93 -670h-225l215 1536h226l-95 -668h770l93 668h223zM647 -127q53 0 88 -40t27 -95t-53 -94t-100.5 -39t-89.5 39t-25.5 94t53.5 95t100 40z" glyph-name="glyph479" horiz-adv-x="1503"/><glyph d="M266 1536h226l-216 -1536h-225z" glyph-name="glyph480" horiz-adv-x="512"/><glyph d="M346 1536h223l-215 -1536h-223zM850 -20q-92 0 -156 18l33 229q61 -23 145 -22q61 0 113.5 45t61.5 108l165 1178h224l-168 -1194q-23 -156 -141.5 -259t-276.5 -103z" glyph-name="glyph481" horiz-adv-x="1523"/><glyph d="M547 2048h221l-274 -324h-170zM266 1536h226l-216 -1536h-225z" glyph-name="glyph482" horiz-adv-x="512"/><glyph d="M123 2048h166l125 -246l196 246h164l-262 -350h-227zM266 1536h226l-216 -1536h-225z" glyph-name="glyph483" horiz-adv-x="512"/><glyph d="M334 2048h227l164 -350h-172l-119 252l-188 -252h-172zM266 1536h226l-216 -1536h-225z" glyph-name="glyph484" horiz-adv-x="512"/><glyph d="M201 1712q-55 0 -91 39t-28 94q10 55 55 95t100.5 40t89 -39.5t25.5 -95t-53 -94.5t-98 -39zM602 1712q-53 0 -88 39t-26.5 94.5t53.5 95t100 39.5q53 0 87 -39.5t25.5 -95t-52.5 -94.5t-99 -39zM266 1536h226l-216 -1536h-225z" glyph-name="glyph485" horiz-adv-x="512"/><glyph d="M403 1712q-55 0 -89.5 39t-26.5 94q10 55 54 95t99.5 40t89 -39.5t25.5 -95t-53.5 -94.5t-98.5 -39zM266 1536h226l-216 -1536h-225z" glyph-name="glyph486" horiz-adv-x="512"/><glyph d="M266 1536h226l-216 -1536h-225zM106.5 -395q-55.5 0 -90 39t-26.5 94q10 55 55 95t100 40q53 0 88 -40t27 -95t-53 -94t-100.5 -39z" glyph-name="glyph487" horiz-adv-x="512"/><glyph d="M123 2048h221l135 -324h-170zM266 1536h226l-216 -1536h-225z" glyph-name="glyph488" horiz-adv-x="512"/><glyph d="M106 1874h637l-20 -141h-637zM266 1536h226l-216 -1536h-225z" glyph-name="glyph489" horiz-adv-x="512"/><glyph d="M305 -420q-137 -119 -315 -112q-109 6 -168.5 63t-44.5 160q31 186 282 309h-8l215 1536h226l-216 -1536h-24q-117 -18 -212 -106.5t-110 -184.5q-8 -57 22 -93t91 -36q117 0 205 98z" glyph-name="glyph490" horiz-adv-x="512"/><glyph d="M541 1702q-121 0 -179 113q-27 53 -75 53q-43 0 -68.5 -42t-21.5 -108h-134q-2 121 67 200t169 79q125 0 182 -113q25 -53 74 -53q43 0 68.5 41t21.5 106h131q4 -119 -63.5 -197.5t-171.5 -78.5zM266 1536h226l-216 -1536h-225z" glyph-name="glyph491" horiz-adv-x="512"/><glyph d="M143 -20q-92 0 -155 18l32 229q61 -23 146 -22q61 0 113.5 45t60.5 108l166 1178h223l-168 -1194q-23 -156 -141.5 -259t-276.5 -103z" glyph-name="glyph492" horiz-adv-x="755"/><glyph d="M899 0l-545 702l-98 -702h-225l215 1536h225l-100 -713l663 713h269l-711 -764l596 -772h-289z" glyph-name="glyph493" horiz-adv-x="1306"/><glyph d="M940 0l-586 702l-98 -702h-225l215 1536h225l-100 -713l704 713h268l-751 -764l637 -772h-289zM469 -360q-84 35 -72 127q8 55 52.5 94t99.5 39t87 -39t23 -94q-6 -55 -63 -138.5t-109 -136.5h-106z" glyph-name="glyph494" horiz-adv-x="1347"/><glyph d="M236 1536h225l-189 -1337h549l-26 -199h-775z" glyph-name="glyph495" horiz-adv-x="968"/><glyph d="M518 2048h219l-274 -324h-170zM236 1536h225l-189 -1337h549l-26 -199h-775z" glyph-name="glyph496" horiz-adv-x="968"/><glyph d="M846 1278q-39 14 -58.5 49t-13.5 78q8 53 52 93t99.5 40t87 -39t23.5 -94q-6 -55 -62 -137t-110 -140h-106zM236 1536h225l-189 -1337h549l-26 -199h-775z" glyph-name="glyph497" horiz-adv-x="1013"/><glyph d="M236 1536h225l-189 -1337h549l-26 -199h-775zM307 -385q-39 14 -58.5 49t-12.5 78q8 53 52 93t99 40t87 -39t23.5 -94t-64.5 -138t-107 -139h-107z" glyph-name="glyph498" horiz-adv-x="968"/><glyph d="M236 1536h225l-189 -1337h549l-26 -199h-775zM352.5 -395q-55.5 0 -89.5 39t-25.5 94t53.5 95t100 40q53 0 88 -40t27 -95t-53 -94t-100.5 -39z" glyph-name="glyph499" horiz-adv-x="968"/><glyph d="M1061 199l-27 -199h-774l80 578l-109 -101h-143l274 254l113 805h225l-79 -569l102 98h149l-274 -252l-86 -614h549z" glyph-name="glyph500" horiz-adv-x="1208"/><glyph d="M1853 1536l-215 -1536h-223l170 1217l-637 -1217h-205l-297 1217l-170 -1217h-225l215 1536h312l305 -1251l663 1251h307z" glyph-name="glyph501" horiz-adv-x="1873"/><glyph d="M1550 1536l-215 -1536h-221l-713 1186l-165 -1186h-226l215 1536h221l715 -1184l166 1184h223z" glyph-name="glyph502" horiz-adv-x="1560"/><glyph d="M1004 1724h-170l223 324h221zM1550 1536l-215 -1536h-221l-713 1186l-165 -1186h-226l215 1536h221l715 -1184l166 1184h223z" glyph-name="glyph503" horiz-adv-x="1560"/><glyph d="M795 1698l-160 350h164l125 -246l196 246h164l-262 -350h-227zM1550 1536l-215 -1536h-221l-713 1186l-165 -1186h-226l215 1536h221l715 -1184l166 1184h223z" glyph-name="glyph504" horiz-adv-x="1560"/><glyph d="M1550 1536l-215 -1536h-221l-713 1186l-165 -1186h-226l215 1536h221l715 -1184l166 1184h223zM600 -358q-84 35 -72 127q8 55 52.5 94t99.5 39t87 -39t23.5 -94.5t-65.5 -139.5t-107 -135h-106z" glyph-name="glyph505" horiz-adv-x="1560"/><glyph d="M913 1712q-55 0 -90 39t-26 94q10 55 54 95t99.5 40t89 -39.5t25.5 -95t-53.5 -94.5t-98.5 -39zM1550 1536l-215 -1536h-221l-713 1186l-165 -1186h-226l215 1536h221l715 -1184l166 1184h223z" glyph-name="glyph506" horiz-adv-x="1560"/><glyph d="M1550 1536l-215 -1536h-221l-713 1186l-165 -1186h-226l215 1536h221l715 -1184l166 1184h223zM657.5 -127q55.5 0 89 -40t25.5 -95t-53 -94t-98 -39q-55 0 -90 39t-27 94q10 55 54 95t99.5 40z" glyph-name="glyph507" horiz-adv-x="1560"/><glyph d="M1540 1536l-235 -1675q-20 -152 -132 -224.5t-276 -70.5l21 147q68 -2 110.5 29t54.5 119l21 155l-713 1160l-166 -1176h-215l215 1536h213l723 -1174l164 1174h215z" glyph-name="glyph508" horiz-adv-x="1550"/><glyph d="M616 1718q-2 121 66 200t168 79q125 0 182 -113q25 -53 74 -53q43 0 68.5 41t21.5 106h131q4 -119 -63.5 -197.5t-171.5 -78.5q-121 0 -179 113q-27 53 -75 53q-43 0 -69 -42t-19 -108h-134zM1550 1536l-215 -1536h-221l-713 1186l-165 -1186h-226l215 1536h221 l715 -1184l166 1184h223z" glyph-name="glyph509" horiz-adv-x="1560"/><glyph d="M717 -20q-328 0 -507 228t-132 560t289.5 560t570.5 228q326 0 506 -228t133 -560t-291.5 -560t-568.5 -228zM747.5 197q239.5 0 408.5 162.5t204 408.5q35 248 -89 411.5t-363.5 163.5t-410.5 -163.5t-206 -411.5q-35 -244 91 -407.5t365.5 -163.5z" glyph-name="glyph510" horiz-adv-x="1642"/><glyph d="M1106 2048h219l-274 -324h-170zM717 -20q-328 0 -507 228t-132 560t289.5 560t570.5 228q326 0 506 -228t133 -560t-291.5 -560t-568.5 -228zM747.5 197q239.5 0 408.5 162.5t204 408.5q35 248 -89 411.5t-363.5 163.5t-410.5 -163.5t-206 -411.5q-35 -244 91 -407.5 t365.5 -163.5z" glyph-name="glyph511" horiz-adv-x="1642"/><glyph d="M684 2048h164l125 -246l196 246h164l-262 -350h-227zM717 -20q-328 0 -507 228t-132 560t289.5 560t570.5 228q326 0 506 -228t133 -560t-291.5 -560t-568.5 -228zM747.5 197q239.5 0 408.5 162.5t204 408.5q35 248 -89 411.5t-363.5 163.5t-410.5 -163.5t-206 -411.5 q-35 -244 91 -407.5t365.5 -163.5z" glyph-name="glyph512" horiz-adv-x="1642"/><glyph d="M893 2048h227l164 -350h-172l-119 252l-188 -252h-170zM717 -20q-328 0 -507 228t-132 560t289.5 560t570.5 228q326 0 506 -228t133 -560t-291.5 -560t-568.5 -228zM747.5 197q239.5 0 408.5 162.5t204 408.5q35 248 -89 411.5t-363.5 163.5t-410.5 -163.5t-206 -411.5 q-35 -244 91 -407.5t365.5 -163.5z" glyph-name="glyph513" horiz-adv-x="1642"/><glyph d="M760 1712q-55 0 -90 39t-27 94q10 55 54 95t99.5 40t89.5 -39.5t25.5 -95t-53.5 -94.5t-98 -39zM1161 1712q-53 0 -88 39t-26.5 94.5t53.5 95t100 39.5q53 0 87 -39.5t26 -95t-52.5 -94.5t-99.5 -39zM717 -20q-328 0 -507 228t-132 560t289.5 560t570.5 228 q326 0 506 -228t133 -560t-291.5 -560t-568.5 -228zM747.5 197q239.5 0 408.5 162.5t204 408.5q35 248 -89 411.5t-363.5 163.5t-410.5 -163.5t-206 -411.5q-35 -244 91 -407.5t365.5 -163.5z" glyph-name="glyph514" horiz-adv-x="1642"/><glyph d="M717 -20q-328 0 -507 228t-132 560t289.5 560t570.5 228q326 0 506 -228t133 -560t-291.5 -560t-568.5 -228zM747.5 197q239.5 0 408.5 162.5t204 408.5q35 248 -89 411.5t-363.5 163.5t-410.5 -163.5t-206 -411.5q-35 -244 91 -407.5t365.5 -163.5zM666 -395 q-55 0 -90 39t-27 94q10 55 54 95t99.5 40t89 -40t25.5 -95t-53 -94t-98 -39z" glyph-name="glyph515" horiz-adv-x="1642"/><glyph d="M682 2048h221l133 -324h-168zM717 -20q-328 0 -507 228t-132 560t289.5 560t570.5 228q326 0 506 -228t133 -560t-291.5 -560t-568.5 -228zM747.5 197q239.5 0 408.5 162.5t204 408.5q35 248 -89 411.5t-363.5 163.5t-410.5 -163.5t-206 -411.5q-35 -244 91 -407.5 t365.5 -163.5z" glyph-name="glyph516" horiz-adv-x="1642"/><glyph d="M1038 2048h207l-395 -358h-158zM1411 2048h207l-395 -358h-158zM717 -20q-328 0 -507 228t-132 560t289.5 560t570.5 228q326 0 506 -228t133 -560t-291.5 -560t-568.5 -228zM747.5 197q239.5 0 408.5 162.5t204 408.5q35 248 -89 411.5t-363.5 163.5t-410.5 -163.5 t-206 -411.5q-35 -244 91 -407.5t365.5 -163.5z" glyph-name="glyph517" horiz-adv-x="1642"/><glyph d="M668 1874h635l-21 -141h-635zM717 -20q-328 0 -507 228t-132 560t289.5 560t570.5 228q326 0 506 -228t133 -560t-291.5 -560t-568.5 -228zM747.5 197q239.5 0 408.5 162.5t204 408.5q35 248 -89 411.5t-363.5 163.5t-410.5 -163.5t-206 -411.5q-35 -244 91 -407.5 t365.5 -163.5z" glyph-name="glyph518" horiz-adv-x="1642"/><glyph d="M1397 1380q111 -111 159 -269.5t21 -342.5q-47 -332 -292 -560t-568 -228q-211 0 -371 104l-102 -127h-144l160 199q-111 109 -160 268.5t-22 343.5q47 332 289.5 560t570.5 228q211 0 373 -106l100 127h143zM291 768q-37 -270 112 -434l764 938q-115 72 -260 71 q-240 0 -410.5 -163.5t-205.5 -411.5zM748 197q240 0 408.5 162.5t203.5 408.5q39 270 -107 432l-761 -938q106 -65 256 -65z" glyph-name="glyph519" horiz-adv-x="1642"/><glyph d="M1051 1724h-170l225 324h219zM1397 1380q111 -111 159 -269.5t21 -342.5q-47 -332 -292 -560t-568 -228q-211 0 -371 104l-102 -127h-144l160 199q-111 109 -160 268.5t-22 343.5q47 332 289.5 560t570.5 228q211 0 373 -106l100 127h143zM291 768q-37 -270 112 -434 l764 938q-115 72 -260 71q-240 0 -410.5 -163.5t-205.5 -411.5zM748 197q240 0 408.5 162.5t203.5 408.5q39 270 -107 432l-761 -938q106 -65 256 -65z" glyph-name="glyph520" horiz-adv-x="1642"/><glyph d="M1098 1702q-121 0 -178 113q-27 53 -74 53q-45 0 -70.5 -42t-19.5 -108h-131q-4 121 63.5 200t169.5 79q123 0 180 -113q25 -53 74 -53q45 0 70.5 41t19.5 106h131q4 -119 -63.5 -197.5t-171.5 -78.5zM717 -20q-328 0 -507 228t-132 560t289.5 560t570.5 228 q326 0 506 -228t133 -560t-291.5 -560t-568.5 -228zM747.5 197q239.5 0 408.5 162.5t204 408.5q35 248 -89 411.5t-363.5 163.5t-410.5 -163.5t-206 -411.5q-35 -244 91 -407.5t365.5 -163.5z" glyph-name="glyph521" horiz-adv-x="1642"/><glyph d="M2478 1341h-745l-68 -473h662l-29 -198h-662l-65 -471h745l-26 -199h-971l31 223q-258 -242 -594 -241q-328 0 -525.5 230t-152.5 558q31 215 162 396.5t327.5 287t411.5 105.5q332 0 524 -242l31 219h971zM786 197q205 0 379 127t244 321l35 248q-14 197 -152.5 323.5 t-345.5 126.5q-240 0 -429 -166.5t-224 -406.5q-33 -240 110 -406.5t383 -166.5z" glyph-name="glyph522" horiz-adv-x="2498"/><glyph d="M821 1536q180 0 289 -142.5t84 -326.5q-29 -186 -176.5 -325.5t-329.5 -139.5h-360l-82 -602h-226l216 1536h585zM696 786q104 0 190.5 84t102.5 195q14 109 -48 192.5t-165 83.5h-342l-80 -555h342z" glyph-name="glyph523" horiz-adv-x="1193"/><glyph d="M788 1321q182 0 291 -129t82 -313q-25 -180 -169 -305t-326 -125h-365l-63 -449h-218l187 1321l29 211h217l-29 -211h364zM684 639q102 0 184 71.5t97 174.5q14 100 -47.5 171.5t-163.5 71.5h-359l-67 -489h356z" glyph-name="glyph524" horiz-adv-x="1189"/><glyph d="M1546 176l-24 -176h-49q-147 0 -238 111l-29 32q-223 -164 -489 -163q-328 0 -507 228t-132 560t289.5 560t570.5 228q326 0 506 -228t133 -560q-41 -276 -221 -487l39 -48q45 -57 127 -57h24zM748 197q184 0 333 102l-204 254l147 131l201 -246q111 145 135 330 q35 248 -89 411.5t-363.5 163.5t-410.5 -163.5t-206 -411.5q-35 -244 91 -407.5t366 -163.5z" glyph-name="glyph525" horiz-adv-x="1652"/><glyph d="M1098 0h-250l-293 614h-233l-86 -614h-226l215 1536h586q180 0 288.5 -141.5t84.5 -329.5q-23 -156 -138.5 -283t-263.5 -153zM698 793q100 0 182.5 79.5t98.5 194.5q16 113 -43 193.5t-160 80.5h-352l-78 -548h352z" glyph-name="glyph526" horiz-adv-x="1259"/><glyph d="M868 1724h-170l224 324h221zM1169 0h-249l-293 614h-305l-86 -614h-226l215 1536h658q180 0 288.5 -141.5t83.5 -329.5q-23 -156 -138.5 -283t-262.5 -153zM770 793q100 0 182 79.5t99 194.5q16 113 -43.5 193.5t-159.5 80.5h-424l-78 -548h424z" glyph-name="glyph527" horiz-adv-x="1331"/><glyph d="M662 1698l-162 350h164l127 -246l194 246h164l-260 -350h-227zM1169 0h-249l-293 614h-305l-86 -614h-226l215 1536h658q180 0 288.5 -141.5t83.5 -329.5q-23 -156 -138.5 -283t-262.5 -153zM770 793q100 0 182 79.5t99 194.5q16 113 -43.5 193.5t-159.5 80.5h-424 l-78 -548h424z" glyph-name="glyph528" horiz-adv-x="1331"/><glyph d="M1169 0h-249l-293 614h-305l-86 -614h-226l215 1536h658q180 0 288.5 -141.5t83.5 -329.5q-23 -156 -138.5 -283t-262.5 -153zM770 793q100 0 182 79.5t99 194.5q16 113 -43.5 193.5t-159.5 80.5h-424l-78 -548h424zM455 -358q-84 35 -72 127q8 55 51 94t101 39 q53 0 85.5 -39t24.5 -94.5t-65.5 -138.5t-108.5 -136h-106z" glyph-name="glyph529" horiz-adv-x="1331"/><glyph d="M528.5 -20q-237.5 0 -365.5 134t-118 343l207 -2q6 -113 78.5 -189t234.5 -76q143 0 236.5 58.5t111.5 175.5q6 41 0 73.5t-31.5 61.5t-43 46.5t-69.5 43t-70.5 33.5t-84.5 33q-27 10 -41 16q-80 33 -121.5 51.5t-106 57.5t-94.5 76.5t-50.5 98t-10.5 132.5 q27 190 191 299.5t377 109.5q471 0 487 -456h-207q2 111 -70.5 189.5t-232.5 78.5q-117 0 -208 -55.5t-105 -153.5q-4 -35 2 -62.5t31.5 -54t43 -43t66.5 -40t69.5 -32.5t82.5 -34q209 -86 280 -135q172 -123 146 -328q-31 -215 -204 -332.5t-410.5 -117.5z" glyph-name="glyph530" horiz-adv-x="1236"/><glyph d="M997 2048h222l-275 -326h-170zM538.5 -20q-237.5 0 -370.5 135t-123 342l207 -2q6 -111 84 -188t239 -77q145 0 242.5 59.5t116.5 174.5q8 59 -13.5 106.5t-77 83t-102.5 56t-129 51.5q-18 6 -28 10q-82 31 -127 50.5t-109.5 58.5t-96.5 77.5t-51.5 98t-9.5 131.5 q27 188 196 298.5t382 110.5q471 0 487 -446h-204q2 104 -76 181t-230 77q-117 0 -213 -55.5t-110 -153.5q-6 -47 13.5 -86t62.5 -67.5t91 -52t111 -50.5q18 -6 27 -10q209 -86 279 -131q186 -123 157 -332q-31 -215 -209 -332.5t-415.5 -117.5z" glyph-name="glyph531" horiz-adv-x="1255"/><glyph d="M575 2048h164l125 -248l197 248h164l-262 -350h-228zM538.5 -20q-237.5 0 -370.5 135t-123 342l207 -2q6 -111 84 -188t239 -77q145 0 242.5 59.5t116.5 174.5q8 59 -13.5 106.5t-77 83t-102.5 56t-129 51.5q-18 6 -28 10q-82 31 -127 50.5t-109.5 58.5t-96.5 77.5 t-51.5 98t-9.5 131.5q27 188 196 298.5t382 110.5q471 0 487 -446h-204q2 104 -76 181t-230 77q-117 0 -213 -55.5t-110 -153.5q-6 -47 13.5 -86t62.5 -67.5t91 -52t111 -50.5q18 -6 27 -10q209 -86 279 -131q186 -123 157 -332q-31 -215 -209 -332.5t-415.5 -117.5z" glyph-name="glyph532" horiz-adv-x="1255"/><glyph d="M727 893q209 -86 279 -131q186 -123 157 -332q-29 -203 -190.5 -319.5t-382.5 -128.5l-74 -115q109 20 174.5 -34t50.5 -150q-12 -90 -82.5 -152.5t-160.5 -62.5q-70 0 -133.5 39.5t-83.5 97.5l104 39q14 -31 52 -51.5t75 -20.5q45 0 81 31.5t42 79.5q10 66 -42 90 t-138 -9l-78 54l106 164q-213 16 -330.5 149t-107.5 326l207 -2q6 -111 84 -188t239 -77q145 0 242.5 59.5t116.5 174.5q8 59 -13.5 106.5t-77 83t-102.5 56t-129 51.5q-18 6 -28 10q-82 31 -127 50.5t-109.5 58.5t-96.5 77.5t-51.5 98t-9.5 131.5q27 188 196 298.5 t382 110.5q471 0 487 -446h-204q2 104 -76 181t-230 77q-117 0 -213 -55.5t-110 -153.5q-6 -47 13.5 -86t62.5 -67.5t91 -52t111 -50.5q19 -6 27 -10z" glyph-name="glyph533" horiz-adv-x="1255"/><glyph d="M538.5 -20q-237.5 0 -370.5 135t-123 342l207 -2q6 -111 84 -188t239 -77q145 0 242.5 59.5t116.5 174.5q8 59 -13.5 106.5t-77 83t-102.5 56t-129 51.5q-18 6 -28 10q-82 31 -127 50.5t-109.5 58.5t-96.5 77.5t-51.5 98t-9.5 131.5q27 188 196 298.5t382 110.5 q471 0 487 -446h-204q2 104 -76 181t-230 77q-117 0 -213 -55.5t-110 -153.5q-6 -47 13.5 -86t62.5 -67.5t91 -52t111 -50.5q18 -6 27 -10q209 -86 279 -131q186 -123 157 -332q-31 -215 -209 -332.5t-415.5 -117.5zM475 -412q-39 14 -58.5 49t-13.5 78q8 55 52.5 94 t99.5 39q53 0 86 -38.5t24.5 -94t-64.5 -137.5t-109 -139h-107z" glyph-name="glyph534" horiz-adv-x="1255"/><glyph d="M538.5 -20q-237.5 0 -370.5 135t-123 342l207 -2q6 -111 84 -188t239 -77q145 0 242.5 59.5t116.5 174.5q8 59 -13.5 106.5t-77 83t-102.5 56t-129 51.5q-18 6 -28 10q-82 31 -127 50.5t-109.5 58.5t-96.5 77.5t-51.5 98t-9.5 131.5q27 188 196 298.5t382 110.5 q471 0 487 -446h-204q2 104 -76 181t-230 77q-117 0 -213 -55.5t-110 -153.5q-6 -47 13.5 -86t62.5 -67.5t91 -52t111 -50.5q18 -6 27 -10q209 -86 279 -131q186 -123 157 -332q-31 -215 -209 -332.5t-415.5 -117.5zM534.5 -395q-55.5 0 -89 40t-25.5 95q8 53 53 93t100 40 q53 0 88 -40t27 -93q-8 -55 -53 -95t-100.5 -40z" glyph-name="glyph535" horiz-adv-x="1255"/><glyph d="M1251 1341h-452l-189 -1339h-221l189 1339h-453l27 197h1126z" glyph-name="glyph536" horiz-adv-x="1212"/><glyph d="M1251 1341h-452l-72 -505h152l88 -50l-189 -84h-69l-99 -700h-221l100 717l-161 33l121 84h57l72 505h-453l27 197h1126z" glyph-name="glyph537" horiz-adv-x="1212"/><glyph d="M670 1698l-160 350h164l125 -246l196 246h164l-262 -350h-227zM1251 1341h-452l-189 -1339h-221l189 1339h-453l27 197h1126z" glyph-name="glyph538" horiz-adv-x="1212"/><glyph d="M152 1538h1126l-27 -197h-452l-189 -1339h-63l-80 -125q106 20 173 -35t52 -151q-12 -88 -82.5 -150.5t-160.5 -62.5q-72 0 -134.5 39t-83.5 96l103 39q16 -29 54 -50.5t75 -21.5q45 0 81 32t42 79q10 68 -42 92t-141 -8l-75 53l112 174h-51l189 1339h-453z" glyph-name="glyph539" horiz-adv-x="1212"/><glyph d="M1251 1341h-452l-189 -1339h-221l189 1339h-453l27 197h1126zM403 -399q-84 35 -71 127q8 55 52 94t99.5 39t87 -39t23.5 -94q-6 -55 -63.5 -138.5t-108.5 -136.5h-107z" glyph-name="glyph540" horiz-adv-x="1212"/><glyph d="M1251 1341h-452l-189 -1339h-221l189 1339h-453l27 197h1126zM483 -127q53 0 88 -40t27 -95t-53 -94t-100.5 -39t-89 39t-25.5 94t53 95t100 40z" glyph-name="glyph541" horiz-adv-x="1212"/><glyph d="M608 -20q-250 0 -402.5 151.5t-121.5 370.5l145 1034h224l-140 -997q-23 -152 72.5 -256.5t251.5 -104.5q158 0 280.5 105.5t143.5 255.5l141 997h223l-145 -1034q-31 -219 -226.5 -370.5t-445.5 -151.5z" glyph-name="glyph542" horiz-adv-x="1439"/><glyph d="M1040 2048h220l-275 -324h-170zM610 -20q-250 0 -403.5 152.5t-122.5 369.5l145 1034h224l-140 -997q-20 -150 74 -255.5t252 -105.5t286 105.5t148 255.5l141 997h224l-146 -1034q-31 -217 -230.5 -369.5t-451.5 -152.5z" glyph-name="glyph543" horiz-adv-x="1452"/><glyph d="M575 2048h164l125 -246l197 246h164l-262 -350h-228zM608 -20q-250 0 -402.5 151.5t-121.5 370.5l145 1034h224l-140 -997q-23 -152 72.5 -256.5t251.5 -104.5q158 0 280.5 105.5t143.5 255.5l141 997h223l-145 -1034q-31 -219 -226.5 -370.5t-445.5 -151.5z" glyph-name="glyph544" horiz-adv-x="1439"/><glyph d="M827 2048h228l164 -350h-172l-119 252l-189 -252h-170zM610 -20q-250 0 -403.5 152.5t-122.5 369.5l145 1034h224l-140 -997q-20 -150 74 -255.5t252 -105.5t286 105.5t148 255.5l141 997h224l-146 -1034q-31 -217 -230.5 -369.5t-451.5 -152.5z" glyph-name="glyph545" horiz-adv-x="1452"/><glyph d="M694 1712q-55 0 -90 39t-26 94q10 55 54 95t99 40t89 -39.5t26 -95t-53.5 -94.5t-98.5 -39zM1096 1712q-53 0 -88 39t-27 94.5t53 95t101 39.5q53 0 86.5 -39.5t25.5 -95t-52 -94.5t-99 -39zM610 -20q-250 0 -403.5 152.5t-122.5 369.5l145 1034h224l-140 -997 q-20 -150 74 -255.5t252 -105.5t286 105.5t148 255.5l141 997h224l-146 -1034q-31 -217 -230.5 -369.5t-451.5 -152.5z" glyph-name="glyph546" horiz-adv-x="1452"/><glyph d="M608 -20q-250 0 -402.5 151.5t-121.5 370.5l145 1034h224l-140 -997q-23 -152 72.5 -256.5t251.5 -104.5q158 0 280.5 105.5t143.5 255.5l141 997h223l-145 -1034q-31 -219 -226.5 -370.5t-445.5 -151.5zM557 -395q-55 0 -90 39t-27 94q10 55 54.5 95t99.5 40t89 -40 t25.5 -95t-53.5 -94t-98 -39z" glyph-name="glyph547" horiz-adv-x="1439"/><glyph d="M616 2048h222l133 -324h-168zM610 -20q-250 0 -403.5 152.5t-122.5 369.5l145 1034h224l-140 -997q-20 -150 74 -255.5t252 -105.5t286 105.5t148 255.5l141 997h224l-146 -1034q-31 -217 -230.5 -369.5t-451.5 -152.5z" glyph-name="glyph548" horiz-adv-x="1452"/><glyph d="M973 2048h207l-396 -358h-157zM1346 2048h206l-395 -358h-158zM610 -20q-250 0 -403.5 152.5t-122.5 369.5l145 1034h224l-140 -997q-20 -150 74 -255.5t252 -105.5t286 105.5t148 255.5l141 997h224l-146 -1034q-31 -217 -230.5 -369.5t-451.5 -152.5z" glyph-name="glyph549" horiz-adv-x="1497"/><glyph d="M602 1874h635l-20 -141h-635zM610 -20q-250 0 -403.5 152.5t-122.5 369.5l145 1034h224l-140 -997q-20 -150 74 -255.5t252 -105.5t286 105.5t148 255.5l141 997h224l-146 -1034q-31 -217 -230.5 -369.5t-451.5 -152.5z" glyph-name="glyph550" horiz-adv-x="1452"/><glyph d="M1214 1536h224l-146 -1034q-27 -186 -183.5 -329.5t-369.5 -180.5h19q-90 -39 -160 -117t-82 -158q-6 -57 22.5 -92t90.5 -35q121 0 205 99l57 -101q-139 -121 -313 -110q-109 4 -167.5 61.5t-43.5 159.5q25 162 223 281q-244 8 -390.5 158.5t-115.5 363.5l145 1034h224 l-140 -997q-20 -150 74 -255.5t252 -105.5t286 105.5t148 255.5z" glyph-name="glyph551" horiz-adv-x="1452"/><glyph d="M887 1653q-90 0 -145.5 64.5t-43 154.5t86 153.5t163.5 63.5q88 0 143.5 -63.5t43 -153.5t-85 -154.5t-162.5 -64.5zM901 1749q51 0 91 35t48 88q6 51 -23.5 88t-80.5 37t-92 -37t-47 -88q-8 -53 21.5 -88t82.5 -35zM610 -20q-250 0 -403.5 152.5t-122.5 369.5l145 1034 h224l-140 -997q-20 -150 74 -255.5t252 -105.5t286 105.5t148 255.5l141 997h224l-146 -1034q-31 -217 -230.5 -369.5t-451.5 -152.5z" glyph-name="glyph552" horiz-adv-x="1452"/><glyph d="M1032 1702q-121 0 -178 113q-27 53 -74 53q-45 0 -70.5 -42t-19.5 -108h-131q-4 121 63.5 200t170.5 79q123 0 180 -113q25 -53 74 -53q45 0 70.5 41t19.5 106h131q4 -119 -64 -197.5t-172 -78.5zM610 -20q-250 0 -403.5 152.5t-122.5 369.5l145 1034h224l-140 -997 q-20 -150 74 -255.5t252 -105.5t286 105.5t148 255.5l141 997h224l-146 -1034q-31 -217 -230.5 -369.5t-451.5 -152.5z" glyph-name="glyph553" horiz-adv-x="1452"/><glyph d="M1606 1536l-832 -1536h-250l-403 1536h252l311 -1276l670 1276h252z" glyph-name="glyph554" horiz-adv-x="1482"/><glyph d="M2292 1536l-670 -1536h-254l-194 1145l-496 -1145h-252l-262 1536h242l182 -1284l532 1284h226l182 -1286l522 1286h242z" glyph-name="glyph555" horiz-adv-x="2217"/><glyph d="M1374 1724h-170l226 324h219zM2292 1536l-670 -1536h-254l-194 1145l-496 -1145h-252l-262 1536h242l182 -1284l532 1284h226l182 -1286l522 1286h242z" glyph-name="glyph556" horiz-adv-x="2217"/><glyph d="M1126 1698h-170l261 350h227l162 -350h-170l-119 252zM2292 1536l-670 -1536h-254l-194 1145l-496 -1145h-252l-262 1536h242l182 -1284l532 1284h226l182 -1286l522 1286h242z" glyph-name="glyph557" horiz-adv-x="2217"/><glyph d="M1081.5 1712q-55.5 0 -89.5 39t-25.5 94.5t53.5 95t100 39.5q53 0 88 -39.5t27 -95t-53 -94.5t-100.5 -39zM1485 1712q-55 0 -90 39t-27 94q10 55 55 95t99 40q55 0 89 -39.5t25.5 -95t-53.5 -94.5t-98 -39zM2292 1536l-670 -1536h-254l-194 1145l-496 -1145h-252 l-262 1536h242l182 -1284l532 1284h226l182 -1286l522 1286h242z" glyph-name="glyph558" horiz-adv-x="2217"/><glyph d="M1192 1724l-186 324h221l133 -324h-168zM2292 1536l-670 -1536h-254l-194 1145l-496 -1145h-252l-262 1536h242l182 -1284l532 1284h226l182 -1286l522 1286h242z" glyph-name="glyph559" horiz-adv-x="2217"/><glyph d="M971 0l-309 600l-474 -600h-256l635 782l-399 754h254l293 -569l454 569h254l-614 -752l418 -784h-256z" glyph-name="glyph560" horiz-adv-x="1345"/><glyph d="M795 729l-101 -729h-223l100 723l-424 813h250l312 -618l489 618h246z" glyph-name="glyph561" horiz-adv-x="1345"/><glyph d="M913 1724h-170l226 324h219zM795 729l-101 -729h-223l100 723l-424 813h250l312 -618l489 618h246z" glyph-name="glyph562" horiz-adv-x="1345"/><glyph d="M666 1698h-170l260 350h227l162 -350h-170l-119 252zM795 729l-101 -729h-223l100 723l-424 813h250l312 -618l489 618h246z" glyph-name="glyph563" horiz-adv-x="1345"/><glyph d="M623 1712q-55 0 -90 39t-27 94q10 55 54 95t99.5 40t89 -39.5t25.5 -95t-53 -94.5t-98 -39zM1024 1712q-53 0 -88 39t-26.5 94.5t53.5 95t100 39.5q53 0 87 -39.5t25.5 -95t-52.5 -94.5t-99 -39zM795 729l-101 -729h-223l100 723l-424 813h250l312 -618l489 618h246z" glyph-name="glyph564" horiz-adv-x="1345"/><glyph d="M571 723l-424 813h250l312 -618l489 618h246l-649 -807l-101 -729h-223zM565.5 -127q55.5 0 89 -40t25.5 -95t-53 -94t-99 -39q-55 0 -90 39t-26 94q10 55 54 95t99.5 40z" glyph-name="glyph565" horiz-adv-x="1345"/><glyph d="M731 1724l-184 324h219l135 -324h-170zM795 729l-101 -729h-223l100 723l-424 813h250l312 -618l489 618h246z" glyph-name="glyph566" horiz-adv-x="1345"/><glyph d="M487 1718q-2 121 66 200t168 79q125 0 182 -113q25 -53 74 -53q43 0 68.5 41t21.5 106h131q4 -119 -63.5 -197.5t-171.5 -78.5q-121 0 -179 113q-27 53 -75 53q-43 0 -69 -42t-19 -108h-134zM795 729l-101 -729h-223l100 723l-424 813h250l312 -618l489 618h246z" glyph-name="glyph567" horiz-adv-x="1345"/><glyph d="M1182 199l-27 -199h-1167l16 119l1018 1222h-823l26 195h1127l-17 -117l-1018 -1220h865z" glyph-name="glyph568" horiz-adv-x="1331"/><glyph d="M920 1724h-170l223 324h221zM1182 199l-27 -199h-1167l16 119l1018 1222h-823l26 195h1127l-17 -117l-1018 -1220h865z" glyph-name="glyph569" horiz-adv-x="1331"/><glyph d="M711 1698l-160 350h164l125 -246l196 246h164l-262 -350h-227zM1182 199l-27 -199h-1167l16 119l1018 1222h-823l26 195h1127l-17 -117l-1018 -1220h865z" glyph-name="glyph570" horiz-adv-x="1331"/><glyph d="M829 1712q-55 0 -89.5 39t-26.5 94q10 55 54 95t99.5 40t89 -39.5t25.5 -95t-53.5 -94.5t-98.5 -39zM1182 199l-27 -199h-1167l16 119l1018 1222h-823l26 195h1127l-17 -117l-1018 -1220h865z" glyph-name="glyph571" horiz-adv-x="1331"/><glyph d="M1182 199l-27 -199h-1167l16 119l1018 1222h-823l26 195h1127l-17 -117l-1018 -1220h865zM551 -127q53 0 88 -40t26.5 -95t-53.5 -94t-100 -39t-89 39t-25.5 94t53.5 95t100 40z" glyph-name="glyph572" horiz-adv-x="1331"/><glyph d="M287 -18q-141 4 -219 86t-58 219q18 135 147.5 220t334.5 85h227l8 74q31 207 -178 206q-223 0 -268 -176h-179q33 152 152 248t326 96q188 0 283 -94t69 -284l-92 -662h-181l3 129q-61 -74 -159.5 -112.5t-215.5 -34.5zM362 143q86 0 176.5 43t139.5 115l20 152h-194 q-131 -2 -202 -45t-81 -113q-8 -68 31.5 -110t109.5 -42z" glyph-name="glyph573" horiz-adv-x="987"/><glyph d="M1016 1536l-275 -324h-170l224 324h221zM950 326q-23 -152 66 -148l-25 -178q-47 0 -71 2q-170 18 -191 141q-57 -68 -164.5 -111.5t-226.5 -43.5q-164 0 -255 90t-68.5 241.5t155.5 247t356 111.5l260 20l7 31q29 225 -207 225q-104 0 -181 -54t-102 -155h-201 q37 168 168 281t348 113q207 0 310.5 -106.5t75.5 -307.5q-36 -274 -54 -399zM739 362l25 173l-225 -21q-279 -23 -299 -186q-10 -74 41 -117t129 -43q106 0 200 57t129 137z" glyph-name="glyph574" horiz-adv-x="1136"/><glyph d="M571 1153q-156 0 -239.5 88t-61.5 242h129q-12 -82 42.5 -141.5t148.5 -59.5q96 0 166.5 59.5t83.5 141.5h127q-20 -154 -129 -242t-267 -88zM338 -12q-164 0 -255 90t-68.5 241.5t155.5 247t356 111.5l260 20l7 31q29 225 -207 225q-104 0 -181 -54t-102 -155h-201 q37 168 168 281t348 113q207 0 310.5 -106.5t75.5 -307.5q-35 -274 -54 -399q-23 -152 66 -148l-25 -178q-47 0 -71 2q-170 18 -191 141q-57 -68 -164.5 -111.5t-226.5 -43.5zM410 168q106 0 200.5 57.5t128.5 136.5l25 173l-225 -21q-279 -23 -299 -186q-10 -74 41 -117 t129 -43z" glyph-name="glyph575" horiz-adv-x="1136"/><glyph d="M483 1186l-161 350h163l127 -246l195 246h164l-260 -350h-228zM338 -12q-164 0 -255 90t-68.5 241.5t155.5 247t356 111.5l260 20l7 31q29 225 -207 225q-104 0 -181 -54t-102 -155h-201q37 168 168 281t348 113q207 0 310.5 -106.5t75.5 -307.5q-35 -274 -54 -399 q-23 -152 66 -148l-25 -178q-47 0 -71 2q-170 18 -191 141q-57 -68 -164.5 -111.5t-226.5 -43.5zM410 168q106 0 200.5 57.5t128.5 136.5l25 173l-225 -21q-279 -23 -299 -186q-10 -74 41 -117t129 -43z" glyph-name="glyph576" horiz-adv-x="1136"/><glyph d="M621 1438l-191 -252h-170l260 350h228l161 -350h-170zM950 326q-23 -152 66 -148l-25 -178q-47 0 -71 2q-170 18 -191 141q-57 -68 -164.5 -111.5t-226.5 -43.5q-164 0 -255 90t-68.5 241.5t155.5 247t356 111.5l260 20l7 31q29 225 -207 225q-104 0 -181 -54t-102 -155 h-201q37 168 168 281t348 113q207 0 310.5 -106.5t75.5 -307.5q-36 -274 -54 -399zM739 362l25 173l-225 -21q-279 -23 -299 -186q-10 -74 41 -117t129 -43q106 0 200 57t129 137z" glyph-name="glyph577" horiz-adv-x="1136"/><glyph d="M379 1200q-55 0 -90 39t-27 94.5t53 95t100.5 39.5t89.5 -39.5t25.5 -95t-53.5 -94.5t-98 -39zM780 1200q-53 0 -88 39t-26.5 94.5t53.5 95t100 39.5q53 0 87 -39.5t26 -95t-52.5 -94.5t-99.5 -39zM338 -12q-164 0 -255 90t-68.5 241.5t155.5 247t356 111.5l260 20l7 31 q29 225 -207 225q-104 0 -181 -54t-102 -155h-201q37 168 168 281t348 113q207 0 310.5 -106.5t75.5 -307.5q-35 -274 -54 -399q-23 -152 66 -148l-25 -178q-47 0 -71 2q-170 18 -191 141q-57 -68 -164.5 -111.5t-226.5 -43.5zM410 168q106 0 200.5 57.5t128.5 136.5l25 173 l-225 -21q-279 -23 -299 -186q-10 -74 41 -117t129 -43z" glyph-name="glyph578" horiz-adv-x="1136"/><glyph d="M338 -12q-164 0 -255 90t-68.5 241.5t155.5 247t356 111.5l260 20l7 31q29 225 -207 225q-104 0 -181 -54t-102 -155h-201q37 168 168 281t348 113q207 0 310.5 -106.5t75.5 -307.5q-35 -274 -54 -399q-23 -152 66 -148l-25 -178q-47 0 -71 2q-170 18 -191 141 q-57 -68 -164.5 -111.5t-226.5 -43.5zM410 168q106 0 200.5 57.5t128.5 136.5l25 173l-225 -21q-279 -23 -299 -186q-10 -74 41 -117t129 -43zM428 -127q55 0 89 -40t26 -95t-53.5 -94t-98.5 -39q-55 0 -90 39t-27 94q10 55 54.5 95t99.5 40z" glyph-name="glyph579" horiz-adv-x="1136"/><glyph d="M727 1212h-168l-186 324h221zM950 326q-23 -152 66 -148l-25 -178q-47 0 -71 2q-170 18 -191 141q-57 -68 -164.5 -111.5t-226.5 -43.5q-164 0 -255 90t-68.5 241.5t155.5 247t356 111.5l260 20l7 31q29 225 -207 225q-104 0 -181 -54t-102 -155h-201q37 168 168 281 t348 113q207 0 310.5 -106.5t75.5 -307.5q-36 -274 -54 -399zM739 362l25 173l-225 -21q-279 -23 -299 -186q-10 -74 41 -117t129 -43q106 0 200 57t129 137z" glyph-name="glyph580" horiz-adv-x="1136"/><glyph d="M891 1221h-635l18 141h635zM338 -12q-164 0 -255 90t-68.5 241.5t155.5 247t356 111.5l260 20l7 31q29 225 -207 225q-104 0 -181 -54t-102 -155h-201q37 168 168 281t348 113q207 0 310.5 -106.5t75.5 -307.5q-35 -274 -54 -399q-23 -152 66 -148l-25 -178q-47 0 -71 2 q-170 18 -191 141q-57 -68 -164.5 -111.5t-226.5 -43.5zM410 168q106 0 200.5 57.5t128.5 136.5l25 173l-225 -21q-279 -23 -299 -186q-10 -74 41 -117t129 -43z" glyph-name="glyph581" horiz-adv-x="1136"/><glyph d="M338 -12q-164 0 -255 90t-68.5 241.5t155.5 247t356 111.5l260 20l7 31q29 225 -207 225q-104 0 -181 -54t-102 -155h-201q37 168 168 281t348 113q207 0 310.5 -106.5t75.5 -307.5q-35 -274 -54 -399q-23 -152 66 -148l-25 -178q-47 0 -71 2q-170 18 -191 141 q-57 -68 -164.5 -111.5t-226.5 -43.5zM410 168q106 0 200.5 57.5t128.5 136.5l25 173l-225 -21q-279 -23 -299 -186q-10 -74 41 -117t129 -43zM578 -532q-109 6 -167.5 63t-43.5 160q27 188 284 309h180q-123 -33 -212 -115t-103 -176q-8 -57 21.5 -93t91.5 -36 q117 0 205 98l57 -98q-141 -122 -313 -112z" glyph-name="glyph582" horiz-adv-x="1136"/><glyph d="M579.5 1141q-90.5 0 -145.5 64.5t-43 154.5t86 153.5t166 63.5q88 0 142.5 -63.5t42 -153.5t-85 -154.5t-163 -64.5zM629 1485q-51 0 -91 -37t-49 -88q-8 -53 23 -88t82 -35t91 35t48 88q8 51 -22.5 88t-81.5 37zM338 -12q-164 0 -255 90t-68.5 241.5t155.5 247 t356 111.5l260 20l7 31q29 225 -207 225q-104 0 -181 -54t-102 -155h-201q37 168 168 281t348 113q207 0 310.5 -106.5t75.5 -307.5q-35 -274 -54 -399q-23 -152 66 -148l-25 -178q-47 0 -71 2q-170 18 -191 141q-57 -68 -164.5 -111.5t-226.5 -43.5zM410 168 q106 0 200.5 57.5t128.5 136.5l25 173l-225 -21q-279 -23 -299 -186q-10 -74 41 -117t129 -43z" glyph-name="glyph583" horiz-adv-x="1136"/><glyph d="M252 1206q-2 121 65.5 200t167.5 79q125 0 183 -113q25 -53 73 -53q43 0 69 41t21 106h132q2 -119 -65 -197.5t-171 -78.5q-119 0 -180 113q-25 53 -74 53q-43 0 -68.5 -42t-21.5 -108h-131zM338 -12q-164 0 -255 90t-68.5 241.5t155.5 247t356 111.5l260 20l7 31 q29 225 -207 225q-104 0 -181 -54t-102 -155h-201q37 168 168 281t348 113q207 0 310.5 -106.5t75.5 -307.5q-35 -274 -54 -399q-23 -152 66 -148l-25 -178q-47 0 -71 2q-170 18 -191 141q-57 -68 -164.5 -111.5t-226.5 -43.5zM410 168q106 0 200.5 57.5t128.5 136.5l25 173 l-225 -21q-279 -23 -299 -186q-10 -74 41 -117t129 -43z" glyph-name="glyph584" horiz-adv-x="1136"/><glyph d="M1876 565q-4 -41 -14 -76h-828q-8 -156 71 -240.5t214 -84.5q94 0 187 46t136 132h189q-49 -160 -198.5 -261t-356.5 -101q-227 0 -352 157l-21 -137h-158l-16 147q-51 -68 -161.5 -113.5t-229.5 -45.5q-164 0 -255 90t-69 241q20 143 152.5 238.5t359.5 120.5l262 29 l5 22q29 229 -207 229q-106 0 -182 -55t-101 -155h-199q39 168 167 279.5t347 111.5q291 0 367 -203q176 207 457 207q238 -2 354.5 -160t79.5 -418zM1063 657h604q4 137 -60.5 215t-193.5 78t-220 -79t-130 -214zM739 362l27 189l-227 -31q-276 -37 -301 -196 q-10 -76 40 -118t132 -42q104 0 199 58t130 140z" glyph-name="glyph585" horiz-adv-x="1955"/><glyph d="M735 1044q209 0 320.5 -152.5t81.5 -379.5q-33 -227 -187.5 -379.5t-363.5 -152.5t-314 167l-28 -149l-193 2l215 1536h215l-90 -645q143 153 344 153zM573 172q133 0 230.5 97.5t120.5 242.5q18 145 -51.5 243.5t-202.5 98.5q-102 0 -189.5 -66.5t-130.5 -173.5 l-28 -202q12 -106 80.5 -173t170.5 -67z" glyph-name="glyph586" horiz-adv-x="1230"/><glyph d="M762 1137q227 0 349 -164t87 -412q-35 -246 -203 -409.5t-395 -163.5q-233 0 -342 176l-41 -164l-201 2l215 1536h234l-80 -563q156 162 377 162zM588 190q145 0 250.5 106.5t128.5 264.5q23 160 -53 266.5t-222 106.5q-113 0 -208 -73t-142 -189l-29 -219 q10 -117 85 -190t190 -73zM518 -127q55 0 89 -40t26 -95t-53 -94t-99 -39q-55 0 -90 39t-26 94q10 55 54 95t99 40z" glyph-name="glyph587" horiz-adv-x="1230"/><glyph d="M442 -20q-221 0 -333.5 150.5t-77.5 381.5q31 233 185.5 382.5t375.5 149.5q219 0 324.5 -115.5t101.5 -266.5h-193q-2 84 -68.5 142t-170.5 58q-139 0 -230.5 -95t-114 -255t42 -254t203.5 -94q102 0 184.5 59.5t112.5 145.5h191q-23 -72 -63 -136.5t-103.5 -124 t-157.5 -94t-209 -34.5z" glyph-name="glyph588" horiz-adv-x="1079"/><glyph d="M774 1536h219l-274 -324h-170zM489 -12q-240 0 -363.5 162.5t-88.5 416.5q35 250 205 410t409 160q238 0 352.5 -123t110.5 -289h-211q-2 92 -75.5 155.5t-186.5 63.5q-150 0 -250 -102.5t-124.5 -274.5t48 -276.5t222.5 -104.5q109 0 197.5 65.5t123.5 158.5h207 q-51 -172 -194.5 -297t-381.5 -125z" glyph-name="glyph589" horiz-adv-x="1165"/><glyph d="M371 1536h164l127 -246l194 246h164l-260 -350h-228zM489 -12q-240 0 -363.5 162.5t-88.5 416.5q35 250 205 410t409 160q238 0 352.5 -123t110.5 -289h-211q-2 92 -75.5 155.5t-186.5 63.5q-150 0 -250 -102.5t-124.5 -274.5t48 -276.5t222.5 -104.5q109 0 197.5 65.5 t123.5 158.5h207q-51 -172 -194.5 -297t-381.5 -125z" glyph-name="glyph590" horiz-adv-x="1165"/><glyph d="M641 944q-150 0 -250 -102.5t-124.5 -274.5t48 -276.5t222.5 -104.5q109 0 197.5 65.5t123.5 158.5h207q-51 -172 -194.5 -297t-381.5 -125h-6l-65 -101q109 20 174 -35t51 -151q-12 -90 -83 -151.5t-161 -61.5q-72 0 -134 39t-83 96l103 39q16 -29 54 -50.5t75 -21.5 q45 0 80.5 32t42.5 79q10 68 -42.5 92.5t-140.5 -8.5l-75 53l102 160q-188 37 -281.5 192.5t-62.5 376.5q35 250 205 410t409 160q238 0 352.5 -123t110.5 -289h-211q-2 92 -75.5 155.5t-186.5 63.5z" glyph-name="glyph591" horiz-adv-x="1165"/><glyph d="M659 1200q-55 0 -89.5 39t-26.5 94.5t53 95t100.5 39.5t89 -39.5t25.5 -95t-53.5 -94.5t-98.5 -39zM489 -12q-240 0 -363.5 162.5t-88.5 416.5q35 250 205 410t409 160q238 0 352.5 -123t110.5 -289h-211q-2 92 -75.5 155.5t-186.5 63.5q-150 0 -250 -102.5 t-124.5 -274.5t48 -276.5t222.5 -104.5q109 0 197.5 65.5t123.5 158.5h207q-51 -172 -194.5 -297t-381.5 -125z" glyph-name="glyph592" horiz-adv-x="1165"/><glyph d="M1210 1536l-215 -1536l-194 -2l8 147q-150 -166 -356 -165q-209 0 -319.5 152.5t-78.5 379.5q31 227 184.5 379.5t362.5 152.5q199 0 305 -153l90 645h213zM518 172q102 0 189.5 65.5t130.5 172.5l28 204q-12 106 -80.5 173t-171.5 67q-135 0 -231 -98.5t-115 -243.5 q-23 -143 47 -241.5t203 -98.5z" glyph-name="glyph593" horiz-adv-x="1230"/><glyph d="M909 1405q158 -141 228.5 -376.5t31.5 -516.5q-33 -221 -217 -376.5t-415 -155.5q-233 0 -373.5 155.5t-108.5 376.5q31 223 214.5 377.5t416.5 154.5q145 0 254 -75q-41 186 -162 293l-123 -132l-61 58l115 121q-119 74 -283 80l68 172q197 0 348 -105l106 115l66 -55z M563 172q141 0 255 99.5t134 240.5q20 143 -65.5 242.5t-227.5 99.5q-143 0 -256.5 -99.5t-132.5 -242.5q-20 -141 65 -240.5t228 -99.5z" glyph-name="glyph594" horiz-adv-x="1257"/><glyph d="M1473 1280q-39 14 -58.5 49t-13.5 78q8 55 52 94t99 39q53 0 86 -39t25 -94t-65.5 -139t-108.5 -138h-107zM1282 1536l-215 -1534l-203 -2v156q-152 -166 -385 -166q-229 0 -350 160.5t-86 406.5t203 413t397 167q215 0 328 -168l80 567h231zM547 184q113 0 207 72 t143 188l31 224q-14 117 -88 189.5t-187 72.5q-145 0 -250.5 -107.5t-128 -265.5t52.5 -265.5t220 -107.5z" glyph-name="glyph595" horiz-adv-x="1581"/><glyph d="M1305 1200h-144l-166 -1200l-194 -2l8 147q-150 -166 -356 -165q-209 0 -319.5 152.5t-78.5 379.5q31 227 184.5 379.5t362.5 152.5q199 0 305 -153l41 309h-280l20 133h281l28 203h213l-28 -203h141zM518 172q102 0 189.5 65.5t130.5 172.5l28 204q-12 106 -80.5 173 t-171.5 67q-135 0 -231 -98.5t-115 -243.5q-23 -143 47 -241.5t203 -98.5z" glyph-name="glyph596" horiz-adv-x="1230"/><glyph d="M1010 518q-10 -53 -15 -72h-757q-8 -141 63.5 -220t196.5 -79q86 0 171 42t126 122h174q-47 -145 -184.5 -238t-325.5 -93q-223 0 -341 151.5t-85 380.5q33 231 190.5 383t384.5 152q217 0 326 -145.5t76 -383.5zM584 870q-119 0 -202 -72.5t-118 -197.5h555 q2 127 -58 198.5t-177 71.5z" glyph-name="glyph597" horiz-adv-x="1083"/><glyph d="M1020 1544l-275 -325h-170l226 325h219zM653 1135q236 0 351.5 -155t80.5 -413q-12 -63 -14 -75h-815q-12 -147 64.5 -232.5t195.5 -87.5q106 0 189 46t126 128h195q-43 -141 -180 -249.5t-352 -106.5q-240 0 -365 162.5t-88 410.5q35 252 199.5 412t412.5 160zM879 659 q4 135 -60.5 213t-191.5 78q-129 0 -217 -78.5t-127 -212.5h596z" glyph-name="glyph598" horiz-adv-x="1165"/><glyph d="M539 1194l-162 350h164l127 -248l194 248h164l-260 -350h-227zM1085 567q-12 -63 -14 -75h-815q-12 -147 64.5 -232.5t195.5 -87.5q106 0 189 46t126 128h195q-43 -141 -180 -249.5t-352 -106.5q-240 0 -365 162.5t-88 410.5q35 252 200 412t412 160q236 0 351.5 -155 t80.5 -413zM627 950q-129 0 -217 -78.5t-127 -212.5h596q4 135 -60.5 213t-191.5 78z" glyph-name="glyph599" horiz-adv-x="1165"/><glyph d="M653 1135q236 0 351.5 -155t80.5 -413q-12 -63 -14 -75h-815q-12 -147 64.5 -232.5t195.5 -87.5q106 0 189 46t126 128h195q-41 -133 -167 -238.5t-322 -117.5l-5 -8l-73 -117q109 20 174 -34t51 -150q-12 -90 -83 -153t-161 -63q-72 0 -134 40t-85 98l105 39 q16 -31 53 -51.5t76 -20.5q45 0 80.5 31.5t42.5 79.5q10 66 -43.5 90t-139.5 -9l-76 54l107 166l-6 12q-205 27 -308.5 184.5t-70.5 384.5q35 252 199.5 412t412.5 160zM879 659q4 135 -60.5 213t-191.5 78q-129 0 -217 -78.5t-127 -212.5h596z" glyph-name="glyph600" horiz-adv-x="1165"/><glyph d="M498 1194h-170l260 350h227l162 -350h-170l-119 250zM1085 567q-12 -63 -14 -75h-815q-12 -147 64.5 -232.5t195.5 -87.5q106 0 189 46t126 128h195q-43 -141 -180 -249.5t-352 -106.5q-240 0 -365 162.5t-88 410.5q35 252 200 412t412 160q236 0 351.5 -155t80.5 -413z M627 950q-129 0 -217 -78.5t-127 -212.5h596q4 135 -60.5 213t-191.5 78z" glyph-name="glyph601" horiz-adv-x="1165"/><glyph d="M452.5 1206q-55.5 0 -89 40t-25.5 95.5t53 94.5t101 39q53 0 87.5 -39t26.5 -94.5t-53 -95.5t-100.5 -40zM856 1206q-55 0 -90 40t-26.5 95.5t54.5 94.5t99 39q55 0 89 -39t25.5 -94.5t-53.5 -95.5t-98 -40zM1085 567q-12 -63 -14 -75h-815q-12 -147 64.5 -232.5 t195.5 -87.5q106 0 189 46t126 128h195q-43 -141 -180 -249.5t-352 -106.5q-240 0 -365 162.5t-88 410.5q35 252 200 412t412 160q236 0 351.5 -155t80.5 -413zM627 950q-129 0 -217 -78.5t-127 -212.5h596q4 135 -60.5 213t-191.5 78z" glyph-name="glyph602" horiz-adv-x="1165"/><glyph d="M655.5 1206q-55.5 0 -89.5 40t-25.5 95.5t53.5 94.5t100 39q53 0 88 -39t27 -94.5t-53 -95.5t-100.5 -40zM1085 567q-12 -63 -14 -75h-815q-12 -147 64.5 -232.5t195.5 -87.5q106 0 189 46t126 128h195q-43 -141 -180 -249.5t-352 -106.5q-240 0 -365 162.5t-88 410.5 q35 252 200 412t412 160q236 0 351.5 -155t80.5 -413zM627 950q-129 0 -217 -78.5t-127 -212.5h596q4 135 -60.5 213t-191.5 78z" glyph-name="glyph603" horiz-adv-x="1165"/><glyph d="M1085 567q-12 -63 -14 -75h-815q-12 -147 64.5 -232.5t195.5 -87.5q106 0 189 46t126 128h195q-43 -141 -180 -249.5t-352 -106.5q-240 0 -365 162.5t-88 410.5q35 252 200 412t412 160q236 0 351.5 -155t80.5 -413zM627 950q-129 0 -217 -78.5t-127 -212.5h596 q4 135 -60.5 213t-191.5 78zM475 -127q53 0 88 -40t27 -95t-53 -94t-100.5 -39t-89.5 39t-25.5 94t53.5 95t100 40z" glyph-name="glyph604" horiz-adv-x="1165"/><glyph d="M563 1219l-186 325h221l133 -325h-168zM1085 567q-12 -63 -14 -75h-815q-12 -147 64.5 -232.5t195.5 -87.5q106 0 189 46t126 128h195q-43 -141 -180 -249.5t-352 -106.5q-240 0 -365 162.5t-88 410.5q35 252 200 412t412 160q236 0 351.5 -155t80.5 -413zM627 950 q-129 0 -217 -78.5t-127 -212.5h596q4 135 -60.5 213t-191.5 78z" glyph-name="glyph605" horiz-adv-x="1165"/><glyph d="M977 1227h-635l18 141h635zM1085 567q-12 -63 -14 -75h-815q-12 -147 64.5 -232.5t195.5 -87.5q106 0 189 46t126 128h195q-43 -141 -180 -249.5t-352 -106.5q-240 0 -365 162.5t-88 410.5q35 252 200 412t412 160q236 0 351.5 -155t80.5 -413zM627 950 q-129 0 -217 -78.5t-127 -212.5h596q4 135 -60.5 213t-191.5 78z" glyph-name="glyph606" horiz-adv-x="1165"/><glyph d="M653 1135q236 0 351.5 -155t80.5 -413q-12 -63 -14 -75h-815q-12 -147 64.5 -232.5t195.5 -87.5q106 0 189 46t126 128h195q-37 -121 -143.5 -220t-272.5 -128q-2 0 -6 -4q-68 -74 -80 -156q-8 -57 21.5 -92t91.5 -35q121 0 205 99l55 -101q-135 -121 -311 -110 q-109 4 -167.5 62t-43.5 159q12 88 78 164q0 4 2 8q-223 14 -336 175t-78 396q35 252 199.5 412t412.5 160zM879 659q4 135 -60.5 213t-191.5 78q-129 0 -217 -78.5t-127 -212.5h596z" glyph-name="glyph607" horiz-adv-x="1165"/><glyph d="M317 1212q-2 119 67 199t169 80q121 0 180 -115q25 -53 74 -53q45 0 69.5 41t20.5 106h131q4 -119 -63.5 -197.5t-171.5 -78.5q-119 0 -181 115q-25 53 -71 53q-45 0 -71 -43t-19 -107h-134zM1085 567q-12 -63 -14 -75h-815q-12 -147 64.5 -232.5t195.5 -87.5 q106 0 189 46t126 128h195q-43 -141 -180 -249.5t-352 -106.5q-240 0 -365 162.5t-88 410.5q35 252 200 412t412 160q236 0 351.5 -155t80.5 -413zM627 950q-129 0 -217 -78.5t-127 -212.5h596q4 135 -60.5 213t-191.5 78z" glyph-name="glyph608" horiz-adv-x="1165"/><glyph d="M150 0l120 860h-172l23 164h172l26 188q20 145 132 244.5t251 99.5q119 0 189 -51l-21 -145q-76 43 -172 24q-143 -25 -166 -184l-24 -176h264l-22 -164h-265l-120 -860h-215z" glyph-name="glyph609" horiz-adv-x="768"/><glyph d="M1139 1024l-142 -1004q-35 -250 -189.5 -391t-395.5 -141q-125 0 -216.5 37t-137.5 93t-64.5 114.5t-13.5 113.5h176q0 -78 84 -139t209 -55q133 6 223 101t114 278l15 106q-152 -158 -348 -157q-209 0 -319.5 152.5t-78.5 379.5q31 227 184.5 379.5t362.5 152.5 t311 -167l33 147h193zM518 172q100 0 189.5 67.5t130.5 172.5l28 202q-12 104 -81.5 172t-170.5 68q-135 0 -231 -98.5t-115 -243.5q-23 -143 47 -241.5t203 -98.5z" glyph-name="glyph610" horiz-adv-x="1230"/><glyph d="M680 1153q-156 0 -240 88t-61 242h129q-12 -82 42 -141.5t148 -59.5q96 0 167 59.5t83 141.5h127q-20 -154 -128.5 -242t-266.5 -88zM399 -502q-219 -4 -345 82t-120 225q2 80 49.5 160t131.5 121q-43 25 -74 71t-23 103q16 117 175 199q-102 111 -78 291 q23 162 165 275.5t334 113.5q70 0 145 -20.5t118 -53.5q35 70 118.5 109.5t151.5 27.5l-23 -158q-45 8 -90 -10t-67 -61q72 -117 55 -234q-25 -180 -168 -292.5t-344 -116.5q-147 -2 -217 45q-37 -14 -57.5 -41t-14.5 -53q12 -78 160 -78l223 -4q174 -2 272.5 -70t96.5 -203 q-4 -190 -161 -308t-413 -120zM803 741q12 92 -48.5 150.5t-166.5 58.5q-102 0 -177 -58t-89 -153q-14 -92 45 -152.5t161 -60.5q109 0 185 60.5t90 154.5zM756 -104q6 127 -269 127h-200q-55 -14 -93 -60.5t-47 -101.5q-12 -84 63 -131t198 -47q158 0 253 59.5t95 153.5z " glyph-name="glyph611" horiz-adv-x="1138"/><glyph d="M551 1186l-162 350h164l127 -246l194 246h164l-260 -350h-227zM399 -502q-219 -4 -345 82t-120 225q2 80 49.5 160t131.5 121q-43 25 -74 71t-23 103q16 117 175 199q-102 111 -78 291q23 162 165 275.5t334 113.5q70 0 145 -20.5t118 -53.5q35 70 118.5 109.5 t151.5 27.5l-23 -158q-45 8 -90 -10t-67 -61q72 -117 55 -234q-25 -180 -168 -292.5t-344 -116.5q-147 -2 -217 45q-37 -14 -57.5 -41t-14.5 -53q12 -78 160 -78l223 -4q174 -2 272.5 -70t96.5 -203q-4 -190 -161 -308t-413 -120zM803 741q12 92 -48.5 150.5t-166.5 58.5 q-102 0 -177 -58t-89 -153q-14 -92 45 -152.5t161 -60.5q109 0 185 60.5t90 154.5zM756 -104q6 127 -269 127h-200q-55 -14 -93 -60.5t-47 -101.5q-12 -84 63 -131t198 -47q158 0 253 59.5t95 153.5z" glyph-name="glyph612" horiz-adv-x="1138"/><glyph d="M750 1427q39 -14 58 -49t13 -78q-8 -55 -52 -94t-99 -39q-53 0 -86 39t-25 94.5t64.5 137.5t109.5 139h107zM399 -502q-219 -4 -345 82t-120 225q2 80 49.5 160t131.5 121q-43 25 -74 71t-23 103q16 117 175 199q-102 111 -78 291q23 162 165 275.5t334 113.5 q70 0 145 -20.5t118 -53.5q35 70 118.5 109.5t151.5 27.5l-23 -158q-45 8 -90 -10t-67 -61q72 -117 55 -234q-25 -180 -168 -292.5t-344 -116.5q-147 -2 -217 45q-37 -14 -57.5 -41t-14.5 -53q12 -78 160 -78l223 -4q174 -2 272.5 -70t96.5 -203q-4 -190 -161 -308 t-413 -120zM803 741q12 92 -48.5 150.5t-166.5 58.5q-102 0 -177 -58t-89 -153q-14 -92 45 -152.5t161 -60.5q109 0 185 60.5t90 154.5zM756 -104q6 127 -269 127h-200q-55 -14 -93 -60.5t-47 -101.5q-12 -84 63 -131t198 -47q158 0 253 59.5t95 153.5z" glyph-name="glyph613" horiz-adv-x="1138"/><glyph d="M668 1200q-55 0 -90 39t-27 94.5t53 95t100.5 39.5t89 -39.5t25.5 -95t-53 -94.5t-98 -39zM399 -502q-219 -4 -345 82t-120 225q2 80 49.5 160t131.5 121q-43 25 -74 71t-23 103q16 117 175 199q-102 111 -78 291q23 162 165 275.5t334 113.5q70 0 145 -20.5t118 -53.5 q35 70 118.5 109.5t151.5 27.5l-23 -158q-45 8 -90 -10t-67 -61q72 -117 55 -234q-25 -180 -168 -292.5t-344 -116.5q-147 -2 -217 45q-37 -14 -57.5 -41t-14.5 -53q12 -78 160 -78l223 -4q174 -2 272.5 -70t96.5 -203q-4 -190 -161 -308t-413 -120zM803 741 q12 92 -48.5 150.5t-166.5 58.5q-102 0 -177 -58t-89 -153q-14 -92 45 -152.5t161 -60.5q109 0 185 60.5t90 154.5zM756 -104q6 127 -269 127h-200q-55 -14 -93 -60.5t-47 -101.5q-12 -84 63 -131t198 -47q158 0 253 59.5t95 153.5z" glyph-name="glyph614" horiz-adv-x="1138"/><glyph d="M752 1044q174 0 262 -100t63 -276l-92 -668h-217l90 643q14 100 -38 155.5t-156 55.5q-111 0 -202 -61.5t-106 -159.5l-88 -633h-217l215 1536h217l-88 -639q63 68 160 107.5t197 39.5z" glyph-name="glyph615" horiz-adv-x="1216"/><glyph d="M797 1137q190 0 285.5 -109.5t68.5 -300.5l-100 -727h-238l98 700q14 109 -41 169.5t-170 60.5q-121 0 -221 -67.5t-114 -174.5l-95 -688h-237l170 1208h-97l19 135h96l27 193h237l-26 -193h303l-21 -135h-303l-32 -231q72 74 177 117t214 43z" glyph-name="glyph616" horiz-adv-x="1216"/><glyph d="M797 1137q190 0 285.5 -109.5t68.5 -300.5l-100 -727h-238l98 700q14 109 -41 169.5t-170 60.5q-121 0 -221 -67.5t-114 -174.5l-95 -688h-237l215 1536h237l-79 -559q72 74 177 117t214 43zM489 -127q53 0 88 -40t27 -95t-53 -94t-100.5 -39t-89 39t-25.5 94t53 95 t100 40z" glyph-name="glyph617" horiz-adv-x="1216"/><glyph d="M346 1210q-53 0 -88 39t-26.5 94.5t54.5 95.5t99 40q55 0 89 -40t26 -95.5t-53.5 -94.5t-100.5 -39zM213 1024h217l-143 -1024h-217z" glyph-name="glyph618" horiz-adv-x="532"/><glyph d="M195 1024h217l-144 -1024h-217z" glyph-name="glyph619" horiz-adv-x="503"/><glyph d="M475 1536h219l-274 -324h-170zM195 1024h217l-144 -1024h-217z" glyph-name="glyph620" horiz-adv-x="503"/><glyph d="M49 1536h166l125 -246l197 246h163l-262 -350h-227zM195 1024h217l-144 -1024h-217z" glyph-name="glyph621" horiz-adv-x="503"/><glyph d="M260 1536h227l164 -350h-172l-119 252l-188 -252h-174zM195 1024h217l-144 -1024h-217z" glyph-name="glyph622" horiz-adv-x="503"/><glyph d="M127 1200q-55 0 -90 39t-27 94.5t54.5 95t101.5 39.5q53 0 88 -39.5t26.5 -95t-53.5 -94.5t-100 -39zM530 1200q-55 0 -89.5 39t-26.5 94.5t54 95t99 39.5q55 0 89 -39.5t26 -95t-53.5 -94.5t-98.5 -39zM195 1024h217l-144 -1024h-217z" glyph-name="glyph623" horiz-adv-x="503"/><glyph d="M346 1210q-53 0 -88 39t-26.5 94.5t54.5 95.5t99 40q55 0 89 -40t26 -95.5t-53.5 -94.5t-100.5 -39zM213 1024h217l-143 -1024h-217z" glyph-name="glyph624" horiz-adv-x="624"/><glyph d="M358 1210q-53 0 -87.5 39t-26.5 94.5t54 95.5t99 40q55 0 89 -40t26 -95.5t-53.5 -94.5t-100.5 -39zM225 1024h217l-143 -1024h-217zM141 -426q-55 0 -90 40t-26 95q8 53 53 93t100 40q53 0 88 -40t27 -93q-8 -55 -53.5 -95t-98.5 -40z" glyph-name="glyph625" horiz-adv-x="565"/><glyph d="M49 1536h221l136 -324h-170zM195 1024h217l-144 -1024h-217z" glyph-name="glyph626" horiz-adv-x="503"/><glyph d="M389 1270q-55 0 -91 41t-27.5 98t55.5 98t102 41q57 0 91 -41t26 -98t-53.5 -98t-102.5 -41zM1007.5 1270q-53.5 0 -88 40t-28.5 95q10 53 55 93t98.5 40t88 -40t26.5 -93q-8 -55 -53 -95t-98.5 -40zM438 -510l27 195h47q88 0 130 38.5t54 122.5l181 1280h217l-183 -1300 q-45 -336 -426 -336h-47zM250 1075h221l-149 -1075h-222z" glyph-name="glyph627" horiz-adv-x="1234"/><glyph d="M31 1362h637l-19 -141h-637zM195 1024h217l-144 -1024h-217z" glyph-name="glyph628" horiz-adv-x="503"/><glyph d="M327.5 1200q-55.5 0 -89 39t-25.5 94.5t53 95t101 39.5q53 0 87.5 -39.5t26.5 -95t-53 -94.5t-100.5 -39zM301 -420q-135 -119 -313 -112q-109 6 -168.5 63t-44.5 160q27 186 282 309h-6l144 1024h217l-144 -1024h-18q-119 -18 -214 -106.5t-110 -184.5q-8 -57 21.5 -93 t93.5 -36q113 0 205 98z" glyph-name="glyph629" horiz-adv-x="503"/><glyph d="M467 1190q-119 0 -180 113q-25 53 -74 53q-43 0 -68.5 -42t-21.5 -108h-135q-2 121 67.5 200t169.5 79q121 0 183 -113q25 -53 73 -53q43 0 68.5 41t21.5 106h131q2 -119 -64.5 -197.5t-170.5 -78.5zM195 1024h217l-144 -1024h-217z" glyph-name="glyph630" horiz-adv-x="503"/><glyph d="M350 1210q-55 0 -90 39t-26.5 94.5t53.5 95.5t100 40t89 -40t26 -95.5t-53.5 -94.5t-98.5 -39zM-174 -522l27 186q86 0 135 41t65 160l162 1159h217l-164 -1169q-16 -117 -62 -198t-110.5 -120t-131 -53t-138.5 -6z" glyph-name="glyph631" horiz-adv-x="520"/><glyph d="M-86 -532q-92 0 -135 32l26 185q43 -39 109 -39q61 0 110.5 45t57.5 112l172 1221h217l-174 -1235q-20 -135 -131 -228t-252 -93z" glyph-name="glyph632" horiz-adv-x="595"/><glyph d="M51 2l215 1536h217l-129 -924l396 410h239l-467 -471l408 -553h-240l-354 492l-68 -490h-217z" glyph-name="glyph633" horiz-adv-x="1052"/><glyph d="M23 0l215 1536h237l-121 -864l441 454h256l-527 -524l428 -602h-260l-362 510l-70 -510h-237zM379 -358q-39 14 -58.5 49t-13.5 78q8 53 52 93t99.5 40t87.5 -39t23.5 -94.5t-66 -139.5t-108.5 -137h-106z" glyph-name="glyph634" horiz-adv-x="1071"/><glyph d="M78 0l217 1536h215l-215 -1536h-217z" glyph-name="glyph635" horiz-adv-x="571"/><glyph d="M537 2048h219l-275 -324h-170zM72 0l217 1536h217l-215 -1536h-219z" glyph-name="glyph636" horiz-adv-x="686"/><glyph d="M741 1288q-39 14 -58 49t-13 78q8 55 52 94t99 39q53 0 86 -39t25 -94t-64.5 -137t-109.5 -139h-107zM72 0l217 1536h217l-215 -1536h-219z" glyph-name="glyph637" horiz-adv-x="888"/><glyph d="M72 0l217 1536h217l-215 -1536h-219zM92 -373q-39 14 -58.5 49t-13.5 78q8 53 52.5 93t99.5 40t87 -38.5t23.5 -94t-64.5 -138.5t-107 -138h-107z" glyph-name="glyph638" horiz-adv-x="686"/><glyph d="M72 0l217 1536h217l-215 -1536h-219zM610 635q-43 0 -69.5 29.5t-20.5 72.5t42 74t77 31t68.5 -31t21.5 -74t-41 -72.5t-78 -29.5z" glyph-name="glyph639" horiz-adv-x="778"/><glyph d="M72 0l217 1536h217l-215 -1536h-219zM133 -395q-55 0 -90 39t-27 94q10 55 54.5 95t99.5 40t89 -40t25.5 -95t-53.5 -94t-98 -39z" glyph-name="glyph640" horiz-adv-x="686"/><glyph d="M682 1055l-272 -250l-7 -6l-112 -799h-219l80 571l-113 -104h-143l278 256l115 813h217l-82 -584l6 6l102 97h150z" glyph-name="glyph641" horiz-adv-x="686"/><glyph d="M1403 1042q170 0 252 -97t57 -267l-94 -678h-217l92 653q12 96 -33 148.5t-141 52.5q-104 0 -188 -60.5t-99 -154.5l-88 -639h-217l90 653q14 94 -31 147.5t-141 53.5q-104 0 -188 -60.5t-99 -154.5l-90 -639h-217l144 1024h196l-8 -129q63 68 157.5 107.5t188.5 39.5 q203 0 281 -186q70 84 177 135t216 51z" glyph-name="glyph642" horiz-adv-x="1849"/><glyph d="M717 1044q176 0 264 -100t61 -276l-92 -668h-217l90 643q14 100 -37 155.5t-155 55.5q-113 0 -203 -61.5t-104 -159.5l-88 -633h-218l144 1024h196l-8 -135q68 72 167.5 113.5t199.5 41.5z" glyph-name="glyph643" horiz-adv-x="1140"/><glyph d="M778 1212h-170l223 324h222zM780 1141q188 0 282.5 -109.5t67.5 -302.5l-100 -729h-235l98 702q14 109 -40 170.5t-167 61.5q-121 0 -219 -68.5t-113 -175.5l-96 -690h-235l157 1126h207l-4 -157q72 80 180 126t217 46z" glyph-name="glyph644" horiz-adv-x="1224"/><glyph d="M571 1186l-161 350h163l127 -246l195 246h164l-260 -350h-228zM780 1141q188 0 282.5 -109.5t67.5 -302.5l-100 -729h-235l98 702q14 109 -40 170.5t-167 61.5q-121 0 -219 -68.5t-113 -175.5l-96 -690h-235l157 1126h207l-4 -157q72 80 180 126t217 46z" glyph-name="glyph645" horiz-adv-x="1224"/><glyph d="M780 1141q188 0 282.5 -109.5t67.5 -302.5l-100 -729h-235l98 702q14 109 -40 170.5t-167 61.5q-121 0 -219 -68.5t-113 -175.5l-96 -690h-235l157 1126h207l-4 -157q72 80 180 126t217 46zM412 -381q-39 14 -57.5 49t-14.5 78q10 55 54 94t100 39q53 0 84.5 -39 t23.5 -94q-6 -55 -62.5 -137t-109.5 -139h-106z" glyph-name="glyph646" horiz-adv-x="1224"/><glyph d="M688 1200q-55 0 -90 39t-26.5 94.5t53.5 95t100 39.5t89 -39.5t25.5 -95t-53.5 -94.5t-98 -39zM780 1141q188 0 282.5 -109.5t67.5 -302.5l-100 -729h-235l98 702q14 109 -40 170.5t-167 61.5q-121 0 -219 -68.5t-113 -175.5l-96 -690h-235l157 1126h207l-4 -157 q72 80 180 126t217 46z" glyph-name="glyph647" horiz-adv-x="1224"/><glyph d="M780 1141q188 0 282.5 -109.5t67.5 -302.5l-100 -729h-235l98 702q14 109 -40 170.5t-167 61.5q-121 0 -219 -68.5t-113 -175.5l-96 -690h-235l157 1126h207l-4 -157q72 80 180 126t217 46zM502 -127q53 0 88 -40t26.5 -95t-53.5 -94t-100 -39t-89 39t-26 94t53.5 95 t100.5 40z" glyph-name="glyph648" horiz-adv-x="1224"/><glyph d="M780 1141q188 0 282.5 -109.5t67.5 -302.5l-100 -729h-12l-23 -152q-23 -152 -134 -224.5t-275 -69.5l20 145q70 -2 115 29.5t57 119.5l21 152h-4l98 702q14 109 -40 170.5t-167 61.5q-121 0 -219 -68.5t-113 -175.5l-96 -690h-235l157 1126h207l-4 -157q72 80 180 126 t217 46z" glyph-name="glyph649" horiz-adv-x="1224"/><glyph d="M350 1206q-2 121 65.5 200t168.5 79q121 0 182 -113q25 -53 74 -53q43 0 68.5 41t21.5 106h131q2 -119 -64.5 -197.5t-171.5 -78.5q-119 0 -180 113q-25 53 -74 53q-43 0 -68.5 -42t-21.5 -108h-131zM780 1141q188 0 282.5 -109.5t67.5 -302.5l-100 -729h-235l98 702 q14 109 -40 170.5t-167 61.5q-121 0 -219 -68.5t-113 -175.5l-96 -690h-235l157 1126h207l-4 -157q72 80 180 126t217 46z" glyph-name="glyph650" horiz-adv-x="1224"/><glyph d="M467 -20q-223 0 -347 154.5t-89 377.5q31 225 196.5 378.5t388.5 153.5q225 0 348 -153.5t93 -378.5q-33 -225 -200 -378.5t-390 -153.5zM493.5 172q133.5 0 230.5 97.5t120 242.5q18 145 -51.5 243.5t-202.5 98.5q-135 0 -231.5 -98.5t-114.5 -243.5 q-23 -143 46.5 -241.5t203 -98.5z" glyph-name="glyph651" horiz-adv-x="1124"/><glyph d="M809 1536h221l-274 -324h-170zM516 -14q-244 0 -379 168t-100 411q35 246 216 413t425 167t378 -167t99 -413t-215 -412.5t-424 -166.5zM544.5 195q145.5 0 251 106.5t128.5 263.5q23 160 -53 266.5t-221.5 106.5t-252 -106.5t-129.5 -266.5q-23 -158 54 -264t222.5 -106 z" glyph-name="glyph652" horiz-adv-x="1216"/><glyph d="M362 1536h164l127 -246l195 246h164l-260 -350h-228zM467 -20q-223 0 -347 154.5t-89 377.5q31 225 196.5 378.5t388.5 153.5q225 0 348 -153.5t93 -378.5q-33 -225 -200 -378.5t-390 -153.5zM493.5 172q133.5 0 230.5 97.5t120 242.5q18 145 -51.5 243.5t-202.5 98.5 q-135 0 -231.5 -98.5t-114.5 -243.5q-23 -143 46.5 -241.5t203 -98.5z" glyph-name="glyph653" horiz-adv-x="1124"/><glyph d="M625 1536h227l164 -350h-172l-119 252l-188 -252h-170zM516 -14q-244 0 -379 168t-100 411q35 246 216 413t425 167t378 -167t99 -413t-215 -412.5t-424 -166.5zM544.5 195q145.5 0 251 106.5t128.5 263.5q23 160 -53 266.5t-221.5 106.5t-252 -106.5t-129.5 -266.5 q-23 -158 54 -264t222.5 -106z" glyph-name="glyph654" horiz-adv-x="1216"/><glyph d="M496 1200q-55 0 -90 39t-27 94.5t53 95t100.5 39.5t89 -39.5t25.5 -95t-53 -94.5t-98 -39zM897 1200q-53 0 -88 39t-26.5 94.5t53.5 95t100 39.5q53 0 87 -39.5t25.5 -95t-52.5 -94.5t-99 -39zM516 -14q-244 0 -379 168t-100 411q35 246 216 413t425 167t378 -167 t99 -413t-215 -412.5t-424 -166.5zM544.5 195q145.5 0 251 106.5t128.5 263.5q23 160 -53 266.5t-221.5 106.5t-252 -106.5t-129.5 -266.5q-23 -158 54 -264t222.5 -106z" glyph-name="glyph655" horiz-adv-x="1216"/><glyph d="M467 -20q-223 0 -347 154.5t-89 377.5q31 225 196.5 378.5t388.5 153.5q225 0 348 -153.5t93 -378.5q-33 -225 -200 -378.5t-390 -153.5zM493.5 172q133.5 0 230.5 97.5t120 242.5q18 145 -51.5 243.5t-202.5 98.5q-135 0 -231.5 -98.5t-114.5 -243.5 q-23 -143 46.5 -241.5t203 -98.5zM415.5 -395q-55.5 0 -89 39t-25.5 94t53 95t101 40q53 0 88 -40t26.5 -95t-53.5 -94t-100.5 -39z" glyph-name="glyph656" horiz-adv-x="1124"/><glyph d="M387 1536h219l135 -324h-170zM516 -14q-244 0 -379 168t-100 411q35 246 216 413t425 167t378 -167t99 -413t-215 -412.5t-424 -166.5zM544.5 195q145.5 0 251 106.5t128.5 263.5q23 160 -53 266.5t-221.5 106.5t-252 -106.5t-129.5 -266.5q-23 -158 54 -264t222.5 -106z " glyph-name="glyph657" horiz-adv-x="1216"/><glyph d="M719 1536h207l-398 -358h-155zM1092 1536h206l-395 -358h-158zM467 -20q-223 0 -347 154.5t-89 377.5q31 225 196.5 378.5t388.5 153.5q225 0 348 -153.5t93 -378.5q-33 -225 -200 -378.5t-390 -153.5zM493.5 172q133.5 0 230.5 97.5t120 242.5q18 145 -51.5 243.5 t-202.5 98.5q-135 0 -231.5 -98.5t-114.5 -243.5q-23 -143 46.5 -241.5t203 -98.5z" glyph-name="glyph658" horiz-adv-x="1222"/><glyph d="M346 1362h635l-20 -141h-635zM467 -20q-223 0 -347 154.5t-89 377.5q31 225 196.5 378.5t388.5 153.5q225 0 348 -153.5t93 -378.5q-33 -225 -200 -378.5t-390 -153.5zM493.5 172q133.5 0 230.5 97.5t120 242.5q18 145 -51.5 243.5t-202.5 98.5q-135 0 -231.5 -98.5 t-114.5 -243.5q-23 -143 46.5 -241.5t203 -98.5z" glyph-name="glyph659" horiz-adv-x="1124"/><glyph d="M1006 1028q174 -174 133 -459q-37 -246 -216.5 -415.5t-418.5 -169.5q-152 0 -266 75l-99 -125h-110l141 179q-172 170 -131 456q35 248 213 417t418 169q154 0 268 -74l100 123h109zM266 569q-25 -160 53 -268l476 596q-61 49 -154 49q-145 0 -248.5 -107.5 t-126.5 -269.5zM535 195q143 0 246.5 107.5t127.5 266.5q23 162 -53 269l-475 -598q64 -45 154 -45z" glyph-name="glyph660" horiz-adv-x="1198"/><glyph d="M731 1212h-170l223 324h222zM932 928q160 -156 125 -416q-33 -225 -200 -378.5t-390 -153.5q-141 0 -250 67l-92 -113h-102l131 162q-160 158 -123 416q31 225 196.5 378.5t388.5 153.5q143 0 252 -67l93 113h102zM244 512q-23 -147 49 -244l442 543q-59 43 -145 43 q-135 0 -231.5 -98.5t-114.5 -243.5zM494 172q133 0 230 97.5t120 242.5q18 147 -51 244l-441 -543q58 -41 142 -41z" glyph-name="glyph661" horiz-adv-x="1124"/><glyph d="M803 1190q-119 0 -180 113q-25 53 -74 53q-43 0 -68.5 -42t-21.5 -108h-131q-2 121 65.5 200t167.5 79q121 0 182 -113q25 -53 74 -53q43 0 68.5 41t21.5 106h131q2 -119 -64.5 -197.5t-170.5 -78.5zM516 -14q-244 0 -379 168t-100 411q35 246 216 413t425 167t378 -167 t99 -413t-215 -412.5t-424 -166.5zM544.5 195q145.5 0 251 106.5t128.5 263.5q23 160 -53 266.5t-221.5 106.5t-252 -106.5t-129.5 -266.5q-23 -158 54 -264t222.5 -106z" glyph-name="glyph662" horiz-adv-x="1216"/><glyph d="M1501 1135q236 0 351.5 -155t80.5 -413q-12 -63 -14 -75h-815q-12 -147 64.5 -232.5t195.5 -87.5q106 0 189 46t126 128h195q-43 -141 -180.5 -249.5t-352.5 -106.5q-274 0 -395 211v-2q-188 -219 -469 -219q-244 0 -377 167.5t-98 413.5t215 413t424 167q276 0 403 -213 q174 207 457 207zM1726 659q4 135 -60 213t-191 78q-129 0 -217.5 -78.5t-127.5 -212.5h596zM507.5 188q145.5 0 251 107.5t128 265.5t-53 265.5t-221 107.5t-250 -107.5t-129.5 -265.5q-23 -160 53 -266.5t221.5 -106.5z" glyph-name="glyph663" horiz-adv-x="1988"/><glyph d="M735 1044q209 0 320.5 -152.5t81.5 -379.5q-33 -227 -187.5 -379.5t-363.5 -152.5q-201 0 -301 155l-92 -649l-216 2l218 1536h215l-19 -133q143 153 344 153zM573 172q133 0 230.5 97.5t120.5 242.5q18 145 -51.5 243.5t-202.5 98.5q-102 0 -189.5 -66.5t-130.5 -173.5 l-28 -202q12 -106 80.5 -173t170.5 -67z" glyph-name="glyph664" horiz-adv-x="1230"/><glyph d="M786 1044q215 0 343 -154.5t98 -377.5q-33 -221 -204 -376.5t-386 -155.5q-236 0 -346 188l-94 -680h-220l289 2048h217l-94 -678q159 186 397 186zM633 172q141 0 254.5 99.5t134.5 240.5q20 143 -66 242.5t-227 99.5t-255 -99.5t-134 -242.5q-20 -141 66 -240.5 t227 -99.5z" glyph-name="glyph665" horiz-adv-x="1318"/><glyph d="M1139 1024l-217 -1536l-213 -2l92 649q-145 -156 -348 -155q-209 0 -319.5 152.5t-78.5 379.5q31 227 184.5 379.5t362.5 152.5q199 0 305 -153l19 133h213zM518 172q102 0 189.5 65.5t130.5 172.5l28 204q-12 106 -80.5 173t-171.5 67q-135 0 -231 -98.5t-115 -243.5 q-23 -143 47 -241.5t203 -98.5z" glyph-name="glyph666" horiz-adv-x="1230"/><glyph d="M764 1042l-27 -172q-174 8 -286.5 -74.5t-137.5 -250.5l-73 -545h-217l143 1024h217l-27 -176q111 204 408 194z" glyph-name="glyph667" horiz-adv-x="749"/><glyph d="M588 1212h-170l225 324h219zM831 1139l-30 -205q-193 8 -314.5 -81t-148.5 -284l-80 -569h-235l157 1126h215l-6 -188q49 88 157.5 146.5t284.5 54.5z" glyph-name="glyph668" horiz-adv-x="802"/><glyph d="M399 1186l-159 350h163l125 -246l197 246h164l-262 -350h-228zM840 1139l-31 -205q-193 8 -314.5 -81t-148.5 -284l-80 -569h-235l157 1126h215l-6 -188q49 88 158 146.5t285 54.5z" glyph-name="glyph669" horiz-adv-x="811"/><glyph d="M836 1139l-31 -205q-193 8 -314.5 -81t-148.5 -284l-80 -569h-235l157 1126h215l-6 -188q49 88 158 146.5t285 54.5zM59 -373q-39 14 -59 49t-14 78q8 55 53 94t100 39q53 0 86 -38.5t25 -94t-65.5 -139.5t-108.5 -137h-107z" glyph-name="glyph670" horiz-adv-x="806"/><glyph d="M395 -20q-197 0 -293 101t-90 230h185q4 -72 65.5 -123t149.5 -49t143 43t66 109q8 70 -49.5 104.5t-174.5 59.5q-70 16 -117 33.5t-97 49t-70.5 82t-10.5 117.5q18 139 140.5 223t289.5 84q158 0 256.5 -78.5t92.5 -226.5h-183q-4 68 -55 101.5t-117 38.5 q-76 4 -134 -27t-66 -90q-6 -35 8 -59.5t51 -42t67.5 -26.5t90.5 -24q53 -12 92 -26.5t84 -39t71.5 -55t41 -79t6.5 -107.5q-20 -143 -143.5 -233t-299.5 -90z" glyph-name="glyph671" horiz-adv-x="952"/><glyph d="M721 1536h219l-274 -324h-170zM434 -16q-215 0 -319.5 110.5t-98.5 249.5h203q4 -78 71.5 -133t162 -53t155 47t70.5 117q10 74 -52.5 112.5t-189.5 67.5q-74 16 -127 35.5t-106 53.5t-76 89t-12 129q20 152 154 243t317 91q172 0 278.5 -86t100.5 -246h-201 q-6 76 -61.5 113t-124.5 41q-86 4 -148.5 -30t-71.5 -99q-4 -27 1.5 -47.5t24.5 -37t34.5 -26.5t53.5 -21.5t57.5 -16.5t66.5 -17q72 -16 125 -38t106.5 -58.5t76 -97t11.5 -140.5q-23 -156 -157 -254t-324 -98z" glyph-name="glyph672" horiz-adv-x="1026"/><glyph d="M299 1536h164l125 -246l196 246h164l-262 -350h-227zM434 -16q-215 0 -319.5 110.5t-98.5 249.5h203q4 -78 71.5 -133t162 -53t155 47t70.5 117q10 74 -52.5 112.5t-189.5 67.5q-74 16 -127 35.5t-106 53.5t-76 89t-12 129q20 152 154 243t317 91q172 0 278.5 -86 t100.5 -246h-201q-6 76 -61.5 113t-124.5 41q-86 4 -148.5 -30t-71.5 -99q-4 -27 1.5 -47.5t24.5 -37t34.5 -26.5t53.5 -21.5t57.5 -16.5t66.5 -17q72 -16 125 -38t106.5 -58.5t76 -97t11.5 -140.5q-23 -156 -157 -254t-324 -98z" glyph-name="glyph673" horiz-adv-x="1026"/><glyph d="M434 -16q-215 0 -319.5 110.5t-98.5 249.5h203q4 -78 71.5 -133t162 -53t155 47t70.5 117q10 74 -52.5 112.5t-189.5 67.5q-74 16 -127 35.5t-106 53.5t-76 89t-12 129q20 152 154 243t317 91q172 0 278.5 -86t100.5 -246h-201q-6 76 -61.5 113t-124.5 41 q-86 4 -148.5 -30t-71.5 -99q-4 -27 1.5 -47.5t24.5 -37t34.5 -26.5t53.5 -21.5t57.5 -16.5t66.5 -17q72 -16 125 -38t106.5 -58.5t76 -97t11.5 -140.5q-23 -156 -157 -254t-324 -98zM465 -18l-74 -115q106 20 173 -35t52 -151q-12 -88 -82.5 -150.5t-160.5 -62.5 q-72 0 -134.5 38.5t-84.5 96.5l104 39q16 -31 54 -51.5t75 -20.5q45 0 81 31.5t42 79.5q10 68 -43 92t-139 -9l-76 54l104 164h109z" glyph-name="glyph674" horiz-adv-x="1026"/><glyph d="M434 -16q-215 0 -319.5 110.5t-98.5 249.5h203q4 -78 71.5 -133t162 -53t155 47t70.5 117q10 74 -52.5 112.5t-189.5 67.5q-74 16 -127 35.5t-106 53.5t-76 89t-12 129q20 152 154 243t317 91q172 0 278.5 -86t100.5 -246h-201q-6 76 -61.5 113t-124.5 41 q-86 4 -148.5 -30t-71.5 -99q-4 -27 1.5 -47.5t24.5 -37t34.5 -26.5t53.5 -21.5t57.5 -16.5t66.5 -17q72 -16 125 -38t106.5 -58.5t76 -97t11.5 -140.5q-23 -156 -157 -254t-324 -98zM319 -408q-39 14 -58 49t-13 78q8 53 52 93.5t99.5 40.5t87 -39t23.5 -95 q-6 -55 -62.5 -137t-109.5 -139h-107z" glyph-name="glyph675" horiz-adv-x="1026"/><glyph d="M434 -16q-215 0 -319.5 110.5t-98.5 249.5h203q4 -78 71.5 -133t162 -53t155 47t70.5 117q10 74 -52.5 112.5t-189.5 67.5q-74 16 -127 35.5t-106 53.5t-76 89t-12 129q20 152 154 243t317 91q172 0 278.5 -86t100.5 -246h-201q-6 76 -61.5 113t-124.5 41 q-86 4 -148.5 -30t-71.5 -99q-4 -27 1.5 -47.5t24.5 -37t34.5 -26.5t53.5 -21.5t57.5 -16.5t66.5 -17q72 -16 125 -38t106.5 -58.5t76 -97t11.5 -140.5q-23 -156 -157 -254t-324 -98zM368.5 -395q-55.5 0 -89 39t-25.5 94t53 95t101 40q53 0 87.5 -40t26.5 -95t-53 -94 t-100.5 -39z" glyph-name="glyph676" horiz-adv-x="1026"/><glyph d="M1028 793q100 -57 150.5 -160t33.5 -225q-27 -178 -164 -303t-307 -125q-86 0 -179 32.5t-144 85.5l112 164q33 -35 89.5 -58.5t111.5 -21.5q92 2 171 71t93 167q14 106 -53.5 182t-177.5 76h-105l25 178h43q106 0 190 74t99 178q16 102 -51.5 170t-186.5 68 q-127 0 -221 -75t-111 -188l-151 -1083h-215l151 1083q27 197 190 325t380 128q209 0 327.5 -121t94.5 -303q-29 -196 -195 -319z" glyph-name="glyph677" horiz-adv-x="1376"/><glyph d="M555 -2q-49 -18 -108.5 -21.5t-121 13t-109.5 51.5t-73.5 105.5t-11.5 166.5l78 547h-133l22 164h133l50 348h217l-49 -348h260l-23 -164h-260l-78 -549q-12 -78 23 -119.5t91 -41.5t118 14z" glyph-name="glyph678" horiz-adv-x="716"/><glyph d="M770 944l-281 2l-51 -366h238l-19 -136h-239l-12 -92q-12 -84 18.5 -123t120.5 -39h129l-27 -192h-131q-88 0 -147.5 12.5t-110.5 45t-69.5 102t-4.5 174.5l17 112h-178l18 136h178l51 366h-180l25 184h182l57 406h221l-57 -406h279z" glyph-name="glyph679" horiz-adv-x="813"/><glyph d="M731 1327q-84 35 -72 127q8 55 52.5 94t99.5 39t87 -39t23.5 -94t-65.5 -139t-106 -135h-107zM514 -2q-88 0 -147.5 12.5t-110.5 45t-69.5 102t-4.5 174.5l86 614h-180l25 184h182l57 406h221l-57 -406h279l-27 -186l-281 2l-84 -594q-12 -84 19 -123t121 -39h129 l-27 -192h-131z" glyph-name="glyph680" horiz-adv-x="870"/><glyph d="M514 -2q-88 0 -147.5 12.5t-110.5 45t-69.5 102t-4.5 174.5l86 614h-180l25 184h182l57 406h221l-57 -406h279l-27 -186l-281 2l-84 -594q-12 -84 19 -123t121 -39h129l-27 -192h-131zM352 -133q109 20 174.5 -35t51.5 -151q-12 -90 -83 -151.5t-161 -61.5 q-72 0 -134.5 38.5t-82.5 96.5l104 39q16 -29 53 -50.5t74 -21.5q45 0 81 31.5t42 79.5q10 68 -42 92t-140 -9l-76 54l115 176l98 -10z" glyph-name="glyph681" horiz-adv-x="835"/><glyph d="M514 -2q-88 0 -147.5 12.5t-110.5 45t-69.5 102t-4.5 174.5l86 614h-180l25 184h182l57 406h221l-57 -406h279l-27 -186l-281 2l-84 -594q-12 -84 19 -123t121 -39h129l-27 -192h-131zM240 -399q-39 14 -58.5 49t-13.5 78q8 53 52 93t99.5 40t87 -39t23.5 -94 q-6 -55 -62.5 -137.5t-109.5 -139.5h-106z" glyph-name="glyph682" horiz-adv-x="808"/><glyph d="M514 -2q-88 0 -147.5 12.5t-110.5 45t-69.5 102t-4.5 174.5l86 614h-180l25 184h182l57 406h221l-57 -406h279l-27 -186l-281 2l-84 -594q-12 -84 19 -123t121 -39h129l-27 -192h-131zM317.5 -127q55.5 0 89 -40t25.5 -95t-53 -94t-98 -39q-55 0 -90 39t-27 94 q10 55 54 95t99.5 40z" glyph-name="glyph683" horiz-adv-x="808"/><glyph d="M1100 1024l-144 -1024h-194l6 139q-68 -74 -167 -116.5t-198 -42.5q-170 0 -261 109.5t-68 281.5l92 653h217l-88 -627q-14 -102 38 -163.5t154 -61.5q109 0 201 63.5t107 161.5l90 627h215z" glyph-name="glyph684" horiz-adv-x="1150"/><glyph d="M780 1212h-170l224 324h221zM1198 1126l-158 -1126h-209l5 162q-72 -80 -180.5 -127t-215.5 -47q-184 0 -284.5 119.5t-73.5 308.5l100 710h236l-96 -684q-16 -111 41 -178t169 -67q119 0 219.5 69.5t116.5 175.5l97 684h233z" glyph-name="glyph685" horiz-adv-x="1234"/><glyph d="M573 1186l-161 350h163l127 -246l195 246h164l-260 -350h-228zM1198 1126l-158 -1126h-209l5 162q-72 -80 -180.5 -127t-215.5 -47q-184 0 -284.5 119.5t-73.5 308.5l100 710h236l-96 -684q-16 -111 41 -178t169 -67q119 0 219.5 69.5t116.5 175.5l97 684h233z" glyph-name="glyph686" horiz-adv-x="1234"/><glyph d="M532 1186h-170l261 350h227l162 -350h-170l-119 252zM1198 1126l-158 -1126h-209l5 162q-72 -80 -180.5 -127t-215.5 -47q-184 0 -284.5 119.5t-73.5 308.5l100 710h236l-96 -684q-16 -111 41 -178t169 -67q119 0 219.5 69.5t116.5 175.5l97 684h233z" glyph-name="glyph687" horiz-adv-x="1234"/></font>
</defs>
</svg>
