<svg fill="none" height="36" viewBox="0 0 36 36" width="36" xmlns="http://www.w3.org/2000/svg"><path d="m18.7142 17.2856v-3.5715c0-.1895-.0752-.3712-.2092-.5051-.1339-.134-.3156-.2092-.5051-.2092-.1894 0-.3711.0752-.5051.2092-.1339.1339-.2092.3156-.2092.5051v3.5715h-3.5715c-.1895 0-.3712.0753-.5051.2092-.134.134-.2092.3157-.2092.5051 0 .1895.0752.3712.2092.5051.1339.134.3156.2092.5051.2092h3.5715v3.5716c0 .1894.0753.3711.2092.5051.134.1339.3157.2092.5051.2092.1895 0 .3712-.0753.5051-.2092.134-.134.2092-.3157.2092-.5051v-3.5716h3.5716c.1894 0 .3711-.0752.5051-.2092.1339-.1339.2092-.3156.2092-.5051 0-.1894-.0753-.3711-.2092-.5051-.134-.1339-.3157-.2092-.5051-.2092z" fill="#2a3241"/><rect height="35" rx="10.5" stroke="#eaedf1" width="35" x=".5" y=".5"/></svg>