<svg fill="none" height="27" viewBox="0 0 134 27" width="134" xmlns="http://www.w3.org/2000/svg"><g fill="#282827"><path d="m37.0399 20.1975c-.1765.1766-.406.2825-.6885.2825-.2648 0-.4943-.0883-.6885-.2825-.1766-.1765-.2825-.406-.2825-.6885v-12.49972c0-.28248.0882-.512.2825-.68855.1765-.17655.406-.26482.6885-.26482h3.6899c.918 0 1.7302.21186 2.454.61792.7239.40607 1.2888.97103 1.6772 1.69488.4061.72385.6003 1.55364.6003 2.47169 0 .9004-.1942 1.6949-.6003 2.4011-.406.7062-.9533 1.2535-1.6772 1.6419-.7238.3884-1.536.5826-2.454.5826h-2.7365v4.043c0 .2825-.0883.4943-.2649.6885zm5.067-7.3091c.5473-.5297.8121-1.2182.8121-2.0657 0-.8827-.2648-1.5889-.8121-2.15386s-1.2358-.84743-2.0656-.84743h-2.7365v5.87909h2.7365c.8474 0 1.536-.2648 2.0656-.8121z"/><path d="m53.0703 10.9462c.7768.4414 1.3771 1.0416 1.8184 1.8185.4414.7768.6533 1.6595.6533 2.6659 0 .9886-.2119 1.8714-.6533 2.6482-.4237.7768-1.0239 1.3771-1.8008 1.8185-.7768.4413-1.6419.6532-2.6306.6532-.9886 0-1.8714-.2119-2.6482-.6532-.7768-.4414-1.3771-1.0417-1.8185-1.8185-.4237-.7768-.6532-1.6596-.6532-2.6482 0-.9887.2119-1.8891.6532-2.6659.4238-.7769 1.0417-1.3771 1.8185-1.8185s1.6596-.6532 2.6482-.6532c.9711 0 1.8538.2295 2.613.6532zm-4.3078 1.4477c-.4944.3001-.8828.7062-1.1653 1.2359-.2824.5296-.4237 1.1299-.4237 1.8008s.1413 1.2535.4237 1.7831c.2825.5297.6709.9357 1.1653 1.2359.4943.3001 1.0593.4413 1.6948.4413.6356 0 1.2006-.1412 1.6949-.4413.4944-.3002.8828-.7062 1.1652-1.2359.2825-.5296.4238-1.1122.4238-1.7831s-.1413-1.2535-.4238-1.8008c-.2824-.5297-.6708-.9358-1.1652-1.2359-.4943-.3001-1.0593-.4414-1.6949-.4414-.6179 0-1.1828.1589-1.6948.4414z"/><path d="m67.2834 6.30291c.1766.17655.2648.40606.2648.68854v8.42145c0 .9533-.2295 1.8361-.6708 2.6129-.4414.7768-1.0593 1.3948-1.8362 1.8538-.7768.4414-1.6242.6709-2.5776.6709s-1.8184-.2295-2.5953-.6709c-.7768-.4414-1.3947-1.0593-1.8361-1.8538-.4414-.7768-.6709-1.6596-.6709-2.6129 0-.9534.2119-1.8361.618-2.613.406-.7768.971-1.3947 1.6948-1.8361.7239-.4414 1.5184-.6709 2.4188-.6709.7062 0 1.377.1413 1.995.4414.6179.3001 1.1475.7062 1.5713 1.2359v-4.97875c0-.28248.0882-.51199.2648-.68854.1765-.17655.4061-.26482.6709-.26482.2825.01765.512.10593.6885.26482zm-3.1426 12.12899c.4944-.3002.8828-.7239 1.1653-1.2535.2824-.5297.4237-1.1123.4237-1.7655 0-.6533-.1413-1.2359-.4237-1.7655-.2825-.5297-.6709-.9357-1.1653-1.2359-.4943-.3001-1.0593-.459-1.6772-.459s-1.1652.1589-1.6772.459c-.4943.3002-.9004.7062-1.1829 1.2359-.2825.5296-.4414 1.1122-.4414 1.7655 0 .6532.1413 1.2358.4414 1.7655.2825.5296.6886.9533 1.1829 1.2535.4943.3001 1.0593.459 1.6772.459s1.1652-.1589 1.6772-.459z"/><path d="m78.5112 11.9526c.1236.1413.1766.3001.1766.4767 0 .2648-.1413.4943-.4061.6885-.1236.0883-.2648.1236-.4237.1236-.2825 0-.5297-.1059-.7239-.3354-.3001-.3355-.6356-.5826-1.0063-.7239-.3708-.1589-.7768-.2295-1.2535-.2295-.9534 0-1.7125.3178-2.3128.9534-.5826.6356-.8828 1.483-.8828 2.5246 0 .6709.1413 1.2535.4238 1.7832.2824.5296.6708.9357 1.1652 1.2358.4943.3002 1.0593.4414 1.7125.4414.8298 0 1.5183-.2118 2.0303-.6532.2296-.1766.4591-.2648.6886-.2648.1765 0 .3354.0529.4767.1589.2295.1942.3531.4237.3531.6708 0 .1766-.0707.3531-.2295.4944-.8828.8298-1.9951 1.2358-3.3192 1.2358-.971 0-1.8538-.2295-2.6306-.6709-.7768-.4413-1.3771-1.0593-1.8184-1.8361-.4414-.7768-.6533-1.6595-.6533-2.6129 0-.9887.2119-1.8714.6356-2.6483.4237-.7768 1.024-1.3947 1.7832-1.8361.7591-.4413 1.6242-.6532 2.5776-.6532 1.4654.0176 2.6835.5826 3.6369 1.6772z"/><path d="m88.2038 10.9639c.7768.4414 1.377 1.0593 1.8361 1.8538.4413.7768.6709 1.6596.6709 2.6129v4.1136c0 .2649-.0883.4944-.2649.6709-.1765.1766-.406.2649-.6709.2649-.2648 0-.4943-.0883-.6708-.2649-.1766-.1765-.2649-.406-.2649-.6709v-.6885c-.4237.5297-.9533.9357-1.5713 1.2359-.6179.3001-1.2888.4413-1.995.4413-.8827 0-1.6948-.2295-2.4187-.6709-.7239-.4413-1.2888-1.0593-1.6949-1.8361-.406-.7768-.6179-1.6595-.6179-2.6129s.2295-1.8361.6709-2.6129c.4414-.7769 1.0593-1.3948 1.8361-1.8538.7768-.4414 1.6419-.6709 2.5953-.6709.918.0176 1.7831.2472 2.56.6885zm-.9181 7.4681c.4943-.3001.8827-.7062 1.1652-1.2359.2825-.5296.4237-1.1122.4237-1.7655 0-.6532-.1412-1.2358-.4237-1.7655-.2825-.5296-.6709-.9533-1.1652-1.2535-.4943-.3001-1.0593-.459-1.6772-.459s-1.1653.1589-1.6772.459c-.4944.3002-.9004.7239-1.1829 1.2535-.2825.5297-.4414 1.1123-.4414 1.7655 0 .6533.1412 1.2359.4414 1.7655.2825.5297.6885.9358 1.1829 1.2359.4943.3001 1.0593.459 1.6772.459.6356 0 1.1829-.1589 1.6772-.459z"/><path d="m98.7444 10.6813c.6356.2648 1.1299.6179 1.5006 1.0769.159.1942.247.3885.247.5827 0 .2118-.106.406-.318.5649-.141.1059-.2997.1413-.5116.1413-.3178 0-.6179-.1236-.8651-.3531-.3001-.2825-.6355-.4767-.971-.6003-.3531-.1236-.7591-.1766-1.2535-.1766-.5649 0-1.024.0883-1.3947.2825-.3708.1942-.5473.459-.5473.7945 0 .2472.0529.459.1765.6179s.3531.3178.7062.459c.3531.1413.8475.2825 1.5007.4238 1.3418.2648 2.2951.6532 2.8601 1.1299.5647.4767.8477 1.0946.8477 1.8714 0 .565-.159 1.077-.459 1.536-.3004.459-.7595.8298-1.3597 1.0946-.6003.2648-1.3065.3884-2.1539.3884-.8298 0-1.6243-.1236-2.3658-.3884s-1.3241-.6003-1.7302-1.024c-.1589-.1589-.2472-.3531-.2472-.565 0-.3001.1236-.5296.3708-.7238.2295-.1766.4414-.2648.6532-.2648.2472 0 .4767.1059.7062.3354.2295.2648.5826.4767 1.0593.6709.4591.1942.9711.2825 1.5007.2825.7062 0 1.2535-.1236 1.6419-.3531s.5826-.5473.5826-.9357-.1942-.7062-.5649-.9534c-.3884-.2472-1.024-.459-1.9421-.6356-2.3657-.459-3.5486-1.43-3.5486-2.913 0-.6003.1765-1.1123.5296-1.536s.8298-.7415 1.4124-.9357c.5826-.2119 1.2006-.3178 1.8538-.3178.7238.0353 1.4477.1765 2.0833.4237z"/><path d="m107.483 18.8909c.159.1766.23.3885.23.6709 0 .2649-.106.4944-.3.6709-.212.1766-.459.2648-.777.2648h-.353c-.6 0-1.148-.1588-1.66-.4766-.494-.3178-.882-.7415-1.165-1.2889-.282-.5473-.424-1.1475-.424-1.8361v-4.5726h-.847c-.265 0-.459-.0706-.636-.2295-.159-.1413-.247-.3355-.247-.5473 0-.2472.071-.4414.247-.5826.159-.1413.371-.2296.636-.2296h.847v-2.6482c0-.26482.089-.49434.265-.67088.177-.17655.389-.26483.671-.26483.265 0 .494.08828.671.26483.177.17654.265.3884.265.67088v2.6659h1.571c.265 0 .477.0706.636.2295.159.1413.247.3531.247.5826s-.088.4061-.247.5473c-.159.1413-.371.2296-.636.2296h-1.571v4.5549c0 .4944.141.9004.406 1.2359.265.3354.6.4943 1.006.4943h.636c.176 0 .371.0883.529.2648z"/><path d="m110.996 18.5731c.247.2472.371.565.371.9181s-.124.6356-.371.9004c-.247.2472-.548.3708-.901.3708s-.635-.1236-.9-.3708c-.247-.2472-.371-.5473-.371-.9004s.124-.6532.371-.9181c.247-.2471.547-.3707.9-.3707.336 0 .636.1236.901.3707z"/><path d="m121.59 11.9526c.123.1413.176.3001.176.4767 0 .2648-.141.4943-.406.6885-.123.0883-.265.1236-.423.1236-.283 0-.53-.1059-.724-.3354-.3-.3355-.636-.5826-1.007-.7239-.37-.1589-.776-.2295-1.253-.2295-.953 0-1.713.3178-2.313.9534-.583.6356-.883 1.483-.883 2.5246 0 .6709.142 1.2535.424 1.7832.283.5296.671.9357 1.165 1.2358.495.3002 1.06.4414 1.713.4414.83 0 1.518-.2118 2.03-.6532.23-.1766.459-.2648.689-.2648.176 0 .335.0529.476.1589.23.1942.353.4237.353.6708 0 .1766-.07.3531-.229.4944-.883.8298-1.995 1.2358-3.319 1.2358-.971 0-1.854-.2295-2.631-.6709-.777-.4413-1.377-1.0593-1.818-1.8361-.442-.7768-.653-1.6595-.653-2.6129 0-.9887.211-1.8714.635-2.6483.424-.7768 1.024-1.3947 1.783-1.8361.759-.4413 1.625-.6532 2.578-.6532 1.483.0176 2.683.5826 3.637 1.6772z"/><path d="m131.317 10.9462c.777.4414 1.377 1.0416 1.818 1.8185.442.7768.654 1.6595.654 2.6659 0 .9886-.212 1.8714-.654 2.6482-.423.7768-1.024 1.3771-1.8 1.8185-.777.4413-1.642.6532-2.631.6532s-1.872-.2119-2.648-.6532c-.777-.4414-1.377-1.0417-1.819-1.8185-.423-.7768-.653-1.6596-.653-2.6482 0-.9887.212-1.8891.653-2.6659.424-.7769 1.042-1.3771 1.819-1.8185.776-.4414 1.659-.6532 2.648-.6532.971 0 1.854.2295 2.613.6532zm-4.308 1.4477c-.494.3001-.883.7062-1.165 1.2359-.283.5296-.424 1.1299-.424 1.8008s.141 1.2535.424 1.7831c.282.5297.671.9357 1.165 1.2359.494.3001 1.059.4413 1.695.4413s1.2-.1412 1.695-.4413c.494-.3002.883-.7062 1.165-1.2359.283-.5296.406-1.1122.406-1.7831s-.141-1.2535-.406-1.8008c-.282-.5297-.671-.9358-1.165-1.2359-.495-.3001-1.059-.4414-1.695-.4414-.618 0-1.183.1589-1.695.4414z"/><path d="m13.4178 0c-7.41511 0-13.4178 6.00269-13.4178 13.4001 0 7.3975 6.00269 13.4001 13.4178 13.4001 7.3974 0 13.4001-6.0026 13.4001-13.4001 0-7.39741-6.0027-13.4001-13.4001-13.4001zm0 24.0637c-5.87913 0-10.66362-4.7668-10.66362-10.6636 0-5.87908 4.76684-10.66358 10.66362-10.66358 5.8791 0 10.6636 4.76684 10.6636 10.66358-.0177 5.8968-4.7845 10.6636-10.6636 10.6636z"/><path d="m13.7531 7.11499c-3.1249 0-5.64958 2.52466-5.64958 5.64961v.1412 6.2675.0707c0 .7591.61792 1.3594 1.35943 1.3594.75915 0 1.35945-.6179 1.35945-1.3594v-1.6596c.8474.512 1.8538.8121 2.913.8121 3.125 0 5.6496-2.5246 5.6496-5.6496 0-3.10725-2.5246-5.63191-5.6319-5.63191zm0 8.56271c-1.5713 0-2.8601-1.2536-2.9131-2.8072v-.1059c0-1.6066 1.3065-2.91309 2.9131-2.91309s2.9131 1.30649 2.9131 2.91309-1.3065 2.9131-2.9131 2.9131z"/></g></svg>