<svg fill="none" height="54" viewBox="0 0 71 54" width="71" xmlns="http://www.w3.org/2000/svg" xmlns:xlink="http://www.w3.org/1999/xlink"><linearGradient id="a" gradientUnits="userSpaceOnUse" x1="19.6907" x2="53.5741" y1="16.5938" y2="17.6914"><stop offset="0" stop-color="#7f7aeb"/><stop offset="1" stop-color="#221cb6"/></linearGradient><path d="m61.3729 0c-4.0915 2.16-7.7017 4.79999-10.8305 8.15999-5.5356 5.76001-10.8305 15.36001-10.8305 29.04001 0 9.6 7.2203 16.8 15.644 16.8 8.4238 0 15.6441-7.2 15.6441-15.6s-7.2203-15.6-15.6441-15.6c.7221-5.52 3.1288-9.6 5.7763-12.48 1.6847-1.68 3.3695-3.11999 5.0542-4.31999zm-39.7119 0c-4.0915 2.16-7.7017 4.79999-10.8305 8.15999-5.53558 5.76001-10.8305 15.36001-10.8305 29.04001 0 9.6 7.22034 16.8 15.6441 16.8 8.4237 0 15.644-7.2 15.644-15.6s-7.2203-15.6-15.644-15.6c.722-5.52 3.1288-9.6 5.7762-12.48 1.6848-1.68 3.3695-3.11999 5.0543-4.31999z" fill="url(#a)"/></svg>