<svg fill="none" height="35" viewBox="0 0 115 35" width="115" xmlns="http://www.w3.org/2000/svg"><rect fill="#f8f9fc" height="35" rx="9" width="115"/><g fill="#8e95aa"><path d="m14.5625 23.0938c-1.2396 0-2.2448-.4219-3.0156-1.2657-.7657-.8489-1.1485-1.9349-1.1485-3.2578 0-1.3125.3802-2.3828 1.1407-3.2109.7656-.8282 1.7734-1.2422 3.0234-1.2422 1.2396 0 2.2005.3203 2.8828.9609.6875.6407 1.0807 1.3933 1.1797 2.2578h-1.6328c-.0729-.4791-.3255-.8828-.7578-1.2109-.4323-.3333-.9427-.5-1.5313-.5-.7812 0-1.3958.2682-1.8437.8047-.4427.5312-.6641 1.2448-.6641 2.1406s.2266 1.6172.6797 2.1641c.4531.5416 1.0677.8125 1.8438.8125.5677 0 1.0572-.1693 1.4687-.5078.4167-.3438.6849-.7579.8047-1.2422h1.6172c-.0625.4062-.1823.7942-.3594 1.164s-.4219.7214-.7344 1.0547c-.3073.3282-.7161.5912-1.2265.7891-.5105.1927-1.086.2891-1.7266.2891z"/><path d="m26.8984 21.8125c-.8177.8646-1.8619 1.2969-3.1328 1.2969-1.2656 0-2.3099-.4323-3.1328-1.2969-.8229-.8698-1.2344-1.9453-1.2344-3.2266 0-1.2812.4115-2.3567 1.2344-3.2265s1.8672-1.3047 3.1328-1.3047c1.2709 0 2.3151.4349 3.1328 1.3047.823.8698 1.2344 1.9453 1.2344 3.2265 0 1.2813-.4114 2.3568-1.2344 3.2266zm-4.9765-1.1641c.4739.5521 1.0885.8282 1.8437.8282.7604 0 1.3776-.2761 1.8516-.8282.4739-.5573.7109-1.2448.7109-2.0625 0-.8333-.237-1.526-.7109-2.0781-.474-.5573-1.0912-.8359-1.8516-.8359-.7552 0-1.3698.2786-1.8437.8359-.474.5521-.711 1.2448-.711 2.0781 0 .823.237 1.5105.711 2.0625z"/><path d="m39.6719 14.1172c.9375 0 1.6745.276 2.2109.8281.5417.5469.8125 1.3073.8125 2.2813v5.7734h-1.8437v-5.5703c0-.5417-.1485-.9609-.4454-1.2578-.2916-.3021-.7083-.4531-1.25-.4531-.5781 0-1.0807.1718-1.5078.5156-.4218.3385-.6328.7812-.6328 1.3281v5.4375h-1.8437v-5.5703c0-.5417-.1485-.9609-.4453-1.2578-.2917-.3021-.7084-.4531-1.25-.4531-.5782 0-1.0808.1718-1.5078.5156-.4271.3385-.6407.7812-.6407 1.3281v5.4375h-1.8359v-8.7969h1.6484l.0782 1.1641c.2968-.3854.6927-.6901 1.1874-.9141.5-.2239 1.0209-.3359 1.5626-.3359 1.1302 0 1.9947.5286 2.5937 1.5859.3073-.4687.7474-.8489 1.3203-1.1406.5729-.2969 1.1693-.4453 1.7891-.4453z"/><path d="m46.1094 12.75c-.2032.1979-.4453.2969-.7266.2969-.276 0-.5156-.099-.7187-.2969-.198-.1979-.2969-.4401-.2969-.7266 0-.2864.0989-.5312.2969-.7343.2031-.2032.4427-.3047.7187-.3047.2813 0 .5234.1015.7266.3047.2031.2031.3047.4479.3047.7343 0 .2865-.1016.5287-.3047.7266zm-1.6172 1.4531h1.8047v8.7969h-1.8047z"/><path d="m52.9609 14.0859c.9792 0 1.7552.2865 2.3282.8594.5781.5677.8671 1.3542.8671 2.3594v5.6953h-1.8359v-5.4844c0-.5677-.1667-1.0104-.5-1.3281-.3281-.3229-.7864-.4844-1.375-.4844-.6302 0-1.1745.1797-1.6328.5391-.4583.3542-.6875.8099-.6875 1.3672v5.3906h-1.8359v-8.7969h1.6171l.1407 1.2266c.3177-.4167.7396-.7448 1.2656-.9844.5313-.2396 1.0807-.3594 1.6484-.3594z"/><path d="m61.3516 26.9219c-1.1407.0208-2.0704-.1927-2.7891-.6407-.7187-.4479-1.112-1.0338-1.1797-1.7578-.0417-.4166.0313-.8333.2188-1.25.1875-.4166.4843-.7317.8906-.9453-.2448-.1198-.4636-.3021-.6563-.5469-.1927-.2447-.289-.5156-.289-.8124 0-.6094.3776-1.1277 1.1328-1.5547-.2761-.2552-.5-.5886-.6719-1-.1719-.4115-.2578-.836-.2578-1.2735 0-.8437.3281-1.5599.9844-2.1484.6562-.5938 1.4922-.8906 2.5078-.8906.8437 0 1.5521.1927 2.125.5781.1198-.3646.3828-.6485.789-.8516.4115-.2083.7995-.2812 1.1641-.2187v1.2344c-.2448-.0417-.4765-.0157-.6953.0781-.2188.0937-.3698.2526-.4531.4765.4583.6094.6875 1.2188.6875 1.8282 0 .9375-.336 1.7005-1.0078 2.289-.6719.5834-1.5261.8854-2.5625.9063-.7657.0104-1.3412-.1068-1.7266-.3516-.1823.0729-.3177.1797-.4063.3203-.0833.1406-.1041.2787-.0624.4141.1302.4062.5729.6094 1.3281.6094l1.75.0312c.9062.0104 1.6406.1927 2.2031.5469.5677.3542.8932.8828.9766 1.5859.1198.9896-.1849 1.7917-.9141 2.4063-.724.6146-1.7526.9271-3.0859.9375zm1.7968-9.711c0-.4791-.1823-.8698-.5468-1.1718-.3646-.3073-.8204-.461-1.3672-.461-.5417 0-.987.1563-1.336.4688-.3437.3073-.5156.7005-.5156 1.1797 0 .4895.1745.8906.5234 1.2031.3542.3073.7995.4609 1.336.4609.5521 0 1.0078-.1562 1.3672-.4687.3594-.3177.539-.7214.539-1.211zm.5547 6.6016c-.0729-.6615-.8177-.9922-2.2343-.9922h-1.5704c-.2864.0729-.5104.2292-.6718.4688-.1615.2448-.2422.5104-.2422.7968 0 .4375.2135.7787.6406 1.0235s.9609.3672 1.6016.3672c.8229 0 1.4557-.1563 1.8984-.4688.4479-.3073.6406-.7057.5781-1.1953z"/><path d="m74.0156 23.125c-1.1094 0-1.9791-.2865-2.6094-.8594-.625-.5781-.9713-1.2291-1.039-1.9531h1.5703c.0833.4063.3229.7526.7187 1.0391.3959.2864.8386.4244 1.3282.414s.875-.1328 1.1562-.3672c.2865-.2343.4297-.539.4297-.914 0-.3854-.1771-.6771-.5312-.875-.349-.2032-.8698-.3802-1.5625-.5313-.3959-.0833-.7422-.1745-1.0391-.2734-.2917-.1042-.5859-.2448-.8828-.4219s-.5261-.4088-.6875-.6953c-.1615-.2865-.2422-.6224-.2422-1.0078 0-.7917.3151-1.4245.9453-1.8985.6302-.4739 1.4193-.7109 2.3672-.7109.8958 0 1.651.224 2.2656.6719s.9636 1.0885 1.0469 1.9219h-1.5547c-.0729-.3959-.2734-.6901-.6015-.8829-.323-.1927-.6641-.2994-1.0235-.3203-.4479-.0208-.8229.0573-1.125.2344-.2969.1771-.4453.4349-.4453.7735 0 .1614.0417.3072.125.4374.0885.125.1771.2266.2656.3047.0886.073.2474.1511.4766.2344.2292.0781.4062.1328.5312.1641.125.0312.3412.0833.6485.1562.3854.0834.7213.1823 1.0078.2969.2864.1146.5807.2682.8828.4609.3073.1875.5443.4401.7109.7578.1667.3126.25.6771.25 1.0938 0 .8125-.3125 1.474-.9375 1.9844s-1.4401.7656-2.4453.7656z"/><path d="m85.8047 21.8125c-.8177.8646-1.862 1.2969-3.1328 1.2969-1.2657 0-2.3099-.4323-3.1328-1.2969-.823-.8698-1.2344-1.9453-1.2344-3.2266 0-1.2812.4114-2.3567 1.2344-3.2265.8229-.8698 1.8671-1.3047 3.1328-1.3047 1.2708 0 2.3151.4349 3.1328 1.3047.8229.8698 1.2344 1.9453 1.2344 3.2265 0 1.2813-.4115 2.3568-1.2344 3.2266zm-4.9766-1.1641c.474.5521 1.0886.8282 1.8438.8282.7604 0 1.3776-.2761 1.8515-.8282.474-.5573.711-1.2448.711-2.0625 0-.8333-.237-1.526-.711-2.0781-.4739-.5573-1.0911-.8359-1.8515-.8359-.7552 0-1.3698.2786-1.8438.8359-.4739.5521-.7109 1.2448-.7109 2.0781 0 .823.237 1.5105.7109 2.0625z"/><path d="m95.3047 21.8125c-.8177.8646-1.862 1.2969-3.1328 1.2969-1.2657 0-2.3099-.4323-3.1328-1.2969-.823-.8698-1.2344-1.9453-1.2344-3.2266 0-1.2812.4114-2.3567 1.2344-3.2265.8229-.8698 1.8671-1.3047 3.1328-1.3047 1.2708 0 2.3151.4349 3.1328 1.3047.8229.8698 1.2344 1.9453 1.2344 3.2265 0 1.2813-.4115 2.3568-1.2344 3.2266zm-4.9766-1.1641c.474.5521 1.0886.8282 1.8438.8282.7604 0 1.3776-.2761 1.8515-.8282.474-.5573.711-1.2448.711-2.0625 0-.8333-.237-1.526-.711-2.0781-.4739-.5573-1.0911-.8359-1.8515-.8359-.7552 0-1.3698.2786-1.8438.8359-.4739.5521-.7109 1.2448-.7109 2.0781 0 .823.237 1.5105.7109 2.0625z"/><path d="m102.477 14.0859c.979 0 1.755.2865 2.328.8594.578.5677.867 1.3542.867 2.3594v5.6953h-1.836v-5.4844c0-.5677-.167-1.0104-.5-1.3281-.328-.3229-.787-.4844-1.375-.4844-.63 0-1.175.1797-1.633.5391-.4582.3542-.6874.8099-.6874 1.3672v5.3906h-1.8359v-8.7969h1.6172l.1406 1.2266c.3177-.4167.7395-.7448 1.2655-.9844.531-.2396 1.081-.3594 1.649-.3594z"/></g></svg>