<svg fill="none" height="35" viewBox="0 0 35 35" width="35" xmlns="http://www.w3.org/2000/svg"><rect fill="#eaedf1" height="35" rx="9" width="35"/><path d="m21.5334 13.4666c-.4631-.4654-1.0137-.8345-1.6201-1.0863-.6064-.2517-1.2566-.3809-1.9132-.3803v5l-3.5334 3.5333c1.95 1.95 5.1167 1.95 7.075 0 .4641-.4642.8321-1.0154 1.0829-1.622s.3795-1.2567.3787-1.9131-.131-1.3062-.3832-1.9122-.6215-1.1563-1.0867-1.6194zm-3.5333-4.79997c-4.6 0-8.33335 3.73337-8.33335 8.33337s3.73335 8.3333 8.33335 8.3333 8.3333-3.7333 8.3333-8.3333-3.7333-8.33337-8.3333-8.33337zm0 14.99997c-3.6834 0-6.6667-2.9833-6.6667-6.6666 0-3.6834 2.9833-6.6667 6.6667-6.6667 3.6833 0 6.6666 2.9833 6.6666 6.6667 0 3.6833-2.9833 6.6666-6.6666 6.6666z" fill="#8e95aa"/></svg>