<svg fill="none" height="25" viewBox="0 0 110 25" width="110" xmlns="http://www.w3.org/2000/svg" xmlns:xlink="http://www.w3.org/1999/xlink"><clipPath id="a"><path d="m0 0h110v25h-110z"/></clipPath><g clip-path="url(#a)" fill="#000"><path d="m5.13476 12.3247h-5.13476v-2.95629h13.7574v2.95629h-5.13479v12.4421h-3.48785z"/><path d="m17.0748 24.129c-.8874.5802-1.9363.8841-3.0066.8711-.8853.0233-1.7571-.2137-2.5007-.68-.7901-.5326-1.2728-1.3616-1.2728-2.4463-.0145-.4946.0982-.9849.328-1.4267.2298-.4417.5694-.8211.9883-1.1039.8335-.5521 1.9092-.7447 3.0284-.7447.6262-.0013 1.2508.0632 1.8627.1926v-.4047c0-.5101-.1754-.8937-.416-1.1058-.3105-.2769-.8786-.4514-1.6687-.4514-1.1072.0205-2.1921.3052-3.1588.829v-2.7803c1.1779-.5448 2.4685-.8216 3.7735-.8094 1.4482 0 2.7428.319 3.5981 1.0005.8118.6379 1.2076 1.5737 1.2076 2.8916v3.5536c0 .4889.1971.829.6581.829.1902-.0017.3774-.0449.548-.1264v2.4237c-.502.223-1.0499.332-1.6019.319-.877 0-1.7323-.2347-2.3284-.829zm-.5712-3.4603c-.386-.1018-.7844-.1524-1.1843-.1505-.8569 0-1.7075.2558-1.7075 1.0637 0 .6815.6209 1.0426 1.383 1.0426.5347-.0081 1.0574-.1551 1.5135-.4258z"/><path d="m21.9062 9.34131h3.3358v15.42549h-3.3358z"/><path d="m27.1284 9.34131h3.3357v9.38499l.0435.021 3.7735-4.4442h3.7967l-4.1258 4.6789 4.4331 5.7848h-3.9488l-3.9287-5.3379-.0435.021v5.3169h-3.3357z"/><path d="m44.7257 24.1288c-.8873.5803-1.9363.8842-3.0067.8711-.8852.023-1.7569-.214-2.5006-.6801-.7901-.5326-1.2728-1.3615-1.2728-2.4463-.0146-.4945.0982-.9848.328-1.4266s.5694-.8211.9883-1.1039c.8335-.5521 1.9092-.7447 3.0284-.7447.6262-.0014 1.2508.0631 1.8626.1926v-.4047c0-.5101-.1754-.8937-.416-1.1058-.3104-.2769-.8785-.4514-1.6671-.4514-1.1077.0203-2.1932.305-3.1603.829v-2.7803c1.1788-.5452 2.4705-.8221 3.7766-.8094 1.4482 0 2.7428.3189 3.5996 1.0005.8118.6379 1.2061 1.5737 1.2061 2.8916v3.5536c0 .4889.1971.8289.6581.8289.1901-.0016.3774-.0448.548-.1263v2.4237c-.5015.2228-1.0489.3319-1.6004.3189-.8786 0-1.7338-.2347-2.3283-.8289zm-.5712-3.4603c-.386-.1018-.7844-.1524-1.1844-.1505-.8552 0-1.7074.2558-1.7074 1.0637 0 .6815.6209 1.0426 1.383 1.0426.5347-.0081 1.0574-.1552 1.5134-.4258z"/><path d="m56.5521 24.4253c-.5045.3204-1.4917.5747-2.4354.5747-1.0974 0-2.1297-.34-2.8096-1.0426-.5696-.6018-.9422-1.4669-.9422-3.1249v-3.8499h-1.7555v-2.6795h1.7555v-2.7186l3.342-.5567v3.2753h2.853v2.6795h-2.853v3.5099c0 1.0201.2421 1.7859 1.2511 1.7859.5594-.0282 1.1059-.1735 1.6019-.4258z"/><path d="m57.6699 14.303h3.3326v10.4637h-3.3326z"/><path d="m61.6421 14.303h3.5096l1.2728 3.3595c.4175 1.1073.8335 2.2567 1.2076 3.3099h.045c.3943-1.0622.8553-2.2568 1.2946-3.3385l1.3442-3.3309h3.2923l-4.3897 10.4637h-3.1883z"/><path d="m76.5247 20.3857c.3741 1.4458 1.6019 2.1063 3.1386 2.1063 1.3105-.0277 2.584-.4268 3.6633-1.148v2.7006c-1.0524.6379-2.6761.9568-4.1026.9568-3.5546 0-6.1219-2.1469-6.1219-5.4161 0-3.3384 2.6775-5.5079 5.6609-5.5079 2.6559 0 5.1565 1.7016 5.1565 5.2115.0025.3696-.0193.7389-.0652 1.1058zm4.323-2.0416c-.1972-1.1284-1.0525-1.8054-2.1281-1.8054-1.0307 0-1.931.6169-2.2166 1.8054z"/><path d="m59.3387 9.32788c.3766.00416.7436.11621 1.0547.32206.3111.20584.5524.49626.6936.83476s.1759.7099.0998 1.0675c-.0761.3575-.2596.6853-.5275.942-.2678.2567-.608.4308-.9778.5005-.3697.0698-.7525.0319-1.1001-.1088-.3476-.1406-.6445-.3778-.8534-.6816-.2088-.3039-.3203-.6608-.3203-1.0259.0053-.4928.2112-.9637.5728-1.31025.3616-.34653.8497-.54069 1.3582-.54027z"/><path d="m102.961 1.74976c-.184 0-.364.01354-.544.02558-.904-.72819-1.964-1.252571-3.1023-1.535213-1.1387-.2826425-2.328-.3164865-3.4819-.099085-1.1539.217401-2.2435.680615-3.19 1.356148-.9466.67553-1.7265 1.5465-2.2832 2.54992-.191-.01805-.3834-.02708-.579-.02708-1.3568-.00035-2.6718.45508-3.7211 1.28875-1.0494.83367-1.7682 1.99406-2.0341 3.28363s-.0625 2.62859.5756 3.78919c.6381 1.1605 1.6715 2.0709 2.9242 2.576.104 1.1118.0388 2.8239-.6938 3.7071 1.352-.6966 2.9321-1.8806 3.8029-3.2693h12.3167c.079 0 .346-.015.346-.015 1.831-.0912 3.552-.8709 4.798-2.1734 1.247-1.3025 1.919-3.0249 1.875-4.80075-.043-1.77587-.8-3.46507-2.11-4.70822-1.309-1.24315-3.067-1.94214-4.899-1.94827zm-13.1804 11.84484c-1.047-.0074-2.0494-.4117-2.7928-1.1262-.7435-.7145-1.1689-1.6827-1.1853-2.69736-.0164-1.01467.3774-1.99528 1.0974-2.73208.7199-.73681 1.7088-1.1713 2.755-1.21054-.3396 1.28255-.3286 2.62874.0321 3.90588.3606 1.2771 1.0584 2.4412 2.0246 3.3773-.5911.317-1.2555.4832-1.931.483zm13.1804 0c-.165 0-.326-.0106-.486-.0241-.78-.0711-1.533-.3134-2.201-.7086-.6597.3532-1.3816.5834-2.1285.6785-.8251.1061-1.664.0468-2.4645-.1742-.8006-.2209-1.5458-.5989-2.1895-1.1104-.6437-.5114-1.1722-1.1456-1.5528-1.8631-.3805-.71755-.605-1.50317-.6595-2.30822-.0545-.80504.0621-1.61236.3426-2.37195s.7189-1.45526 1.2881-2.04391c.5692-.58866 1.2571-1.05776 2.021-1.37826.7639-.32049 1.5875-.48554 2.4199-.48493.9146.00077 1.817.20348 2.6388.59277.6784.31797 1.2894.75515 1.8034 1.28934.711-.1585 1.448-.16979 2.163-.03313s1.393.41819 1.988.82616c.596.40798 1.095.9332 1.467 1.5413.371.6081.606 1.28536.688 1.98746.083.7021.012 1.41321-.208 2.08677-.221.6736-.586 1.2945-1.071 1.822s-1.079.9498-1.745 1.2392c-.665.2895-1.385.4395-2.114.4403z"/><path d="m109.717 3.00285c.361-.34958.361-.91637 0-1.26596-.36-.34958-.945-.34958-1.306 0-.36.34959-.36.91638 0 1.26596.361.34959.946.34959 1.306 0z"/><path d="m105.131 7.68175c.685 0 1.24-.53819 1.24-1.20208s-.555-1.20208-1.24-1.20208-1.24.53819-1.24 1.20208.555 1.20208 1.24 1.20208z"/><path d="m102.127 11.0971c.973 0 1.762-.7646 1.762-1.70763 0-.94307-.789-1.70759-1.762-1.70759s-1.762.76452-1.762 1.70759c0 .94303.789 1.70763 1.762 1.70763z"/><path d="m108.387 16.399v-.9027h-.343v-.1189h.826v.1189h-.344v.9027z"/><path d="m109.007 16.3989v-1.0095h.208l.245.7146c.023.0662.04.1159.05.1505l.056-.161.25-.7026h.184v1.008h-.132v-.8455l-.302.8455h-.125l-.301-.859v.859z"/></g></svg>