<svg fill="none" height="35" viewBox="0 0 35 35" width="35" xmlns="http://www.w3.org/2000/svg"><rect fill="#f0effa" height="35" rx="9" width="35"/><path d="m25 13c-2.691 0-5.185 1.895-7 3.605-1.815-1.71-4.309-3.605-7-3.605-2.757 0-5 2.243-5 5s2.243 5 5 5c2.691 0 5.185-1.895 7-3.605 1.815 1.71 4.309 3.605 7 3.605 2.757 0 5-2.243 5-5s-2.243-5-5-5zm-14 8c-1.654 0-3-1.346-3-3s1.346-3 3-3c1.567 0 3.392.983 5.561 3-2.169 2.017-3.994 3-5.561 3zm14 0c-1.567 0-3.392-.983-5.561-3 2.169-2.017 3.994-3 5.561-3 1.654 0 3 1.346 3 3s-1.346 3-3 3z" fill="#251fb6"/></svg>