<svg fill="none" height="27" viewBox="0 0 123 27" width="123" xmlns="http://www.w3.org/2000/svg"><path d="m28.9923 17.018h.0347l5.4922-2.968c-1.6337-1.136-10.237-5.49646-13.5741-1.7955-.2259.2381-.4519.4946-.6604.7511 3.5108.5497 6.5872 1.9788 8.7076 4.0124z" fill="#5e5e5e"/><path d="m26.4021 15.0938 4.7796-2.7666c-4.3103-1.8504-6.7436-1.3008-9.5071.4947-.1738.11-.3302.2199-.4866.3481 1.9292.3848 3.6846 1.0444 5.2141 1.9238z" fill="#404040"/><path d="m16.0263 12.804c3.4761-.2015 6.7088.4764 9.368 1.7589h.0174s1.599-1.3192 3.9454-3.0414c2.3463-1.70388 3.8758-2.93137 3.8758-2.93137-1.2166-.87946-4.1887-1.68561-6.0484-1.96042-5.527-.82447-10.0459 2.03366-11.8534 6.22929.2433-.0183.4692-.0366.6952-.055z" fill="#3f3f3f"/><path d="m16.0262 12.8036c2.6592-.1465 5.1794.2016 7.4041.9527l2.1725-7.23691c-5.3184-.18322-9.9242 2.56498-11.4884 6.37581-.0174.0367-.0348.0733-.0348.11.6257-.0916 1.2861-.1649 1.9466-.2016z" fill="#282727"/><path d="m16.0265 12.8039c2.103-.1099 4.1365.1283 5.9963.568l3.0589-11.83564c-2.3811-.20153-4.936.07329-7.4388.86111-6.9 2.18025-10.96707 7.62173-9.81996 12.66013 2.34636-1.2642 5.16196-2.0703 8.20356-2.2536z" fill="#393838"/><path d="m16.0263 12.8036c.9212-.0549 1.825-.0366 2.7114.0184l-3.7542-9.36228c-5.2489 2.60164-8.15143 7.23698-7.16075 11.59748 2.34635-1.2642 5.16195-2.0703 8.20355-2.2536z" fill="#1a1818" fill-opacity=".58"/><g fill="#131313"><path d="m16.026 12.8038c.3476-.0183.7126-.0183 1.0602-.0366-.2954-.7512-1.1992-2.98637-2.6244-5.60638-1.7728-3.22454-2.8852-5.27654-2.8852-5.27654-2.62441 1.026-5.82242 2.80318-7.68212 4.74525-4.084405 4.28717-4.432014 9.50877-1.47734 13.39297 2.32898-3.9574 7.49097-6.8705 13.60886-7.2187z"/><path d="m54.298 7.78394-5.527 15.24346c-.1738.458-.4692.6779-.9385.6779h-2.3811c-.4519 0-.7648-.2199-.9386-.6779l-5.527-15.24346h2.8157l3.7194 11.15776c.2085.6047.504 1.539.9038 2.7849h.3997l.9386-2.7849 3.7368-11.15776z"/><path d="m60.0338 23.7236h-2.607v-15.93966h2.607z"/><path d="m71.8869 17.2744-4.3451-1.0443c-1.2337-.3115-2.1201-.7879-2.6415-1.4658s-.7821-1.6672-.7821-2.968c0-1.7589.4519-2.82151 1.3383-3.4261.8864-.6046 2.4156-.56802 4.5881-.56802h6.3439v2.052s-5.2663 0-5.9615 0c-1.5295-.01829-2.5376.07331-3.0068.29312-.4693.2199-.7126.7329-.7126 1.6673 0 .7695.1564 1.2825.4866 1.5756.3129.2749.8864.5314 1.7207.7146l4.4146 1.0443c1.234.3298 2.1378.8061 2.6766 1.4474.5562.6412.8169 1.6123.8169 2.9314 0 1.8505-.4345 2.8216-1.4078 3.4261-.9733.6046-2.2769.8062-5.0403.8062-2.1031 0-5.7527 0-5.7527 0v-2.1253h5.2312c1.7555 0 2.9373-.1465 3.5456-.4214.6084-.2748.9038-.7511.9038-1.6673 0-.7145-.1738-1.2092-.5388-1.484-.3997-.3298-1.008-.568-1.8771-.7878z"/><path d="m83.3928 7.78366v2.23524c2.0161-1.75889 3.9801-2.63828 5.8572-2.63828 2.103 0 3.3892.9344 3.8237 2.80318 2.0509-1.86878 4.067-2.80318 6.0832-2.80318 1.3031 0 2.2941.36639 2.9891 1.11759.696.73285 1.043 1.83219 1.043 3.26119v11.9456h-2.607v-11.1394c-.017-.9894-.209-1.7039-.574-2.1436-.3645-.43973-.9554-.67794-1.7897-.67794-.73 0-1.4252.1832-2.103.53134-.6779.3481-1.6338 1.0077-2.8678 1.9604v11.4875h-2.5375v-11.1577c0-1.0077-.1912-1.7222-.5736-2.1619-.3824-.43979-.9733-.65964-1.7902-.65964-.7299 0-1.4252.1832-2.0856.53134-.6779.3481-1.6338.9894-2.8678 1.9238v11.5058h-2.6418v-15.92134z"/><path d="m117.024 17.1093h-7.039c.139 1.8321.573 3.0597 1.268 3.7009.696.6413 1.878.7695 3.511.7695h5.249v2.1253s-3.024 0-5.579 0c-2.607 0-4.467-.2382-5.562-1.5207-1.112-1.2825-1.651-3.4444-1.651-6.4858 0-3.078.539-5.2216 1.617-6.46744 1.077-1.22755 2.85-1.85044 5.335-1.85044 2.26 0 3.894.43969 4.936 1.2825 1.026.86109 1.547 2.16188 1.547 3.90248.018 3.0413-1.182 4.5437-3.632 4.5437zm-7.074-2.1619h6.396c1.095 0 1.651-.7879 1.651-2.3635-.017-1.026-.313-1.7589-.869-2.1986-.556-.43968-1.512-.65953-2.85-.65953-1.599 0-2.694.36643-3.32 1.09923-.626.7512-.973 2.1253-1.008 4.1224z"/></g><path d="m20.4581 18.2636-3.4066 2.51 1.2341-3.8292c-.3998-.1099-.7995-.1649-1.2341-.1649-2.4332 0-4.3972 1.8138-4.3972 4.0307 0 2.2352 1.964 4.0307 4.3972 4.0307 2.4333 0 4.3973-1.8138 4.3973-4.0307 0-.9527-.3824-1.8504-.9907-2.5466z" fill="#333"/></svg>