<svg fill="none" height="20" viewBox="0 0 29 20" width="29" xmlns="http://www.w3.org/2000/svg"><path d="m28.9933 7.04863c.0652-1.85063-.3472-3.68741-1.1988-5.33979-.5777-.67801-1.3796-1.135565-2.2658-1.292927-3.6655-.3264315-7.3462-.4602249-11.0262-.4008074-3.6667-.0621143-7.33411.0673617-10.98673.3878784-.72215.128926-1.39044.46137-1.92334.956766-1.185611 1.07313-1.317346 2.90909-1.449081 4.4606-.1911319 2.78957-.1911319 5.58855 0 8.37815.038111.8733.170588 1.7401.395205 2.5859.158839.653.480206 1.2571.935316 1.7583.53652.5217 1.22038.873 1.96285 1.0085 2.8401.3441 5.70178.4867 8.56278.4267 4.6107.0646 8.655 0 13.437-.362.7607-.1272 1.4638-.479 2.0155-1.0085.3688-.3621.6443-.8054.8036-1.2929.4711-1.4189.7025-2.9038.685-4.396.0527-.724.0527-5.09412.0527-5.86987zm-17.468 6.64567v-8.00325l7.7987 4.02101c-2.1868 1.18954-5.0718 2.53414-7.7987 3.98224z" fill="#fff"/></svg>