<?xml version="1.0" encoding="utf-8"?>
<!-- Generator: Adobe Illustrator 26.0.3, SVG Export Plug-In . SVG Version: 6.00 Build 0)  -->
<svg version="1.1" id="Layer_1" xmlns="http://www.w3.org/2000/svg" xmlns:xlink="http://www.w3.org/1999/xlink" x="0px" y="0px"
	 viewBox="0 0 286 296" style="enable-background:new 0 0 286 296;" xml:space="preserve">
<style type="text/css">
	.st0{fill:#3C3CCE;}
	.st1{opacity:0.8;fill:#00AFFF;enable-background:new    ;}
</style>
<path class="st0" d="M222.4,0.1H73.7c-5.6,0-9.2,6-6.6,10.9l38.5,71.7l6.7,12.7c1.2,2.2,1.2,4.8,0,6.9l-6.7,12.7l-38.5,71.7
	c-2.7,5,0.9,10.9,6.6,10.9h148.6c2.6,0,5-1.4,6.3-3.5l56-91.4c1.5-2.4,1.5-5.4,0-7.8l-56-91.3C227.4,1.4,225,0.1,222.4,0.1z"/>
<path class="st1" d="M57,296.5h94.5c5.1,0,8.7-5.1,7-9.9l-38-72.7l-4.9-13.7c-0.6-1.6-0.6-3.4,0-5l4.9-13.7l38-72.7
	c1.7-4.9-1.8-9.9-7-9.9H57c-3,0-5.7,1.8-6.9,4.6L0.7,194.8c-0.7,1.8-0.7,3.8,0,5.6l49.3,91.4C51.2,294.6,54,296.5,57,296.5z"/>
</svg>
