<svg width="426" height="298" viewBox="0 0 426 298" fill="none" xmlns="http://www.w3.org/2000/svg">
<rect width="426" height="298" rx="10" fill="white"/>
<rect x="0.5" y="0.5" width="425" height="297" rx="9.5" stroke="#3A3541" stroke-opacity="0.04"/>
<path d="M22.364 28L25.976 18.2H27.6L31.184 28H29.616L28.776 25.606H24.772L23.932 28H22.364ZM25.192 24.43H28.356L26.774 19.964L25.192 24.43ZM34.9062 28.168C34.0663 28.168 33.4036 27.9067 32.9183 27.384C32.4423 26.8613 32.2043 26.082 32.2043 25.046V21.056H33.6883V24.892C33.6883 26.236 34.2389 26.908 35.3403 26.908C35.8909 26.908 36.3436 26.712 36.6983 26.32C37.0529 25.928 37.2303 25.368 37.2303 24.64V21.056H38.7143V28H37.3983L37.2863 26.782C37.0716 27.2113 36.7543 27.552 36.3343 27.804C35.9236 28.0467 35.4476 28.168 34.9062 28.168ZM43.7661 28.168C43.0941 28.168 42.5014 28.0093 41.9881 27.692C41.4747 27.3747 41.0734 26.9407 40.7841 26.39C40.4947 25.8393 40.3501 25.214 40.3501 24.514C40.3501 23.814 40.4947 23.1933 40.7841 22.652C41.0734 22.1013 41.4747 21.672 41.9881 21.364C42.5107 21.0467 43.1081 20.888 43.7801 20.888C44.3307 20.888 44.8114 20.9953 45.2221 21.21C45.6421 21.4247 45.9687 21.728 46.2021 22.12V17.92H47.6861V28H46.3561L46.2021 26.922C45.9781 27.2487 45.6701 27.538 45.2781 27.79C44.8861 28.042 44.3821 28.168 43.7661 28.168ZM44.0321 26.88C44.6667 26.88 45.1847 26.6607 45.5861 26.222C45.9967 25.7833 46.2021 25.2187 46.2021 24.528C46.2021 23.828 45.9967 23.2633 45.5861 22.834C45.1847 22.3953 44.6667 22.176 44.0321 22.176C43.3974 22.176 42.8747 22.3953 42.4641 22.834C42.0534 23.2633 41.8481 23.828 41.8481 24.528C41.8481 24.9853 41.9414 25.3913 42.1281 25.746C42.3147 26.1007 42.5714 26.3807 42.8981 26.586C43.2341 26.782 43.6121 26.88 44.0321 26.88ZM50.3971 19.74C50.1171 19.74 49.8838 19.656 49.6971 19.488C49.5198 19.3107 49.4311 19.0913 49.4311 18.83C49.4311 18.5687 49.5198 18.354 49.6971 18.186C49.8838 18.0087 50.1171 17.92 50.3971 17.92C50.6771 17.92 50.9058 18.0087 51.0831 18.186C51.2698 18.354 51.3631 18.5687 51.3631 18.83C51.3631 19.0913 51.2698 19.3107 51.0831 19.488C50.9058 19.656 50.6771 19.74 50.3971 19.74ZM49.6551 28V21.056H51.1391V28H49.6551ZM56.3462 28.168C55.6648 28.168 55.0582 28.0187 54.5262 27.72C54.0035 27.412 53.5928 26.9873 53.2942 26.446C52.9955 25.9047 52.8462 25.2747 52.8462 24.556C52.8462 23.828 52.9908 23.1887 53.2802 22.638C53.5788 22.0873 53.9895 21.658 54.5122 21.35C55.0442 21.042 55.6602 20.888 56.3602 20.888C57.0415 20.888 57.6342 21.042 58.1382 21.35C58.6422 21.6487 59.0342 22.05 59.3142 22.554C59.5942 23.058 59.7342 23.6133 59.7342 24.22C59.7342 24.3133 59.7295 24.416 59.7202 24.528C59.7202 24.6307 59.7155 24.7473 59.7062 24.878H54.3022C54.3488 25.55 54.5682 26.0633 54.9602 26.418C55.3615 26.7633 55.8235 26.936 56.3462 26.936C56.7662 26.936 57.1162 26.8427 57.3962 26.656C57.6855 26.46 57.9002 26.1987 58.0402 25.872H59.5242C59.3375 26.5253 58.9642 27.0713 58.4042 27.51C57.8535 27.9487 57.1675 28.168 56.3462 28.168ZM56.3462 22.106C55.8515 22.106 55.4128 22.2553 55.0302 22.554C54.6475 22.8433 54.4142 23.282 54.3302 23.87H58.2502C58.2222 23.3287 58.0308 22.8993 57.6762 22.582C57.3215 22.2647 56.8782 22.106 56.3462 22.106ZM61.2739 28V21.056H62.5899L62.7019 22.274C62.9166 21.8447 63.2293 21.5087 63.6399 21.266C64.0599 21.014 64.5406 20.888 65.0819 20.888C65.9219 20.888 66.5799 21.1493 67.0559 21.672C67.5413 22.1947 67.7839 22.974 67.7839 24.01V28H66.3139V24.164C66.3139 22.82 65.7633 22.148 64.6619 22.148C64.1113 22.148 63.6539 22.344 63.2899 22.736C62.9353 23.128 62.7579 23.688 62.7579 24.416V28H61.2739ZM72.8218 28.168C72.1404 28.168 71.5291 28.014 70.9878 27.706C70.4558 27.398 70.0358 26.9733 69.7278 26.432C69.4291 25.8813 69.2798 25.2467 69.2798 24.528C69.2798 23.8093 69.4291 23.1793 69.7278 22.638C70.0358 22.0873 70.4558 21.658 70.9878 21.35C71.5291 21.042 72.1404 20.888 72.8218 20.888C73.6804 20.888 74.3991 21.112 74.9778 21.56C75.5658 22.008 75.9438 22.6147 76.1118 23.38H74.5578C74.4644 22.9973 74.2591 22.6987 73.9418 22.484C73.6244 22.2693 73.2511 22.162 72.8218 22.162C72.4578 22.162 72.1218 22.2553 71.8138 22.442C71.5058 22.6193 71.2584 22.8853 71.0718 23.24C70.8851 23.5853 70.7918 24.0147 70.7918 24.528C70.7918 25.0413 70.8851 25.4753 71.0718 25.83C71.2584 26.1753 71.5058 26.4413 71.8138 26.628C72.1218 26.8147 72.4578 26.908 72.8218 26.908C73.2511 26.908 73.6244 26.8007 73.9418 26.586C74.2591 26.3713 74.4644 26.068 74.5578 25.676H76.1118C75.9531 26.4227 75.5798 27.0247 74.9918 27.482C74.4038 27.9393 73.6804 28.168 72.8218 28.168ZM80.9692 28.168C80.2879 28.168 79.6812 28.0187 79.1492 27.72C78.6265 27.412 78.2159 26.9873 77.9172 26.446C77.6185 25.9047 77.4692 25.2747 77.4692 24.556C77.4692 23.828 77.6139 23.1887 77.9032 22.638C78.2019 22.0873 78.6125 21.658 79.1352 21.35C79.6672 21.042 80.2832 20.888 80.9832 20.888C81.6645 20.888 82.2572 21.042 82.7612 21.35C83.2652 21.6487 83.6572 22.05 83.9372 22.554C84.2172 23.058 84.3572 23.6133 84.3572 24.22C84.3572 24.3133 84.3525 24.416 84.3432 24.528C84.3432 24.6307 84.3385 24.7473 84.3292 24.878H78.9252C78.9719 25.55 79.1912 26.0633 79.5832 26.418C79.9845 26.7633 80.4465 26.936 80.9692 26.936C81.3892 26.936 81.7392 26.8427 82.0192 26.656C82.3085 26.46 82.5232 26.1987 82.6632 25.872H84.1472C83.9605 26.5253 83.5872 27.0713 83.0272 27.51C82.4765 27.9487 81.7905 28.168 80.9692 28.168ZM80.9692 22.106C80.4745 22.106 80.0359 22.2553 79.6532 22.554C79.2705 22.8433 79.0372 23.282 78.9532 23.87H82.8732C82.8452 23.3287 82.6539 22.8993 82.2992 22.582C81.9445 22.2647 81.5012 22.106 80.9692 22.106ZM93.7363 28.168C92.8123 28.168 92.005 27.958 91.3143 27.538C90.6237 27.118 90.087 26.53 89.7043 25.774C89.3217 25.018 89.1303 24.136 89.1303 23.128C89.1303 22.1293 89.3263 21.2473 89.7183 20.482C90.1103 19.7167 90.6657 19.1193 91.3843 18.69C92.1123 18.2513 92.971 18.032 93.9603 18.032C95.0803 18.032 96.0137 18.3027 96.7603 18.844C97.507 19.3853 97.9923 20.132 98.2163 21.084H96.5363C96.387 20.5613 96.093 20.1507 95.6543 19.852C95.2157 19.5533 94.651 19.404 93.9603 19.404C92.9337 19.404 92.1263 19.7353 91.5383 20.398C90.9503 21.0607 90.6563 21.9753 90.6563 23.142C90.6563 24.3087 90.9457 25.2187 91.5243 25.872C92.103 26.5253 92.873 26.852 93.8343 26.852C94.805 26.852 95.533 26.5767 96.0183 26.026C96.513 25.4753 96.8023 24.7427 96.8863 23.828H94.2263V22.68H98.3843V28H97.0263L96.9003 26.558C96.5737 27.0713 96.163 27.468 95.6683 27.748C95.1737 28.028 94.5297 28.168 93.7363 28.168ZM100.129 28V21.056H101.459L101.585 22.372C101.828 21.9147 102.164 21.5553 102.593 21.294C103.032 21.0233 103.559 20.888 104.175 20.888V22.442H103.769C103.359 22.442 102.99 22.512 102.663 22.652C102.346 22.7827 102.089 23.0113 101.893 23.338C101.707 23.6553 101.613 24.0987 101.613 24.668V28H100.129ZM108.504 28.168C107.842 28.168 107.244 28.0187 106.712 27.72C106.19 27.412 105.774 26.9873 105.466 26.446C105.158 25.8953 105.004 25.256 105.004 24.528C105.004 23.8 105.158 23.1653 105.466 22.624C105.784 22.0733 106.208 21.6487 106.74 21.35C107.272 21.042 107.865 20.888 108.518 20.888C109.181 20.888 109.774 21.042 110.296 21.35C110.828 21.6487 111.248 22.0733 111.556 22.624C111.874 23.1653 112.032 23.8 112.032 24.528C112.032 25.256 111.874 25.8953 111.556 26.446C111.248 26.9873 110.828 27.412 110.296 27.72C109.764 28.0187 109.167 28.168 108.504 28.168ZM108.504 26.894C108.859 26.894 109.186 26.8053 109.484 26.628C109.792 26.4507 110.04 26.1893 110.226 25.844C110.413 25.4893 110.506 25.0507 110.506 24.528C110.506 24.0053 110.413 23.5713 110.226 23.226C110.049 22.8713 109.806 22.6053 109.498 22.428C109.2 22.2507 108.873 22.162 108.518 22.162C108.164 22.162 107.832 22.2507 107.524 22.428C107.226 22.6053 106.983 22.8713 106.796 23.226C106.61 23.5713 106.516 24.0053 106.516 24.528C106.516 25.0507 106.61 25.4893 106.796 25.844C106.983 26.1893 107.226 26.4507 107.524 26.628C107.823 26.8053 108.15 26.894 108.504 26.894ZM114.763 28L112.719 21.056H114.203L115.547 26.292L117.059 21.056H118.711L120.223 26.292L121.567 21.056H123.051L121.007 28H119.481L117.885 22.54L116.289 28H114.763ZM127.186 28C126.505 28 125.963 27.8367 125.562 27.51C125.161 27.174 124.96 26.5813 124.96 25.732V22.302H123.77V21.056H124.96L125.142 19.292H126.444V21.056H128.404V22.302H126.444V25.732C126.444 26.1147 126.523 26.3807 126.682 26.53C126.85 26.67 127.135 26.74 127.536 26.74H128.334V28H127.186ZM129.934 28V17.92H131.418V22.176C131.651 21.7747 131.973 21.462 132.384 21.238C132.804 21.0047 133.266 20.888 133.77 20.888C134.601 20.888 135.254 21.1493 135.73 21.672C136.206 22.1947 136.444 22.974 136.444 24.01V28H134.974V24.164C134.974 22.82 134.437 22.148 133.364 22.148C132.804 22.148 132.337 22.344 131.964 22.736C131.6 23.128 131.418 23.688 131.418 24.416V28H129.934Z" fill="#3A3541" fill-opacity="0.68"/>
<path d="M23.6518 82.5V77.652L22.7478 77.852V77.388L23.8758 76.9H24.3318V82.5H23.6518ZM24.9379 83.452L25.4019 81.684H26.0979L25.4019 83.452H24.9379ZM29.1198 82.596C28.6238 82.596 28.1944 82.476 27.8318 82.236C27.4744 81.9907 27.1998 81.652 27.0078 81.22C26.8158 80.7827 26.7198 80.276 26.7198 79.7C26.7198 79.124 26.8158 78.62 27.0078 78.188C27.1998 77.7507 27.4744 77.412 27.8318 77.172C28.1944 76.9267 28.6238 76.804 29.1198 76.804C29.6158 76.804 30.0424 76.9267 30.3998 77.172C30.7571 77.412 31.0318 77.7507 31.2238 78.188C31.4158 78.62 31.5118 79.124 31.5118 79.7C31.5118 80.276 31.4158 80.7827 31.2238 81.22C31.0318 81.652 30.7571 81.9907 30.3998 82.236C30.0424 82.476 29.6158 82.596 29.1198 82.596ZM29.1198 82.004C29.4451 82.004 29.7358 81.9133 29.9918 81.732C30.2531 81.5453 30.4557 81.2813 30.5998 80.94C30.7491 80.5933 30.8238 80.18 30.8238 79.7C30.8238 79.22 30.7491 78.8093 30.5998 78.468C30.4557 78.1267 30.2531 77.8653 29.9918 77.684C29.7358 77.4973 29.4451 77.404 29.1198 77.404C28.7891 77.404 28.4958 77.4973 28.2398 77.684C27.9838 77.8653 27.7811 78.1267 27.6318 78.468C27.4824 78.8093 27.4078 79.22 27.4078 79.7C27.4078 80.18 27.4824 80.5933 27.6318 80.94C27.7811 81.2813 27.9838 81.5453 28.2398 81.732C28.4958 81.9133 28.7891 82.004 29.1198 82.004ZM34.6666 82.596C34.1706 82.596 33.7413 82.476 33.3786 82.236C33.0213 81.9907 32.7466 81.652 32.5546 81.22C32.3626 80.7827 32.2666 80.276 32.2666 79.7C32.2666 79.124 32.3626 78.62 32.5546 78.188C32.7466 77.7507 33.0213 77.412 33.3786 77.172C33.7413 76.9267 34.1706 76.804 34.6666 76.804C35.1626 76.804 35.5893 76.9267 35.9466 77.172C36.304 77.412 36.5786 77.7507 36.7706 78.188C36.9626 78.62 37.0586 79.124 37.0586 79.7C37.0586 80.276 36.9626 80.7827 36.7706 81.22C36.5786 81.652 36.304 81.9907 35.9466 82.236C35.5893 82.476 35.1626 82.596 34.6666 82.596ZM34.6666 82.004C34.992 82.004 35.2826 81.9133 35.5386 81.732C35.8 81.5453 36.0026 81.2813 36.1466 80.94C36.296 80.5933 36.3706 80.18 36.3706 79.7C36.3706 79.22 36.296 78.8093 36.1466 78.468C36.0026 78.1267 35.8 77.8653 35.5386 77.684C35.2826 77.4973 34.992 77.404 34.6666 77.404C34.336 77.404 34.0426 77.4973 33.7866 77.684C33.5306 77.8653 33.328 78.1267 33.1786 78.468C33.0293 78.8093 32.9546 79.22 32.9546 79.7C32.9546 80.18 33.0293 80.5933 33.1786 80.94C33.328 81.2813 33.5306 81.5453 33.7866 81.732C34.0426 81.9133 34.336 82.004 34.6666 82.004ZM40.2135 82.596C39.7175 82.596 39.2882 82.476 38.9255 82.236C38.5682 81.9907 38.2935 81.652 38.1015 81.22C37.9095 80.7827 37.8135 80.276 37.8135 79.7C37.8135 79.124 37.9095 78.62 38.1015 78.188C38.2935 77.7507 38.5682 77.412 38.9255 77.172C39.2882 76.9267 39.7175 76.804 40.2135 76.804C40.7095 76.804 41.1362 76.9267 41.4935 77.172C41.8508 77.412 42.1255 77.7507 42.3175 78.188C42.5095 78.62 42.6055 79.124 42.6055 79.7C42.6055 80.276 42.5095 80.7827 42.3175 81.22C42.1255 81.652 41.8508 81.9907 41.4935 82.236C41.1362 82.476 40.7095 82.596 40.2135 82.596ZM40.2135 82.004C40.5388 82.004 40.8295 81.9133 41.0855 81.732C41.3468 81.5453 41.5495 81.2813 41.6935 80.94C41.8428 80.5933 41.9175 80.18 41.9175 79.7C41.9175 79.22 41.8428 78.8093 41.6935 78.468C41.5495 78.1267 41.3468 77.8653 41.0855 77.684C40.8295 77.4973 40.5388 77.404 40.2135 77.404C39.8828 77.404 39.5895 77.4973 39.3335 77.684C39.0775 77.8653 38.8748 78.1267 38.7255 78.468C38.5762 78.8093 38.5015 79.22 38.5015 79.7C38.5015 80.18 38.5762 80.5933 38.7255 80.94C38.8748 81.2813 39.0775 81.5453 39.3335 81.732C39.5895 81.9133 39.8828 82.004 40.2135 82.004ZM43.4481 82.54C43.3147 82.54 43.2027 82.4973 43.1121 82.412C43.0267 82.3213 42.9841 82.212 42.9841 82.084C42.9841 81.956 43.0267 81.8493 43.1121 81.764C43.2027 81.6733 43.3147 81.628 43.4481 81.628C43.5761 81.628 43.6827 81.6733 43.7681 81.764C43.8587 81.8493 43.9041 81.956 43.9041 82.084C43.9041 82.212 43.8587 82.3213 43.7681 82.412C43.6827 82.4973 43.5761 82.54 43.4481 82.54ZM46.6823 82.596C46.1863 82.596 45.7569 82.476 45.3943 82.236C45.0369 81.9907 44.7623 81.652 44.5703 81.22C44.3783 80.7827 44.2823 80.276 44.2823 79.7C44.2823 79.124 44.3783 78.62 44.5703 78.188C44.7623 77.7507 45.0369 77.412 45.3943 77.172C45.7569 76.9267 46.1863 76.804 46.6823 76.804C47.1783 76.804 47.6049 76.9267 47.9623 77.172C48.3196 77.412 48.5943 77.7507 48.7863 78.188C48.9783 78.62 49.0743 79.124 49.0743 79.7C49.0743 80.276 48.9783 80.7827 48.7863 81.22C48.5943 81.652 48.3196 81.9907 47.9623 82.236C47.6049 82.476 47.1783 82.596 46.6823 82.596ZM46.6823 82.004C47.0076 82.004 47.2983 81.9133 47.5543 81.732C47.8156 81.5453 48.0182 81.2813 48.1623 80.94C48.3116 80.5933 48.3863 80.18 48.3863 79.7C48.3863 79.22 48.3116 78.8093 48.1623 78.468C48.0182 78.1267 47.8156 77.8653 47.5543 77.684C47.2983 77.4973 47.0076 77.404 46.6823 77.404C46.3516 77.404 46.0583 77.4973 45.8023 77.684C45.5463 77.8653 45.3436 78.1267 45.1943 78.468C45.0449 78.8093 44.9703 79.22 44.9703 79.7C44.9703 80.18 45.0449 80.5933 45.1943 80.94C45.3436 81.2813 45.5463 81.5453 45.8023 81.732C46.0583 81.9133 46.3516 82.004 46.6823 82.004ZM52.2291 82.596C51.7331 82.596 51.3038 82.476 50.9411 82.236C50.5838 81.9907 50.3091 81.652 50.1171 81.22C49.9251 80.7827 49.8291 80.276 49.8291 79.7C49.8291 79.124 49.9251 78.62 50.1171 78.188C50.3091 77.7507 50.5838 77.412 50.9411 77.172C51.3038 76.9267 51.7331 76.804 52.2291 76.804C52.7251 76.804 53.1518 76.9267 53.5091 77.172C53.8665 77.412 54.1411 77.7507 54.3331 78.188C54.5251 78.62 54.6211 79.124 54.6211 79.7C54.6211 80.276 54.5251 80.7827 54.3331 81.22C54.1411 81.652 53.8665 81.9907 53.5091 82.236C53.1518 82.476 52.7251 82.596 52.2291 82.596ZM52.2291 82.004C52.5545 82.004 52.8451 81.9133 53.1011 81.732C53.3625 81.5453 53.5651 81.2813 53.7091 80.94C53.8585 80.5933 53.9331 80.18 53.9331 79.7C53.9331 79.22 53.8585 78.8093 53.7091 78.468C53.5651 78.1267 53.3625 77.8653 53.1011 77.684C52.8451 77.4973 52.5545 77.404 52.2291 77.404C51.8985 77.404 51.6051 77.4973 51.3491 77.684C51.0931 77.8653 50.8905 78.1267 50.7411 78.468C50.5918 78.8093 50.5171 79.22 50.5171 79.7C50.5171 80.18 50.5918 80.5933 50.7411 80.94C50.8905 81.2813 51.0931 81.5453 51.3491 81.732C51.6051 81.9133 51.8985 82.004 52.2291 82.004Z" fill="#3A3541" fill-opacity="0.26"/>
<path d="M63 79.5H417" stroke="#E5E6EB" stroke-dasharray="4 4"/>
<path d="M29.4478 120.096C29.0798 120.096 28.7491 120.029 28.4558 119.896C28.1625 119.757 27.9305 119.568 27.7598 119.328C27.5945 119.083 27.5118 118.8 27.5118 118.48C27.5118 118.139 27.6105 117.832 27.8078 117.56C28.0105 117.288 28.2771 117.107 28.6078 117.016C28.3038 116.915 28.0691 116.752 27.9038 116.528C27.7385 116.304 27.6558 116.059 27.6558 115.792C27.6558 115.52 27.7278 115.272 27.8718 115.048C28.0158 114.819 28.2211 114.637 28.4878 114.504C28.7545 114.371 29.0745 114.304 29.4478 114.304C29.8211 114.304 30.1411 114.371 30.4078 114.504C30.6745 114.637 30.8798 114.819 31.0238 115.048C31.1678 115.272 31.2398 115.52 31.2398 115.792C31.2398 116.053 31.1571 116.299 30.9918 116.528C30.8265 116.752 30.5918 116.915 30.2878 117.016C30.6185 117.107 30.8825 117.288 31.0798 117.56C31.2825 117.832 31.3838 118.139 31.3838 118.48C31.3838 118.8 31.2985 119.083 31.1278 119.328C30.9625 119.568 30.7331 119.757 30.4398 119.896C30.1465 120.029 29.8158 120.096 29.4478 120.096ZM29.4478 116.776C29.7891 116.776 30.0585 116.691 30.2558 116.52C30.4585 116.344 30.5598 116.115 30.5598 115.832C30.5598 115.517 30.4611 115.28 30.2638 115.12C30.0665 114.96 29.7945 114.88 29.4478 114.88C29.1011 114.88 28.8291 114.96 28.6318 115.12C28.4398 115.28 28.3438 115.517 28.3438 115.832C28.3438 116.115 28.4425 116.344 28.6398 116.52C28.8371 116.691 29.1065 116.776 29.4478 116.776ZM29.4478 119.504C29.8691 119.504 30.1838 119.408 30.3918 119.216C30.6051 119.019 30.7118 118.76 30.7118 118.44C30.7118 118.077 30.5971 117.803 30.3678 117.616C30.1385 117.429 29.8318 117.336 29.4478 117.336C29.0638 117.336 28.7571 117.429 28.5278 117.616C28.2985 117.803 28.1838 118.077 28.1838 118.44C28.1838 118.76 28.2878 119.019 28.4958 119.216C28.7091 119.408 29.0265 119.504 29.4478 119.504ZM34.6666 120.096C34.1706 120.096 33.7413 119.976 33.3786 119.736C33.0213 119.491 32.7466 119.152 32.5546 118.72C32.3626 118.283 32.2666 117.776 32.2666 117.2C32.2666 116.624 32.3626 116.12 32.5546 115.688C32.7466 115.251 33.0213 114.912 33.3786 114.672C33.7413 114.427 34.1706 114.304 34.6666 114.304C35.1626 114.304 35.5893 114.427 35.9466 114.672C36.304 114.912 36.5786 115.251 36.7706 115.688C36.9626 116.12 37.0586 116.624 37.0586 117.2C37.0586 117.776 36.9626 118.283 36.7706 118.72C36.5786 119.152 36.304 119.491 35.9466 119.736C35.5893 119.976 35.1626 120.096 34.6666 120.096ZM34.6666 119.504C34.992 119.504 35.2826 119.413 35.5386 119.232C35.8 119.045 36.0026 118.781 36.1466 118.44C36.296 118.093 36.3706 117.68 36.3706 117.2C36.3706 116.72 36.296 116.309 36.1466 115.968C36.0026 115.627 35.8 115.365 35.5386 115.184C35.2826 114.997 34.992 114.904 34.6666 114.904C34.336 114.904 34.0426 114.997 33.7866 115.184C33.5306 115.365 33.328 115.627 33.1786 115.968C33.0293 116.309 32.9546 116.72 32.9546 117.2C32.9546 117.68 33.0293 118.093 33.1786 118.44C33.328 118.781 33.5306 119.045 33.7866 119.232C34.0426 119.413 34.336 119.504 34.6666 119.504ZM40.2135 120.096C39.7175 120.096 39.2882 119.976 38.9255 119.736C38.5682 119.491 38.2935 119.152 38.1015 118.72C37.9095 118.283 37.8135 117.776 37.8135 117.2C37.8135 116.624 37.9095 116.12 38.1015 115.688C38.2935 115.251 38.5682 114.912 38.9255 114.672C39.2882 114.427 39.7175 114.304 40.2135 114.304C40.7095 114.304 41.1362 114.427 41.4935 114.672C41.8508 114.912 42.1255 115.251 42.3175 115.688C42.5095 116.12 42.6055 116.624 42.6055 117.2C42.6055 117.776 42.5095 118.283 42.3175 118.72C42.1255 119.152 41.8508 119.491 41.4935 119.736C41.1362 119.976 40.7095 120.096 40.2135 120.096ZM40.2135 119.504C40.5388 119.504 40.8295 119.413 41.0855 119.232C41.3468 119.045 41.5495 118.781 41.6935 118.44C41.8428 118.093 41.9175 117.68 41.9175 117.2C41.9175 116.72 41.8428 116.309 41.6935 115.968C41.5495 115.627 41.3468 115.365 41.0855 115.184C40.8295 114.997 40.5388 114.904 40.2135 114.904C39.8828 114.904 39.5895 114.997 39.3335 115.184C39.0775 115.365 38.8748 115.627 38.7255 115.968C38.5762 116.309 38.5015 116.72 38.5015 117.2C38.5015 117.68 38.5762 118.093 38.7255 118.44C38.8748 118.781 39.0775 119.045 39.3335 119.232C39.5895 119.413 39.8828 119.504 40.2135 119.504ZM43.4481 120.04C43.3147 120.04 43.2027 119.997 43.1121 119.912C43.0267 119.821 42.9841 119.712 42.9841 119.584C42.9841 119.456 43.0267 119.349 43.1121 119.264C43.2027 119.173 43.3147 119.128 43.4481 119.128C43.5761 119.128 43.6827 119.173 43.7681 119.264C43.8587 119.349 43.9041 119.456 43.9041 119.584C43.9041 119.712 43.8587 119.821 43.7681 119.912C43.6827 119.997 43.5761 120.04 43.4481 120.04ZM46.6823 120.096C46.1863 120.096 45.7569 119.976 45.3943 119.736C45.0369 119.491 44.7623 119.152 44.5703 118.72C44.3783 118.283 44.2823 117.776 44.2823 117.2C44.2823 116.624 44.3783 116.12 44.5703 115.688C44.7623 115.251 45.0369 114.912 45.3943 114.672C45.7569 114.427 46.1863 114.304 46.6823 114.304C47.1783 114.304 47.6049 114.427 47.9623 114.672C48.3196 114.912 48.5943 115.251 48.7863 115.688C48.9783 116.12 49.0743 116.624 49.0743 117.2C49.0743 117.776 48.9783 118.283 48.7863 118.72C48.5943 119.152 48.3196 119.491 47.9623 119.736C47.6049 119.976 47.1783 120.096 46.6823 120.096ZM46.6823 119.504C47.0076 119.504 47.2983 119.413 47.5543 119.232C47.8156 119.045 48.0182 118.781 48.1623 118.44C48.3116 118.093 48.3863 117.68 48.3863 117.2C48.3863 116.72 48.3116 116.309 48.1623 115.968C48.0182 115.627 47.8156 115.365 47.5543 115.184C47.2983 114.997 47.0076 114.904 46.6823 114.904C46.3516 114.904 46.0583 114.997 45.8023 115.184C45.5463 115.365 45.3436 115.627 45.1943 115.968C45.0449 116.309 44.9703 116.72 44.9703 117.2C44.9703 117.68 45.0449 118.093 45.1943 118.44C45.3436 118.781 45.5463 119.045 45.8023 119.232C46.0583 119.413 46.3516 119.504 46.6823 119.504ZM52.2291 120.096C51.7331 120.096 51.3038 119.976 50.9411 119.736C50.5838 119.491 50.3091 119.152 50.1171 118.72C49.9251 118.283 49.8291 117.776 49.8291 117.2C49.8291 116.624 49.9251 116.12 50.1171 115.688C50.3091 115.251 50.5838 114.912 50.9411 114.672C51.3038 114.427 51.7331 114.304 52.2291 114.304C52.7251 114.304 53.1518 114.427 53.5091 114.672C53.8665 114.912 54.1411 115.251 54.3331 115.688C54.5251 116.12 54.6211 116.624 54.6211 117.2C54.6211 117.776 54.5251 118.283 54.3331 118.72C54.1411 119.152 53.8665 119.491 53.5091 119.736C53.1518 119.976 52.7251 120.096 52.2291 120.096ZM52.2291 119.504C52.5545 119.504 52.8451 119.413 53.1011 119.232C53.3625 119.045 53.5651 118.781 53.7091 118.44C53.8585 118.093 53.9331 117.68 53.9331 117.2C53.9331 116.72 53.8585 116.309 53.7091 115.968C53.5651 115.627 53.3625 115.365 53.1011 115.184C52.8451 114.997 52.5545 114.904 52.2291 114.904C51.8985 114.904 51.6051 114.997 51.3491 115.184C51.0931 115.365 50.8905 115.627 50.7411 115.968C50.5918 116.309 50.5171 116.72 50.5171 117.2C50.5171 117.68 50.5918 118.093 50.7411 118.44C50.8905 118.781 51.0931 119.045 51.3491 119.232C51.6051 119.413 51.8985 119.504 52.2291 119.504Z" fill="#3A3541" fill-opacity="0.26"/>
<path d="M63 117H417" stroke="#E5E6EB" stroke-dasharray="4 4"/>
<path d="M29.4596 158.096C29.0542 158.096 28.7129 158.021 28.4356 157.872C28.1582 157.717 27.9342 157.512 27.7636 157.256C27.5982 157 27.4756 156.715 27.3956 156.4C27.3209 156.08 27.2836 155.755 27.2836 155.424C27.2836 154.805 27.3689 154.264 27.5396 153.8C27.7102 153.331 27.9556 152.965 28.2756 152.704C28.6009 152.437 28.9929 152.304 29.4516 152.304C29.8036 152.304 30.1049 152.373 30.3556 152.512C30.6062 152.651 30.8036 152.837 30.9476 153.072C31.0969 153.301 31.1902 153.557 31.2276 153.84H30.6036C30.5449 153.536 30.4142 153.301 30.2116 153.136C30.0089 152.971 29.7529 152.888 29.4436 152.888C29.0222 152.888 28.6676 153.088 28.3796 153.488C28.0969 153.883 27.9449 154.501 27.9236 155.344C28.0516 155.093 28.2542 154.877 28.5316 154.696C28.8142 154.509 29.1529 154.416 29.5476 154.416C29.8676 154.416 30.1662 154.491 30.4436 154.64C30.7262 154.789 30.9556 155 31.1316 155.272C31.3076 155.539 31.3956 155.853 31.3956 156.216C31.3956 156.531 31.3182 156.832 31.1636 157.12C31.0089 157.408 30.7849 157.643 30.4916 157.824C30.2036 158.005 29.8596 158.096 29.4596 158.096ZM29.4116 157.504C29.6622 157.504 29.8862 157.451 30.0836 157.344C30.2809 157.237 30.4356 157.091 30.5476 156.904C30.6596 156.712 30.7156 156.493 30.7156 156.248C30.7156 155.869 30.5902 155.568 30.3396 155.344C30.0942 155.115 29.7849 155 29.4116 155C29.1609 155 28.9369 155.059 28.7396 155.176C28.5422 155.288 28.3849 155.44 28.2676 155.632C28.1556 155.824 28.0996 156.032 28.0996 156.256C28.0996 156.496 28.1556 156.712 28.2676 156.904C28.3849 157.091 28.5422 157.237 28.7396 157.344C28.9369 157.451 29.1609 157.504 29.4116 157.504ZM34.6666 158.096C34.1706 158.096 33.7413 157.976 33.3786 157.736C33.0213 157.491 32.7466 157.152 32.5546 156.72C32.3626 156.283 32.2666 155.776 32.2666 155.2C32.2666 154.624 32.3626 154.12 32.5546 153.688C32.7466 153.251 33.0213 152.912 33.3786 152.672C33.7413 152.427 34.1706 152.304 34.6666 152.304C35.1626 152.304 35.5893 152.427 35.9466 152.672C36.304 152.912 36.5786 153.251 36.7706 153.688C36.9626 154.12 37.0586 154.624 37.0586 155.2C37.0586 155.776 36.9626 156.283 36.7706 156.72C36.5786 157.152 36.304 157.491 35.9466 157.736C35.5893 157.976 35.1626 158.096 34.6666 158.096ZM34.6666 157.504C34.992 157.504 35.2826 157.413 35.5386 157.232C35.8 157.045 36.0026 156.781 36.1466 156.44C36.296 156.093 36.3706 155.68 36.3706 155.2C36.3706 154.72 36.296 154.309 36.1466 153.968C36.0026 153.627 35.8 153.365 35.5386 153.184C35.2826 152.997 34.992 152.904 34.6666 152.904C34.336 152.904 34.0426 152.997 33.7866 153.184C33.5306 153.365 33.328 153.627 33.1786 153.968C33.0293 154.309 32.9546 154.72 32.9546 155.2C32.9546 155.68 33.0293 156.093 33.1786 156.44C33.328 156.781 33.5306 157.045 33.7866 157.232C34.0426 157.413 34.336 157.504 34.6666 157.504ZM40.2135 158.096C39.7175 158.096 39.2882 157.976 38.9255 157.736C38.5682 157.491 38.2935 157.152 38.1015 156.72C37.9095 156.283 37.8135 155.776 37.8135 155.2C37.8135 154.624 37.9095 154.12 38.1015 153.688C38.2935 153.251 38.5682 152.912 38.9255 152.672C39.2882 152.427 39.7175 152.304 40.2135 152.304C40.7095 152.304 41.1362 152.427 41.4935 152.672C41.8508 152.912 42.1255 153.251 42.3175 153.688C42.5095 154.12 42.6055 154.624 42.6055 155.2C42.6055 155.776 42.5095 156.283 42.3175 156.72C42.1255 157.152 41.8508 157.491 41.4935 157.736C41.1362 157.976 40.7095 158.096 40.2135 158.096ZM40.2135 157.504C40.5388 157.504 40.8295 157.413 41.0855 157.232C41.3468 157.045 41.5495 156.781 41.6935 156.44C41.8428 156.093 41.9175 155.68 41.9175 155.2C41.9175 154.72 41.8428 154.309 41.6935 153.968C41.5495 153.627 41.3468 153.365 41.0855 153.184C40.8295 152.997 40.5388 152.904 40.2135 152.904C39.8828 152.904 39.5895 152.997 39.3335 153.184C39.0775 153.365 38.8748 153.627 38.7255 153.968C38.5762 154.309 38.5015 154.72 38.5015 155.2C38.5015 155.68 38.5762 156.093 38.7255 156.44C38.8748 156.781 39.0775 157.045 39.3335 157.232C39.5895 157.413 39.8828 157.504 40.2135 157.504ZM43.4481 158.04C43.3147 158.04 43.2027 157.997 43.1121 157.912C43.0267 157.821 42.9841 157.712 42.9841 157.584C42.9841 157.456 43.0267 157.349 43.1121 157.264C43.2027 157.173 43.3147 157.128 43.4481 157.128C43.5761 157.128 43.6827 157.173 43.7681 157.264C43.8587 157.349 43.9041 157.456 43.9041 157.584C43.9041 157.712 43.8587 157.821 43.7681 157.912C43.6827 157.997 43.5761 158.04 43.4481 158.04ZM46.6823 158.096C46.1863 158.096 45.7569 157.976 45.3943 157.736C45.0369 157.491 44.7623 157.152 44.5703 156.72C44.3783 156.283 44.2823 155.776 44.2823 155.2C44.2823 154.624 44.3783 154.12 44.5703 153.688C44.7623 153.251 45.0369 152.912 45.3943 152.672C45.7569 152.427 46.1863 152.304 46.6823 152.304C47.1783 152.304 47.6049 152.427 47.9623 152.672C48.3196 152.912 48.5943 153.251 48.7863 153.688C48.9783 154.12 49.0743 154.624 49.0743 155.2C49.0743 155.776 48.9783 156.283 48.7863 156.72C48.5943 157.152 48.3196 157.491 47.9623 157.736C47.6049 157.976 47.1783 158.096 46.6823 158.096ZM46.6823 157.504C47.0076 157.504 47.2983 157.413 47.5543 157.232C47.8156 157.045 48.0182 156.781 48.1623 156.44C48.3116 156.093 48.3863 155.68 48.3863 155.2C48.3863 154.72 48.3116 154.309 48.1623 153.968C48.0182 153.627 47.8156 153.365 47.5543 153.184C47.2983 152.997 47.0076 152.904 46.6823 152.904C46.3516 152.904 46.0583 152.997 45.8023 153.184C45.5463 153.365 45.3436 153.627 45.1943 153.968C45.0449 154.309 44.9703 154.72 44.9703 155.2C44.9703 155.68 45.0449 156.093 45.1943 156.44C45.3436 156.781 45.5463 157.045 45.8023 157.232C46.0583 157.413 46.3516 157.504 46.6823 157.504ZM52.2291 158.096C51.7331 158.096 51.3038 157.976 50.9411 157.736C50.5838 157.491 50.3091 157.152 50.1171 156.72C49.9251 156.283 49.8291 155.776 49.8291 155.2C49.8291 154.624 49.9251 154.12 50.1171 153.688C50.3091 153.251 50.5838 152.912 50.9411 152.672C51.3038 152.427 51.7331 152.304 52.2291 152.304C52.7251 152.304 53.1518 152.427 53.5091 152.672C53.8665 152.912 54.1411 153.251 54.3331 153.688C54.5251 154.12 54.6211 154.624 54.6211 155.2C54.6211 155.776 54.5251 156.283 54.3331 156.72C54.1411 157.152 53.8665 157.491 53.5091 157.736C53.1518 157.976 52.7251 158.096 52.2291 158.096ZM52.2291 157.504C52.5545 157.504 52.8451 157.413 53.1011 157.232C53.3625 157.045 53.5651 156.781 53.7091 156.44C53.8585 156.093 53.9331 155.68 53.9331 155.2C53.9331 154.72 53.8585 154.309 53.7091 153.968C53.5651 153.627 53.3625 153.365 53.1011 153.184C52.8451 152.997 52.5545 152.904 52.2291 152.904C51.8985 152.904 51.6051 152.997 51.3491 153.184C51.0931 153.365 50.8905 153.627 50.7411 153.968C50.5918 154.309 50.5171 154.72 50.5171 155.2C50.5171 155.68 50.5918 156.093 50.7411 156.44C50.8905 156.781 51.0931 157.045 51.3491 157.232C51.6051 157.413 51.8985 157.504 52.2291 157.504Z" fill="#3A3541" fill-opacity="0.26"/>
<path d="M63 155H417" stroke="#E5E6EB" stroke-dasharray="4 4"/>
<path d="M30.1749 195.5V194.3H27.3349V193.78L30.0549 189.9H30.8389V193.708H31.6709V194.3H30.8389V195.5H30.1749ZM28.0789 193.708H30.2069V190.644L28.0789 193.708ZM34.6666 195.596C34.1706 195.596 33.7413 195.476 33.3786 195.236C33.0213 194.991 32.7466 194.652 32.5546 194.22C32.3626 193.783 32.2666 193.276 32.2666 192.7C32.2666 192.124 32.3626 191.62 32.5546 191.188C32.7466 190.751 33.0213 190.412 33.3786 190.172C33.7413 189.927 34.1706 189.804 34.6666 189.804C35.1626 189.804 35.5893 189.927 35.9466 190.172C36.304 190.412 36.5786 190.751 36.7706 191.188C36.9626 191.62 37.0586 192.124 37.0586 192.7C37.0586 193.276 36.9626 193.783 36.7706 194.22C36.5786 194.652 36.304 194.991 35.9466 195.236C35.5893 195.476 35.1626 195.596 34.6666 195.596ZM34.6666 195.004C34.992 195.004 35.2826 194.913 35.5386 194.732C35.8 194.545 36.0026 194.281 36.1466 193.94C36.296 193.593 36.3706 193.18 36.3706 192.7C36.3706 192.22 36.296 191.809 36.1466 191.468C36.0026 191.127 35.8 190.865 35.5386 190.684C35.2826 190.497 34.992 190.404 34.6666 190.404C34.336 190.404 34.0426 190.497 33.7866 190.684C33.5306 190.865 33.328 191.127 33.1786 191.468C33.0293 191.809 32.9546 192.22 32.9546 192.7C32.9546 193.18 33.0293 193.593 33.1786 193.94C33.328 194.281 33.5306 194.545 33.7866 194.732C34.0426 194.913 34.336 195.004 34.6666 195.004ZM40.2135 195.596C39.7175 195.596 39.2882 195.476 38.9255 195.236C38.5682 194.991 38.2935 194.652 38.1015 194.22C37.9095 193.783 37.8135 193.276 37.8135 192.7C37.8135 192.124 37.9095 191.62 38.1015 191.188C38.2935 190.751 38.5682 190.412 38.9255 190.172C39.2882 189.927 39.7175 189.804 40.2135 189.804C40.7095 189.804 41.1362 189.927 41.4935 190.172C41.8508 190.412 42.1255 190.751 42.3175 191.188C42.5095 191.62 42.6055 192.124 42.6055 192.7C42.6055 193.276 42.5095 193.783 42.3175 194.22C42.1255 194.652 41.8508 194.991 41.4935 195.236C41.1362 195.476 40.7095 195.596 40.2135 195.596ZM40.2135 195.004C40.5388 195.004 40.8295 194.913 41.0855 194.732C41.3468 194.545 41.5495 194.281 41.6935 193.94C41.8428 193.593 41.9175 193.18 41.9175 192.7C41.9175 192.22 41.8428 191.809 41.6935 191.468C41.5495 191.127 41.3468 190.865 41.0855 190.684C40.8295 190.497 40.5388 190.404 40.2135 190.404C39.8828 190.404 39.5895 190.497 39.3335 190.684C39.0775 190.865 38.8748 191.127 38.7255 191.468C38.5762 191.809 38.5015 192.22 38.5015 192.7C38.5015 193.18 38.5762 193.593 38.7255 193.94C38.8748 194.281 39.0775 194.545 39.3335 194.732C39.5895 194.913 39.8828 195.004 40.2135 195.004ZM43.4481 195.54C43.3147 195.54 43.2027 195.497 43.1121 195.412C43.0267 195.321 42.9841 195.212 42.9841 195.084C42.9841 194.956 43.0267 194.849 43.1121 194.764C43.2027 194.673 43.3147 194.628 43.4481 194.628C43.5761 194.628 43.6827 194.673 43.7681 194.764C43.8587 194.849 43.9041 194.956 43.9041 195.084C43.9041 195.212 43.8587 195.321 43.7681 195.412C43.6827 195.497 43.5761 195.54 43.4481 195.54ZM46.6823 195.596C46.1863 195.596 45.7569 195.476 45.3943 195.236C45.0369 194.991 44.7623 194.652 44.5703 194.22C44.3783 193.783 44.2823 193.276 44.2823 192.7C44.2823 192.124 44.3783 191.62 44.5703 191.188C44.7623 190.751 45.0369 190.412 45.3943 190.172C45.7569 189.927 46.1863 189.804 46.6823 189.804C47.1783 189.804 47.6049 189.927 47.9623 190.172C48.3196 190.412 48.5943 190.751 48.7863 191.188C48.9783 191.62 49.0743 192.124 49.0743 192.7C49.0743 193.276 48.9783 193.783 48.7863 194.22C48.5943 194.652 48.3196 194.991 47.9623 195.236C47.6049 195.476 47.1783 195.596 46.6823 195.596ZM46.6823 195.004C47.0076 195.004 47.2983 194.913 47.5543 194.732C47.8156 194.545 48.0182 194.281 48.1623 193.94C48.3116 193.593 48.3863 193.18 48.3863 192.7C48.3863 192.22 48.3116 191.809 48.1623 191.468C48.0182 191.127 47.8156 190.865 47.5543 190.684C47.2983 190.497 47.0076 190.404 46.6823 190.404C46.3516 190.404 46.0583 190.497 45.8023 190.684C45.5463 190.865 45.3436 191.127 45.1943 191.468C45.0449 191.809 44.9703 192.22 44.9703 192.7C44.9703 193.18 45.0449 193.593 45.1943 193.94C45.3436 194.281 45.5463 194.545 45.8023 194.732C46.0583 194.913 46.3516 195.004 46.6823 195.004ZM52.2291 195.596C51.7331 195.596 51.3038 195.476 50.9411 195.236C50.5838 194.991 50.3091 194.652 50.1171 194.22C49.9251 193.783 49.8291 193.276 49.8291 192.7C49.8291 192.124 49.9251 191.62 50.1171 191.188C50.3091 190.751 50.5838 190.412 50.9411 190.172C51.3038 189.927 51.7331 189.804 52.2291 189.804C52.7251 189.804 53.1518 189.927 53.5091 190.172C53.8665 190.412 54.1411 190.751 54.3331 191.188C54.5251 191.62 54.6211 192.124 54.6211 192.7C54.6211 193.276 54.5251 193.783 54.3331 194.22C54.1411 194.652 53.8665 194.991 53.5091 195.236C53.1518 195.476 52.7251 195.596 52.2291 195.596ZM52.2291 195.004C52.5545 195.004 52.8451 194.913 53.1011 194.732C53.3625 194.545 53.5651 194.281 53.7091 193.94C53.8585 193.593 53.9331 193.18 53.9331 192.7C53.9331 192.22 53.8585 191.809 53.7091 191.468C53.5651 191.127 53.3625 190.865 53.1011 190.684C52.8451 190.497 52.5545 190.404 52.2291 190.404C51.8985 190.404 51.6051 190.497 51.3491 190.684C51.0931 190.865 50.8905 191.127 50.7411 191.468C50.5918 191.809 50.5171 192.22 50.5171 192.7C50.5171 193.18 50.5918 193.593 50.7411 193.94C50.8905 194.281 51.0931 194.545 51.3491 194.732C51.6051 194.913 51.8985 195.004 52.2291 195.004Z" fill="#3A3541" fill-opacity="0.26"/>
<path d="M63 192.5H417" stroke="#E5E6EB" stroke-dasharray="4 4"/>
<path d="M27.8946 233V232.528C28.2733 232.229 28.6306 231.928 28.9666 231.624C29.308 231.315 29.6093 231.011 29.8706 230.712C30.1373 230.413 30.3453 230.12 30.4946 229.832C30.6493 229.544 30.7266 229.267 30.7266 229C30.7266 228.803 30.692 228.619 30.6226 228.448C30.5586 228.277 30.452 228.141 30.3026 228.04C30.1533 227.933 29.9506 227.88 29.6946 227.88C29.4493 227.88 29.244 227.936 29.0786 228.048C28.9133 228.155 28.788 228.299 28.7026 228.48C28.6226 228.661 28.5826 228.856 28.5826 229.064H27.9346C27.9346 228.696 28.012 228.381 28.1666 228.12C28.3213 227.853 28.532 227.651 28.7986 227.512C29.0653 227.373 29.3666 227.304 29.7026 227.304C30.1986 227.304 30.604 227.445 30.9186 227.728C31.2386 228.005 31.3986 228.421 31.3986 228.976C31.3986 229.307 31.316 229.635 31.1506 229.96C30.9853 230.28 30.7746 230.592 30.5186 230.896C30.2626 231.195 29.988 231.475 29.6946 231.736C29.4066 231.997 29.1373 232.232 28.8866 232.44H31.5906V233H27.8946ZM34.6666 233.096C34.1706 233.096 33.7413 232.976 33.3786 232.736C33.0213 232.491 32.7466 232.152 32.5546 231.72C32.3626 231.283 32.2666 230.776 32.2666 230.2C32.2666 229.624 32.3626 229.12 32.5546 228.688C32.7466 228.251 33.0213 227.912 33.3786 227.672C33.7413 227.427 34.1706 227.304 34.6666 227.304C35.1626 227.304 35.5893 227.427 35.9466 227.672C36.304 227.912 36.5786 228.251 36.7706 228.688C36.9626 229.12 37.0586 229.624 37.0586 230.2C37.0586 230.776 36.9626 231.283 36.7706 231.72C36.5786 232.152 36.304 232.491 35.9466 232.736C35.5893 232.976 35.1626 233.096 34.6666 233.096ZM34.6666 232.504C34.992 232.504 35.2826 232.413 35.5386 232.232C35.8 232.045 36.0026 231.781 36.1466 231.44C36.296 231.093 36.3706 230.68 36.3706 230.2C36.3706 229.72 36.296 229.309 36.1466 228.968C36.0026 228.627 35.8 228.365 35.5386 228.184C35.2826 227.997 34.992 227.904 34.6666 227.904C34.336 227.904 34.0426 227.997 33.7866 228.184C33.5306 228.365 33.328 228.627 33.1786 228.968C33.0293 229.309 32.9546 229.72 32.9546 230.2C32.9546 230.68 33.0293 231.093 33.1786 231.44C33.328 231.781 33.5306 232.045 33.7866 232.232C34.0426 232.413 34.336 232.504 34.6666 232.504ZM40.2135 233.096C39.7175 233.096 39.2882 232.976 38.9255 232.736C38.5682 232.491 38.2935 232.152 38.1015 231.72C37.9095 231.283 37.8135 230.776 37.8135 230.2C37.8135 229.624 37.9095 229.12 38.1015 228.688C38.2935 228.251 38.5682 227.912 38.9255 227.672C39.2882 227.427 39.7175 227.304 40.2135 227.304C40.7095 227.304 41.1362 227.427 41.4935 227.672C41.8508 227.912 42.1255 228.251 42.3175 228.688C42.5095 229.12 42.6055 229.624 42.6055 230.2C42.6055 230.776 42.5095 231.283 42.3175 231.72C42.1255 232.152 41.8508 232.491 41.4935 232.736C41.1362 232.976 40.7095 233.096 40.2135 233.096ZM40.2135 232.504C40.5388 232.504 40.8295 232.413 41.0855 232.232C41.3468 232.045 41.5495 231.781 41.6935 231.44C41.8428 231.093 41.9175 230.68 41.9175 230.2C41.9175 229.72 41.8428 229.309 41.6935 228.968C41.5495 228.627 41.3468 228.365 41.0855 228.184C40.8295 227.997 40.5388 227.904 40.2135 227.904C39.8828 227.904 39.5895 227.997 39.3335 228.184C39.0775 228.365 38.8748 228.627 38.7255 228.968C38.5762 229.309 38.5015 229.72 38.5015 230.2C38.5015 230.68 38.5762 231.093 38.7255 231.44C38.8748 231.781 39.0775 232.045 39.3335 232.232C39.5895 232.413 39.8828 232.504 40.2135 232.504ZM43.4481 233.04C43.3147 233.04 43.2027 232.997 43.1121 232.912C43.0267 232.821 42.9841 232.712 42.9841 232.584C42.9841 232.456 43.0267 232.349 43.1121 232.264C43.2027 232.173 43.3147 232.128 43.4481 232.128C43.5761 232.128 43.6827 232.173 43.7681 232.264C43.8587 232.349 43.9041 232.456 43.9041 232.584C43.9041 232.712 43.8587 232.821 43.7681 232.912C43.6827 232.997 43.5761 233.04 43.4481 233.04ZM46.6823 233.096C46.1863 233.096 45.7569 232.976 45.3943 232.736C45.0369 232.491 44.7623 232.152 44.5703 231.72C44.3783 231.283 44.2823 230.776 44.2823 230.2C44.2823 229.624 44.3783 229.12 44.5703 228.688C44.7623 228.251 45.0369 227.912 45.3943 227.672C45.7569 227.427 46.1863 227.304 46.6823 227.304C47.1783 227.304 47.6049 227.427 47.9623 227.672C48.3196 227.912 48.5943 228.251 48.7863 228.688C48.9783 229.12 49.0743 229.624 49.0743 230.2C49.0743 230.776 48.9783 231.283 48.7863 231.72C48.5943 232.152 48.3196 232.491 47.9623 232.736C47.6049 232.976 47.1783 233.096 46.6823 233.096ZM46.6823 232.504C47.0076 232.504 47.2983 232.413 47.5543 232.232C47.8156 232.045 48.0182 231.781 48.1623 231.44C48.3116 231.093 48.3863 230.68 48.3863 230.2C48.3863 229.72 48.3116 229.309 48.1623 228.968C48.0182 228.627 47.8156 228.365 47.5543 228.184C47.2983 227.997 47.0076 227.904 46.6823 227.904C46.3516 227.904 46.0583 227.997 45.8023 228.184C45.5463 228.365 45.3436 228.627 45.1943 228.968C45.0449 229.309 44.9703 229.72 44.9703 230.2C44.9703 230.68 45.0449 231.093 45.1943 231.44C45.3436 231.781 45.5463 232.045 45.8023 232.232C46.0583 232.413 46.3516 232.504 46.6823 232.504ZM52.2291 233.096C51.7331 233.096 51.3038 232.976 50.9411 232.736C50.5838 232.491 50.3091 232.152 50.1171 231.72C49.9251 231.283 49.8291 230.776 49.8291 230.2C49.8291 229.624 49.9251 229.12 50.1171 228.688C50.3091 228.251 50.5838 227.912 50.9411 227.672C51.3038 227.427 51.7331 227.304 52.2291 227.304C52.7251 227.304 53.1518 227.427 53.5091 227.672C53.8665 227.912 54.1411 228.251 54.3331 228.688C54.5251 229.12 54.6211 229.624 54.6211 230.2C54.6211 230.776 54.5251 231.283 54.3331 231.72C54.1411 232.152 53.8665 232.491 53.5091 232.736C53.1518 232.976 52.7251 233.096 52.2291 233.096ZM52.2291 232.504C52.5545 232.504 52.8451 232.413 53.1011 232.232C53.3625 232.045 53.5651 231.781 53.7091 231.44C53.8585 231.093 53.9331 230.68 53.9331 230.2C53.9331 229.72 53.8585 229.309 53.7091 228.968C53.5651 228.627 53.3625 228.365 53.1011 228.184C52.8451 227.997 52.5545 227.904 52.2291 227.904C51.8985 227.904 51.6051 227.997 51.3491 228.184C51.0931 228.365 50.8905 228.627 50.7411 228.968C50.5918 229.309 50.5171 229.72 50.5171 230.2C50.5171 230.68 50.5918 231.093 50.7411 231.44C50.8905 231.781 51.0931 232.045 51.3491 232.232C51.6051 232.413 51.8985 232.504 52.2291 232.504Z" fill="#3A3541" fill-opacity="0.26"/>
<path d="M63 230H417" stroke="#E5E6EB" stroke-dasharray="4 4"/>
<rect x="349.724" y="53" width="12" height="12" rx="6" fill="#3C3CCE"/>
<path d="M366.464 62V55H367.304V61.33H370.564V62H366.464ZM372.178 55.94C372.011 55.94 371.871 55.8867 371.758 55.78C371.651 55.6667 371.598 55.5267 371.598 55.36C371.598 55.2 371.651 55.0667 371.758 54.96C371.871 54.8533 372.011 54.8 372.178 54.8C372.338 54.8 372.474 54.8533 372.588 54.96C372.701 55.0667 372.758 55.2 372.758 55.36C372.758 55.5267 372.701 55.6667 372.588 55.78C372.474 55.8867 372.338 55.94 372.178 55.94ZM371.758 62V57.04H372.598V62H371.758ZM374.06 62V57.04H374.82L374.87 57.93C375.03 57.6167 375.26 57.37 375.56 57.19C375.86 57.01 376.2 56.92 376.58 56.92C377.167 56.92 377.633 57.1 377.98 57.46C378.333 57.8133 378.51 58.36 378.51 59.1V62H377.67V59.19C377.67 58.1567 377.243 57.64 376.39 57.64C375.963 57.64 375.607 57.7967 375.32 58.11C375.04 58.4167 374.9 58.8567 374.9 59.43V62H374.06ZM379.783 62V54.8H380.623V59.13L382.653 57.04H383.683L381.483 59.28L383.963 62H382.893L380.623 59.43V62H379.783ZM386.691 62.12C386.217 62.12 385.797 62.0133 385.431 61.8C385.064 61.58 384.774 61.2767 384.561 60.89C384.354 60.5033 384.251 60.0467 384.251 59.52C384.251 59 384.354 58.5467 384.561 58.16C384.767 57.7667 385.054 57.4633 385.421 57.25C385.794 57.03 386.224 56.92 386.711 56.92C387.191 56.92 387.604 57.03 387.951 57.25C388.304 57.4633 388.574 57.7467 388.761 58.1C388.947 58.4533 389.041 58.8333 389.041 59.24C389.041 59.3133 389.037 59.3867 389.031 59.46C389.031 59.5333 389.031 59.6167 389.031 59.71H385.081C385.101 60.09 385.187 60.4067 385.341 60.66C385.501 60.9067 385.697 61.0933 385.931 61.22C386.171 61.3467 386.424 61.41 386.691 61.41C387.037 61.41 387.327 61.33 387.561 61.17C387.794 61.01 387.964 60.7933 388.071 60.52H388.901C388.767 60.98 388.511 61.3633 388.131 61.67C387.757 61.97 387.277 62.12 386.691 62.12ZM386.691 57.63C386.291 57.63 385.934 57.7533 385.621 58C385.314 58.24 385.137 58.5933 385.091 59.06H388.211C388.191 58.6133 388.037 58.2633 387.751 58.01C387.464 57.7567 387.111 57.63 386.691 57.63ZM392.404 62.12C391.911 62.12 391.477 62.0067 391.104 61.78C390.737 61.5533 390.451 61.2433 390.244 60.85C390.044 60.4567 389.944 60.01 389.944 59.51C389.944 59.01 390.047 58.5667 390.254 58.18C390.461 57.7867 390.747 57.48 391.114 57.26C391.481 57.0333 391.914 56.92 392.414 56.92C392.821 56.92 393.181 57.0033 393.494 57.17C393.807 57.3367 394.051 57.57 394.224 57.87V54.8H395.064V62H394.304L394.224 61.18C394.064 61.42 393.834 61.6367 393.534 61.83C393.234 62.0233 392.857 62.12 392.404 62.12ZM392.494 61.39C392.827 61.39 393.121 61.3133 393.374 61.16C393.634 61 393.834 60.78 393.974 60.5C394.121 60.22 394.194 59.8933 394.194 59.52C394.194 59.1467 394.121 58.82 393.974 58.54C393.834 58.26 393.634 58.0433 393.374 57.89C393.121 57.73 392.827 57.65 392.494 57.65C392.167 57.65 391.874 57.73 391.614 57.89C391.361 58.0433 391.161 58.26 391.014 58.54C390.874 58.82 390.804 59.1467 390.804 59.52C390.804 59.8933 390.874 60.22 391.014 60.5C391.161 60.78 391.361 61 391.614 61.16C391.874 61.3133 392.167 61.39 392.494 61.39ZM396.943 55.94C396.776 55.94 396.636 55.8867 396.523 55.78C396.416 55.6667 396.363 55.5267 396.363 55.36C396.363 55.2 396.416 55.0667 396.523 54.96C396.636 54.8533 396.776 54.8 396.943 54.8C397.103 54.8 397.24 54.8533 397.353 54.96C397.466 55.0667 397.523 55.2 397.523 55.36C397.523 55.5267 397.466 55.6667 397.353 55.78C397.24 55.8867 397.103 55.94 396.943 55.94ZM396.523 62V57.04H397.363V62H396.523ZM398.826 62V57.04H399.586L399.636 57.93C399.796 57.6167 400.026 57.37 400.326 57.19C400.626 57.01 400.966 56.92 401.346 56.92C401.932 56.92 402.399 57.1 402.746 57.46C403.099 57.8133 403.276 58.36 403.276 59.1V62H402.436V59.19C402.436 58.1567 402.009 57.64 401.156 57.64C400.729 57.64 400.372 57.7967 400.086 58.11C399.806 58.4167 399.666 58.8567 399.666 59.43V62H398.826Z" fill="#3A3541" fill-opacity="0.26"/>
<rect x="268.724" y="53" width="12" height="12" rx="6" fill="#7878E6"/>
<path d="M285.464 62V55H289.724V55.69H286.304V58.15H289.214V58.83H286.304V62H285.464ZM292.064 62.12C291.65 62.12 291.307 62.05 291.034 61.91C290.76 61.77 290.557 61.5833 290.424 61.35C290.29 61.1167 290.224 60.8633 290.224 60.59C290.224 60.0833 290.417 59.6933 290.804 59.42C291.19 59.1467 291.717 59.01 292.384 59.01H293.724V58.95C293.724 58.5167 293.61 58.19 293.384 57.97C293.157 57.7433 292.854 57.63 292.474 57.63C292.147 57.63 291.864 57.7133 291.624 57.88C291.39 58.04 291.244 58.2767 291.184 58.59H290.324C290.357 58.23 290.477 57.9267 290.684 57.68C290.897 57.4333 291.16 57.2467 291.474 57.12C291.787 56.9867 292.12 56.92 292.474 56.92C293.167 56.92 293.687 57.1067 294.034 57.48C294.387 57.8467 294.564 58.3367 294.564 58.95V62H293.814L293.764 61.11C293.624 61.39 293.417 61.63 293.144 61.83C292.877 62.0233 292.517 62.12 292.064 62.12ZM292.194 61.41C292.514 61.41 292.787 61.3267 293.014 61.16C293.247 60.9933 293.424 60.7767 293.544 60.51C293.664 60.2433 293.724 59.9633 293.724 59.67V59.66H292.454C291.96 59.66 291.61 59.7467 291.404 59.92C291.204 60.0867 291.104 60.2967 291.104 60.55C291.104 60.81 291.197 61.02 291.384 61.18C291.577 61.3333 291.847 61.41 292.194 61.41ZM298.104 62.12C297.63 62.12 297.204 62.0133 296.824 61.8C296.45 61.58 296.154 61.2767 295.934 60.89C295.72 60.4967 295.614 60.04 295.614 59.52C295.614 59 295.72 58.5467 295.934 58.16C296.154 57.7667 296.45 57.4633 296.824 57.25C297.204 57.03 297.63 56.92 298.104 56.92C298.69 56.92 299.184 57.0733 299.584 57.38C299.99 57.6867 300.247 58.0967 300.354 58.61H299.494C299.427 58.3033 299.264 58.0667 299.004 57.9C298.744 57.7267 298.44 57.64 298.094 57.64C297.814 57.64 297.55 57.71 297.304 57.85C297.057 57.99 296.857 58.2 296.704 58.48C296.55 58.76 296.474 59.1067 296.474 59.52C296.474 59.9333 296.55 60.28 296.704 60.56C296.857 60.84 297.057 61.0533 297.304 61.2C297.55 61.34 297.814 61.41 298.094 61.41C298.44 61.41 298.744 61.3267 299.004 61.16C299.264 60.9867 299.427 60.7433 299.494 60.43H300.354C300.254 60.93 300 61.3367 299.594 61.65C299.187 61.9633 298.69 62.12 298.104 62.12ZM303.757 62.12C303.284 62.12 302.864 62.0133 302.497 61.8C302.13 61.58 301.84 61.2767 301.627 60.89C301.42 60.5033 301.317 60.0467 301.317 59.52C301.317 59 301.42 58.5467 301.627 58.16C301.834 57.7667 302.12 57.4633 302.487 57.25C302.86 57.03 303.29 56.92 303.777 56.92C304.257 56.92 304.67 57.03 305.017 57.25C305.37 57.4633 305.64 57.7467 305.827 58.1C306.014 58.4533 306.107 58.8333 306.107 59.24C306.107 59.3133 306.104 59.3867 306.097 59.46C306.097 59.5333 306.097 59.6167 306.097 59.71H302.147C302.167 60.09 302.254 60.4067 302.407 60.66C302.567 60.9067 302.764 61.0933 302.997 61.22C303.237 61.3467 303.49 61.41 303.757 61.41C304.104 61.41 304.394 61.33 304.627 61.17C304.86 61.01 305.03 60.7933 305.137 60.52H305.967C305.834 60.98 305.577 61.3633 305.197 61.67C304.824 61.97 304.344 62.12 303.757 62.12ZM303.757 57.63C303.357 57.63 303 57.7533 302.687 58C302.38 58.24 302.204 58.5933 302.157 59.06H305.277C305.257 58.6133 305.104 58.2633 304.817 58.01C304.53 57.7567 304.177 57.63 303.757 57.63ZM309.87 62.12C309.464 62.12 309.1 62.0367 308.78 61.87C308.467 61.7033 308.227 61.47 308.06 61.17L307.98 62H307.22V54.8H308.06V57.86C308.22 57.62 308.447 57.4033 308.74 57.21C309.04 57.0167 309.42 56.92 309.88 56.92C310.374 56.92 310.804 57.0333 311.17 57.26C311.537 57.4867 311.82 57.7967 312.02 58.19C312.227 58.5833 312.33 59.03 312.33 59.53C312.33 60.03 312.227 60.4767 312.02 60.87C311.82 61.2567 311.534 61.5633 311.16 61.79C310.794 62.01 310.364 62.12 309.87 62.12ZM309.78 61.39C310.114 61.39 310.407 61.3133 310.66 61.16C310.914 61 311.114 60.78 311.26 60.5C311.407 60.22 311.48 59.8933 311.48 59.52C311.48 59.1467 311.407 58.82 311.26 58.54C311.114 58.26 310.914 58.0433 310.66 57.89C310.407 57.73 310.114 57.65 309.78 57.65C309.447 57.65 309.154 57.73 308.9 57.89C308.647 58.0433 308.447 58.26 308.3 58.54C308.154 58.82 308.08 59.1467 308.08 59.52C308.08 59.8933 308.154 60.22 308.3 60.5C308.447 60.78 308.647 61 308.9 61.16C309.154 61.3133 309.447 61.39 309.78 61.39ZM315.76 62.12C315.293 62.12 314.873 62.0133 314.5 61.8C314.126 61.5867 313.83 61.2867 313.61 60.9C313.396 60.5067 313.29 60.0467 313.29 59.52C313.29 58.9933 313.4 58.5367 313.62 58.15C313.84 57.7567 314.136 57.4533 314.51 57.24C314.89 57.0267 315.313 56.92 315.78 56.92C316.246 56.92 316.666 57.0267 317.04 57.24C317.413 57.4533 317.706 57.7567 317.92 58.15C318.14 58.5367 318.25 58.9933 318.25 59.52C318.25 60.0467 318.14 60.5067 317.92 60.9C317.7 61.2867 317.4 61.5867 317.02 61.8C316.646 62.0133 316.226 62.12 315.76 62.12ZM315.76 61.4C316.046 61.4 316.313 61.33 316.56 61.19C316.806 61.05 317.006 60.84 317.16 60.56C317.313 60.28 317.39 59.9333 317.39 59.52C317.39 59.1067 317.313 58.76 317.16 58.48C317.013 58.2 316.816 57.99 316.57 57.85C316.323 57.71 316.06 57.64 315.78 57.64C315.493 57.64 315.226 57.71 314.98 57.85C314.733 57.99 314.533 58.2 314.38 58.48C314.226 58.76 314.15 59.1067 314.15 59.52C314.15 59.9333 314.226 60.28 314.38 60.56C314.533 60.84 314.73 61.05 314.97 61.19C315.216 61.33 315.48 61.4 315.76 61.4ZM321.678 62.12C321.211 62.12 320.791 62.0133 320.418 61.8C320.044 61.5867 319.748 61.2867 319.528 60.9C319.314 60.5067 319.208 60.0467 319.208 59.52C319.208 58.9933 319.318 58.5367 319.538 58.15C319.758 57.7567 320.054 57.4533 320.428 57.24C320.808 57.0267 321.231 56.92 321.698 56.92C322.164 56.92 322.584 57.0267 322.958 57.24C323.331 57.4533 323.624 57.7567 323.838 58.15C324.058 58.5367 324.168 58.9933 324.168 59.52C324.168 60.0467 324.058 60.5067 323.838 60.9C323.618 61.2867 323.318 61.5867 322.938 61.8C322.564 62.0133 322.144 62.12 321.678 62.12ZM321.678 61.4C321.964 61.4 322.231 61.33 322.478 61.19C322.724 61.05 322.924 60.84 323.078 60.56C323.231 60.28 323.308 59.9333 323.308 59.52C323.308 59.1067 323.231 58.76 323.078 58.48C322.931 58.2 322.734 57.99 322.488 57.85C322.241 57.71 321.978 57.64 321.698 57.64C321.411 57.64 321.144 57.71 320.898 57.85C320.651 57.99 320.451 58.2 320.298 58.48C320.144 58.76 320.068 59.1067 320.068 59.52C320.068 59.9333 320.144 60.28 320.298 60.56C320.451 60.84 320.648 61.05 320.888 61.19C321.134 61.33 321.398 61.4 321.678 61.4ZM325.336 62V54.8H326.176V59.13L328.206 57.04H329.236L327.036 59.28L329.516 62H328.446L326.176 59.43V62H325.336Z" fill="#3A3541" fill-opacity="0.26"/>
<rect x="121" y="53.094" width="12" height="12" rx="6" fill="#CBCBCD"/>
<path d="M137.74 62.094V55.094H138.58V62.094H137.74ZM140.014 62.094V57.134H140.774L140.824 58.024C140.984 57.7107 141.214 57.464 141.514 57.284C141.814 57.104 142.154 57.014 142.534 57.014C143.121 57.014 143.588 57.194 143.934 57.554C144.288 57.9073 144.464 58.454 144.464 59.194V62.094H143.624V59.284C143.624 58.2507 143.198 57.734 142.344 57.734C141.918 57.734 141.561 57.8907 141.274 58.204C140.994 58.5107 140.854 58.9507 140.854 59.524V62.094H140.014ZM147.637 62.214C147.044 62.214 146.55 62.064 146.157 61.764C145.764 61.464 145.534 61.0573 145.467 60.544H146.327C146.38 60.804 146.517 61.0307 146.737 61.224C146.964 61.4107 147.267 61.504 147.647 61.504C148 61.504 148.26 61.4307 148.427 61.284C148.594 61.1307 148.677 60.9507 148.677 60.744C148.677 60.444 148.567 60.244 148.347 60.144C148.134 60.044 147.83 59.954 147.437 59.874C147.17 59.8207 146.904 59.744 146.637 59.644C146.37 59.544 146.147 59.404 145.967 59.224C145.787 59.0373 145.697 58.794 145.697 58.494C145.697 58.0607 145.857 57.7073 146.177 57.434C146.504 57.154 146.944 57.014 147.497 57.014C148.024 57.014 148.454 57.1473 148.787 57.414C149.127 57.674 149.324 58.0473 149.377 58.534H148.547C148.514 58.2807 148.404 58.084 148.217 57.944C148.037 57.7973 147.794 57.724 147.487 57.724C147.187 57.724 146.954 57.7873 146.787 57.914C146.627 58.0407 146.547 58.2073 146.547 58.414C146.547 58.614 146.65 58.7707 146.857 58.884C147.07 58.9973 147.357 59.094 147.717 59.174C148.024 59.2407 148.314 59.324 148.587 59.424C148.867 59.5173 149.094 59.6607 149.267 59.854C149.447 60.0407 149.537 60.314 149.537 60.674C149.544 61.1207 149.374 61.4907 149.027 61.784C148.687 62.0707 148.224 62.214 147.637 62.214ZM152.472 62.094C152.019 62.094 151.662 61.984 151.402 61.764C151.142 61.544 151.012 61.1473 151.012 60.574V57.844H150.152V57.134H151.012L151.122 55.944H151.852V57.134H153.312V57.844H151.852V60.574C151.852 60.8873 151.916 61.1007 152.042 61.214C152.169 61.3207 152.392 61.374 152.712 61.374H153.232V62.094H152.472ZM156.029 62.214C155.616 62.214 155.273 62.144 154.999 62.004C154.726 61.864 154.523 61.6773 154.389 61.444C154.256 61.2107 154.189 60.9573 154.189 60.684C154.189 60.1773 154.383 59.7873 154.769 59.514C155.156 59.2407 155.683 59.104 156.349 59.104H157.689V59.044C157.689 58.6107 157.576 58.284 157.349 58.064C157.123 57.8373 156.819 57.724 156.439 57.724C156.113 57.724 155.829 57.8073 155.589 57.974C155.356 58.134 155.209 58.3707 155.149 58.684H154.289C154.323 58.324 154.443 58.0207 154.649 57.774C154.863 57.5273 155.126 57.3407 155.439 57.214C155.753 57.0807 156.086 57.014 156.439 57.014C157.133 57.014 157.653 57.2007 157.999 57.574C158.353 57.9407 158.529 58.4307 158.529 59.044V62.094H157.779L157.729 61.204C157.589 61.484 157.383 61.724 157.109 61.924C156.843 62.1173 156.483 62.214 156.029 62.214ZM156.159 61.504C156.479 61.504 156.753 61.4207 156.979 61.254C157.213 61.0873 157.389 60.8707 157.509 60.604C157.629 60.3373 157.689 60.0573 157.689 59.764V59.754H156.419C155.926 59.754 155.576 59.8407 155.369 60.014C155.169 60.1807 155.069 60.3907 155.069 60.644C155.069 60.904 155.163 61.114 155.349 61.274C155.543 61.4273 155.813 61.504 156.159 61.504ZM161.75 60.534C161.47 60.534 161.213 60.4973 160.98 60.424L160.48 60.894C160.553 60.9473 160.643 60.994 160.75 61.034C160.863 61.0673 161.023 61.1007 161.23 61.134C161.436 61.1607 161.726 61.1907 162.1 61.224C162.766 61.2707 163.243 61.424 163.53 61.684C163.816 61.944 163.96 62.284 163.96 62.704C163.96 62.9907 163.88 63.264 163.72 63.524C163.566 63.784 163.326 63.9973 163 64.164C162.68 64.3307 162.266 64.414 161.76 64.414C161.313 64.414 160.916 64.354 160.57 64.234C160.223 64.1207 159.953 63.944 159.76 63.704C159.566 63.4707 159.47 63.174 159.47 62.814C159.47 62.6273 159.52 62.424 159.62 62.204C159.72 61.9907 159.906 61.7873 160.18 61.594C160.033 61.534 159.906 61.4707 159.8 61.404C159.7 61.3307 159.606 61.2507 159.52 61.164V60.934L160.37 60.094C159.976 59.7607 159.78 59.3207 159.78 58.774C159.78 58.4473 159.856 58.1507 160.01 57.884C160.163 57.6173 160.386 57.4073 160.68 57.254C160.973 57.094 161.33 57.014 161.75 57.014C162.036 57.014 162.296 57.054 162.53 57.134H164.36V57.764L163.43 57.804C163.623 58.084 163.72 58.4073 163.72 58.774C163.72 59.1007 163.64 59.3973 163.48 59.664C163.326 59.9307 163.103 60.144 162.81 60.304C162.523 60.4573 162.17 60.534 161.75 60.534ZM161.75 59.844C162.103 59.844 162.383 59.754 162.59 59.574C162.803 59.3873 162.91 59.1207 162.91 58.774C162.91 58.434 162.803 58.174 162.59 57.994C162.383 57.8073 162.103 57.714 161.75 57.714C161.39 57.714 161.103 57.8073 160.89 57.994C160.683 58.174 160.58 58.434 160.58 58.774C160.58 59.1207 160.683 59.3873 160.89 59.574C161.103 59.754 161.39 59.844 161.75 59.844ZM160.29 62.734C160.29 63.0673 160.43 63.314 160.71 63.474C160.99 63.6407 161.34 63.724 161.76 63.724C162.173 63.724 162.503 63.634 162.75 63.454C163.003 63.274 163.13 63.034 163.13 62.734C163.13 62.5207 163.043 62.334 162.87 62.174C162.696 62.0207 162.376 61.9307 161.91 61.904C161.543 61.8773 161.226 61.844 160.96 61.804C160.686 61.9507 160.506 62.1073 160.42 62.274C160.333 62.4473 160.29 62.6007 160.29 62.734ZM165.307 62.094V57.134H166.067L166.137 58.084C166.291 57.7573 166.524 57.4973 166.837 57.304C167.151 57.1107 167.537 57.014 167.997 57.014V57.894H167.767C167.474 57.894 167.204 57.9473 166.957 58.054C166.711 58.154 166.514 58.3273 166.367 58.574C166.221 58.8207 166.147 59.1607 166.147 59.594V62.094H165.307ZM170.59 62.214C170.177 62.214 169.833 62.144 169.56 62.004C169.287 61.864 169.083 61.6773 168.95 61.444C168.817 61.2107 168.75 60.9573 168.75 60.684C168.75 60.1773 168.943 59.7873 169.33 59.514C169.717 59.2407 170.243 59.104 170.91 59.104H172.25V59.044C172.25 58.6107 172.137 58.284 171.91 58.064C171.683 57.8373 171.38 57.724 171 57.724C170.673 57.724 170.39 57.8073 170.15 57.974C169.917 58.134 169.77 58.3707 169.71 58.684H168.85C168.883 58.324 169.003 58.0207 169.21 57.774C169.423 57.5273 169.687 57.3407 170 57.214C170.313 57.0807 170.647 57.014 171 57.014C171.693 57.014 172.213 57.2007 172.56 57.574C172.913 57.9407 173.09 58.4307 173.09 59.044V62.094H172.34L172.29 61.204C172.15 61.484 171.943 61.724 171.67 61.924C171.403 62.1173 171.043 62.214 170.59 62.214ZM170.72 61.504C171.04 61.504 171.313 61.4207 171.54 61.254C171.773 61.0873 171.95 60.8707 172.07 60.604C172.19 60.3373 172.25 60.0573 172.25 59.764V59.754H170.98C170.487 59.754 170.137 59.8407 169.93 60.014C169.73 60.1807 169.63 60.3907 169.63 60.644C169.63 60.904 169.723 61.114 169.91 61.274C170.103 61.4273 170.373 61.504 170.72 61.504ZM174.35 62.094V57.134H175.11L175.17 57.854C175.33 57.5873 175.543 57.3807 175.81 57.234C176.077 57.0873 176.377 57.014 176.71 57.014C177.103 57.014 177.44 57.094 177.72 57.254C178.007 57.414 178.227 57.6573 178.38 57.984C178.553 57.684 178.79 57.4473 179.09 57.274C179.397 57.1007 179.727 57.014 180.08 57.014C180.673 57.014 181.147 57.194 181.5 57.554C181.853 57.9073 182.03 58.454 182.03 59.194V62.094H181.2V59.284C181.2 58.7707 181.097 58.384 180.89 58.124C180.683 57.864 180.387 57.734 180 57.734C179.6 57.734 179.267 57.8907 179 58.204C178.74 58.5107 178.61 58.9507 178.61 59.524V62.094H177.77V59.284C177.77 58.7707 177.667 58.384 177.46 58.124C177.253 57.864 176.957 57.734 176.57 57.734C176.177 57.734 175.847 57.8907 175.58 58.204C175.32 58.5107 175.19 58.9507 175.19 59.524V62.094H174.35Z" fill="#3A3541" fill-opacity="0.26"/>
<rect x="202.724" y="53.094" width="12" height="12" rx="6" fill="#B7B7EF"/>
<path d="M221.104 62.094V55.784H219.014V55.094H224.034V55.784H221.944V62.094H221.104ZM225.482 62.094L224.032 57.134H224.872L225.922 61.024L227.082 57.134H228.032L229.202 61.024L230.242 57.134H231.092L229.642 62.094H228.782L227.562 58.004L226.342 62.094H225.482ZM232.531 56.034C232.364 56.034 232.224 55.9807 232.111 55.874C232.004 55.7607 231.951 55.6207 231.951 55.454C231.951 55.294 232.004 55.1607 232.111 55.054C232.224 54.9473 232.364 54.894 232.531 54.894C232.691 54.894 232.828 54.9473 232.941 55.054C233.054 55.1607 233.111 55.294 233.111 55.454C233.111 55.6207 233.054 55.7607 232.941 55.874C232.828 55.9807 232.691 56.034 232.531 56.034ZM232.111 62.094V57.134H232.951V62.094H232.111ZM236.374 62.094C235.92 62.094 235.564 61.984 235.304 61.764C235.044 61.544 234.914 61.1473 234.914 60.574V57.844H234.054V57.134H234.914L235.024 55.944H235.754V57.134H237.214V57.844H235.754V60.574C235.754 60.8873 235.817 61.1007 235.944 61.214C236.07 61.3207 236.294 61.374 236.614 61.374H237.134V62.094H236.374ZM240.241 62.094C239.787 62.094 239.431 61.984 239.171 61.764C238.911 61.544 238.781 61.1473 238.781 60.574V57.844H237.921V57.134H238.781L238.891 55.944H239.621V57.134H241.081V57.844H239.621V60.574C239.621 60.8873 239.684 61.1007 239.811 61.214C239.937 61.3207 240.161 61.374 240.481 61.374H241.001V62.094H240.241ZM244.241 62.214C243.768 62.214 243.348 62.1073 242.981 61.894C242.615 61.674 242.325 61.3707 242.111 60.984C241.905 60.5973 241.801 60.1407 241.801 59.614C241.801 59.094 241.905 58.6407 242.111 58.254C242.318 57.8607 242.605 57.5573 242.971 57.344C243.345 57.124 243.775 57.014 244.261 57.014C244.741 57.014 245.155 57.124 245.501 57.344C245.855 57.5573 246.125 57.8407 246.311 58.194C246.498 58.5473 246.591 58.9273 246.591 59.334C246.591 59.4073 246.588 59.4807 246.581 59.554C246.581 59.6273 246.581 59.7107 246.581 59.804H242.631C242.651 60.184 242.738 60.5007 242.891 60.754C243.051 61.0007 243.248 61.1873 243.481 61.314C243.721 61.4407 243.975 61.504 244.241 61.504C244.588 61.504 244.878 61.424 245.111 61.264C245.345 61.104 245.515 60.8873 245.621 60.614H246.451C246.318 61.074 246.061 61.4573 245.681 61.764C245.308 62.064 244.828 62.214 244.241 62.214ZM244.241 57.724C243.841 57.724 243.485 57.8473 243.171 58.094C242.865 58.334 242.688 58.6873 242.641 59.154H245.761C245.741 58.7073 245.588 58.3573 245.301 58.104C245.015 57.8507 244.661 57.724 244.241 57.724ZM247.705 62.094V57.134H248.465L248.535 58.084C248.688 57.7573 248.921 57.4973 249.235 57.304C249.548 57.1107 249.935 57.014 250.395 57.014V57.894H250.165C249.871 57.894 249.601 57.9473 249.355 58.054C249.108 58.154 248.911 58.3273 248.765 58.574C248.618 58.8207 248.545 59.1607 248.545 59.594V62.094H247.705Z" fill="#3A3541" fill-opacity="0.26"/>
<path d="M74.2944 275.5V270.652L73.3904 270.852V270.388L74.5184 269.9H74.9744V275.5H74.2944Z" fill="#3A3541" fill-opacity="0.26"/>
<path d="M125.286 275.5V275.028C125.665 274.729 126.022 274.428 126.358 274.124C126.7 273.815 127.001 273.511 127.262 273.212C127.529 272.913 127.737 272.62 127.886 272.332C128.041 272.044 128.118 271.767 128.118 271.5C128.118 271.303 128.084 271.119 128.014 270.948C127.95 270.777 127.844 270.641 127.694 270.54C127.545 270.433 127.342 270.38 127.086 270.38C126.841 270.38 126.636 270.436 126.47 270.548C126.305 270.655 126.18 270.799 126.094 270.98C126.014 271.161 125.974 271.356 125.974 271.564H125.326C125.326 271.196 125.404 270.881 125.558 270.62C125.713 270.353 125.924 270.151 126.19 270.012C126.457 269.873 126.758 269.804 127.094 269.804C127.59 269.804 127.996 269.945 128.31 270.228C128.63 270.505 128.79 270.921 128.79 271.476C128.79 271.807 128.708 272.135 128.542 272.46C128.377 272.78 128.166 273.092 127.91 273.396C127.654 273.695 127.38 273.975 127.086 274.236C126.798 274.497 126.529 274.732 126.278 274.94H128.982V275.5H125.286Z" fill="#3A3541" fill-opacity="0.26"/>
<path d="M179.771 275.596C179.413 275.596 179.091 275.532 178.803 275.404C178.515 275.271 178.283 275.073 178.107 274.812C177.936 274.551 177.845 274.225 177.835 273.836H178.515C178.52 274.156 178.632 274.433 178.851 274.668C179.069 274.897 179.376 275.012 179.771 275.012C180.165 275.012 180.461 274.903 180.659 274.684C180.861 274.465 180.963 274.201 180.963 273.892C180.963 273.631 180.899 273.417 180.771 273.252C180.648 273.087 180.48 272.964 180.267 272.884C180.059 272.804 179.829 272.764 179.579 272.764H179.163V272.196H179.579C179.941 272.196 180.224 272.113 180.427 271.948C180.635 271.783 180.739 271.551 180.739 271.252C180.739 271.001 180.656 270.796 180.491 270.636C180.331 270.471 180.091 270.388 179.771 270.388C179.461 270.388 179.213 270.481 179.027 270.668C178.84 270.849 178.736 271.079 178.715 271.356H178.035C178.051 271.052 178.131 270.783 178.275 270.548C178.424 270.313 178.627 270.132 178.883 270.004C179.139 269.871 179.435 269.804 179.771 269.804C180.133 269.804 180.435 269.868 180.675 269.996C180.92 270.124 181.104 270.295 181.227 270.508C181.355 270.721 181.419 270.956 181.419 271.212C181.419 271.495 181.341 271.753 181.187 271.988C181.032 272.217 180.8 272.372 180.491 272.452C180.821 272.521 181.096 272.679 181.315 272.924C181.533 273.169 181.643 273.492 181.643 273.892C181.643 274.201 181.571 274.487 181.427 274.748C181.288 275.004 181.08 275.209 180.803 275.364C180.525 275.519 180.181 275.596 179.771 275.596Z" fill="#3A3541" fill-opacity="0.26"/>
<path d="M233.206 275.5V274.3H230.366V273.78L233.086 269.9H233.87V273.708H234.702V274.3H233.87V275.5H233.206ZM231.11 273.708H233.238V270.644L231.11 273.708Z" fill="#3A3541" fill-opacity="0.26"/>
<path d="M285.262 275.596C284.878 275.596 284.544 275.527 284.262 275.388C283.979 275.249 283.752 275.06 283.582 274.82C283.416 274.575 283.315 274.297 283.278 273.988H283.934C283.998 274.297 284.147 274.548 284.382 274.74C284.616 274.927 284.912 275.02 285.27 275.02C285.536 275.02 285.766 274.959 285.958 274.836C286.15 274.708 286.296 274.537 286.398 274.324C286.504 274.111 286.558 273.873 286.558 273.612C286.558 273.196 286.44 272.86 286.206 272.604C285.971 272.348 285.667 272.22 285.294 272.22C284.984 272.22 284.72 272.289 284.502 272.428C284.283 272.567 284.123 272.748 284.022 272.972H283.382L283.862 269.9H286.798V270.484H284.382L284.054 272.188C284.182 272.033 284.358 271.905 284.582 271.804C284.811 271.703 285.072 271.652 285.366 271.652C285.734 271.652 286.054 271.737 286.326 271.908C286.603 272.079 286.819 272.311 286.974 272.604C287.128 272.897 287.206 273.231 287.206 273.604C287.206 273.961 287.128 274.292 286.974 274.596C286.824 274.9 286.603 275.143 286.31 275.324C286.022 275.505 285.672 275.596 285.262 275.596Z" fill="#3A3541" fill-opacity="0.26"/>
<path d="M338.017 275.596C337.612 275.596 337.271 275.521 336.993 275.372C336.716 275.217 336.492 275.012 336.321 274.756C336.156 274.5 336.033 274.215 335.953 273.9C335.879 273.58 335.841 273.255 335.841 272.924C335.841 272.305 335.927 271.764 336.097 271.3C336.268 270.831 336.513 270.465 336.833 270.204C337.159 269.937 337.551 269.804 338.009 269.804C338.361 269.804 338.663 269.873 338.913 270.012C339.164 270.151 339.361 270.337 339.505 270.572C339.655 270.801 339.748 271.057 339.785 271.34H339.161C339.103 271.036 338.972 270.801 338.769 270.636C338.567 270.471 338.311 270.388 338.001 270.388C337.58 270.388 337.225 270.588 336.937 270.988C336.655 271.383 336.503 272.001 336.481 272.844C336.609 272.593 336.812 272.377 337.089 272.196C337.372 272.009 337.711 271.916 338.105 271.916C338.425 271.916 338.724 271.991 339.001 272.14C339.284 272.289 339.513 272.5 339.689 272.772C339.865 273.039 339.953 273.353 339.953 273.716C339.953 274.031 339.876 274.332 339.721 274.62C339.567 274.908 339.343 275.143 339.049 275.324C338.761 275.505 338.417 275.596 338.017 275.596ZM337.969 275.004C338.22 275.004 338.444 274.951 338.641 274.844C338.839 274.737 338.993 274.591 339.105 274.404C339.217 274.212 339.273 273.993 339.273 273.748C339.273 273.369 339.148 273.068 338.897 272.844C338.652 272.615 338.343 272.5 337.969 272.5C337.719 272.5 337.495 272.559 337.297 272.676C337.1 272.788 336.943 272.94 336.825 273.132C336.713 273.324 336.657 273.532 336.657 273.756C336.657 273.996 336.713 274.212 336.825 274.404C336.943 274.591 337.1 274.737 337.297 274.844C337.495 274.951 337.719 275.004 337.969 275.004Z" fill="#3A3541" fill-opacity="0.26"/>
<path d="M389.567 275.5L391.791 270.476H388.719V269.9H392.479V270.404L390.279 275.5H389.567Z" fill="#3A3541" fill-opacity="0.26"/>
<path d="M61.5 257C248.201 254.269 337.789 226.955 400.5 74" stroke="#7878E5" stroke-width="2" stroke-linecap="round" stroke-linejoin="round"/>
<path d="M61.5 257C209.589 233.509 337.789 253.149 400.5 100" stroke="#B7B7EF" stroke-width="2" stroke-linecap="round" stroke-linejoin="round"/>
<path d="M62.5 256.868C151.31 259.487 362.357 223.579 417.5 119" stroke="#CBCBCD" stroke-width="2" stroke-linecap="round"/>
<path d="M61 256.5C149.81 259.119 358.357 202.579 413.5 98" stroke="#3C3CCE" stroke-width="2" stroke-linecap="round"/>
<path d="M402.79 20.8479L399.258 24.3796C398.841 24.7967 398.159 24.7967 397.742 24.3796L394.21 20.8479" stroke="#3A3541" stroke-opacity="0.26" stroke-width="1.5" stroke-miterlimit="10" stroke-linecap="round" stroke-linejoin="round"/>
<path d="M333.74 26V19H334.58V25.33H337.84V26H333.74ZM340.994 26.12C340.581 26.12 340.237 26.05 339.964 25.91C339.691 25.77 339.487 25.5833 339.354 25.35C339.221 25.1167 339.154 24.8633 339.154 24.59C339.154 24.0833 339.347 23.6933 339.734 23.42C340.121 23.1467 340.647 23.01 341.314 23.01H342.654V22.95C342.654 22.5167 342.541 22.19 342.314 21.97C342.087 21.7433 341.784 21.63 341.404 21.63C341.077 21.63 340.794 21.7133 340.554 21.88C340.321 22.04 340.174 22.2767 340.114 22.59H339.254C339.287 22.23 339.407 21.9267 339.614 21.68C339.827 21.4333 340.091 21.2467 340.404 21.12C340.717 20.9867 341.051 20.92 341.404 20.92C342.097 20.92 342.617 21.1067 342.964 21.48C343.317 21.8467 343.494 22.3367 343.494 22.95V26H342.744L342.694 25.11C342.554 25.39 342.347 25.63 342.074 25.83C341.807 26.0233 341.447 26.12 340.994 26.12ZM341.124 25.41C341.444 25.41 341.717 25.3267 341.944 25.16C342.177 24.9933 342.354 24.7767 342.474 24.51C342.594 24.2433 342.654 23.9633 342.654 23.67V23.66H341.384C340.891 23.66 340.541 23.7467 340.334 23.92C340.134 24.0867 340.034 24.2967 340.034 24.55C340.034 24.81 340.127 25.02 340.314 25.18C340.507 25.3333 340.777 25.41 341.124 25.41ZM347.054 26.12C346.461 26.12 345.967 25.97 345.574 25.67C345.181 25.37 344.951 24.9633 344.884 24.45H345.744C345.797 24.71 345.934 24.9367 346.154 25.13C346.381 25.3167 346.684 25.41 347.064 25.41C347.417 25.41 347.677 25.3367 347.844 25.19C348.011 25.0367 348.094 24.8567 348.094 24.65C348.094 24.35 347.984 24.15 347.764 24.05C347.551 23.95 347.247 23.86 346.854 23.78C346.587 23.7267 346.321 23.65 346.054 23.55C345.787 23.45 345.564 23.31 345.384 23.13C345.204 22.9433 345.114 22.7 345.114 22.4C345.114 21.9667 345.274 21.6133 345.594 21.34C345.921 21.06 346.361 20.92 346.914 20.92C347.441 20.92 347.871 21.0533 348.204 21.32C348.544 21.58 348.741 21.9533 348.794 22.44H347.964C347.931 22.1867 347.821 21.99 347.634 21.85C347.454 21.7033 347.211 21.63 346.904 21.63C346.604 21.63 346.371 21.6933 346.204 21.82C346.044 21.9467 345.964 22.1133 345.964 22.32C345.964 22.52 346.067 22.6767 346.274 22.79C346.487 22.9033 346.774 23 347.134 23.08C347.441 23.1467 347.731 23.23 348.004 23.33C348.284 23.4233 348.511 23.5667 348.684 23.76C348.864 23.9467 348.954 24.22 348.954 24.58C348.961 25.0267 348.791 25.3967 348.444 25.69C348.104 25.9767 347.641 26.12 347.054 26.12ZM352.289 26C351.836 26 351.479 25.89 351.219 25.67C350.959 25.45 350.829 25.0533 350.829 24.48V21.75H349.969V21.04H350.829L350.939 19.85H351.669V21.04H353.129V21.75H351.669V24.48C351.669 24.7933 351.733 25.0067 351.859 25.12C351.986 25.2267 352.209 25.28 352.529 25.28H353.049V26H352.289ZM359.133 26.01L357.213 19H358.113L359.623 25.01L361.343 19H362.273L363.943 25.01L365.473 19H366.373L364.413 26H363.453L361.783 20.22L360.073 26L359.133 26.01ZM369.433 26.12C368.96 26.12 368.54 26.0133 368.173 25.8C367.807 25.58 367.517 25.2767 367.303 24.89C367.097 24.5033 366.993 24.0467 366.993 23.52C366.993 23 367.097 22.5467 367.303 22.16C367.51 21.7667 367.797 21.4633 368.163 21.25C368.537 21.03 368.967 20.92 369.453 20.92C369.933 20.92 370.347 21.03 370.693 21.25C371.047 21.4633 371.317 21.7467 371.503 22.1C371.69 22.4533 371.783 22.8333 371.783 23.24C371.783 23.3133 371.78 23.3867 371.773 23.46C371.773 23.5333 371.773 23.6167 371.773 23.71H367.823C367.843 24.09 367.93 24.4067 368.083 24.66C368.243 24.9067 368.44 25.0933 368.673 25.22C368.913 25.3467 369.167 25.41 369.433 25.41C369.78 25.41 370.07 25.33 370.303 25.17C370.537 25.01 370.707 24.7933 370.813 24.52H371.643C371.51 24.98 371.253 25.3633 370.873 25.67C370.5 25.97 370.02 26.12 369.433 26.12ZM369.433 21.63C369.033 21.63 368.677 21.7533 368.363 22C368.057 22.24 367.88 22.5933 367.833 23.06H370.953C370.933 22.6133 370.78 22.2633 370.493 22.01C370.207 21.7567 369.853 21.63 369.433 21.63ZM375.527 26.12C375.053 26.12 374.633 26.0133 374.267 25.8C373.9 25.58 373.61 25.2767 373.397 24.89C373.19 24.5033 373.087 24.0467 373.087 23.52C373.087 23 373.19 22.5467 373.397 22.16C373.603 21.7667 373.89 21.4633 374.257 21.25C374.63 21.03 375.06 20.92 375.547 20.92C376.027 20.92 376.44 21.03 376.787 21.25C377.14 21.4633 377.41 21.7467 377.597 22.1C377.783 22.4533 377.877 22.8333 377.877 23.24C377.877 23.3133 377.873 23.3867 377.867 23.46C377.867 23.5333 377.867 23.6167 377.867 23.71H373.917C373.937 24.09 374.023 24.4067 374.177 24.66C374.337 24.9067 374.533 25.0933 374.767 25.22C375.007 25.3467 375.26 25.41 375.527 25.41C375.873 25.41 376.163 25.33 376.397 25.17C376.63 25.01 376.8 24.7933 376.907 24.52H377.737C377.603 24.98 377.347 25.3633 376.967 25.67C376.593 25.97 376.113 26.12 375.527 26.12ZM375.527 21.63C375.127 21.63 374.77 21.7533 374.457 22C374.15 22.24 373.973 22.5933 373.927 23.06H377.047C377.027 22.6133 376.873 22.2633 376.587 22.01C376.3 21.7567 375.947 21.63 375.527 21.63ZM379.39 26V18.8H380.23V23.13L382.26 21.04H383.29L381.09 23.28L383.57 26H382.5L380.23 23.43V26H379.39Z" fill="#3A3541" fill-opacity="0.26"/>
</svg>
