<svg width="514" height="552" viewBox="0 0 514 552" fill="none" xmlns="http://www.w3.org/2000/svg">
<rect x="44" y="127" width="426" height="298" rx="10" fill="white"/>
<rect x="44.5" y="127.5" width="425" height="297" rx="9.5" stroke="#3A3541" stroke-opacity="0.04"/>
<path d="M66.364 155L69.976 145.2H71.6L75.184 155H73.616L72.776 152.606H68.772L67.932 155H66.364ZM69.192 151.43H72.356L70.774 146.964L69.192 151.43ZM78.9062 155.168C78.0663 155.168 77.4036 154.907 76.9183 154.384C76.4423 153.861 76.2043 153.082 76.2043 152.046V148.056H77.6883V151.892C77.6883 153.236 78.2389 153.908 79.3403 153.908C79.8909 153.908 80.3436 153.712 80.6983 153.32C81.0529 152.928 81.2303 152.368 81.2303 151.64V148.056H82.7143V155H81.3983L81.2863 153.782C81.0716 154.211 80.7543 154.552 80.3343 154.804C79.9236 155.047 79.4476 155.168 78.9062 155.168ZM87.7661 155.168C87.0941 155.168 86.5014 155.009 85.9881 154.692C85.4747 154.375 85.0734 153.941 84.7841 153.39C84.4947 152.839 84.3501 152.214 84.3501 151.514C84.3501 150.814 84.4947 150.193 84.7841 149.652C85.0734 149.101 85.4747 148.672 85.9881 148.364C86.5107 148.047 87.1081 147.888 87.7801 147.888C88.3307 147.888 88.8114 147.995 89.2221 148.21C89.6421 148.425 89.9687 148.728 90.2021 149.12V144.92H91.6861V155H90.3561L90.2021 153.922C89.9781 154.249 89.6701 154.538 89.2781 154.79C88.8861 155.042 88.3821 155.168 87.7661 155.168ZM88.0321 153.88C88.6667 153.88 89.1847 153.661 89.5861 153.222C89.9967 152.783 90.2021 152.219 90.2021 151.528C90.2021 150.828 89.9967 150.263 89.5861 149.834C89.1847 149.395 88.6667 149.176 88.0321 149.176C87.3974 149.176 86.8747 149.395 86.4641 149.834C86.0534 150.263 85.8481 150.828 85.8481 151.528C85.8481 151.985 85.9414 152.391 86.1281 152.746C86.3147 153.101 86.5714 153.381 86.8981 153.586C87.2341 153.782 87.6121 153.88 88.0321 153.88ZM94.3971 146.74C94.1171 146.74 93.8838 146.656 93.6971 146.488C93.5198 146.311 93.4311 146.091 93.4311 145.83C93.4311 145.569 93.5198 145.354 93.6971 145.186C93.8838 145.009 94.1171 144.92 94.3971 144.92C94.6771 144.92 94.9058 145.009 95.0831 145.186C95.2698 145.354 95.3631 145.569 95.3631 145.83C95.3631 146.091 95.2698 146.311 95.0831 146.488C94.9058 146.656 94.6771 146.74 94.3971 146.74ZM93.6551 155V148.056H95.1391V155H93.6551ZM100.346 155.168C99.6648 155.168 99.0582 155.019 98.5262 154.72C98.0035 154.412 97.5928 153.987 97.2942 153.446C96.9955 152.905 96.8462 152.275 96.8462 151.556C96.8462 150.828 96.9908 150.189 97.2802 149.638C97.5788 149.087 97.9895 148.658 98.5122 148.35C99.0442 148.042 99.6602 147.888 100.36 147.888C101.041 147.888 101.634 148.042 102.138 148.35C102.642 148.649 103.034 149.05 103.314 149.554C103.594 150.058 103.734 150.613 103.734 151.22C103.734 151.313 103.729 151.416 103.72 151.528C103.72 151.631 103.715 151.747 103.706 151.878H98.3022C98.3488 152.55 98.5682 153.063 98.9602 153.418C99.3615 153.763 99.8235 153.936 100.346 153.936C100.766 153.936 101.116 153.843 101.396 153.656C101.685 153.46 101.9 153.199 102.04 152.872H103.524C103.337 153.525 102.964 154.071 102.404 154.51C101.853 154.949 101.167 155.168 100.346 155.168ZM100.346 149.106C99.8515 149.106 99.4128 149.255 99.0302 149.554C98.6475 149.843 98.4142 150.282 98.3302 150.87H102.25C102.222 150.329 102.031 149.899 101.676 149.582C101.321 149.265 100.878 149.106 100.346 149.106ZM105.274 155V148.056H106.59L106.702 149.274C106.917 148.845 107.229 148.509 107.64 148.266C108.06 148.014 108.541 147.888 109.082 147.888C109.922 147.888 110.58 148.149 111.056 148.672C111.541 149.195 111.784 149.974 111.784 151.01V155H110.314V151.164C110.314 149.82 109.763 149.148 108.662 149.148C108.111 149.148 107.654 149.344 107.29 149.736C106.935 150.128 106.758 150.688 106.758 151.416V155H105.274ZM116.822 155.168C116.14 155.168 115.529 155.014 114.988 154.706C114.456 154.398 114.036 153.973 113.728 153.432C113.429 152.881 113.28 152.247 113.28 151.528C113.28 150.809 113.429 150.179 113.728 149.638C114.036 149.087 114.456 148.658 114.988 148.35C115.529 148.042 116.14 147.888 116.822 147.888C117.68 147.888 118.399 148.112 118.978 148.56C119.566 149.008 119.944 149.615 120.112 150.38H118.558C118.464 149.997 118.259 149.699 117.942 149.484C117.624 149.269 117.251 149.162 116.822 149.162C116.458 149.162 116.122 149.255 115.814 149.442C115.506 149.619 115.258 149.885 115.072 150.24C114.885 150.585 114.792 151.015 114.792 151.528C114.792 152.041 114.885 152.475 115.072 152.83C115.258 153.175 115.506 153.441 115.814 153.628C116.122 153.815 116.458 153.908 116.822 153.908C117.251 153.908 117.624 153.801 117.942 153.586C118.259 153.371 118.464 153.068 118.558 152.676H120.112C119.953 153.423 119.58 154.025 118.992 154.482C118.404 154.939 117.68 155.168 116.822 155.168ZM124.969 155.168C124.288 155.168 123.681 155.019 123.149 154.72C122.627 154.412 122.216 153.987 121.917 153.446C121.619 152.905 121.469 152.275 121.469 151.556C121.469 150.828 121.614 150.189 121.903 149.638C122.202 149.087 122.613 148.658 123.135 148.35C123.667 148.042 124.283 147.888 124.983 147.888C125.665 147.888 126.257 148.042 126.761 148.35C127.265 148.649 127.657 149.05 127.937 149.554C128.217 150.058 128.357 150.613 128.357 151.22C128.357 151.313 128.353 151.416 128.343 151.528C128.343 151.631 128.339 151.747 128.329 151.878H122.925C122.972 152.55 123.191 153.063 123.583 153.418C123.985 153.763 124.447 153.936 124.969 153.936C125.389 153.936 125.739 153.843 126.019 153.656C126.309 153.46 126.523 153.199 126.663 152.872H128.147C127.961 153.525 127.587 154.071 127.027 154.51C126.477 154.949 125.791 155.168 124.969 155.168ZM124.969 149.106C124.475 149.106 124.036 149.255 123.653 149.554C123.271 149.843 123.037 150.282 122.953 150.87H126.873C126.845 150.329 126.654 149.899 126.299 149.582C125.945 149.265 125.501 149.106 124.969 149.106ZM137.736 155.168C136.812 155.168 136.005 154.958 135.314 154.538C134.624 154.118 134.087 153.53 133.704 152.774C133.322 152.018 133.13 151.136 133.13 150.128C133.13 149.129 133.326 148.247 133.718 147.482C134.11 146.717 134.666 146.119 135.384 145.69C136.112 145.251 136.971 145.032 137.96 145.032C139.08 145.032 140.014 145.303 140.76 145.844C141.507 146.385 141.992 147.132 142.216 148.084H140.536C140.387 147.561 140.093 147.151 139.654 146.852C139.216 146.553 138.651 146.404 137.96 146.404C136.934 146.404 136.126 146.735 135.538 147.398C134.95 148.061 134.656 148.975 134.656 150.142C134.656 151.309 134.946 152.219 135.524 152.872C136.103 153.525 136.873 153.852 137.834 153.852C138.805 153.852 139.533 153.577 140.018 153.026C140.513 152.475 140.802 151.743 140.886 150.828H138.226V149.68H142.384V155H141.026L140.9 153.558C140.574 154.071 140.163 154.468 139.668 154.748C139.174 155.028 138.53 155.168 137.736 155.168ZM144.129 155V148.056H145.459L145.585 149.372C145.828 148.915 146.164 148.555 146.593 148.294C147.032 148.023 147.559 147.888 148.175 147.888V149.442H147.769C147.359 149.442 146.99 149.512 146.663 149.652C146.346 149.783 146.089 150.011 145.893 150.338C145.707 150.655 145.613 151.099 145.613 151.668V155H144.129ZM152.504 155.168C151.842 155.168 151.244 155.019 150.712 154.72C150.19 154.412 149.774 153.987 149.466 153.446C149.158 152.895 149.004 152.256 149.004 151.528C149.004 150.8 149.158 150.165 149.466 149.624C149.784 149.073 150.208 148.649 150.74 148.35C151.272 148.042 151.865 147.888 152.518 147.888C153.181 147.888 153.774 148.042 154.296 148.35C154.828 148.649 155.248 149.073 155.556 149.624C155.874 150.165 156.032 150.8 156.032 151.528C156.032 152.256 155.874 152.895 155.556 153.446C155.248 153.987 154.828 154.412 154.296 154.72C153.764 155.019 153.167 155.168 152.504 155.168ZM152.504 153.894C152.859 153.894 153.186 153.805 153.484 153.628C153.792 153.451 154.04 153.189 154.226 152.844C154.413 152.489 154.506 152.051 154.506 151.528C154.506 151.005 154.413 150.571 154.226 150.226C154.049 149.871 153.806 149.605 153.498 149.428C153.2 149.251 152.873 149.162 152.518 149.162C152.164 149.162 151.832 149.251 151.524 149.428C151.226 149.605 150.983 149.871 150.796 150.226C150.61 150.571 150.516 151.005 150.516 151.528C150.516 152.051 150.61 152.489 150.796 152.844C150.983 153.189 151.226 153.451 151.524 153.628C151.823 153.805 152.15 153.894 152.504 153.894ZM158.763 155L156.719 148.056H158.203L159.547 153.292L161.059 148.056H162.711L164.223 153.292L165.567 148.056H167.051L165.007 155H163.481L161.885 149.54L160.289 155H158.763ZM171.186 155C170.505 155 169.963 154.837 169.562 154.51C169.161 154.174 168.96 153.581 168.96 152.732V149.302H167.77V148.056H168.96L169.142 146.292H170.444V148.056H172.404V149.302H170.444V152.732C170.444 153.115 170.523 153.381 170.682 153.53C170.85 153.67 171.135 153.74 171.536 153.74H172.334V155H171.186ZM173.934 155V144.92H175.418V149.176C175.651 148.775 175.973 148.462 176.384 148.238C176.804 148.005 177.266 147.888 177.77 147.888C178.601 147.888 179.254 148.149 179.73 148.672C180.206 149.195 180.444 149.974 180.444 151.01V155H178.974V151.164C178.974 149.82 178.437 149.148 177.364 149.148C176.804 149.148 176.337 149.344 175.964 149.736C175.6 150.128 175.418 150.688 175.418 151.416V155H173.934Z" fill="#3A3541" fill-opacity="0.68"/>
<path d="M67.6518 209.5V204.652L66.7478 204.852V204.388L67.8758 203.9H68.3318V209.5H67.6518ZM68.9379 210.452L69.4019 208.684H70.0979L69.4019 210.452H68.9379ZM73.1198 209.596C72.6238 209.596 72.1944 209.476 71.8318 209.236C71.4744 208.991 71.1998 208.652 71.0078 208.22C70.8158 207.783 70.7198 207.276 70.7198 206.7C70.7198 206.124 70.8158 205.62 71.0078 205.188C71.1998 204.751 71.4744 204.412 71.8318 204.172C72.1944 203.927 72.6238 203.804 73.1198 203.804C73.6158 203.804 74.0424 203.927 74.3998 204.172C74.7571 204.412 75.0318 204.751 75.2238 205.188C75.4158 205.62 75.5118 206.124 75.5118 206.7C75.5118 207.276 75.4158 207.783 75.2238 208.22C75.0318 208.652 74.7571 208.991 74.3998 209.236C74.0424 209.476 73.6158 209.596 73.1198 209.596ZM73.1198 209.004C73.4451 209.004 73.7358 208.913 73.9918 208.732C74.2531 208.545 74.4557 208.281 74.5998 207.94C74.7491 207.593 74.8238 207.18 74.8238 206.7C74.8238 206.22 74.7491 205.809 74.5998 205.468C74.4557 205.127 74.2531 204.865 73.9918 204.684C73.7358 204.497 73.4451 204.404 73.1198 204.404C72.7891 204.404 72.4958 204.497 72.2398 204.684C71.9838 204.865 71.7811 205.127 71.6318 205.468C71.4824 205.809 71.4078 206.22 71.4078 206.7C71.4078 207.18 71.4824 207.593 71.6318 207.94C71.7811 208.281 71.9838 208.545 72.2398 208.732C72.4958 208.913 72.7891 209.004 73.1198 209.004ZM78.6666 209.596C78.1706 209.596 77.7413 209.476 77.3786 209.236C77.0213 208.991 76.7466 208.652 76.5546 208.22C76.3626 207.783 76.2666 207.276 76.2666 206.7C76.2666 206.124 76.3626 205.62 76.5546 205.188C76.7466 204.751 77.0213 204.412 77.3786 204.172C77.7413 203.927 78.1706 203.804 78.6666 203.804C79.1626 203.804 79.5893 203.927 79.9466 204.172C80.304 204.412 80.5786 204.751 80.7706 205.188C80.9626 205.62 81.0586 206.124 81.0586 206.7C81.0586 207.276 80.9626 207.783 80.7706 208.22C80.5786 208.652 80.304 208.991 79.9466 209.236C79.5893 209.476 79.1626 209.596 78.6666 209.596ZM78.6666 209.004C78.992 209.004 79.2826 208.913 79.5386 208.732C79.8 208.545 80.0026 208.281 80.1466 207.94C80.296 207.593 80.3706 207.18 80.3706 206.7C80.3706 206.22 80.296 205.809 80.1466 205.468C80.0026 205.127 79.8 204.865 79.5386 204.684C79.2826 204.497 78.992 204.404 78.6666 204.404C78.336 204.404 78.0426 204.497 77.7866 204.684C77.5306 204.865 77.328 205.127 77.1786 205.468C77.0293 205.809 76.9546 206.22 76.9546 206.7C76.9546 207.18 77.0293 207.593 77.1786 207.94C77.328 208.281 77.5306 208.545 77.7866 208.732C78.0426 208.913 78.336 209.004 78.6666 209.004ZM84.2135 209.596C83.7175 209.596 83.2882 209.476 82.9255 209.236C82.5682 208.991 82.2935 208.652 82.1015 208.22C81.9095 207.783 81.8135 207.276 81.8135 206.7C81.8135 206.124 81.9095 205.62 82.1015 205.188C82.2935 204.751 82.5682 204.412 82.9255 204.172C83.2882 203.927 83.7175 203.804 84.2135 203.804C84.7095 203.804 85.1362 203.927 85.4935 204.172C85.8508 204.412 86.1255 204.751 86.3175 205.188C86.5095 205.62 86.6055 206.124 86.6055 206.7C86.6055 207.276 86.5095 207.783 86.3175 208.22C86.1255 208.652 85.8508 208.991 85.4935 209.236C85.1362 209.476 84.7095 209.596 84.2135 209.596ZM84.2135 209.004C84.5388 209.004 84.8295 208.913 85.0855 208.732C85.3468 208.545 85.5495 208.281 85.6935 207.94C85.8428 207.593 85.9175 207.18 85.9175 206.7C85.9175 206.22 85.8428 205.809 85.6935 205.468C85.5495 205.127 85.3468 204.865 85.0855 204.684C84.8295 204.497 84.5388 204.404 84.2135 204.404C83.8828 204.404 83.5895 204.497 83.3335 204.684C83.0775 204.865 82.8748 205.127 82.7255 205.468C82.5762 205.809 82.5015 206.22 82.5015 206.7C82.5015 207.18 82.5762 207.593 82.7255 207.94C82.8748 208.281 83.0775 208.545 83.3335 208.732C83.5895 208.913 83.8828 209.004 84.2135 209.004ZM87.4481 209.54C87.3147 209.54 87.2027 209.497 87.1121 209.412C87.0267 209.321 86.9841 209.212 86.9841 209.084C86.9841 208.956 87.0267 208.849 87.1121 208.764C87.2027 208.673 87.3147 208.628 87.4481 208.628C87.5761 208.628 87.6827 208.673 87.7681 208.764C87.8587 208.849 87.9041 208.956 87.9041 209.084C87.9041 209.212 87.8587 209.321 87.7681 209.412C87.6827 209.497 87.5761 209.54 87.4481 209.54ZM90.6823 209.596C90.1863 209.596 89.7569 209.476 89.3943 209.236C89.0369 208.991 88.7623 208.652 88.5703 208.22C88.3783 207.783 88.2823 207.276 88.2823 206.7C88.2823 206.124 88.3783 205.62 88.5703 205.188C88.7623 204.751 89.0369 204.412 89.3943 204.172C89.7569 203.927 90.1863 203.804 90.6823 203.804C91.1783 203.804 91.6049 203.927 91.9623 204.172C92.3196 204.412 92.5943 204.751 92.7863 205.188C92.9783 205.62 93.0743 206.124 93.0743 206.7C93.0743 207.276 92.9783 207.783 92.7863 208.22C92.5943 208.652 92.3196 208.991 91.9623 209.236C91.6049 209.476 91.1783 209.596 90.6823 209.596ZM90.6823 209.004C91.0076 209.004 91.2983 208.913 91.5543 208.732C91.8156 208.545 92.0182 208.281 92.1623 207.94C92.3116 207.593 92.3863 207.18 92.3863 206.7C92.3863 206.22 92.3116 205.809 92.1623 205.468C92.0182 205.127 91.8156 204.865 91.5543 204.684C91.2983 204.497 91.0076 204.404 90.6823 204.404C90.3516 204.404 90.0583 204.497 89.8023 204.684C89.5463 204.865 89.3436 205.127 89.1943 205.468C89.0449 205.809 88.9703 206.22 88.9703 206.7C88.9703 207.18 89.0449 207.593 89.1943 207.94C89.3436 208.281 89.5463 208.545 89.8023 208.732C90.0583 208.913 90.3516 209.004 90.6823 209.004ZM96.2291 209.596C95.7331 209.596 95.3038 209.476 94.9411 209.236C94.5838 208.991 94.3091 208.652 94.1171 208.22C93.9251 207.783 93.8291 207.276 93.8291 206.7C93.8291 206.124 93.9251 205.62 94.1171 205.188C94.3091 204.751 94.5838 204.412 94.9411 204.172C95.3038 203.927 95.7331 203.804 96.2291 203.804C96.7251 203.804 97.1518 203.927 97.5091 204.172C97.8665 204.412 98.1411 204.751 98.3331 205.188C98.5251 205.62 98.6211 206.124 98.6211 206.7C98.6211 207.276 98.5251 207.783 98.3331 208.22C98.1411 208.652 97.8665 208.991 97.5091 209.236C97.1518 209.476 96.7251 209.596 96.2291 209.596ZM96.2291 209.004C96.5545 209.004 96.8451 208.913 97.1011 208.732C97.3625 208.545 97.5651 208.281 97.7091 207.94C97.8585 207.593 97.9331 207.18 97.9331 206.7C97.9331 206.22 97.8585 205.809 97.7091 205.468C97.5651 205.127 97.3625 204.865 97.1011 204.684C96.8451 204.497 96.5545 204.404 96.2291 204.404C95.8985 204.404 95.6051 204.497 95.3491 204.684C95.0931 204.865 94.8905 205.127 94.7411 205.468C94.5918 205.809 94.5171 206.22 94.5171 206.7C94.5171 207.18 94.5918 207.593 94.7411 207.94C94.8905 208.281 95.0931 208.545 95.3491 208.732C95.6051 208.913 95.8985 209.004 96.2291 209.004Z" fill="#3A3541" fill-opacity="0.26"/>
<path d="M107 206.5H461" stroke="#E5E6EB" stroke-dasharray="4 4"/>
<path d="M73.4478 247.096C73.0798 247.096 72.7491 247.029 72.4558 246.896C72.1625 246.757 71.9305 246.568 71.7598 246.328C71.5945 246.083 71.5118 245.8 71.5118 245.48C71.5118 245.139 71.6105 244.832 71.8078 244.56C72.0105 244.288 72.2771 244.107 72.6078 244.016C72.3038 243.915 72.0691 243.752 71.9038 243.528C71.7385 243.304 71.6558 243.059 71.6558 242.792C71.6558 242.52 71.7278 242.272 71.8718 242.048C72.0158 241.819 72.2211 241.637 72.4878 241.504C72.7545 241.371 73.0745 241.304 73.4478 241.304C73.8211 241.304 74.1411 241.371 74.4078 241.504C74.6745 241.637 74.8798 241.819 75.0238 242.048C75.1678 242.272 75.2398 242.52 75.2398 242.792C75.2398 243.053 75.1571 243.299 74.9918 243.528C74.8265 243.752 74.5918 243.915 74.2878 244.016C74.6185 244.107 74.8825 244.288 75.0798 244.56C75.2825 244.832 75.3838 245.139 75.3838 245.48C75.3838 245.8 75.2985 246.083 75.1278 246.328C74.9625 246.568 74.7331 246.757 74.4398 246.896C74.1465 247.029 73.8158 247.096 73.4478 247.096ZM73.4478 243.776C73.7891 243.776 74.0585 243.691 74.2558 243.52C74.4585 243.344 74.5598 243.115 74.5598 242.832C74.5598 242.517 74.4611 242.28 74.2638 242.12C74.0665 241.96 73.7945 241.88 73.4478 241.88C73.1011 241.88 72.8291 241.96 72.6318 242.12C72.4398 242.28 72.3438 242.517 72.3438 242.832C72.3438 243.115 72.4425 243.344 72.6398 243.52C72.8371 243.691 73.1065 243.776 73.4478 243.776ZM73.4478 246.504C73.8691 246.504 74.1838 246.408 74.3918 246.216C74.6051 246.019 74.7118 245.76 74.7118 245.44C74.7118 245.077 74.5971 244.803 74.3678 244.616C74.1385 244.429 73.8318 244.336 73.4478 244.336C73.0638 244.336 72.7571 244.429 72.5278 244.616C72.2985 244.803 72.1838 245.077 72.1838 245.44C72.1838 245.76 72.2878 246.019 72.4958 246.216C72.7091 246.408 73.0265 246.504 73.4478 246.504ZM78.6666 247.096C78.1706 247.096 77.7413 246.976 77.3786 246.736C77.0213 246.491 76.7466 246.152 76.5546 245.72C76.3626 245.283 76.2666 244.776 76.2666 244.2C76.2666 243.624 76.3626 243.12 76.5546 242.688C76.7466 242.251 77.0213 241.912 77.3786 241.672C77.7413 241.427 78.1706 241.304 78.6666 241.304C79.1626 241.304 79.5893 241.427 79.9466 241.672C80.304 241.912 80.5786 242.251 80.7706 242.688C80.9626 243.12 81.0586 243.624 81.0586 244.2C81.0586 244.776 80.9626 245.283 80.7706 245.72C80.5786 246.152 80.304 246.491 79.9466 246.736C79.5893 246.976 79.1626 247.096 78.6666 247.096ZM78.6666 246.504C78.992 246.504 79.2826 246.413 79.5386 246.232C79.8 246.045 80.0026 245.781 80.1466 245.44C80.296 245.093 80.3706 244.68 80.3706 244.2C80.3706 243.72 80.296 243.309 80.1466 242.968C80.0026 242.627 79.8 242.365 79.5386 242.184C79.2826 241.997 78.992 241.904 78.6666 241.904C78.336 241.904 78.0426 241.997 77.7866 242.184C77.5306 242.365 77.328 242.627 77.1786 242.968C77.0293 243.309 76.9546 243.72 76.9546 244.2C76.9546 244.68 77.0293 245.093 77.1786 245.44C77.328 245.781 77.5306 246.045 77.7866 246.232C78.0426 246.413 78.336 246.504 78.6666 246.504ZM84.2135 247.096C83.7175 247.096 83.2882 246.976 82.9255 246.736C82.5682 246.491 82.2935 246.152 82.1015 245.72C81.9095 245.283 81.8135 244.776 81.8135 244.2C81.8135 243.624 81.9095 243.12 82.1015 242.688C82.2935 242.251 82.5682 241.912 82.9255 241.672C83.2882 241.427 83.7175 241.304 84.2135 241.304C84.7095 241.304 85.1362 241.427 85.4935 241.672C85.8508 241.912 86.1255 242.251 86.3175 242.688C86.5095 243.12 86.6055 243.624 86.6055 244.2C86.6055 244.776 86.5095 245.283 86.3175 245.72C86.1255 246.152 85.8508 246.491 85.4935 246.736C85.1362 246.976 84.7095 247.096 84.2135 247.096ZM84.2135 246.504C84.5388 246.504 84.8295 246.413 85.0855 246.232C85.3468 246.045 85.5495 245.781 85.6935 245.44C85.8428 245.093 85.9175 244.68 85.9175 244.2C85.9175 243.72 85.8428 243.309 85.6935 242.968C85.5495 242.627 85.3468 242.365 85.0855 242.184C84.8295 241.997 84.5388 241.904 84.2135 241.904C83.8828 241.904 83.5895 241.997 83.3335 242.184C83.0775 242.365 82.8748 242.627 82.7255 242.968C82.5762 243.309 82.5015 243.72 82.5015 244.2C82.5015 244.68 82.5762 245.093 82.7255 245.44C82.8748 245.781 83.0775 246.045 83.3335 246.232C83.5895 246.413 83.8828 246.504 84.2135 246.504ZM87.4481 247.04C87.3147 247.04 87.2027 246.997 87.1121 246.912C87.0267 246.821 86.9841 246.712 86.9841 246.584C86.9841 246.456 87.0267 246.349 87.1121 246.264C87.2027 246.173 87.3147 246.128 87.4481 246.128C87.5761 246.128 87.6827 246.173 87.7681 246.264C87.8587 246.349 87.9041 246.456 87.9041 246.584C87.9041 246.712 87.8587 246.821 87.7681 246.912C87.6827 246.997 87.5761 247.04 87.4481 247.04ZM90.6823 247.096C90.1863 247.096 89.7569 246.976 89.3943 246.736C89.0369 246.491 88.7623 246.152 88.5703 245.72C88.3783 245.283 88.2823 244.776 88.2823 244.2C88.2823 243.624 88.3783 243.12 88.5703 242.688C88.7623 242.251 89.0369 241.912 89.3943 241.672C89.7569 241.427 90.1863 241.304 90.6823 241.304C91.1783 241.304 91.6049 241.427 91.9623 241.672C92.3196 241.912 92.5943 242.251 92.7863 242.688C92.9783 243.12 93.0743 243.624 93.0743 244.2C93.0743 244.776 92.9783 245.283 92.7863 245.72C92.5943 246.152 92.3196 246.491 91.9623 246.736C91.6049 246.976 91.1783 247.096 90.6823 247.096ZM90.6823 246.504C91.0076 246.504 91.2983 246.413 91.5543 246.232C91.8156 246.045 92.0182 245.781 92.1623 245.44C92.3116 245.093 92.3863 244.68 92.3863 244.2C92.3863 243.72 92.3116 243.309 92.1623 242.968C92.0182 242.627 91.8156 242.365 91.5543 242.184C91.2983 241.997 91.0076 241.904 90.6823 241.904C90.3516 241.904 90.0583 241.997 89.8023 242.184C89.5463 242.365 89.3436 242.627 89.1943 242.968C89.0449 243.309 88.9703 243.72 88.9703 244.2C88.9703 244.68 89.0449 245.093 89.1943 245.44C89.3436 245.781 89.5463 246.045 89.8023 246.232C90.0583 246.413 90.3516 246.504 90.6823 246.504ZM96.2291 247.096C95.7331 247.096 95.3038 246.976 94.9411 246.736C94.5838 246.491 94.3091 246.152 94.1171 245.72C93.9251 245.283 93.8291 244.776 93.8291 244.2C93.8291 243.624 93.9251 243.12 94.1171 242.688C94.3091 242.251 94.5838 241.912 94.9411 241.672C95.3038 241.427 95.7331 241.304 96.2291 241.304C96.7251 241.304 97.1518 241.427 97.5091 241.672C97.8665 241.912 98.1411 242.251 98.3331 242.688C98.5251 243.12 98.6211 243.624 98.6211 244.2C98.6211 244.776 98.5251 245.283 98.3331 245.72C98.1411 246.152 97.8665 246.491 97.5091 246.736C97.1518 246.976 96.7251 247.096 96.2291 247.096ZM96.2291 246.504C96.5545 246.504 96.8451 246.413 97.1011 246.232C97.3625 246.045 97.5651 245.781 97.7091 245.44C97.8585 245.093 97.9331 244.68 97.9331 244.2C97.9331 243.72 97.8585 243.309 97.7091 242.968C97.5651 242.627 97.3625 242.365 97.1011 242.184C96.8451 241.997 96.5545 241.904 96.2291 241.904C95.8985 241.904 95.6051 241.997 95.3491 242.184C95.0931 242.365 94.8905 242.627 94.7411 242.968C94.5918 243.309 94.5171 243.72 94.5171 244.2C94.5171 244.68 94.5918 245.093 94.7411 245.44C94.8905 245.781 95.0931 246.045 95.3491 246.232C95.6051 246.413 95.8985 246.504 96.2291 246.504Z" fill="#3A3541" fill-opacity="0.26"/>
<path d="M107 244H461" stroke="#E5E6EB" stroke-dasharray="4 4"/>
<path d="M73.4596 285.096C73.0542 285.096 72.7129 285.021 72.4356 284.872C72.1582 284.717 71.9342 284.512 71.7636 284.256C71.5982 284 71.4756 283.715 71.3956 283.4C71.3209 283.08 71.2836 282.755 71.2836 282.424C71.2836 281.805 71.3689 281.264 71.5396 280.8C71.7102 280.331 71.9556 279.965 72.2756 279.704C72.6009 279.437 72.9929 279.304 73.4516 279.304C73.8036 279.304 74.1049 279.373 74.3556 279.512C74.6062 279.651 74.8036 279.837 74.9476 280.072C75.0969 280.301 75.1902 280.557 75.2276 280.84H74.6036C74.5449 280.536 74.4142 280.301 74.2116 280.136C74.0089 279.971 73.7529 279.888 73.4436 279.888C73.0222 279.888 72.6676 280.088 72.3796 280.488C72.0969 280.883 71.9449 281.501 71.9236 282.344C72.0516 282.093 72.2542 281.877 72.5316 281.696C72.8142 281.509 73.1529 281.416 73.5476 281.416C73.8676 281.416 74.1662 281.491 74.4436 281.64C74.7262 281.789 74.9556 282 75.1316 282.272C75.3076 282.539 75.3956 282.853 75.3956 283.216C75.3956 283.531 75.3182 283.832 75.1636 284.12C75.0089 284.408 74.7849 284.643 74.4916 284.824C74.2036 285.005 73.8596 285.096 73.4596 285.096ZM73.4116 284.504C73.6622 284.504 73.8862 284.451 74.0836 284.344C74.2809 284.237 74.4356 284.091 74.5476 283.904C74.6596 283.712 74.7156 283.493 74.7156 283.248C74.7156 282.869 74.5902 282.568 74.3396 282.344C74.0942 282.115 73.7849 282 73.4116 282C73.1609 282 72.9369 282.059 72.7396 282.176C72.5422 282.288 72.3849 282.44 72.2676 282.632C72.1556 282.824 72.0996 283.032 72.0996 283.256C72.0996 283.496 72.1556 283.712 72.2676 283.904C72.3849 284.091 72.5422 284.237 72.7396 284.344C72.9369 284.451 73.1609 284.504 73.4116 284.504ZM78.6666 285.096C78.1706 285.096 77.7413 284.976 77.3786 284.736C77.0213 284.491 76.7466 284.152 76.5546 283.72C76.3626 283.283 76.2666 282.776 76.2666 282.2C76.2666 281.624 76.3626 281.12 76.5546 280.688C76.7466 280.251 77.0213 279.912 77.3786 279.672C77.7413 279.427 78.1706 279.304 78.6666 279.304C79.1626 279.304 79.5893 279.427 79.9466 279.672C80.304 279.912 80.5786 280.251 80.7706 280.688C80.9626 281.12 81.0586 281.624 81.0586 282.2C81.0586 282.776 80.9626 283.283 80.7706 283.72C80.5786 284.152 80.304 284.491 79.9466 284.736C79.5893 284.976 79.1626 285.096 78.6666 285.096ZM78.6666 284.504C78.992 284.504 79.2826 284.413 79.5386 284.232C79.8 284.045 80.0026 283.781 80.1466 283.44C80.296 283.093 80.3706 282.68 80.3706 282.2C80.3706 281.72 80.296 281.309 80.1466 280.968C80.0026 280.627 79.8 280.365 79.5386 280.184C79.2826 279.997 78.992 279.904 78.6666 279.904C78.336 279.904 78.0426 279.997 77.7866 280.184C77.5306 280.365 77.328 280.627 77.1786 280.968C77.0293 281.309 76.9546 281.72 76.9546 282.2C76.9546 282.68 77.0293 283.093 77.1786 283.44C77.328 283.781 77.5306 284.045 77.7866 284.232C78.0426 284.413 78.336 284.504 78.6666 284.504ZM84.2135 285.096C83.7175 285.096 83.2882 284.976 82.9255 284.736C82.5682 284.491 82.2935 284.152 82.1015 283.72C81.9095 283.283 81.8135 282.776 81.8135 282.2C81.8135 281.624 81.9095 281.12 82.1015 280.688C82.2935 280.251 82.5682 279.912 82.9255 279.672C83.2882 279.427 83.7175 279.304 84.2135 279.304C84.7095 279.304 85.1362 279.427 85.4935 279.672C85.8508 279.912 86.1255 280.251 86.3175 280.688C86.5095 281.12 86.6055 281.624 86.6055 282.2C86.6055 282.776 86.5095 283.283 86.3175 283.72C86.1255 284.152 85.8508 284.491 85.4935 284.736C85.1362 284.976 84.7095 285.096 84.2135 285.096ZM84.2135 284.504C84.5388 284.504 84.8295 284.413 85.0855 284.232C85.3468 284.045 85.5495 283.781 85.6935 283.44C85.8428 283.093 85.9175 282.68 85.9175 282.2C85.9175 281.72 85.8428 281.309 85.6935 280.968C85.5495 280.627 85.3468 280.365 85.0855 280.184C84.8295 279.997 84.5388 279.904 84.2135 279.904C83.8828 279.904 83.5895 279.997 83.3335 280.184C83.0775 280.365 82.8748 280.627 82.7255 280.968C82.5762 281.309 82.5015 281.72 82.5015 282.2C82.5015 282.68 82.5762 283.093 82.7255 283.44C82.8748 283.781 83.0775 284.045 83.3335 284.232C83.5895 284.413 83.8828 284.504 84.2135 284.504ZM87.4481 285.04C87.3147 285.04 87.2027 284.997 87.1121 284.912C87.0267 284.821 86.9841 284.712 86.9841 284.584C86.9841 284.456 87.0267 284.349 87.1121 284.264C87.2027 284.173 87.3147 284.128 87.4481 284.128C87.5761 284.128 87.6827 284.173 87.7681 284.264C87.8587 284.349 87.9041 284.456 87.9041 284.584C87.9041 284.712 87.8587 284.821 87.7681 284.912C87.6827 284.997 87.5761 285.04 87.4481 285.04ZM90.6823 285.096C90.1863 285.096 89.7569 284.976 89.3943 284.736C89.0369 284.491 88.7623 284.152 88.5703 283.72C88.3783 283.283 88.2823 282.776 88.2823 282.2C88.2823 281.624 88.3783 281.12 88.5703 280.688C88.7623 280.251 89.0369 279.912 89.3943 279.672C89.7569 279.427 90.1863 279.304 90.6823 279.304C91.1783 279.304 91.6049 279.427 91.9623 279.672C92.3196 279.912 92.5943 280.251 92.7863 280.688C92.9783 281.12 93.0743 281.624 93.0743 282.2C93.0743 282.776 92.9783 283.283 92.7863 283.72C92.5943 284.152 92.3196 284.491 91.9623 284.736C91.6049 284.976 91.1783 285.096 90.6823 285.096ZM90.6823 284.504C91.0076 284.504 91.2983 284.413 91.5543 284.232C91.8156 284.045 92.0182 283.781 92.1623 283.44C92.3116 283.093 92.3863 282.68 92.3863 282.2C92.3863 281.72 92.3116 281.309 92.1623 280.968C92.0182 280.627 91.8156 280.365 91.5543 280.184C91.2983 279.997 91.0076 279.904 90.6823 279.904C90.3516 279.904 90.0583 279.997 89.8023 280.184C89.5463 280.365 89.3436 280.627 89.1943 280.968C89.0449 281.309 88.9703 281.72 88.9703 282.2C88.9703 282.68 89.0449 283.093 89.1943 283.44C89.3436 283.781 89.5463 284.045 89.8023 284.232C90.0583 284.413 90.3516 284.504 90.6823 284.504ZM96.2291 285.096C95.7331 285.096 95.3038 284.976 94.9411 284.736C94.5838 284.491 94.3091 284.152 94.1171 283.72C93.9251 283.283 93.8291 282.776 93.8291 282.2C93.8291 281.624 93.9251 281.12 94.1171 280.688C94.3091 280.251 94.5838 279.912 94.9411 279.672C95.3038 279.427 95.7331 279.304 96.2291 279.304C96.7251 279.304 97.1518 279.427 97.5091 279.672C97.8665 279.912 98.1411 280.251 98.3331 280.688C98.5251 281.12 98.6211 281.624 98.6211 282.2C98.6211 282.776 98.5251 283.283 98.3331 283.72C98.1411 284.152 97.8665 284.491 97.5091 284.736C97.1518 284.976 96.7251 285.096 96.2291 285.096ZM96.2291 284.504C96.5545 284.504 96.8451 284.413 97.1011 284.232C97.3625 284.045 97.5651 283.781 97.7091 283.44C97.8585 283.093 97.9331 282.68 97.9331 282.2C97.9331 281.72 97.8585 281.309 97.7091 280.968C97.5651 280.627 97.3625 280.365 97.1011 280.184C96.8451 279.997 96.5545 279.904 96.2291 279.904C95.8985 279.904 95.6051 279.997 95.3491 280.184C95.0931 280.365 94.8905 280.627 94.7411 280.968C94.5918 281.309 94.5171 281.72 94.5171 282.2C94.5171 282.68 94.5918 283.093 94.7411 283.44C94.8905 283.781 95.0931 284.045 95.3491 284.232C95.6051 284.413 95.8985 284.504 96.2291 284.504Z" fill="#3A3541" fill-opacity="0.26"/>
<path d="M107 282H461" stroke="#E5E6EB" stroke-dasharray="4 4"/>
<path d="M74.1749 322.5V321.3H71.3349V320.78L74.0549 316.9H74.8389V320.708H75.6709V321.3H74.8389V322.5H74.1749ZM72.0789 320.708H74.2069V317.644L72.0789 320.708ZM78.6666 322.596C78.1706 322.596 77.7413 322.476 77.3786 322.236C77.0213 321.991 76.7466 321.652 76.5546 321.22C76.3626 320.783 76.2666 320.276 76.2666 319.7C76.2666 319.124 76.3626 318.62 76.5546 318.188C76.7466 317.751 77.0213 317.412 77.3786 317.172C77.7413 316.927 78.1706 316.804 78.6666 316.804C79.1626 316.804 79.5893 316.927 79.9466 317.172C80.304 317.412 80.5786 317.751 80.7706 318.188C80.9626 318.62 81.0586 319.124 81.0586 319.7C81.0586 320.276 80.9626 320.783 80.7706 321.22C80.5786 321.652 80.304 321.991 79.9466 322.236C79.5893 322.476 79.1626 322.596 78.6666 322.596ZM78.6666 322.004C78.992 322.004 79.2826 321.913 79.5386 321.732C79.8 321.545 80.0026 321.281 80.1466 320.94C80.296 320.593 80.3706 320.18 80.3706 319.7C80.3706 319.22 80.296 318.809 80.1466 318.468C80.0026 318.127 79.8 317.865 79.5386 317.684C79.2826 317.497 78.992 317.404 78.6666 317.404C78.336 317.404 78.0426 317.497 77.7866 317.684C77.5306 317.865 77.328 318.127 77.1786 318.468C77.0293 318.809 76.9546 319.22 76.9546 319.7C76.9546 320.18 77.0293 320.593 77.1786 320.94C77.328 321.281 77.5306 321.545 77.7866 321.732C78.0426 321.913 78.336 322.004 78.6666 322.004ZM84.2135 322.596C83.7175 322.596 83.2882 322.476 82.9255 322.236C82.5682 321.991 82.2935 321.652 82.1015 321.22C81.9095 320.783 81.8135 320.276 81.8135 319.7C81.8135 319.124 81.9095 318.62 82.1015 318.188C82.2935 317.751 82.5682 317.412 82.9255 317.172C83.2882 316.927 83.7175 316.804 84.2135 316.804C84.7095 316.804 85.1362 316.927 85.4935 317.172C85.8508 317.412 86.1255 317.751 86.3175 318.188C86.5095 318.62 86.6055 319.124 86.6055 319.7C86.6055 320.276 86.5095 320.783 86.3175 321.22C86.1255 321.652 85.8508 321.991 85.4935 322.236C85.1362 322.476 84.7095 322.596 84.2135 322.596ZM84.2135 322.004C84.5388 322.004 84.8295 321.913 85.0855 321.732C85.3468 321.545 85.5495 321.281 85.6935 320.94C85.8428 320.593 85.9175 320.18 85.9175 319.7C85.9175 319.22 85.8428 318.809 85.6935 318.468C85.5495 318.127 85.3468 317.865 85.0855 317.684C84.8295 317.497 84.5388 317.404 84.2135 317.404C83.8828 317.404 83.5895 317.497 83.3335 317.684C83.0775 317.865 82.8748 318.127 82.7255 318.468C82.5762 318.809 82.5015 319.22 82.5015 319.7C82.5015 320.18 82.5762 320.593 82.7255 320.94C82.8748 321.281 83.0775 321.545 83.3335 321.732C83.5895 321.913 83.8828 322.004 84.2135 322.004ZM87.4481 322.54C87.3147 322.54 87.2027 322.497 87.1121 322.412C87.0267 322.321 86.9841 322.212 86.9841 322.084C86.9841 321.956 87.0267 321.849 87.1121 321.764C87.2027 321.673 87.3147 321.628 87.4481 321.628C87.5761 321.628 87.6827 321.673 87.7681 321.764C87.8587 321.849 87.9041 321.956 87.9041 322.084C87.9041 322.212 87.8587 322.321 87.7681 322.412C87.6827 322.497 87.5761 322.54 87.4481 322.54ZM90.6823 322.596C90.1863 322.596 89.7569 322.476 89.3943 322.236C89.0369 321.991 88.7623 321.652 88.5703 321.22C88.3783 320.783 88.2823 320.276 88.2823 319.7C88.2823 319.124 88.3783 318.62 88.5703 318.188C88.7623 317.751 89.0369 317.412 89.3943 317.172C89.7569 316.927 90.1863 316.804 90.6823 316.804C91.1783 316.804 91.6049 316.927 91.9623 317.172C92.3196 317.412 92.5943 317.751 92.7863 318.188C92.9783 318.62 93.0743 319.124 93.0743 319.7C93.0743 320.276 92.9783 320.783 92.7863 321.22C92.5943 321.652 92.3196 321.991 91.9623 322.236C91.6049 322.476 91.1783 322.596 90.6823 322.596ZM90.6823 322.004C91.0076 322.004 91.2983 321.913 91.5543 321.732C91.8156 321.545 92.0182 321.281 92.1623 320.94C92.3116 320.593 92.3863 320.18 92.3863 319.7C92.3863 319.22 92.3116 318.809 92.1623 318.468C92.0182 318.127 91.8156 317.865 91.5543 317.684C91.2983 317.497 91.0076 317.404 90.6823 317.404C90.3516 317.404 90.0583 317.497 89.8023 317.684C89.5463 317.865 89.3436 318.127 89.1943 318.468C89.0449 318.809 88.9703 319.22 88.9703 319.7C88.9703 320.18 89.0449 320.593 89.1943 320.94C89.3436 321.281 89.5463 321.545 89.8023 321.732C90.0583 321.913 90.3516 322.004 90.6823 322.004ZM96.2291 322.596C95.7331 322.596 95.3038 322.476 94.9411 322.236C94.5838 321.991 94.3091 321.652 94.1171 321.22C93.9251 320.783 93.8291 320.276 93.8291 319.7C93.8291 319.124 93.9251 318.62 94.1171 318.188C94.3091 317.751 94.5838 317.412 94.9411 317.172C95.3038 316.927 95.7331 316.804 96.2291 316.804C96.7251 316.804 97.1518 316.927 97.5091 317.172C97.8665 317.412 98.1411 317.751 98.3331 318.188C98.5251 318.62 98.6211 319.124 98.6211 319.7C98.6211 320.276 98.5251 320.783 98.3331 321.22C98.1411 321.652 97.8665 321.991 97.5091 322.236C97.1518 322.476 96.7251 322.596 96.2291 322.596ZM96.2291 322.004C96.5545 322.004 96.8451 321.913 97.1011 321.732C97.3625 321.545 97.5651 321.281 97.7091 320.94C97.8585 320.593 97.9331 320.18 97.9331 319.7C97.9331 319.22 97.8585 318.809 97.7091 318.468C97.5651 318.127 97.3625 317.865 97.1011 317.684C96.8451 317.497 96.5545 317.404 96.2291 317.404C95.8985 317.404 95.6051 317.497 95.3491 317.684C95.0931 317.865 94.8905 318.127 94.7411 318.468C94.5918 318.809 94.5171 319.22 94.5171 319.7C94.5171 320.18 94.5918 320.593 94.7411 320.94C94.8905 321.281 95.0931 321.545 95.3491 321.732C95.6051 321.913 95.8985 322.004 96.2291 322.004Z" fill="#3A3541" fill-opacity="0.26"/>
<path d="M107 319.5H461" stroke="#E5E6EB" stroke-dasharray="4 4"/>
<path d="M71.8946 360V359.528C72.2733 359.229 72.6306 358.928 72.9666 358.624C73.308 358.315 73.6093 358.011 73.8706 357.712C74.1373 357.413 74.3453 357.12 74.4946 356.832C74.6493 356.544 74.7266 356.267 74.7266 356C74.7266 355.803 74.692 355.619 74.6226 355.448C74.5586 355.277 74.452 355.141 74.3026 355.04C74.1533 354.933 73.9506 354.88 73.6946 354.88C73.4493 354.88 73.244 354.936 73.0786 355.048C72.9133 355.155 72.788 355.299 72.7026 355.48C72.6226 355.661 72.5826 355.856 72.5826 356.064H71.9346C71.9346 355.696 72.012 355.381 72.1666 355.12C72.3213 354.853 72.532 354.651 72.7986 354.512C73.0653 354.373 73.3666 354.304 73.7026 354.304C74.1986 354.304 74.604 354.445 74.9186 354.728C75.2386 355.005 75.3986 355.421 75.3986 355.976C75.3986 356.307 75.316 356.635 75.1506 356.96C74.9853 357.28 74.7746 357.592 74.5186 357.896C74.2626 358.195 73.988 358.475 73.6946 358.736C73.4066 358.997 73.1373 359.232 72.8866 359.44H75.5906V360H71.8946ZM78.6666 360.096C78.1706 360.096 77.7413 359.976 77.3786 359.736C77.0213 359.491 76.7466 359.152 76.5546 358.72C76.3626 358.283 76.2666 357.776 76.2666 357.2C76.2666 356.624 76.3626 356.12 76.5546 355.688C76.7466 355.251 77.0213 354.912 77.3786 354.672C77.7413 354.427 78.1706 354.304 78.6666 354.304C79.1626 354.304 79.5893 354.427 79.9466 354.672C80.304 354.912 80.5786 355.251 80.7706 355.688C80.9626 356.12 81.0586 356.624 81.0586 357.2C81.0586 357.776 80.9626 358.283 80.7706 358.72C80.5786 359.152 80.304 359.491 79.9466 359.736C79.5893 359.976 79.1626 360.096 78.6666 360.096ZM78.6666 359.504C78.992 359.504 79.2826 359.413 79.5386 359.232C79.8 359.045 80.0026 358.781 80.1466 358.44C80.296 358.093 80.3706 357.68 80.3706 357.2C80.3706 356.72 80.296 356.309 80.1466 355.968C80.0026 355.627 79.8 355.365 79.5386 355.184C79.2826 354.997 78.992 354.904 78.6666 354.904C78.336 354.904 78.0426 354.997 77.7866 355.184C77.5306 355.365 77.328 355.627 77.1786 355.968C77.0293 356.309 76.9546 356.72 76.9546 357.2C76.9546 357.68 77.0293 358.093 77.1786 358.44C77.328 358.781 77.5306 359.045 77.7866 359.232C78.0426 359.413 78.336 359.504 78.6666 359.504ZM84.2135 360.096C83.7175 360.096 83.2882 359.976 82.9255 359.736C82.5682 359.491 82.2935 359.152 82.1015 358.72C81.9095 358.283 81.8135 357.776 81.8135 357.2C81.8135 356.624 81.9095 356.12 82.1015 355.688C82.2935 355.251 82.5682 354.912 82.9255 354.672C83.2882 354.427 83.7175 354.304 84.2135 354.304C84.7095 354.304 85.1362 354.427 85.4935 354.672C85.8508 354.912 86.1255 355.251 86.3175 355.688C86.5095 356.12 86.6055 356.624 86.6055 357.2C86.6055 357.776 86.5095 358.283 86.3175 358.72C86.1255 359.152 85.8508 359.491 85.4935 359.736C85.1362 359.976 84.7095 360.096 84.2135 360.096ZM84.2135 359.504C84.5388 359.504 84.8295 359.413 85.0855 359.232C85.3468 359.045 85.5495 358.781 85.6935 358.44C85.8428 358.093 85.9175 357.68 85.9175 357.2C85.9175 356.72 85.8428 356.309 85.6935 355.968C85.5495 355.627 85.3468 355.365 85.0855 355.184C84.8295 354.997 84.5388 354.904 84.2135 354.904C83.8828 354.904 83.5895 354.997 83.3335 355.184C83.0775 355.365 82.8748 355.627 82.7255 355.968C82.5762 356.309 82.5015 356.72 82.5015 357.2C82.5015 357.68 82.5762 358.093 82.7255 358.44C82.8748 358.781 83.0775 359.045 83.3335 359.232C83.5895 359.413 83.8828 359.504 84.2135 359.504ZM87.4481 360.04C87.3147 360.04 87.2027 359.997 87.1121 359.912C87.0267 359.821 86.9841 359.712 86.9841 359.584C86.9841 359.456 87.0267 359.349 87.1121 359.264C87.2027 359.173 87.3147 359.128 87.4481 359.128C87.5761 359.128 87.6827 359.173 87.7681 359.264C87.8587 359.349 87.9041 359.456 87.9041 359.584C87.9041 359.712 87.8587 359.821 87.7681 359.912C87.6827 359.997 87.5761 360.04 87.4481 360.04ZM90.6823 360.096C90.1863 360.096 89.7569 359.976 89.3943 359.736C89.0369 359.491 88.7623 359.152 88.5703 358.72C88.3783 358.283 88.2823 357.776 88.2823 357.2C88.2823 356.624 88.3783 356.12 88.5703 355.688C88.7623 355.251 89.0369 354.912 89.3943 354.672C89.7569 354.427 90.1863 354.304 90.6823 354.304C91.1783 354.304 91.6049 354.427 91.9623 354.672C92.3196 354.912 92.5943 355.251 92.7863 355.688C92.9783 356.12 93.0743 356.624 93.0743 357.2C93.0743 357.776 92.9783 358.283 92.7863 358.72C92.5943 359.152 92.3196 359.491 91.9623 359.736C91.6049 359.976 91.1783 360.096 90.6823 360.096ZM90.6823 359.504C91.0076 359.504 91.2983 359.413 91.5543 359.232C91.8156 359.045 92.0182 358.781 92.1623 358.44C92.3116 358.093 92.3863 357.68 92.3863 357.2C92.3863 356.72 92.3116 356.309 92.1623 355.968C92.0182 355.627 91.8156 355.365 91.5543 355.184C91.2983 354.997 91.0076 354.904 90.6823 354.904C90.3516 354.904 90.0583 354.997 89.8023 355.184C89.5463 355.365 89.3436 355.627 89.1943 355.968C89.0449 356.309 88.9703 356.72 88.9703 357.2C88.9703 357.68 89.0449 358.093 89.1943 358.44C89.3436 358.781 89.5463 359.045 89.8023 359.232C90.0583 359.413 90.3516 359.504 90.6823 359.504ZM96.2291 360.096C95.7331 360.096 95.3038 359.976 94.9411 359.736C94.5838 359.491 94.3091 359.152 94.1171 358.72C93.9251 358.283 93.8291 357.776 93.8291 357.2C93.8291 356.624 93.9251 356.12 94.1171 355.688C94.3091 355.251 94.5838 354.912 94.9411 354.672C95.3038 354.427 95.7331 354.304 96.2291 354.304C96.7251 354.304 97.1518 354.427 97.5091 354.672C97.8665 354.912 98.1411 355.251 98.3331 355.688C98.5251 356.12 98.6211 356.624 98.6211 357.2C98.6211 357.776 98.5251 358.283 98.3331 358.72C98.1411 359.152 97.8665 359.491 97.5091 359.736C97.1518 359.976 96.7251 360.096 96.2291 360.096ZM96.2291 359.504C96.5545 359.504 96.8451 359.413 97.1011 359.232C97.3625 359.045 97.5651 358.781 97.7091 358.44C97.8585 358.093 97.9331 357.68 97.9331 357.2C97.9331 356.72 97.8585 356.309 97.7091 355.968C97.5651 355.627 97.3625 355.365 97.1011 355.184C96.8451 354.997 96.5545 354.904 96.2291 354.904C95.8985 354.904 95.6051 354.997 95.3491 355.184C95.0931 355.365 94.8905 355.627 94.7411 355.968C94.5918 356.309 94.5171 356.72 94.5171 357.2C94.5171 357.68 94.5918 358.093 94.7411 358.44C94.8905 358.781 95.0931 359.045 95.3491 359.232C95.6051 359.413 95.8985 359.504 96.2291 359.504Z" fill="#3A3541" fill-opacity="0.26"/>
<path d="M107 357H461" stroke="#E5E6EB" stroke-dasharray="4 4"/>
<rect x="393.724" y="180" width="12" height="12" rx="6" fill="#3C3CCE"/>
<path d="M410.464 189V182H411.304V188.33H414.564V189H410.464ZM416.178 182.94C416.011 182.94 415.871 182.887 415.758 182.78C415.651 182.667 415.598 182.527 415.598 182.36C415.598 182.2 415.651 182.067 415.758 181.96C415.871 181.853 416.011 181.8 416.178 181.8C416.338 181.8 416.474 181.853 416.588 181.96C416.701 182.067 416.758 182.2 416.758 182.36C416.758 182.527 416.701 182.667 416.588 182.78C416.474 182.887 416.338 182.94 416.178 182.94ZM415.758 189V184.04H416.598V189H415.758ZM418.06 189V184.04H418.82L418.87 184.93C419.03 184.617 419.26 184.37 419.56 184.19C419.86 184.01 420.2 183.92 420.58 183.92C421.167 183.92 421.633 184.1 421.98 184.46C422.333 184.813 422.51 185.36 422.51 186.1V189H421.67V186.19C421.67 185.157 421.243 184.64 420.39 184.64C419.963 184.64 419.607 184.797 419.32 185.11C419.04 185.417 418.9 185.857 418.9 186.43V189H418.06ZM423.783 189V181.8H424.623V186.13L426.653 184.04H427.683L425.483 186.28L427.963 189H426.893L424.623 186.43V189H423.783ZM430.691 189.12C430.217 189.12 429.797 189.013 429.431 188.8C429.064 188.58 428.774 188.277 428.561 187.89C428.354 187.503 428.251 187.047 428.251 186.52C428.251 186 428.354 185.547 428.561 185.16C428.767 184.767 429.054 184.463 429.421 184.25C429.794 184.03 430.224 183.92 430.711 183.92C431.191 183.92 431.604 184.03 431.951 184.25C432.304 184.463 432.574 184.747 432.761 185.1C432.947 185.453 433.041 185.833 433.041 186.24C433.041 186.313 433.037 186.387 433.031 186.46C433.031 186.533 433.031 186.617 433.031 186.71H429.081C429.101 187.09 429.187 187.407 429.341 187.66C429.501 187.907 429.697 188.093 429.931 188.22C430.171 188.347 430.424 188.41 430.691 188.41C431.037 188.41 431.327 188.33 431.561 188.17C431.794 188.01 431.964 187.793 432.071 187.52H432.901C432.767 187.98 432.511 188.363 432.131 188.67C431.757 188.97 431.277 189.12 430.691 189.12ZM430.691 184.63C430.291 184.63 429.934 184.753 429.621 185C429.314 185.24 429.137 185.593 429.091 186.06H432.211C432.191 185.613 432.037 185.263 431.751 185.01C431.464 184.757 431.111 184.63 430.691 184.63ZM436.404 189.12C435.911 189.12 435.477 189.007 435.104 188.78C434.737 188.553 434.451 188.243 434.244 187.85C434.044 187.457 433.944 187.01 433.944 186.51C433.944 186.01 434.047 185.567 434.254 185.18C434.461 184.787 434.747 184.48 435.114 184.26C435.481 184.033 435.914 183.92 436.414 183.92C436.821 183.92 437.181 184.003 437.494 184.17C437.807 184.337 438.051 184.57 438.224 184.87V181.8H439.064V189H438.304L438.224 188.18C438.064 188.42 437.834 188.637 437.534 188.83C437.234 189.023 436.857 189.12 436.404 189.12ZM436.494 188.39C436.827 188.39 437.121 188.313 437.374 188.16C437.634 188 437.834 187.78 437.974 187.5C438.121 187.22 438.194 186.893 438.194 186.52C438.194 186.147 438.121 185.82 437.974 185.54C437.834 185.26 437.634 185.043 437.374 184.89C437.121 184.73 436.827 184.65 436.494 184.65C436.167 184.65 435.874 184.73 435.614 184.89C435.361 185.043 435.161 185.26 435.014 185.54C434.874 185.82 434.804 186.147 434.804 186.52C434.804 186.893 434.874 187.22 435.014 187.5C435.161 187.78 435.361 188 435.614 188.16C435.874 188.313 436.167 188.39 436.494 188.39ZM440.943 182.94C440.776 182.94 440.636 182.887 440.523 182.78C440.416 182.667 440.363 182.527 440.363 182.36C440.363 182.2 440.416 182.067 440.523 181.96C440.636 181.853 440.776 181.8 440.943 181.8C441.103 181.8 441.24 181.853 441.353 181.96C441.466 182.067 441.523 182.2 441.523 182.36C441.523 182.527 441.466 182.667 441.353 182.78C441.24 182.887 441.103 182.94 440.943 182.94ZM440.523 189V184.04H441.363V189H440.523ZM442.826 189V184.04H443.586L443.636 184.93C443.796 184.617 444.026 184.37 444.326 184.19C444.626 184.01 444.966 183.92 445.346 183.92C445.932 183.92 446.399 184.1 446.746 184.46C447.099 184.813 447.276 185.36 447.276 186.1V189H446.436V186.19C446.436 185.157 446.009 184.64 445.156 184.64C444.729 184.64 444.372 184.797 444.086 185.11C443.806 185.417 443.666 185.857 443.666 186.43V189H442.826Z" fill="#3A3541" fill-opacity="0.26"/>
<rect x="312.724" y="180" width="12" height="12" rx="6" fill="#7878E6"/>
<path d="M329.464 189V182H333.724V182.69H330.304V185.15H333.214V185.83H330.304V189H329.464ZM336.064 189.12C335.65 189.12 335.307 189.05 335.034 188.91C334.76 188.77 334.557 188.583 334.424 188.35C334.29 188.117 334.224 187.863 334.224 187.59C334.224 187.083 334.417 186.693 334.804 186.42C335.19 186.147 335.717 186.01 336.384 186.01H337.724V185.95C337.724 185.517 337.61 185.19 337.384 184.97C337.157 184.743 336.854 184.63 336.474 184.63C336.147 184.63 335.864 184.713 335.624 184.88C335.39 185.04 335.244 185.277 335.184 185.59H334.324C334.357 185.23 334.477 184.927 334.684 184.68C334.897 184.433 335.16 184.247 335.474 184.12C335.787 183.987 336.12 183.92 336.474 183.92C337.167 183.92 337.687 184.107 338.034 184.48C338.387 184.847 338.564 185.337 338.564 185.95V189H337.814L337.764 188.11C337.624 188.39 337.417 188.63 337.144 188.83C336.877 189.023 336.517 189.12 336.064 189.12ZM336.194 188.41C336.514 188.41 336.787 188.327 337.014 188.16C337.247 187.993 337.424 187.777 337.544 187.51C337.664 187.243 337.724 186.963 337.724 186.67V186.66H336.454C335.96 186.66 335.61 186.747 335.404 186.92C335.204 187.087 335.104 187.297 335.104 187.55C335.104 187.81 335.197 188.02 335.384 188.18C335.577 188.333 335.847 188.41 336.194 188.41ZM342.104 189.12C341.63 189.12 341.204 189.013 340.824 188.8C340.45 188.58 340.154 188.277 339.934 187.89C339.72 187.497 339.614 187.04 339.614 186.52C339.614 186 339.72 185.547 339.934 185.16C340.154 184.767 340.45 184.463 340.824 184.25C341.204 184.03 341.63 183.92 342.104 183.92C342.69 183.92 343.184 184.073 343.584 184.38C343.99 184.687 344.247 185.097 344.354 185.61H343.494C343.427 185.303 343.264 185.067 343.004 184.9C342.744 184.727 342.44 184.64 342.094 184.64C341.814 184.64 341.55 184.71 341.304 184.85C341.057 184.99 340.857 185.2 340.704 185.48C340.55 185.76 340.474 186.107 340.474 186.52C340.474 186.933 340.55 187.28 340.704 187.56C340.857 187.84 341.057 188.053 341.304 188.2C341.55 188.34 341.814 188.41 342.094 188.41C342.44 188.41 342.744 188.327 343.004 188.16C343.264 187.987 343.427 187.743 343.494 187.43H344.354C344.254 187.93 344 188.337 343.594 188.65C343.187 188.963 342.69 189.12 342.104 189.12ZM347.757 189.12C347.284 189.12 346.864 189.013 346.497 188.8C346.13 188.58 345.84 188.277 345.627 187.89C345.42 187.503 345.317 187.047 345.317 186.52C345.317 186 345.42 185.547 345.627 185.16C345.834 184.767 346.12 184.463 346.487 184.25C346.86 184.03 347.29 183.92 347.777 183.92C348.257 183.92 348.67 184.03 349.017 184.25C349.37 184.463 349.64 184.747 349.827 185.1C350.014 185.453 350.107 185.833 350.107 186.24C350.107 186.313 350.104 186.387 350.097 186.46C350.097 186.533 350.097 186.617 350.097 186.71H346.147C346.167 187.09 346.254 187.407 346.407 187.66C346.567 187.907 346.764 188.093 346.997 188.22C347.237 188.347 347.49 188.41 347.757 188.41C348.104 188.41 348.394 188.33 348.627 188.17C348.86 188.01 349.03 187.793 349.137 187.52H349.967C349.834 187.98 349.577 188.363 349.197 188.67C348.824 188.97 348.344 189.12 347.757 189.12ZM347.757 184.63C347.357 184.63 347 184.753 346.687 185C346.38 185.24 346.204 185.593 346.157 186.06H349.277C349.257 185.613 349.104 185.263 348.817 185.01C348.53 184.757 348.177 184.63 347.757 184.63ZM353.87 189.12C353.464 189.12 353.1 189.037 352.78 188.87C352.467 188.703 352.227 188.47 352.06 188.17L351.98 189H351.22V181.8H352.06V184.86C352.22 184.62 352.447 184.403 352.74 184.21C353.04 184.017 353.42 183.92 353.88 183.92C354.374 183.92 354.804 184.033 355.17 184.26C355.537 184.487 355.82 184.797 356.02 185.19C356.227 185.583 356.33 186.03 356.33 186.53C356.33 187.03 356.227 187.477 356.02 187.87C355.82 188.257 355.534 188.563 355.16 188.79C354.794 189.01 354.364 189.12 353.87 189.12ZM353.78 188.39C354.114 188.39 354.407 188.313 354.66 188.16C354.914 188 355.114 187.78 355.26 187.5C355.407 187.22 355.48 186.893 355.48 186.52C355.48 186.147 355.407 185.82 355.26 185.54C355.114 185.26 354.914 185.043 354.66 184.89C354.407 184.73 354.114 184.65 353.78 184.65C353.447 184.65 353.154 184.73 352.9 184.89C352.647 185.043 352.447 185.26 352.3 185.54C352.154 185.82 352.08 186.147 352.08 186.52C352.08 186.893 352.154 187.22 352.3 187.5C352.447 187.78 352.647 188 352.9 188.16C353.154 188.313 353.447 188.39 353.78 188.39ZM359.76 189.12C359.293 189.12 358.873 189.013 358.5 188.8C358.126 188.587 357.83 188.287 357.61 187.9C357.396 187.507 357.29 187.047 357.29 186.52C357.29 185.993 357.4 185.537 357.62 185.15C357.84 184.757 358.136 184.453 358.51 184.24C358.89 184.027 359.313 183.92 359.78 183.92C360.246 183.92 360.666 184.027 361.04 184.24C361.413 184.453 361.706 184.757 361.92 185.15C362.14 185.537 362.25 185.993 362.25 186.52C362.25 187.047 362.14 187.507 361.92 187.9C361.7 188.287 361.4 188.587 361.02 188.8C360.646 189.013 360.226 189.12 359.76 189.12ZM359.76 188.4C360.046 188.4 360.313 188.33 360.56 188.19C360.806 188.05 361.006 187.84 361.16 187.56C361.313 187.28 361.39 186.933 361.39 186.52C361.39 186.107 361.313 185.76 361.16 185.48C361.013 185.2 360.816 184.99 360.57 184.85C360.323 184.71 360.06 184.64 359.78 184.64C359.493 184.64 359.226 184.71 358.98 184.85C358.733 184.99 358.533 185.2 358.38 185.48C358.226 185.76 358.15 186.107 358.15 186.52C358.15 186.933 358.226 187.28 358.38 187.56C358.533 187.84 358.73 188.05 358.97 188.19C359.216 188.33 359.48 188.4 359.76 188.4ZM365.678 189.12C365.211 189.12 364.791 189.013 364.418 188.8C364.044 188.587 363.748 188.287 363.528 187.9C363.314 187.507 363.208 187.047 363.208 186.52C363.208 185.993 363.318 185.537 363.538 185.15C363.758 184.757 364.054 184.453 364.428 184.24C364.808 184.027 365.231 183.92 365.698 183.92C366.164 183.92 366.584 184.027 366.958 184.24C367.331 184.453 367.624 184.757 367.838 185.15C368.058 185.537 368.168 185.993 368.168 186.52C368.168 187.047 368.058 187.507 367.838 187.9C367.618 188.287 367.318 188.587 366.938 188.8C366.564 189.013 366.144 189.12 365.678 189.12ZM365.678 188.4C365.964 188.4 366.231 188.33 366.478 188.19C366.724 188.05 366.924 187.84 367.078 187.56C367.231 187.28 367.308 186.933 367.308 186.52C367.308 186.107 367.231 185.76 367.078 185.48C366.931 185.2 366.734 184.99 366.488 184.85C366.241 184.71 365.978 184.64 365.698 184.64C365.411 184.64 365.144 184.71 364.898 184.85C364.651 184.99 364.451 185.2 364.298 185.48C364.144 185.76 364.068 186.107 364.068 186.52C364.068 186.933 364.144 187.28 364.298 187.56C364.451 187.84 364.648 188.05 364.888 188.19C365.134 188.33 365.398 188.4 365.678 188.4ZM369.336 189V181.8H370.176V186.13L372.206 184.04H373.236L371.036 186.28L373.516 189H372.446L370.176 186.43V189H369.336Z" fill="#3A3541" fill-opacity="0.26"/>
<rect x="165" y="180.094" width="12" height="12" rx="6" fill="#CBCBCD"/>
<path d="M181.74 189.094V182.094H182.58V189.094H181.74ZM184.014 189.094V184.134H184.774L184.824 185.024C184.984 184.711 185.214 184.464 185.514 184.284C185.814 184.104 186.154 184.014 186.534 184.014C187.121 184.014 187.588 184.194 187.934 184.554C188.288 184.907 188.464 185.454 188.464 186.194V189.094H187.624V186.284C187.624 185.251 187.198 184.734 186.344 184.734C185.918 184.734 185.561 184.891 185.274 185.204C184.994 185.511 184.854 185.951 184.854 186.524V189.094H184.014ZM191.637 189.214C191.044 189.214 190.55 189.064 190.157 188.764C189.764 188.464 189.534 188.057 189.467 187.544H190.327C190.38 187.804 190.517 188.031 190.737 188.224C190.964 188.411 191.267 188.504 191.647 188.504C192 188.504 192.26 188.431 192.427 188.284C192.594 188.131 192.677 187.951 192.677 187.744C192.677 187.444 192.567 187.244 192.347 187.144C192.134 187.044 191.83 186.954 191.437 186.874C191.17 186.821 190.904 186.744 190.637 186.644C190.37 186.544 190.147 186.404 189.967 186.224C189.787 186.037 189.697 185.794 189.697 185.494C189.697 185.061 189.857 184.707 190.177 184.434C190.504 184.154 190.944 184.014 191.497 184.014C192.024 184.014 192.454 184.147 192.787 184.414C193.127 184.674 193.324 185.047 193.377 185.534H192.547C192.514 185.281 192.404 185.084 192.217 184.944C192.037 184.797 191.794 184.724 191.487 184.724C191.187 184.724 190.954 184.787 190.787 184.914C190.627 185.041 190.547 185.207 190.547 185.414C190.547 185.614 190.65 185.771 190.857 185.884C191.07 185.997 191.357 186.094 191.717 186.174C192.024 186.241 192.314 186.324 192.587 186.424C192.867 186.517 193.094 186.661 193.267 186.854C193.447 187.041 193.537 187.314 193.537 187.674C193.544 188.121 193.374 188.491 193.027 188.784C192.687 189.071 192.224 189.214 191.637 189.214ZM196.472 189.094C196.019 189.094 195.662 188.984 195.402 188.764C195.142 188.544 195.012 188.147 195.012 187.574V184.844H194.152V184.134H195.012L195.122 182.944H195.852V184.134H197.312V184.844H195.852V187.574C195.852 187.887 195.916 188.101 196.042 188.214C196.169 188.321 196.392 188.374 196.712 188.374H197.232V189.094H196.472ZM200.029 189.214C199.616 189.214 199.273 189.144 198.999 189.004C198.726 188.864 198.523 188.677 198.389 188.444C198.256 188.211 198.189 187.957 198.189 187.684C198.189 187.177 198.383 186.787 198.769 186.514C199.156 186.241 199.683 186.104 200.349 186.104H201.689V186.044C201.689 185.611 201.576 185.284 201.349 185.064C201.123 184.837 200.819 184.724 200.439 184.724C200.113 184.724 199.829 184.807 199.589 184.974C199.356 185.134 199.209 185.371 199.149 185.684H198.289C198.323 185.324 198.443 185.021 198.649 184.774C198.863 184.527 199.126 184.341 199.439 184.214C199.753 184.081 200.086 184.014 200.439 184.014C201.133 184.014 201.653 184.201 201.999 184.574C202.353 184.941 202.529 185.431 202.529 186.044V189.094H201.779L201.729 188.204C201.589 188.484 201.383 188.724 201.109 188.924C200.843 189.117 200.483 189.214 200.029 189.214ZM200.159 188.504C200.479 188.504 200.753 188.421 200.979 188.254C201.213 188.087 201.389 187.871 201.509 187.604C201.629 187.337 201.689 187.057 201.689 186.764V186.754H200.419C199.926 186.754 199.576 186.841 199.369 187.014C199.169 187.181 199.069 187.391 199.069 187.644C199.069 187.904 199.163 188.114 199.349 188.274C199.543 188.427 199.813 188.504 200.159 188.504ZM205.75 187.534C205.47 187.534 205.213 187.497 204.98 187.424L204.48 187.894C204.553 187.947 204.643 187.994 204.75 188.034C204.863 188.067 205.023 188.101 205.23 188.134C205.436 188.161 205.726 188.191 206.1 188.224C206.766 188.271 207.243 188.424 207.53 188.684C207.816 188.944 207.96 189.284 207.96 189.704C207.96 189.991 207.88 190.264 207.72 190.524C207.566 190.784 207.326 190.997 207 191.164C206.68 191.331 206.266 191.414 205.76 191.414C205.313 191.414 204.916 191.354 204.57 191.234C204.223 191.121 203.953 190.944 203.76 190.704C203.566 190.471 203.47 190.174 203.47 189.814C203.47 189.627 203.52 189.424 203.62 189.204C203.72 188.991 203.906 188.787 204.18 188.594C204.033 188.534 203.906 188.471 203.8 188.404C203.7 188.331 203.606 188.251 203.52 188.164V187.934L204.37 187.094C203.976 186.761 203.78 186.321 203.78 185.774C203.78 185.447 203.856 185.151 204.01 184.884C204.163 184.617 204.386 184.407 204.68 184.254C204.973 184.094 205.33 184.014 205.75 184.014C206.036 184.014 206.296 184.054 206.53 184.134H208.36V184.764L207.43 184.804C207.623 185.084 207.72 185.407 207.72 185.774C207.72 186.101 207.64 186.397 207.48 186.664C207.326 186.931 207.103 187.144 206.81 187.304C206.523 187.457 206.17 187.534 205.75 187.534ZM205.75 186.844C206.103 186.844 206.383 186.754 206.59 186.574C206.803 186.387 206.91 186.121 206.91 185.774C206.91 185.434 206.803 185.174 206.59 184.994C206.383 184.807 206.103 184.714 205.75 184.714C205.39 184.714 205.103 184.807 204.89 184.994C204.683 185.174 204.58 185.434 204.58 185.774C204.58 186.121 204.683 186.387 204.89 186.574C205.103 186.754 205.39 186.844 205.75 186.844ZM204.29 189.734C204.29 190.067 204.43 190.314 204.71 190.474C204.99 190.641 205.34 190.724 205.76 190.724C206.173 190.724 206.503 190.634 206.75 190.454C207.003 190.274 207.13 190.034 207.13 189.734C207.13 189.521 207.043 189.334 206.87 189.174C206.696 189.021 206.376 188.931 205.91 188.904C205.543 188.877 205.226 188.844 204.96 188.804C204.686 188.951 204.506 189.107 204.42 189.274C204.333 189.447 204.29 189.601 204.29 189.734ZM209.307 189.094V184.134H210.067L210.137 185.084C210.291 184.757 210.524 184.497 210.837 184.304C211.151 184.111 211.537 184.014 211.997 184.014V184.894H211.767C211.474 184.894 211.204 184.947 210.957 185.054C210.711 185.154 210.514 185.327 210.367 185.574C210.221 185.821 210.147 186.161 210.147 186.594V189.094H209.307ZM214.59 189.214C214.177 189.214 213.833 189.144 213.56 189.004C213.287 188.864 213.083 188.677 212.95 188.444C212.817 188.211 212.75 187.957 212.75 187.684C212.75 187.177 212.943 186.787 213.33 186.514C213.717 186.241 214.243 186.104 214.91 186.104H216.25V186.044C216.25 185.611 216.137 185.284 215.91 185.064C215.683 184.837 215.38 184.724 215 184.724C214.673 184.724 214.39 184.807 214.15 184.974C213.917 185.134 213.77 185.371 213.71 185.684H212.85C212.883 185.324 213.003 185.021 213.21 184.774C213.423 184.527 213.687 184.341 214 184.214C214.313 184.081 214.647 184.014 215 184.014C215.693 184.014 216.213 184.201 216.56 184.574C216.913 184.941 217.09 185.431 217.09 186.044V189.094H216.34L216.29 188.204C216.15 188.484 215.943 188.724 215.67 188.924C215.403 189.117 215.043 189.214 214.59 189.214ZM214.72 188.504C215.04 188.504 215.313 188.421 215.54 188.254C215.773 188.087 215.95 187.871 216.07 187.604C216.19 187.337 216.25 187.057 216.25 186.764V186.754H214.98C214.487 186.754 214.137 186.841 213.93 187.014C213.73 187.181 213.63 187.391 213.63 187.644C213.63 187.904 213.723 188.114 213.91 188.274C214.103 188.427 214.373 188.504 214.72 188.504ZM218.35 189.094V184.134H219.11L219.17 184.854C219.33 184.587 219.543 184.381 219.81 184.234C220.077 184.087 220.377 184.014 220.71 184.014C221.103 184.014 221.44 184.094 221.72 184.254C222.007 184.414 222.227 184.657 222.38 184.984C222.553 184.684 222.79 184.447 223.09 184.274C223.397 184.101 223.727 184.014 224.08 184.014C224.673 184.014 225.147 184.194 225.5 184.554C225.853 184.907 226.03 185.454 226.03 186.194V189.094H225.2V186.284C225.2 185.771 225.097 185.384 224.89 185.124C224.683 184.864 224.387 184.734 224 184.734C223.6 184.734 223.267 184.891 223 185.204C222.74 185.511 222.61 185.951 222.61 186.524V189.094H221.77V186.284C221.77 185.771 221.667 185.384 221.46 185.124C221.253 184.864 220.957 184.734 220.57 184.734C220.177 184.734 219.847 184.891 219.58 185.204C219.32 185.511 219.19 185.951 219.19 186.524V189.094H218.35Z" fill="#3A3541" fill-opacity="0.26"/>
<rect x="246.724" y="180.094" width="12" height="12" rx="6" fill="#B7B7EF"/>
<path d="M265.104 189.094V182.784H263.014V182.094H268.034V182.784H265.944V189.094H265.104ZM269.482 189.094L268.032 184.134H268.872L269.922 188.024L271.082 184.134H272.032L273.202 188.024L274.242 184.134H275.092L273.642 189.094H272.782L271.562 185.004L270.342 189.094H269.482ZM276.531 183.034C276.364 183.034 276.224 182.981 276.111 182.874C276.004 182.761 275.951 182.621 275.951 182.454C275.951 182.294 276.004 182.161 276.111 182.054C276.224 181.947 276.364 181.894 276.531 181.894C276.691 181.894 276.828 181.947 276.941 182.054C277.054 182.161 277.111 182.294 277.111 182.454C277.111 182.621 277.054 182.761 276.941 182.874C276.828 182.981 276.691 183.034 276.531 183.034ZM276.111 189.094V184.134H276.951V189.094H276.111ZM280.374 189.094C279.92 189.094 279.564 188.984 279.304 188.764C279.044 188.544 278.914 188.147 278.914 187.574V184.844H278.054V184.134H278.914L279.024 182.944H279.754V184.134H281.214V184.844H279.754V187.574C279.754 187.887 279.817 188.101 279.944 188.214C280.07 188.321 280.294 188.374 280.614 188.374H281.134V189.094H280.374ZM284.241 189.094C283.787 189.094 283.431 188.984 283.171 188.764C282.911 188.544 282.781 188.147 282.781 187.574V184.844H281.921V184.134H282.781L282.891 182.944H283.621V184.134H285.081V184.844H283.621V187.574C283.621 187.887 283.684 188.101 283.811 188.214C283.937 188.321 284.161 188.374 284.481 188.374H285.001V189.094H284.241ZM288.241 189.214C287.768 189.214 287.348 189.107 286.981 188.894C286.615 188.674 286.325 188.371 286.111 187.984C285.905 187.597 285.801 187.141 285.801 186.614C285.801 186.094 285.905 185.641 286.111 185.254C286.318 184.861 286.605 184.557 286.971 184.344C287.345 184.124 287.775 184.014 288.261 184.014C288.741 184.014 289.155 184.124 289.501 184.344C289.855 184.557 290.125 184.841 290.311 185.194C290.498 185.547 290.591 185.927 290.591 186.334C290.591 186.407 290.588 186.481 290.581 186.554C290.581 186.627 290.581 186.711 290.581 186.804H286.631C286.651 187.184 286.738 187.501 286.891 187.754C287.051 188.001 287.248 188.187 287.481 188.314C287.721 188.441 287.975 188.504 288.241 188.504C288.588 188.504 288.878 188.424 289.111 188.264C289.345 188.104 289.515 187.887 289.621 187.614H290.451C290.318 188.074 290.061 188.457 289.681 188.764C289.308 189.064 288.828 189.214 288.241 189.214ZM288.241 184.724C287.841 184.724 287.485 184.847 287.171 185.094C286.865 185.334 286.688 185.687 286.641 186.154H289.761C289.741 185.707 289.588 185.357 289.301 185.104C289.015 184.851 288.661 184.724 288.241 184.724ZM291.705 189.094V184.134H292.465L292.535 185.084C292.688 184.757 292.921 184.497 293.235 184.304C293.548 184.111 293.935 184.014 294.395 184.014V184.894H294.165C293.871 184.894 293.601 184.947 293.355 185.054C293.108 185.154 292.911 185.327 292.765 185.574C292.618 185.821 292.545 186.161 292.545 186.594V189.094H291.705Z" fill="#3A3541" fill-opacity="0.26"/>
<path d="M118.294 402.5V397.652L117.39 397.852V397.388L118.518 396.9H118.974V402.5H118.294Z" fill="#3A3541" fill-opacity="0.26"/>
<path d="M169.286 402.5V402.028C169.665 401.729 170.022 401.428 170.358 401.124C170.7 400.815 171.001 400.511 171.262 400.212C171.529 399.913 171.737 399.62 171.886 399.332C172.041 399.044 172.118 398.767 172.118 398.5C172.118 398.303 172.084 398.119 172.014 397.948C171.95 397.777 171.844 397.641 171.694 397.54C171.545 397.433 171.342 397.38 171.086 397.38C170.841 397.38 170.636 397.436 170.47 397.548C170.305 397.655 170.18 397.799 170.094 397.98C170.014 398.161 169.974 398.356 169.974 398.564H169.326C169.326 398.196 169.404 397.881 169.558 397.62C169.713 397.353 169.924 397.151 170.19 397.012C170.457 396.873 170.758 396.804 171.094 396.804C171.59 396.804 171.996 396.945 172.31 397.228C172.63 397.505 172.79 397.921 172.79 398.476C172.79 398.807 172.708 399.135 172.542 399.46C172.377 399.78 172.166 400.092 171.91 400.396C171.654 400.695 171.38 400.975 171.086 401.236C170.798 401.497 170.529 401.732 170.278 401.94H172.982V402.5H169.286Z" fill="#3A3541" fill-opacity="0.26"/>
<path d="M223.771 402.596C223.413 402.596 223.091 402.532 222.803 402.404C222.515 402.271 222.283 402.073 222.107 401.812C221.936 401.551 221.845 401.225 221.835 400.836H222.515C222.52 401.156 222.632 401.433 222.851 401.668C223.069 401.897 223.376 402.012 223.771 402.012C224.165 402.012 224.461 401.903 224.659 401.684C224.861 401.465 224.963 401.201 224.963 400.892C224.963 400.631 224.899 400.417 224.771 400.252C224.648 400.087 224.48 399.964 224.267 399.884C224.059 399.804 223.829 399.764 223.579 399.764H223.163V399.196H223.579C223.941 399.196 224.224 399.113 224.427 398.948C224.635 398.783 224.739 398.551 224.739 398.252C224.739 398.001 224.656 397.796 224.491 397.636C224.331 397.471 224.091 397.388 223.771 397.388C223.461 397.388 223.213 397.481 223.027 397.668C222.84 397.849 222.736 398.079 222.715 398.356H222.035C222.051 398.052 222.131 397.783 222.275 397.548C222.424 397.313 222.627 397.132 222.883 397.004C223.139 396.871 223.435 396.804 223.771 396.804C224.133 396.804 224.435 396.868 224.675 396.996C224.92 397.124 225.104 397.295 225.227 397.508C225.355 397.721 225.419 397.956 225.419 398.212C225.419 398.495 225.341 398.753 225.187 398.988C225.032 399.217 224.8 399.372 224.491 399.452C224.821 399.521 225.096 399.679 225.315 399.924C225.533 400.169 225.643 400.492 225.643 400.892C225.643 401.201 225.571 401.487 225.427 401.748C225.288 402.004 225.08 402.209 224.803 402.364C224.525 402.519 224.181 402.596 223.771 402.596Z" fill="#3A3541" fill-opacity="0.26"/>
<path d="M277.206 402.5V401.3H274.366V400.78L277.086 396.9H277.87V400.708H278.702V401.3H277.87V402.5H277.206ZM275.11 400.708H277.238V397.644L275.11 400.708Z" fill="#3A3541" fill-opacity="0.26"/>
<path d="M329.262 402.596C328.878 402.596 328.544 402.527 328.262 402.388C327.979 402.249 327.752 402.06 327.582 401.82C327.416 401.575 327.315 401.297 327.278 400.988H327.934C327.998 401.297 328.147 401.548 328.382 401.74C328.616 401.927 328.912 402.02 329.27 402.02C329.536 402.02 329.766 401.959 329.958 401.836C330.15 401.708 330.296 401.537 330.398 401.324C330.504 401.111 330.558 400.873 330.558 400.612C330.558 400.196 330.44 399.86 330.206 399.604C329.971 399.348 329.667 399.22 329.294 399.22C328.984 399.22 328.72 399.289 328.502 399.428C328.283 399.567 328.123 399.748 328.022 399.972H327.382L327.862 396.9H330.798V397.484H328.382L328.054 399.188C328.182 399.033 328.358 398.905 328.582 398.804C328.811 398.703 329.072 398.652 329.366 398.652C329.734 398.652 330.054 398.737 330.326 398.908C330.603 399.079 330.819 399.311 330.974 399.604C331.128 399.897 331.206 400.231 331.206 400.604C331.206 400.961 331.128 401.292 330.974 401.596C330.824 401.9 330.603 402.143 330.31 402.324C330.022 402.505 329.672 402.596 329.262 402.596Z" fill="#3A3541" fill-opacity="0.26"/>
<path d="M382.017 402.596C381.612 402.596 381.271 402.521 380.993 402.372C380.716 402.217 380.492 402.012 380.321 401.756C380.156 401.5 380.033 401.215 379.953 400.9C379.879 400.58 379.841 400.255 379.841 399.924C379.841 399.305 379.927 398.764 380.097 398.3C380.268 397.831 380.513 397.465 380.833 397.204C381.159 396.937 381.551 396.804 382.009 396.804C382.361 396.804 382.663 396.873 382.913 397.012C383.164 397.151 383.361 397.337 383.505 397.572C383.655 397.801 383.748 398.057 383.785 398.34H383.161C383.103 398.036 382.972 397.801 382.769 397.636C382.567 397.471 382.311 397.388 382.001 397.388C381.58 397.388 381.225 397.588 380.937 397.988C380.655 398.383 380.503 399.001 380.481 399.844C380.609 399.593 380.812 399.377 381.089 399.196C381.372 399.009 381.711 398.916 382.105 398.916C382.425 398.916 382.724 398.991 383.001 399.14C383.284 399.289 383.513 399.5 383.689 399.772C383.865 400.039 383.953 400.353 383.953 400.716C383.953 401.031 383.876 401.332 383.721 401.62C383.567 401.908 383.343 402.143 383.049 402.324C382.761 402.505 382.417 402.596 382.017 402.596ZM381.969 402.004C382.22 402.004 382.444 401.951 382.641 401.844C382.839 401.737 382.993 401.591 383.105 401.404C383.217 401.212 383.273 400.993 383.273 400.748C383.273 400.369 383.148 400.068 382.897 399.844C382.652 399.615 382.343 399.5 381.969 399.5C381.719 399.5 381.495 399.559 381.297 399.676C381.1 399.788 380.943 399.94 380.825 400.132C380.713 400.324 380.657 400.532 380.657 400.756C380.657 400.996 380.713 401.212 380.825 401.404C380.943 401.591 381.1 401.737 381.297 401.844C381.495 401.951 381.719 402.004 381.969 402.004Z" fill="#3A3541" fill-opacity="0.26"/>
<path d="M433.567 402.5L435.791 397.476H432.719V396.9H436.479V397.404L434.279 402.5H433.567Z" fill="#3A3541" fill-opacity="0.26"/>
<path d="M105.5 384C292.201 381.269 381.789 353.955 444.5 201" stroke="#7878E5" stroke-width="2" stroke-linecap="round" stroke-linejoin="round"/>
<path d="M105.5 384C253.589 360.509 381.789 380.149 444.5 227" stroke="#B7B7EF" stroke-width="2" stroke-linecap="round" stroke-linejoin="round"/>
<path d="M106.5 383.868C195.31 386.487 406.357 350.579 461.5 246" stroke="#CBCBCD" stroke-width="2" stroke-linecap="round"/>
<path d="M105 383.5C193.81 386.119 402.357 329.579 457.5 225" stroke="#3C3CCE" stroke-width="2" stroke-linecap="round"/>
<path d="M446.79 147.848L443.258 151.38C442.841 151.797 442.159 151.797 441.742 151.38L438.21 147.848" stroke="#3A3541" stroke-opacity="0.26" stroke-width="1.5" stroke-miterlimit="10" stroke-linecap="round" stroke-linejoin="round"/>
<path d="M377.74 153V146H378.58V152.33H381.84V153H377.74ZM384.994 153.12C384.581 153.12 384.237 153.05 383.964 152.91C383.691 152.77 383.487 152.583 383.354 152.35C383.221 152.117 383.154 151.863 383.154 151.59C383.154 151.083 383.347 150.693 383.734 150.42C384.121 150.147 384.647 150.01 385.314 150.01H386.654V149.95C386.654 149.517 386.541 149.19 386.314 148.97C386.087 148.743 385.784 148.63 385.404 148.63C385.077 148.63 384.794 148.713 384.554 148.88C384.321 149.04 384.174 149.277 384.114 149.59H383.254C383.287 149.23 383.407 148.927 383.614 148.68C383.827 148.433 384.091 148.247 384.404 148.12C384.717 147.987 385.051 147.92 385.404 147.92C386.097 147.92 386.617 148.107 386.964 148.48C387.317 148.847 387.494 149.337 387.494 149.95V153H386.744L386.694 152.11C386.554 152.39 386.347 152.63 386.074 152.83C385.807 153.023 385.447 153.12 384.994 153.12ZM385.124 152.41C385.444 152.41 385.717 152.327 385.944 152.16C386.177 151.993 386.354 151.777 386.474 151.51C386.594 151.243 386.654 150.963 386.654 150.67V150.66H385.384C384.891 150.66 384.541 150.747 384.334 150.92C384.134 151.087 384.034 151.297 384.034 151.55C384.034 151.81 384.127 152.02 384.314 152.18C384.507 152.333 384.777 152.41 385.124 152.41ZM391.054 153.12C390.461 153.12 389.967 152.97 389.574 152.67C389.181 152.37 388.951 151.963 388.884 151.45H389.744C389.797 151.71 389.934 151.937 390.154 152.13C390.381 152.317 390.684 152.41 391.064 152.41C391.417 152.41 391.677 152.337 391.844 152.19C392.011 152.037 392.094 151.857 392.094 151.65C392.094 151.35 391.984 151.15 391.764 151.05C391.551 150.95 391.247 150.86 390.854 150.78C390.587 150.727 390.321 150.65 390.054 150.55C389.787 150.45 389.564 150.31 389.384 150.13C389.204 149.943 389.114 149.7 389.114 149.4C389.114 148.967 389.274 148.613 389.594 148.34C389.921 148.06 390.361 147.92 390.914 147.92C391.441 147.92 391.871 148.053 392.204 148.32C392.544 148.58 392.741 148.953 392.794 149.44H391.964C391.931 149.187 391.821 148.99 391.634 148.85C391.454 148.703 391.211 148.63 390.904 148.63C390.604 148.63 390.371 148.693 390.204 148.82C390.044 148.947 389.964 149.113 389.964 149.32C389.964 149.52 390.067 149.677 390.274 149.79C390.487 149.903 390.774 150 391.134 150.08C391.441 150.147 391.731 150.23 392.004 150.33C392.284 150.423 392.511 150.567 392.684 150.76C392.864 150.947 392.954 151.22 392.954 151.58C392.961 152.027 392.791 152.397 392.444 152.69C392.104 152.977 391.641 153.12 391.054 153.12ZM396.289 153C395.836 153 395.479 152.89 395.219 152.67C394.959 152.45 394.829 152.053 394.829 151.48V148.75H393.969V148.04H394.829L394.939 146.85H395.669V148.04H397.129V148.75H395.669V151.48C395.669 151.793 395.733 152.007 395.859 152.12C395.986 152.227 396.209 152.28 396.529 152.28H397.049V153H396.289ZM403.133 153.01L401.213 146H402.113L403.623 152.01L405.343 146H406.273L407.943 152.01L409.473 146H410.373L408.413 153H407.453L405.783 147.22L404.073 153L403.133 153.01ZM413.433 153.12C412.96 153.12 412.54 153.013 412.173 152.8C411.807 152.58 411.517 152.277 411.303 151.89C411.097 151.503 410.993 151.047 410.993 150.52C410.993 150 411.097 149.547 411.303 149.16C411.51 148.767 411.797 148.463 412.163 148.25C412.537 148.03 412.967 147.92 413.453 147.92C413.933 147.92 414.347 148.03 414.693 148.25C415.047 148.463 415.317 148.747 415.503 149.1C415.69 149.453 415.783 149.833 415.783 150.24C415.783 150.313 415.78 150.387 415.773 150.46C415.773 150.533 415.773 150.617 415.773 150.71H411.823C411.843 151.09 411.93 151.407 412.083 151.66C412.243 151.907 412.44 152.093 412.673 152.22C412.913 152.347 413.167 152.41 413.433 152.41C413.78 152.41 414.07 152.33 414.303 152.17C414.537 152.01 414.707 151.793 414.813 151.52H415.643C415.51 151.98 415.253 152.363 414.873 152.67C414.5 152.97 414.02 153.12 413.433 153.12ZM413.433 148.63C413.033 148.63 412.677 148.753 412.363 149C412.057 149.24 411.88 149.593 411.833 150.06H414.953C414.933 149.613 414.78 149.263 414.493 149.01C414.207 148.757 413.853 148.63 413.433 148.63ZM419.527 153.12C419.053 153.12 418.633 153.013 418.267 152.8C417.9 152.58 417.61 152.277 417.397 151.89C417.19 151.503 417.087 151.047 417.087 150.52C417.087 150 417.19 149.547 417.397 149.16C417.603 148.767 417.89 148.463 418.257 148.25C418.63 148.03 419.06 147.92 419.547 147.92C420.027 147.92 420.44 148.03 420.787 148.25C421.14 148.463 421.41 148.747 421.597 149.1C421.783 149.453 421.877 149.833 421.877 150.24C421.877 150.313 421.873 150.387 421.867 150.46C421.867 150.533 421.867 150.617 421.867 150.71H417.917C417.937 151.09 418.023 151.407 418.177 151.66C418.337 151.907 418.533 152.093 418.767 152.22C419.007 152.347 419.26 152.41 419.527 152.41C419.873 152.41 420.163 152.33 420.397 152.17C420.63 152.01 420.8 151.793 420.907 151.52H421.737C421.603 151.98 421.347 152.363 420.967 152.67C420.593 152.97 420.113 153.12 419.527 153.12ZM419.527 148.63C419.127 148.63 418.77 148.753 418.457 149C418.15 149.24 417.973 149.593 417.927 150.06H421.047C421.027 149.613 420.873 149.263 420.587 149.01C420.3 148.757 419.947 148.63 419.527 148.63ZM423.39 153V145.8H424.23V150.13L426.26 148.04H427.29L425.09 150.28L427.57 153H426.5L424.23 150.43V153H423.39Z" fill="#3A3541" fill-opacity="0.26"/>
</svg>
