<?xml version="1.0" encoding="utf-8"?>
<!-- Generator: Adobe Illustrator 26.2.1, SVG Export Plug-In . SVG Version: 6.00 Build 0)  -->
<svg version="1.1" id="katman_1" xmlns="http://www.w3.org/2000/svg" xmlns:xlink="http://www.w3.org/1999/xlink" x="0px" y="0px"
	 viewBox="0 0 256 256" style="enable-background:new 0 0 256 256;" xml:space="preserve">
<style type="text/css">
	.st0{fill:#020640;}
	.st1{fill:#60CEF9;}
	.st2{fill:#0021F4;}
	.st3{opacity:0.8;fill:#FFFFFF;}
	.st4{fill:#FFFFFF;}
	.st5{opacity:0.8;fill:#60CEF9;}
	.st6{fill:#0F113B;}
	.st7{fill:#00AEFF;}
	.st8{fill:#242BF2;}
	.st9{opacity:0.8;fill:#00AEFF;}
	.st10{fill:#424242;}
	.st11{fill:url(#SVGID_1_);}
	.st12{opacity:0.5;}
	.st13{fill:none;stroke:#FFFFFF;stroke-miterlimit:10;}
	.st14{fill:none;stroke:#FFFFFF;stroke-miterlimit:10;stroke-dasharray:6.0315,6.0315;}
</style>
<rect x="2238.36" y="-2452.44" class="st0" width="297.64" height="297.64"/>
<rect x="2536" y="-2452.44" class="st1" width="297.64" height="297.64"/>
<g>
	
		<text transform="matrix(1 0 0 1 2642.4336 -2290.4963)" class="st2" style="font-family:'FONTSPRINGDEMO-NatomProBold'; font-size:40.8834px;">postify</text>
	<g>
		<path class="st2" d="M2618.61-2330.25h-26.72c-1.01,0-1.65,1.08-1.18,1.97l6.93,12.88l1.21,2.29c0.21,0.39,0.21,0.86,0,1.25
			l-1.21,2.29l-6.93,12.88c-0.48,0.89,0.17,1.97,1.18,1.97h26.72c0.46,0,0.89-0.24,1.14-0.64l10.07-16.42c0.26-0.43,0.26-0.97,0-1.4
			l-10.07-16.42C2619.51-2330.01,2619.08-2330.25,2618.61-2330.25z"/>
		<path class="st3" d="M2588.97-2276.99h17c0.92,0,1.57-0.92,1.26-1.78l-4.68-13.06l-0.87-2.47c-0.1-0.29-0.1-0.6,0-0.89l0.87-2.47
			l4.68-13.06c0.31-0.87-0.33-1.78-1.26-1.78h-17c-0.54,0-1.03,0.33-1.24,0.83l-6.71,16.42c-0.13,0.32-0.13,0.69,0,1.01l6.71,16.42
			C2587.94-2277.31,2588.43-2276.99,2588.97-2276.99z"/>
	</g>
</g>
<g>
	
		<text transform="matrix(1 0 0 1 2344.7964 -2290.4963)" class="st4" style="font-family:'FONTSPRINGDEMO-NatomProBold'; font-size:40.8834px;">postify</text>
	<g>
		<path class="st4" d="M2320.97-2330.25h-26.72c-1.01,0-1.65,1.08-1.18,1.97l6.93,12.88l1.21,2.29c0.21,0.39,0.21,0.86,0,1.25
			l-1.21,2.29l-6.93,12.88c-0.48,0.89,0.17,1.97,1.18,1.97h26.72c0.46,0,0.89-0.24,1.14-0.64l10.07-16.42c0.26-0.43,0.26-0.97,0-1.4
			l-10.07-16.42C2321.87-2330.01,2321.44-2330.25,2320.97-2330.25z"/>
		<path class="st3" d="M2291.33-2276.99h17c0.92,0,1.57-0.92,1.26-1.78l-4.68-13.06l-0.87-2.47c-0.1-0.29-0.1-0.6,0-0.89l0.87-2.47
			l4.68-13.06c0.31-0.87-0.33-1.78-1.26-1.78h-17c-0.54,0-1.03,0.33-1.24,0.83l-6.71,16.42c-0.13,0.32-0.13,0.69,0,1.01l6.71,16.42
			C2290.3-2277.31,2290.79-2276.99,2291.33-2276.99z"/>
	</g>
</g>
<g>
	
		<text transform="matrix(1 0 0 1 2473.6956 -1986.6903)" class="st2" style="font-family:'FONTSPRINGDEMO-NatomProBold'; font-size:60.0996px;">postify</text>
	<g>
		<path class="st2" d="M2438.68-2045.13h-39.28c-1.48,0-2.43,1.58-1.73,2.89l10.18,18.93l1.78,3.36c0.3,0.57,0.3,1.26,0,1.83
			l-1.78,3.36l-10.18,18.93c-0.7,1.31,0.24,2.89,1.73,2.89h39.28c0.68,0,1.32-0.35,1.67-0.94l14.81-24.14
			c0.39-0.63,0.39-1.42,0-2.05l-14.81-24.14C2439.99-2044.78,2439.36-2045.13,2438.68-2045.13z"/>
		<path class="st5" d="M2395.1-1966.83h24.98c1.36,0,2.3-1.35,1.85-2.62l-6.88-19.2l-1.28-3.63c-0.15-0.42-0.15-0.88,0-1.3
			l1.28-3.63l6.88-19.2c0.46-1.28-0.49-2.62-1.85-2.62h-24.98c-0.8,0-1.51,0.48-1.82,1.22l-9.87,24.14c-0.19,0.48-0.19,1.01,0,1.48
			l9.87,24.14C2393.58-1967.31,2394.3-1966.83,2395.1-1966.83z"/>
	</g>
</g>
<rect x="604.17" y="-2452.44" class="st6" width="808.19" height="627.3"/>
<rect x="1840.86" y="-2452.44" class="st7" width="297.64" height="297.64"/>
<g>
	
		<text transform="matrix(1 0 0 1 1947.2925 -2290.4963)" class="st8" style="font-family:'FONTSPRINGDEMO-NatomProBold'; font-size:40.8834px;">postify</text>
	<g>
		<path class="st8" d="M1923.47-2330.25h-26.72c-1.01,0-1.65,1.08-1.18,1.97l6.93,12.88l1.21,2.29c0.21,0.39,0.21,0.86,0,1.25
			l-1.21,2.29l-6.93,12.88c-0.48,0.89,0.17,1.97,1.18,1.97h26.72c0.46,0,0.89-0.24,1.14-0.64l10.07-16.42c0.26-0.43,0.26-0.97,0-1.4
			l-10.07-16.42C1924.37-2330.01,1923.93-2330.25,1923.47-2330.25z"/>
		<path class="st3" d="M1893.83-2276.99h17c0.92,0,1.57-0.92,1.26-1.78l-4.68-13.06l-0.87-2.47c-0.1-0.29-0.1-0.6,0-0.89l0.87-2.47
			l4.68-13.06c0.31-0.87-0.33-1.78-1.26-1.78h-17c-0.54,0-1.03,0.33-1.24,0.83l-6.71,16.42c-0.13,0.32-0.13,0.69,0,1.01l6.71,16.42
			C1892.8-2277.31,1893.29-2276.99,1893.83-2276.99z"/>
	</g>
</g>
<g>
	
		<text transform="matrix(1 0 0 1 1778.553 -1986.6903)" class="st8" style="font-family:'FONTSPRINGDEMO-NatomProBold'; font-size:60.0996px;">postify</text>
	<g>
		<path class="st8" d="M1743.53-2045.13h-39.28c-1.48,0-2.43,1.58-1.73,2.89l10.18,18.93l1.78,3.36c0.3,0.57,0.3,1.26,0,1.83
			l-1.78,3.36l-10.18,18.93c-0.7,1.31,0.24,2.89,1.73,2.89h39.28c0.68,0,1.32-0.35,1.67-0.94l14.81-24.14
			c0.39-0.63,0.39-1.42,0-2.05l-14.81-24.14C1744.85-2044.78,1744.22-2045.13,1743.53-2045.13z"/>
		<path class="st9" d="M1699.96-1966.83h24.98c1.36,0,2.3-1.35,1.85-2.62l-6.88-19.2l-1.28-3.63c-0.15-0.42-0.15-0.88,0-1.3
			l1.28-3.63l6.88-19.2c0.46-1.28-0.49-2.62-1.85-2.62h-24.98c-0.8,0-1.51,0.48-1.82,1.22l-9.87,24.14c-0.19,0.48-0.19,1.01,0,1.48
			l9.87,24.14C1698.44-1967.31,1699.16-1966.83,1699.96-1966.83z"/>
	</g>
</g>
<rect x="1543.22" y="-2452.44" class="st8" width="297.64" height="297.64"/>
<g>
	
		<text transform="matrix(1 0 0 1 1649.6548 -2290.4963)" class="st4" style="font-family:'FONTSPRINGDEMO-NatomProBold'; font-size:40.8834px;">postify</text>
	<g>
		<path class="st4" d="M1625.83-2330.25h-26.72c-1.01,0-1.65,1.08-1.18,1.97l6.93,12.88l1.21,2.29c0.21,0.39,0.21,0.86,0,1.25
			l-1.21,2.29l-6.93,12.88c-0.48,0.89,0.17,1.97,1.18,1.97h26.72c0.46,0,0.89-0.24,1.14-0.64l10.07-16.42c0.26-0.43,0.26-0.97,0-1.4
			l-10.07-16.42C1626.73-2330.01,1626.3-2330.25,1625.83-2330.25z"/>
		<path class="st3" d="M1596.19-2276.99h17c0.92,0,1.57-0.92,1.26-1.78l-4.68-13.06l-0.87-2.47c-0.1-0.29-0.1-0.6,0-0.89l0.87-2.47
			l4.68-13.06c0.31-0.87-0.33-1.78-1.26-1.78h-17c-0.54,0-1.03,0.33-1.24,0.83l-6.71,16.42c-0.13,0.32-0.13,0.69,0,1.01l6.71,16.42
			C1595.16-2277.31,1595.65-2276.99,1596.19-2276.99z"/>
	</g>
</g>
<g>
	<g>
		
			<text transform="matrix(1 0 0 1 930.5585 -2247.1853)" class="st4" style="font-family:'FONTSPRINGDEMO-NatomProBold'; font-size:74.9608px;">postify</text>
		<g>
			<path class="st4" d="M886.79-2320.3h-49.12c-1.86,0-3.04,1.98-2.16,3.61l12.73,23.68l2.22,4.2c0.38,0.72,0.38,1.57,0,2.29
				l-2.22,4.2l-12.73,23.68c-0.88,1.63,0.3,3.61,2.16,3.61h49.12c0.85,0,1.64-0.44,2.09-1.17l18.52-30.19
				c0.48-0.79,0.48-1.78,0-2.57l-18.52-30.19C888.43-2319.86,887.64-2320.3,886.79-2320.3z"/>
			<path class="st3" d="M832.13-2222.39h31.24c1.7,0,2.88-1.68,2.31-3.28l-12.56-24.01l-1.6-4.54c-0.19-0.53-0.19-1.1,0-1.63
				l1.6-4.54l12.56-24.01c0.57-1.6-0.61-3.28-2.31-3.28h-31.24c-1,0-1.89,0.6-2.27,1.52l-16.3,30.19c-0.24,0.59-0.24,1.26,0,1.86
				l16.3,30.19C830.24-2222.99,831.14-2222.39,832.13-2222.39z"/>
		</g>
	</g>
	
		<text transform="matrix(1 0 0 1 1202.9653 -2284.5632)" class="st4" style="font-family:'FONTSPRINGDEMO-NatomProRegular'; font-size:15.3062px;">TM</text>
</g>
<g>
	
		<text transform="matrix(1 0 0 1 930.5585 -1636.7864)" class="st10" style="font-family:'FONTSPRINGDEMO-NatomProBold'; font-size:74.9608px;">postify</text>
	
		<text transform="matrix(1 0 0 1 1202.9653 -1674.1644)" class="st10" style="font-family:'FONTSPRINGDEMO-NatomProRegular'; font-size:15.3062px;">TM</text>
</g>
<g>
	<g>
		<path class="st10" d="M-56.95-1405.32c0,22.08-14.45,36.39-33.26,36.39c-7.36,0-14.31-2.59-19.35-6.68v31.62h-25.08v-96.09h25.22
			v4.91c5.04-3.95,11.99-6.54,19.22-6.54C-71.4-1441.72-56.95-1427.41-56.95-1405.32z M-80.94-1405.32
			c0-10.22-7.09-16.49-16.08-16.49c-4.23,0-8.72,1.64-12.4,4.09v24.81c3.68,2.45,8.18,4.09,12.4,4.09
			C-88.03-1388.83-80.94-1395.1-80.94-1405.32z"/>
		<path class="st10" d="M-48.92-1405.32c0-21.67,17.31-36.39,38.71-36.39c21.67,0,38.98,14.72,38.98,36.39
			c0,21.67-17.31,36.39-38.84,36.39S-48.92-1383.65-48.92-1405.32z M4.78-1405.32c0-9-6.54-15.13-14.86-15.13
			s-14.86,6.13-14.86,15.13c0,8.99,6.54,15.13,14.86,15.13S4.78-1396.33,4.78-1405.32z"/>
		<path class="st10" d="M39.12-1374.52v-18.4c6.95,4.36,16.22,6.54,24.53,6.54c4.36,0,8.04-1.64,8.04-4.5c0-2.45-2.04-3.82-4.91-4.5
			l-12.81-3.41c-13.09-3.54-16.63-13.63-16.63-21.13c0-13.77,12.95-21.81,30.8-21.81c8.72,0,17.58,1.91,22.76,4.36v17.99
			c-5.86-3-14.86-4.63-21.94-4.63c-4.5,0-7.77,1.36-7.77,4.5c0,2.32,1.77,3.54,4.63,4.36l12.68,3.95
			c13.9,4.36,17.17,12.95,17.17,20.85c0,14.45-12.54,21.4-30.12,21.4C55.61-1368.93,44.3-1371.52,39.12-1374.52z"/>
		<path class="st10" d="M154.56-1390.88v20.04c-4.63,1.09-11.59,1.91-16.76,1.91c-26.85,0-31.89-20.31-31.89-35.17v-44.84
			l23.03-11.86h2.05v20.85l21.4-0.14v19.08h-21.4v17.31c0,9.4,5.04,14.04,13.08,14.04C147.2-1389.65,151.15-1390.06,154.56-1390.88z
			"/>
		<path class="st10" d="M163.14-1462.03c0-8.04,6.54-13.36,14.58-13.36c8.04,0,14.45,5.32,14.45,13.36
			c0,8.04-6.54,13.49-14.45,13.49C169.68-1448.53,163.14-1453.98,163.14-1462.03z M165.18-1370.57v-69.51h25.08v69.51H165.18z"/>
		<path class="st10" d="M231.01-1440.35v0.27h27.4v19.08h-27.4v50.43h-25.08v-67.88c0-18.81,8.86-35.98,35.71-35.98
			c6.95,0,16.9,1.36,20.85,3.41v19.49c-3.68-1.5-10.22-2.45-14.58-2.45C239.87-1453.98,231.01-1450.85,231.01-1440.35z"/>
		<path class="st10" d="M320.42-1440.08h24.81v1.5l-27.12,68.69c-5.32,13.63-17.04,27.53-38.03,27.53c-3.95,0-10.77-0.55-14.99-1.36
			v-18.95c4.5,0.96,8.59,1.36,11.18,1.36c7.09,0,12.4-3.82,15.68-8.18l-30.8-69.24v-1.36h25.08l18.4,44.43L320.42-1440.08z"/>
	</g>
	<g>
		<path class="st10" d="M366.8-1458.01v2.28h-5.31v17.2h-2.45v-17.2h-5.37v-2.28H366.8z"/>
		<path class="st10" d="M390.65-1438.53h-2.45l-2.39-13.13l-6.21,12.24h-0.58l-6.21-12.27l-2.36,13.16H368l3.42-19.48h0.67
			l7.23,13.94l7.21-13.94h0.67L390.65-1438.53z"/>
	</g>
</g>
<g>
	<g>
		<path class="st4" d="M1174.15-1909.02h-67.79c-7.83,0-14.17-6.35-14.17-14.17v-67.79c0-7.83,6.35-14.17,14.17-14.17h67.79
			c7.83,0,14.17,6.35,14.17,14.17v67.79C1188.32-1915.36,1181.97-1909.02,1174.15-1909.02z"/>
		<g>
			<path class="st8" d="M1156.21-1986.89h-29.9c-1.13,0-1.85,1.21-1.32,2.2l7.75,14.41l1.35,2.56c0.23,0.44,0.23,0.96,0,1.4
				l-1.35,2.56l-7.75,14.41c-0.53,0.99,0.19,2.2,1.32,2.2h29.9c0.52,0,1-0.27,1.27-0.71l11.27-18.38c0.29-0.48,0.29-1.08,0-1.56
				l-11.27-18.38C1157.22-1986.62,1156.73-1986.89,1156.21-1986.89z"/>
			<path class="st9" d="M1122.94-1927.28h19.02c1.03,0,1.75-1.02,1.41-2l-7.65-14.62l-0.97-2.76c-0.11-0.32-0.11-0.67,0-0.99
				l0.97-2.76l7.65-14.62c0.35-0.97-0.37-2-1.41-2h-19.02c-0.61,0-1.15,0.37-1.38,0.93l-9.92,18.38c-0.15,0.36-0.15,0.77,0,1.13
				l9.92,18.38C1121.79-1927.64,1122.33-1927.28,1122.94-1927.28z"/>
		</g>
	</g>
	<g>
		<linearGradient id="SVGID_1_" gradientUnits="userSpaceOnUse" x1="1239.9109" y1="-1913.0927" x2="1327.7435" y2="-2000.9253">
			<stop  offset="0" style="stop-color:#00AEFF"/>
			<stop  offset="1" style="stop-color:#242BF2"/>
		</linearGradient>
		<path class="st11" d="M1317.72-1908.94h-67.79c-7.83,0-14.17-6.35-14.17-14.17v-67.79c0-7.83,6.35-14.17,14.17-14.17h67.79
			c7.83,0,14.17,6.35,14.17,14.17v67.79C1331.89-1915.29,1325.55-1908.94,1317.72-1908.94z"/>
		<g>
			<path class="st4" d="M1298.42-1987.29h-29.9c-1.13,0-1.85,1.21-1.32,2.2l7.75,14.41l1.35,2.56c0.23,0.44,0.23,0.96,0,1.4
				l-1.35,2.56l-7.75,14.41c-0.53,0.99,0.19,2.2,1.32,2.2h29.9c0.52,0,1-0.27,1.27-0.71l11.27-18.38c0.29-0.48,0.29-1.08,0-1.56
				l-11.27-18.38C1299.42-1987.02,1298.94-1987.29,1298.42-1987.29z"/>
			<path class="st3" d="M1265.14-1927.67h19.02c1.03,0,1.75-1.02,1.41-2l-7.65-14.62l-0.97-2.76c-0.11-0.32-0.11-0.67,0-0.99
				l0.97-2.76l7.65-14.62c0.35-0.97-0.37-2-1.41-2h-19.02c-0.61,0-1.15,0.37-1.38,0.93l-9.92,18.38c-0.15,0.36-0.15,0.77,0,1.13
				l9.92,18.38C1263.99-1928.04,1264.54-1927.67,1265.14-1927.67z"/>
		</g>
	</g>
</g>
<g>
	
		<text transform="matrix(1 0 0 1 684.6428 -1968.1841)" class="st4" style="font-family:'FONTSPRINGDEMO-NatomProBold'; font-size:36.2962px;">Aa</text>
	
		<text transform="matrix(1 0 0 1 684.6428 -1940.8032)" class="st4" style="font-family:'FONTSPRINGDEMO-NatomProRegular'; font-size:18.1181px; letter-spacing:6;">TYPOGRAPHY</text>
	
		<text transform="matrix(1 0 0 1 684.6428 -1917.6685)" class="st4" style="font-family:'FONTSPRINGDEMO-NatomProBold'; font-size:18.1181px; letter-spacing:6;">NATOM PRO  BOLD</text>
	<g>
		<g>
			<path class="st4" d="M869.87-1922.41h-7.65v-3.57h7.65V-1922.41z"/>
		</g>
	</g>
</g>
<g class="st12">
	<g>
		<line class="st13" x1="604.17" y1="-2089.82" x2="607.17" y2="-2089.82"/>
		<line class="st14" x1="613.21" y1="-2089.82" x2="1406.35" y2="-2089.82"/>
		<line class="st13" x1="1409.36" y1="-2089.82" x2="1412.36" y2="-2089.82"/>
	</g>
</g>
<g>
	<path class="st8" d="M887.3-1700.68h-48.99c-1.85,0-3.03,1.98-2.15,3.61l12.7,23.62l2.22,4.19c0.38,0.72,0.38,1.57,0,2.29
		l-2.22,4.19l-12.7,23.62c-0.88,1.63,0.3,3.61,2.15,3.61h48.99c0.85,0,1.64-0.44,2.09-1.17l18.47-30.11c0.48-0.78,0.48-1.77,0-2.56
		l-18.47-30.11C888.94-1700.24,888.15-1700.68,887.3-1700.68z"/>
	<path class="st9" d="M832.79-1603.01h31.16c1.69,0,2.87-1.68,2.3-3.27l-12.53-23.95l-1.59-4.52c-0.19-0.53-0.19-1.1,0-1.62
		l1.59-4.52l12.53-23.95c0.57-1.59-0.61-3.27-2.3-3.27h-31.16c-0.99,0-1.89,0.6-2.26,1.52l-16.26,30.11c-0.24,0.59-0.24,1.26,0,1.85
		l16.26,30.11C830.9-1603.61,831.79-1603.01,832.79-1603.01z"/>
</g>
<g>
	<g>
		
			<text transform="matrix(1 0 0 1 1.2929 -668.2692)" class="st10" style="font-family:'FONTSPRINGDEMO-NatomProBold'; font-size:107.0689px;">postify</text>
		
			<text transform="matrix(1 0 0 1 390.3793 -721.6569)" class="st10" style="font-family:'FONTSPRINGDEMO-NatomProRegular'; font-size:21.8624px;">TM</text>
	</g>
	<g>
		<path class="st8" d="M-60.49-759.53h-69.98c-2.64,0-4.33,2.82-3.08,5.15l18.14,33.73l3.16,5.99c0.54,1.02,0.54,2.24,0,3.26
			l-3.16,5.99l-18.14,33.73c-1.25,2.33,0.43,5.15,3.08,5.15h69.98c1.22,0,2.34-0.63,2.98-1.67l26.38-43.01
			c0.69-1.12,0.69-2.53,0-3.65l-26.38-43.01C-58.15-758.9-59.28-759.53-60.49-759.53z"/>
		<path class="st9" d="M-138.36-620.03h44.51c2.42,0,4.11-2.4,3.29-4.67l-17.9-34.21l-2.27-6.46c-0.26-0.75-0.26-1.57,0-2.32
			l2.27-6.46l17.9-34.21c0.82-2.28-0.87-4.67-3.29-4.67h-44.51c-1.42,0-2.7,0.86-3.23,2.17l-23.22,43.01c-0.35,0.85-0.35,1.8,0,2.64
			l23.22,43.01C-141.05-620.89-139.78-620.03-138.36-620.03z"/>
	</g>
</g>
<g>
	<g>
		<g>
			<path class="st4" d="M102.16,125.47c0,7.59-4.97,12.51-11.43,12.51c-2.53,0-4.92-0.89-6.65-2.3v10.87h-8.62v-33.02h8.67v1.69
				c1.73-1.36,4.12-2.25,6.6-2.25C97.19,112.96,102.16,117.88,102.16,125.47z M93.91,125.47c0-3.51-2.44-5.67-5.53-5.67
				c-1.45,0-3,0.56-4.26,1.41v8.53c1.26,0.84,2.81,1.41,4.26,1.41C91.48,131.13,93.91,128.98,93.91,125.47z"/>
			<path class="st4" d="M104.92,125.47c0-7.45,5.95-12.51,13.3-12.51c7.45,0,13.4,5.06,13.4,12.51c0,7.45-5.95,12.51-13.35,12.51
				C110.87,137.97,104.92,132.91,104.92,125.47z M123.38,125.47c0-3.09-2.25-5.2-5.11-5.2c-2.86,0-5.11,2.11-5.11,5.2
				c0,3.09,2.25,5.2,5.11,5.2C121.13,130.67,123.38,128.56,123.38,125.47z"/>
			<path class="st4" d="M135.18,136.05v-6.32c2.39,1.5,5.57,2.25,8.43,2.25c1.5,0,2.76-0.56,2.76-1.55c0-0.84-0.7-1.31-1.69-1.55
				l-4.4-1.17c-4.5-1.22-5.71-4.68-5.71-7.26c0-4.73,4.45-7.49,10.59-7.49c3,0,6.04,0.66,7.82,1.5v6.18
				c-2.01-1.03-5.11-1.59-7.54-1.59c-1.55,0-2.67,0.47-2.67,1.55c0,0.8,0.61,1.22,1.59,1.5l4.36,1.36c4.78,1.5,5.9,4.45,5.9,7.17
				c0,4.97-4.31,7.35-10.35,7.35C140.85,137.97,136.96,137.08,135.18,136.05z"/>
			<path class="st4" d="M174.85,130.43v6.89c-1.59,0.37-3.98,0.66-5.76,0.66c-9.23,0-10.96-6.98-10.96-12.09v-15.41l7.92-4.08h0.7
				v7.17l7.35-0.05v6.56h-7.35v5.95c0,3.23,1.73,4.82,4.5,4.82C172.32,130.85,173.68,130.71,174.85,130.43z"/>
			<path class="st4" d="M177.8,105.98c0-2.76,2.25-4.59,5.01-4.59c2.76,0,4.97,1.83,4.97,4.59c0,2.76-2.25,4.64-4.97,4.64
				C180.05,110.62,177.8,108.74,177.8,105.98z M178.51,137.41v-23.89h8.62v23.89H178.51z"/>
			<path class="st4" d="M201.13,113.43v0.09h9.42v6.56h-9.42v17.33h-8.62v-23.33c0-6.46,3.04-12.37,12.27-12.37
				c2.39,0,5.81,0.47,7.17,1.17v6.7c-1.26-0.52-3.51-0.84-5.01-0.84C204.18,108.74,201.13,109.82,201.13,113.43z"/>
			<path class="st4" d="M231.86,113.52h8.53v0.52l-9.32,23.61c-1.83,4.68-5.86,9.46-13.07,9.46c-1.36,0-3.7-0.19-5.15-0.47v-6.51
				c1.55,0.33,2.95,0.47,3.84,0.47c2.44,0,4.26-1.31,5.39-2.81l-10.59-23.8v-0.47h8.62l6.32,15.27L231.86,113.52z"/>
		</g>
		<g>
			<path class="st4" d="M247.8,107.36v0.78h-1.83v5.91h-0.84v-5.91h-1.85v-0.78H247.8z"/>
			<path class="st4" d="M256,114.05h-0.84l-0.82-4.52l-2.13,4.21H252l-2.13-4.22l-0.81,4.52h-0.84l1.18-6.7h0.23l2.49,4.79
				l2.48-4.79h0.23L256,114.05z"/>
		</g>
	</g>
	<g>
		<path class="st4" d="M45.75,97.48H15.14c-1.16,0-1.89,1.23-1.35,2.25l7.93,14.76l1.38,2.62c0.24,0.45,0.24,0.98,0,1.43l-1.38,2.62
			l-7.93,14.76c-0.55,1.02,0.19,2.25,1.35,2.25h30.61c0.53,0,1.03-0.28,1.3-0.73l11.54-18.82c0.3-0.49,0.3-1.11,0-1.6L47.06,98.21
			C46.78,97.76,46.29,97.48,45.75,97.48z"/>
		<path class="st3" d="M11.69,158.52h19.47c1.06,0,1.8-1.05,1.44-2.04l-7.83-14.97l-1-2.83c-0.12-0.33-0.12-0.69,0-1.02l1-2.83
			l7.83-14.97c0.36-1-0.38-2.04-1.44-2.04H11.69c-0.62,0-1.18,0.38-1.42,0.95L0.11,137.59c-0.15,0.37-0.15,0.79,0,1.16l10.16,18.82
			C10.51,158.14,11.07,158.52,11.69,158.52z"/>
	</g>
</g>
<g>
	<path class="st8" d="M220.77-2291.66H46.98c-6.56,0-10.75,7.01-7.64,12.79l45.04,83.77l7.86,14.87c1.34,2.54,1.34,5.57,0,8.11
		l-7.86,14.87l-45.04,83.77c-3.11,5.78,1.08,12.79,7.64,12.79h173.79c3.02,0,5.82-1.57,7.4-4.14l65.52-106.81
		c1.71-2.78,1.71-6.29,0-9.08l-65.52-106.81C226.59-2290.09,223.79-2291.66,220.77-2291.66z"/>
	<path class="st9" d="M27.38-1945.18h110.55c6.01,0,10.2-5.95,8.17-11.61l-44.45-84.96L96-2057.79c-0.66-1.86-0.66-3.9,0-5.76
		l5.65-16.05l44.45-84.96c2.03-5.65-2.17-11.61-8.17-11.61H27.38c-3.53,0-6.7,2.13-8.03,5.4l-57.68,106.81
		c-0.86,2.1-0.86,4.46,0,6.57l57.68,106.81C20.68-1947.31,23.86-1945.18,27.38-1945.18z"/>
</g>
</svg>
